<?xml version="1.0" encoding="UTF-8" standalone="no"?>
<!DOCTYPE svg PUBLIC "-//W3C//DTD SVG 1.0//EN" "http://www.w3.org/TR/2001/PR-SVG-20010719/DTD/svg10.dtd">
<svg width="33cm" height="16cm" viewBox="99 199 658 305" xmlns="http://www.w3.org/2000/svg" xmlns:xlink="http://www.w3.org/1999/xlink">
  <g>
    <rect style="fill: #ffffff" x="340" y="200" width="127.8" height="28"/>
    <rect style="fill: none; fill-opacity:0; stroke-width: 2; stroke: #000000" x="340" y="200" width="127.8" height="28"/>
    <text font-size="16" style="fill: #000000;text-anchor:middle;font-family:sans-serif;font-style:normal;font-weight:700" x="403.9" y="219">Queue</text>
    <rect style="fill: #ffffff" x="340" y="228" width="127.8" height="44"/>
    <rect style="fill: none; fill-opacity:0; stroke-width: 2; stroke: #000000" x="340" y="228" width="127.8" height="44"/>
    <text font-size="16" style="fill: #000000;text-anchor:start;font-family:sans-serif;font-style:normal;font-weight:normal" x="343" y="245">+front             </text>
    <text font-size="16" style="fill: #000000;text-anchor:start;font-family:sans-serif;font-style:normal;font-weight:normal" x="343" y="265">+back             </text>
    <rect style="fill: #ffffff" x="340" y="272" width="127.8" height="104"/>
    <rect style="fill: none; fill-opacity:0; stroke-width: 2; stroke: #000000" x="340" y="272" width="127.8" height="104"/>
    <text font-size="16" style="fill: #000000;text-anchor:start;font-family:sans-serif;font-style:normal;font-weight:normal" x="343" y="289">+Queue()</text>
    <text font-size="16" style="fill: #000000;text-anchor:start;font-family:sans-serif;font-style:normal;font-weight:normal" x="343" y="309">+~Queue()</text>
    <text font-size="16" style="fill: #000000;text-anchor:start;font-family:sans-serif;font-style:normal;font-weight:normal" x="343" y="329">+isEmpty()</text>
    <text font-size="16" style="fill: #000000;text-anchor:start;font-family:sans-serif;font-style:normal;font-weight:normal" x="343" y="349">+enqueue()</text>
    <text font-size="16" style="fill: #000000;text-anchor:start;font-family:sans-serif;font-style:normal;font-weight:normal" x="343" y="369">+dequeue()</text>
  </g>
  <g>
    <rect style="fill: #ffffff" x="100" y="420" width="131.5" height="28"/>
    <rect style="fill: none; fill-opacity:0; stroke-width: 2; stroke: #000000" x="100" y="420" width="131.5" height="28"/>
    <text font-size="16" style="fill: #000000;text-anchor:middle;font-family:sans-serif;font-style:normal;font-weight:700" x="165.75" y="439">QueueNode</text>
    <rect style="fill: #ffffff" x="100" y="448" width="131.5" height="44"/>
    <rect style="fill: none; fill-opacity:0; stroke-width: 2; stroke: #000000" x="100" y="448" width="131.5" height="44"/>
    <text font-size="16" style="fill: #000000;text-anchor:start;font-family:sans-serif;font-style:normal;font-weight:normal" x="103" y="465">+value = 4      </text>
    <text font-size="16" style="fill: #000000;text-anchor:start;font-family:sans-serif;font-style:normal;font-weight:normal" x="103" y="485">+next</text>
  </g>
  <g>
    <rect style="fill: #ffffff" x="260" y="420" width="131.5" height="28"/>
    <rect style="fill: none; fill-opacity:0; stroke-width: 2; stroke: #000000" x="260" y="420" width="131.5" height="28"/>
    <text font-size="16" style="fill: #000000;text-anchor:middle;font-family:sans-serif;font-style:normal;font-weight:700" x="325.75" y="439">QueueNode</text>
    <rect style="fill: #ffffff" x="260" y="448" width="131.5" height="44"/>
    <rect style="fill: none; fill-opacity:0; stroke-width: 2; stroke: #000000" x="260" y="448" width="131.5" height="44"/>
    <text font-size="16" style="fill: #000000;text-anchor:start;font-family:sans-serif;font-style:normal;font-weight:normal" x="263" y="465">+value = 3      </text>
    <text font-size="16" style="fill: #000000;text-anchor:start;font-family:sans-serif;font-style:normal;font-weight:normal" x="263" y="485">+next</text>
  </g>
  <g>
    <rect style="fill: #ffffff" x="420" y="420" width="131.5" height="28"/>
    <rect style="fill: none; fill-opacity:0; stroke-width: 2; stroke: #000000" x="420" y="420" width="131.5" height="28"/>
    <text font-size="16" style="fill: #000000;text-anchor:middle;font-family:sans-serif;font-style:normal;font-weight:700" x="485.75" y="439">QueueNode</text>
    <rect style="fill: #ffffff" x="420" y="448" width="131.5" height="44"/>
    <rect style="fill: none; fill-opacity:0; stroke-width: 2; stroke: #000000" x="420" y="448" width="131.5" height="44"/>
    <text font-size="16" style="fill: #000000;text-anchor:start;font-family:sans-serif;font-style:normal;font-weight:normal" x="423" y="465">+value = 2      </text>
    <text font-size="16" style="fill: #000000;text-anchor:start;font-family:sans-serif;font-style:normal;font-weight:normal" x="423" y="485">+next</text>
  </g>
  <g>
    <rect style="fill: #ffffff" x="580" y="420" width="131.5" height="28"/>
    <rect style="fill: none; fill-opacity:0; stroke-width: 2; stroke: #000000" x="580" y="420" width="131.5" height="28"/>
    <text font-size="16" style="fill: #000000;text-anchor:middle;font-family:sans-serif;font-style:normal;font-weight:700" x="645.75" y="439">QueueNode</text>
    <rect style="fill: #ffffff" x="580" y="448" width="131.5" height="44"/>
    <rect style="fill: none; fill-opacity:0; stroke-width: 2; stroke: #000000" x="580" y="448" width="131.5" height="44"/>
    <text font-size="16" style="fill: #000000;text-anchor:start;font-family:sans-serif;font-style:normal;font-weight:normal" x="583" y="465">+value = 1      </text>
    <text font-size="16" style="fill: #000000;text-anchor:start;font-family:sans-serif;font-style:normal;font-weight:normal" x="583" y="485">+next</text>
  </g>
  <g>
    <line style="fill: none; fill-opacity:0; stroke-width: 2; stroke: #000000" x1="340" y1="240" x2="172.522" y2="413.005"/>
    <polygon style="fill: #000000" points="167.305,418.393 170.668,407.731 172.522,413.005 177.853,414.686 "/>
    <polygon style="fill: none; fill-opacity:0; stroke-width: 2; stroke: #000000" points="167.305,418.393 170.668,407.731 172.522,413.005 177.853,414.686 "/>
  </g>
  <g>
    <line style="fill: none; fill-opacity:0; stroke-width: 2; stroke: #000000" x1="640" y1="480" x2="730.264" y2="480"/>
    <polygon style="fill: #000000" points="737.764,480 727.764,485 730.264,480 727.764,475 "/>
    <polygon style="fill: none; fill-opacity:0; stroke-width: 2; stroke: #000000" points="737.764,480 727.764,485 730.264,480 727.764,475 "/>
  </g>
  <g>
    <line style="fill: none; fill-opacity:0; stroke-width: 2; stroke: #000000" x1="180" y1="480" x2="250.264" y2="480"/>
    <polygon style="fill: #000000" points="257.764,480 247.764,485 250.264,480 247.764,475 "/>
    <polygon style="fill: none; fill-opacity:0; stroke-width: 2; stroke: #000000" points="257.764,480 247.764,485 250.264,480 247.764,475 "/>
  </g>
  <g>
    <line style="fill: none; fill-opacity:0; stroke-width: 2; stroke: #000000" x1="320" y1="480" x2="410.264" y2="480"/>
    <polygon style="fill: #000000" points="417.764,480 407.764,485 410.264,480 407.764,475 "/>
    <polygon style="fill: none; fill-opacity:0; stroke-width: 2; stroke: #000000" points="417.764,480 407.764,485 410.264,480 407.764,475 "/>
  </g>
  <g>
    <line style="fill: none; fill-opacity:0; stroke-width: 2; stroke: #000000" x1="480" y1="480" x2="570.264" y2="480"/>
    <polygon style="fill: #000000" points="577.764,480 567.764,485 570.264,480 567.764,475 "/>
    <polygon style="fill: none; fill-opacity:0; stroke-width: 2; stroke: #000000" points="577.764,480 567.764,485 570.264,480 567.764,475 "/>
  </g>
  <g>
    <line style="fill: none; fill-opacity:0; stroke-width: 2; stroke: #000000" x1="740" y1="458" x2="740" y2="502"/>
    <line style="fill: none; fill-opacity:0; stroke-width: 2; stroke: #000000" x1="748" y1="465" x2="748" y2="495"/>
    <line style="fill: none; fill-opacity:0; stroke-width: 2; stroke: #000000" x1="756" y1="472" x2="756" y2="488"/>
  </g>
  <g>
    <line style="fill: none; fill-opacity:0; stroke-width: 2; stroke: #000000" x1="500" y1="260" x2="639.194" y2="412.803"/>
    <polygon style="fill: #000000" points="644.244,418.347 633.814,414.321 639.194,412.803 641.206,407.587 "/>
    <polygon style="fill: none; fill-opacity:0; stroke-width: 2; stroke: #000000" points="644.244,418.347 633.814,414.321 639.194,412.803 641.206,407.587 "/>
  </g>
  <line style="fill: none; fill-opacity:0; stroke-width: 2; stroke: #000000" x1="420" y1="260" x2="500" y2="260"/>
</svg>
