<?xml version="1.0" encoding="UTF-8" standalone="no"?>
<!-- Created with Inkscape (http://www.inkscape.org/) -->

<svg
   xmlns:dc="http://purl.org/dc/elements/1.1/"
   xmlns:cc="http://creativecommons.org/ns#"
   xmlns:rdf="http://www.w3.org/1999/02/22-rdf-syntax-ns#"
   xmlns:svg="http://www.w3.org/2000/svg"
   xmlns="http://www.w3.org/2000/svg"
   xmlns:sodipodi="http://sodipodi.sourceforge.net/DTD/sodipodi-0.dtd"
   xmlns:inkscape="http://www.inkscape.org/namespaces/inkscape"
   id="svg2"
   version="1.1"
   inkscape:version="0.48.2 r9819"
   width="661.62842"
   height="186.66353"
   xml:space="preserve"
   sodipodi:docname="multiple-inheritance.svg"><metadata
     id="metadata8"><rdf:RDF><cc:Work
         rdf:about=""><dc:format>image/svg+xml</dc:format><dc:type
           rdf:resource="http://purl.org/dc/dcmitype/StillImage" /><dc:title /></cc:Work></rdf:RDF></metadata><defs
     id="defs6"><clipPath
       clipPathUnits="userSpaceOnUse"
       id="clipPath16"><path
         d="m 0,1.2207e-4 720,0 0,539.99999793 -720,0 L 0,1.2207e-4 z"
         clip-rule="evenodd"
         id="path18"
         inkscape:connector-curvature="0" /></clipPath></defs><sodipodi:namedview
     pagecolor="#ffffff"
     bordercolor="#666666"
     borderopacity="1"
     objecttolerance="10"
     gridtolerance="10"
     guidetolerance="10"
     inkscape:pageopacity="0"
     inkscape:pageshadow="2"
     inkscape:window-width="1344"
     inkscape:window-height="1128"
     id="namedview4"
     showgrid="false"
     fit-margin-top="10"
     fit-margin-left="10"
     fit-margin-right="10"
     fit-margin-bottom="10"
     inkscape:zoom="1.0882241"
     inkscape:cx="168.16389"
     inkscape:cy="67.411769"
     inkscape:window-x="0"
     inkscape:window-y="0"
     inkscape:window-maximized="0"
     inkscape:current-layer="g10" /><g
     id="g10"
     inkscape:groupmode="layer"
     inkscape:label="10-more-cpp"
     transform="matrix(1.25,0,0,-1.25,-105.55893,456.75169)"><rect
   style="fill:#ffffff;stroke:none;stroke-width:4.93847798999999998;stroke-linecap:butt;stroke-miterlimit:4;stroke-opacity:1;stroke-dasharray:none;stroke-dashoffset:0;fill-opacity:1"
   id="rect3073"
   width="524.36554"
   height="144.38953"
   x="86.916382"
   y="-362.92929"
   transform="scale(1,-1)" /><text
   transform="matrix(1,0,0,-1,91.224,344.71)"
   id="text342"><tspan
     style="font-size:20.04000092px;font-variant:normal;font-weight:normal;writing-mode:lr-tb;fill:#000000;fill-opacity:1;fill-rule:nonzero;stroke:none;font-family:Courier New;-inkscape-font-specification:Courier New"
     x="0 12 24 36 48 60 72 84 96 108 120 132"
     y="0"
     sodipodi:role="line"
     id="tspan344">gp_list_node</tspan></text>

<text
   transform="matrix(1,0,0,-1,289.25,344.71)"
   id="text346"><tspan
     style="font-size:20.04000092px;font-variant:normal;font-weight:normal;writing-mode:lr-tb;fill:#000000;fill-opacity:1;fill-rule:nonzero;stroke:none;font-family:Courier New;-inkscape-font-specification:Courier New"
     x="0 12 24 36 48 60"
     y="0"
     sodipodi:role="line"
     id="tspan348">person</tspan></text>

<text
   transform="matrix(1,0,0,-1,193.22,284.69)"
   id="text350"><tspan
     style="font-size:20.06399918px;font-variant:normal;font-weight:normal;writing-mode:lr-tb;fill:#000000;fill-opacity:1;fill-rule:nonzero;stroke:none;font-family:Courier New;-inkscape-font-specification:Courier New"
     x="0 12 24 36 48 60 72"
     y="0"
     sodipodi:role="line"
     id="tspan352">student</tspan></text>

<text
   transform="matrix(1,0,0,-1,463.27,344.71)"
   id="text354"><tspan
     style="font-size:20.04000092px;font-variant:normal;font-weight:normal;writing-mode:lr-tb;fill:#000000;fill-opacity:1;fill-rule:nonzero;stroke:none;font-family:Courier New;-inkscape-font-specification:Courier New"
     x="0 12 24 36 48 60 72 84 96 108 120 132"
     y="0"
     sodipodi:role="line"
     id="tspan356">gp_list_node</tspan></text>

<text
   transform="matrix(1,0,0,-1,259.25,229.56)"
   id="text358"><tspan
     style="font-size:20.04000092px;font-variant:normal;font-weight:normal;writing-mode:lr-tb;fill:#000000;fill-opacity:1;fill-rule:nonzero;stroke:none;font-family:Courier New;-inkscape-font-specification:Courier New"
     x="0 12 24 36 48 60 72 84 96 108 120 132"
     y="0"
     sodipodi:role="line"
     id="tspan360">student_prof</tspan></text>

<text
   transform="matrix(1,0,0,-1,373.25,283.58)"
   id="text362"><tspan
     style="font-size:20.06399918px;font-variant:normal;font-weight:normal;writing-mode:lr-tb;fill:#000000;fill-opacity:1;fill-rule:nonzero;stroke:none;font-family:Courier New;-inkscape-font-specification:Courier New"
     x="0 12.024 24.048 36.071999 48.096001 60.119999 72.143997 84.167999 96.192001"
     y="0"
     sodipodi:role="line"
     id="tspan364">professor</tspan></text>

<path
   d="m 455.61,306.31 20.88,26.1 0.78,-0.63 -20.88,-26.09 -0.78,0.62 z m 18.3,26.88 6.09,2.81 -1.41,-6.56 -4.68,3.75 z"
   style="fill:#000000;fill-opacity:1;fill-rule:nonzero;stroke:none"
   id="path366"
   inkscape:connector-curvature="0" /><path
   d="m 201.31,306.25 -22.07,25.09 0.75,0.66 22.07,-25.09 -0.75,-0.66 z m -23.29,22.69 -1.71,6.48 6.22,-2.52 -4.51,-3.96 z"
   style="fill:#000000;fill-opacity:1;fill-rule:nonzero;stroke:none"
   id="path368"
   inkscape:connector-curvature="0" /><path
   d="m 365.61,246.31 20.88,26.1 0.78,-0.63 -20.88,-26.09 -0.78,0.62 z m 18.3,26.88 6.09,2.81 -1.41,-6.56 -4.68,3.75 z"
   style="fill:#000000;fill-opacity:1;fill-rule:nonzero;stroke:none"
   id="path370"
   inkscape:connector-curvature="0" /><path
   d="m 269.61,306.31 20.88,26.1 0.78,-0.63 -20.88,-26.09 -0.78,0.62 z m 18.3,26.88 6.09,2.81 -1.41,-6.56 -4.68,3.75 z"
   style="fill:#000000;fill-opacity:1;fill-rule:nonzero;stroke:none"
   id="path372"
   inkscape:connector-curvature="0" /><path
   d="m 375.31,303.25 -22.07,25.09 0.75,0.66 22.07,-25.09 -0.75,-0.66 z m -23.29,22.69 -1.71,6.48 6.22,-2.52 -4.51,-3.96 z"
   style="fill:#000000;fill-opacity:1;fill-rule:nonzero;stroke:none"
   id="path374"
   inkscape:connector-curvature="0" /><path
   d="m 267.31,249.25 -22.07,25.09 0.75,0.66 22.07,-25.09 -0.75,-0.66 z m -23.29,22.69 -1.71,6.48 6.22,-2.52 -4.51,-3.96 z"
   style="fill:#000000;fill-opacity:1;fill-rule:nonzero;stroke:none"
   id="path376"
   inkscape:connector-curvature="0" /></g></svg>