<?xml version="1.0" encoding="UTF-8" standalone="no"?>
<!-- Created with Inkscape (http://www.inkscape.org/) -->

<svg
   xmlns:dc="http://purl.org/dc/elements/1.1/"
   xmlns:cc="http://creativecommons.org/ns#"
   xmlns:rdf="http://www.w3.org/1999/02/22-rdf-syntax-ns#"
   xmlns:svg="http://www.w3.org/2000/svg"
   xmlns="http://www.w3.org/2000/svg"
   xmlns:sodipodi="http://sodipodi.sourceforge.net/DTD/sodipodi-0.dtd"
   xmlns:inkscape="http://www.inkscape.org/namespaces/inkscape"
   id="svg2"
   version="1.1"
   inkscape:version="0.48.3.1 r9886"
   width="463.75626"
   height="517.35779"
   xml:space="preserve"
   sodipodi:docname="x86-activation-record.svg"><metadata
     id="metadata8"><rdf:RDF><cc:Work
         rdf:about=""><dc:format>image/svg+xml</dc:format><dc:type
           rdf:resource="http://purl.org/dc/dcmitype/StillImage" /><dc:title /></cc:Work></rdf:RDF></metadata><defs
     id="defs6" /><sodipodi:namedview
     pagecolor="#ffffff"
     bordercolor="#666666"
     borderopacity="1"
     objecttolerance="10"
     gridtolerance="10"
     guidetolerance="10"
     inkscape:pageopacity="0"
     inkscape:pageshadow="2"
     inkscape:window-width="1280"
     inkscape:window-height="969"
     id="namedview4"
     showgrid="false"
     fit-margin-top="10"
     fit-margin-left="10"
     fit-margin-right="10"
     fit-margin-bottom="10"
     inkscape:zoom="1"
     inkscape:cx="377.91305"
     inkscape:cy="400.60582"
     inkscape:window-x="-3"
     inkscape:window-y="-3"
     inkscape:window-maximized="1"
     inkscape:current-layer="g10" /><g
     id="g10"
     inkscape:groupmode="layer"
     inkscape:label="x86-doc"
     transform="matrix(1.25,0,0,-1.25,-169.25938,975.41796)">




























<g
   id="g3065"
   transform="matrix(1.5,0,0,1.5,-160.455,-286.69563)"><path
     inkscape:connector-curvature="0"
     id="path24"
     style="fill:#c0c0c0;fill-opacity:1;fill-rule:nonzero;stroke:#000000;stroke-width:0.44999999;stroke-linecap:round;stroke-linejoin:round;stroke-miterlimit:10;stroke-opacity:1;stroke-dasharray:none"
     d="m 337.8,533.88 11.22,11.28 0,22.44 -11.22,-11.22 0,-22.5 z" /><path
     inkscape:connector-curvature="0"
     id="path26"
     style="fill:#ffffff;fill-opacity:1;fill-rule:nonzero;stroke:#000000;stroke-width:0.44999999;stroke-linecap:round;stroke-linejoin:round;stroke-miterlimit:10;stroke-opacity:1;stroke-dasharray:none"
     d="m 225.3,533.88 112.5,0 0,22.5 -112.5,0 0,-22.5 z" /><text
     id="text28"
     transform="matrix(1,0,0,-0.98559041,236.22,542.16)"><tspan
       id="tspan30"
       sodipodi:role="line"
       y="0"
       x="0 3.3948019 8.4921017 14.160299 19.257599 24.925797 30.593994 33.428093 38.525394 44.193592 46.456791 52.124989 57.793186 60.627285 66.295486 69.129585 71.963684 77.631882 83.300079 88.968277"
       style="font-size:10.19460011px;font-style:normal;font-variant:normal;font-weight:normal;font-stretch:normal;writing-mode:lr-tb;fill:#000000;fill-opacity:1;fill-rule:nonzero;stroke:none;font-family:Arial;-inkscape-font-specification:Arial">(saved value of ebp)</tspan></text>
<path
     inkscape:connector-curvature="0"
     id="path32"
     style="fill:#c0c0c0;fill-opacity:1;fill-rule:nonzero;stroke:#000000;stroke-width:0.44999999;stroke-linecap:round;stroke-linejoin:round;stroke-miterlimit:10;stroke-opacity:1;stroke-dasharray:none"
     d="m 337.8,556.38 11.22,11.22 0,22.5 -11.22,-11.22 0,-22.5 z" /><path
     inkscape:connector-curvature="0"
     id="path34"
     style="fill:#ffffff;fill-opacity:1;fill-rule:nonzero;stroke:#000000;stroke-width:0.44999999;stroke-linecap:round;stroke-linejoin:round;stroke-miterlimit:10;stroke-opacity:1;stroke-dasharray:none"
     d="m 225.3,556.38 112.5,0 0,22.5 -112.5,0 0,-22.5 z" /><text
     id="text36"
     transform="matrix(1,0,0,-0.98559041,246,564.6)"><tspan
       id="tspan38"
       sodipodi:role="line"
       y="0"
       x="0 3.3948019 6.7896037 12.457801 15.2919 20.960098 24.354898 30.023096 32.857197 38.525394 44.193592 49.86179 53.256592 58.924789 64.022087 69.119385"
       style="font-size:10.19460011px;font-style:normal;font-variant:normal;font-weight:normal;font-stretch:normal;writing-mode:lr-tb;fill:#000000;fill-opacity:1;fill-rule:nonzero;stroke:none;font-family:Arial;-inkscape-font-specification:Arial">(return address)</tspan></text>
<path
     inkscape:connector-curvature="0"
     id="path40"
     style="fill:#c0c0c0;fill-opacity:1;fill-rule:nonzero;stroke:#000000;stroke-width:0.44999999;stroke-linecap:round;stroke-linejoin:round;stroke-miterlimit:10;stroke-opacity:1;stroke-dasharray:none"
     d="m 337.8,578.88 11.22,11.22 0,22.5 -11.22,-11.22 0,-22.5 z" /><path
     inkscape:connector-curvature="0"
     id="path42"
     style="fill:#ffffff;fill-opacity:1;fill-rule:nonzero;stroke:#000000;stroke-width:0.44999999;stroke-linecap:round;stroke-linejoin:round;stroke-miterlimit:10;stroke-opacity:1;stroke-dasharray:none"
     d="m 225.3,578.88 112.5,0 0,22.5 -112.5,0 0,-22.5 z" /><text
     id="text44"
     transform="matrix(1,0,0,-0.98559041,254.52,587.1)"><tspan
       id="tspan46"
       sodipodi:role="line"
       y="0"
       x="0 5.6681976 11.336395 14.731197 20.399395 28.891497 34.559692 37.393791 43.061989 46.456791 49.29089"
       style="font-size:10.19460011px;font-style:normal;font-variant:normal;font-weight:normal;font-stretch:normal;writing-mode:lr-tb;fill:#000000;fill-opacity:1;fill-rule:nonzero;stroke:none;font-family:Arial;-inkscape-font-specification:Arial">parameter 1</tspan></text>
<path
     inkscape:connector-curvature="0"
     id="path48"
     style="fill:#c0c0c0;fill-opacity:1;fill-rule:nonzero;stroke:#000000;stroke-width:0.44999999;stroke-linecap:round;stroke-linejoin:round;stroke-miterlimit:10;stroke-opacity:1;stroke-dasharray:none"
     d="m 337.8,601.38 11.22,11.22 0,22.5 -11.22,-11.22 0,-22.5 z" /><path
     inkscape:connector-curvature="0"
     id="path50"
     style="fill:#ffffff;fill-opacity:1;fill-rule:nonzero;stroke:#000000;stroke-width:0.44999999;stroke-linecap:round;stroke-linejoin:round;stroke-miterlimit:10;stroke-opacity:1;stroke-dasharray:none"
     d="m 225.3,601.38 112.5,0 0,22.5 -112.5,0 0,-22.5 z" /><text
     id="text52"
     transform="matrix(1,0,0,-0.98559041,254.52,609.6)"><tspan
       id="tspan54"
       sodipodi:role="line"
       y="0"
       x="0 5.6681976 11.336395 14.731197 20.399395 28.891497 34.559692 37.393791 43.061989 46.456791 49.29089"
       style="font-size:10.19460011px;font-style:normal;font-variant:normal;font-weight:normal;font-stretch:normal;writing-mode:lr-tb;fill:#000000;fill-opacity:1;fill-rule:nonzero;stroke:none;font-family:Arial;-inkscape-font-specification:Arial">parameter 2</tspan></text>
<path
     inkscape:connector-curvature="0"
     id="path56"
     style="fill:#c0c0c0;fill-opacity:1;fill-rule:nonzero;stroke:#000000;stroke-width:0.44999999;stroke-linecap:round;stroke-linejoin:round;stroke-miterlimit:10;stroke-opacity:1;stroke-dasharray:none"
     d="m 337.8,623.88 11.22,11.22 0,22.5 -11.22,-11.22 0,-22.5 z" /><path
     inkscape:connector-curvature="0"
     id="path58"
     style="fill:#c0c0c0;fill-opacity:1;fill-rule:nonzero;stroke:#000000;stroke-width:0.44999999;stroke-linecap:round;stroke-linejoin:round;stroke-miterlimit:10;stroke-opacity:1;stroke-dasharray:none"
     d="m 225.3,646.38 112.5,0 11.22,11.22 -112.5,0 -11.22,-11.22 z" /><path
     inkscape:connector-curvature="0"
     id="path60"
     style="fill:#ffffff;fill-opacity:1;fill-rule:nonzero;stroke:#000000;stroke-width:0.44999999;stroke-linecap:round;stroke-linejoin:round;stroke-miterlimit:10;stroke-opacity:1;stroke-dasharray:none"
     d="m 225.3,623.88 112.5,0 0,22.5 -112.5,0 0,-22.5 z" /><text
     id="text62"
     transform="matrix(1,0,0,-0.98559041,254.52,632.1)"><tspan
       id="tspan64"
       sodipodi:role="line"
       y="0"
       x="0 5.6681976 11.336395 14.731197 20.399395 28.891497 34.559692 37.393791 43.061989 46.456791 49.29089"
       style="font-size:10.19460011px;font-style:normal;font-variant:normal;font-weight:normal;font-stretch:normal;writing-mode:lr-tb;fill:#000000;fill-opacity:1;fill-rule:nonzero;stroke:none;font-family:Arial;-inkscape-font-specification:Arial">parameter 3</tspan></text>
<path
     inkscape:connector-curvature="0"
     id="path66"
     style="fill:#c0c0c0;fill-opacity:1;fill-rule:nonzero;stroke:#000000;stroke-width:0.44999999;stroke-linecap:round;stroke-linejoin:round;stroke-miterlimit:10;stroke-opacity:1;stroke-dasharray:none"
     d="m 337.8,511.38 11.22,11.28 0,22.5 -11.22,-11.28 0,-22.5 z" /><path
     inkscape:connector-curvature="0"
     id="path68"
     style="fill:#ffffff;fill-opacity:1;fill-rule:nonzero;stroke:#000000;stroke-width:0.44999999;stroke-linecap:round;stroke-linejoin:round;stroke-miterlimit:10;stroke-opacity:1;stroke-dasharray:none"
     d="m 225.3,511.38 112.5,0 0,22.5 -112.5,0 0,-22.5 z" /><text
     id="text70"
     transform="matrix(1,0,0,-0.98559041,248.1,519.66)"><tspan
       id="tspan72"
       sodipodi:role="line"
       y="0"
       x="0 2.2632012 7.9313989 13.028699 18.696896 20.960098 23.794197 28.891497 34.559692 37.954494 40.217697 45.885895 51.554092 53.817295 59.485493 62.319592"
       style="font-size:10.19460011px;font-style:normal;font-variant:normal;font-weight:normal;font-stretch:normal;writing-mode:lr-tb;fill:#000000;fill-opacity:1;fill-rule:nonzero;stroke:none;font-family:Arial;-inkscape-font-specification:Arial">local variable 1</tspan></text>
<path
     inkscape:connector-curvature="0"
     id="path74"
     style="fill:#ffffff;fill-opacity:1;fill-rule:nonzero;stroke:#000000;stroke-width:0.44999999;stroke-linecap:round;stroke-linejoin:round;stroke-miterlimit:10;stroke-opacity:1;stroke-dasharray:none"
     d="m 394.02,539.46 45,0 0,22.44 -45,0 0,-22.44 z" /><path
     inkscape:connector-curvature="0"
     id="path76"
     style="fill:none;stroke:#000000;stroke-width:0.44999999;stroke-linecap:round;stroke-linejoin:round;stroke-miterlimit:10;stroke-opacity:1;stroke-dasharray:none"
     d="m 416.52,550.68 -67.02,0" /><path
     inkscape:connector-curvature="0"
     id="path78"
     style="fill:#000000;fill-opacity:1;fill-rule:nonzero;stroke:none"
     d="m 414,550.68 0,-0.3 0.12,-0.3 0,-0.3 0.18,-0.12 0.12,-0.3 0.18,-0.3 0.12,-0.18 0.3,-0.12 0.18,-0.18 0.3,-0.12 0.3,-0.18 0.3,-0.12 1.02,0 0.3,0.12 0.3,0.18 0.3,0.12 0.18,0.18 0.3,0.12 0.12,0.18 0.18,0.3 0.12,0.3 0.18,0.12 0,0.3 0.12,0.3 0,0.6 -0.12,0.3 0,0.3 -0.18,0.3 -0.12,0.18 -0.18,0.3 -0.12,0.12 -0.48,0.48 -0.3,0.12 -0.3,0 -0.3,0.18 -1.02,0 -0.3,-0.18 -0.3,0 -0.3,-0.12 -0.48,-0.48 -0.12,-0.12 -0.18,-0.3 -0.12,-0.18 -0.18,-0.3 0,-0.3 -0.12,-0.3 0,-0.3 z m -63.6,-3.42 -6.9,3.42 6.9,3.48 0,-6.9" /><text
     style="font-size:11.99002361px"
     y="-553.61951"
     x="366.60483"
     id="text82"
     transform="scale(0.9991686,-1.0008321)"><tspan
       id="tspan84"
       sodipodi:role="line"
       y="-553.61951"
       x="366.60483 372.18671 378.32074"
       style="font-size:10.11999989px;font-style:normal;font-variant:normal;font-weight:normal;font-stretch:normal;writing-mode:lr-tb;fill:#000000;fill-opacity:1;fill-rule:nonzero;stroke:none;font-family:Arial;-inkscape-font-specification:Arial">ebp</tspan></text>
<path
     inkscape:connector-curvature="0"
     id="path86"
     style="fill:#c0c0c0;fill-opacity:1;fill-rule:nonzero;stroke:#000000;stroke-width:0.44999999;stroke-linecap:round;stroke-linejoin:round;stroke-miterlimit:10;stroke-opacity:1;stroke-dasharray:none"
     d="m 337.8,488.88 11.22,11.28 0,22.5 -11.22,-11.28 0,-22.5 z" /><path
     inkscape:connector-curvature="0"
     id="path88"
     style="fill:#ffffff;fill-opacity:1;fill-rule:nonzero;stroke:#000000;stroke-width:0.44999999;stroke-linecap:round;stroke-linejoin:round;stroke-miterlimit:10;stroke-opacity:1;stroke-dasharray:none"
     d="m 225.3,488.88 112.5,0 0,22.5 -112.5,0 0,-22.5 z" /><text
     id="text90"
     transform="matrix(1,0,0,-0.98559041,241.2,497.16)"><tspan
       id="tspan92"
       sodipodi:role="line"
       y="0"
       x="0 5.0973001 10.765497 15.862798 21.530994 27.199192 30.033291 35.130592 40.79879 43.061989 48.730186 54.398384 57.232483 62.900681 65.734779 68.568878 74.237076 79.905273"
       style="font-size:10.19460011px;font-style:normal;font-variant:normal;font-weight:normal;font-stretch:normal;writing-mode:lr-tb;fill:#000000;fill-opacity:1;fill-rule:nonzero;stroke:none;font-family:Arial;-inkscape-font-specification:Arial">saved value of edi</tspan></text>
<path
     inkscape:connector-curvature="0"
     id="path94"
     style="fill:#c0c0c0;fill-opacity:1;fill-rule:nonzero;stroke:#000000;stroke-width:0.44999999;stroke-linecap:round;stroke-linejoin:round;stroke-miterlimit:10;stroke-opacity:1;stroke-dasharray:none"
     d="m 337.8,466.38 11.22,11.28 0,22.5 -11.22,-11.28 0,-22.5 z" /><path
     inkscape:connector-curvature="0"
     id="path96"
     style="fill:#ffffff;fill-opacity:1;fill-rule:nonzero;stroke:#000000;stroke-width:0.44999999;stroke-linecap:round;stroke-linejoin:round;stroke-miterlimit:10;stroke-opacity:1;stroke-dasharray:none"
     d="m 225.3,466.38 112.5,0 0,22.5 -112.5,0 0,-22.5 z" /><text
     id="text98"
     transform="matrix(1,0,0,-0.98559041,241.32,474.66)"><tspan
       id="tspan100"
       sodipodi:role="line"
       y="0"
       x="0 5.0973001 10.765497 15.862798 21.530994 27.199192 30.033291 35.130592 40.79879 43.061989 48.730186 54.398384 57.232483 62.900681 65.734779 68.568878 74.237076 79.334373"
       style="font-size:10.19460011px;font-style:normal;font-variant:normal;font-weight:normal;font-stretch:normal;writing-mode:lr-tb;fill:#000000;fill-opacity:1;fill-rule:nonzero;stroke:none;font-family:Arial;-inkscape-font-specification:Arial">saved value of esi</tspan></text>
<path
     inkscape:connector-curvature="0"
     id="path102"
     style="fill:none;stroke:#000000;stroke-width:0.44999999;stroke-linecap:round;stroke-linejoin:round;stroke-miterlimit:10;stroke-opacity:1;stroke-dasharray:none"
     d="m 225.3,550.68 -22.5,0 0,151.92 33.42,0" /><path
     inkscape:connector-curvature="0"
     id="path104"
     style="fill:#000000;fill-opacity:1;fill-rule:nonzero;stroke:none"
     d="m 235.32,706.02 6.9,-3.42 -6.9,-3.42 0,6.84" /><path
     inkscape:connector-curvature="0"
     id="path106"
     style="fill:#ffffff;fill-opacity:1;fill-rule:nonzero;stroke:#000000;stroke-width:0.44999999;stroke-linecap:round;stroke-linejoin:round;stroke-miterlimit:10;stroke-opacity:1;stroke-dasharray:none"
     d="m 394.02,471.96 45,0 0,22.5 -45,0 0,-22.5 z" /><path
     inkscape:connector-curvature="0"
     id="path108"
     style="fill:none;stroke:#000000;stroke-width:0.44999999;stroke-linecap:round;stroke-linejoin:round;stroke-miterlimit:10;stroke-opacity:1;stroke-dasharray:none"
     d="m 416.52,483.18 -67.02,0" /><path
     inkscape:connector-curvature="0"
     id="path110"
     style="fill:#000000;fill-opacity:1;fill-rule:nonzero;stroke:none"
     d="m 414,483.18 0,-0.3 0.12,-0.3 0,-0.3 0.18,-0.12 0.12,-0.3 0.18,-0.3 0.12,-0.18 0.3,-0.12 0.18,-0.18 0.3,-0.12 0.3,-0.18 0.3,-0.12 1.02,0 0.3,0.12 0.3,0.18 0.3,0.12 0.18,0.18 0.3,0.12 0.12,0.18 0.18,0.3 0.12,0.3 0.18,0.12 0,0.3 0.12,0.3 0,0.6 -0.12,0.3 0,0.3 -0.18,0.3 -0.12,0.18 -0.18,0.3 -0.6,0.6 -0.3,0.12 -0.3,0 -0.3,0.18 -1.02,0 -0.3,-0.18 -0.3,0 -0.3,-0.12 -0.6,-0.6 -0.18,-0.3 -0.12,-0.18 -0.18,-0.3 0,-0.3 -0.12,-0.3 0,-0.3 z m -63.6,-3.42 -6.9,3.42 6.9,3.48 0,-6.9" /><text
     style="font-size:11.99002361px"
     y="-487.77411"
     x="366.90509"
     id="text114"
     transform="scale(0.9991686,-1.0008321)"><tspan
       id="tspan116"
       sodipodi:role="line"
       y="-487.77411"
       x="366.90509 372.48694 378.06882"
       style="font-size:10.03934669px;font-style:normal;font-variant:normal;font-weight:normal;font-stretch:normal;writing-mode:lr-tb;fill:#000000;fill-opacity:1;fill-rule:nonzero;stroke:none;font-family:Arial;-inkscape-font-specification:Arial Bold">esp</tspan></text>
<path
     inkscape:connector-curvature="0"
     id="path118"
     style="fill:none;stroke:#000000;stroke-width:0.44999999;stroke-linecap:round;stroke-linejoin:round;stroke-miterlimit:10;stroke-opacity:1;stroke-dasharray:none"
     d="m 416.52,595.68 -67.02,0" /><path
     inkscape:connector-curvature="0"
     id="path120"
     style="fill:#000000;fill-opacity:1;fill-rule:nonzero;stroke:none"
     d="m 414,595.68 0,-0.3 0.12,-0.3 0,-0.3 0.18,-0.18 0.12,-0.3 0.18,-0.3 0.12,-0.12 0.3,-0.18 0.18,-0.12 0.3,-0.18 0.3,-0.12 0.3,-0.18 1.02,0 0.3,0.18 0.3,0.12 0.3,0.18 0.18,0.12 0.3,0.18 0.12,0.12 0.18,0.3 0.12,0.3 0.18,0.18 0,0.3 0.12,0.3 0,0.6 -0.12,0.3 0,0.3 -0.18,0.3 -0.12,0.12 -0.18,0.3 -0.12,0.18 -0.3,0.3 -0.18,0.12 -0.3,0.18 -0.3,0 -0.3,0.12 -1.02,0 -0.3,-0.12 -0.3,0 -0.3,-0.18 -0.18,-0.12 -0.3,-0.3 -0.12,-0.18 -0.18,-0.3 -0.12,-0.12 -0.18,-0.3 0,-0.3 -0.12,-0.3 0,-0.3 z m -63.6,-3.48 -6.9,3.48 6.9,3.42 0,-6.9" /><text
     style="font-size:11.91322899px"
     y="-604.95422"
     x="355.72897"
     id="text124"
     transform="scale(1.0072836,-0.99276906)"><tspan
       id="tspan126"
       sodipodi:role="line"
       y="-604.95422"
       x="355.72897 358.5426 364.1698 369.797 375.42422 381.33481 386.96204"
       style="font-size:10.12088394px;font-style:normal;font-variant:normal;font-weight:normal;font-stretch:normal;writing-mode:lr-tb;fill:#000000;fill-opacity:1;fill-rule:nonzero;stroke:none;font-family:Arial;-inkscape-font-specification:Arial">[ebp+8]</tspan></text>
<path
     inkscape:connector-curvature="0"
     id="path128"
     style="fill:none;stroke:#000000;stroke-width:0.44999999;stroke-linecap:round;stroke-linejoin:round;stroke-miterlimit:10;stroke-opacity:1;stroke-dasharray:none"
     d="m 416.52,618.18 -67.02,0" /><path
     inkscape:connector-curvature="0"
     id="path130"
     style="fill:#000000;fill-opacity:1;fill-rule:nonzero;stroke:none"
     d="m 414,618.18 0,-0.3 0.12,-0.3 0,-0.3 0.18,-0.18 0.12,-0.3 0.18,-0.3 0.12,-0.12 0.3,-0.18 0.18,-0.12 0.3,-0.18 0.3,-0.12 0.3,-0.18 1.02,0 0.3,0.18 0.3,0.12 0.3,0.18 0.18,0.12 0.3,0.18 0.12,0.12 0.18,0.3 0.12,0.3 0.18,0.18 0,0.3 0.12,0.3 0,0.6 -0.12,0.3 0,0.3 -0.18,0.3 -0.12,0.12 -0.18,0.3 -0.12,0.18 -0.3,0.3 -0.18,0.12 -0.3,0.18 -0.3,0 -0.3,0.12 -1.02,0 -0.3,-0.12 -0.3,0 -0.3,-0.18 -0.18,-0.12 -0.3,-0.3 -0.12,-0.18 -0.18,-0.3 -0.12,-0.12 -0.18,-0.3 0,-0.3 -0.12,-0.3 0,-0.3 z m -63.6,-3.48 -6.9,3.48 6.9,3.42 0,-6.9" /><text
     style="font-size:11.91322899px"
     y="-627.6181"
     x="352.92938"
     id="text134"
     transform="scale(1.0072836,-0.99276906)"><tspan
       id="tspan136"
       sodipodi:role="line"
       y="-627.6181"
       x="352.92938 355.74298 361.37018 366.99741 372.6246 378.53522 384.16241 389.78964"
       style="font-size:10.12088394px;font-style:normal;font-variant:normal;font-weight:normal;font-stretch:normal;writing-mode:lr-tb;fill:#000000;fill-opacity:1;fill-rule:nonzero;stroke:none;font-family:Arial;-inkscape-font-specification:Arial">[ebp+12]</tspan></text>
<path
     inkscape:connector-curvature="0"
     id="path138"
     style="fill:none;stroke:#000000;stroke-width:0.44999999;stroke-linecap:round;stroke-linejoin:round;stroke-miterlimit:10;stroke-opacity:1;stroke-dasharray:none"
     d="m 416.52,640.68 -67.02,0" /><path
     inkscape:connector-curvature="0"
     id="path140"
     style="fill:#000000;fill-opacity:1;fill-rule:nonzero;stroke:none"
     d="m 414,640.68 0,-0.3 0.12,-0.3 0,-0.3 0.18,-0.18 0.12,-0.3 0.18,-0.3 0.12,-0.12 0.3,-0.18 0.18,-0.12 0.3,-0.18 0.3,-0.12 0.3,-0.18 1.02,0 0.3,0.18 0.3,0.12 0.3,0.18 0.18,0.12 0.3,0.18 0.12,0.12 0.18,0.3 0.12,0.3 0.18,0.18 0,0.3 0.12,0.3 0,0.6 -0.12,0.3 0,0.3 -0.18,0.3 -0.12,0.12 -0.18,0.3 -0.12,0.18 -0.3,0.3 -0.18,0.12 -0.3,0.18 -0.3,0 -0.3,0.12 -1.02,0 -0.3,-0.12 -0.3,0 -0.3,-0.18 -0.18,-0.12 -0.3,-0.3 -0.12,-0.18 -0.18,-0.3 -0.12,-0.12 -0.18,-0.3 0,-0.3 -0.12,-0.3 0,-0.3 z m -63.6,-3.48 -6.9,3.48 6.9,3.42 0,-6.9" /><text
     style="font-size:11.91322899px"
     y="-650.28198"
     x="352.92938"
     id="text144"
     transform="scale(1.0072836,-0.99276906)"><tspan
       id="tspan146"
       sodipodi:role="line"
       y="-650.28198"
       x="352.92938 355.74298 361.37018 366.99741 372.6246 378.53522 384.16241 389.78964"
       style="font-size:10.12088394px;font-style:normal;font-variant:normal;font-weight:normal;font-stretch:normal;writing-mode:lr-tb;fill:#000000;fill-opacity:1;fill-rule:nonzero;stroke:none;font-family:Arial;-inkscape-font-specification:Arial">[ebp+16]</tspan></text>
<path
     inkscape:connector-curvature="0"
     id="path148"
     style="fill:none;stroke:#000000;stroke-width:0.44999999;stroke-linecap:round;stroke-linejoin:round;stroke-miterlimit:10;stroke-opacity:1;stroke-dasharray:none"
     d="m 416.52,528.18 -67.02,0" /><path
     inkscape:connector-curvature="0"
     id="path150"
     style="fill:#000000;fill-opacity:1;fill-rule:nonzero;stroke:none"
     d="m 414,528.18 0,-0.3 0.12,-0.3 0,-0.3 0.18,-0.12 0.12,-0.3 0.18,-0.3 0.12,-0.18 0.3,-0.12 0.18,-0.18 0.3,-0.12 0.3,-0.18 0.3,-0.12 1.02,0 0.3,0.12 0.3,0.18 0.3,0.12 0.18,0.18 0.3,0.12 0.12,0.18 0.18,0.3 0.12,0.3 0.18,0.12 0,0.3 0.12,0.3 0,0.6 -0.12,0.3 0,0.3 -0.18,0.3 -0.12,0.18 -0.18,0.3 -0.6,0.6 -0.3,0.12 -0.3,0 -0.3,0.18 -1.02,0 -0.3,-0.18 -0.3,0 -0.3,-0.12 -0.6,-0.6 -0.18,-0.3 -0.12,-0.18 -0.18,-0.3 0,-0.3 -0.12,-0.3 0,-0.3 z m -63.6,-3.42 -6.9,3.42 6.9,3.48 0,-6.9" /><text
     id="text154"
     transform="matrix(1,0,0,-0.98559041,364.32,517.08)"><tspan
       y="0"
       x="0"
       id="tspan156"
       sodipodi:role="line"
       style="font-size:10.19460011px;font-style:normal;font-variant:normal;font-weight:normal;font-stretch:normal;writing-mode:lr-tb;fill:#000000;fill-opacity:1;fill-rule:nonzero;stroke:none;font-family:Arial;-inkscape-font-specification:Arial" /><tspan
       x="-122.70016 -115.33967 -113.07646 -107.40826 -101.74007 -96.071869 -92.677071 -89.842972 -83.043175 -77.374977 -71.706779 -68.311974 -62.64378 -57.546478 -52.449177 -46.780979"
       y="-162.36021"
       id="tspan158"
       sodipodi:role="line"
       style="font-size:10.19460011px;font-style:normal;font-variant:normal;font-weight:normal;font-stretch:normal;writing-mode:lr-tb;fill:#000000;fill-opacity:1;fill-rule:nonzero;stroke:none;font-family:Arial;-inkscape-font-specification:Arial">Higher Addresses</tspan><tspan
       id="tspan160"
       sodipodi:role="line"
       y="77.313805"
       x="-121.50026 -115.83206 -110.16386 -102.80337 -97.13517 -93.740364 -90.906265 -84.106468 -78.438271 -72.770073 -69.375275 -63.707073 -58.609776 -53.512474 -47.844276"
       style="font-size:10.19460011px;font-style:normal;font-variant:normal;font-weight:normal;font-stretch:normal;writing-mode:lr-tb;fill:#000000;fill-opacity:1;fill-rule:nonzero;stroke:none;font-family:Arial;-inkscape-font-specification:Arial">Lower Addresses</tspan></text>
<text
     transform="scale(1,-1)"
     sodipodi:linespacing="125%"
     id="text3061"
     y="-531.9635"
     x="360.17499"
     style="font-size:8px;font-style:normal;font-variant:normal;font-weight:300;font-stretch:normal;line-height:125%;letter-spacing:0px;word-spacing:0px;fill:#000000;fill-opacity:1;stroke:none;font-family:Vow;-inkscape-font-specification:Vow Light"
     xml:space="preserve"><tspan
       style="font-size:10.11999989px;font-style:normal;font-variant:normal;font-weight:normal;font-stretch:normal;font-family:Arial;-inkscape-font-specification:Arial"
       y="-531.9635"
       x="360.17499"
       id="tspan3063"
       sodipodi:role="line">[ebp-4]</tspan></text>
</g></g></svg>