<?xml version="1.0" encoding="UTF-8" standalone="no"?>
<!-- Created with Inkscape (http://www.inkscape.org/) -->

<svg
   xmlns:dc="http://purl.org/dc/elements/1.1/"
   xmlns:cc="http://creativecommons.org/ns#"
   xmlns:rdf="http://www.w3.org/1999/02/22-rdf-syntax-ns#"
   xmlns:svg="http://www.w3.org/2000/svg"
   xmlns="http://www.w3.org/2000/svg"
   xmlns:sodipodi="http://sodipodi.sourceforge.net/DTD/sodipodi-0.dtd"
   xmlns:inkscape="http://www.inkscape.org/namespaces/inkscape"
   id="svg2"
   version="1.1"
   inkscape:version="0.91 r13725"
   width="421.5957"
   height="360.47852"
   xml:space="preserve"
   sodipodi:docname="x86-activation-record.svg"><metadata
     id="metadata8"><rdf:RDF><cc:Work
         rdf:about=""><dc:format>image/svg+xml</dc:format><dc:type
           rdf:resource="http://purl.org/dc/dcmitype/StillImage" /><dc:title></dc:title></cc:Work></rdf:RDF></metadata><defs
     id="defs6" /><sodipodi:namedview
     pagecolor="#ffffff"
     bordercolor="#666666"
     borderopacity="1"
     objecttolerance="10"
     gridtolerance="10"
     guidetolerance="10"
     inkscape:pageopacity="0"
     inkscape:pageshadow="2"
     inkscape:window-width="1280"
     inkscape:window-height="959"
     id="namedview4"
     showgrid="false"
     fit-margin-top="10"
     fit-margin-left="10"
     fit-margin-right="10"
     fit-margin-bottom="10"
     inkscape:zoom="2"
     inkscape:cx="229.91901"
     inkscape:cy="188.09949"
     inkscape:window-x="0"
     inkscape:window-y="0"
     inkscape:window-maximized="1"
     inkscape:current-layer="g3065" /><g
     id="g10"
     inkscape:groupmode="layer"
     inkscape:label="x86-doc"
     transform="matrix(1.25,0,0,-1.25,-211.41993,813.75563)"><g
       id="g3065"
       transform="matrix(1.5,0,0,1.5,-160.455,-286.69563)"><path
         inkscape:connector-curvature="0"
         id="path24"
         style="fill:#c0c0c0;fill-opacity:1;fill-rule:nonzero;stroke:#000000;stroke-width:0.44999999;stroke-linecap:round;stroke-linejoin:round;stroke-miterlimit:10;stroke-dasharray:none;stroke-opacity:1"
         d="m 337.8,533.88 11.22,11.28 0,22.44 -11.22,-11.22 0,-22.5 z" /><path
         inkscape:connector-curvature="0"
         id="path26"
         style="fill:#ffffff;fill-opacity:1;fill-rule:nonzero;stroke:#000000;stroke-width:0.44999999;stroke-linecap:round;stroke-linejoin:round;stroke-miterlimit:10;stroke-dasharray:none;stroke-opacity:1"
         d="m 225.3,533.88 112.5,0 0,22.5 -112.5,0 0,-22.5 z" /><text
         id="text28"
         transform="matrix(1,0,0,-0.98559041,236.22,542.16)"><tspan
           id="tspan30"
           sodipodi:role="line"
           style="font-style:normal;font-variant:normal;font-weight:normal;font-stretch:normal;font-size:10.19460011px;font-family:Arial;-inkscape-font-specification:Arial;writing-mode:lr-tb;fill:#000000;fill-opacity:1;fill-rule:nonzero;stroke:none"
           x="0"
           y="0">   (return address)</tspan></text>
<path
         inkscape:connector-curvature="0"
         id="path32"
         style="fill:#c0c0c0;fill-opacity:1;fill-rule:nonzero;stroke:#000000;stroke-width:0.44999999;stroke-linecap:round;stroke-linejoin:round;stroke-miterlimit:10;stroke-dasharray:none;stroke-opacity:1"
         d="m 337.8,556.38 11.22,11.22 0,22.5 -11.22,-11.22 0,-22.5 z" /><path
         inkscape:connector-curvature="0"
         id="path34"
         style="fill:#ffffff;fill-opacity:1;fill-rule:nonzero;stroke:#000000;stroke-width:0.44999999;stroke-linecap:round;stroke-linejoin:round;stroke-miterlimit:10;stroke-dasharray:none;stroke-opacity:1"
         d="m 225.3,556.38 112.5,0 0,22.5 -112.5,0 0,-22.5 z" /><text
         id="text36"
         transform="scale(1.0072836,-0.99276906)"
         x="228.33679"
         y="-568.71234"
         style="font-size:11.91322899px"><tspan
           id="tspan38"
           sodipodi:role="line"
           style="font-style:normal;font-variant:normal;font-weight:normal;font-stretch:normal;font-size:10.12088394px;font-family:Arial;-inkscape-font-specification:Arial;writing-mode:lr-tb;fill:#000000;fill-opacity:1;fill-rule:nonzero;stroke:none"
           x="228.33679"
           y="-568.71234">(any caller saved regs)</tspan></text>
<path
         inkscape:connector-curvature="0"
         id="path58"
         style="fill:#c0c0c0;fill-opacity:1;fill-rule:nonzero;stroke:#000000;stroke-width:0.44999999;stroke-linecap:round;stroke-linejoin:round;stroke-miterlimit:10;stroke-dasharray:none;stroke-opacity:1"
         d="m 225.2856,578.89145 112.5,0 11.22,11.22 -112.5,0 -11.22,-11.22 z" /><path
         inkscape:connector-curvature="0"
         id="path66"
         style="fill:#c0c0c0;fill-opacity:1;fill-rule:nonzero;stroke:#000000;stroke-width:0.44999999;stroke-linecap:round;stroke-linejoin:round;stroke-miterlimit:10;stroke-dasharray:none;stroke-opacity:1"
         d="m 337.8,511.38 11.22,11.28 0,22.5 -11.22,-11.28 0,-22.5 z" /><path
         inkscape:connector-curvature="0"
         id="path68"
         style="fill:#ffffff;fill-opacity:1;fill-rule:nonzero;stroke:#000000;stroke-width:0.44999999;stroke-linecap:round;stroke-linejoin:round;stroke-miterlimit:10;stroke-dasharray:none;stroke-opacity:1"
         d="m 225.3,511.38 112.5,0 0,22.5 -112.5,0 0,-22.5 z" /><text
         id="text70"
         transform="matrix(1,0,0,-0.98559041,248.1,519.66)"><tspan
           id="tspan72"
           sodipodi:role="line"
           y="0"
           x="0 2.2632012 7.9313989 13.028699 18.696896 20.960098 23.794197 28.891497 34.559692 37.954494 40.217697 45.885895 51.554092 53.817295"
           style="font-style:normal;font-variant:normal;font-weight:normal;font-stretch:normal;font-size:10.19460011px;font-family:Arial;-inkscape-font-specification:Arial;writing-mode:lr-tb;fill:#000000;fill-opacity:1;fill-rule:nonzero;stroke:none">local variable</tspan></text>
<path
         inkscape:connector-curvature="0"
         id="path86"
         style="fill:#c0c0c0;fill-opacity:1;fill-rule:nonzero;stroke:#000000;stroke-width:0.44999999;stroke-linecap:round;stroke-linejoin:round;stroke-miterlimit:10;stroke-dasharray:none;stroke-opacity:1"
         d="m 337.8,488.88 11.22,11.28 0,22.5 -11.22,-11.28 0,-22.5 z" /><path
         inkscape:connector-curvature="0"
         id="path88"
         style="fill:#ffffff;fill-opacity:1;fill-rule:nonzero;stroke:#000000;stroke-width:0.44999999;stroke-linecap:round;stroke-linejoin:round;stroke-miterlimit:10;stroke-dasharray:none;stroke-opacity:1"
         d="m 225.3,488.88 112.5,0 0,22.5 -112.5,0 0,-22.5 z" /><text
         id="text90"
         transform="matrix(1,0,0,-0.98559041,241.2,497.16)"><tspan
           id="tspan92"
           sodipodi:role="line"
           y="0"
           x="0 5.0973001 10.765497 15.862798 21.530994 27.199192 30.033291 35.130592 40.79879 43.061989 48.730186 54.398384 57.232483 62.900681 65.734779"
           style="font-style:normal;font-variant:normal;font-weight:normal;font-stretch:normal;font-size:10.19460011px;font-family:Arial;-inkscape-font-specification:Arial;writing-mode:lr-tb;fill:#000000;fill-opacity:1;fill-rule:nonzero;stroke:none">saved value of rbx</tspan></text>
<path
         inkscape:connector-curvature="0"
         id="path94"
         style="fill:#c0c0c0;fill-opacity:1;fill-rule:nonzero;stroke:#000000;stroke-width:0.44999999;stroke-linecap:round;stroke-linejoin:round;stroke-miterlimit:10;stroke-dasharray:none;stroke-opacity:1"
         d="m 337.8,466.38 11.22,11.28 0,22.5 -11.22,-11.28 0,-22.5 z" /><path
         inkscape:connector-curvature="0"
         id="path96"
         style="fill:#ffffff;fill-opacity:1;fill-rule:nonzero;stroke:#000000;stroke-width:0.44999999;stroke-linecap:round;stroke-linejoin:round;stroke-miterlimit:10;stroke-dasharray:none;stroke-opacity:1"
         d="m 225.3,466.38 112.5,0 0,22.5 -112.5,0 0,-22.5 z" /><text
         id="text98"
         transform="matrix(1,0,0,-0.98559041,241.32,474.66)"><tspan
           id="tspan100"
           sodipodi:role="line"
           y="0"
           x="0 5.0973001 10.765497 15.862798 21.530994 27.199192 30.033291 35.130592 40.79879 43.061989 48.730186 54.398384 57.232483 62.900681 65.734779"
           style="font-style:normal;font-variant:normal;font-weight:normal;font-stretch:normal;font-size:10.19460011px;font-family:Arial;-inkscape-font-specification:Arial;writing-mode:lr-tb;fill:#000000;fill-opacity:1;fill-rule:nonzero;stroke:none">saved value of rbp</tspan></text>
<path
         inkscape:connector-curvature="0"
         id="path106"
         style="fill:#ffffff;fill-opacity:1;fill-rule:nonzero;stroke:#000000;stroke-width:0.44999999;stroke-linecap:round;stroke-linejoin:round;stroke-miterlimit:10;stroke-dasharray:none;stroke-opacity:1"
         d="m 394.02,471.96 45,0 0,22.5 -45,0 0,-22.5 z" /><path
         inkscape:connector-curvature="0"
         id="path108"
         style="fill:none;stroke:#000000;stroke-width:0.44999999;stroke-linecap:round;stroke-linejoin:round;stroke-miterlimit:10;stroke-dasharray:none;stroke-opacity:1"
         d="m 416.52,483.18 -67.02,0" /><path
         inkscape:connector-curvature="0"
         id="path110"
         style="fill:#000000;fill-opacity:1;fill-rule:nonzero;stroke:none"
         d="m 414,483.18 0,-0.3 0.12,-0.3 0,-0.3 0.18,-0.12 0.12,-0.3 0.18,-0.3 0.12,-0.18 0.3,-0.12 0.18,-0.18 0.3,-0.12 0.3,-0.18 0.3,-0.12 1.02,0 0.3,0.12 0.3,0.18 0.3,0.12 0.18,0.18 0.3,0.12 0.12,0.18 0.18,0.3 0.12,0.3 0.18,0.12 0,0.3 0.12,0.3 0,0.6 -0.12,0.3 0,0.3 -0.18,0.3 -0.12,0.18 -0.18,0.3 -0.6,0.6 -0.3,0.12 -0.3,0 -0.3,0.18 -1.02,0 -0.3,-0.18 -0.3,0 -0.3,-0.12 -0.6,-0.6 -0.18,-0.3 -0.12,-0.18 -0.18,-0.3 0,-0.3 -0.12,-0.3 0,-0.3 z m -63.6,-3.42 -6.9,3.42 6.9,3.48 0,-6.9" /><text
         style="font-size:11.99002361px"
         y="-487.77411"
         x="366.90509"
         id="text114"
         transform="scale(0.9991686,-1.0008321)"><tspan
           id="tspan116"
           sodipodi:role="line"
           x="366.90509"
           style="font-style:normal;font-variant:normal;font-weight:normal;font-stretch:normal;font-size:10.03934669px;font-family:Arial;-inkscape-font-specification:'Arial Bold';writing-mode:lr-tb;fill:#000000;fill-opacity:1;fill-rule:nonzero;stroke:none"
           y="-487.77411">rsp</tspan></text>
<path
         inkscape:connector-curvature="0"
         id="path148"
         style="fill:none;stroke:#000000;stroke-width:0.44999999;stroke-linecap:round;stroke-linejoin:round;stroke-miterlimit:10;stroke-dasharray:none;stroke-opacity:1"
         d="m 416.52,528.18 -67.02,0" /><path
         inkscape:connector-curvature="0"
         id="path150"
         style="fill:#000000;fill-opacity:1;fill-rule:nonzero;stroke:none"
         d="m 414,528.18 0,-0.3 0.12,-0.3 0,-0.3 0.18,-0.12 0.12,-0.3 0.18,-0.3 0.12,-0.18 0.3,-0.12 0.18,-0.18 0.3,-0.12 0.3,-0.18 0.3,-0.12 1.02,0 0.3,0.12 0.3,0.18 0.3,0.12 0.18,0.18 0.3,0.12 0.12,0.18 0.18,0.3 0.12,0.3 0.18,0.12 0,0.3 0.12,0.3 0,0.6 -0.12,0.3 0,0.3 -0.18,0.3 -0.12,0.18 -0.18,0.3 -0.6,0.6 -0.3,0.12 -0.3,0 -0.3,0.18 -1.02,0 -0.3,-0.18 -0.3,0 -0.3,-0.12 -0.6,-0.6 -0.18,-0.3 -0.12,-0.18 -0.18,-0.3 0,-0.3 -0.12,-0.3 0,-0.3 z m -63.6,-3.42 -6.9,3.42 6.9,3.48 0,-6.9" /><text
         transform="scale(1,-1)"
         sodipodi:linespacing="125%"
         id="text3061"
         y="-531.9635"
         x="360.17499"
         style="font-style:normal;font-variant:normal;font-weight:300;font-stretch:normal;font-size:8px;line-height:125%;font-family:Vow;-inkscape-font-specification:'Vow Light';letter-spacing:0px;word-spacing:0px;fill:#000000;fill-opacity:1;stroke:none"
         xml:space="preserve"><tspan
           style="font-style:normal;font-variant:normal;font-weight:normal;font-stretch:normal;font-size:10.11999989px;font-family:Arial;-inkscape-font-specification:Arial"
           y="-531.9635"
           x="360.17499"
           id="tspan3063"
           sodipodi:role="line">[rsp+16]</tspan></text>
<text
         xml:space="preserve"
         style="font-style:normal;font-weight:normal;font-size:21.33333397px;line-height:125%;font-family:sans-serif;letter-spacing:0px;word-spacing:0px;fill:#000000;fill-opacity:1;stroke:none;stroke-width:1px;stroke-linecap:butt;stroke-linejoin:miter;stroke-opacity:1"
         x="239.64168"
         y="-611.69592"
         id="text3403"
         sodipodi:linespacing="125%"
         transform="scale(1,-1)"><tspan
           sodipodi:role="line"
           x="239.64168"
           y="-611.69592"
           id="tspan3407"
           style="font-size:10.66666698px">Higher addresses</tspan><tspan
           sodipodi:role="line"
           x="239.64168"
           y="-598.36261"
           style="font-size:10.66666698px"
           id="tspan3439" /><tspan
           sodipodi:role="line"
           x="239.64168"
           y="-585.02924"
           style="font-size:10.66666698px"
           id="tspan3423" /><tspan
           sodipodi:role="line"
           x="239.64168"
           y="-571.69592"
           style="font-size:10.66666698px"
           id="tspan3427" /><tspan
           sodipodi:role="line"
           x="239.64168"
           y="-558.36261"
           style="font-size:10.66666698px"
           id="tspan3429" /><tspan
           sodipodi:role="line"
           x="239.64168"
           y="-545.02924"
           style="font-size:10.66666698px"
           id="tspan3431" /><tspan
           sodipodi:role="line"
           x="239.64168"
           y="-531.69592"
           style="font-size:10.66666698px"
           id="tspan3433" /><tspan
           sodipodi:role="line"
           x="239.64168"
           y="-518.36261"
           style="font-size:10.66666698px"
           id="tspan3435" /><tspan
           sodipodi:role="line"
           x="239.64168"
           y="-505.02927"
           id="tspan3409"
           style="font-size:10.66666698px" /><tspan
           sodipodi:role="line"
           x="239.64168"
           y="-491.69592"
           id="tspan3411"
           style="font-size:10.66666698px" /><tspan
           sodipodi:role="line"
           x="239.64168"
           y="-478.36258"
           id="tspan3413"
           style="font-size:10.66666698px" /><tspan
           sodipodi:role="line"
           x="239.64168"
           y="-465.02927"
           id="tspan3415"
           style="font-size:10.66666698px" /><tspan
           sodipodi:role="line"
           x="239.64168"
           y="-451.69592"
           id="tspan3417"
           style="font-size:10.66666698px" /><tspan
           sodipodi:role="line"
           x="239.64168"
           y="-438.36258"
           id="tspan3419"
           style="font-size:10.66666698px">Lower addresses</tspan></text>
</g></g></svg>