<?xml version="1.0" encoding="UTF-8" standalone="no"?>
<!-- Created with Inkscape (http://www.inkscape.org/) -->

<svg
   xmlns:dc="http://purl.org/dc/elements/1.1/"
   xmlns:cc="http://creativecommons.org/ns#"
   xmlns:rdf="http://www.w3.org/1999/02/22-rdf-syntax-ns#"
   xmlns:svg="http://www.w3.org/2000/svg"
   xmlns="http://www.w3.org/2000/svg"
   xmlns:sodipodi="http://sodipodi.sourceforge.net/DTD/sodipodi-0.dtd"
   xmlns:inkscape="http://www.inkscape.org/namespaces/inkscape"
   id="svg2"
   version="1.1"
   inkscape:version="0.48.3.1 r9886"
   width="656.25293"
   height="210.75264"
   xml:space="preserve"
   sodipodi:docname="known-unknown-graphs.svg"><metadata
     id="metadata8"><rdf:RDF><cc:Work
         rdf:about=""><dc:format>image/svg+xml</dc:format><dc:type
           rdf:resource="http://purl.org/dc/dcmitype/StillImage" /><dc:title /></cc:Work></rdf:RDF></metadata><defs
     id="defs6"><clipPath
       clipPathUnits="userSpaceOnUse"
       id="clipPath16"><path
         d="m 0,1.2207e-4 720,0 0,539.99999793 -720,0 L 0,1.2207e-4 z"
         clip-rule="evenodd"
         id="path18"
         inkscape:connector-curvature="0" /></clipPath></defs><sodipodi:namedview
     pagecolor="#ffffff"
     bordercolor="#666666"
     borderopacity="1"
     objecttolerance="10"
     gridtolerance="10"
     guidetolerance="10"
     inkscape:pageopacity="0"
     inkscape:pageshadow="2"
     inkscape:window-width="1280"
     inkscape:window-height="1004"
     id="namedview4"
     showgrid="false"
     fit-margin-top="10"
     fit-margin-left="10"
     fit-margin-right="10"
     fit-margin-bottom="10"
     inkscape:zoom="1.5"
     inkscape:cx="317.7161"
     inkscape:cy="86.731807"
     inkscape:window-x="2557"
     inkscape:window-y="-3"
     inkscape:window-maximized="1"
     inkscape:current-layer="g10" /><g
     id="g10"
     inkscape:groupmode="layer"
     inkscape:label="13-graphs-tmp"
     transform="matrix(1.25,0,0,-1.25,-132.2839,232.1875)"><rect
   style="fill:#ffffff;fill-opacity:1;stroke:none"
   id="rect3019"
   width="525"
   height="168.60001"
   x="105.82712"
   y="-185.74789"
   transform="scale(1,-1)" /><path
   d="m 323.17,154.5 c -3.32,-0.75 11.62,5.25 -19.92,0 C 271.7,149.25 163.77,135 133.89,123 104,111 115.62,93 123.92,82.5 132.23,72 163.77,67.5 183.7,60 c 19.92,-7.5 33.21,-24.75 59.77,-22.5 26.57,2.25 66.42,34.5 99.62,36 33.21,1.5 71.4,-19.5 99.63,-27 28.22,-7.5 43.17,-27.75 69.73,-18 26.57,9.75 73.06,54.75 89.66,76.5 16.61,21.75 29.89,45 9.97,54 -19.93,9 -89.66,-3 -129.51,0 -39.85,3 -83.02,18 -109.59,18 -26.56,0 -41.51,-14.25 -49.81,-18 -8.3,-3.75 3.32,-3.75 0,-4.5 z"
   style="fill:none;stroke:#000000;stroke-width:1.5;stroke-linecap:butt;stroke-linejoin:round;stroke-miterlimit:10;stroke-opacity:1;stroke-dasharray:none"
   id="path158"
   inkscape:connector-curvature="0" /><path
   d="m 608,136.52 c -12.94,9.1 -11.96,15.1 -38.04,15.47 -29.41,0.38 -58.62,0.47 -88.03,0.66 -19.41,1.22 -38.62,2.63 -57.25,5.63 -8.04,1.31 -16.27,1.97 -23.53,4.22 -3.92,-2.91 -1.96,-3.28 0,-6.38 3.14,-5.06 8.04,-9.47 10.39,-14.72 -1.56,-17.17 -0.39,-24.02 -4.51,-37.15 -1.17,-3.56 -3.52,-6.469 -5.88,-9.846 -1.17,-1.594 -3.92,-2.814 -5.88,-4.221 -0.98,-0.656 -2.94,-2.063 -2.94,-2.063 -2.35,-3.846 -0.39,-1.407 -7.25,-6.285 -0.98,-0.75 -2.95,-2.157 -2.95,-2.157 -4.5,-6.847 4.12,-12.381 17.65,-14.069 7.65,-3.658 28.43,-6.754 39.61,-8.348 6.27,-2.064 11.37,-4.315 17.64,-6.378 1.37,-0.469 4.31,-1.407 4.31,-1.407 7.65,-5.347 17.65,-12.006 30.79,-13.976 4.9,0.188 10.19,-0.375 14.7,0.657 3.14,0.75 5.88,4.221 5.88,4.221 2.55,5.065 3.73,11.067 11.77,14.726 2.35,3.751 0.59,1.594 7.25,6.378 0.98,0.656 2.94,2.063 2.94,2.063 2.16,3.095 5.1,4.502 8.83,7.035 3.33,2.251 5.68,4.783 8.82,7.035 7.84,5.534 12.94,12.006 20.58,17.539 2.95,4.409 -0.98,-0.562 5.69,4.876 2.75,2.25 4.31,4.79 7.45,7.04 1.57,2.25 4.51,3.94 5.88,6.28 2.36,4.03 4.12,7.79 8.83,11.26 2.94,4.5 7.25,6.94 7.25,11.91 z"
   style="fill:none;stroke:#ff0000;stroke-width:1.5;stroke-linecap:butt;stroke-linejoin:round;stroke-miterlimit:10;stroke-opacity:1;stroke-dasharray:none"
   id="path162"
   inkscape:connector-curvature="0" /><text
   transform="matrix(1,0,0,-1,245.11,108.98)"
   id="text164"><tspan
     style="font-size:20.04000092px;font-variant:normal;font-weight:bold;writing-mode:lr-tb;fill:#333399;fill-opacity:1;fill-rule:nonzero;stroke:none;font-family:Times New Roman;-inkscape-font-specification:'Times New Roman, Bold'"
     x="0"
     y="0"
     id="tspan166">S</tspan></text>

<text
   transform="matrix(1,0,0,-1,215.23,84.96)"
   id="text168"><tspan
     style="font-size:20.06399918px;font-variant:normal;font-weight:normal;writing-mode:lr-tb;fill:#333399;fill-opacity:1;fill-rule:nonzero;stroke:none;font-family:Times New Roman;-inkscape-font-specification:Times New"
     x="0"
     y="0"
     id="tspan170">“</tspan></text>

<text
   transform="matrix(1,0,0,-1,224.11,84.96)"
   id="text172"><tspan
     style="font-size:20.06399918px;font-variant:normal;font-weight:bold;writing-mode:lr-tb;fill:#333399;fill-opacity:1;fill-rule:nonzero;stroke:none;font-family:Times New Roman;-inkscape-font-specification:'Times New Roman, Bold'"
     x="0 11.155584 22.311169 32.343166 46.829376"
     y="0"
     sodipodi:role="line"
     id="tspan174">known</tspan></text>

<text
   transform="matrix(1,0,0,-1,282.07,84.96)"
   id="text176"><tspan
     style="font-size:20.06399918px;font-variant:normal;font-weight:normal;writing-mode:lr-tb;fill:#333399;fill-opacity:1;fill-rule:nonzero;stroke:none;font-family:Times New Roman;-inkscape-font-specification:Times New"
     x="0"
     y="0"
     id="tspan178">”</tspan></text>

<path
   d="m 144,96 c 0,2.485 3.58,4.5 8,4.5 l 0,0 c 4.42,0 8,-2.015 8,-4.5 0,0 0,0 0,0 l 0,0 c 0,-2.485 -3.58,-4.5 -8,-4.5 0,0 0,0 0,0 l 0,0 c -4.42,0 -8,2.015 -8,4.5 0,0 0,0 0,0 z"
   style="fill:#ff0000;fill-opacity:1;fill-rule:evenodd;stroke:none"
   id="path180"
   inkscape:connector-curvature="0" /><path
   d="m 144,96 c 0,2.485 3.58,4.5 8,4.5 l 0,0 c 4.42,0 8,-2.015 8,-4.5 0,0 0,0 0,0 l 0,0 c 0,-2.485 -3.58,-4.5 -8,-4.5 0,0 0,0 0,0 l 0,0 c -4.42,0 -8,2.015 -8,4.5 0,0 0,0 0,0 z"
   style="fill:none;stroke:#000000;stroke-width:0.75;stroke-linecap:butt;stroke-linejoin:round;stroke-miterlimit:10;stroke-opacity:1;stroke-dasharray:none"
   id="path182"
   inkscape:connector-curvature="0" /><text
   transform="matrix(1,0,0,-1,143.23,99.96)"
   id="text184"><tspan
     style="font-size:20.06399918px;font-variant:normal;font-weight:normal;writing-mode:lr-tb;fill:#ff0000;fill-opacity:1;fill-rule:nonzero;stroke:none;font-family:Times New Roman;-inkscape-font-specification:Times New"
     x="0"
     y="0"
     id="tspan186">s</tspan></text>

<text
   transform="matrix(1,0,0,-1,464.11,90.96)"
   id="text188"><tspan
     style="font-size:20.06399918px;font-variant:normal;font-weight:bold;writing-mode:lr-tb;fill:#ff0000;fill-opacity:1;fill-rule:nonzero;stroke:none;font-family:Times New Roman;-inkscape-font-specification:'Times New Roman, Bold'"
     x="0 14.160208"
     y="0"
     sodipodi:role="line"
     id="tspan190">V </tspan></text>

<text
   transform="matrix(1,0,0,-1,483.31,90.96)"
   id="text192"><tspan
     style="font-size:20.06399918px;font-variant:normal;font-weight:bold;writing-mode:lr-tb;fill:#ff0000;fill-opacity:1;fill-rule:nonzero;stroke:none;font-family:Times New Roman;-inkscape-font-specification:'Times New Roman, Bold'"
     x="0"
     y="0"
     id="tspan194">-</tspan></text>

<text
   transform="matrix(1,0,0,-1,494.95,90.96)"
   id="text196"><tspan
     style="font-size:20.06399918px;font-variant:normal;font-weight:bold;writing-mode:lr-tb;fill:#ff0000;fill-opacity:1;fill-rule:nonzero;stroke:none;font-family:Times New Roman;-inkscape-font-specification:'Times New Roman, Bold'"
     x="0"
     y="0"
     id="tspan198">S</tspan></text>

<text
   transform="matrix(1,0,0,-1,439.27,66.96)"
   id="text200"><tspan
     style="font-size:20.04000092px;font-variant:normal;font-weight:normal;writing-mode:lr-tb;fill:#ff0000;fill-opacity:1;fill-rule:nonzero;stroke:none;font-family:Times New Roman;-inkscape-font-specification:Times New"
     x="0"
     y="0"
     id="tspan202">“</tspan></text>

<text
   transform="matrix(1,0,0,-1,448.15,66.96)"
   id="text204"><tspan
     style="font-size:20.04000092px;font-variant:normal;font-weight:bold;writing-mode:lr-tb;fill:#ff0000;fill-opacity:1;fill-rule:nonzero;stroke:none;font-family:Times New Roman;-inkscape-font-specification:'Times New Roman, Bold'"
     x="0 11.14224 22.284479 33.42672 44.629082 54.649078 69.117958"
     y="0"
     sodipodi:role="line"
     id="tspan206">unknown</tspan></text>

<text
   transform="matrix(1,0,0,-1,528.43,66.96)"
   id="text208"><tspan
     style="font-size:20.04000092px;font-variant:normal;font-weight:normal;writing-mode:lr-tb;fill:#ff0000;fill-opacity:1;fill-rule:nonzero;stroke:none;font-family:Times New Roman;-inkscape-font-specification:Times New"
     x="0"
     y="0"
     id="tspan210">”</tspan></text>

<path
   d="m 367.95,146.25 64,4.5 0.1,-1.5 -64,-4.5 -0.1,1.5 z m 0.26,-3.74 c -1.65,-0.12 -3.09,1.13 -3.2,2.78 -0.12,1.65 1.13,3.09 2.78,3.2 1.65,0.12 3.09,-1.13 3.2,-2.78 0.12,-1.65 -1.13,-3.09 -2.78,-3.2 z m 63.58,10.48 c 1.65,0.12 3.09,-1.13 3.2,-2.78 0.12,-1.65 -1.13,-3.09 -2.78,-3.2 -1.65,-0.12 -3.09,1.13 -3.2,2.78 -0.12,1.65 1.13,3.09 2.78,3.2 z"
   style="fill:#000000;fill-opacity:1;fill-rule:nonzero;stroke:none"
   id="path212"
   inkscape:connector-curvature="0" /><path
   d="m 352.18,87.729 56,-13.5 -0.36,-1.458 -56,13.5 0.36,1.458 z m -0.88,-3.645 c -1.61,0.388 -2.6,2.009 -2.22,3.619 0.39,1.611 2.01,2.602 3.62,2.214 1.61,-0.389 2.6,-2.009 2.22,-3.62 -0.39,-1.611 -2.01,-2.602 -3.62,-2.213 z m 57.4,-7.667 c 1.61,-0.389 2.6,-2.009 2.22,-3.62 -0.39,-1.611 -2.01,-2.602 -3.62,-2.213 -1.61,0.388 -2.6,2.009 -2.22,3.619 0.39,1.611 2.01,2.602 3.62,2.214 z"
   style="fill:#000000;fill-opacity:1;fill-rule:nonzero;stroke:none"
   id="path214"
   inkscape:connector-curvature="0" /><path
   d="m 368.15,146.23 64,-13.5 -0.3,-1.46 -64,13.5 0.3,1.46 z m -0.77,-3.67 c -1.62,0.35 -2.66,1.94 -2.32,3.56 0.35,1.62 1.94,2.66 3.56,2.32 1.62,-0.35 2.66,-1.94 2.32,-3.56 -0.35,-1.62 -1.94,-2.66 -3.56,-2.32 z m 65.24,-7.62 c 1.62,-0.35 2.66,-1.94 2.32,-3.56 -0.35,-1.62 -1.94,-2.66 -3.56,-2.32 -1.62,0.35 -2.66,1.94 -2.32,3.56 0.35,1.62 1.94,2.66 3.56,2.32 z"
   style="fill:#ff0000;fill-opacity:1;fill-rule:nonzero;stroke:none"
   id="path216"
   inkscape:connector-curvature="0" /><path
   d="m 367.95,114.75 64,4.5 0.1,-1.5 -64,-4.5 -0.1,1.5 z m 0.26,-3.74 c -1.65,-0.12 -3.09,1.13 -3.2,2.78 -0.12,1.65 1.13,3.09 2.78,3.2 1.65,0.12 3.09,-1.13 3.2,-2.78 0.12,-1.65 -1.13,-3.09 -2.78,-3.2 z m 63.58,10.48 c 1.65,0.12 3.09,-1.13 3.2,-2.78 0.12,-1.65 -1.13,-3.09 -2.78,-3.2 -1.65,-0.12 -3.09,1.13 -3.2,2.78 -0.12,1.65 1.13,3.09 2.78,3.2 z"
   style="fill:#000000;fill-opacity:1;fill-rule:nonzero;stroke:none"
   id="path218"
   inkscape:connector-curvature="0" /><path
   d="m 351.95,87.748 64,4.5 0.1,-1.496 -64,-4.5 -0.1,1.496 z m 0.26,-3.74 c -1.65,-0.117 -3.09,1.129 -3.2,2.782 -0.12,1.653 1.13,3.087 2.78,3.203 1.65,0.116 3.09,-1.13 3.2,-2.782 0.12,-1.653 -1.13,-3.087 -2.78,-3.203 z m 63.58,10.485 c 1.65,0.116 3.09,-1.13 3.2,-2.782 0.12,-1.653 -1.13,-3.087 -2.78,-3.203 -1.65,-0.117 -3.09,1.129 -3.2,2.782 -0.12,1.653 1.13,3.087 2.78,3.203 z"
   style="fill:#000000;fill-opacity:1;fill-rule:nonzero;stroke:none"
   id="path220"
   inkscape:connector-curvature="0" /><path
   d="m 351.86,87.737 72,13.503 0.28,-1.477 -72,-13.5 -0.28,1.474 z m 0.69,-3.685 c -1.63,-0.306 -3.19,0.767 -3.5,2.395 -0.3,1.629 0.77,3.196 2.4,3.502 1.63,0.305 3.19,-0.767 3.5,-2.396 0.3,-1.628 -0.77,-3.196 -2.4,-3.501 z m 70.9,19.398 c 1.63,0.3 3.19,-0.77 3.5,-2.4 0.3,-1.625 -0.77,-3.193 -2.4,-3.498 -1.63,-0.306 -3.19,0.767 -3.5,2.395 -0.3,1.633 0.77,3.193 2.4,3.503 z"
   style="fill:#000000;fill-opacity:1;fill-rule:nonzero;stroke:none"
   id="path222"
   inkscape:connector-curvature="0" /><text
   transform="matrix(1,0,0,-1,439.27,123.14)"
   id="text224"><tspan
     style="font-size:24px;font-variant:normal;font-weight:normal;writing-mode:lr-tb;fill:#ff0000;fill-opacity:1;fill-rule:nonzero;stroke:none;font-family:Times New Roman;-inkscape-font-specification:Times New"
     x="0"
     y="0"
     id="tspan226">v</tspan></text>

<path
   sodipodi:type="arc"
   style="fill:#ffffff;fill-opacity:1;stroke:none"
   id="path3021"
   sodipodi:cx="293"
   sodipodi:cy="70.75264"
   sodipodi:rx="32.333332"
   sodipodi:ry="20"
   d="m 325.33333,70.75264 a 32.333332,20 0 1 1 -64.66666,0 32.333332,20 0 1 1 64.66666,0 z"
   transform="matrix(0.65154639,0,0,-0.8,144.52403,201.75)" /><path
   d="m 334.14,161.69 c -2.49,-3.84 -12.82,-7.12 -19.99,-8.34 -3.66,-2.16 -6.16,-3.28 -11.16,-4.22 -21,-7.87 -52.82,-9.09 -77.31,-11.25 -14.33,-2.9 -29.16,-4.5 -43.66,-7.03 -4.99,-0.84 -9.99,-1.87 -14.99,-2.81 -4.83,-0.94 -8.33,-2.81 -13.66,-3.47 -3.67,-1.4 -7.5,-2.15 -11.17,-3.56 -0.83,-0.65 -1.5,-1.4 -2.5,-2.06 -1.16,-0.75 -2.66,-1.31 -3.83,-2.06 -1.83,-1.31 -5,-4.22 -5,-4.22 -0.83,-1.41 -1.83,-2.81 -2.5,-4.22 -0.83,-1.87 -2.33,-5.62 -2.33,-5.62 0.5,-3.563 -0.66,-7.406 2.33,-10.499 4.5,-4.499 8.67,-5.623 16.33,-7.779 7,-2.062 13.33,-5.249 19.83,-7.685 3.5,-1.313 8.33,-2.531 11.33,-4.218 5.16,-2.906 12.5,-4.686 18.66,-7.029 1.5,-0.563 2.33,-1.5 3.67,-2.062 2.33,-1.031 7.49,-2.812 7.49,-2.812 2.67,-2.25 6.17,-4.03 8.83,-6.28 1.84,-3.374 9.33,-7.779 14.83,-9.841 18.33,1.218 28.49,4.78 41.16,11.903 5.83,3.281 8.49,8.248 14.99,11.247 16,7.311 33.49,7.779 53.65,8.436 6.17,0.468 11.5,1.03 17.33,2.061 12.33,4.593 18.5,9.467 24.99,16.871 2.17,2.437 2.17,5.717 3.67,8.337 3.83,15.84 13,44.71 -14.83,55.4 -4.67,4.03 0.17,0.84 -6.33,2.81 -2.67,0.84 -7.5,2.81 -7.5,2.81 -7.5,-0.47 -12.99,-0.84 -19.83,-2.06 -3,-2.53 -2.5,-3 -2.5,-0.75 z"
   style="fill:none;stroke:#333399;stroke-width:1.5;stroke-linecap:butt;stroke-linejoin:round;stroke-miterlimit:10;stroke-opacity:1;stroke-dasharray:none"
   id="path160"
   inkscape:connector-curvature="0" /></g></svg>