<?xml version="1.0" encoding="UTF-8" standalone="no"?>
<!-- Created with Inkscape (http://www.inkscape.org/) -->

<svg
   xmlns:dc="http://purl.org/dc/elements/1.1/"
   xmlns:cc="http://creativecommons.org/ns#"
   xmlns:rdf="http://www.w3.org/1999/02/22-rdf-syntax-ns#"
   xmlns:svg="http://www.w3.org/2000/svg"
   xmlns="http://www.w3.org/2000/svg"
   xmlns:sodipodi="http://sodipodi.sourceforge.net/DTD/sodipodi-0.dtd"
   xmlns:inkscape="http://www.inkscape.org/namespaces/inkscape"
   id="svg3187"
   version="1.1"
   inkscape:version="0.48.2 r9819"
   width="716.56873"
   height="262.02838"
   xml:space="preserve"
   sodipodi:docname="kruskals-diagram.svg"><metadata
     id="metadata3193"><rdf:RDF><cc:Work
         rdf:about=""><dc:format>image/svg+xml</dc:format><dc:type
           rdf:resource="http://purl.org/dc/dcmitype/StillImage" /><dc:title /></cc:Work></rdf:RDF></metadata><defs
     id="defs3191"><clipPath
       clipPathUnits="userSpaceOnUse"
       id="clipPath3201"><path
         d="m 0,1.2207e-4 720,0 0,539.99999793 -720,0 L 0,1.2207e-4 z"
         clip-rule="evenodd"
         id="path3203"
         inkscape:connector-curvature="0" /></clipPath></defs><sodipodi:namedview
     pagecolor="#ffffff"
     bordercolor="#666666"
     borderopacity="1"
     objecttolerance="10"
     gridtolerance="10"
     guidetolerance="10"
     inkscape:pageopacity="0"
     inkscape:pageshadow="2"
     inkscape:window-width="1172"
     inkscape:window-height="935"
     id="namedview3189"
     showgrid="false"
     fit-margin-top="10"
     fit-margin-left="10"
     fit-margin-right="10"
     fit-margin-bottom="10"
     inkscape:zoom="0.34962963"
     inkscape:cx="-133.59375"
     inkscape:cy="251.82839"
     inkscape:window-x="0"
     inkscape:window-y="0"
     inkscape:window-maximized="0"
     inkscape:current-layer="g3195" /><g
     id="g3195"
     inkscape:groupmode="layer"
     inkscape:label="13-graphs-tmp"
     transform="matrix(1.25,0,0,-1.25,-77.34375,347.7)"><rect
   style="fill:#ffffff;fill-opacity:1;stroke:none"
   id="rect3125"
   width="573.25598"
   height="209.62399"
   x="61.875"
   y="-278.16132"
   transform="scale(1,-1)" /><path
   d="m 346.67,252.97 c -12.01,1.6 -4.17,1.03 -21.34,0 -36.67,-2.25 -27.17,-1.68 -56.84,-3 -32.84,1.13 -65.18,3.38 -97.85,4.97 -17.17,-0.37 -34.34,-0.47 -51.51,-1.03 -2.5,-0.09 -5.33,0 -7.17,-0.94 -4.5,-2.15 -6.5,-5.62 -10.66,-8.06 -3.504,-5.71 -1.17,-2.34 -8.838,-10.96 -1.167,-1.31 -3.668,-4.03 -3.668,-4.03 -1.5,-5.34 -2.833,-9.19 -7.001,-13.97 -4,-17.33 -8.501,-34.58 -10.668,-52.01 0.167,-2.06 0.5,-23.8 5.334,-27.93 5.834,-4.97 16.169,-7.59 23.004,-11.99 13.837,-8.91 22.337,-19.87 41.007,-26.059 8.17,-2.718 27.17,-2.905 33.67,-2.999 42.17,-0.562 84.18,-0.656 126.35,-0.937 9.5,-1.125 19.01,-2.437 28.34,-4.03 3.5,-0.562 7.17,-1.312 10.67,-1.968 1.83,-0.375 5.33,-1.031 5.33,-1.031 7.17,-3.843 2.17,-1.874 17.84,-4.03 13,-1.874 26,-3.655 39.17,-4.967 117.69,1.218 66.84,-3.749 117.35,5.998 4.84,2.718 11.17,4.311 16,7.029 11.01,6.185 22.01,12.184 33.68,17.994 3.16,1.59 5.5,3.66 9,4.97 11.33,4.21 22.17,9.84 30.17,16.02 6,4.69 6.17,10.78 10.67,15.94 4,17.24 5.33,34.67 7.17,52.01 -0.67,12 -0.67,23.99 -1.84,35.99 -0.83,8.81 -18.33,15.18 -30.17,19.02 -3.33,1.03 -5.5,3.1 -9,3.94 -4.5,1.03 -9.5,1.41 -14.17,2.06 -12.67,4.69 -31,6.94 -46.17,7.97 -11.34,0.75 -33.84,1.97 -33.84,1.97 -19.84,-0.47 -31.51,0.46 -48.01,-1.97 -18.84,-2.72 -36.17,-12.19 -56.84,-13.03 -13,-0.56 -26.17,-0.65 -39.17,-0.94 z"
   style="fill:none;stroke:#000000;stroke-width:2.5;stroke-linecap:butt;stroke-linejoin:round;stroke-miterlimit:10;stroke-opacity:1;stroke-dasharray:none"
   id="path3315"
   inkscape:connector-curvature="0" /><path
   d="m 174.15,217 c -2.83,5.25 -8,4.03 -17.67,4.97 -8.17,-0.94 -12.84,-1.41 -19.68,-4.03 -4.5,-3.84 -11,-6.18 -16,-9.93 -4.67,-3.47 -7.17,-7.97 -12.34,-11.06 -1.67,-3.65 -3.83,-7.22 -5.33,-10.96 1,-8.06 0.66,-19.96 17.67,-22.96 1.17,-0.66 2.17,-1.59 3.67,-2.06 3.33,-0.94 10.67,-1.97 10.67,-1.97 3.5,0.66 7.5,0.75 10.67,1.97 3.5,1.31 10.67,4.03 10.67,4.03 9.83,8.43 30.01,6.46 46.18,7.02 8.17,1.41 6,3 10.67,6.94 -1.16,11.71 2.67,16.96 -7.17,25.02 -3,5.43 -10.33,8.24 -19.5,10.02 -1.17,1.03 -1.67,2.35 -3.51,3 -14.33,4.97 -11.5,2.91 -9,0 z"
   style="fill:none;stroke:#333399;stroke-width:0.75;stroke-linecap:butt;stroke-linejoin:round;stroke-miterlimit:10;stroke-opacity:1;stroke-dasharray:none"
   id="path3317"
   inkscape:connector-curvature="0" /><path
   d="m 490.63,232.03 c -9,1.59 -17.84,-1.41 -26.67,-3 -12.83,-2.34 -31.67,-6.56 -39.17,-13.03 -2.33,-1.97 -4.66,-4.03 -7,-6 -1.83,-1.59 -5.33,-2.44 -7.16,-4.03 -2.17,-1.88 -2.84,-4.22 -5.34,-6 -1.33,-0.94 -3.66,-1.22 -5.33,-1.97 -5.83,-2.72 -8.67,-4.59 -16,-6 -7.83,0.47 -16.5,-0.28 -23.17,1.97 -1.5,0.47 -2.16,1.5 -3.5,2.06 -6.5,2.81 -13.5,5.91 -21.33,6.94 -1.83,-0.28 -3.83,-0.38 -5.33,-0.94 -2.84,-1.12 -7.17,-4.03 -7.17,-4.03 -3.83,-9.28 -6.33,-22.69 12.5,-25.97 1.83,-0.65 3.33,-1.59 5.33,-2.06 3.34,-0.84 7.5,-0.84 10.67,-1.97 7.5,-2.72 13.17,-5.72 21.33,-7.97 8.67,-5.15 20,-2.62 32,-2.06 10.17,5.72 5.34,2.44 14.17,10.03 1,0.84 0.83,2.06 1.83,3 2.17,2.06 7.17,6 7.17,6 8.67,14.72 -1,-0.09 7,9 0.83,0.94 0.5,2.25 1.83,3 13.5,7.59 36.17,7.59 53.34,10.03 9.66,3.56 2.16,-0.09 7.16,4.97 10.17,10.31 4.67,2.25 8.84,9 -1.34,7.13 1.5,11.81 -10.67,13.97 -4.83,2.81 -3,1.12 -5.33,5.06 z"
   style="fill:none;stroke:#333399;stroke-width:0.75;stroke-linecap:butt;stroke-linejoin:round;stroke-miterlimit:10;stroke-opacity:1;stroke-dasharray:none"
   id="path3319"
   inkscape:connector-curvature="0" /><path
   d="m 508.5,116.97 c -0.67,1.03 0,2.62 -1.83,3 -1.67,0.28 -11.5,-1.5 -14.17,-1.97 -8.33,-4.68 -9,-13.1 0,-17.97 12.17,0.47 27.67,-2.155 32,4.96 -0.83,1.4 -6.33,11.98 -10.67,11.98 -1.83,0 -3.5,0 -5.33,0 z"
   style="fill:none;stroke:#333399;stroke-width:0.75;stroke-linecap:butt;stroke-linejoin:round;stroke-miterlimit:10;stroke-opacity:1;stroke-dasharray:none"
   id="path3321"
   inkscape:connector-curvature="0" /><path
   d="m 305.84,138.01 c -5,2.62 -9.33,3.09 -16,4.02 -4.83,0.66 -14.32,1.97 -14.32,1.97 -4.67,-0.37 -9.5,-0.28 -14.16,-1.03 -7.5,-1.12 -5.17,-4.31 -14.16,-6 -1.17,-0.65 -2.67,-1.21 -3.67,-1.96 -1.33,-0.94 -2,-2.16 -3.49,-3 -1.5,-0.84 -3.67,-1.22 -5.34,-1.97 -1.33,-0.56 -2.33,-1.4 -3.49,-2.06 -3.83,-6.27 -3.17,-13.77 8.83,-15.92 6.16,-3.56 1.83,-1.69 14.16,-4.03 1.83,-0.37 5.33,-1.03 5.33,-1.03 4.16,0.37 9.66,-0.75 12.49,1.03 6.66,4.22 -2.5,8.71 7.16,13.02 4,1.78 6,2.25 10.66,3 4.67,0.75 14.16,1.96 14.16,1.96 1.84,0.66 4,1.04 5.34,1.97 3.99,2.81 4.66,10.03 -3.5,10.03 z"
   style="fill:none;stroke:#333399;stroke-width:0.75;stroke-linecap:butt;stroke-linejoin:round;stroke-miterlimit:10;stroke-opacity:1;stroke-dasharray:none"
   id="path3323"
   inkscape:connector-curvature="0" /><path
   d="m 577.79,190 c -13.99,-2.72 -28.32,-4.97 -42.64,-7.03 -4.17,-0.65 -8.33,-1.31 -12.5,-1.96 -3.66,-0.57 -10.66,-2.07 -10.66,-2.07 -4.66,-2.62 -7.83,-5.43 -12.49,-7.96 0.67,-3 0.5,-6.09 1.83,-8.99 1.83,-3.94 10.33,-6.84 15.99,-9 6.17,-5.25 12.16,-7.59 21.33,-10.96 2.83,-1.03 7.16,-4.03 7.16,-4.03 4.16,0.37 8.33,0.56 12.33,1.03 1.83,0.19 4.16,0.09 5.33,0.94 2.16,1.68 2.5,4.03 3.66,5.99 0.67,1.03 1.67,3 1.67,3 0.83,8.62 -1.67,21.83 10.66,29.05 2.67,4.31 0.67,7.77 -1.67,11.99 z"
   style="fill:none;stroke:#333399;stroke-width:0.75;stroke-linecap:butt;stroke-linejoin:round;stroke-miterlimit:10;stroke-opacity:1;stroke-dasharray:none"
   id="path3325"
   inkscape:connector-curvature="0" /><path
   d="m 184,198 c 0,2.49 3.58,4.5 8,4.5 l 0,0 c 4.42,0 8,-2.01 8,-4.5 0,0 0,0 0,0 l 0,0 c 0,-2.49 -3.58,-4.5 -8,-4.5 0,0 0,0 0,0 l 0,0 c -4.42,0 -8,2.01 -8,4.5 0,0 0,0 0,0 z"
   style="fill:#000000;fill-opacity:1;fill-rule:evenodd;stroke:none"
   id="path3327"
   inkscape:connector-curvature="0" /><path
   d="m 184,198 c 0,2.49 3.58,4.5 8,4.5 l 0,0 c 4.42,0 8,-2.01 8,-4.5 0,0 0,0 0,0 l 0,0 c 0,-2.49 -3.58,-4.5 -8,-4.5 0,0 0,0 0,0 l 0,0 c -4.42,0 -8,2.01 -8,4.5 0,0 0,0 0,0 z"
   style="fill:none;stroke:#000000;stroke-width:0.75;stroke-linecap:butt;stroke-linejoin:round;stroke-miterlimit:10;stroke-opacity:1;stroke-dasharray:none"
   id="path3329"
   inkscape:connector-curvature="0" /><path
   d="m 240,229.5 c 0,2.49 3.58,4.5 8,4.5 l 0,0 c 4.42,0 8,-2.01 8,-4.5 0,0 0,0 0,0 l 0,0 c 0,-2.49 -3.58,-4.5 -8,-4.5 0,0 0,0 0,0 l 0,0 c -4.42,0 -8,2.01 -8,4.5 0,0 0,0 0,0 z"
   style="fill:#ff0000;fill-opacity:1;fill-rule:evenodd;stroke:none"
   id="path3331"
   inkscape:connector-curvature="0" /><path
   d="m 240,229.5 c 0,2.49 3.58,4.5 8,4.5 l 0,0 c 4.42,0 8,-2.01 8,-4.5 0,0 0,0 0,0 l 0,0 c 0,-2.49 -3.58,-4.5 -8,-4.5 0,0 0,0 0,0 l 0,0 c -4.42,0 -8,2.01 -8,4.5 0,0 0,0 0,0 z"
   style="fill:none;stroke:#ff0000;stroke-width:0.75;stroke-linecap:butt;stroke-linejoin:round;stroke-miterlimit:10;stroke-opacity:1;stroke-dasharray:none"
   id="path3333"
   inkscape:connector-curvature="0" /><path
   d="m 197.63,201.13 44.75,25.25"
   style="fill:none;stroke:#000000;stroke-width:2.5;stroke-linecap:butt;stroke-linejoin:round;stroke-miterlimit:10;stroke-opacity:1;stroke-dasharray:none"
   id="path3335"
   inkscape:connector-curvature="0" /><text
   transform="matrix(1,0,0,-1,269.62,218.16)"
   id="text3337"><tspan
     style="font-size:24px;font-variant:normal;font-weight:normal;writing-mode:lr-tb;fill:#ff0000;fill-opacity:1;fill-rule:nonzero;stroke:none;font-family:Times New Roman;-inkscape-font-specification:Times New"
     x="0"
     y="0"
     id="tspan3339">v</tspan></text>

<path
   d="m 274.38,133.63 c 0,2.48 3.58,4.5 8,4.5 l 0,0 c 4.41,0 8,-2.02 8,-4.5 0,0 0,0 0,0 l 0,-0.01 c 0,-2.48 -3.59,-4.5 -8,-4.5 0,0 0,0 0,0 l 0,0 c -4.42,0 -8,2.02 -8,4.5 0,0 0,0 0,0 l 0,0.01 z"
   style="fill:#000000;fill-opacity:1;fill-rule:evenodd;stroke:none"
   id="path3341"
   inkscape:connector-curvature="0" /><path
   d="m 274.38,133.63 c 0,2.48 3.58,4.5 8,4.5 l 0,0 c 4.41,0 8,-2.02 8,-4.5 0,0 0,0 0,0 l 0,-0.01 c 0,-2.48 -3.59,-4.5 -8,-4.5 0,0 0,0 0,0 l 0,0 c -4.42,0 -8,2.02 -8,4.5 0,0 0,0 0,0 l 0,0.01 z"
   style="fill:none;stroke:#000000;stroke-width:0.75;stroke-linecap:butt;stroke-linejoin:round;stroke-miterlimit:10;stroke-opacity:1;stroke-dasharray:none"
   id="path3343"
   inkscape:connector-curvature="0" /><path
   d="m 376,166.5 c 0,2.49 3.58,4.5 8,4.5 l 0,0 c 4.42,0 8,-2.01 8,-4.5 0,0 0,0 0,0 l 0,0 c 0,-2.49 -3.58,-4.5 -8,-4.5 0,0 0,0 0,0 l 0,0 c -4.42,0 -8,2.01 -8,4.5 0,0 0,0 0,0 z"
   style="fill:#000000;fill-opacity:1;fill-rule:evenodd;stroke:none"
   id="path3345"
   inkscape:connector-curvature="0" /><path
   d="m 376,166.5 c 0,2.49 3.58,4.5 8,4.5 l 0,0 c 4.42,0 8,-2.01 8,-4.5 0,0 0,0 0,0 l 0,0 c 0,-2.49 -3.58,-4.5 -8,-4.5 0,0 0,0 0,0 l 0,0 c -4.42,0 -8,2.01 -8,4.5 0,0 0,0 0,0 z"
   style="fill:none;stroke:#000000;stroke-width:0.75;stroke-linecap:butt;stroke-linejoin:round;stroke-miterlimit:10;stroke-opacity:1;stroke-dasharray:none"
   id="path3347"
   inkscape:connector-curvature="0" /><path
   d="m 288,136.75 90.38,26.63"
   style="fill:none;stroke:#000000;stroke-width:2.5;stroke-linecap:butt;stroke-linejoin:round;stroke-miterlimit:10;stroke-opacity:1;stroke-dasharray:none"
   id="path3349"
   inkscape:connector-curvature="0" /></g></svg>