<?xml version="1.0" encoding="UTF-8" standalone="no"?>
<!DOCTYPE svg PUBLIC "-//W3C//DTD SVG 1.0//EN" "http://www.w3.org/TR/2001/PR-SVG-20010719/DTD/svg10.dtd">
<svg width="36cm" height="25cm" viewBox="43 199 714 498" xmlns="http://www.w3.org/2000/svg" xmlns:xlink="http://www.w3.org/1999/xlink">
  <g>
    <rect style="fill: #ffffff" x="340" y="200" width="155.55" height="28"/>
    <rect style="fill: none; fill-opacity:0; stroke-width: 2; stroke: #000000" x="340" y="200" width="155.55" height="28"/>
    <text font-size="16" style="fill: #000000;text-anchor:middle;font-family:sans-serif;font-style:normal;font-weight:700" x="417.775" y="219">List</text>
    <rect style="fill: #ffffff" x="340" y="228" width="155.55" height="64"/>
    <rect style="fill: none; fill-opacity:0; stroke-width: 2; stroke: #000000" x="340" y="228" width="155.55" height="64"/>
    <text font-size="16" style="fill: #000000;text-anchor:start;font-family:sans-serif;font-style:normal;font-weight:normal" x="343" y="245">+count: 2             </text>
    <text font-size="16" style="fill: #000000;text-anchor:start;font-family:sans-serif;font-style:normal;font-weight:normal" x="343" y="265">+head</text>
    <text font-size="16" style="fill: #000000;text-anchor:start;font-family:sans-serif;font-style:normal;font-weight:normal" x="343" y="285">+tail</text>
    <rect style="fill: #ffffff" x="340" y="292" width="155.55" height="64"/>
    <rect style="fill: none; fill-opacity:0; stroke-width: 2; stroke: #000000" x="340" y="292" width="155.55" height="64"/>
    <text font-size="16" style="fill: #000000;text-anchor:start;font-family:sans-serif;font-style:normal;font-weight:normal" x="343" y="309">+List()</text>
    <text font-size="16" style="fill: #000000;text-anchor:start;font-family:sans-serif;font-style:normal;font-weight:normal" x="343" y="329">+~List()</text>
    <text font-size="16" style="fill: #000000;text-anchor:start;font-family:sans-serif;font-style:normal;font-weight:normal" x="343" y="349">+isEmpty()</text>
  </g>
  <g>
    <rect style="fill: #ffffff" x="580" y="420" width="122.45" height="28"/>
    <rect style="fill: none; fill-opacity:0; stroke-width: 2; stroke: #000000" x="580" y="420" width="122.45" height="28"/>
    <text font-size="16" style="fill: #000000;text-anchor:middle;font-family:sans-serif;font-style:normal;font-weight:700" x="641.225" y="439">ListNode</text>
    <rect style="fill: #ffffff" x="580" y="448" width="122.45" height="64"/>
    <rect style="fill: none; fill-opacity:0; stroke-width: 2; stroke: #000000" x="580" y="448" width="122.45" height="64"/>
    <text font-size="16" style="fill: #000000;text-anchor:start;font-family:sans-serif;font-style:normal;font-weight:normal" x="583" y="465">+value</text>
    <text font-size="16" style="fill: #000000;text-anchor:start;font-family:sans-serif;font-style:normal;font-weight:normal" x="583" y="485">+next</text>
    <text font-size="16" style="fill: #000000;text-anchor:start;font-family:sans-serif;font-style:normal;font-weight:normal" x="583" y="505">+previous      </text>
  </g>
  <g>
    <line style="fill: none; fill-opacity:0; stroke-width: 2; stroke: #000000" x1="340" y1="240" x2="168.086" y2="413.092"/>
    <polygon style="fill: #000000" points="162.801,418.413 166.3,407.795 168.086,413.092 173.395,414.842 "/>
    <polygon style="fill: none; fill-opacity:0; stroke-width: 2; stroke: #000000" points="162.801,418.413 166.3,407.795 168.086,413.092 173.395,414.842 "/>
  </g>
  <g>
    <line style="fill: none; fill-opacity:0; stroke-width: 2; stroke: #000000" x1="660" y1="480" x2="730.264" y2="480"/>
    <polygon style="fill: #000000" points="737.764,480 727.764,485 730.264,480 727.764,475 "/>
    <polygon style="fill: none; fill-opacity:0; stroke-width: 2; stroke: #000000" points="737.764,480 727.764,485 730.264,480 727.764,475 "/>
  </g>
  <g>
    <line style="fill: none; fill-opacity:0; stroke-width: 2; stroke: #000000" x1="740" y1="458" x2="740" y2="502"/>
    <line style="fill: none; fill-opacity:0; stroke-width: 2; stroke: #000000" x1="748" y1="465" x2="748" y2="495"/>
    <line style="fill: none; fill-opacity:0; stroke-width: 2; stroke: #000000" x1="756" y1="472" x2="756" y2="488"/>
  </g>
  <g>
    <line style="fill: none; fill-opacity:0; stroke-width: 2; stroke: #000000" x1="500" y1="260" x2="634.782" y2="412.701"/>
    <polygon style="fill: #000000" points="639.745,418.324 629.379,414.135 634.782,412.701 636.876,407.518 "/>
    <polygon style="fill: none; fill-opacity:0; stroke-width: 2; stroke: #000000" points="639.745,418.324 629.379,414.135 634.782,412.701 636.876,407.518 "/>
  </g>
  <line style="fill: none; fill-opacity:0; stroke-width: 2; stroke: #000000" x1="420" y1="260" x2="500" y2="260"/>
  <g>
    <line style="fill: none; fill-opacity:0; stroke-width: 2; stroke: #000000" x1="590" y1="500" x2="549.736" y2="500"/>
    <polygon style="fill: #000000" points="542.236,500 552.236,495 549.736,500 552.236,505 "/>
    <polygon style="fill: none; fill-opacity:0; stroke-width: 2; stroke: #000000" points="542.236,500 552.236,495 549.736,500 552.236,505 "/>
  </g>
  <g>
    <rect style="fill: #ffffff" x="420" y="420" width="122.45" height="28"/>
    <rect style="fill: none; fill-opacity:0; stroke-width: 2; stroke: #000000" x="420" y="420" width="122.45" height="28"/>
    <text font-size="16" style="fill: #000000;text-anchor:middle;font-family:sans-serif;font-style:normal;font-weight:700" x="481.225" y="439">ListNode</text>
    <rect style="fill: #ffffff" x="420" y="448" width="122.45" height="64"/>
    <rect style="fill: none; fill-opacity:0; stroke-width: 2; stroke: #000000" x="420" y="448" width="122.45" height="64"/>
    <text font-size="16" style="fill: #000000;text-anchor:start;font-family:sans-serif;font-style:normal;font-weight:normal" x="423" y="465">+value = 7</text>
    <text font-size="16" style="fill: #000000;text-anchor:start;font-family:sans-serif;font-style:normal;font-weight:normal" x="423" y="485">+next</text>
    <text font-size="16" style="fill: #000000;text-anchor:start;font-family:sans-serif;font-style:normal;font-weight:normal" x="423" y="505">+previous      </text>
  </g>
  <g>
    <line style="fill: none; fill-opacity:0; stroke-width: 2; stroke: #000000" x1="500" y1="480" x2="570.264" y2="480"/>
    <polygon style="fill: #000000" points="577.764,480 567.764,485 570.264,480 567.764,475 "/>
    <polygon style="fill: none; fill-opacity:0; stroke-width: 2; stroke: #000000" points="577.764,480 567.764,485 570.264,480 567.764,475 "/>
  </g>
  <g>
    <line style="fill: none; fill-opacity:0; stroke-width: 2; stroke: #000000" x1="430" y1="500" x2="389.736" y2="500"/>
    <polygon style="fill: #000000" points="382.236,500 392.236,495 389.736,500 392.236,505 "/>
    <polygon style="fill: none; fill-opacity:0; stroke-width: 2; stroke: #000000" points="382.236,500 392.236,495 389.736,500 392.236,505 "/>
  </g>
  <g>
    <rect style="fill: #ffffff" x="260" y="420" width="122.45" height="28"/>
    <rect style="fill: none; fill-opacity:0; stroke-width: 2; stroke: #000000" x="260" y="420" width="122.45" height="28"/>
    <text font-size="16" style="fill: #000000;text-anchor:middle;font-family:sans-serif;font-style:normal;font-weight:700" x="321.225" y="439">ListNode</text>
    <rect style="fill: #ffffff" x="260" y="448" width="122.45" height="64"/>
    <rect style="fill: none; fill-opacity:0; stroke-width: 2; stroke: #000000" x="260" y="448" width="122.45" height="64"/>
    <text font-size="16" style="fill: #000000;text-anchor:start;font-family:sans-serif;font-style:normal;font-weight:normal" x="263" y="465">+value = 3</text>
    <text font-size="16" style="fill: #000000;text-anchor:start;font-family:sans-serif;font-style:normal;font-weight:normal" x="263" y="485">+next</text>
    <text font-size="16" style="fill: #000000;text-anchor:start;font-family:sans-serif;font-style:normal;font-weight:normal" x="263" y="505">+previous      </text>
  </g>
  <g>
    <line style="fill: none; fill-opacity:0; stroke-width: 2; stroke: #000000" x1="340" y1="480" x2="410.264" y2="480"/>
    <polygon style="fill: #000000" points="417.764,480 407.764,485 410.264,480 407.764,475 "/>
    <polygon style="fill: none; fill-opacity:0; stroke-width: 2; stroke: #000000" points="417.764,480 407.764,485 410.264,480 407.764,475 "/>
  </g>
  <g>
    <line style="fill: none; fill-opacity:0; stroke-width: 2; stroke: #000000" x1="270" y1="500" x2="229.736" y2="500"/>
    <polygon style="fill: #000000" points="222.236,500 232.236,495 229.736,500 232.236,505 "/>
    <polygon style="fill: none; fill-opacity:0; stroke-width: 2; stroke: #000000" points="222.236,500 232.236,495 229.736,500 232.236,505 "/>
  </g>
  <g>
    <rect style="fill: #ffffff" x="100" y="420" width="122.45" height="28"/>
    <rect style="fill: none; fill-opacity:0; stroke-width: 2; stroke: #000000" x="100" y="420" width="122.45" height="28"/>
    <text font-size="16" style="fill: #000000;text-anchor:middle;font-family:sans-serif;font-style:normal;font-weight:700" x="161.225" y="439">ListNode</text>
    <rect style="fill: #ffffff" x="100" y="448" width="122.45" height="64"/>
    <rect style="fill: none; fill-opacity:0; stroke-width: 2; stroke: #000000" x="100" y="448" width="122.45" height="64"/>
    <text font-size="16" style="fill: #000000;text-anchor:start;font-family:sans-serif;font-style:normal;font-weight:normal" x="103" y="465">+value</text>
    <text font-size="16" style="fill: #000000;text-anchor:start;font-family:sans-serif;font-style:normal;font-weight:normal" x="103" y="485">+next</text>
    <text font-size="16" style="fill: #000000;text-anchor:start;font-family:sans-serif;font-style:normal;font-weight:normal" x="103" y="505">+previous      </text>
  </g>
  <g>
    <line style="fill: none; fill-opacity:0; stroke-width: 2; stroke: #000000" x1="180" y1="480" x2="250.264" y2="480"/>
    <polygon style="fill: #000000" points="257.764,480 247.764,485 250.264,480 247.764,475 "/>
    <polygon style="fill: none; fill-opacity:0; stroke-width: 2; stroke: #000000" points="257.764,480 247.764,485 250.264,480 247.764,475 "/>
  </g>
  <g>
    <line style="fill: none; fill-opacity:0; stroke-width: 2; stroke: #000000" x1="110" y1="500" x2="69.7361" y2="500"/>
    <polygon style="fill: #000000" points="62.2361,500 72.2361,495 69.7361,500 72.2361,505 "/>
    <polygon style="fill: none; fill-opacity:0; stroke-width: 2; stroke: #000000" points="62.2361,500 72.2361,495 69.7361,500 72.2361,505 "/>
  </g>
  <line style="fill: none; fill-opacity:0; stroke-width: 2; stroke: #000000" x1="60" y1="478" x2="60" y2="522"/>
  <line style="fill: none; fill-opacity:0; stroke-width: 2; stroke: #000000" x1="52" y1="485.125" x2="52" y2="515.125"/>
  <line style="fill: none; fill-opacity:0; stroke-width: 2; stroke: #000000" x1="44" y1="492" x2="44" y2="508"/>
  <g>
    <rect style="fill: #ffffff" x="260" y="580" width="132.15" height="28"/>
    <rect style="fill: none; fill-opacity:0; stroke-width: 2; stroke: #000000" x="260" y="580" width="132.15" height="28"/>
    <text font-size="16" style="fill: #000000;text-anchor:middle;font-family:sans-serif;font-style:normal;font-weight:700" x="326.075" y="599">ListItr</text>
    <rect style="fill: #ffffff" x="260" y="608" width="132.15" height="24"/>
    <rect style="fill: none; fill-opacity:0; stroke-width: 2; stroke: #000000" x="260" y="608" width="132.15" height="24"/>
    <text font-size="16" style="fill: #000000;text-anchor:start;font-family:sans-serif;font-style:normal;font-weight:normal" x="263" y="625">+current          </text>
    <rect style="fill: #ffffff" x="260" y="632" width="132.15" height="64"/>
    <rect style="fill: none; fill-opacity:0; stroke-width: 2; stroke: #000000" x="260" y="632" width="132.15" height="64"/>
    <text font-size="16" style="fill: #000000;text-anchor:start;font-family:sans-serif;font-style:normal;font-weight:normal" x="263" y="649">+ListItr()</text>
    <text font-size="16" style="fill: #000000;text-anchor:start;font-family:sans-serif;font-style:normal;font-weight:normal" x="263" y="669">+~ListItr()</text>
    <text font-size="16" style="fill: #000000;text-anchor:start;font-family:sans-serif;font-style:normal;font-weight:normal" x="263" y="689">+isPastEnd()</text>
  </g>
  <g>
    <line style="fill: none; fill-opacity:0; stroke-width: 2; stroke: #000000" x1="410" y1="620" x2="475.865" y2="520.128"/>
    <polygon style="fill: #000000" points="479.994,513.867 478.663,524.967 475.865,520.128 470.314,519.462 "/>
    <polygon style="fill: none; fill-opacity:0; stroke-width: 2; stroke: #000000" points="479.994,513.867 478.663,524.967 475.865,520.128 470.314,519.462 "/>
  </g>
  <line style="fill: none; fill-opacity:0; stroke-width: 2; stroke: #000000" x1="350" y1="620" x2="410" y2="620"/>
</svg>
