<?xml version="1.0" encoding="UTF-8" standalone="no"?>
<!DOCTYPE svg PUBLIC "-//W3C//DTD SVG 1.0//EN" "http://www.w3.org/TR/2001/PR-SVG-20010719/DTD/svg10.dtd">
<svg width="36cm" height="25cm" viewBox="43 199 714 498" xmlns="http://www.w3.org/2000/svg" xmlns:xlink="http://www.w3.org/1999/xlink">
  <g>
    <rect style="fill: #ffffff" x="340" y="200" width="145.3" height="28"/>
    <rect style="fill: none; fill-opacity:0; stroke-width: 2; stroke: #000000" x="340" y="200" width="145.3" height="28"/>
    <text font-size="16" style="fill: #000000;text-anchor:middle;font-family:sans-serif;font-style:normal;font-weight:700" x="412.65" y="220">List</text>
    <rect style="fill: #ffffff" x="340" y="228" width="145.3" height="64"/>
    <rect style="fill: none; fill-opacity:0; stroke-width: 2; stroke: #000000" x="340" y="228" width="145.3" height="64"/>
    <text font-size="16" style="fill: #000000;text-anchor:start;font-family:sans-serif;font-style:normal;font-weight:normal" x="343" y="246">+count: 2             </text>
    <text font-size="16" style="fill: #000000;text-anchor:start;font-family:sans-serif;font-style:normal;font-weight:normal" x="343" y="266">+head</text>
    <text font-size="16" style="fill: #000000;text-anchor:start;font-family:sans-serif;font-style:normal;font-weight:normal" x="343" y="286">+tail</text>
    <rect style="fill: #ffffff" x="340" y="292" width="145.3" height="64"/>
    <rect style="fill: none; fill-opacity:0; stroke-width: 2; stroke: #000000" x="340" y="292" width="145.3" height="64"/>
    <text font-size="16" style="fill: #000000;text-anchor:start;font-family:sans-serif;font-style:normal;font-weight:normal" x="343" y="310">+List()</text>
    <text font-size="16" style="fill: #000000;text-anchor:start;font-family:sans-serif;font-style:normal;font-weight:normal" x="343" y="330">+~List()</text>
    <text font-size="16" style="fill: #000000;text-anchor:start;font-family:sans-serif;font-style:normal;font-weight:normal" x="343" y="350">+isEmpty()</text>
  </g>
  <g>
    <rect style="fill: #ffffff" x="580" y="420" width="111" height="28"/>
    <rect style="fill: none; fill-opacity:0; stroke-width: 2; stroke: #000000" x="580" y="420" width="111" height="28"/>
    <text font-size="16" style="fill: #000000;text-anchor:middle;font-family:sans-serif;font-style:normal;font-weight:700" x="635.5" y="440">ListNode</text>
    <rect style="fill: #ffffff" x="580" y="448" width="111" height="64"/>
    <rect style="fill: none; fill-opacity:0; stroke-width: 2; stroke: #000000" x="580" y="448" width="111" height="64"/>
    <text font-size="16" style="fill: #000000;text-anchor:start;font-family:sans-serif;font-style:normal;font-weight:normal" x="583" y="466">+value</text>
    <text font-size="16" style="fill: #000000;text-anchor:start;font-family:sans-serif;font-style:normal;font-weight:normal" x="583" y="486">+next</text>
    <text font-size="16" style="fill: #000000;text-anchor:start;font-family:sans-serif;font-style:normal;font-weight:normal" x="583" y="506">+previous      </text>
  </g>
  <g>
    <line style="fill: none; fill-opacity:0; stroke-width: 2; stroke: #000000" x1="340" y1="260" x2="168.48" y2="413.507"/>
    <polygon style="fill: #000000" points="162.891,418.509 167.008,408.114 168.48,413.507 173.677,415.566 "/>
    <polygon style="fill: none; fill-opacity:0; stroke-width: 2; stroke: #000000" points="162.891,418.509 167.008,408.114 168.48,413.507 173.677,415.566 "/>
  </g>
  <g>
    <line style="fill: none; fill-opacity:0; stroke-width: 2; stroke: #000000" x1="660" y1="480" x2="730.264" y2="480"/>
    <polygon style="fill: #000000" points="737.764,480 727.764,485 730.264,480 727.764,475 "/>
    <polygon style="fill: none; fill-opacity:0; stroke-width: 2; stroke: #000000" points="737.764,480 727.764,485 730.264,480 727.764,475 "/>
  </g>
  <g>
    <line style="fill: none; fill-opacity:0; stroke-width: 2; stroke: #000000" x1="740" y1="458" x2="740" y2="502"/>
    <line style="fill: none; fill-opacity:0; stroke-width: 2; stroke: #000000" x1="748" y1="465" x2="748" y2="495"/>
    <line style="fill: none; fill-opacity:0; stroke-width: 2; stroke: #000000" x1="756" y1="472" x2="756" y2="488"/>
  </g>
  <g>
    <line style="fill: none; fill-opacity:0; stroke-width: 2; stroke: #000000" x1="499.75" y1="279.5" x2="634.318" y2="413.139"/>
    <polygon style="fill: #000000" points="639.639,418.424 629.021,414.926 634.318,413.139 636.067,407.83 "/>
    <polygon style="fill: none; fill-opacity:0; stroke-width: 2; stroke: #000000" points="639.639,418.424 629.021,414.926 634.318,413.139 636.067,407.83 "/>
  </g>
  <line style="fill: none; fill-opacity:0; stroke-width: 2; stroke: #000000" x1="420" y1="279.5" x2="500" y2="279.5"/>
  <g>
    <line style="fill: none; fill-opacity:0; stroke-width: 2; stroke: #000000" x1="590" y1="500" x2="549.736" y2="500"/>
    <polygon style="fill: #000000" points="542.236,500 552.236,495 549.736,500 552.236,505 "/>
    <polygon style="fill: none; fill-opacity:0; stroke-width: 2; stroke: #000000" points="542.236,500 552.236,495 549.736,500 552.236,505 "/>
  </g>
  <g>
    <rect style="fill: #ffffff" x="420" y="420" width="111" height="28"/>
    <rect style="fill: none; fill-opacity:0; stroke-width: 2; stroke: #000000" x="420" y="420" width="111" height="28"/>
    <text font-size="16" style="fill: #000000;text-anchor:middle;font-family:sans-serif;font-style:normal;font-weight:700" x="475.5" y="440">ListNode</text>
    <rect style="fill: #ffffff" x="420" y="448" width="111" height="64"/>
    <rect style="fill: none; fill-opacity:0; stroke-width: 2; stroke: #000000" x="420" y="448" width="111" height="64"/>
    <text font-size="16" style="fill: #000000;text-anchor:start;font-family:sans-serif;font-style:normal;font-weight:normal" x="423" y="466">+value = 7</text>
    <text font-size="16" style="fill: #000000;text-anchor:start;font-family:sans-serif;font-style:normal;font-weight:normal" x="423" y="486">+next</text>
    <text font-size="16" style="fill: #000000;text-anchor:start;font-family:sans-serif;font-style:normal;font-weight:normal" x="423" y="506">+previous      </text>
  </g>
  <g>
    <line style="fill: none; fill-opacity:0; stroke-width: 2; stroke: #000000" x1="500" y1="480" x2="570.264" y2="480"/>
    <polygon style="fill: #000000" points="577.764,480 567.764,485 570.264,480 567.764,475 "/>
    <polygon style="fill: none; fill-opacity:0; stroke-width: 2; stroke: #000000" points="577.764,480 567.764,485 570.264,480 567.764,475 "/>
  </g>
  <g>
    <line style="fill: none; fill-opacity:0; stroke-width: 2; stroke: #000000" x1="430" y1="500" x2="389.736" y2="500"/>
    <polygon style="fill: #000000" points="382.236,500 392.236,495 389.736,500 392.236,505 "/>
    <polygon style="fill: none; fill-opacity:0; stroke-width: 2; stroke: #000000" points="382.236,500 392.236,495 389.736,500 392.236,505 "/>
  </g>
  <g>
    <rect style="fill: #ffffff" x="260" y="420" width="111" height="28"/>
    <rect style="fill: none; fill-opacity:0; stroke-width: 2; stroke: #000000" x="260" y="420" width="111" height="28"/>
    <text font-size="16" style="fill: #000000;text-anchor:middle;font-family:sans-serif;font-style:normal;font-weight:700" x="315.5" y="440">ListNode</text>
    <rect style="fill: #ffffff" x="260" y="448" width="111" height="64"/>
    <rect style="fill: none; fill-opacity:0; stroke-width: 2; stroke: #000000" x="260" y="448" width="111" height="64"/>
    <text font-size="16" style="fill: #000000;text-anchor:start;font-family:sans-serif;font-style:normal;font-weight:normal" x="263" y="466">+value = 3</text>
    <text font-size="16" style="fill: #000000;text-anchor:start;font-family:sans-serif;font-style:normal;font-weight:normal" x="263" y="486">+next</text>
    <text font-size="16" style="fill: #000000;text-anchor:start;font-family:sans-serif;font-style:normal;font-weight:normal" x="263" y="506">+previous      </text>
  </g>
  <g>
    <line style="fill: none; fill-opacity:0; stroke-width: 2; stroke: #000000" x1="340" y1="480" x2="410.264" y2="480"/>
    <polygon style="fill: #000000" points="417.764,480 407.764,485 410.264,480 407.764,475 "/>
    <polygon style="fill: none; fill-opacity:0; stroke-width: 2; stroke: #000000" points="417.764,480 407.764,485 410.264,480 407.764,475 "/>
  </g>
  <g>
    <line style="fill: none; fill-opacity:0; stroke-width: 2; stroke: #000000" x1="270" y1="500" x2="229.736" y2="500"/>
    <polygon style="fill: #000000" points="222.236,500 232.236,495 229.736,500 232.236,505 "/>
    <polygon style="fill: none; fill-opacity:0; stroke-width: 2; stroke: #000000" points="222.236,500 232.236,495 229.736,500 232.236,505 "/>
  </g>
  <g>
    <rect style="fill: #ffffff" x="100" y="420" width="111" height="28"/>
    <rect style="fill: none; fill-opacity:0; stroke-width: 2; stroke: #000000" x="100" y="420" width="111" height="28"/>
    <text font-size="16" style="fill: #000000;text-anchor:middle;font-family:sans-serif;font-style:normal;font-weight:700" x="155.5" y="440">ListNode</text>
    <rect style="fill: #ffffff" x="100" y="448" width="111" height="64"/>
    <rect style="fill: none; fill-opacity:0; stroke-width: 2; stroke: #000000" x="100" y="448" width="111" height="64"/>
    <text font-size="16" style="fill: #000000;text-anchor:start;font-family:sans-serif;font-style:normal;font-weight:normal" x="103" y="466">+value</text>
    <text font-size="16" style="fill: #000000;text-anchor:start;font-family:sans-serif;font-style:normal;font-weight:normal" x="103" y="486">+next</text>
    <text font-size="16" style="fill: #000000;text-anchor:start;font-family:sans-serif;font-style:normal;font-weight:normal" x="103" y="506">+previous      </text>
  </g>
  <g>
    <line style="fill: none; fill-opacity:0; stroke-width: 2; stroke: #000000" x1="180" y1="480" x2="250.264" y2="480"/>
    <polygon style="fill: #000000" points="257.764,480 247.764,485 250.264,480 247.764,475 "/>
    <polygon style="fill: none; fill-opacity:0; stroke-width: 2; stroke: #000000" points="257.764,480 247.764,485 250.264,480 247.764,475 "/>
  </g>
  <g>
    <line style="fill: none; fill-opacity:0; stroke-width: 2; stroke: #000000" x1="110" y1="500" x2="69.7361" y2="500"/>
    <polygon style="fill: #000000" points="62.2361,500 72.2361,495 69.7361,500 72.2361,505 "/>
    <polygon style="fill: none; fill-opacity:0; stroke-width: 2; stroke: #000000" points="62.2361,500 72.2361,495 69.7361,500 72.2361,505 "/>
  </g>
  <line style="fill: none; fill-opacity:0; stroke-width: 2; stroke: #000000" x1="60" y1="478" x2="60" y2="522"/>
  <line style="fill: none; fill-opacity:0; stroke-width: 2; stroke: #000000" x1="52" y1="485.124" x2="52" y2="515.124"/>
  <line style="fill: none; fill-opacity:0; stroke-width: 2; stroke: #000000" x1="44" y1="492" x2="44" y2="508"/>
  <g>
    <rect style="fill: #ffffff" x="260" y="580" width="122.1" height="28"/>
    <rect style="fill: none; fill-opacity:0; stroke-width: 2; stroke: #000000" x="260" y="580" width="122.1" height="28"/>
    <text font-size="16" style="fill: #000000;text-anchor:middle;font-family:sans-serif;font-style:normal;font-weight:700" x="321.05" y="600">ListItr</text>
    <rect style="fill: #ffffff" x="260" y="608" width="122.1" height="24"/>
    <rect style="fill: none; fill-opacity:0; stroke-width: 2; stroke: #000000" x="260" y="608" width="122.1" height="24"/>
    <text font-size="16" style="fill: #000000;text-anchor:start;font-family:sans-serif;font-style:normal;font-weight:normal" x="263" y="626">+current          </text>
    <rect style="fill: #ffffff" x="260" y="632" width="122.1" height="64"/>
    <rect style="fill: none; fill-opacity:0; stroke-width: 2; stroke: #000000" x="260" y="632" width="122.1" height="64"/>
    <text font-size="16" style="fill: #000000;text-anchor:start;font-family:sans-serif;font-style:normal;font-weight:normal" x="263" y="650">+ListItr()</text>
    <text font-size="16" style="fill: #000000;text-anchor:start;font-family:sans-serif;font-style:normal;font-weight:normal" x="263" y="670">+~ListItr()</text>
    <text font-size="16" style="fill: #000000;text-anchor:start;font-family:sans-serif;font-style:normal;font-weight:normal" x="263" y="690">+isPastEnd()</text>
  </g>
  <g>
    <line style="fill: none; fill-opacity:0; stroke-width: 2; stroke: #000000" x1="410" y1="620" x2="475.866" y2="520.128"/>
    <polygon style="fill: #000000" points="479.995,513.867 478.663,524.967 475.866,520.128 470.315,519.462 "/>
    <polygon style="fill: none; fill-opacity:0; stroke-width: 2; stroke: #000000" points="479.995,513.867 478.663,524.967 475.866,520.128 470.315,519.462 "/>
  </g>
  <line style="fill: none; fill-opacity:0; stroke-width: 2; stroke: #000000" x1="350" y1="620" x2="410" y2="620"/>
</svg>
