<?xml version="1.0" encoding="UTF-8" standalone="no"?>
<!-- Created with Inkscape (http://www.inkscape.org/) -->

<svg
   xmlns:dc="http://purl.org/dc/elements/1.1/"
   xmlns:cc="http://creativecommons.org/ns#"
   xmlns:rdf="http://www.w3.org/1999/02/22-rdf-syntax-ns#"
   xmlns:svg="http://www.w3.org/2000/svg"
   xmlns="http://www.w3.org/2000/svg"
   xmlns:sodipodi="http://sodipodi.sourceforge.net/DTD/sodipodi-0.dtd"
   xmlns:inkscape="http://www.inkscape.org/namespaces/inkscape"
   id="svg2"
   version="1.1"
   inkscape:version="0.48.3.1 r9886"
   width="867.34375"
   height="508.4375"
   xml:space="preserve"
   sodipodi:docname="memory-diagram.svg"><metadata
     id="metadata8"><rdf:RDF><cc:Work
         rdf:about=""><dc:format>image/svg+xml</dc:format><dc:type
           rdf:resource="http://purl.org/dc/dcmitype/StillImage" /><dc:title></dc:title></cc:Work></rdf:RDF></metadata><defs
     id="defs6"><clipPath
       clipPathUnits="userSpaceOnUse"
       id="clipPath16"><path
         d="m 0,1.2207e-4 720,0 0,539.99999793 -720,0 L 0,1.2207e-4 z"
         clip-rule="evenodd"
         id="path18"
         inkscape:connector-curvature="0" /></clipPath><clipPath
       clipPathUnits="userSpaceOnUse"
       id="clipPath136"><path
         d="m 0,1.2207e-4 720,0 0,539.99999793 -720,0 L 0,1.2207e-4 z"
         clip-rule="evenodd"
         id="path138"
         inkscape:connector-curvature="0" /></clipPath><clipPath
       clipPathUnits="userSpaceOnUse"
       id="clipPath146"><path
         d="m 0,1.2207e-4 720,0 0,539.99999793 -720,0 L 0,1.2207e-4 z"
         clip-rule="evenodd"
         id="path148"
         inkscape:connector-curvature="0" /></clipPath></defs><sodipodi:namedview
     pagecolor="#ffffff"
     bordercolor="#666666"
     borderopacity="1"
     objecttolerance="10"
     gridtolerance="10"
     guidetolerance="10"
     inkscape:pageopacity="0"
     inkscape:pageshadow="2"
     inkscape:window-width="1280"
     inkscape:window-height="969"
     id="namedview4"
     showgrid="false"
     fit-margin-top="10"
     fit-margin-left="10"
     fit-margin-right="10"
     fit-margin-bottom="10"
     inkscape:zoom="1"
     inkscape:cx="407.34375"
     inkscape:cy="242.96875"
     inkscape:window-x="-3"
     inkscape:window-y="-3"
     inkscape:window-maximized="1"
     inkscape:current-layer="g10"
     showguides="true"
     inkscape:guide-bbox="true" /><g
     id="g10"
     inkscape:groupmode="layer"
     inkscape:label="todel"
     transform="matrix(1.25,0,0,-1.25,-42.65625,602.96875)"><rect
       style="fill:#ffffff;fill-opacity:1;stroke:none"
       id="rect3160"
       width="693.87201"
       height="406.75201"
       x="34.125"
       y="-482.37701"
       transform="scale(1,-1)" /><path
       d="m 42.5,152.12 639.5,0 0,208.63 -639.5,0 0,-208.63 z"
       style="fill:#ffff00;fill-opacity:1;fill-rule:evenodd;stroke:none"
       id="path30"
       inkscape:connector-curvature="0" /><path
       d="m 42.5,152.12 639.5,0 0,208.63 -639.5,0 0,-208.63 z"
       style="fill:none;stroke:#000000;stroke-width:0.75;stroke-linecap:butt;stroke-linejoin:miter;stroke-miterlimit:10;stroke-opacity:1;stroke-dasharray:none"
       id="path32"
       inkscape:connector-curvature="0" /><path
       d="m 301,360.75 0,-208.62"
       style="fill:none;stroke:#000000;stroke-width:4.5;stroke-linecap:butt;stroke-linejoin:round;stroke-miterlimit:10;stroke-opacity:1;stroke-dasharray:none"
       id="path34"
       inkscape:connector-curvature="0" /><path
       d="m 255.63,360.75 0,-208.62"
       style="fill:none;stroke:#000000;stroke-width:0.75;stroke-linecap:butt;stroke-linejoin:round;stroke-miterlimit:10;stroke-opacity:1;stroke-dasharray:none"
       id="path36"
       inkscape:connector-curvature="0" /><path
       d="m 210.25,360.75 0,-208.62"
       style="fill:none;stroke:#000000;stroke-width:0.75;stroke-linecap:butt;stroke-linejoin:round;stroke-miterlimit:10;stroke-opacity:1;stroke-dasharray:none"
       id="path38"
       inkscape:connector-curvature="0" /><path
       d="m 165,360.75 0,-208.62"
       style="fill:none;stroke:#000000;stroke-width:0.75;stroke-linecap:butt;stroke-linejoin:round;stroke-miterlimit:10;stroke-opacity:1;stroke-dasharray:none"
       id="path40"
       inkscape:connector-curvature="0" /><path
       d="m 119.63,360.75 0,-208.62"
       style="fill:none;stroke:#000000;stroke-width:0.75;stroke-linecap:butt;stroke-linejoin:round;stroke-miterlimit:10;stroke-opacity:1;stroke-dasharray:none"
       id="path42"
       inkscape:connector-curvature="0" /><path
       d="m 449.87,220.12 58.875,0 0,117.88 -58.875,0 0,-117.88 z"
       style="fill:#bbe0e3;fill-opacity:1;fill-rule:evenodd;stroke:none"
       id="path44"
       inkscape:connector-curvature="0" /><path
       d="m 449.87,220.12 58.875,0 0,117.88 -58.875,0 0,-117.88 z"
       style="fill:none;stroke:#000000;stroke-width:0.75;stroke-linecap:butt;stroke-linejoin:miter;stroke-miterlimit:8;stroke-opacity:1;stroke-dasharray:none"
       id="path46"
       inkscape:connector-curvature="0" /><path
       d="m 531.5,270 58.875,0 0,68 -58.875,0 0,-68 z"
       style="fill:#bbe0e3;fill-opacity:1;fill-rule:evenodd;stroke:none"
       id="path48"
       inkscape:connector-curvature="0" /><path
       d="m 531.5,270 58.875,0 0,68 -58.875,0 0,-68 z"
       style="fill:none;stroke:#000000;stroke-width:0.75;stroke-linecap:butt;stroke-linejoin:miter;stroke-miterlimit:8;stroke-opacity:1;stroke-dasharray:none"
       id="path50"
       inkscape:connector-curvature="0" /><path
       d="m 531.5,220.13 58.875,0 0,22.625 -58.875,0 0,-22.625 z"
       style="fill:#33cc33;fill-opacity:1;fill-rule:evenodd;stroke:none"
       id="path52"
       inkscape:connector-curvature="0" /><path
       d="m 531.5,220.13 58.875,0 0,22.625 -58.875,0 0,-22.625 z"
       style="fill:none;stroke:#000000;stroke-width:0.75;stroke-linecap:butt;stroke-linejoin:miter;stroke-miterlimit:8;stroke-opacity:1;stroke-dasharray:none"
       id="path54"
       inkscape:connector-curvature="0" /><path
       d="m 449.87,165.63 140.5,0 0,31.75 -140.5,0 0,-31.75 z"
       style="fill:#bbe0e3;fill-opacity:1;fill-rule:evenodd;stroke:none"
       id="path56"
       inkscape:connector-curvature="0" /><path
       d="m 449.87,165.63 140.5,0 0,31.75 -140.5,0 0,-31.75 z"
       style="fill:none;stroke:#000000;stroke-width:0.75;stroke-linecap:butt;stroke-linejoin:miter;stroke-miterlimit:8;stroke-opacity:1;stroke-dasharray:none"
       id="path58"
       inkscape:connector-curvature="0" /><path
       d="m 613.12,165.62 58.875,0 0,172.38 -58.875,0 0,-172.38 z"
       style="fill:#bbe0e3;fill-opacity:1;fill-rule:evenodd;stroke:none"
       id="path60"
       inkscape:connector-curvature="0" /><path
       d="m 613.12,165.62 58.875,0 0,172.38 -58.875,0 0,-172.38 z"
       style="fill:none;stroke:#000000;stroke-width:0.75;stroke-linecap:butt;stroke-linejoin:miter;stroke-miterlimit:8;stroke-opacity:1;stroke-dasharray:none"
       id="path62"
       inkscape:connector-curvature="0" /><text
       transform="matrix(1,0,0,-1,128.59,375.24)"
       id="text64"><tspan
         style="font-size:27.95999908px;font-style:normal;font-variant:normal;font-weight:normal;font-stretch:normal;writing-mode:lr-tb;fill:#000000;fill-opacity:1;fill-rule:nonzero;stroke:none;font-family:Arial;-inkscape-font-specification:Arial"
         x="0 18.649321 26.422199 41.96796 56.00388"
         y="0"
         sodipodi:role="line"
         id="tspan66">Stack</tspan></text>
<text
       transform="matrix(1,0,0,-1,499.27,376.87)"
       id="text68"><tspan
         style="font-size:27.95999908px;font-style:normal;font-variant:normal;font-weight:normal;font-stretch:normal;writing-mode:lr-tb;fill:#000000;fill-opacity:1;fill-rule:nonzero;stroke:none;font-family:Arial;-inkscape-font-specification:Arial"
         x="0 20.18712 35.73288 51.278641"
         y="0"
         sodipodi:role="line"
         id="tspan70">Heap</tspan></text>
<path
       d="m 373.63,84 217.75,0 0,40.875 -217.75,0 0,-40.875 z"
       style="fill:#ffff00;fill-opacity:1;fill-rule:evenodd;stroke:none"
       id="path72"
       inkscape:connector-curvature="0" /><path
       d="m 373.63,84 217.75,0 0,40.875 -217.75,0 0,-40.875 z"
       style="fill:none;stroke:#000000;stroke-width:0.75;stroke-linecap:butt;stroke-linejoin:miter;stroke-miterlimit:8;stroke-opacity:1;stroke-dasharray:none"
       id="path74"
       inkscape:connector-curvature="0" /><text
       transform="matrix(1,0,0,-1,402.65,97.248)"
       id="text76"><tspan
         style="font-size:18px;font-variant:normal;font-weight:normal;writing-mode:lr-tb;fill:#000000;fill-opacity:1;fill-rule:nonzero;stroke:none;font-family:Verdana;-inkscape-font-specification:Verdana"
         x="0 13.878 24.587999 35.981998 46.799999 64.314003 69.335999 78.713997 84.690002 102.204 112.932 130.446 141.37199 149.058"
         y="0"
         sodipodi:role="line"
         id="tspan78">Dynamic memory</tspan></text>
<path
       d="m 56.125,84 217.75,0 0,40.875 -217.75,0 0,-40.875 z"
       style="fill:#ffff00;fill-opacity:1;fill-rule:evenodd;stroke:none"
       id="path80"
       inkscape:connector-curvature="0" /><path
       d="m 56.125,84 217.75,0 0,40.875 -217.75,0 0,-40.875 z"
       style="fill:none;stroke:#000000;stroke-width:0.75;stroke-linecap:butt;stroke-linejoin:miter;stroke-miterlimit:8;stroke-opacity:1;stroke-dasharray:none"
       id="path82"
       inkscape:connector-curvature="0" /><text
       transform="matrix(1,0,0,-1,63.624,97.248)"
       id="text84"><tspan
         style="font-size:18px;font-variant:normal;font-weight:normal;writing-mode:lr-tb;fill:#000000;fill-opacity:1;fill-rule:nonzero;stroke:none;font-family:Verdana;-inkscape-font-specification:Verdana"
         x="0 10.35 21.743999 33.138 42.515999 49.608002 54.576 65.501999 76.896004 83.141998 95.706001 106.524 111.564 116.586 122.832 135.918 142.38 154.386 165.114 172.15199 183.54601 191.23199"
         y="0"
         sodipodi:role="line"
         id="tspan86">Function Call &amp; Return</tspan></text>
<text
       transform="matrix(1,0,0,-1,366.38,271.08)"
       id="text88"><tspan
         style="font-size:18px;font-variant:normal;font-weight:normal;writing-mode:lr-tb;fill:#000000;fill-opacity:1;fill-rule:nonzero;stroke:none;font-family:Verdana;-inkscape-font-specification:Verdana"
         x="0 10.314 21.24 26.261999 37.655998 44.748001 55.476002 63.108002"
         y="0"
         sodipodi:role="line"
         id="tspan90">Pointers</tspan></text>
<path
       d="m 508.38,279.34 19.38,21.3 0.74,-0.67 -19.38,-21.31 -0.74,0.68 z m 16.86,22.24 6.26,2.42 -1.82,-6.46 -4.44,4.04 z"
       style="fill:#000000;fill-opacity:1;fill-rule:nonzero;stroke:none"
       id="path92"
       inkscape:connector-curvature="0" /><path
       d="m 590.83,304.2 20.76,-47.67 -0.92,-0.4 -20.75,47.67 0.91,0.4 z m 22.65,-45.75 -0.36,-6.7 -5.14,4.3 5.5,2.4 z"
       style="fill:#000000;fill-opacity:1;fill-rule:nonzero;stroke:none"
       id="path94"
       inkscape:connector-curvature="0" /><path
       d="m 479.62,220.56 36.38,-20.31 -0.48,-0.87 -36.39,20.31 0.49,0.87 z m 36.73,-17.64 3.77,-5.54 -6.7,0.3 2.93,5.24 z"
       style="fill:#000000;fill-opacity:1;fill-rule:nonzero;stroke:none"
       id="path96"
       inkscape:connector-curvature="0" /><path
       d="m 590.04,231.75 19.03,17.04 0.66,-0.75 -19.02,-17.04 -0.67,0.75 z m 16.61,18.23 6.47,1.77 -2.46,-6.24 -4.01,4.47 z"
       style="fill:#000000;fill-opacity:1;fill-rule:nonzero;stroke:none"
       id="path98"
       inkscape:connector-curvature="0" /><path
       d="m 404.69,302.21 40.73,-16.27 -0.37,-0.92 -40.74,16.27 0.38,0.92 z m 40.73,-13.57 4.45,-5.01 -6.68,-0.57 2.23,5.58 z"
       style="fill:#000000;fill-opacity:1;fill-rule:nonzero;stroke:none"
       id="path100"
       inkscape:connector-curvature="0" /><text
       transform="matrix(1,0,0,-1,72.336,251.83)"
       id="text102"><tspan
         style="font-size:18px;font-variant:normal;font-weight:normal;writing-mode:lr-tb;fill:#000000;fill-opacity:1;fill-rule:nonzero;stroke:none;font-family:Verdana;-inkscape-font-specification:Verdana"
         x="0 6.336 14.508"
         y="0"
         sodipodi:role="line"
         id="tspan104">f()</tspan></text>
<text
       transform="matrix(1,0,0,-1,131.35,252.96)"
       id="text106"><tspan
         style="font-size:18px;font-variant:normal;font-weight:normal;writing-mode:lr-tb;fill:#000000;fill-opacity:1;fill-rule:nonzero;stroke:none;font-family:Verdana;-inkscape-font-specification:Verdana"
         x="0 11.16 19.332001"
         y="0"
         sodipodi:role="line"
         id="tspan108">g()</tspan></text>
<text
       transform="matrix(1,0,0,-1,176.74,252.96)"
       id="text110"><tspan
         style="font-size:18px;font-variant:normal;font-weight:normal;writing-mode:lr-tb;fill:#000000;fill-opacity:1;fill-rule:nonzero;stroke:none;font-family:Verdana;-inkscape-font-specification:Verdana"
         x="0 11.394 19.566"
         y="0"
         sodipodi:role="line"
         id="tspan112">h()</tspan></text>
<text
       transform="matrix(1,0,0,-1,217.49,252.96)"
       id="text114"><tspan
         style="font-size:18px;font-variant:normal;font-weight:normal;writing-mode:lr-tb;fill:#000000;fill-opacity:1;fill-rule:nonzero;stroke:none;font-family:Verdana;-inkscape-font-specification:Verdana"
         x="0 10.656 18.827999"
         y="0"
         sodipodi:role="line"
         id="tspan116">k()</tspan></text>
<path
       d="m 74.25,303.25 173.88,0 0,-3 -173.88,0 0,3 z m 172.37,3 9,-4.5 -9,-4.5 0,9 z"
       style="fill:#000000;fill-opacity:1;fill-rule:nonzero;stroke:none"
       id="path118"
       inkscape:connector-curvature="0" /><text
       transform="matrix(1,0,0,-1,49.704,309.1)"
       id="text120"><tspan
         style="font-size:18px;font-variant:normal;font-weight:normal;writing-mode:lr-tb;fill:#000000;fill-opacity:1;fill-rule:nonzero;stroke:none;font-family:Verdana;-inkscape-font-specification:Verdana"
         x="0 6.336 12.6 21.978001 32.796001 37.782001 42.804001 52.181999 58.518002 69.732002 76.283997 82.620003 93.834 100.17 109.548 120.366 125.352 130.37399 139.752 146.088 157.48199 164.07001 170.31599 181.71001 188.04601 197.424 208.242 213.26401 218.286 227.664 233.892"
         y="0"
         sodipodi:role="line"
         id="tspan122">f calls g, g calls h, h calls k</tspan></text>
<path
       d="m 545.12,246.64 6.25,9.73 -0.61,-8.93 7.09,1.46 -2.82,-4.8 7.38,-1.38 -5.86,-3.92 6.7,-4.73 -7.99,0.59 2.19,-8.65 -6.92,6.1 -1.3,-8.86 -4.55,8.06 -3.44,-11.18 -1.29,10.02 -4.96,-3.34 1.52,6.18 -9.28,-1.1 6.02,4.72 -6.25,5.31 7.77,1.67 -7.15,8.93 11.65,-6.75 1.75,6.75 4.1,-5.88 z"
       style="fill:#333399;fill-opacity:1;fill-rule:evenodd;stroke:none"
       id="path124"
       inkscape:connector-curvature="0" /><path
       d="m 545.12,246.64 6.25,9.73 -0.61,-8.93 7.09,1.46 -2.82,-4.8 7.38,-1.38 -5.86,-3.92 6.7,-4.73 -7.99,0.59 2.19,-8.65 -6.92,6.1 -1.3,-8.86 -4.55,8.06 -3.44,-11.18 -1.29,10.02 -4.96,-3.34 1.52,6.18 -9.28,-1.1 6.02,4.72 -6.25,5.31 7.77,1.67 -7.15,8.93 11.65,-6.75 1.75,6.75 4.1,-5.88 z"
       style="fill:none;stroke:#000000;stroke-width:0.75;stroke-linecap:butt;stroke-linejoin:miter;stroke-miterlimit:8;stroke-opacity:1;stroke-dasharray:none"
       id="path126"
       inkscape:connector-curvature="0" /><text
       transform="matrix(1,0,0,-1,384.5,298.34)"
       id="text128"><tspan
         style="font-size:18px;font-variant:normal;font-weight:normal;writing-mode:lr-tb;fill:#000000;fill-opacity:1;fill-rule:nonzero;stroke:none;font-family:Verdana;-inkscape-font-specification:Verdana"
         x="0 10.8"
         y="0"
         sodipodi:role="line"
         id="tspan130">P*</tspan></text>
<g
       id="g132"><g
         id="g134"
         clip-path="url(#clipPath136)"><path
           d="m 570,474 25,0 0,0 37.5,0 87.5,0 0,-31.5 0,0 0,-13.5 0,-9 -87.5,0 L 586.43,246.14 595,420 l -25,0 0,9 0,13.5 0,0 0,31.5 z"
           style="fill:#99ff99;fill-opacity:1;fill-rule:evenodd;stroke:none"
           id="path140"
           inkscape:connector-curvature="0" /></g></g><g
       id="g142"><g
         id="g144"
         clip-path="url(#clipPath146)"><path
           d="m 570,474 25,0 0,0 37.5,0 87.5,0 0,-31.5 0,0 0,-13.5 0,-9 -87.5,0 L 586.43,246.14 595,420 l -25,0 0,9 0,13.5 0,0 0,31.5 z"
           style="fill:none;stroke:#000000;stroke-width:0.75;stroke-linecap:butt;stroke-linejoin:miter;stroke-miterlimit:8;stroke-opacity:1;stroke-dasharray:none"
           id="path150"
           inkscape:connector-curvature="0" /></g></g><text
       transform="matrix(1,0,0,-1,604.7,450.58)"
       id="text152"><tspan
         style="font-size:20.04000092px;font-variant:normal;font-weight:normal;writing-mode:lr-tb;fill:#000000;fill-opacity:1;fill-rule:nonzero;stroke:none;font-family:Verdana;-inkscape-font-specification:Verdana"
         x="0 16.893721 28.837561 48.236279 60.400558 68.87748 80.741158"
         y="0"
         sodipodi:role="line"
         id="tspan154">Memory </tspan></text>
<text
       transform="matrix(1,0,0,-1,617.66,426.58)"
       id="text156"><tspan
         style="font-size:20.04000092px;font-variant:normal;font-weight:normal;writing-mode:lr-tb;fill:#000000;fill-opacity:1;fill-rule:nonzero;stroke:none;font-family:Verdana;-inkscape-font-specification:Verdana"
         x="0 11.16228 23.046 35.090038 46.95372"
         y="0"
         sodipodi:role="line"
         id="tspan158">Leak!</tspan></text>
<path
       d="m 354,360 0,-208.62"
       style="fill:none;stroke:#000000;stroke-width:4.5;stroke-linecap:butt;stroke-linejoin:round;stroke-miterlimit:8;stroke-opacity:1;stroke-dasharray:none"
       id="path160"
       inkscape:connector-curvature="0" /><text
       transform="matrix(1,0,0,-1,319.25,254.45)"
       id="text162"><tspan
         style="font-size:18px;font-variant:normal;font-weight:normal;writing-mode:lr-tb;fill:#000000;fill-opacity:1;fill-rule:nonzero;stroke:none;font-family:Verdana;-inkscape-font-specification:Verdana"
         x="0 6.5999999 13.2"
         y="0"
         sodipodi:role="line"
         id="tspan164">...</tspan></text>
</g></svg>