<?xml version="1.0" encoding="UTF-8" standalone="no"?>
<!-- Created with Inkscape (http://www.inkscape.org/) -->

<svg
   xmlns:dc="http://purl.org/dc/elements/1.1/"
   xmlns:cc="http://creativecommons.org/ns#"
   xmlns:rdf="http://www.w3.org/1999/02/22-rdf-syntax-ns#"
   xmlns:svg="http://www.w3.org/2000/svg"
   xmlns="http://www.w3.org/2000/svg"
   xmlns:sodipodi="http://sodipodi.sourceforge.net/DTD/sodipodi-0.dtd"
   xmlns:inkscape="http://www.inkscape.org/namespaces/inkscape"
   id="svg2985"
   version="1.1"
   inkscape:version="0.48.4 r9939"
   width="898.21252"
   height="561.88477"
   xml:space="preserve"
   sodipodi:docname="memory-diagram.svg"><metadata
     id="metadata2991"><rdf:RDF><cc:Work
         rdf:about=""><dc:format>image/svg+xml</dc:format><dc:type
           rdf:resource="http://purl.org/dc/dcmitype/StillImage" /><dc:title></dc:title></cc:Work></rdf:RDF></metadata><defs
     id="defs2989"><clipPath
       clipPathUnits="userSpaceOnUse"
       id="clipPath2999"><path
         d="m 0,1.2207e-4 720,0 0,539.99999793 -720,0 L 0,1.2207e-4 z"
         clip-rule="evenodd"
         id="path3001"
         inkscape:connector-curvature="0" /></clipPath></defs><sodipodi:namedview
     pagecolor="#ffffff"
     bordercolor="#666666"
     borderopacity="1"
     objecttolerance="10"
     gridtolerance="10"
     guidetolerance="10"
     inkscape:pageopacity="0"
     inkscape:pageshadow="2"
     inkscape:window-width="1280"
     inkscape:window-height="962"
     id="namedview2987"
     showgrid="false"
     fit-margin-top="10"
     fit-margin-left="10"
     fit-margin-right="10"
     fit-margin-bottom="10"
     inkscape:zoom="1.16"
     inkscape:cx="452.75"
     inkscape:cy="296.41605"
     inkscape:window-x="-8"
     inkscape:window-y="-8"
     inkscape:window-maximized="1"
     inkscape:current-layer="g2993" /><g
     id="g2993"
     inkscape:groupmode="layer"
     inkscape:label="todel"
     transform="matrix(1.25,0,0,-1.25,2.75,602.96875)"><rect
       style="fill:#ffffff"
       id="rect3151"
       width="718.56799"
       height="449.504"
       x="-2.2"
       y="-482.37119"
       transform="scale(1,-1)" /><path
       d="m 6.175,168.22 701.82,0 0,198.19 -701.82,0 0,-198.19 z"
       style="fill:#ffff00;fill-opacity:1;fill-rule:evenodd;stroke:none"
       id="path3009"
       inkscape:connector-curvature="0" /><path
       d="m 6.175,168.22 701.82,0 0,198.19 -701.82,0 0,-198.19 z"
       style="fill:none;stroke:#000000;stroke-width:0.75;stroke-linecap:butt;stroke-linejoin:miter;stroke-miterlimit:10;stroke-opacity:1;stroke-dasharray:none"
       id="path3011"
       inkscape:connector-curvature="0" /><path
       d="m 303.95,366.41 0,-198.19"
       style="fill:none;stroke:#000000;stroke-width:4.5;stroke-linecap:butt;stroke-linejoin:round;stroke-miterlimit:10;stroke-opacity:1;stroke-dasharray:none"
       id="path3013"
       inkscape:connector-curvature="0" /><path
       d="m 208.64,366.41 0,-198.19"
       style="fill:none;stroke:#000000;stroke-width:0.75;stroke-linecap:butt;stroke-linejoin:round;stroke-miterlimit:10;stroke-opacity:1;stroke-dasharray:none"
       id="path3015"
       inkscape:connector-curvature="0" /><path
       d="m 165.54,366.41 0,-198.19"
       style="fill:none;stroke:#000000;stroke-width:0.75;stroke-linecap:butt;stroke-linejoin:round;stroke-miterlimit:10;stroke-opacity:1;stroke-dasharray:none"
       id="path3017"
       inkscape:connector-curvature="0" /><path
       d="m 122.55,366.41 0,-198.19"
       style="fill:none;stroke:#000000;stroke-width:0.75;stroke-linecap:butt;stroke-linejoin:round;stroke-miterlimit:10;stroke-opacity:1;stroke-dasharray:none"
       id="path3019"
       inkscape:connector-curvature="0" /><path
       d="m 79.444,366.41 0,-198.19"
       style="fill:none;stroke:#000000;stroke-width:0.75;stroke-linecap:butt;stroke-linejoin:round;stroke-miterlimit:10;stroke-opacity:1;stroke-dasharray:none"
       id="path3021"
       inkscape:connector-curvature="0" /><path
       d="m 387.49,232.82 55.931,0 0,111.98 -55.931,0 0,-111.98 z"
       style="fill:#bbe0e3;fill-opacity:1;fill-rule:evenodd;stroke:none"
       id="path3023"
       inkscape:connector-curvature="0" /><path
       d="m 387.49,232.82 55.931,0 0,111.98 -55.931,0 0,-111.98 z"
       style="fill:none;stroke:#000000;stroke-width:0.75;stroke-linecap:butt;stroke-linejoin:miter;stroke-miterlimit:8;stroke-opacity:1;stroke-dasharray:none"
       id="path3025"
       inkscape:connector-curvature="0" /><path
       d="m 465.03,280.2 55.931,0 0,64.6 -55.931,0 0,-64.6 z"
       style="fill:#bbe0e3;fill-opacity:1;fill-rule:evenodd;stroke:none"
       id="path3027"
       inkscape:connector-curvature="0" /><path
       d="m 465.03,280.2 55.931,0 0,64.6 -55.931,0 0,-64.6 z"
       style="fill:none;stroke:#000000;stroke-width:0.75;stroke-linecap:butt;stroke-linejoin:miter;stroke-miterlimit:8;stroke-opacity:1;stroke-dasharray:none"
       id="path3029"
       inkscape:connector-curvature="0" /><path
       d="m 465.03,232.82 55.931,0 0,21.494 -55.931,0 0,-21.494 z"
       style="fill:#33cc33;fill-opacity:1;fill-rule:evenodd;stroke:none"
       id="path3031"
       inkscape:connector-curvature="0" /><path
       d="m 465.03,232.82 55.931,0 0,21.494 -55.931,0 0,-21.494 z"
       style="fill:none;stroke:#000000;stroke-width:0.75;stroke-linecap:butt;stroke-linejoin:miter;stroke-miterlimit:8;stroke-opacity:1;stroke-dasharray:none"
       id="path3033"
       inkscape:connector-curvature="0" /><path
       d="m 387.49,181.04 133.48,0 0,30.163 -133.48,0 0,-30.163 z"
       style="fill:#bbe0e3;fill-opacity:1;fill-rule:evenodd;stroke:none"
       id="path3035"
       inkscape:connector-curvature="0" /><path
       d="m 387.49,181.04 133.48,0 0,30.163 -133.48,0 0,-30.163 z"
       style="fill:none;stroke:#000000;stroke-width:0.75;stroke-linecap:butt;stroke-linejoin:miter;stroke-miterlimit:8;stroke-opacity:1;stroke-dasharray:none"
       id="path3037"
       inkscape:connector-curvature="0" /><path
       d="m 542.57,181.04 55.931,0 0,163.76 -55.931,0 0,-163.76 z"
       style="fill:#bbe0e3;fill-opacity:1;fill-rule:evenodd;stroke:none"
       id="path3039"
       inkscape:connector-curvature="0" /><path
       d="m 542.57,181.04 55.931,0 0,163.76 -55.931,0 0,-163.76 z"
       style="fill:none;stroke:#000000;stroke-width:0.75;stroke-linecap:butt;stroke-linejoin:miter;stroke-miterlimit:8;stroke-opacity:1;stroke-dasharray:none"
       id="path3041"
       inkscape:connector-curvature="0" /><text
       transform="matrix(1,0,0,-1,120.74,378.65)"
       id="text3043"><tspan
         style="font-size:27.95999908px;font-variant:normal;font-weight:normal;writing-mode:lr-tb;fill:#000000;fill-opacity:1;fill-rule:nonzero;stroke:none;font-family:Helvetica;-inkscape-font-specification:Helvetica"
         x="0 18.649321 26.422199 41.96796 56.00388"
         y="0"
         sodipodi:role="line"
         id="tspan3045">Stack</tspan></text>
<text
       transform="scale(1,-1)"
       id="text3047"
       x="446.42001"
       y="-380.17999"><tspan
         style="font-size:27.95999908px;font-variant:normal;font-weight:normal;writing-mode:lr-tb;fill:#000000;fill-opacity:1;fill-rule:nonzero;stroke:none;font-family:Helvetica;-inkscape-font-specification:Helvetica"
         x="446.42001 466.60712 482.15289 497.69864"
         y="-380.17999"
         sodipodi:role="line"
         id="tspan3049">Heap</tspan></text>
<path
       d="m 346.04,103.5 206.86,0 0,38.831 -206.86,0 0,-38.831 z"
       style="fill:#ffff00;fill-opacity:1;fill-rule:evenodd;stroke:none"
       id="path3051"
       inkscape:connector-curvature="0" /><path
       d="m 346.04,103.5 206.86,0 0,38.831 -206.86,0 0,-38.831 z"
       style="fill:none;stroke:#000000;stroke-width:0.75;stroke-linecap:butt;stroke-linejoin:miter;stroke-miterlimit:8;stroke-opacity:1;stroke-dasharray:none"
       id="path3053"
       inkscape:connector-curvature="0" /><text
       transform="matrix(1,0,0,-1,369.65,115.73)"
       id="text3055"><tspan
         style="font-size:18px;font-variant:normal;font-weight:normal;writing-mode:lr-tb;fill:#000000;fill-opacity:1;fill-rule:nonzero;stroke:none;font-family:Verdana;-inkscape-font-specification:Verdana"
         x="0 13.878 24.587999 35.981998 46.799999 64.314003 69.335999 78.713997 84.690002 102.204 112.932 130.446 141.37199 149.058"
         y="0"
         sodipodi:role="line"
         id="tspan3057">Dynamic memory</tspan></text>
<path
       d="m 43.937,103.5 206.86,0 0,38.831 -206.86,0 0,-38.831 z"
       style="fill:#ffff00;fill-opacity:1;fill-rule:evenodd;stroke:none"
       id="path3059"
       inkscape:connector-curvature="0" /><path
       d="m 43.937,103.5 206.86,0 0,38.831 -206.86,0 0,-38.831 z"
       style="fill:none;stroke:#000000;stroke-width:0.75;stroke-linecap:butt;stroke-linejoin:miter;stroke-miterlimit:8;stroke-opacity:1;stroke-dasharray:none"
       id="path3061"
       inkscape:connector-curvature="0" /><text
       transform="matrix(1,0,0,-1,46.008,115.73)"
       id="text3063"><tspan
         style="font-size:18px;font-variant:normal;font-weight:normal;writing-mode:lr-tb;fill:#000000;fill-opacity:1;fill-rule:nonzero;stroke:none;font-family:Verdana;-inkscape-font-specification:Verdana"
         x="0 10.35 21.743999 33.138 42.515999 49.608002 54.576 65.501999 76.896004 83.141998 95.706001 106.524 111.564 116.586 122.832 135.918 142.38 154.386 165.114 172.15199 183.54601 191.23199"
         y="0"
         sodipodi:role="line"
         id="tspan3065">Function Call &amp; Return</tspan></text>
<text
       transform="scale(1,-1)"
       id="text3067"
       x="308.51001"
       y="-280.14999"><tspan
         style="font-size:18px;font-variant:normal;font-weight:normal;writing-mode:lr-tb;fill:#000000;fill-opacity:1;fill-rule:nonzero;stroke:none;font-family:Verdana;-inkscape-font-specification:Verdana"
         x="308.51001 318.82401 329.75 334.772 346.16599 353.258 363.98599 371.61801"
         y="-280.14999"
         sodipodi:role="line"
         id="tspan3069">Pointers</tspan></text>
<path
       d="m 443.05,289.09 18.25,20.05 0.74,-0.67 -18.25,-20.06 -0.74,0.68 z m 15.72,20.99 6.26,2.42 -1.82,-6.46 -4.44,4.04 z"
       style="fill:#000000;fill-opacity:1;fill-rule:nonzero;stroke:none"
       id="path3071"
       inkscape:connector-curvature="0" /><path
       d="m 521.42,312.7 19.62,-45.05 -0.92,-0.4 -19.62,45.05 0.92,0.4 z m 21.51,-43.14 -0.36,-6.7 -5.14,4.31 5.5,2.39 z"
       style="fill:#000000;fill-opacity:1;fill-rule:nonzero;stroke:none"
       id="path3073"
       inkscape:connector-curvature="0" /><path
       d="m 415.76,233.26 34.34,-19.18 -0.48,-0.87 -34.35,19.17 0.49,0.88 z m 34.69,-16.51 3.77,-5.54 -6.7,0.3 2.93,5.24 z"
       style="fill:#000000;fill-opacity:1;fill-rule:nonzero;stroke:none"
       id="path3075"
       inkscape:connector-curvature="0" /><path
       d="m 520.63,243.88 17.89,16.02 0.66,-0.75 -17.88,-16.02 -0.67,0.75 z m 15.47,17.21 6.47,1.77 -2.46,-6.24 -4.01,4.47 z"
       style="fill:#000000;fill-opacity:1;fill-rule:nonzero;stroke:none"
       id="path3077"
       inkscape:connector-curvature="0" /><path
       d="m 344.57,310.83 38.46,-15.37 -0.37,-0.93 -38.46,15.37 0.37,0.93 z m 38.46,-12.67 4.46,-5.02 -6.69,-0.56 2.23,5.58 z"
       style="fill:#000000;fill-opacity:1;fill-rule:nonzero;stroke:none"
       id="path3079"
       inkscape:connector-curvature="0" /><text
       transform="matrix(1,0,0,-1,34.872,261.86)"
       id="text3081"><tspan
         style="font-size:18px;font-variant:normal;font-weight:normal;writing-mode:lr-tb;fill:#000000;fill-opacity:1;fill-rule:nonzero;stroke:none;font-family:Verdana;-inkscape-font-specification:Verdana"
         x="0 6.336 14.508"
         y="0"
         sodipodi:role="line"
         id="tspan3083">f()</tspan></text>
<text
       transform="matrix(1,0,0,-1,90.936,262.92)"
       id="text3085"><tspan
         style="font-size:18.02400017px;font-variant:normal;font-weight:normal;writing-mode:lr-tb;fill:#000000;fill-opacity:1;fill-rule:nonzero;stroke:none;font-family:Verdana;-inkscape-font-specification:Verdana"
         x="0 11.156856 19.339752"
         y="0"
         sodipodi:role="line"
         id="tspan3087">g()</tspan></text>
<text
       transform="matrix(1,0,0,-1,134.04,262.92)"
       id="text3089"><tspan
         style="font-size:18.02400017px;font-variant:normal;font-weight:normal;writing-mode:lr-tb;fill:#000000;fill-opacity:1;fill-rule:nonzero;stroke:none;font-family:Verdana;-inkscape-font-specification:Verdana"
         x="0 11.409192 19.592089"
         y="0"
         sodipodi:role="line"
         id="tspan3091">h()</tspan></text>
<text
       transform="matrix(1,0,0,-1,172.78,262.92)"
       id="text3093"><tspan
         style="font-size:18.02400017px;font-variant:normal;font-weight:normal;writing-mode:lr-tb;fill:#000000;fill-opacity:1;fill-rule:nonzero;stroke:none;font-family:Verdana;-inkscape-font-specification:Verdana"
         x="0 10.670208 18.853104"
         y="0"
         sodipodi:role="line"
         id="tspan3095">k()</tspan></text>
<path
       d="m 36.337,311.86 164.803,0 0,-3 -164.803,0 0,3 z m 163.303,3 9,-4.5 -9,-4.5 0,9 z"
       style="fill:#000000;fill-opacity:1;fill-rule:nonzero;stroke:none"
       id="path3097"
       inkscape:connector-curvature="0" /><text
       transform="matrix(1,0,0,-1,13.368,316.27)"
       id="text3099"><tspan
         style="font-size:18px;font-variant:normal;font-weight:normal;writing-mode:lr-tb;fill:#000000;fill-opacity:1;fill-rule:nonzero;stroke:none;font-family:Verdana;-inkscape-font-specification:Verdana"
         x="0 6.336 12.6 21.978001 32.796001 37.782001 42.804001 52.181999 58.518002 69.732002 76.283997 82.620003 93.834 100.17 109.548 120.366 125.352 130.37399 139.752 146.088 157.48199 164.07001 170.31599 181.71001 188.04601 197.424 208.242 213.26401 218.286 227.664 233.892"
         y="0"
         sodipodi:role="line"
         id="tspan3101">f calls g, g calls h, h calls k</tspan></text>
<path
       d="m 477.98,258.01 5.93,9.25 -0.59,-8.49 6.74,1.38 -2.68,-4.56 7.01,-1.31 -5.56,-3.72 6.36,-4.49 -7.59,0.55 2.09,-8.21 -6.58,5.8 -1.23,-8.42 -4.33,7.65 -3.27,-10.62 -1.22,9.52 -4.71,-3.17 1.44,5.87 -8.82,-1.04 5.72,4.48 -5.93,5.04 7.37,1.59 -6.78,8.49 11.06,-6.42 1.66,6.42 3.91,-5.59 z"
       style="fill:#333399;fill-opacity:1;fill-rule:evenodd;stroke:none"
       id="path3103"
       inkscape:connector-curvature="0" /><path
       d="m 477.98,258.01 5.93,9.25 -0.59,-8.49 6.74,1.38 -2.68,-4.56 7.01,-1.31 -5.56,-3.72 6.36,-4.49 -7.59,0.55 2.09,-8.21 -6.58,5.8 -1.23,-8.42 -4.33,7.65 -3.27,-10.62 -1.22,9.52 -4.71,-3.17 1.44,5.87 -8.82,-1.04 5.72,4.48 -5.93,5.04 7.37,1.59 -6.78,8.49 11.06,-6.42 1.66,6.42 3.91,-5.59 z"
       style="fill:none;stroke:#000000;stroke-width:0.75;stroke-linecap:butt;stroke-linejoin:miter;stroke-miterlimit:8;stroke-opacity:1;stroke-dasharray:none"
       id="path3105"
       inkscape:connector-curvature="0" /><text
       transform="scale(1,-1)"
       id="text3107"
       x="325.73999"
       y="-306.04999"><tspan
         style="font-size:18px;font-variant:normal;font-weight:normal;writing-mode:lr-tb;fill:#000000;fill-opacity:1;fill-rule:nonzero;stroke:none;font-family:Verdana;-inkscape-font-specification:Verdana"
         x="325.73999 336.54001"
         y="-306.04999"
         sodipodi:role="line"
         id="tspan3109">P*</tspan></text>
<path
       d="m 542.4,474 23.75,0 0,0 35.62,0 83.13,0 0,-39.9 0,0 0,-17.1 0,-11.4 -83.13,0 -90.84,-152.71 55.22,152.71 -23.75,0 0,11.4 0,17.1 0,0 0,39.9 z"
       style="fill:#99ff99;fill-opacity:1;fill-rule:evenodd;stroke:none"
       id="path3111"
       inkscape:connector-curvature="0" /><path
       d="m 542.4,474 23.75,0 0,0 35.62,0 83.13,0 0,-39.9 0,0 0,-17.1 0,-11.4 -83.13,0 -90.84,-152.71 55.22,152.71 -23.75,0 0,11.4 0,17.1 0,0 0,39.9 z"
       style="fill:none;stroke:#000000;stroke-width:0.75;stroke-linecap:butt;stroke-linejoin:miter;stroke-miterlimit:8;stroke-opacity:1;stroke-dasharray:none"
       id="path3113"
       inkscape:connector-curvature="0" /><text
       transform="scale(1,-1)"
       id="text3115"
       x="573.38"
       y="-450.57999"><tspan
         style="font-size:20.04000092px;font-variant:normal;font-weight:normal;writing-mode:lr-tb;fill:#000000;fill-opacity:1;fill-rule:nonzero;stroke:none;font-family:Verdana;-inkscape-font-specification:Verdana"
         x="573.38 590.27374 602.21759 621.61633 633.78058 642.25751 654.12115"
         y="-450.57999"
         sodipodi:role="line"
         id="tspan3117">Memory </tspan></text>
<text
       transform="scale(1,-1)"
       id="text3119"
       x="586.34003"
       y="-426.57999"><tspan
         style="font-size:20.04000092px;font-variant:normal;font-weight:normal;writing-mode:lr-tb;fill:#000000;fill-opacity:1;fill-rule:nonzero;stroke:none;font-family:Verdana;-inkscape-font-specification:Verdana"
         x="586.34003 597.50232 609.38605 621.43005 633.29376"
         y="-426.57999"
         sodipodi:role="line"
         id="tspan3121">Leak!</tspan></text>
<path
       d="m 614.13,365.7 0,-198.19"
       style="fill:none;stroke:#000000;stroke-width:4.5;stroke-linecap:butt;stroke-linejoin:round;stroke-miterlimit:8;stroke-opacity:1;stroke-dasharray:none"
       id="path3123"
       inkscape:connector-curvature="0" /><text
       transform="scale(1,-1)"
       id="text3125"
       x="630"
       y="-264.35999"><tspan
         style="font-size:18px;font-variant:normal;font-weight:normal;writing-mode:lr-tb;fill:#000000;fill-opacity:1;fill-rule:nonzero;stroke:none;font-family:Verdana;-inkscape-font-specification:Verdana"
         x="630 641.21405 646.20001 657.59399 668.41205 676.09802"
         y="-264.35999"
         sodipodi:role="line"
         id="tspan3127">binary</tspan></text>
<text
       transform="scale(1,-1)"
       id="text3129"
       x="620.16003"
       y="-242.75999"><tspan
         style="font-size:18px;font-variant:normal;font-weight:normal;writing-mode:lr-tb;fill:#000000;fill-opacity:1;fill-rule:nonzero;stroke:none;font-family:Verdana;-inkscape-font-specification:Verdana"
         x="620.16003 631.37402 639.06 649.98602 661.20001 668.47205 679.29004"
         y="-242.75999"
         sodipodi:role="line"
         id="tspan3131">program</tspan></text>
<path
       d="m 264,365.7 0,-198.19"
       style="fill:none;stroke:#000000;stroke-width:4.5;stroke-linecap:butt;stroke-linejoin:round;stroke-miterlimit:8;stroke-opacity:1;stroke-dasharray:none"
       id="path3133"
       inkscape:connector-curvature="0" /><text
       transform="matrix(1,0,0,-1,275.33,264.36)"
       id="text3135"><tspan
         style="font-size:18px;font-variant:normal;font-weight:normal;writing-mode:lr-tb;fill:#000000;fill-opacity:1;fill-rule:nonzero;stroke:none;font-family:Verdana;-inkscape-font-specification:Verdana"
         x="0 6.5999999 13.2"
         y="0"
         sodipodi:role="line"
         id="tspan3137">...</tspan></text>
<text
       transform="matrix(0,-1,-1,0,6.528,153.22)"
       id="text3139"><tspan
         style="font-size:20.04000092px;font-variant:normal;font-weight:normal;writing-mode:lr-tb;fill:#000000;fill-opacity:1;fill-rule:nonzero;stroke:none;font-family:Verdana;-inkscape-font-specification:Verdana"
         x="0"
         y="0"
         id="tspan3141">0</tspan></text>
<text
       transform="matrix(0,-1,-1,0,6.528,140.5)"
       id="text3143"><tspan
         style="font-size:20.04000092px;font-variant:normal;font-weight:normal;writing-mode:lr-tb;fill:#000000;fill-opacity:1;fill-rule:nonzero;stroke:none;font-family:Verdana;-inkscape-font-specification:Verdana"
         x="0 11.86368 18.917761 26.011921 33.066002 40.120079 47.23428 54.18816 61.242241"
         y="0"
         sodipodi:role="line"
         id="tspan3145">xffffffff</tspan></text>
<text
       transform="matrix(0,-1,-1,0,0,0)"
       id="text3147"
       x="-153.22"
       y="-690.49988"><tspan
         style="font-size:18px;font-variant:normal;font-weight:normal;writing-mode:lr-tb;fill:#000000;fill-opacity:1;fill-rule:nonzero;stroke:none;font-family:Verdana;-inkscape-font-specification:Verdana"
         x="-153.22 -141.772 -131.116 -119.74 -108.292 -96.933998 -85.486 -74.127998 -62.625999 -51.124001"
         y="-690.49988"
         sodipodi:role="line"
         id="tspan3149">0x00000000</tspan></text>
</g></svg>