<?xml version="1.0" encoding="UTF-8" standalone="no"?>
<!-- Created with Inkscape (http://www.inkscape.org/) -->

<svg
   xmlns:dc="http://purl.org/dc/elements/1.1/"
   xmlns:cc="http://creativecommons.org/ns#"
   xmlns:rdf="http://www.w3.org/1999/02/22-rdf-syntax-ns#"
   xmlns:svg="http://www.w3.org/2000/svg"
   xmlns="http://www.w3.org/2000/svg"
   xmlns:sodipodi="http://sodipodi.sourceforge.net/DTD/sodipodi-0.dtd"
   xmlns:inkscape="http://www.inkscape.org/namespaces/inkscape"
   id="svg2"
   version="1.1"
   inkscape:version="0.48.2 r9819"
   width="816.5"
   height="123.43095"
   xml:space="preserve"
   sodipodi:docname="compression-diagram.svg"><metadata
     id="metadata8"><rdf:RDF><cc:Work
         rdf:about=""><dc:format>image/svg+xml</dc:format><dc:type
           rdf:resource="http://purl.org/dc/dcmitype/StillImage" /><dc:title /></cc:Work></rdf:RDF></metadata><defs
     id="defs6"><marker
       inkscape:stockid="Arrow1Lend"
       orient="auto"
       refY="0"
       refX="0"
       id="Arrow1Lend"
       style="overflow:visible"><path
         id="path3950"
         d="M 0,0 5,-5 -12.5,0 5,5 0,0 z"
         style="fill-rule:evenodd;stroke:#000000;stroke-width:1pt"
         transform="matrix(-0.8,0,0,-0.8,-10,0)"
         inkscape:connector-curvature="0" /></marker><clipPath
       clipPathUnits="userSpaceOnUse"
       id="clipPath16"><path
         d="m 0,1.2207e-4 720,0 0,539.99999793 -720,0 L 0,1.2207e-4 z"
         clip-rule="evenodd"
         id="path18"
         inkscape:connector-curvature="0" /></clipPath></defs><sodipodi:namedview
     pagecolor="#ffffff"
     bordercolor="#666666"
     borderopacity="1"
     objecttolerance="10"
     gridtolerance="10"
     guidetolerance="10"
     inkscape:pageopacity="0"
     inkscape:pageshadow="2"
     inkscape:window-width="2560"
     inkscape:window-height="1552"
     id="namedview4"
     showgrid="false"
     fit-margin-top="10"
     fit-margin-left="10"
     fit-margin-right="10"
     fit-margin-bottom="10"
     showguides="true"
     inkscape:guide-bbox="true"
     inkscape:zoom="1.4001222"
     inkscape:cx="409.91666"
     inkscape:cy="57.142903"
     inkscape:window-x="0"
     inkscape:window-y="0"
     inkscape:window-maximized="1"
     inkscape:current-layer="g10"><sodipodi:guide
       orientation="0,1"
       position="160.75,55.00002"
       id="guide4389" /></sodipodi:namedview><g
     id="g10"
     inkscape:groupmode="layer"
     inkscape:label="todel"
     transform="matrix(1.25,0,0,-1.25,-40.916667,539.68096)"><rect
   style="fill:#ffffff;fill-opacity:1;stroke:none"
   id="rect4964"
   width="653.20001"
   height="98.744003"
   x="32.733334"
   y="-431.74402"
   transform="scale(1,-1)" /><path
   d="m 132,342 138,0 0,72 -138,0 0,-72 z"
   style="fill:none;stroke:#000000;stroke-width:2;stroke-linecap:butt;stroke-linejoin:miter;stroke-miterlimit:10;stroke-opacity:1;stroke-dasharray:none"
   id="path158"
   inkscape:connector-curvature="0" /><text
   transform="matrix(1,0,0,-1,157.27,373.7)"
   id="text160"><tspan
     style="font-size:18.02400017000000076px;font-variant:normal;font-weight:normal;writing-mode:lr-tb;fill:#000000;fill-opacity:1;fill-rule:nonzero;stroke:none;font-family:Arial;-inkscape-font-specification:Arial;font-style:normal;font-stretch:normal"
     x="0 12.022008 23.034672 33.001945 44.014606 55.06332 65.030594"
     y="0"
     sodipodi:role="line"
     id="tspan162">Encoder</tspan></text>

<path
   d="m 402,342 138,0 0,72 -138,0 0,-72 z"
   style="fill:none;stroke:#000000;stroke-width:2;stroke-linecap:butt;stroke-linejoin:miter;stroke-miterlimit:10;stroke-opacity:1;stroke-dasharray:none"
   id="path164"
   inkscape:connector-curvature="0" /><text
   transform="matrix(1,0,0,-1,427.32,374.83)"
   id="text166"><tspan
     style="font-size:18px;font-variant:normal;font-weight:normal;writing-mode:lr-tb;fill:#000000;fill-opacity:1;fill-rule:nonzero;stroke:none;font-family:Arial;-inkscape-font-specification:Arial;font-style:normal;font-stretch:normal"
     x="0 12.996 22.914 32.922001 43.919998 54.917999 64.926003"
     y="0"
     sodipodi:role="line"
     id="tspan168">Decoder</tspan></text>

<text
   transform="matrix(1,0,0,-1,78.432,386.83)"
   id="text176"><tspan
     style="font-size:18.02400017px;font-variant:normal;font-weight:normal;writing-mode:lr-tb;fill:#000000;fill-opacity:1;fill-rule:nonzero;stroke:none;font-family:Arial Black;-inkscape-font-specification:Arial"
     x="0"
     y="0"
     id="tspan178">X</tspan></text>

<text
   transform="matrix(1,0,0,-1,324.48,386.83)"
   id="text180"><tspan
     style="font-size:18.02400017px;font-variant:normal;font-weight:normal;writing-mode:lr-tb;fill:#000000;fill-opacity:1;fill-rule:nonzero;stroke:none;font-family:Arial Black;-inkscape-font-specification:Arial"
     x="0"
     y="0"
     id="tspan182">Y</tspan></text>

<text
   transform="matrix(1,0,0,-1,591.5,386.83)"
   id="text184"><tspan
     style="font-size:18.02400017px;font-variant:normal;font-weight:normal;writing-mode:lr-tb;fill:#000000;fill-opacity:1;fill-rule:nonzero;stroke:none;font-family:Arial Black;-inkscape-font-specification:Arial"
     x="0 12.000008"
     y="0"
     sodipodi:role="line"
     id="tspan186">X’</tspan></text>

<text
   transform="matrix(1,0,0,-1,49.248,409.73)"
   id="text188"><tspan
     style="font-size:18px;font-variant:normal;font-weight:normal;writing-mode:lr-tb;fill:#000000;fill-opacity:1;fill-rule:nonzero;stroke:none;font-family:Arial;-inkscape-font-specification:Arial;font-style:normal;font-stretch:normal"
     x="0 10.998 18 23.004 34.056 39.060001 50.112 60.119999"
     y="0"
     sodipodi:role="line"
     id="tspan190">original</tspan></text>

<text
   transform="matrix(1,0,0,-1,282.79,410.86)"
   id="text192"><tspan
     style="font-size:18px;font-variant:normal;font-weight:normal;writing-mode:lr-tb;fill:#000000;fill-opacity:1;fill-rule:nonzero;stroke:none;font-family:Arial;-inkscape-font-specification:Arial"
     x="0 10.008 21.006001 37.007999 48.006001 55.007999 64.926003 74.933998 84.851997 94.860001"
     y="0"
     sodipodi:role="line"
     id="tspan194">compressed</tspan></text>

<text
   transform="matrix(1,0,0,-1,547.34,410.86)"
   id="text196"><tspan
     style="font-size:18px;font-variant:normal;font-weight:normal;writing-mode:lr-tb;fill:#000000;fill-opacity:1;fill-rule:nonzero;stroke:none;font-family:Arial;-inkscape-font-specification:Arial"
     x="0 10.998 21.006001 30.959999 41.958 57.959999 68.958 75.959999 85.968002 95.886002 105.894 115.812"
     y="0"
     sodipodi:role="line"
     id="tspan198">decompressed</tspan></text>

<path
   style="fill:none;stroke:#000000;stroke-width:1.5;stroke-linecap:butt;stroke-linejoin:miter;stroke-miterlimit:4;stroke-opacity:1;stroke-dasharray:none;marker-end:url(#Arrow1Lend)"
   d="m -0.83333333,58.430946 111.66666333,0"
   id="path4391"
   inkscape:connector-curvature="0"
   transform="matrix(0.8,0,0,-0.8,42,423.74477)" /><path
   style="fill:none;stroke:#000000;stroke-width:1.5;stroke-linecap:butt;stroke-linejoin:miter;stroke-miterlimit:4;stroke-opacity:1;stroke-dasharray:none;marker-end:url(#Arrow1Lend)"
   d="m 285.83333,58.430946 163.33334,0"
   id="path4577"
   inkscape:connector-curvature="0"
   transform="matrix(0.8,0,0,-0.8,42,423.74477)" /><path
   style="fill:none;stroke:#000000;stroke-width:1.5;stroke-linecap:butt;stroke-linejoin:miter;stroke-miterlimit:4;stroke-opacity:1;stroke-dasharray:none;marker-end:url(#Arrow1Lend)"
   d="m 622.5,58.430946 171.66667,0"
   id="path4579"
   inkscape:connector-curvature="0"
   transform="matrix(0.8,0,0,-0.8,42,423.74477)" /></g></svg>