<?xml version="1.0" encoding="UTF-8" standalone="no"?>
<!DOCTYPE svg PUBLIC "-//W3C//DTD SVG 1.1//EN"
 "http://www.w3.org/Graphics/SVG/1.1/DTD/svg11.dtd">
<!-- Generated by graphviz version 2.36.0 (20140111.2315)
 -->
<!-- Title: G Pages: 1 -->
<svg width="372pt" height="188pt"
 viewBox="0.00 0.00 372.00 188.00" xmlns="http://www.w3.org/2000/svg" xmlns:xlink="http://www.w3.org/1999/xlink">
<g id="graph0" class="graph" transform="scale(1 1) rotate(0) translate(4 184)">
<title>G</title>
<polygon fill="white" stroke="none" points="-4,4 -4,-184 368,-184 368,4 -4,4"/>
<!-- cs3330 -->
<g id="node1" class="node"><title>cs3330</title>
<ellipse fill="none" stroke="black" cx="230" cy="-162" rx="38.4949" ry="18"/>
<text text-anchor="middle" x="230" y="-158.3" font-family="Helvetica,sans-Serif" font-size="14.00">cs3330</text>
</g>
<!-- cs4414 -->
<g id="node6" class="node"><title>cs4414</title>
<ellipse fill="none" stroke="black" cx="326" cy="-90" rx="38.4949" ry="18"/>
<text text-anchor="middle" x="326" y="-86.3" font-family="Helvetica,sans-Serif" font-size="14.00">cs4414</text>
</g>
<!-- cs3330&#45;&gt;cs4414 -->
<g id="edge4" class="edge"><title>cs3330&#45;&gt;cs4414</title>
<path fill="none" stroke="black" d="M249.891,-146.496C263.793,-136.359 282.551,-122.681 297.966,-111.441"/>
<polygon fill="black" stroke="black" points="300.116,-114.205 306.134,-105.485 295.992,-108.549 300.116,-114.205"/>
</g>
<!-- cs1110 -->
<g id="node2" class="node"><title>cs1110</title>
<ellipse fill="none" stroke="black" cx="38" cy="-90" rx="38.4949" ry="18"/>
<text text-anchor="middle" x="38" y="-86.3" font-family="Helvetica,sans-Serif" font-size="14.00">cs1110</text>
</g>
<!-- cs2102 -->
<g id="node3" class="node"><title>cs2102</title>
<ellipse fill="none" stroke="black" cx="134" cy="-18" rx="38.4949" ry="18"/>
<text text-anchor="middle" x="134" y="-14.3" font-family="Helvetica,sans-Serif" font-size="14.00">cs2102</text>
</g>
<!-- cs1110&#45;&gt;cs2102 -->
<g id="edge1" class="edge"><title>cs1110&#45;&gt;cs2102</title>
<path fill="none" stroke="black" d="M57.8913,-74.496C71.7929,-64.3594 90.5512,-50.6814 105.966,-39.4412"/>
<polygon fill="black" stroke="black" points="108.116,-42.2053 114.134,-33.4855 103.992,-36.5492 108.116,-42.2053"/>
</g>
<!-- cs2110 -->
<g id="node5" class="node"><title>cs2110</title>
<ellipse fill="none" stroke="black" cx="134" cy="-90" rx="38.4949" ry="18"/>
<text text-anchor="middle" x="134" y="-86.3" font-family="Helvetica,sans-Serif" font-size="14.00">cs2110</text>
</g>
<!-- cs1110&#45;&gt;cs2110 -->
<g id="edge5" class="edge"><title>cs1110&#45;&gt;cs2110</title>
<path fill="none" stroke="black" d="M76.625,-90C79.5666,-90 82.5082,-90 85.4498,-90"/>
<polygon fill="black" stroke="black" points="85.4512,-93.5001 95.4512,-90 85.4511,-86.5001 85.4512,-93.5001"/>
</g>
<!-- cs2150 -->
<g id="node4" class="node"><title>cs2150</title>
<ellipse fill="none" stroke="black" cx="230" cy="-90" rx="38.4949" ry="18"/>
<text text-anchor="middle" x="230" y="-86.3" font-family="Helvetica,sans-Serif" font-size="14.00">cs2150</text>
</g>
<!-- cs2102&#45;&gt;cs2150 -->
<g id="edge2" class="edge"><title>cs2102&#45;&gt;cs2150</title>
<path fill="none" stroke="black" d="M153.866,-33.4855C167.761,-43.6177 186.519,-57.295 201.938,-68.5382"/>
<polygon fill="black" stroke="black" points="199.967,-71.4322 210.109,-74.496 204.091,-65.7762 199.967,-71.4322"/>
</g>
<!-- cs2150&#45;&gt;cs4414 -->
<g id="edge7" class="edge"><title>cs2150&#45;&gt;cs4414</title>
<path fill="none" stroke="black" d="M268.625,-90C271.567,-90 274.508,-90 277.45,-90"/>
<polygon fill="black" stroke="black" points="277.451,-93.5001 287.451,-90 277.451,-86.5001 277.451,-93.5001"/>
</g>
<!-- cs2110&#45;&gt;cs3330 -->
<g id="edge3" class="edge"><title>cs2110&#45;&gt;cs3330</title>
<path fill="none" stroke="black" d="M153.866,-105.485C167.761,-115.618 186.519,-129.295 201.938,-140.538"/>
<polygon fill="black" stroke="black" points="199.967,-143.432 210.109,-146.496 204.091,-137.776 199.967,-143.432"/>
</g>
<!-- cs2110&#45;&gt;cs2150 -->
<g id="edge6" class="edge"><title>cs2110&#45;&gt;cs2150</title>
<path fill="none" stroke="black" d="M172.625,-90C175.567,-90 178.508,-90 181.45,-90"/>
<polygon fill="black" stroke="black" points="181.451,-93.5001 191.451,-90 181.451,-86.5001 181.451,-93.5001"/>
</g>
</g>
</svg>
