<?xml version="1.0" encoding="UTF-8" standalone="no"?>
<!-- Created with Inkscape (http://www.inkscape.org/) -->

<svg
   xmlns:dc="http://purl.org/dc/elements/1.1/"
   xmlns:cc="http://creativecommons.org/ns#"
   xmlns:rdf="http://www.w3.org/1999/02/22-rdf-syntax-ns#"
   xmlns:svg="http://www.w3.org/2000/svg"
   xmlns="http://www.w3.org/2000/svg"
   xmlns:sodipodi="http://sodipodi.sourceforge.net/DTD/sodipodi-0.dtd"
   xmlns:inkscape="http://www.inkscape.org/namespaces/inkscape"
   id="svg2"
   version="1.1"
   inkscape:version="0.48.3.1 r9886"
   width="660.61761"
   height="498.89682"
   xml:space="preserve"
   sodipodi:docname="x86-registers.svg"><metadata
     id="metadata8"><rdf:RDF><cc:Work
         rdf:about=""><dc:format>image/svg+xml</dc:format><dc:type
           rdf:resource="http://purl.org/dc/dcmitype/StillImage" /><dc:title></dc:title></cc:Work></rdf:RDF></metadata><defs
     id="defs6" /><sodipodi:namedview
     pagecolor="#ffffff"
     bordercolor="#666666"
     borderopacity="1"
     objecttolerance="10"
     gridtolerance="10"
     guidetolerance="10"
     inkscape:pageopacity="0"
     inkscape:pageshadow="2"
     inkscape:window-width="1280"
     inkscape:window-height="969"
     id="namedview4"
     showgrid="false"
     fit-margin-top="10"
     fit-margin-left="10"
     fit-margin-right="10"
     fit-margin-bottom="10"
     inkscape:zoom="3"
     inkscape:cx="276.05773"
     inkscape:cy="491.00447"
     inkscape:window-x="-3"
     inkscape:window-y="-3"
     inkscape:window-maximized="1"
     inkscape:current-layer="g10" /><g
     id="g10"
     inkscape:groupmode="layer"
     inkscape:label="x86-doc-orig"
     transform="matrix(1.25,0,0,-1.25,-82.145587,545.85932)"><path
       d="m 218.07647,297.93 18,18 0,36 -18,-18 0,-36 z"
       style="fill:#c0c0c0;fill-opacity:1;fill-rule:nonzero;stroke:#000000;stroke-width:0.72000003;stroke-linecap:round;stroke-linejoin:round;stroke-miterlimit:10;stroke-opacity:1;stroke-dasharray:none"
       id="path94"
       inkscape:connector-curvature="0" /><path
       d="m 74.07647,333.93 144,0 18,18 -144,0 -18,-18 z"
       style="fill:#c0c0c0;fill-opacity:1;fill-rule:nonzero;stroke:#000000;stroke-width:0.72000003;stroke-linecap:round;stroke-linejoin:round;stroke-miterlimit:10;stroke-opacity:1;stroke-dasharray:none"
       id="path96"
       inkscape:connector-curvature="0" /><path
       d="m 74.07647,297.93 144,0 0,36 -144,0 0,-36 z"
       style="fill:#ffffff;fill-opacity:1;fill-rule:nonzero;stroke:#000000;stroke-width:0.72000003;stroke-linecap:round;stroke-linejoin:round;stroke-miterlimit:10;stroke-opacity:1;stroke-dasharray:none"
       id="path98"
       inkscape:connector-curvature="0" /><path
       d="m 218.07647,189.93 18,18 0,36 -18,-18 0,-36 z"
       style="fill:#c0c0c0;fill-opacity:1;fill-rule:nonzero;stroke:#000000;stroke-width:0.72000003;stroke-linecap:round;stroke-linejoin:round;stroke-miterlimit:10;stroke-opacity:1;stroke-dasharray:none"
       id="path100"
       inkscape:connector-curvature="0" /><path
       d="m 74.07647,189.93 144,0 0,36 -144,0 0,-36 z"
       style="fill:#ffffff;fill-opacity:1;fill-rule:nonzero;stroke:#000000;stroke-width:0.72000003;stroke-linecap:round;stroke-linejoin:round;stroke-miterlimit:10;stroke-opacity:1;stroke-dasharray:none"
       id="path102"
       inkscape:connector-curvature="0" /><path
       d="m 218.07647,225.93 18,18 0,36 -18,-18 0,-36 z"
       style="fill:#c0c0c0;fill-opacity:1;fill-rule:nonzero;stroke:#000000;stroke-width:0.72000003;stroke-linecap:round;stroke-linejoin:round;stroke-miterlimit:10;stroke-opacity:1;stroke-dasharray:none"
       id="path104"
       inkscape:connector-curvature="0" /><path
       d="m 74.07647,225.93 144,0 0,36 -144,0 0,-36 z"
       style="fill:#ffffff;fill-opacity:1;fill-rule:nonzero;stroke:#000000;stroke-width:0.72000003;stroke-linecap:round;stroke-linejoin:round;stroke-miterlimit:10;stroke-opacity:1;stroke-dasharray:none"
       id="path106"
       inkscape:connector-curvature="0" /><path
       d="m 218.07647,261.93 18,18 0,36 -18,-18 0,-36 z"
       style="fill:#c0c0c0;fill-opacity:1;fill-rule:nonzero;stroke:#000000;stroke-width:0.72000003;stroke-linecap:round;stroke-linejoin:round;stroke-miterlimit:10;stroke-opacity:1;stroke-dasharray:none"
       id="path108"
       inkscape:connector-curvature="0" /><path
       d="m 74.07647,261.93 144,0 0,36 -144,0 0,-36 z"
       style="fill:#ffffff;fill-opacity:1;fill-rule:nonzero;stroke:#000000;stroke-width:0.72000003;stroke-linecap:round;stroke-linejoin:round;stroke-miterlimit:10;stroke-opacity:1;stroke-dasharray:none"
       id="path110"
       inkscape:connector-curvature="0" /><path
       d="m 290.07647,261.93 18.12,18 0,36 -18.12,-18 0,-36 z"
       style="fill:#c0c0c0;fill-opacity:1;fill-rule:nonzero;stroke:#000000;stroke-width:0.72000003;stroke-linecap:round;stroke-linejoin:round;stroke-miterlimit:10;stroke-opacity:1;stroke-dasharray:none"
       id="path112"
       inkscape:connector-curvature="0" /><path
       d="m 218.07647,261.93 72,0 0,36 -72,0 0,-36 z"
       style="fill:#ffffff;fill-opacity:1;fill-rule:nonzero;stroke:#000000;stroke-width:0.72000003;stroke-linecap:round;stroke-linejoin:round;stroke-miterlimit:10;stroke-opacity:1;stroke-dasharray:none"
       id="path114"
       inkscape:connector-curvature="0" /><text
       transform="scale(0.99849054,-1.0015117)"
       id="text116"
       x="246.04787"
       y="-275.9129"
       style="font-size:23.96377373px"><tspan
         style="font-size:11.98188686px;font-style:normal;font-variant:normal;font-weight:normal;font-stretch:normal;writing-mode:lr-tb;fill:#000000;fill-opacity:1;fill-rule:nonzero;stroke:none;font-family:Arial;-inkscape-font-specification:Arial"
         x="246.04787 254.03979"
         y="-275.9129"
         sodipodi:role="line"
         id="tspan118">BH</tspan></text>
<path
       d="m 290.07647,225.93 18.12,18 0,36 -18.12,-18 0,-36 z"
       style="fill:#c0c0c0;fill-opacity:1;fill-rule:nonzero;stroke:#000000;stroke-width:0.72000003;stroke-linecap:round;stroke-linejoin:round;stroke-miterlimit:10;stroke-opacity:1;stroke-dasharray:none"
       id="path120"
       inkscape:connector-curvature="0" /><path
       d="m 218.07647,225.93 72,0 0,36 -72,0 0,-36 z"
       style="fill:#ffffff;fill-opacity:1;fill-rule:nonzero;stroke:#000000;stroke-width:0.72000003;stroke-linecap:round;stroke-linejoin:round;stroke-miterlimit:10;stroke-opacity:1;stroke-dasharray:none"
       id="path122"
       inkscape:connector-curvature="0" /><text
       transform="scale(0.99849054,-1.0015117)"
       id="text124"
       x="245.80751"
       y="-239.96722"
       style="font-size:23.96377373px"><tspan
         style="font-size:11.98188686px;font-style:normal;font-variant:normal;font-weight:normal;font-stretch:normal;writing-mode:lr-tb;fill:#000000;fill-opacity:1;fill-rule:nonzero;stroke:none;font-family:Arial;-inkscape-font-specification:Arial"
         x="245.80751 254.45844"
         y="-239.96722"
         sodipodi:role="line"
         id="tspan126">CH</tspan></text>
<path
       d="m 290.07647,189.93 18.12,18 0,36 -18.12,-18 0,-36 z"
       style="fill:#c0c0c0;fill-opacity:1;fill-rule:nonzero;stroke:#000000;stroke-width:0.72000003;stroke-linecap:round;stroke-linejoin:round;stroke-miterlimit:10;stroke-opacity:1;stroke-dasharray:none"
       id="path128"
       inkscape:connector-curvature="0" /><path
       d="m 218.07647,189.93 72,0 0,36 -72,0 0,-36 z"
       style="fill:#ffffff;fill-opacity:1;fill-rule:nonzero;stroke:#000000;stroke-width:0.72000003;stroke-linecap:round;stroke-linejoin:round;stroke-miterlimit:10;stroke-opacity:1;stroke-dasharray:none"
       id="path130"
       inkscape:connector-curvature="0" /><text
       transform="scale(0.99849054,-1.0015117)"
       id="text132"
       x="245.80751"
       y="-204.02158"
       style="font-size:23.96377373px"><tspan
         style="font-size:11.98188686px;font-style:normal;font-variant:normal;font-weight:normal;font-stretch:normal;writing-mode:lr-tb;fill:#000000;fill-opacity:1;fill-rule:nonzero;stroke:none;font-family:Arial;-inkscape-font-specification:Arial"
         x="245.80751 254.45844"
         y="-204.02158"
         sodipodi:role="line"
         id="tspan134">DH</tspan></text>
<path
       d="m 290.07647,297.93 18.12,18 0,36 -18.12,-18 0,-36 z"
       style="fill:#c0c0c0;fill-opacity:1;fill-rule:nonzero;stroke:#000000;stroke-width:0.72000003;stroke-linecap:round;stroke-linejoin:round;stroke-miterlimit:10;stroke-opacity:1;stroke-dasharray:none"
       id="path136"
       inkscape:connector-curvature="0" /><path
       d="m 218.07647,333.93 72,0 18.12,18 -72.12,0 -18,-18 z"
       style="fill:#c0c0c0;fill-opacity:1;fill-rule:nonzero;stroke:#000000;stroke-width:0.72000003;stroke-linecap:round;stroke-linejoin:round;stroke-miterlimit:10;stroke-opacity:1;stroke-dasharray:none"
       id="path138"
       inkscape:connector-curvature="0" /><path
       d="m 218.07647,297.93 72,0 0,36 -72,0 0,-36 z"
       style="fill:#ffffff;fill-opacity:1;fill-rule:nonzero;stroke:#000000;stroke-width:0.72000003;stroke-linecap:round;stroke-linejoin:round;stroke-miterlimit:10;stroke-opacity:1;stroke-dasharray:none"
       id="path140"
       inkscape:connector-curvature="0" /><text
       transform="scale(0.99849054,-1.0015117)"
       id="text142"
       x="246.04787"
       y="-311.85855"
       style="font-size:23.96377373px"><tspan
         style="font-size:11.98188686px;font-style:normal;font-variant:normal;font-weight:normal;font-stretch:normal;writing-mode:lr-tb;fill:#000000;fill-opacity:1;fill-rule:nonzero;stroke:none;font-family:Arial;-inkscape-font-specification:Arial"
         x="246.04787 254.03979"
         y="-311.85855"
         sodipodi:role="line"
         id="tspan144">AH</tspan></text>
<path
       d="m 362.19647,45.93 18,18 0,36 -18,-18 0,-36 z"
       style="fill:#c0c0c0;fill-opacity:1;fill-rule:nonzero;stroke:#000000;stroke-width:0.72000003;stroke-linecap:round;stroke-linejoin:round;stroke-miterlimit:10;stroke-opacity:1;stroke-dasharray:none"
       id="path146"
       inkscape:connector-curvature="0" /><path
       d="m 74.07647,45.93 288.12,0 0,36 -288.12,0 0,-36 z"
       style="fill:#ffffff;fill-opacity:1;fill-rule:nonzero;stroke:#000000;stroke-width:0.72000003;stroke-linecap:round;stroke-linejoin:round;stroke-miterlimit:10;stroke-opacity:1;stroke-dasharray:none"
       id="path148"
       inkscape:connector-curvature="0" /><text
       transform="scale(0.99915387,-1.0008468)"
       id="text150"
       x="84.993744"
       y="-59.079967"
       style="font-size:23.97969246px"><tspan
         style="font-size:16.06639481px;font-style:normal;font-variant:normal;font-weight:bold;font-stretch:normal;writing-mode:lr-tb;fill:#000000;fill-opacity:1;fill-rule:nonzero;stroke:none;font-family:Arial;-inkscape-font-specification:Arial Bold"
         x="84.993744 95.71003 107.30997"
         y="-59.079967"
         sodipodi:role="line"
         id="tspan152">EBP</tspan></text>
<text
       transform="scale(0.99849054,-1.0015117)"
       id="text154"
       x="220.08868"
       y="-59.040745"
       style="font-size:23.96377373px"><tspan
         style="font-size:11.98188686px;font-style:italic;font-variant:normal;font-weight:normal;font-stretch:normal;writing-mode:lr-tb;fill:#000000;fill-opacity:1;fill-rule:nonzero;stroke:none;font-family:Arial;-inkscape-font-specification:Arial Italic"
         x="220.08868 228.0806 234.74254 240.73347 247.3954 250.72636 258.71829 265.38022 268.04019 274.70212 278.03308 284.69501"
         y="-59.040745"
         sodipodi:role="line"
         id="tspan156">Base Pointer</tspan></text>
<path
       d="m 362.19647,153.93 18,18 0,36 -18,-18 0,-36 z"
       style="fill:#c0c0c0;fill-opacity:1;fill-rule:nonzero;stroke:#000000;stroke-width:0.72000003;stroke-linecap:round;stroke-linejoin:round;stroke-miterlimit:10;stroke-opacity:1;stroke-dasharray:none"
       id="path158"
       inkscape:connector-curvature="0" /><path
       d="m 74.07647,153.93 288.12,0 0,36 -288.12,0 0,-36 z"
       style="fill:#ffffff;fill-opacity:1;fill-rule:nonzero;stroke:#000000;stroke-width:0.72000003;stroke-linecap:round;stroke-linejoin:round;stroke-miterlimit:10;stroke-opacity:1;stroke-dasharray:none"
       id="path160"
       inkscape:connector-curvature="0" /><text
       transform="scale(0.99915387,-1.0008468)"
       id="text162"
       x="205.04997"
       y="-166.98878"
       style="font-size:23.97969246px"><tspan
         style="font-size:16.06639481px;font-style:normal;font-variant:normal;font-weight:bold;font-stretch:normal;writing-mode:lr-tb;fill:#000000;fill-opacity:1;fill-rule:nonzero;stroke:none;font-family:Arial;-inkscape-font-specification:Arial Bold"
         x="205.04997 215.76625 226.48254"
         y="-166.98878"
         sodipodi:role="line"
         id="tspan164">ESI</tspan></text>
<path
       d="m 362.19647,81.93 18,18 0,36 -18,-18 0,-36 z"
       style="fill:#c0c0c0;fill-opacity:1;fill-rule:nonzero;stroke:#000000;stroke-width:0.72000003;stroke-linecap:round;stroke-linejoin:round;stroke-miterlimit:10;stroke-opacity:1;stroke-dasharray:none"
       id="path166"
       inkscape:connector-curvature="0" /><path
       d="m 74.07647,81.93 288.12,0 0,36 -288.12,0 0,-36 z"
       style="fill:#ffffff;fill-opacity:1;fill-rule:nonzero;stroke:#000000;stroke-width:0.72000003;stroke-linecap:round;stroke-linejoin:round;stroke-miterlimit:10;stroke-opacity:1;stroke-dasharray:none"
       id="path168"
       inkscape:connector-curvature="0" /><text
       transform="scale(0.99915387,-1.0008468)"
       id="text170"
       x="84.993744"
       y="-95.049507"
       style="font-size:23.97969246px"><tspan
         style="font-size:16.06639481px;font-style:normal;font-variant:normal;font-weight:bold;font-stretch:normal;writing-mode:lr-tb;fill:#000000;fill-opacity:1;fill-rule:nonzero;stroke:none;font-family:Arial;-inkscape-font-specification:Arial Bold"
         x="84.993744 95.71003 106.42632"
         y="-95.049507"
         sodipodi:role="line"
         id="tspan172">ESP</tspan></text>
<text
       transform="scale(0.99849054,-1.0015117)"
       id="text174"
       x="218.64651"
       y="-94.986404"
       style="font-size:23.96377373px"><tspan
         style="font-size:11.98188686px;font-style:italic;font-variant:normal;font-weight:normal;font-stretch:normal;writing-mode:lr-tb;fill:#000000;fill-opacity:1;fill-rule:nonzero;stroke:none;font-family:Arial;-inkscape-font-specification:Arial Italic"
         x="218.64651 226.63843 229.96939 236.63132 242.62227 248.6132 251.94417 259.9361 266.59802 269.258 275.91992 279.25089 285.91281"
         y="-94.986404"
         sodipodi:role="line"
         id="tspan176">Stack Pointer</tspan></text>
<path
       d="m 362.19647,117.93 18,18 0,36 -18,-18 0,-36 z"
       style="fill:#c0c0c0;fill-opacity:1;fill-rule:nonzero;stroke:#000000;stroke-width:0.72000003;stroke-linecap:round;stroke-linejoin:round;stroke-miterlimit:10;stroke-opacity:1;stroke-dasharray:none"
       id="path178"
       inkscape:connector-curvature="0" /><path
       d="m 74.07647,117.93 288.12,0 0,36 -288.12,0 0,-36 z"
       style="fill:#ffffff;fill-opacity:1;fill-rule:nonzero;stroke:#000000;stroke-width:0.72000003;stroke-linecap:round;stroke-linejoin:round;stroke-miterlimit:10;stroke-opacity:1;stroke-dasharray:none"
       id="path180"
       inkscape:connector-curvature="0" /><text
       transform="scale(0.99915387,-1.0008468)"
       id="text182"
       x="204.80977"
       y="-131.01904"
       style="font-size:23.97969246px"><tspan
         style="font-size:16.06639481px;font-style:normal;font-variant:normal;font-weight:bold;font-stretch:normal;writing-mode:lr-tb;fill:#000000;fill-opacity:1;fill-rule:nonzero;stroke:none;font-family:Arial;-inkscape-font-specification:Arial Bold"
         x="204.80977 215.52605 227.12599"
         y="-131.01904"
         sodipodi:role="line"
         id="tspan184">EDI</tspan></text>
<path
       d="m 362.19647,189.93 18,18 0,36 -18,-18 0,-36 z"
       style="fill:#c0c0c0;fill-opacity:1;fill-rule:nonzero;stroke:#000000;stroke-width:0.72000003;stroke-linecap:round;stroke-linejoin:round;stroke-miterlimit:10;stroke-opacity:1;stroke-dasharray:none"
       id="path186"
       inkscape:connector-curvature="0" /><path
       d="m 290.07647,189.93 72.12,0 0,36 -72.12,0 0,-36 z"
       style="fill:#ffffff;fill-opacity:1;fill-rule:nonzero;stroke:#000000;stroke-width:0.72000003;stroke-linecap:round;stroke-linejoin:round;stroke-miterlimit:10;stroke-opacity:1;stroke-dasharray:none"
       id="path188"
       inkscape:connector-curvature="0" /><text
       transform="scale(0.99849054,-1.0015117)"
       id="text190"
       x="318.99799"
       y="-204.02158"
       style="font-size:23.96377373px"><tspan
         style="font-size:11.98188686px;font-style:normal;font-variant:normal;font-weight:normal;font-stretch:normal;writing-mode:lr-tb;fill:#000000;fill-opacity:1;fill-rule:nonzero;stroke:none;font-family:Arial;-inkscape-font-specification:Arial"
         x="318.99799 327.6489"
         y="-204.02158"
         sodipodi:role="line"
         id="tspan192">DL</tspan></text>
<path
       d="m 362.19647,225.93 18,18 0,36 -18,-18 0,-36 z"
       style="fill:#c0c0c0;fill-opacity:1;fill-rule:nonzero;stroke:#000000;stroke-width:0.72000003;stroke-linecap:round;stroke-linejoin:round;stroke-miterlimit:10;stroke-opacity:1;stroke-dasharray:none"
       id="path194"
       inkscape:connector-curvature="0" /><path
       d="m 290.07647,225.93 72.12,0 0,36 -72.12,0 0,-36 z"
       style="fill:#ffffff;fill-opacity:1;fill-rule:nonzero;stroke:#000000;stroke-width:0.72000003;stroke-linecap:round;stroke-linejoin:round;stroke-miterlimit:10;stroke-opacity:1;stroke-dasharray:none"
       id="path196"
       inkscape:connector-curvature="0" /><text
       transform="scale(0.99849054,-1.0015117)"
       id="text198"
       x="318.99799"
       y="-239.96722"
       style="font-size:23.96377373px"><tspan
         style="font-size:11.98188686px;font-style:normal;font-variant:normal;font-weight:normal;font-stretch:normal;writing-mode:lr-tb;fill:#000000;fill-opacity:1;fill-rule:nonzero;stroke:none;font-family:Arial;-inkscape-font-specification:Arial"
         x="318.99799 327.6489"
         y="-239.96722"
         sodipodi:role="line"
         id="tspan200">CL</tspan></text>
<path
       d="m 362.19647,261.93 18,18 0,36 -18,-18 0,-36 z"
       style="fill:#c0c0c0;fill-opacity:1;fill-rule:nonzero;stroke:#000000;stroke-width:0.72000003;stroke-linecap:round;stroke-linejoin:round;stroke-miterlimit:10;stroke-opacity:1;stroke-dasharray:none"
       id="path202"
       inkscape:connector-curvature="0" /><path
       d="m 290.07647,261.93 72.12,0 0,36 -72.12,0 0,-36 z"
       style="fill:#ffffff;fill-opacity:1;fill-rule:nonzero;stroke:#000000;stroke-width:0.72000003;stroke-linecap:round;stroke-linejoin:round;stroke-miterlimit:10;stroke-opacity:1;stroke-dasharray:none"
       id="path204"
       inkscape:connector-curvature="0" /><text
       transform="scale(0.99849054,-1.0015117)"
       id="text206"
       x="319.23834"
       y="-275.9129"
       style="font-size:23.96377373px"><tspan
         style="font-size:11.98188686px;font-style:normal;font-variant:normal;font-weight:normal;font-stretch:normal;writing-mode:lr-tb;fill:#000000;fill-opacity:1;fill-rule:nonzero;stroke:none;font-family:Arial;-inkscape-font-specification:Arial"
         x="319.23834 327.23026"
         y="-275.9129"
         sodipodi:role="line"
         id="tspan208">BL</tspan></text>
<path
       d="m 362.19647,297.93 18,18 0,36 -18,-18 0,-36 z"
       style="fill:#c0c0c0;fill-opacity:1;fill-rule:nonzero;stroke:#000000;stroke-width:0.72000003;stroke-linecap:round;stroke-linejoin:round;stroke-miterlimit:10;stroke-opacity:1;stroke-dasharray:none"
       id="path210"
       inkscape:connector-curvature="0" /><path
       d="m 290.07647,333.93 72.12,0 18,18 -72,0 -18.12,-18 z"
       style="fill:#c0c0c0;fill-opacity:1;fill-rule:nonzero;stroke:#000000;stroke-width:0.72000003;stroke-linecap:round;stroke-linejoin:round;stroke-miterlimit:10;stroke-opacity:1;stroke-dasharray:none"
       id="path212"
       inkscape:connector-curvature="0" /><path
       d="m 290.07647,297.93 72.12,0 0,36 -72.12,0 0,-36 z"
       style="fill:#ffffff;fill-opacity:1;fill-rule:nonzero;stroke:#000000;stroke-width:0.72000003;stroke-linecap:round;stroke-linejoin:round;stroke-miterlimit:10;stroke-opacity:1;stroke-dasharray:none"
       id="path214"
       inkscape:connector-curvature="0" /><text
       transform="scale(0.99849054,-1.0015117)"
       id="text216"
       x="319.23834"
       y="-311.85855"
       style="font-size:23.96377373px"><tspan
         style="font-size:11.98188686px;font-style:normal;font-variant:normal;font-weight:normal;font-stretch:normal;writing-mode:lr-tb;fill:#000000;fill-opacity:1;fill-rule:nonzero;stroke:none;font-family:Arial;-inkscape-font-specification:Arial"
         x="319.23834 327.23026"
         y="-311.85855"
         sodipodi:role="line"
         id="tspan218">AL</tspan></text>
<text
       transform="scale(1.0072745,-0.992778)"
       id="text220"
       x="277.4978"
       y="-313.39334"
       style="font-size:23.8266716px"><tspan
         style="font-size:16.1969738px;font-style:normal;font-variant:normal;font-weight:normal;font-stretch:normal;writing-mode:lr-tb;fill:#000000;fill-opacity:1;fill-rule:nonzero;stroke:none;font-family:Arial;-inkscape-font-specification:Arial"
         x="277.4978 288.30118"
         y="-313.39334"
         sodipodi:role="line"
         id="tspan222">AX</tspan><tspan
         style="font-size:16.1969738px;font-style:normal;font-variant:normal;font-weight:normal;font-stretch:normal;writing-mode:lr-tb;fill:#000000;fill-opacity:1;fill-rule:nonzero;stroke:none;font-family:Arial;-inkscape-font-specification:Arial"
         x="277.4978 288.30118"
         y="-277.13153"
         sodipodi:role="line"
         id="tspan224">BX</tspan><tspan
         style="font-size:16.1969738px;font-style:normal;font-variant:normal;font-weight:normal;font-stretch:normal;writing-mode:lr-tb;fill:#000000;fill-opacity:1;fill-rule:nonzero;stroke:none;font-family:Arial;-inkscape-font-specification:Arial"
         x="277.02161 288.71582"
         y="-240.86975"
         sodipodi:role="line"
         id="tspan226">CX</tspan><tspan
         style="font-size:16.1969738px;font-style:normal;font-variant:normal;font-weight:normal;font-stretch:normal;writing-mode:lr-tb;fill:#000000;fill-opacity:1;fill-rule:nonzero;stroke:none;font-family:Arial;-inkscape-font-specification:Arial"
         x="277.02161 288.71582"
         y="-204.60797"
         sodipodi:role="line"
         id="tspan228">DX</tspan></text>
<text
       transform="scale(0.99915387,-1.0008468)"
       id="text230"
       x="201.68712"
       y="-238.92786"
       style="font-size:23.97969246px"><tspan
         style="font-size:16.06639481px;font-style:normal;font-variant:normal;font-weight:bold;font-stretch:normal;writing-mode:lr-tb;fill:#000000;fill-opacity:1;fill-rule:nonzero;stroke:none;font-family:Arial;-inkscape-font-specification:Arial Bold"
         x="201.68712 212.40341 224.00334"
         y="-238.92786"
         sodipodi:role="line"
         id="tspan232">ECX</tspan><tspan
         style="font-size:16.06639481px;font-style:normal;font-variant:normal;font-weight:bold;font-stretch:normal;writing-mode:lr-tb;fill:#000000;fill-opacity:1;fill-rule:nonzero;stroke:none;font-family:Arial;-inkscape-font-specification:Arial Bold"
         x="201.92812 212.64441 224.24434"
         y="-310.86676"
         sodipodi:role="line"
         id="tspan234">EAX</tspan><tspan
         style="font-size:16.06639481px;font-style:normal;font-variant:normal;font-weight:bold;font-stretch:normal;writing-mode:lr-tb;fill:#000000;fill-opacity:1;fill-rule:nonzero;stroke:none;font-family:Arial;-inkscape-font-specification:Arial Bold"
         x="201.68712 212.40341 224.00334"
         y="-274.89731"
         sodipodi:role="line"
         id="tspan236">EBX</tspan><tspan
         style="font-size:16.06639481px;font-style:normal;font-variant:normal;font-weight:bold;font-stretch:normal;writing-mode:lr-tb;fill:#000000;fill-opacity:1;fill-rule:nonzero;stroke:none;font-family:Arial;-inkscape-font-specification:Arial Bold"
         x="201.68712 212.40341 224.00334"
         y="-202.95842"
         sodipodi:role="line"
         id="tspan238">EDX</tspan></text>
<path
       d="m 83.19647,374.25 0,-8.88 -9.12,4.56 9.12,4.32 z m 270.12,0 0,-8.88 8.88,4.56 -8.88,4.32 z"
       style="fill:#000000;fill-opacity:1;fill-rule:nonzero;stroke:#000000;stroke-width:0.72000003;stroke-linecap:round;stroke-linejoin:round;stroke-miterlimit:10;stroke-opacity:1;stroke-dasharray:none"
       id="path240"
       inkscape:connector-curvature="0" /><path
       d="m 83.19647,369.93 270.12,0"
       style="fill:none;stroke:#000000;stroke-width:0.72000003;stroke-linecap:round;stroke-linejoin:round;stroke-miterlimit:10;stroke-opacity:1;stroke-dasharray:none"
       id="path242"
       inkscape:connector-curvature="0" /><text
       transform="scale(1.0072745,-0.99277803)"
       id="text246"
       x="192.91312"
       y="-374.23288"
       style="font-size:23.8266716px"><tspan
         style="font-size:16.1969738px;font-style:normal;font-variant:normal;font-weight:normal;font-stretch:normal;writing-mode:lr-tb;fill:#000000;fill-opacity:1;fill-rule:nonzero;stroke:none;font-family:Arial;-inkscape-font-specification:Arial"
         x="192.91312 201.91864 210.92415 215.42691 224.43243 228.02815 232.53091"
         y="-374.23288"
         sodipodi:role="line"
         id="tspan248">32 bits</tspan></text>
<path
       d="m 227.19647,397.05 0,-8.88 -9.12,4.56 9.12,4.32 z m 126.12,0 0,-8.88 8.88,4.56 -8.88,4.32 z"
       style="fill:#000000;fill-opacity:1;fill-rule:nonzero;stroke:#000000;stroke-width:0.72000003;stroke-linecap:round;stroke-linejoin:round;stroke-miterlimit:10;stroke-opacity:1;stroke-dasharray:none"
       id="path250"
       inkscape:connector-curvature="0" /><path
       d="m 227.19647,392.73 126.12,0"
       style="fill:none;stroke:#000000;stroke-width:0.72000003;stroke-linecap:round;stroke-linejoin:round;stroke-miterlimit:10;stroke-opacity:1;stroke-dasharray:none"
       id="path252"
       inkscape:connector-curvature="0" /><text
       transform="scale(1.0072745,-0.99277803)"
       id="text256"
       x="264.39313"
       y="-397.19852"
       style="font-size:23.8266716px"><tspan
         style="font-size:16.1969738px;font-style:normal;font-variant:normal;font-weight:normal;font-stretch:normal;writing-mode:lr-tb;fill:#000000;fill-opacity:1;fill-rule:nonzero;stroke:none;font-family:Arial;-inkscape-font-specification:Arial"
         x="264.39313 273.39865 282.40417 286.90692 295.91245 299.50818 304.01093"
         y="-397.19852"
         sodipodi:role="line"
         id="tspan258">16 bits</tspan></text>
<path
       d="m 299.31647,419.85 0,-8.88 -9.24,4.56 9.24,4.32 z m 54,0 0,-8.88 8.88,4.56 -8.88,4.32 z"
       style="fill:#000000;fill-opacity:1;fill-rule:nonzero;stroke:#000000;stroke-width:0.72000003;stroke-linecap:round;stroke-linejoin:round;stroke-miterlimit:10;stroke-opacity:1;stroke-dasharray:none"
       id="path260"
       inkscape:connector-curvature="0" /><path
       d="m 299.31647,415.53 54,0"
       style="fill:none;stroke:#000000;stroke-width:0.72000003;stroke-linecap:round;stroke-linejoin:round;stroke-miterlimit:10;stroke-opacity:1;stroke-dasharray:none"
       id="path262"
       inkscape:connector-curvature="0" /><text
       transform="scale(1.0072745,-0.99277803)"
       id="text266"
       x="304.54108"
       y="-420.16437"
       style="font-size:23.8266716px"><tspan
         style="font-size:16.1969738px;font-style:normal;font-variant:normal;font-weight:normal;font-stretch:normal;writing-mode:lr-tb;fill:#000000;fill-opacity:1;fill-rule:nonzero;stroke:none;font-family:Arial;-inkscape-font-specification:Arial"
         x="304.54108 313.5466 318.04935 327.05487 330.6506 335.15335"
         y="-420.16437"
         sodipodi:role="line"
         id="tspan268">8 bits</tspan></text>
<path
       d="m 227.19647,419.85 0,-8.88 -9.12,4.56 9.12,4.32 z m 54,0 0,-8.88 8.88,4.56 -8.88,4.32 z"
       style="fill:#000000;fill-opacity:1;fill-rule:nonzero;stroke:#000000;stroke-width:0.72000003;stroke-linecap:round;stroke-linejoin:round;stroke-miterlimit:10;stroke-opacity:1;stroke-dasharray:none"
       id="path270"
       inkscape:connector-curvature="0" /><path
       d="m 227.19647,415.53 54,0"
       style="fill:none;stroke:#000000;stroke-width:0.72000003;stroke-linecap:round;stroke-linejoin:round;stroke-miterlimit:10;stroke-opacity:1;stroke-dasharray:none"
       id="path272"
       inkscape:connector-curvature="0" /><text
       transform="scale(1.0072745,-0.99277803)"
       id="text276"
       x="232.94193"
       y="-420.16437"
       style="font-size:23.8266716px"><tspan
         style="font-size:16.1969738px;font-style:normal;font-variant:normal;font-weight:normal;font-stretch:normal;writing-mode:lr-tb;fill:#000000;fill-opacity:1;fill-rule:nonzero;stroke:none;font-family:Arial;-inkscape-font-specification:Arial"
         x="232.94193 241.94745 246.4502 255.45572 259.05145 263.5542"
         y="-420.16437"
         sodipodi:role="line"
         id="tspan278">8 bits</tspan></text>
<path
       d="m 74.07647,369.93 0,-0.48 m 0,-2.4 0,-0.48 m 0,-2.4 0,-0.48 m 0,-2.4 0,-0.48 m 0,-2.4 0,-0.48 m 0,-2.4 0,-0.48 m 0,-2.4 0,-0.48 m 0,-2.4 0,-0.48 m 0,-2.4 0,-0.48 m 0,-2.4 0,-0.48 m 0,-2.4 0,-0.48 m 0,-2.4 0,-0.48 m 0,-2.4 0,-0.48 m 0,-2.4 0,-0.48 m 0,-2.4 0,-0.48 m 0,-2.4 0,-0.48 m 288.12,79.68 0,-0.48 m 0,-2.4 0,-0.48 m 0,-2.4 0,-0.48 m 0,-2.4 0,-0.48 m 0,-2.4 0,-0.48 m 0,-2.4 0,-0.48 m 0,-2.4 0,-0.48 m 0,-2.4 0,-0.48 m 0,-2.4 0,-0.48 m 0,-2.4 0,-0.48 m 0,-2.4 0,-0.48 m 0,-2.4 0,-0.48 m 0,-2.4 0,-0.48 m 0,-2.4 0,-0.48 m 0,-2.4 0,-0.48 m 0,-2.4 0,-0.48 m 0,-2.4 0,-0.48 m 0,-2.4 0,-0.48 m 0,-2.4 0,-0.48 m 0,-2.4 0,-0.48 m 0,-2.4 0,-0.48 m 0,-2.4 0,-0.48 m 0,-2.4 0,-0.48 m 0,-2.4 0,-0.48 m 0,-2.4 0,-0.48 m -144.12,69.6 0,-0.48 m 0,-2.4 0,-0.48 m 0,-2.4 0,-0.48 m 0,-2.4 0,-0.48 m 0,-2.4 0,-0.48 m 0,-2.4 0,-0.48 m 0,-2.4 0,-0.48 m 0,-2.4 0,-0.48 m 0,-2.4 0,-0.48 m 0,-2.4 0,-0.48 m 0,-2.4 0,-0.48 m 0,-2.4 0,-0.48 m 0,-2.4 0,-0.48 m 0,-2.4 0,-0.48 m 0,-2.4 0,-0.48 m 0,-2.4 0,-0.48 m 0,-2.4 0,-0.48 m 0,-2.4 0,-0.48 m 0,-2.4 0,-0.48 m 0,-2.4 0,-0.48 m 0,-2.4 0,-0.48 m 0,-2.4 0,-0.48 m 0,-2.4 0,-0.48"
       style="fill:none;stroke:#000000;stroke-width:0.72000003;stroke-linecap:round;stroke-linejoin:round;stroke-miterlimit:10;stroke-opacity:1;stroke-dasharray:none"
       id="path280"
       inkscape:connector-curvature="0" /><path
       d="m 218.07647,339.69 0,-0.48 m 0,-2.4 0,-0.48 m 153.24,-11.52 98.88,-98.88 m -98.88,-81.12 98.88,81.12"
       style="fill:none;stroke:#000000;stroke-width:0.72000003;stroke-linecap:round;stroke-linejoin:round;stroke-miterlimit:10;stroke-opacity:1;stroke-dasharray:none"
       id="path282"
       inkscape:connector-curvature="0" /><text
       transform="scale(1.0072745,-0.992778)"
       id="text284"
       x="460.84406"
       y="-232.40845"
       style="font-size:23.8266716px"><tspan
         style="font-size:16.1969738px;font-style:italic;font-variant:normal;font-weight:normal;font-stretch:normal;writing-mode:lr-tb;fill:#000000;fill-opacity:1;fill-rule:nonzero;stroke:none;font-family:Arial;-inkscape-font-specification:Arial Italic"
         x="460.84406 473.44528 482.45081 491.45633 500.46185 505.85544 514.86096 518.45667 523.85028 532.85577 541.86133 547.25488 556.26044 565.26593 573.36444"
         y="-232.40845"
         sodipodi:role="line"
         id="tspan286">General-purpose</tspan><tspan
         style="font-size:16.1969738px;font-style:italic;font-variant:normal;font-weight:normal;font-stretch:normal;writing-mode:lr-tb;fill:#000000;fill-opacity:1;fill-rule:nonzero;stroke:none;font-family:Arial;-inkscape-font-specification:Arial Italic"
         x="486.57617 498.27039 507.27591 516.28143 519.87714 527.97565 532.47839 541.48389 546.8775"
         y="-213.06926"
         sodipodi:role="line"
         id="tspan288">Registers</tspan></text>
<path
       d="m 290.07647,405.93 0,-0.48 m 0,-2.4 0,-0.48 m 0,-2.4 0,-0.48 m 0,-2.4 0,-0.48 m 0,-2.4 0,-0.48 m 0,-2.4 0,-0.48 m 0,-2.4 0,-0.48 m 0,-2.4 0,-0.48 m 0,-2.4 0,-0.48 m 0,-2.4 0,-0.48 m 0,-2.4 0,-0.48 m 0,-2.4 0,-0.48 m 0,-2.4 0,-0.48 m 0,-2.4 0,-0.48 m 0,-2.4 0,-0.48 m 0,-2.4 0,-0.48 m 0,-2.4 0,-0.48 m 0,-2.4 0,-0.48 m 0,-2.4 0,-0.48 m 0,-2.4 0,-0.48 m 0,-2.4 0,-0.48 m 0,-2.4 0,-0.48 m 0,-2.4 0,-0.48 m 0,-2.4 0,-0.48 m 0,-2.4 0,-0.48"
       style="fill:none;stroke:#000000;stroke-width:0.72000003;stroke-linecap:round;stroke-linejoin:round;stroke-miterlimit:10;stroke-opacity:1;stroke-dasharray:none"
       id="path290"
       inkscape:connector-curvature="0" /></g></svg>