<?xml version="1.0" encoding="UTF-8" standalone="no"?>
<!-- Created with Inkscape (http://www.inkscape.org/) -->

<svg
   xmlns:dc="http://purl.org/dc/elements/1.1/"
   xmlns:cc="http://creativecommons.org/ns#"
   xmlns:rdf="http://www.w3.org/1999/02/22-rdf-syntax-ns#"
   xmlns:svg="http://www.w3.org/2000/svg"
   xmlns="http://www.w3.org/2000/svg"
   xmlns:sodipodi="http://sodipodi.sourceforge.net/DTD/sodipodi-0.dtd"
   xmlns:inkscape="http://www.inkscape.org/namespaces/inkscape"
   id="svg2"
   version="1.1"
   inkscape:version="0.48.3.1 r9886"
   width="392.56"
   height="375.31"
   xml:space="preserve"
   sodipodi:docname="vmt-1.svg"><metadata
     id="metadata8"><rdf:RDF><cc:Work
         rdf:about=""><dc:format>image/svg+xml</dc:format><dc:type
           rdf:resource="http://purl.org/dc/dcmitype/StillImage" /><dc:title></dc:title></cc:Work></rdf:RDF></metadata><defs
     id="defs6"><clipPath
       clipPathUnits="userSpaceOnUse"
       id="clipPath16"><path
         d="m 0,1.2207e-4 720,0 0,539.99999793 -720,0 L 0,1.2207e-4 z"
         clip-rule="evenodd"
         id="path18"
         inkscape:connector-curvature="0" /></clipPath></defs><sodipodi:namedview
     pagecolor="#ffffff"
     bordercolor="#666666"
     borderopacity="1"
     objecttolerance="10"
     gridtolerance="10"
     guidetolerance="10"
     inkscape:pageopacity="0"
     inkscape:pageshadow="2"
     inkscape:window-width="1280"
     inkscape:window-height="969"
     id="namedview4"
     showgrid="false"
     fit-margin-top="10"
     fit-margin-left="10"
     fit-margin-right="10"
     fit-margin-bottom="10"
     inkscape:zoom="0.34962963"
     inkscape:cx="-31.350315"
     inkscape:cy="215.33628"
     inkscape:window-x="-3"
     inkscape:window-y="-3"
     inkscape:window-maximized="1"
     inkscape:current-layer="g10" /><g
     id="g10"
     inkscape:groupmode="layer"
     inkscape:label="vmt-animations"
     transform="matrix(1.25,0,0,-1.25,-481.35032,498.90375)"><rect
       style="fill:#ffffff;fill-opacity:1;stroke:none"
       id="rect3054"
       width="314.048"
       height="300.24799"
       x="385.08026"
       y="-399.12299"
       transform="scale(1,-1)" /><path
       d="m 492,198 126,0 0,192 -126,0 0,-192 z"
       style="fill:none;stroke:#000000;stroke-width:2.25;stroke-linecap:butt;stroke-linejoin:round;stroke-miterlimit:10;stroke-opacity:1;stroke-dasharray:none"
       id="path26"
       inkscape:connector-curvature="0" /><path
       d="m 492,270 126,0 0,84 -126,0 0,-84 z"
       style="fill:none;stroke:#000000;stroke-width:2.25;stroke-linecap:butt;stroke-linejoin:round;stroke-miterlimit:10;stroke-opacity:1;stroke-dasharray:none"
       id="path28"
       inkscape:connector-curvature="0" /><text
       transform="matrix(1,0,0,-1,521.4,366.55)"
       id="text30"><tspan
         style="font-size:20.04000092px;font-variant:normal;font-weight:normal;writing-mode:lr-tb;fill:#000000;fill-opacity:1;fill-rule:nonzero;stroke:none;font-family:Verdana;-inkscape-font-specification:Verdana"
         x="0 11.64324 23.52696 32.084042 42.524879 54.609001"
         y="0"
         sodipodi:role="line"
         id="tspan32">Person</tspan></text>
<text
       transform="matrix(1,0,0,-1,499.27,308.04)"
       id="text34"><tspan
         style="font-size:20.04000092px;font-variant:normal;font-weight:normal;writing-mode:lr-tb;fill:#000000;fill-opacity:1;fill-rule:nonzero;stroke:none;font-family:Verdana;-inkscape-font-specification:Verdana"
         x="0 12.68532 24.729361 44.168159 56.05188 72.444603"
         y="0"
         sodipodi:role="line"
         id="tspan36">name=…</tspan></text>
<text
       transform="matrix(1,0,0,-1,499.27,242.04)"
       id="text38"><tspan
         style="font-size:20.04000092px;font-variant:normal;font-weight:normal;writing-mode:lr-tb;fill:#000000;fill-opacity:1;fill-rule:nonzero;stroke:none;font-family:Verdana;-inkscape-font-specification:Verdana"
         x="0 13.70736 25.551001 33.446758 48.43668 60.480721 79.919518"
         y="0"
         sodipodi:role="line"
         id="tspan40">SetName</tspan></text>
<text
       transform="matrix(1,0,0,-1,591.1,242.04)"
       id="text42"><tspan
         style="font-size:20.04000092px;font-variant:normal;font-weight:normal;writing-mode:lr-tb;fill:#000000;fill-opacity:1;fill-rule:nonzero;stroke:none;font-family:Verdana;-inkscape-font-specification:Verdana"
         x="0 9.1199598"
         y="0"
         sodipodi:role="line"
         id="tspan44">()</tspan></text>
<path
       d="m 408,336 30,0 0,30 -30,0 0,-30 z"
       style="fill:none;stroke:#000000;stroke-width:2.25;stroke-linecap:butt;stroke-linejoin:round;stroke-miterlimit:10;stroke-opacity:1;stroke-dasharray:none"
       id="path46"
       inkscape:connector-curvature="0" /><text
       transform="matrix(1,0,0,-1,391.27,342.55)"
       id="text48"><tspan
         style="font-size:20.04000092px;font-variant:normal;font-weight:normal;writing-mode:lr-tb;fill:#000000;fill-opacity:1;fill-rule:nonzero;stroke:none;font-family:Verdana;-inkscape-font-specification:Verdana"
         x="0"
         y="0"
         id="tspan50">p</tspan></text>
<path
       d="m 425.69,348.68 64.65,29.39 0.62,-1.37 -64.65,-29.38 -0.62,1.36 z m 58.12,30.16 8.19,-0.84 -4.75,-6.72 c -0.24,-0.33 -0.71,-0.41 -1.05,-0.18 -0.34,0.24 -0.42,0.71 -0.18,1.05 l 4.02,5.67 0.53,-1.18 -6.91,0.7 c -0.41,0.04 -0.71,0.41 -0.67,0.83 0.04,0.41 0.41,0.71 0.82,0.67 z"
       style="fill:#000000;fill-opacity:1;fill-rule:nonzero;stroke:none"
       id="path52"
       inkscape:connector-curvature="0" /></g></svg>