<?xml version="1.0" encoding="UTF-8" standalone="no"?>
<!-- Created with Inkscape (http://www.inkscape.org/) -->

<svg
   xmlns:dc="http://purl.org/dc/elements/1.1/"
   xmlns:cc="http://creativecommons.org/ns#"
   xmlns:rdf="http://www.w3.org/1999/02/22-rdf-syntax-ns#"
   xmlns:svg="http://www.w3.org/2000/svg"
   xmlns="http://www.w3.org/2000/svg"
   xmlns:sodipodi="http://sodipodi.sourceforge.net/DTD/sodipodi-0.dtd"
   xmlns:inkscape="http://www.inkscape.org/namespaces/inkscape"
   id="svg2"
   version="1.1"
   inkscape:version="0.48.3.1 r9886"
   width="392.55594"
   height="375.3125"
   xml:space="preserve"
   sodipodi:docname="vmt-3.svg"><metadata
     id="metadata8"><rdf:RDF><cc:Work
         rdf:about=""><dc:format>image/svg+xml</dc:format><dc:type
           rdf:resource="http://purl.org/dc/dcmitype/StillImage" /><dc:title></dc:title></cc:Work></rdf:RDF></metadata><defs
     id="defs6"><clipPath
       clipPathUnits="userSpaceOnUse"
       id="clipPath16"><path
         d="m 0,1.2207e-4 720,0 0,539.99999793 -720,0 L 0,1.2207e-4 z"
         clip-rule="evenodd"
         id="path18"
         inkscape:connector-curvature="0" /></clipPath></defs><sodipodi:namedview
     pagecolor="#ffffff"
     bordercolor="#666666"
     borderopacity="1"
     objecttolerance="10"
     gridtolerance="10"
     guidetolerance="10"
     inkscape:pageopacity="0"
     inkscape:pageshadow="2"
     inkscape:window-width="1280"
     inkscape:window-height="969"
     id="namedview4"
     showgrid="false"
     fit-margin-top="10"
     fit-margin-left="10"
     fit-margin-right="10"
     fit-margin-bottom="10"
     inkscape:zoom="0.34962963"
     inkscape:cx="-31.350317"
     inkscape:cy="215.33633"
     inkscape:window-x="-3"
     inkscape:window-y="-3"
     inkscape:window-maximized="1"
     inkscape:current-layer="g10" /><g
     id="g10"
     inkscape:groupmode="layer"
     inkscape:label="vmt-animations"
     transform="matrix(1.25,0,0,-1.25,-481.35032,498.90625)"><rect
       style="fill:#ffffff;fill-opacity:1;stroke:none"
       id="rect3054"
       width="314.048"
       height="300.24799"
       x="385.08026"
       y="-399.12299"
       transform="scale(1,-1)" /><text
       transform="matrix(1,0,0,-1,515.4,366.55)"
       id="text26"><tspan
         style="font-size:20.04000092px;font-variant:normal;font-weight:normal;writing-mode:lr-tb;fill:#ff0000;fill-opacity:1;fill-rule:nonzero;stroke:none;font-family:Verdana;-inkscape-font-specification:Verdana"
         x="0 13.70736 21.603121 34.288441 46.773361 58.717201 71.402519"
         y="0"
         sodipodi:role="line"
         id="tspan28">Student</tspan></text>
<path
       d="m 492,198 126,0 0,192 -126,0 0,-192 z"
       style="fill:none;stroke:#000000;stroke-width:2.25;stroke-linecap:butt;stroke-linejoin:round;stroke-miterlimit:10;stroke-opacity:1;stroke-dasharray:none"
       id="path30"
       inkscape:connector-curvature="0" /><path
       d="m 492,270 126,0 0,84 -126,0 0,-84 z"
       style="fill:none;stroke:#000000;stroke-width:2.25;stroke-linecap:butt;stroke-linejoin:round;stroke-miterlimit:10;stroke-opacity:1;stroke-dasharray:none"
       id="path32"
       inkscape:connector-curvature="0" /><text
       transform="matrix(1,0,0,-1,499.27,308.04)"
       id="text34"><tspan
         style="font-size:20.04000092px;font-variant:normal;font-weight:normal;writing-mode:lr-tb;fill:#000000;fill-opacity:1;fill-rule:nonzero;stroke:none;font-family:Verdana;-inkscape-font-specification:Verdana"
         x="0 12.68532 24.729361 44.168159 56.05188 72.444603"
         y="0"
         sodipodi:role="line"
         id="tspan36">name=…</tspan></text>
<text
       transform="matrix(1,0,0,-1,499.27,284.04)"
       id="text38"><tspan
         style="font-size:20.04000092px;font-variant:normal;font-weight:normal;writing-mode:lr-tb;fill:#000000;fill-opacity:1;fill-rule:nonzero;stroke:none;font-family:Verdana;-inkscape-font-specification:Verdana"
         x="0 12.04404 24.528959 37.013882"
         y="0"
         sodipodi:role="line"
         id="tspan40">addr</tspan></text>
<text
       transform="matrix(1,0,0,-1,544.78,284.04)"
       id="text42"><tspan
         style="font-size:20.04000092px;font-variant:normal;font-weight:normal;writing-mode:lr-tb;fill:#000000;fill-opacity:1;fill-rule:nonzero;stroke:none;font-family:Verdana;-inkscape-font-specification:Verdana"
         x="0 16.44002"
         y="0"
         sodipodi:role="line"
         id="tspan44">=…</tspan></text>
<text
       transform="matrix(1,0,0,-1,499.27,332.06)"
       id="text46"><tspan
         style="font-size:20.04000092px;font-variant:normal;font-weight:normal;writing-mode:lr-tb;fill:#000000;fill-opacity:1;fill-rule:nonzero;stroke:none;font-family:Verdana;-inkscape-font-specification:Verdana"
         x="0 13.70736 30.60108 42.945721"
         y="0"
         sodipodi:role="line"
         id="tspan48">VMT=</tspan></text>
<text
       transform="matrix(1,0,0,-1,499.27,242.04)"
       id="text50"><tspan
         style="font-size:20.04000092px;font-variant:normal;font-weight:normal;writing-mode:lr-tb;fill:#000000;fill-opacity:1;fill-rule:nonzero;stroke:none;font-family:Verdana;-inkscape-font-specification:Verdana"
         x="0 13.70736 25.551001 33.446758 48.43668 60.480721 79.919518"
         y="0"
         sodipodi:role="line"
         id="tspan52">SetName</tspan></text>
<text
       transform="matrix(1,0,0,-1,591.1,242.04)"
       id="text54"><tspan
         style="font-size:20.04000092px;font-variant:normal;font-weight:normal;writing-mode:lr-tb;fill:#000000;fill-opacity:1;fill-rule:nonzero;stroke:none;font-family:Verdana;-inkscape-font-specification:Verdana"
         x="0 9.1199598"
         y="0"
         sodipodi:role="line"
         id="tspan56">()</tspan></text>
<text
       transform="matrix(1,0,0,-1,499.27,212.02)"
       id="text58"><tspan
         style="font-size:20.06399918px;font-variant:normal;font-weight:normal;writing-mode:lr-tb;fill:#000000;fill-opacity:1;fill-rule:nonzero;stroke:none;font-family:Verdana;-inkscape-font-specification:Verdana"
         x="0 13.723776 25.561537 33.466751 47.190529 59.690399 72.130081"
         y="0"
         sodipodi:role="line"
         id="tspan60">SetAddr</tspan></text>
<text
       transform="matrix(1,0,0,-1,579.94,212.02)"
       id="text62"><tspan
         style="font-size:20.06399918px;font-variant:normal;font-weight:normal;writing-mode:lr-tb;fill:#000000;fill-opacity:1;fill-rule:nonzero;stroke:none;font-family:Verdana;-inkscape-font-specification:Verdana"
         x="0 9.119956"
         y="0"
         sodipodi:role="line"
         id="tspan64">()</tspan></text>
<path
       d="m 459.24,108 230.76,0 0,66 -230.76,0 0,-66 z"
       style="fill:none;stroke:#000000;stroke-width:2.25;stroke-linecap:butt;stroke-linejoin:round;stroke-miterlimit:10;stroke-opacity:1;stroke-dasharray:none"
       id="path66"
       inkscape:connector-curvature="0" /><text
       transform="matrix(1,0,0,-1,553.22,150.5)"
       id="text68"><tspan
         style="font-size:20.04000092px;font-variant:normal;font-weight:normal;writing-mode:lr-tb;fill:#000000;fill-opacity:1;fill-rule:nonzero;stroke:none;font-family:Verdana;-inkscape-font-specification:Verdana"
         x="0 13.70736 30.60108"
         y="0"
         sodipodi:role="line"
         id="tspan70">VMT</tspan></text>
<path
       d="m 459.24,144 230.76,0 0,30 -230.76,0 0,-30 z"
       style="fill:none;stroke:#000000;stroke-width:2.25;stroke-linecap:butt;stroke-linejoin:round;stroke-miterlimit:10;stroke-opacity:1;stroke-dasharray:none"
       id="path72"
       inkscape:connector-curvature="0" /><text
       transform="matrix(1,0,0,-1,469.27,120.5)"
       id="text74"><tspan
         style="font-size:20.04000092px;font-variant:normal;font-weight:normal;writing-mode:lr-tb;fill:#000000;fill-opacity:1;fill-rule:nonzero;stroke:none;font-family:Verdana;-inkscape-font-specification:Verdana"
         x="0 12.48492 21.042 26.392679 39.077999 46.973759 56.132038 65.230202 72.083878 92.123878 99.077759 111.8232 123.68688 136.43233 143.4864 156.23184 168.71677 181.40208 194.14752 201.2016"
         y="0"
         sodipodi:role="line"
         id="tspan76">print() @ 0x3f2d82f0</tspan></text>
<path
       d="m 408,336 30,0 0,30 -30,0 0,-30 z"
       style="fill:none;stroke:#000000;stroke-width:2.25;stroke-linecap:butt;stroke-linejoin:round;stroke-miterlimit:10;stroke-opacity:1;stroke-dasharray:none"
       id="path78"
       inkscape:connector-curvature="0" /><text
       transform="matrix(1,0,0,-1,391.27,342.55)"
       id="text80"><tspan
         style="font-size:20.04000092px;font-variant:normal;font-weight:normal;writing-mode:lr-tb;fill:#000000;fill-opacity:1;fill-rule:nonzero;stroke:none;font-family:Verdana;-inkscape-font-specification:Verdana"
         x="0"
         y="0"
         id="tspan82">p</tspan></text>
<path
       d="m 425.69,348.68 64.65,29.39 0.62,-1.37 -64.65,-29.38 -0.62,1.36 z m 58.12,30.16 8.19,-0.84 -4.75,-6.72 c -0.24,-0.33 -0.71,-0.41 -1.05,-0.18 -0.34,0.24 -0.42,0.71 -0.18,1.05 l 4.02,5.67 0.53,-1.18 -6.91,0.7 c -0.41,0.04 -0.71,0.41 -0.67,0.83 0.04,0.41 0.41,0.71 0.82,0.67 z"
       style="fill:#000000;fill-opacity:1;fill-rule:nonzero;stroke:none"
       id="path84"
       inkscape:connector-curvature="0" /><path
       d="m 570,324 24,0 0,24 -24,0 0,-24 z"
       style="fill:none;stroke:#000000;stroke-width:2.25;stroke-linecap:butt;stroke-linejoin:round;stroke-miterlimit:10;stroke-opacity:1;stroke-dasharray:none"
       id="path86"
       inkscape:connector-curvature="0" /><path
       d="m 585.03,336.75 4.48,-0.21 4.49,-0.64 4.42,-1.04 4.35,-1.44 4.27,-1.83 4.19,-2.21 4.09,-2.58 3.99,-2.92 3.89,-3.28 3.78,-3.61 3.68,-3.93 3.56,-4.25 3.44,-4.54 3.3,-4.84 3.18,-5.12 3.04,-5.39 2.89,-5.66 2.74,-5.9 2.6,-6.15 2.43,-6.36 2.28,-6.61 2.1,-6.8 1.92,-7.01 1.75,-7.19 1.56,-7.38 1.38,-7.55 1.17,-7.71 0.97,-7.86 0.77,-8 0.56,-8.13 0.34,-8.24 0.04,-3.36 -1.5,-0.02 -0.04,3.32 -0.34,8.2 -0.55,8.09 -0.76,7.96 -0.97,7.81 -1.17,7.67 -1.36,7.51 -1.56,7.33 -1.73,7.15 -1.92,6.97 -2.08,6.76 -2.26,6.55 -2.41,6.32 -2.58,6.1 -2.72,5.85 -2.86,5.6 -3.01,5.34 -3.14,5.06 -3.26,4.79 -3.39,4.48 -3.51,4.19 -3.61,3.86 -3.72,3.55 -3.81,3.22 -3.9,2.86 -4,2.52 -4.07,2.16 -4.15,1.79 -4.22,1.4 -4.29,1.02 -4.35,0.62 -4.48,0.21 0.07,1.5 z M 674.92,180.04 672,174 l -3.08,5.96 6,0.08 z"
       style="fill:#000000;fill-opacity:1;fill-rule:nonzero;stroke:none"
       id="path88"
       inkscape:connector-curvature="0" /></g></svg>