<?xml version="1.0" encoding="UTF-8" standalone="no"?>
<!DOCTYPE svg PUBLIC "-//W3C//DTD SVG 1.1//EN"
 "http://www.w3.org/Graphics/SVG/1.1/DTD/svg11.dtd">
<!-- Generated by graphviz version 2.36.0 (20140111.2315)
 -->
<!-- Title: E Pages: 1 -->
<svg width="164pt" height="216pt"
 viewBox="0.00 0.00 164.00 216.00" xmlns="http://www.w3.org/2000/svg" xmlns:xlink="http://www.w3.org/1999/xlink">
<g id="graph0" class="graph" transform="scale(1 1) rotate(0) translate(4 212)">
<title>E</title>
<polygon fill="white" stroke="none" points="-4,4 -4,-212 160,-212 160,4 -4,4"/>
<!-- stack -->
<g id="node1" class="node"><title>stack</title>
<polygon fill="none" stroke="black" points="0.5,-0.5 0.5,-207.5 155.5,-207.5 155.5,-0.5 0.5,-0.5"/>
<text text-anchor="middle" x="78" y="-192.3" font-family="Helvetica,sans-Serif" font-size="14.00">value of edx</text>
<polyline fill="none" stroke="black" points="0.5,-184.5 155.5,-184.5 "/>
<text text-anchor="middle" x="78" y="-169.3" font-family="Helvetica,sans-Serif" font-size="14.00">copy of var z (3)</text>
<polyline fill="none" stroke="black" points="0.5,-161.5 155.5,-161.5 "/>
<text text-anchor="middle" x="78" y="-146.3" font-family="Helvetica,sans-Serif" font-size="14.00">123</text>
<polyline fill="none" stroke="black" points="0.5,-138.5 155.5,-138.5 "/>
<text text-anchor="middle" x="78" y="-123.3" font-family="Helvetica,sans-Serif" font-size="14.00">value of eax (var x) (1)</text>
<polyline fill="none" stroke="black" points="0.5,-115.5 155.5,-115.5 "/>
<text text-anchor="middle" x="78" y="-100.3" font-family="Helvetica,sans-Serif" font-size="14.00"> </text>
<polyline fill="none" stroke="black" points="0.5,-92.5 155.5,-92.5 "/>
<text text-anchor="middle" x="78" y="-77.3" font-family="Helvetica,sans-Serif" font-size="14.00"> </text>
<polyline fill="none" stroke="black" points="0.5,-69.5 155.5,-69.5 "/>
<text text-anchor="middle" x="78" y="-54.3" font-family="Helvetica,sans-Serif" font-size="14.00"> </text>
<polyline fill="none" stroke="black" points="0.5,-46.5 155.5,-46.5 "/>
<text text-anchor="middle" x="78" y="-31.3" font-family="Helvetica,sans-Serif" font-size="14.00"> </text>
<polyline fill="none" stroke="black" points="0.5,-23.5 155.5,-23.5 "/>
<text text-anchor="middle" x="78" y="-8.3" font-family="Helvetica,sans-Serif" font-size="14.00"> </text>
</g>
</g>
</svg>
