<?xml version="1.0" encoding="UTF-8" standalone="no"?>
<!DOCTYPE svg PUBLIC "-//W3C//DTD SVG 1.1//EN"
 "http://www.w3.org/Graphics/SVG/1.1/DTD/svg11.dtd">
<!-- Generated by graphviz version 2.36.0 (20140111.2315)
 -->
<!-- Title: G Pages: 1 -->
<svg width="285pt" height="284pt"
 viewBox="0.00 0.00 285.00 284.00" xmlns="http://www.w3.org/2000/svg" xmlns:xlink="http://www.w3.org/1999/xlink">
<g id="graph0" class="graph" transform="scale(1 1) rotate(0) translate(4 280)">
<title>G</title>
<polygon fill="white" stroke="none" points="-4,4 -4,-280 281,-280 281,4 -4,4"/>
<!-- 8 -->
<g id="node1" class="node"><title>8</title>
<ellipse fill="none" stroke="green" cx="150" cy="-99" rx="18" ry="18"/>
<text text-anchor="middle" x="150" y="-95.3" font-family="Helvetica,sans-Serif" font-size="14.00">8</text>
</g>
<!-- r8 -->
<!-- 8&#45;&gt;r8 -->
<!-- m8 -->
<!-- 8&#45;&gt;m8 -->
<!-- 10 -->
<g id="node9" class="node"><title>10</title>
<ellipse fill="none" stroke="black" cx="205" cy="-21" rx="20.203" ry="20.5982"/>
<text text-anchor="middle" x="205" y="-17.3" font-family="Helvetica,sans-Serif" font-size="14.00">10</text>
</g>
<!-- 8&#45;&gt;10 -->
<g id="edge8" class="edge"><title>8&#45;&gt;10</title>
<path fill="none" stroke="black" d="M160.088,-84.0604C167.697,-73.5455 178.329,-58.8551 187.337,-46.4065"/>
<polygon fill="black" stroke="black" points="190.231,-48.3784 193.258,-38.2252 184.56,-44.2745 190.231,-48.3784"/>
</g>
<!-- 6 -->
<g id="node2" class="node"><title>6</title>
<ellipse fill="none" stroke="green" cx="114" cy="-177" rx="18" ry="18"/>
<text text-anchor="middle" x="114" y="-173.3" font-family="Helvetica,sans-Serif" font-size="14.00">6</text>
</g>
<!-- 6&#45;&gt;8 -->
<g id="edge13" class="edge"><title>6&#45;&gt;8</title>
<path fill="none" stroke="black" d="M121.459,-160.253C126.318,-149.995 132.76,-136.396 138.293,-124.714"/>
<polygon fill="black" stroke="black" points="141.556,-126.003 142.674,-115.467 135.23,-123.006 141.556,-126.003"/>
</g>
<!-- m15 -->
<!-- 6&#45;&gt;m15 -->
<!-- 4 -->
<g id="node10" class="node"><title>4</title>
<ellipse fill="none" stroke="black" cx="64" cy="-99" rx="18" ry="18"/>
<text text-anchor="middle" x="64" y="-95.3" font-family="Helvetica,sans-Serif" font-size="14.00">4</text>
</g>
<!-- 6&#45;&gt;4 -->
<g id="edge11" class="edge"><title>6&#45;&gt;4</title>
<path fill="none" stroke="black" d="M104.359,-161.346C97.1892,-150.448 87.2668,-135.366 79.0548,-122.883"/>
<polygon fill="black" stroke="black" points="81.8615,-120.781 73.4413,-114.351 76.0136,-124.629 81.8615,-120.781"/>
</g>
<!-- m6 -->
<!-- 6&#45;&gt;m6 -->
<!-- 5 -->
<g id="node3" class="node"><title>5</title>
<ellipse fill="none" stroke="red" cx="98" cy="-21" rx="18" ry="18"/>
<text text-anchor="middle" x="98" y="-17.3" font-family="Helvetica,sans-Serif" font-size="14.00">5</text>
</g>
<!-- 15 -->
<g id="node4" class="node"><title>15</title>
<ellipse fill="none" stroke="black" cx="161" cy="-255" rx="20.203" ry="20.5982"/>
<text text-anchor="middle" x="161" y="-251.3" font-family="Helvetica,sans-Serif" font-size="14.00">15</text>
</g>
<!-- 15&#45;&gt;6 -->
<g id="edge1" class="edge"><title>15&#45;&gt;6</title>
<path fill="none" stroke="black" d="M150.335,-236.754C143.838,-226.249 135.454,-212.691 128.376,-201.246"/>
<polygon fill="black" stroke="black" points="131.278,-199.284 123.041,-192.62 125.324,-202.966 131.278,-199.284"/>
</g>
<!-- 15&#45;&gt;m15 -->
<!-- 17 -->
<g id="node6" class="node"><title>17</title>
<ellipse fill="none" stroke="black" cx="228" cy="-177" rx="20.203" ry="20.5982"/>
<text text-anchor="middle" x="228" y="-173.3" font-family="Helvetica,sans-Serif" font-size="14.00">17</text>
</g>
<!-- 15&#45;&gt;17 -->
<g id="edge3" class="edge"><title>15&#45;&gt;17</title>
<path fill="none" stroke="black" d="M174.237,-238.985C183.872,-228.055 197.09,-213.062 208.008,-200.677"/>
<polygon fill="black" stroke="black" points="210.803,-202.8 214.79,-192.984 205.552,-198.171 210.803,-202.8"/>
</g>
<!-- m15&#45;&gt;17 -->
<!-- 16 -->
<g id="node14" class="node"><title>16</title>
<ellipse fill="none" stroke="black" cx="207" cy="-99" rx="20.203" ry="20.5982"/>
<text text-anchor="middle" x="207" y="-95.3" font-family="Helvetica,sans-Serif" font-size="14.00">16</text>
</g>
<!-- 17&#45;&gt;16 -->
<g id="edge21" class="edge"><title>17&#45;&gt;16</title>
<path fill="none" stroke="black" d="M222.701,-156.822C220.363,-148.361 217.565,-138.235 214.983,-128.89"/>
<polygon fill="black" stroke="black" points="218.335,-127.878 212.297,-119.172 211.587,-129.743 218.335,-127.878"/>
</g>
<!-- m17 -->
<!-- 17&#45;&gt;m17 -->
<!-- l17 -->
<!-- 17&#45;&gt;l17 -->
<!-- r8&#45;&gt;m8 -->
<!-- m8&#45;&gt;10 -->
<!-- 4&#45;&gt;5 -->
<g id="edge18" class="edge"><title>4&#45;&gt;5</title>
<path fill="none" stroke="black" d="M71.0448,-82.2528C75.6036,-72.0625 81.6371,-58.5759 86.8399,-46.9462"/>
<polygon fill="black" stroke="black" points="90.0754,-48.2846 90.9642,-37.7271 83.6856,-45.426 90.0754,-48.2846"/>
</g>
<!-- 4&#45;&gt;m6 -->
<!-- 3 -->
<g id="node12" class="node"><title>3</title>
<ellipse fill="none" stroke="black" cx="18" cy="-21" rx="18" ry="18"/>
<text text-anchor="middle" x="18" y="-17.3" font-family="Helvetica,sans-Serif" font-size="14.00">3</text>
</g>
<!-- 4&#45;&gt;3 -->
<g id="edge16" class="edge"><title>4&#45;&gt;3</title>
<path fill="none" stroke="black" d="M54.9119,-82.9848C48.4438,-72.2985 39.6245,-57.7274 32.2285,-45.508"/>
<polygon fill="black" stroke="black" points="35.085,-43.468 26.9127,-36.7254 29.0965,-47.0927 35.085,-43.468"/>
</g>
<!-- m4 -->
<!-- 4&#45;&gt;m4 -->
<!-- m6&#45;&gt;8 -->
<!-- 3&#45;&gt;m4 -->
<!-- m4&#45;&gt;5 -->
<!-- 16&#45;&gt;m17 -->
<!-- m17&#45;&gt;l17 -->
</g>
</svg>
