<?xml version="1.0" encoding="UTF-8" standalone="no"?>
<!DOCTYPE svg PUBLIC "-//W3C//DTD SVG 1.1//EN"
 "http://www.w3.org/Graphics/SVG/1.1/DTD/svg11.dtd">
<!-- Generated by graphviz version 2.36.0 (20140111.2315)
 -->
<!-- Title: G Pages: 1 -->
<svg width="117pt" height="254pt"
 viewBox="0.00 0.00 117.00 254.00" xmlns="http://www.w3.org/2000/svg" xmlns:xlink="http://www.w3.org/1999/xlink">
<g id="graph0" class="graph" transform="scale(1 1) rotate(0) translate(4 250)">
<title>G</title>
<polygon fill="white" stroke="none" points="-4,4 -4,-250 113,-250 113,4 -4,4"/>
<!-- 3 -->
<g id="node1" class="node"><title>3</title>
<ellipse fill="none" stroke="black" cx="80" cy="-217" rx="28.5" ry="29"/>
<text text-anchor="middle" x="80" y="-220.8" font-family="Helvetica,sans-Serif" font-size="14.00">3</text>
<text text-anchor="middle" x="80" y="-205.8" font-family="Helvetica,sans-Serif" font-size="14.00">b:&#45;2</text>
</g>
<!-- 1 -->
<g id="node3" class="node"><title>1</title>
<ellipse fill="none" stroke="black" cx="29" cy="-123" rx="29.1811" ry="29.2417"/>
<text text-anchor="middle" x="29" y="-126.8" font-family="Helvetica,sans-Serif" font-size="14.00">1</text>
<text text-anchor="middle" x="29" y="-111.8" font-family="Helvetica,sans-Serif" font-size="14.00">b:+1</text>
</g>
<!-- 3&#45;&gt;1 -->
<g id="edge1" class="edge"><title>3&#45;&gt;1</title>
<path fill="none" stroke="black" d="M66.3329,-191.346C60.6162,-181.033 53.8801,-168.882 47.7146,-157.76"/>
<polygon fill="black" stroke="black" points="50.6143,-155.771 42.7048,-148.722 44.4921,-159.165 50.6143,-155.771"/>
</g>
<!-- m3 -->
<!-- 3&#45;&gt;m3 -->
<!-- r3 -->
<!-- 3&#45;&gt;r3 -->
<!-- 2 -->
<g id="node2" class="node"><title>2</title>
<ellipse fill="none" stroke="black" cx="79" cy="-29" rx="28.5" ry="29"/>
<text text-anchor="middle" x="79" y="-32.8" font-family="Helvetica,sans-Serif" font-size="14.00">2</text>
<text text-anchor="middle" x="79" y="-17.8" font-family="Helvetica,sans-Serif" font-size="14.00">b: 0</text>
</g>
<!-- 1&#45;&gt;2 -->
<g id="edge8" class="edge"><title>1&#45;&gt;2</title>
<path fill="none" stroke="black" d="M42.6627,-96.8606C48.2197,-86.6358 54.7248,-74.6665 60.6832,-63.7029"/>
<polygon fill="black" stroke="black" points="63.8269,-65.248 65.5269,-54.7905 57.6765,-61.9054 63.8269,-65.248"/>
</g>
<!-- 1&#45;&gt;m3 -->
<!-- l1 -->
<!-- 1&#45;&gt;l1 -->
<!-- m1 -->
<!-- 1&#45;&gt;m1 -->
<!-- m3&#45;&gt;r3 -->
<!-- l1&#45;&gt;m1 -->
<!-- m1&#45;&gt;2 -->
</g>
</svg>
