<?xml version="1.0" encoding="UTF-8" standalone="no"?>
<!DOCTYPE svg PUBLIC "-//W3C//DTD SVG 1.1//EN"
 "http://www.w3.org/Graphics/SVG/1.1/DTD/svg11.dtd">
<!-- Generated by graphviz version 2.26.3 (20100126.1600)
 -->
<!-- Title: G Pages: 1 -->
<svg width="415pt" height="342pt"
 viewBox="0.00 0.00 415.00 342.00" xmlns="http://www.w3.org/2000/svg" xmlns:xlink="http://www.w3.org/1999/xlink">
<g id="graph1" class="graph" transform="scale(1 1) rotate(0) translate(4 338)">
<title>G</title>
<polygon fill="white" stroke="white" points="-4,5 -4,-338 412,-338 412,5 -4,5"/>
<!-- 8 -->
<g id="node1" class="node"><title>8</title>
<ellipse fill="none" stroke="green" cx="218" cy="-241" rx="27" ry="19.0919"/>
<text text-anchor="middle" x="218" y="-237.9" font-family="Helvetica,sans-Serif" font-size="14.00">8</text>
</g>
<!-- 6 -->
<g id="node2" class="node"><title>6</title>
<ellipse fill="none" stroke="green" cx="164" cy="-167" rx="27" ry="19.0919"/>
<text text-anchor="middle" x="164" y="-163.9" font-family="Helvetica,sans-Serif" font-size="14.00">6</text>
</g>
<!-- 8&#45;&gt;6 -->
<g id="edge12" class="edge"><title>8&#45;&gt;6</title>
<path fill="none" stroke="black" d="M205.476,-223.837C198.66,-214.497 190.097,-202.763 182.525,-192.386"/>
<polygon fill="black" stroke="black" points="185.178,-190.085 176.456,-184.07 179.524,-194.211 185.178,-190.085"/>
</g>
<!-- m15 -->
<!-- 8&#45;&gt;m15 -->
<!-- m8 -->
<!-- 8&#45;&gt;m8 -->
<!-- 10 -->
<g id="node16" class="node"><title>10</title>
<ellipse fill="none" stroke="black" cx="260" cy="-167" rx="27" ry="19.0919"/>
<text text-anchor="middle" x="260" y="-163.9" font-family="Helvetica,sans-Serif" font-size="14.00">10</text>
</g>
<!-- 8&#45;&gt;10 -->
<g id="edge16" class="edge"><title>8&#45;&gt;10</title>
<path fill="none" stroke="black" d="M228.167,-223.087C233.171,-214.27 239.306,-203.462 244.849,-193.695"/>
<polygon fill="black" stroke="black" points="248.034,-195.173 249.927,-184.748 241.947,-191.718 248.034,-195.173"/>
</g>
<!-- 6&#45;&gt;m8 -->
<!-- 4 -->
<g id="node20" class="node"><title>4</title>
<ellipse fill="none" stroke="black" cx="92" cy="-93" rx="27" ry="19.0919"/>
<text text-anchor="middle" x="92" y="-89.9" font-family="Helvetica,sans-Serif" font-size="14.00">4</text>
</g>
<!-- 6&#45;&gt;4 -->
<g id="edge22" class="edge"><title>6&#45;&gt;4</title>
<path fill="none" stroke="black" d="M148.731,-151.307C138.775,-141.075 125.611,-127.545 114.471,-116.095"/>
<polygon fill="black" stroke="black" points="116.978,-113.653 107.496,-108.926 111.961,-118.534 116.978,-113.653"/>
</g>
<!-- m6 -->
<!-- 6&#45;&gt;m6 -->
<!-- r6 -->
<!-- 6&#45;&gt;r6 -->
<!-- 5 -->
<g id="node3" class="node"><title>5</title>
<ellipse fill="none" stroke="red" cx="123" cy="-19" rx="27" ry="19.0919"/>
<text text-anchor="middle" x="123" y="-15.9" font-family="Helvetica,sans-Serif" font-size="14.00">5</text>
</g>
<!-- 15 -->
<g id="node4" class="node"><title>15</title>
<ellipse fill="none" stroke="black" cx="278" cy="-315" rx="27" ry="19.0919"/>
<text text-anchor="middle" x="278" y="-311.9" font-family="Helvetica,sans-Serif" font-size="14.00">15</text>
</g>
<!-- 15&#45;&gt;8 -->
<g id="edge2" class="edge"><title>15&#45;&gt;8</title>
<path fill="none" stroke="black" d="M264.385,-298.208C256.56,-288.558 246.59,-276.261 237.9,-265.544"/>
<polygon fill="black" stroke="black" points="240.578,-263.289 231.561,-257.725 235.14,-267.697 240.578,-263.289"/>
</g>
<!-- 15&#45;&gt;m15 -->
<!-- 17 -->
<g id="node9" class="node"><title>17</title>
<ellipse fill="none" stroke="black" cx="356" cy="-241" rx="27" ry="19.0919"/>
<text text-anchor="middle" x="356" y="-237.9" font-family="Helvetica,sans-Serif" font-size="14.00">17</text>
</g>
<!-- 15&#45;&gt;17 -->
<g id="edge6" class="edge"><title>15&#45;&gt;17</title>
<path fill="none" stroke="black" d="M294.162,-299.667C305.248,-289.15 320.135,-275.026 332.524,-263.272"/>
<polygon fill="black" stroke="black" points="335.013,-265.735 339.859,-256.313 330.195,-260.657 335.013,-265.735"/>
</g>
<!-- m15&#45;&gt;17 -->
<!-- 16 -->
<g id="node35" class="node"><title>16</title>
<ellipse fill="none" stroke="black" cx="332" cy="-167" rx="27" ry="19.0919"/>
<text text-anchor="middle" x="332" y="-163.9" font-family="Helvetica,sans-Serif" font-size="14.00">16</text>
</g>
<!-- 17&#45;&gt;16 -->
<g id="edge42" class="edge"><title>17&#45;&gt;16</title>
<path fill="none" stroke="black" d="M349.944,-222.327C347.3,-214.176 344.142,-204.438 341.217,-195.42"/>
<polygon fill="black" stroke="black" points="344.469,-194.1 338.054,-185.667 337.81,-196.259 344.469,-194.1"/>
</g>
<!-- m17 -->
<!-- 17&#45;&gt;m17 -->
<!-- l17 -->
<!-- 17&#45;&gt;l17 -->
<!-- m8&#45;&gt;10 -->
<!-- 4&#45;&gt;5 -->
<g id="edge36" class="edge"><title>4&#45;&gt;5</title>
<path fill="none" stroke="black" d="M99.6629,-74.7079C103.203,-66.2582 107.482,-56.0422 111.405,-46.6782"/>
<polygon fill="black" stroke="black" points="114.682,-47.9139 115.318,-37.3382 108.226,-45.2092 114.682,-47.9139"/>
</g>
<!-- 3 -->
<g id="node26" class="node"><title>3</title>
<ellipse fill="none" stroke="black" cx="27" cy="-19" rx="27" ry="19.0919"/>
<text text-anchor="middle" x="27" y="-15.9" font-family="Helvetica,sans-Serif" font-size="14.00">3</text>
</g>
<!-- 4&#45;&gt;3 -->
<g id="edge32" class="edge"><title>4&#45;&gt;3</title>
<path fill="none" stroke="black" d="M77.5744,-76.577C68.9066,-66.7091 57.7239,-53.9779 48.0787,-42.9973"/>
<polygon fill="black" stroke="black" points="50.6143,-40.5805 41.3853,-35.3771 45.3551,-45.2001 50.6143,-40.5805"/>
</g>
<!-- m4 -->
<!-- 4&#45;&gt;m4 -->
<!-- m6&#45;&gt;r6 -->
<!-- 3&#45;&gt;m6 -->
<!-- 3&#45;&gt;m4 -->
<!-- m4&#45;&gt;5 -->
<!-- 16&#45;&gt;m17 -->
<!-- m17&#45;&gt;l17 -->
</g>
</svg>
