<?xml version="1.0" encoding="UTF-8" standalone="no"?>
<!DOCTYPE svg PUBLIC "-//W3C//DTD SVG 1.1//EN"
 "http://www.w3.org/Graphics/SVG/1.1/DTD/svg11.dtd">
<!-- Generated by graphviz version 2.36.0 (20140111.2315)
 -->
<!-- Title: G Pages: 1 -->
<svg width="331pt" height="332pt"
 viewBox="0.00 0.00 331.00 332.00" xmlns="http://www.w3.org/2000/svg" xmlns:xlink="http://www.w3.org/1999/xlink">
<g id="graph0" class="graph" transform="scale(1 1) rotate(0) translate(4 328)">
<title>G</title>
<polygon fill="white" stroke="none" points="-4,4 -4,-328 327,-328 327,4 -4,4"/>
<!-- 4 -->
<g id="node1" class="node"><title>4</title>
<ellipse fill="none" stroke="blue" cx="76" cy="-162" rx="27" ry="18"/>
<text text-anchor="middle" x="76" y="-158.3" font-family="Helvetica,sans-Serif" font-size="14.00">4</text>
</g>
<!-- 6 -->
<g id="node2" class="node"><title>6</title>
<ellipse fill="none" stroke="blue" cx="125" cy="-90" rx="27" ry="18"/>
<text text-anchor="middle" x="125" y="-86.3" font-family="Helvetica,sans-Serif" font-size="14.00">6</text>
</g>
<!-- 4&#45;&gt;6 -->
<g id="edge13" class="edge"><title>4&#45;&gt;6</title>
<path fill="none" stroke="black" d="M86.8747,-145.465C93.1551,-136.493 101.187,-125.019 108.258,-114.918"/>
<polygon fill="black" stroke="black" points="111.288,-116.691 114.156,-106.492 105.554,-112.677 111.288,-116.691"/>
</g>
<!-- m8 -->
<!-- 4&#45;&gt;m8 -->
<!-- 3 -->
<g id="node9" class="node"><title>3</title>
<ellipse fill="none" stroke="black" cx="27" cy="-90" rx="27" ry="18"/>
<text text-anchor="middle" x="27" y="-86.3" font-family="Helvetica,sans-Serif" font-size="14.00">3</text>
</g>
<!-- 4&#45;&gt;3 -->
<g id="edge11" class="edge"><title>4&#45;&gt;3</title>
<path fill="none" stroke="black" d="M65.1253,-145.465C58.8449,-136.493 50.813,-125.019 43.7423,-114.918"/>
<polygon fill="black" stroke="black" points="46.4463,-112.677 37.8443,-106.492 40.7116,-116.691 46.4463,-112.677"/>
</g>
<!-- m4 -->
<!-- 4&#45;&gt;m4 -->
<!-- 5 -->
<g id="node11" class="node"><title>5</title>
<ellipse fill="none" stroke="red" cx="76" cy="-18" rx="27" ry="18"/>
<text text-anchor="middle" x="76" y="-14.3" font-family="Helvetica,sans-Serif" font-size="14.00">5</text>
</g>
<!-- 6&#45;&gt;5 -->
<g id="edge16" class="edge"><title>6&#45;&gt;5</title>
<path fill="none" stroke="red" d="M114.125,-73.4647C107.845,-64.4927 99.813,-53.0185 92.7423,-42.9176"/>
<polygon fill="red" stroke="red" points="95.4463,-40.677 86.8443,-34.4918 89.7116,-44.6913 95.4463,-40.677"/>
</g>
<!-- m6 -->
<!-- 6&#45;&gt;m6 -->
<!-- r6 -->
<!-- 6&#45;&gt;r6 -->
<!-- 15 -->
<g id="node3" class="node"><title>15</title>
<ellipse fill="none" stroke="black" cx="191" cy="-306" rx="27" ry="18"/>
<text text-anchor="middle" x="191" y="-302.3" font-family="Helvetica,sans-Serif" font-size="14.00">15</text>
</g>
<!-- 8 -->
<g id="node4" class="node"><title>8</title>
<ellipse fill="none" stroke="black" cx="131" cy="-234" rx="27" ry="18"/>
<text text-anchor="middle" x="131" y="-230.3" font-family="Helvetica,sans-Serif" font-size="14.00">8</text>
</g>
<!-- 15&#45;&gt;8 -->
<g id="edge1" class="edge"><title>15&#45;&gt;8</title>
<path fill="none" stroke="black" d="M177.981,-289.811C169.961,-280.455 159.527,-268.282 150.53,-257.785"/>
<polygon fill="black" stroke="black" points="153.159,-255.474 143.994,-250.159 147.844,-260.03 153.159,-255.474"/>
</g>
<!-- m15 -->
<!-- 15&#45;&gt;m15 -->
<!-- 17 -->
<g id="node6" class="node"><title>17</title>
<ellipse fill="none" stroke="black" cx="270" cy="-234" rx="27" ry="18"/>
<text text-anchor="middle" x="270" y="-230.3" font-family="Helvetica,sans-Serif" font-size="14.00">17</text>
</g>
<!-- 15&#45;&gt;17 -->
<g id="edge3" class="edge"><title>15&#45;&gt;17</title>
<path fill="none" stroke="black" d="M206.608,-291.17C218.077,-281.008 233.851,-267.03 246.795,-255.561"/>
<polygon fill="black" stroke="black" points="249.261,-258.053 254.425,-248.801 244.619,-252.813 249.261,-258.053"/>
</g>
<!-- 8&#45;&gt;4 -->
<g id="edge6" class="edge"><title>8&#45;&gt;4</title>
<path fill="none" stroke="black" d="M119.066,-217.811C111.786,-208.546 102.337,-196.52 94.1456,-186.094"/>
<polygon fill="black" stroke="black" points="96.8413,-183.86 87.9109,-178.159 91.337,-188.185 96.8413,-183.86"/>
</g>
<!-- 8&#45;&gt;m15 -->
<!-- 8&#45;&gt;m8 -->
<!-- 10 -->
<g id="node8" class="node"><title>10</title>
<ellipse fill="none" stroke="black" cx="174" cy="-162" rx="27" ry="18"/>
<text text-anchor="middle" x="174" y="-158.3" font-family="Helvetica,sans-Serif" font-size="14.00">10</text>
</g>
<!-- 8&#45;&gt;10 -->
<g id="edge8" class="edge"><title>8&#45;&gt;10</title>
<path fill="none" stroke="black" d="M140.757,-217.116C146.145,-208.345 152.952,-197.264 159.001,-187.416"/>
<polygon fill="black" stroke="black" points="162.029,-189.174 164.281,-178.821 156.065,-185.51 162.029,-189.174"/>
</g>
<!-- m15&#45;&gt;17 -->
<!-- 16 -->
<g id="node14" class="node"><title>16</title>
<ellipse fill="none" stroke="black" cx="246" cy="-162" rx="27" ry="18"/>
<text text-anchor="middle" x="246" y="-158.3" font-family="Helvetica,sans-Serif" font-size="14.00">16</text>
</g>
<!-- 17&#45;&gt;16 -->
<g id="edge21" class="edge"><title>17&#45;&gt;16</title>
<path fill="none" stroke="black" d="M264.19,-216.055C261.449,-208.059 258.113,-198.331 255.051,-189.4"/>
<polygon fill="black" stroke="black" points="258.31,-188.113 251.756,-179.789 251.689,-190.384 258.31,-188.113"/>
</g>
<!-- m17 -->
<!-- 17&#45;&gt;m17 -->
<!-- l17 -->
<!-- 17&#45;&gt;l17 -->
<!-- m8&#45;&gt;10 -->
<!-- 3&#45;&gt;m4 -->
<!-- m4&#45;&gt;6 -->
<!-- 5&#45;&gt;m6 -->
<!-- m6&#45;&gt;r6 -->
<!-- 16&#45;&gt;m17 -->
<!-- m17&#45;&gt;l17 -->
</g>
</svg>
