<?xml version="1.0" encoding="UTF-8" standalone="no"?>
<!DOCTYPE svg PUBLIC "-//W3C//DTD SVG 1.1//EN"
 "http://www.w3.org/Graphics/SVG/1.1/DTD/svg11.dtd">
<!-- Generated by graphviz version 2.36.0 (20140111.2315)
 -->
<!-- Title: G Pages: 1 -->
<svg width="268pt" height="336pt"
 viewBox="0.00 0.00 268.00 336.00" xmlns="http://www.w3.org/2000/svg" xmlns:xlink="http://www.w3.org/1999/xlink">
<g id="graph0" class="graph" transform="scale(1 1) rotate(0) translate(4 332)">
<title>G</title>
<polygon fill="white" stroke="none" points="-4,4 -4,-332 264,-332 264,4 -4,4"/>
<!-- X -->
<g id="node1" class="node"><title>X</title>
<polygon fill="none" stroke="black" points="50,-144 -0.203437,-36 100.203,-36 50,-144"/>
<text text-anchor="middle" x="50" y="-75.8" font-family="Helvetica,sans-Serif" font-size="14.00">X</text>
<text text-anchor="middle" x="50" y="-60.8" font-family="Helvetica,sans-Serif" font-size="14.00">(h+1)</text>
</g>
<!-- mb -->
<!-- X&#45;&gt;mb -->
<!-- Y -->
<g id="node2" class="node"><title>Y</title>
<polygon fill="none" stroke="black" points="182,-110 143.72,-53 220.28,-53 182,-110"/>
<text text-anchor="middle" x="182" y="-75.8" font-family="Helvetica,sans-Serif" font-size="14.00">Y</text>
<text text-anchor="middle" x="182" y="-60.8" font-family="Helvetica,sans-Serif" font-size="14.00">(h)</text>
</g>
<!-- Z -->
<g id="node3" class="node"><title>Z</title>
<polygon fill="none" stroke="black" points="222,-256 183.72,-199 260.28,-199 222,-256"/>
<text text-anchor="middle" x="222" y="-221.8" font-family="Helvetica,sans-Serif" font-size="14.00">Z</text>
<text text-anchor="middle" x="222" y="-206.8" font-family="Helvetica,sans-Serif" font-size="14.00">(h)</text>
</g>
<!-- a -->
<g id="node4" class="node"><title>a</title>
<ellipse fill="none" stroke="black" cx="162" cy="-310" rx="18" ry="18"/>
<text text-anchor="middle" x="162" y="-306.3" font-family="Helvetica,sans-Serif" font-size="14.00">a</text>
</g>
<!-- a&#45;&gt;Z -->
<g id="edge3" class="edge"><title>a&#45;&gt;Z:n</title>
<path fill="none" stroke="black" d="M178.713,-302.653C193.693,-295.937 214.211,-283.865 220.257,-266.315"/>
<polygon fill="black" stroke="black" points="223.785,-266.443 222,-256 216.883,-265.277 223.785,-266.443"/>
</g>
<!-- b -->
<g id="node5" class="node"><title>b</title>
<ellipse fill="none" stroke="black" cx="122" cy="-218" rx="18" ry="18"/>
<text text-anchor="middle" x="122" y="-214.3" font-family="Helvetica,sans-Serif" font-size="14.00">b</text>
</g>
<!-- a&#45;&gt;b -->
<g id="edge1" class="edge"><title>a&#45;&gt;b</title>
<path fill="none" stroke="black" d="M155.033,-293.323C148.99,-279.727 140.136,-259.805 133.115,-244.008"/>
<polygon fill="black" stroke="black" points="136.282,-242.516 129.022,-234.799 129.885,-245.359 136.282,-242.516"/>
</g>
<!-- ma -->
<!-- a&#45;&gt;ma -->
<!-- b&#45;&gt;X -->
<g id="edge6" class="edge"><title>b&#45;&gt;X:n</title>
<path fill="none" stroke="black" d="M106.021,-209.623C87.1291,-199.806 57.4518,-180.556 51.1859,-154.078"/>
<polygon fill="black" stroke="black" points="54.6448,-153.522 50,-144 47.6927,-154.341 54.6448,-153.522"/>
</g>
<!-- b&#45;&gt;Y -->
<g id="edge8" class="edge"><title>b&#45;&gt;Y:n</title>
<path fill="none" stroke="black" d="M132.178,-203.125C146.889,-182.596 173.11,-144.073 180.194,-120.961"/>
<polygon fill="black" stroke="black" points="183.66,-121.464 182,-111 176.772,-120.215 183.66,-121.464"/>
</g>
<!-- b&#45;&gt;ma -->
<!-- b&#45;&gt;mb -->
<!-- ma&#45;&gt;Z -->
<!-- mb&#45;&gt;Y -->
</g>
</svg>
