<?xml version="1.0" encoding="UTF-8" standalone="no"?>
<!DOCTYPE svg PUBLIC "-//W3C//DTD SVG 1.1//EN"
 "http://www.w3.org/Graphics/SVG/1.1/DTD/svg11.dtd">
<!-- Generated by graphviz version 2.26.3 (20100126.1600)
 -->
<!-- Title: G Pages: 1 -->
<svg width="158pt" height="176pt"
 viewBox="0.00 0.00 158.00 176.00" xmlns="http://www.w3.org/2000/svg" xmlns:xlink="http://www.w3.org/1999/xlink">
<g id="graph1" class="graph" transform="scale(1 1) rotate(0) translate(4 172)">
<title>G</title>
<polygon fill="white" stroke="white" points="-4,5 -4,-172 155,-172 155,5 -4,5"/>
<!-- 3 -->
<g id="node1" class="node"><title>3</title>
<ellipse fill="none" stroke="red" cx="123" cy="-33" rx="27" ry="32.5269"/>
<text text-anchor="middle" x="123" y="-39.4" font-family="Helvetica,sans-Serif" font-size="14.00" fill="red">3</text>
<text text-anchor="middle" x="123" y="-20.4" font-family="Helvetica,sans-Serif" font-size="14.00" fill="red">b:0</text>
</g>
<!-- 2 -->
<g id="node2" class="node"><title>2</title>
<ellipse fill="none" stroke="green" cx="75" cy="-135" rx="27" ry="32.5269"/>
<text text-anchor="middle" x="75" y="-141.4" font-family="Helvetica,sans-Serif" font-size="14.00" fill="green">2</text>
<text text-anchor="middle" x="75" y="-122.4" font-family="Helvetica,sans-Serif" font-size="14.00" fill="green">b:0</text>
</g>
<!-- 2&#45;&gt;3 -->
<g id="edge6" class="edge"><title>2&#45;&gt;3</title>
<path fill="none" stroke="black" d="M88.3707,-106.587C93.5801,-95.5172 99.6269,-82.6678 105.196,-70.8337"/>
<polygon fill="black" stroke="black" points="108.443,-72.1526 109.535,-61.6141 102.11,-69.172 108.443,-72.1526"/>
</g>
<!-- 1 -->
<g id="node3" class="node"><title>1</title>
<ellipse fill="none" stroke="blue" cx="27" cy="-33" rx="27" ry="32.5269"/>
<text text-anchor="middle" x="27" y="-39.4" font-family="Helvetica,sans-Serif" font-size="14.00" fill="blue">1</text>
<text text-anchor="middle" x="27" y="-20.4" font-family="Helvetica,sans-Serif" font-size="14.00" fill="blue">b:0</text>
</g>
<!-- 2&#45;&gt;1 -->
<g id="edge2" class="edge"><title>2&#45;&gt;1</title>
<path fill="none" stroke="black" d="M61.6293,-106.587C56.4199,-95.5172 50.3731,-82.6678 44.8041,-70.8337"/>
<polygon fill="black" stroke="black" points="47.8903,-69.172 40.4654,-61.6141 41.5566,-72.1526 47.8903,-69.172"/>
</g>
<!-- m2 -->
<!-- 2&#45;&gt;m2 -->
<!-- 1&#45;&gt;m2 -->
<!-- m2&#45;&gt;3 -->
</g>
</svg>
