<?xml version="1.0" encoding="UTF-8" standalone="no"?>
<!DOCTYPE svg PUBLIC "-//W3C//DTD SVG 1.1//EN"
 "http://www.w3.org/Graphics/SVG/1.1/DTD/svg11.dtd">
<!-- Generated by graphviz version 2.36.0 (20140111.2315)
 -->
<!-- Title: G Pages: 1 -->
<svg width="253pt" height="336pt"
 viewBox="0.00 0.00 253.00 336.00" xmlns="http://www.w3.org/2000/svg" xmlns:xlink="http://www.w3.org/1999/xlink">
<g id="graph0" class="graph" transform="scale(1 1) rotate(0) translate(4 332)">
<title>G</title>
<polygon fill="white" stroke="none" points="-4,4 -4,-332 249,-332 249,4 -4,4"/>
<!-- X -->
<g id="node1" class="node"><title>X</title>
<polygon fill="none" stroke="black" points="38,-256 -0.279814,-199 76.2798,-199 38,-256"/>
<text text-anchor="middle" x="38" y="-221.8" font-family="Helvetica,sans-Serif" font-size="14.00">X</text>
<text text-anchor="middle" x="38" y="-206.8" font-family="Helvetica,sans-Serif" font-size="14.00">(h)</text>
</g>
<!-- mb -->
<!-- X&#45;&gt;mb -->
<!-- Y -->
<g id="node2" class="node"><title>Y</title>
<polygon fill="none" stroke="black" points="75,-144 24.7966,-36 125.203,-36 75,-144"/>
<text text-anchor="middle" x="75" y="-75.8" font-family="Helvetica,sans-Serif" font-size="14.00">Y</text>
<text text-anchor="middle" x="75" y="-60.8" font-family="Helvetica,sans-Serif" font-size="14.00">(h+1)</text>
</g>
<!-- ma -->
<!-- Y&#45;&gt;ma -->
<!-- Z -->
<g id="node3" class="node"><title>Z</title>
<polygon fill="none" stroke="black" points="207,-110 168.72,-53 245.28,-53 207,-110"/>
<text text-anchor="middle" x="207" y="-75.8" font-family="Helvetica,sans-Serif" font-size="14.00">Z</text>
<text text-anchor="middle" x="207" y="-60.8" font-family="Helvetica,sans-Serif" font-size="14.00">(h)</text>
</g>
<!-- b -->
<g id="node4" class="node"><title>b</title>
<ellipse fill="none" stroke="black" cx="98" cy="-310" rx="27" ry="18"/>
<text text-anchor="middle" x="98" y="-306.3" font-family="Helvetica,sans-Serif" font-size="14.00">b</text>
</g>
<!-- b&#45;&gt;X -->
<g id="edge1" class="edge"><title>b&#45;&gt;X:n</title>
<path fill="none" stroke="black" d="M75.3166,-299.816C61.2459,-292.735 44.8884,-281.535 39.6812,-266.134"/>
<polygon fill="black" stroke="black" points="43.0895,-265.292 38,-256 36.1839,-266.438 43.0895,-265.292"/>
</g>
<!-- b&#45;&gt;mb -->
<!-- a -->
<g id="node6" class="node"><title>a</title>
<ellipse fill="none" stroke="black" cx="147" cy="-218" rx="27" ry="18"/>
<text text-anchor="middle" x="147" y="-214.3" font-family="Helvetica,sans-Serif" font-size="14.00">a</text>
</g>
<!-- b&#45;&gt;a -->
<g id="edge3" class="edge"><title>b&#45;&gt;a</title>
<path fill="none" stroke="black" d="M106.76,-292.91C114.101,-279.427 124.71,-259.941 133.192,-244.361"/>
<polygon fill="black" stroke="black" points="136.443,-245.711 138.15,-235.254 130.295,-242.363 136.443,-245.711"/>
</g>
<!-- mb&#45;&gt;a -->
<!-- a&#45;&gt;Y -->
<g id="edge6" class="edge"><title>a&#45;&gt;Y:n</title>
<path fill="none" stroke="black" d="M132.43,-202.481C117.144,-187.224 93.7535,-163.8 82.1048,-151.742"/>
<polygon fill="black" stroke="black" points="84.34,-149.002 75,-144 79.1824,-153.734 84.34,-149.002"/>
</g>
<!-- a&#45;&gt;Z -->
<g id="edge8" class="edge"><title>a&#45;&gt;Z:n</title>
<path fill="none" stroke="black" d="M161.524,-202.666C177.617,-185.334 201.89,-154.351 206.3,-121.308"/>
<polygon fill="black" stroke="black" points="209.815,-121.214 207,-111 202.831,-120.74 209.815,-121.214"/>
</g>
<!-- a&#45;&gt;ma -->
<!-- ma&#45;&gt;Z -->
</g>
</svg>
