<?xml version="1.0" encoding="UTF-8" standalone="no"?>
<!DOCTYPE svg PUBLIC "-//W3C//DTD SVG 1.1//EN"
 "http://www.w3.org/Graphics/SVG/1.1/DTD/svg11.dtd">
<!-- Generated by graphviz version 2.36.0 (20140111.2315)
 -->
<!-- Title: G Pages: 1 -->
<svg width="325pt" height="284pt"
 viewBox="0.00 0.00 325.00 284.00" xmlns="http://www.w3.org/2000/svg" xmlns:xlink="http://www.w3.org/1999/xlink">
<g id="graph0" class="graph" transform="scale(1 1) rotate(0) translate(4 280)">
<title>G</title>
<polygon fill="white" stroke="none" points="-4,4 -4,-280 321,-280 321,4 -4,4"/>
<!-- 3 -->
<g id="node1" class="node"><title>3</title>
<ellipse fill="none" stroke="blue" cx="120" cy="-177" rx="18" ry="18"/>
<text text-anchor="middle" x="120" y="-173.3" font-family="Helvetica,sans-Serif" font-size="14.00">3</text>
</g>
<!-- 5 -->
<g id="node2" class="node"><title>5</title>
<ellipse fill="none" stroke="blue" cx="156" cy="-99" rx="18" ry="18"/>
<text text-anchor="middle" x="156" y="-95.3" font-family="Helvetica,sans-Serif" font-size="14.00">5</text>
</g>
<!-- 3&#45;&gt;5 -->
<g id="edge13" class="edge"><title>3&#45;&gt;5</title>
<path fill="none" stroke="black" d="M127.459,-160.253C132.318,-149.995 138.76,-136.396 144.293,-124.714"/>
<polygon fill="black" stroke="black" points="147.556,-126.003 148.674,-115.467 141.23,-123.006 147.556,-126.003"/>
</g>
<!-- m15 -->
<!-- 3&#45;&gt;m15 -->
<!-- 2 -->
<g id="node9" class="node"><title>2</title>
<ellipse fill="none" stroke="black" cx="64" cy="-99" rx="18" ry="18"/>
<text text-anchor="middle" x="64" y="-95.3" font-family="Helvetica,sans-Serif" font-size="14.00">2</text>
</g>
<!-- 3&#45;&gt;2 -->
<g id="edge11" class="edge"><title>3&#45;&gt;2</title>
<path fill="none" stroke="black" d="M109.729,-162.06C101.519,-150.919 89.8551,-135.089 80.3622,-122.206"/>
<polygon fill="black" stroke="black" points="82.9559,-119.826 74.2061,-113.851 77.3205,-123.978 82.9559,-119.826"/>
</g>
<!-- m3 -->
<!-- 3&#45;&gt;m3 -->
<!-- 4 -->
<g id="node6" class="node"><title>4</title>
<ellipse fill="none" stroke="black" cx="123" cy="-21" rx="18" ry="18"/>
<text text-anchor="middle" x="123" y="-17.3" font-family="Helvetica,sans-Serif" font-size="14.00">4</text>
</g>
<!-- 5&#45;&gt;4 -->
<g id="edge6" class="edge"><title>5&#45;&gt;4</title>
<path fill="none" stroke="black" d="M149.162,-82.2528C144.738,-72.0625 138.882,-58.5759 133.832,-46.9462"/>
<polygon fill="black" stroke="black" points="137.022,-45.5057 129.829,-37.7271 130.601,-48.2937 137.022,-45.5057"/>
</g>
<!-- m5 -->
<!-- 5&#45;&gt;m5 -->
<!-- 10 -->
<g id="node8" class="node"><title>10</title>
<ellipse fill="none" stroke="black" cx="205" cy="-21" rx="20.203" ry="20.5982"/>
<text text-anchor="middle" x="205" y="-17.3" font-family="Helvetica,sans-Serif" font-size="14.00">10</text>
</g>
<!-- 5&#45;&gt;10 -->
<g id="edge8" class="edge"><title>5&#45;&gt;10</title>
<path fill="none" stroke="black" d="M165.448,-83.3464C172.007,-73.1722 180.918,-59.3523 188.62,-47.4051"/>
<polygon fill="black" stroke="black" points="191.739,-49.0267 194.216,-38.7255 185.856,-45.2336 191.739,-49.0267"/>
</g>
<!-- 15 -->
<g id="node3" class="node"><title>15</title>
<ellipse fill="none" stroke="black" cx="167" cy="-255" rx="20.203" ry="20.5982"/>
<text text-anchor="middle" x="167" y="-251.3" font-family="Helvetica,sans-Serif" font-size="14.00">15</text>
</g>
<!-- 15&#45;&gt;3 -->
<g id="edge1" class="edge"><title>15&#45;&gt;3</title>
<path fill="none" stroke="black" d="M156.335,-236.754C149.838,-226.249 141.454,-212.691 134.376,-201.246"/>
<polygon fill="black" stroke="black" points="137.278,-199.284 129.041,-192.62 131.324,-202.966 137.278,-199.284"/>
</g>
<!-- 15&#45;&gt;m15 -->
<!-- 20 -->
<g id="node5" class="node"><title>20</title>
<ellipse fill="none" stroke="black" cx="234" cy="-177" rx="20.203" ry="20.5982"/>
<text text-anchor="middle" x="234" y="-173.3" font-family="Helvetica,sans-Serif" font-size="14.00">20</text>
</g>
<!-- 15&#45;&gt;20 -->
<g id="edge3" class="edge"><title>15&#45;&gt;20</title>
<path fill="none" stroke="black" d="M180.237,-238.985C189.872,-228.055 203.09,-213.062 214.008,-200.677"/>
<polygon fill="black" stroke="black" points="216.803,-202.8 220.79,-192.984 211.552,-198.171 216.803,-202.8"/>
</g>
<!-- m15&#45;&gt;20 -->
<!-- 17 -->
<g id="node14" class="node"><title>17</title>
<ellipse fill="none" stroke="black" cx="213" cy="-99" rx="20.203" ry="20.5982"/>
<text text-anchor="middle" x="213" y="-95.3" font-family="Helvetica,sans-Serif" font-size="14.00">17</text>
</g>
<!-- 20&#45;&gt;17 -->
<g id="edge21" class="edge"><title>20&#45;&gt;17</title>
<path fill="none" stroke="black" d="M228.701,-156.822C226.363,-148.361 223.565,-138.235 220.983,-128.89"/>
<polygon fill="black" stroke="black" points="224.335,-127.878 218.297,-119.172 217.587,-129.743 224.335,-127.878"/>
</g>
<!-- m20 -->
<!-- 20&#45;&gt;m20 -->
<!-- 21 -->
<g id="node16" class="node"><title>21</title>
<ellipse fill="none" stroke="black" cx="297" cy="-99" rx="20.203" ry="20.5982"/>
<text text-anchor="middle" x="297" y="-95.3" font-family="Helvetica,sans-Serif" font-size="14.00">21</text>
</g>
<!-- 20&#45;&gt;21 -->
<g id="edge23" class="edge"><title>20&#45;&gt;21</title>
<path fill="none" stroke="black" d="M246.749,-160.62C255.63,-149.907 267.637,-135.422 277.687,-123.298"/>
<polygon fill="black" stroke="black" points="280.583,-125.289 284.27,-115.357 275.193,-120.822 280.583,-125.289"/>
</g>
<!-- 4&#45;&gt;m5 -->
<!-- m5&#45;&gt;10 -->
<!-- 2&#45;&gt;m3 -->
<!-- 1 -->
<g id="node11" class="node"><title>1</title>
<ellipse fill="none" stroke="black" cx="18" cy="-21" rx="18" ry="18"/>
<text text-anchor="middle" x="18" y="-17.3" font-family="Helvetica,sans-Serif" font-size="14.00">1</text>
</g>
<!-- 2&#45;&gt;1 -->
<g id="edge16" class="edge"><title>2&#45;&gt;1</title>
<path fill="none" stroke="black" d="M54.9119,-82.9848C48.4438,-72.2985 39.6245,-57.7274 32.2285,-45.508"/>
<polygon fill="black" stroke="black" points="35.085,-43.468 26.9127,-36.7254 29.0965,-47.0927 35.085,-43.468"/>
</g>
<!-- m2 -->
<!-- 2&#45;&gt;m2 -->
<!-- r2 -->
<!-- 2&#45;&gt;r2 -->
<!-- m3&#45;&gt;5 -->
<!-- 1&#45;&gt;m2 -->
<!-- m2&#45;&gt;r2 -->
<!-- 17&#45;&gt;m20 -->
<!-- m20&#45;&gt;21 -->
</g>
</svg>
