<?xml version="1.0" encoding="UTF-8" standalone="no"?>
<!DOCTYPE svg PUBLIC "-//W3C//DTD SVG 1.1//EN"
 "http://www.w3.org/Graphics/SVG/1.1/DTD/svg11.dtd">
<!-- Generated by graphviz version 2.36.0 (20140111.2315)
 -->
<!-- Title: G Pages: 1 -->
<svg width="160pt" height="152pt"
 viewBox="0.00 0.00 160.00 152.00" xmlns="http://www.w3.org/2000/svg" xmlns:xlink="http://www.w3.org/1999/xlink">
<g id="graph0" class="graph" transform="scale(1 1) rotate(0) translate(4 148)">
<title>G</title>
<polygon fill="white" stroke="none" points="-4,4 -4,-148 156,-148 156,4 -4,4"/>
<!-- 3 -->
<g id="node1" class="node"><title>3</title>
<ellipse fill="none" stroke="red" cx="125" cy="-27" rx="27" ry="26.7407"/>
<text text-anchor="middle" x="125" y="-30.8" font-family="Helvetica,sans-Serif" font-size="14.00" fill="red">3</text>
<text text-anchor="middle" x="125" y="-15.8" font-family="Helvetica,sans-Serif" font-size="14.00" fill="red">b:0</text>
</g>
<!-- 2 -->
<g id="node2" class="node"><title>2</title>
<ellipse fill="none" stroke="green" cx="76" cy="-117" rx="27" ry="26.7407"/>
<text text-anchor="middle" x="76" y="-120.8" font-family="Helvetica,sans-Serif" font-size="14.00" fill="green">2</text>
<text text-anchor="middle" x="76" y="-105.8" font-family="Helvetica,sans-Serif" font-size="14.00" fill="green">b:0</text>
</g>
<!-- 2&#45;&gt;3 -->
<g id="edge3" class="edge"><title>2&#45;&gt;3</title>
<path fill="none" stroke="black" d="M88.8742,-92.879C94.5009,-82.7739 101.193,-70.756 107.279,-59.826"/>
<polygon fill="black" stroke="black" points="110.405,-61.4062 112.212,-50.9665 104.289,-58.0007 110.405,-61.4062"/>
</g>
<!-- 1 -->
<g id="node3" class="node"><title>1</title>
<ellipse fill="none" stroke="blue" cx="27" cy="-27" rx="27" ry="26.7407"/>
<text text-anchor="middle" x="27" y="-30.8" font-family="Helvetica,sans-Serif" font-size="14.00" fill="blue">1</text>
<text text-anchor="middle" x="27" y="-15.8" font-family="Helvetica,sans-Serif" font-size="14.00" fill="blue">b:0</text>
</g>
<!-- 2&#45;&gt;1 -->
<g id="edge1" class="edge"><title>2&#45;&gt;1</title>
<path fill="none" stroke="black" d="M63.1258,-92.879C57.4991,-82.7739 50.8073,-70.756 44.7213,-59.826"/>
<polygon fill="black" stroke="black" points="47.711,-58.0007 39.7882,-50.9665 41.5952,-61.4062 47.711,-58.0007"/>
</g>
<!-- m2 -->
<!-- 2&#45;&gt;m2 -->
<!-- 1&#45;&gt;m2 -->
<!-- m2&#45;&gt;3 -->
</g>
</svg>
