<?xml version="1.0" encoding="UTF-8" standalone="no"?>
<!DOCTYPE svg PUBLIC "-//W3C//DTD SVG 1.1//EN"
 "http://www.w3.org/Graphics/SVG/1.1/DTD/svg11.dtd">
<!-- Generated by graphviz version 2.36.0 (20140111.2315)
 -->
<!-- Title: G Pages: 1 -->
<svg width="167pt" height="254pt"
 viewBox="0.00 0.00 167.00 254.00" xmlns="http://www.w3.org/2000/svg" xmlns:xlink="http://www.w3.org/1999/xlink">
<g id="graph0" class="graph" transform="scale(1 1) rotate(0) translate(4 250)">
<title>G</title>
<polygon fill="white" stroke="none" points="-4,4 -4,-250 163,-250 163,4 -4,4"/>
<!-- 3 -->
<g id="node1" class="node"><title>3</title>
<ellipse fill="none" stroke="black" cx="130" cy="-29" rx="28.5" ry="29"/>
<text text-anchor="middle" x="130" y="-32.8" font-family="Helvetica,sans-Serif" font-size="14.00">3</text>
<text text-anchor="middle" x="130" y="-17.8" font-family="Helvetica,sans-Serif" font-size="14.00">b: 0</text>
</g>
<!-- 2 -->
<g id="node2" class="node"><title>2</title>
<ellipse fill="none" stroke="black" cx="80" cy="-123" rx="29.1811" ry="29.2417"/>
<text text-anchor="middle" x="80" y="-126.8" font-family="Helvetica,sans-Serif" font-size="14.00">2</text>
<text text-anchor="middle" x="80" y="-111.8" font-family="Helvetica,sans-Serif" font-size="14.00">b:+1</text>
</g>
<!-- 2&#45;&gt;3 -->
<g id="edge8" class="edge"><title>2&#45;&gt;3</title>
<path fill="none" stroke="black" d="M93.6627,-96.8606C99.2197,-86.6358 105.725,-74.6665 111.683,-63.7029"/>
<polygon fill="black" stroke="black" points="114.827,-65.248 116.527,-54.7905 108.677,-61.9054 114.827,-65.248"/>
</g>
<!-- l2 -->
<!-- 2&#45;&gt;l2 -->
<!-- m2 -->
<!-- 2&#45;&gt;m2 -->
<!-- 1 -->
<g id="node3" class="node"><title>1</title>
<ellipse fill="none" stroke="black" cx="29" cy="-217" rx="29.1811" ry="29.2417"/>
<text text-anchor="middle" x="29" y="-220.8" font-family="Helvetica,sans-Serif" font-size="14.00">1</text>
<text text-anchor="middle" x="29" y="-205.8" font-family="Helvetica,sans-Serif" font-size="14.00">b:+2</text>
</g>
<!-- 1&#45;&gt;2 -->
<g id="edge3" class="edge"><title>1&#45;&gt;2</title>
<path fill="none" stroke="black" d="M42.936,-190.861C48.6041,-180.636 55.2392,-168.666 61.3169,-157.703"/>
<polygon fill="black" stroke="black" points="64.4702,-159.233 66.2575,-148.79 58.3479,-155.84 64.4702,-159.233"/>
</g>
<!-- l1 -->
<!-- 1&#45;&gt;l1 -->
<!-- m1 -->
<!-- 1&#45;&gt;m1 -->
<!-- l1&#45;&gt;m1 -->
<!-- m1&#45;&gt;2 -->
<!-- l2&#45;&gt;m2 -->
<!-- m2&#45;&gt;3 -->
</g>
</svg>
