<?xml version="1.0" encoding="UTF-8" standalone="no"?>
<!DOCTYPE svg PUBLIC "-//W3C//DTD SVG 1.1//EN"
 "http://www.w3.org/Graphics/SVG/1.1/DTD/svg11.dtd">
<!-- Generated by graphviz version 2.36.0 (20140111.2315)
 -->
<!-- Title: G Pages: 1 -->
<svg width="273pt" height="584pt"
 viewBox="0.00 0.00 273.00 584.00" xmlns="http://www.w3.org/2000/svg" xmlns:xlink="http://www.w3.org/1999/xlink">
<g id="graph0" class="graph" transform="scale(1 1) rotate(0) translate(4 580)">
<title>G</title>
<polygon fill="white" stroke="none" points="-4,4 -4,-580 269,-580 269,4 -4,4"/>
<!-- W -->
<g id="node1" class="node"><title>W</title>
<polygon fill="none" stroke="black" points="34,-324 -0.319769,-216 68.3198,-216 34,-324"/>
<text text-anchor="middle" x="34" y="-255.8" font-family="Helvetica,sans-Serif" font-size="14.00">W</text>
<text text-anchor="middle" x="34" y="-240.8" font-family="Helvetica,sans-Serif" font-size="14.00">(h)</text>
</g>
<!-- mb -->
<!-- W&#45;&gt;mb -->
<!-- X -->
<g id="node2" class="node"><title>X</title>
<polygon fill="none" stroke="black" points="83,-144 48.6802,-36 117.32,-36 83,-144"/>
<text text-anchor="middle" x="83" y="-75.8" font-family="Helvetica,sans-Serif" font-size="14.00">X</text>
<text text-anchor="middle" x="83" y="-60.8" font-family="Helvetica,sans-Serif" font-size="14.00">(h)</text>
</g>
<!-- mc -->
<!-- X&#45;&gt;mc -->
<!-- Y -->
<g id="node3" class="node"><title>Y</title>
<polygon fill="none" stroke="black" points="213,-110 160.53,-53 265.47,-53 213,-110"/>
<text text-anchor="middle" x="213" y="-75.8" font-family="Helvetica,sans-Serif" font-size="14.00">Y</text>
<text text-anchor="middle" x="213" y="-60.8" font-family="Helvetica,sans-Serif" font-size="14.00">(h&#45;1)</text>
</g>
<!-- Z -->
<g id="node4" class="node"><title>Z</title>
<polygon fill="none" stroke="black" points="195,-504 160.68,-396 229.32,-396 195,-504"/>
<text text-anchor="middle" x="195" y="-435.8" font-family="Helvetica,sans-Serif" font-size="14.00">Z</text>
<text text-anchor="middle" x="195" y="-420.8" font-family="Helvetica,sans-Serif" font-size="14.00">(h)</text>
</g>
<!-- a -->
<g id="node5" class="node"><title>a</title>
<ellipse fill="none" stroke="black" cx="139" cy="-558" rx="27" ry="18"/>
<text text-anchor="middle" x="139" y="-554.3" font-family="Helvetica,sans-Serif" font-size="14.00">a</text>
</g>
<!-- a&#45;&gt;Z -->
<g id="edge3" class="edge"><title>a&#45;&gt;Z:n</title>
<path fill="none" stroke="black" d="M160.811,-547.059C173.71,-539.818 188.453,-528.723 193.334,-514.108"/>
<polygon fill="black" stroke="black" points="196.828,-514.436 195,-504 189.921,-513.298 196.828,-514.436"/>
</g>
<!-- b -->
<g id="node6" class="node"><title>b</title>
<ellipse fill="none" stroke="black" cx="90" cy="-432" rx="27" ry="18"/>
<text text-anchor="middle" x="90" y="-428.3" font-family="Helvetica,sans-Serif" font-size="14.00">b</text>
</g>
<!-- a&#45;&gt;b -->
<g id="edge1" class="edge"><title>a&#45;&gt;b</title>
<path fill="none" stroke="black" d="M132.392,-540.277C124.172,-519.476 110.045,-483.727 100.376,-459.257"/>
<polygon fill="black" stroke="black" points="103.59,-457.868 96.6602,-449.854 97.0802,-460.441 103.59,-457.868"/>
</g>
<!-- ma -->
<!-- a&#45;&gt;ma -->
<!-- b&#45;&gt;W -->
<g id="edge6" class="edge"><title>b&#45;&gt;W:n</title>
<path fill="none" stroke="black" d="M76.444,-416.327C61.4244,-398.633 38.769,-367.145 34.6532,-334.243"/>
<polygon fill="black" stroke="black" points="38.1294,-333.757 34,-324 31.1436,-334.202 38.1294,-333.757"/>
</g>
<!-- b&#45;&gt;ma -->
<!-- b&#45;&gt;mb -->
<!-- c -->
<g id="node9" class="node"><title>c</title>
<ellipse fill="none" stroke="black" cx="139" cy="-252" rx="27" ry="18"/>
<text text-anchor="middle" x="139" y="-248.3" font-family="Helvetica,sans-Serif" font-size="14.00">c</text>
</g>
<!-- b&#45;&gt;c -->
<g id="edge8" class="edge"><title>b&#45;&gt;c</title>
<path fill="none" stroke="black" d="M94.6098,-414.254C103.146,-383.244 121.475,-316.662 131.71,-279.483"/>
<polygon fill="black" stroke="black" points="135.087,-280.401 134.367,-269.831 128.338,-278.543 135.087,-280.401"/>
</g>
<!-- ma&#45;&gt;Z -->
<!-- mb&#45;&gt;c -->
<!-- c&#45;&gt;X -->
<g id="edge11" class="edge"><title>c&#45;&gt;X:n</title>
<path fill="none" stroke="black" d="M130.501,-234.631C123.017,-220.233 111.813,-198.711 102,-180 95.501,-167.608 87.6893,-163.672 84.4831,-154.154"/>
<polygon fill="black" stroke="black" points="87.9086,-153.389 83,-144 80.9821,-154.401 87.9086,-153.389"/>
</g>
<!-- c&#45;&gt;Y -->
<g id="edge13" class="edge"><title>c&#45;&gt;Y:n</title>
<path fill="none" stroke="black" d="M152.919,-236.404C172.931,-213.923 207.943,-168.446 212.505,-121.119"/>
<polygon fill="black" stroke="black" points="216.007,-121.159 213,-111 209.016,-120.817 216.007,-121.159"/>
</g>
<!-- c&#45;&gt;mc -->
<!-- mc&#45;&gt;Y -->
</g>
</svg>
