<?xml version="1.0" encoding="UTF-8" standalone="no"?>
<!DOCTYPE svg PUBLIC "-//W3C//DTD SVG 1.1//EN"
 "http://www.w3.org/Graphics/SVG/1.1/DTD/svg11.dtd">
<!-- Generated by graphviz version 2.36.0 (20140111.2315)
 -->
<!-- Title: G Pages: 1 -->
<svg width="343pt" height="260pt"
 viewBox="0.00 0.00 343.00 260.00" xmlns="http://www.w3.org/2000/svg" xmlns:xlink="http://www.w3.org/1999/xlink">
<g id="graph0" class="graph" transform="scale(1 1) rotate(0) translate(4 256)">
<title>G</title>
<polygon fill="white" stroke="none" points="-4,4 -4,-256 339,-256 339,4 -4,4"/>
<!-- 5 -->
<g id="node1" class="node"><title>5</title>
<ellipse fill="none" stroke="red" cx="125" cy="-18" rx="27" ry="18"/>
<text text-anchor="middle" x="125" y="-14.3" font-family="Helvetica,sans-Serif" font-size="14.00">5</text>
</g>
<!-- 15 -->
<g id="node2" class="node"><title>15</title>
<ellipse fill="none" stroke="black" cx="203" cy="-234" rx="27" ry="18"/>
<text text-anchor="middle" x="203" y="-230.3" font-family="Helvetica,sans-Serif" font-size="14.00">15</text>
</g>
<!-- 6 -->
<g id="node3" class="node"><title>6</title>
<ellipse fill="none" stroke="black" cx="143" cy="-162" rx="27" ry="18"/>
<text text-anchor="middle" x="143" y="-158.3" font-family="Helvetica,sans-Serif" font-size="14.00">6</text>
</g>
<!-- 15&#45;&gt;6 -->
<g id="edge1" class="edge"><title>15&#45;&gt;6</title>
<path fill="none" stroke="black" d="M189.981,-217.811C181.961,-208.455 171.527,-196.282 162.53,-185.785"/>
<polygon fill="black" stroke="black" points="165.159,-183.474 155.994,-178.159 159.844,-188.03 165.159,-183.474"/>
</g>
<!-- m15 -->
<!-- 15&#45;&gt;m15 -->
<!-- 17 -->
<g id="node5" class="node"><title>17</title>
<ellipse fill="none" stroke="black" cx="282" cy="-162" rx="27" ry="18"/>
<text text-anchor="middle" x="282" y="-158.3" font-family="Helvetica,sans-Serif" font-size="14.00">17</text>
</g>
<!-- 15&#45;&gt;17 -->
<g id="edge3" class="edge"><title>15&#45;&gt;17</title>
<path fill="none" stroke="black" d="M218.608,-219.17C230.077,-209.008 245.851,-195.03 258.795,-183.561"/>
<polygon fill="black" stroke="black" points="261.261,-186.053 266.425,-176.801 256.619,-180.813 261.261,-186.053"/>
</g>
<!-- 6&#45;&gt;m15 -->
<!-- 8 -->
<g id="node7" class="node"><title>8</title>
<ellipse fill="none" stroke="black" cx="186" cy="-90" rx="27" ry="18"/>
<text text-anchor="middle" x="186" y="-86.3" font-family="Helvetica,sans-Serif" font-size="14.00">8</text>
</g>
<!-- 6&#45;&gt;8 -->
<g id="edge13" class="edge"><title>6&#45;&gt;8</title>
<path fill="none" stroke="black" d="M152.757,-145.116C158.145,-136.345 164.952,-125.264 171.001,-115.416"/>
<polygon fill="black" stroke="black" points="174.029,-117.174 176.281,-106.821 168.065,-113.51 174.029,-117.174"/>
</g>
<!-- 4 -->
<g id="node10" class="node"><title>4</title>
<ellipse fill="none" stroke="black" cx="82" cy="-90" rx="27" ry="18"/>
<text text-anchor="middle" x="82" y="-86.3" font-family="Helvetica,sans-Serif" font-size="14.00">4</text>
</g>
<!-- 6&#45;&gt;4 -->
<g id="edge11" class="edge"><title>6&#45;&gt;4</title>
<path fill="none" stroke="black" d="M130.063,-146.155C121.814,-136.689 110.965,-124.238 101.662,-113.563"/>
<polygon fill="black" stroke="black" points="104.126,-111.063 94.9179,-105.824 98.849,-115.662 104.126,-111.063"/>
</g>
<!-- m6 -->
<!-- 6&#45;&gt;m6 -->
<!-- m15&#45;&gt;17 -->
<!-- 16 -->
<g id="node14" class="node"><title>16</title>
<ellipse fill="none" stroke="black" cx="258" cy="-90" rx="27" ry="18"/>
<text text-anchor="middle" x="258" y="-86.3" font-family="Helvetica,sans-Serif" font-size="14.00">16</text>
</g>
<!-- 17&#45;&gt;16 -->
<g id="edge21" class="edge"><title>17&#45;&gt;16</title>
<path fill="none" stroke="black" d="M276.19,-144.055C273.449,-136.059 270.113,-126.331 267.051,-117.4"/>
<polygon fill="black" stroke="black" points="270.31,-116.113 263.756,-107.789 263.689,-118.384 270.31,-116.113"/>
</g>
<!-- m17 -->
<!-- 17&#45;&gt;m17 -->
<!-- l17 -->
<!-- 17&#45;&gt;l17 -->
<!-- r8 -->
<!-- m8 -->
<!-- r8&#45;&gt;m8 -->
<!-- 8&#45;&gt;r8 -->
<!-- 8&#45;&gt;m8 -->
<!-- 10 -->
<g id="node9" class="node"><title>10</title>
<ellipse fill="none" stroke="black" cx="248" cy="-18" rx="27" ry="18"/>
<text text-anchor="middle" x="248" y="-14.3" font-family="Helvetica,sans-Serif" font-size="14.00">10</text>
</g>
<!-- 8&#45;&gt;10 -->
<g id="edge8" class="edge"><title>8&#45;&gt;10</title>
<path fill="none" stroke="black" d="M199.149,-74.1548C207.533,-64.6885 218.56,-52.2384 228.016,-41.5628"/>
<polygon fill="black" stroke="black" points="230.86,-43.6303 234.87,-33.8238 225.62,-38.9891 230.86,-43.6303"/>
</g>
<!-- m8&#45;&gt;10 -->
<!-- 4&#45;&gt;5 -->
<g id="edge18" class="edge"><title>4&#45;&gt;5</title>
<path fill="none" stroke="black" d="M91.7574,-73.1159C97.1452,-64.345 103.952,-53.2637 110.001,-43.4162"/>
<polygon fill="black" stroke="black" points="113.029,-45.174 115.281,-34.8212 107.065,-41.51 113.029,-45.174"/>
</g>
<!-- 4&#45;&gt;m6 -->
<!-- 3 -->
<g id="node12" class="node"><title>3</title>
<ellipse fill="none" stroke="black" cx="27" cy="-18" rx="27" ry="18"/>
<text text-anchor="middle" x="27" y="-14.3" font-family="Helvetica,sans-Serif" font-size="14.00">3</text>
</g>
<!-- 4&#45;&gt;3 -->
<g id="edge16" class="edge"><title>4&#45;&gt;3</title>
<path fill="none" stroke="black" d="M70.0658,-73.811C62.7864,-64.5464 53.3374,-52.5203 45.1456,-42.0944"/>
<polygon fill="black" stroke="black" points="47.8413,-39.8601 38.9109,-34.1593 42.337,-44.1849 47.8413,-39.8601"/>
</g>
<!-- m4 -->
<!-- 4&#45;&gt;m4 -->
<!-- m6&#45;&gt;8 -->
<!-- 3&#45;&gt;m4 -->
<!-- m4&#45;&gt;5 -->
<!-- 16&#45;&gt;m17 -->
<!-- m17&#45;&gt;l17 -->
</g>
</svg>
