<?xml version="1.0" encoding="UTF-8" standalone="no"?>
<!DOCTYPE svg PUBLIC "-//W3C//DTD SVG 1.1//EN"
 "http://www.w3.org/Graphics/SVG/1.1/DTD/svg11.dtd">
<!-- Generated by graphviz version 2.36.0 (20140111.2315)
 -->
<!-- Title: G Pages: 1 -->
<svg width="268pt" height="336pt"
 viewBox="0.00 0.00 268.00 336.00" xmlns="http://www.w3.org/2000/svg" xmlns:xlink="http://www.w3.org/1999/xlink">
<g id="graph0" class="graph" transform="scale(1 1) rotate(0) translate(4 332)">
<title>G</title>
<polygon fill="white" stroke="none" points="-4,4 -4,-332 264,-332 264,4 -4,4"/>
<!-- X -->
<g id="node1" class="node"><title>X</title>
<polygon fill="none" stroke="black" points="50,-256 -0.203437,-148 100.203,-148 50,-256"/>
<text text-anchor="middle" x="50" y="-187.8" font-family="Helvetica,sans-Serif" font-size="14.00">X</text>
<text text-anchor="middle" x="50" y="-172.8" font-family="Helvetica,sans-Serif" font-size="14.00">(h+1)</text>
</g>
<!-- mb -->
<!-- X&#45;&gt;mb -->
<!-- Y -->
<g id="node2" class="node"><title>Y</title>
<polygon fill="none" stroke="black" points="102,-76 63.7202,-19 140.28,-19 102,-76"/>
<text text-anchor="middle" x="102" y="-41.8" font-family="Helvetica,sans-Serif" font-size="14.00">Y</text>
<text text-anchor="middle" x="102" y="-26.8" font-family="Helvetica,sans-Serif" font-size="14.00">(h)</text>
</g>
<!-- ma -->
<!-- Y&#45;&gt;ma -->
<!-- Z -->
<g id="node3" class="node"><title>Z</title>
<polygon fill="none" stroke="black" points="222,-76 183.72,-19 260.28,-19 222,-76"/>
<text text-anchor="middle" x="222" y="-41.8" font-family="Helvetica,sans-Serif" font-size="14.00">Z</text>
<text text-anchor="middle" x="222" y="-26.8" font-family="Helvetica,sans-Serif" font-size="14.00">(h)</text>
</g>
<!-- b -->
<g id="node4" class="node"><title>b</title>
<ellipse fill="none" stroke="black" cx="122" cy="-310" rx="18" ry="18"/>
<text text-anchor="middle" x="122" y="-306.3" font-family="Helvetica,sans-Serif" font-size="14.00">b</text>
</g>
<!-- b&#45;&gt;X -->
<g id="edge1" class="edge"><title>b&#45;&gt;X:n</title>
<path fill="none" stroke="black" d="M104.571,-304.483C86.0923,-298.676 58.6244,-286.79 51.6542,-266.123"/>
<polygon fill="black" stroke="black" points="55.0669,-265.305 50,-256 48.1586,-266.434 55.0669,-265.305"/>
</g>
<!-- b&#45;&gt;mb -->
<!-- a -->
<g id="node6" class="node"><title>a</title>
<ellipse fill="none" stroke="black" cx="162" cy="-184" rx="18" ry="18"/>
<text text-anchor="middle" x="162" y="-180.3" font-family="Helvetica,sans-Serif" font-size="14.00">a</text>
</g>
<!-- b&#45;&gt;a -->
<g id="edge3" class="edge"><title>b&#45;&gt;a</title>
<path fill="none" stroke="black" d="M127.312,-292.534C134.006,-271.782 145.593,-235.861 153.519,-211.292"/>
<polygon fill="black" stroke="black" points="156.927,-212.126 156.666,-201.534 150.265,-209.977 156.927,-212.126"/>
</g>
<!-- mb&#45;&gt;a -->
<!-- a&#45;&gt;Y -->
<g id="edge6" class="edge"><title>a&#45;&gt;Y:n</title>
<path fill="none" stroke="black" d="M157.296,-166.447C152.648,-151.546 144.686,-129.384 134,-112 124.979,-97.3246 109.756,-96.8183 104.153,-86.026"/>
<polygon fill="black" stroke="black" points="107.522,-85.0423 102,-76 100.678,-86.512 107.522,-85.0423"/>
</g>
<!-- a&#45;&gt;Z -->
<g id="edge8" class="edge"><title>a&#45;&gt;Z:n</title>
<path fill="none" stroke="black" d="M174.432,-170.756C190.427,-153.754 216.711,-121.14 221.304,-86.3524"/>
<polygon fill="black" stroke="black" points="224.822,-86.2122 222,-76 217.837,-85.7428 224.822,-86.2122"/>
</g>
<!-- a&#45;&gt;ma -->
<!-- ma&#45;&gt;Z -->
</g>
</svg>
