<?xml version="1.0" encoding="UTF-8" standalone="no"?>
<!DOCTYPE svg PUBLIC "-//W3C//DTD SVG 1.1//EN"
 "http://www.w3.org/Graphics/SVG/1.1/DTD/svg11.dtd">
<!-- Generated by graphviz version 2.36.0 (20140111.2315)
 -->
<!-- Title: G Pages: 1 -->
<svg width="156pt" height="152pt"
 viewBox="0.00 0.00 156.00 152.00" xmlns="http://www.w3.org/2000/svg" xmlns:xlink="http://www.w3.org/1999/xlink">
<g id="graph0" class="graph" transform="scale(1 1) rotate(0) translate(4 148)">
<title>G</title>
<polygon fill="white" stroke="none" points="-4,4 -4,-148 152,-148 152,4 -4,4"/>
<!-- 3 -->
<g id="node1" class="node"><title>3</title>
<ellipse fill="none" stroke="red" cx="122" cy="-27" rx="26.3078" ry="26.7407"/>
<text text-anchor="middle" x="122" y="-30.8" font-family="Helvetica,sans-Serif" font-size="14.00" fill="red">3</text>
<text text-anchor="middle" x="122" y="-15.8" font-family="Helvetica,sans-Serif" font-size="14.00" fill="red">b:0</text>
</g>
<!-- 2 -->
<g id="node2" class="node"><title>2</title>
<ellipse fill="none" stroke="green" cx="74" cy="-117" rx="26.3078" ry="26.7407"/>
<text text-anchor="middle" x="74" y="-120.8" font-family="Helvetica,sans-Serif" font-size="14.00" fill="green">2</text>
<text text-anchor="middle" x="74" y="-105.8" font-family="Helvetica,sans-Serif" font-size="14.00" fill="green">b:0</text>
</g>
<!-- 2&#45;&gt;3 -->
<g id="edge3" class="edge"><title>2&#45;&gt;3</title>
<path fill="none" stroke="black" d="M86.6114,-92.879C92.1233,-82.7739 98.6785,-70.756 104.64,-59.826"/>
<polygon fill="black" stroke="black" points="107.757,-61.4215 109.473,-50.9665 101.612,-58.0695 107.757,-61.4215"/>
</g>
<!-- 1 -->
<g id="node3" class="node"><title>1</title>
<ellipse fill="none" stroke="blue" cx="26" cy="-27" rx="26.3078" ry="26.7407"/>
<text text-anchor="middle" x="26" y="-30.8" font-family="Helvetica,sans-Serif" font-size="14.00" fill="blue">1</text>
<text text-anchor="middle" x="26" y="-15.8" font-family="Helvetica,sans-Serif" font-size="14.00" fill="blue">b:0</text>
</g>
<!-- 2&#45;&gt;1 -->
<g id="edge1" class="edge"><title>2&#45;&gt;1</title>
<path fill="none" stroke="black" d="M61.3886,-92.879C55.8767,-82.7739 49.3215,-70.756 43.3596,-59.826"/>
<polygon fill="black" stroke="black" points="46.3884,-58.0695 38.5272,-50.9665 40.2431,-61.4215 46.3884,-58.0695"/>
</g>
<!-- m2 -->
<!-- 2&#45;&gt;m2 -->
<!-- 1&#45;&gt;m2 -->
<!-- m2&#45;&gt;3 -->
</g>
</svg>
