<?xml version="1.0" encoding="UTF-8" standalone="no"?>
<!DOCTYPE svg PUBLIC "-//W3C//DTD SVG 1.1//EN"
 "http://www.w3.org/Graphics/SVG/1.1/DTD/svg11.dtd">
<!-- Generated by graphviz version 2.36.0 (20140111.2315)
 -->
<!-- Title: G Pages: 1 -->
<svg width="162pt" height="242pt"
 viewBox="0.00 0.00 162.00 242.00" xmlns="http://www.w3.org/2000/svg" xmlns:xlink="http://www.w3.org/1999/xlink">
<g id="graph0" class="graph" transform="scale(1 1) rotate(0) translate(4 238)">
<title>G</title>
<polygon fill="white" stroke="none" points="-4,4 -4,-238 158,-238 158,4 -4,4"/>
<!-- 3 -->
<g id="node1" class="node"><title>3</title>
<ellipse fill="none" stroke="red" cx="126" cy="-207" rx="27.9291" ry="26.7407"/>
<text text-anchor="middle" x="126" y="-210.8" font-family="Helvetica,sans-Serif" font-size="14.00" fill="red">3</text>
<text text-anchor="middle" x="126" y="-195.8" font-family="Helvetica,sans-Serif" font-size="14.00" fill="red">b:&#45;2</text>
</g>
<!-- 2 -->
<g id="node2" class="node"><title>2</title>
<ellipse fill="none" stroke="green" cx="76" cy="-117" rx="27.9291" ry="26.7407"/>
<text text-anchor="middle" x="76" y="-120.8" font-family="Helvetica,sans-Serif" font-size="14.00" fill="green">2</text>
<text text-anchor="middle" x="76" y="-105.8" font-family="Helvetica,sans-Serif" font-size="14.00" fill="green">b:&#45;1</text>
</g>
<!-- 3&#45;&gt;2 -->
<g id="edge1" class="edge"><title>3&#45;&gt;2</title>
<path fill="none" stroke="black" d="M112.863,-182.879C107.122,-172.774 100.293,-160.756 94.083,-149.826"/>
<polygon fill="black" stroke="black" points="97.0324,-147.932 89.0492,-140.967 90.9462,-151.39 97.0324,-147.932"/>
</g>
<!-- m3 -->
<!-- 3&#45;&gt;m3 -->
<!-- r3 -->
<!-- 3&#45;&gt;r3 -->
<!-- 1 -->
<g id="node3" class="node"><title>1</title>
<ellipse fill="none" stroke="blue" cx="27" cy="-27" rx="27" ry="26.7407"/>
<text text-anchor="middle" x="27" y="-30.8" font-family="Helvetica,sans-Serif" font-size="14.00" fill="blue">1</text>
<text text-anchor="middle" x="27" y="-15.8" font-family="Helvetica,sans-Serif" font-size="14.00" fill="blue">b:0</text>
</g>
<!-- 2&#45;&gt;1 -->
<g id="edge6" class="edge"><title>2&#45;&gt;1</title>
<path fill="none" stroke="black" d="M63.1258,-92.879C57.4991,-82.7739 50.8073,-70.756 44.7213,-59.826"/>
<polygon fill="black" stroke="black" points="47.711,-58.0007 39.7882,-50.9665 41.5952,-61.4062 47.711,-58.0007"/>
</g>
<!-- 2&#45;&gt;m3 -->
<!-- l2 -->
<!-- 2&#45;&gt;l2 -->
<!-- r2 -->
<!-- 2&#45;&gt;r2 -->
<!-- 1&#45;&gt;l2 -->
<!-- m3&#45;&gt;r3 -->
<!-- l2&#45;&gt;r2 -->
</g>
</svg>
