<?xml version="1.0" encoding="UTF-8" standalone="no"?>
<!DOCTYPE svg PUBLIC "-//W3C//DTD SVG 1.1//EN"
 "http://www.w3.org/Graphics/SVG/1.1/DTD/svg11.dtd">
<!-- Generated by graphviz version 2.26.3 (20100126.1600)
 -->
<!-- Title: G Pages: 1 -->
<svg width="338pt" height="268pt"
 viewBox="0.00 0.00 338.00 268.00" xmlns="http://www.w3.org/2000/svg" xmlns:xlink="http://www.w3.org/1999/xlink">
<g id="graph1" class="graph" transform="scale(1 1) rotate(0) translate(4 264)">
<title>G</title>
<polygon fill="white" stroke="white" points="-4,5 -4,-264 335,-264 335,5 -4,5"/>
<!-- 5 -->
<g id="node1" class="node"><title>5</title>
<ellipse fill="none" stroke="red" cx="123" cy="-19" rx="27" ry="19.0919"/>
<text text-anchor="middle" x="123" y="-15.9" font-family="Helvetica,sans-Serif" font-size="14.00">5</text>
</g>
<!-- 15 -->
<g id="node2" class="node"><title>15</title>
<ellipse fill="none" stroke="black" cx="201" cy="-241" rx="27" ry="19.0919"/>
<text text-anchor="middle" x="201" y="-237.9" font-family="Helvetica,sans-Serif" font-size="14.00">15</text>
</g>
<!-- 6 -->
<g id="node4" class="node"><title>6</title>
<ellipse fill="none" stroke="black" cx="141" cy="-167" rx="27" ry="19.0919"/>
<text text-anchor="middle" x="141" y="-163.9" font-family="Helvetica,sans-Serif" font-size="14.00">6</text>
</g>
<!-- 15&#45;&gt;6 -->
<g id="edge2" class="edge"><title>15&#45;&gt;6</title>
<path fill="none" stroke="black" d="M187.385,-224.208C179.56,-214.558 169.59,-202.261 160.9,-191.544"/>
<polygon fill="black" stroke="black" points="163.578,-189.289 154.561,-183.725 158.14,-193.697 163.578,-189.289"/>
</g>
<!-- m15 -->
<!-- 15&#45;&gt;m15 -->
<!-- 17 -->
<g id="node8" class="node"><title>17</title>
<ellipse fill="none" stroke="black" cx="279" cy="-167" rx="27" ry="19.0919"/>
<text text-anchor="middle" x="279" y="-163.9" font-family="Helvetica,sans-Serif" font-size="14.00">17</text>
</g>
<!-- 15&#45;&gt;17 -->
<g id="edge6" class="edge"><title>15&#45;&gt;17</title>
<path fill="none" stroke="black" d="M217.162,-225.667C228.248,-215.15 243.135,-201.026 255.524,-189.272"/>
<polygon fill="black" stroke="black" points="258.013,-191.735 262.859,-182.313 253.195,-186.657 258.013,-191.735"/>
</g>
<!-- 6&#45;&gt;m15 -->
<!-- 8 -->
<g id="node12" class="node"><title>8</title>
<ellipse fill="none" stroke="black" cx="183" cy="-93" rx="27" ry="19.0919"/>
<text text-anchor="middle" x="183" y="-89.9" font-family="Helvetica,sans-Serif" font-size="14.00">8</text>
</g>
<!-- 6&#45;&gt;8 -->
<g id="edge26" class="edge"><title>6&#45;&gt;8</title>
<path fill="none" stroke="black" d="M151.167,-149.087C156.171,-140.27 162.306,-129.462 167.849,-119.695"/>
<polygon fill="black" stroke="black" points="171.034,-121.173 172.927,-110.748 164.947,-117.718 171.034,-121.173"/>
</g>
<!-- 4 -->
<g id="node21" class="node"><title>4</title>
<ellipse fill="none" stroke="black" cx="81" cy="-93" rx="27" ry="19.0919"/>
<text text-anchor="middle" x="81" y="-89.9" font-family="Helvetica,sans-Serif" font-size="14.00">4</text>
</g>
<!-- 6&#45;&gt;4 -->
<g id="edge22" class="edge"><title>6&#45;&gt;4</title>
<path fill="none" stroke="black" d="M127.385,-150.208C119.56,-140.558 109.59,-128.261 100.9,-117.544"/>
<polygon fill="black" stroke="black" points="103.578,-115.289 94.561,-109.725 98.1405,-119.697 103.578,-115.289"/>
</g>
<!-- m6 -->
<!-- 6&#45;&gt;m6 -->
<!-- m15&#45;&gt;17 -->
<!-- 16 -->
<g id="node35" class="node"><title>16</title>
<ellipse fill="none" stroke="black" cx="255" cy="-93" rx="27" ry="19.0919"/>
<text text-anchor="middle" x="255" y="-89.9" font-family="Helvetica,sans-Serif" font-size="14.00">16</text>
</g>
<!-- 17&#45;&gt;16 -->
<g id="edge42" class="edge"><title>17&#45;&gt;16</title>
<path fill="none" stroke="black" d="M272.944,-148.327C270.3,-140.176 267.142,-130.438 264.217,-121.42"/>
<polygon fill="black" stroke="black" points="267.469,-120.1 261.054,-111.667 260.81,-122.259 267.469,-120.1"/>
</g>
<!-- m17 -->
<!-- 17&#45;&gt;m17 -->
<!-- l17 -->
<!-- 17&#45;&gt;l17 -->
<!-- r8 -->
<!-- m8 -->
<!-- r8&#45;&gt;m8 -->
<!-- 8&#45;&gt;r8 -->
<!-- 8&#45;&gt;m8 -->
<!-- 10 -->
<g id="node17" class="node"><title>10</title>
<ellipse fill="none" stroke="black" cx="243" cy="-19" rx="27" ry="19.0919"/>
<text text-anchor="middle" x="243" y="-15.9" font-family="Helvetica,sans-Serif" font-size="14.00">10</text>
</g>
<!-- 8&#45;&gt;10 -->
<g id="edge16" class="edge"><title>8&#45;&gt;10</title>
<path fill="none" stroke="black" d="M196.615,-76.2083C204.44,-66.5577 214.41,-54.2612 223.1,-43.5435"/>
<polygon fill="black" stroke="black" points="225.86,-45.6972 229.439,-35.7253 220.422,-41.2886 225.86,-45.6972"/>
</g>
<!-- m8&#45;&gt;10 -->
<!-- 4&#45;&gt;5 -->
<g id="edge36" class="edge"><title>4&#45;&gt;5</title>
<path fill="none" stroke="black" d="M91.167,-75.0867C96.1712,-66.2698 102.306,-55.4617 107.849,-45.6947"/>
<polygon fill="black" stroke="black" points="111.034,-47.1729 112.927,-36.7484 104.947,-43.7176 111.034,-47.1729"/>
</g>
<!-- 4&#45;&gt;m6 -->
<!-- 3 -->
<g id="node28" class="node"><title>3</title>
<ellipse fill="none" stroke="black" cx="27" cy="-19" rx="27" ry="19.0919"/>
<text text-anchor="middle" x="27" y="-15.9" font-family="Helvetica,sans-Serif" font-size="14.00">3</text>
</g>
<!-- 4&#45;&gt;3 -->
<g id="edge32" class="edge"><title>4&#45;&gt;3</title>
<path fill="none" stroke="black" d="M68.4756,-75.8369C61.6601,-66.4972 53.0975,-54.7632 45.5247,-44.3857"/>
<polygon fill="black" stroke="black" points="48.1785,-42.0848 39.4565,-36.07 42.5239,-46.2111 48.1785,-42.0848"/>
</g>
<!-- m4 -->
<!-- 4&#45;&gt;m4 -->
<!-- m6&#45;&gt;8 -->
<!-- 3&#45;&gt;m4 -->
<!-- m4&#45;&gt;5 -->
<!-- 16&#45;&gt;m17 -->
<!-- m17&#45;&gt;l17 -->
</g>
</svg>
