<?xml version="1.0" encoding="UTF-8" standalone="no"?>
<!DOCTYPE svg PUBLIC "-//W3C//DTD SVG 1.1//EN"
 "http://www.w3.org/Graphics/SVG/1.1/DTD/svg11.dtd">
<!-- Generated by graphviz version 2.26.3 (20100126.1600)
 -->
<!-- Title: G Pages: 1 -->
<svg width="392pt" height="268pt"
 viewBox="0.00 0.00 392.00 268.00" xmlns="http://www.w3.org/2000/svg" xmlns:xlink="http://www.w3.org/1999/xlink">
<g id="graph1" class="graph" transform="scale(1 1) rotate(0) translate(4 264)">
<title>G</title>
<polygon fill="white" stroke="white" points="-4,5 -4,-264 389,-264 389,5 -4,5"/>
<!-- 3 -->
<g id="node1" class="node"><title>3</title>
<ellipse fill="none" stroke="blue" cx="147" cy="-167" rx="27" ry="19.0919"/>
<text text-anchor="middle" x="147" y="-163.9" font-family="Helvetica,sans-Serif" font-size="14.00">3</text>
</g>
<!-- 5 -->
<g id="node2" class="node"><title>5</title>
<ellipse fill="none" stroke="blue" cx="189" cy="-93" rx="27" ry="19.0919"/>
<text text-anchor="middle" x="189" y="-89.9" font-family="Helvetica,sans-Serif" font-size="14.00">5</text>
</g>
<!-- 3&#45;&gt;5 -->
<g id="edge26" class="edge"><title>3&#45;&gt;5</title>
<path fill="none" stroke="black" d="M157.167,-149.087C162.171,-140.27 168.306,-129.462 173.849,-119.695"/>
<polygon fill="black" stroke="black" points="177.034,-121.173 178.927,-110.748 170.947,-117.718 177.034,-121.173"/>
</g>
<!-- m15 -->
<!-- 3&#45;&gt;m15 -->
<!-- 2 -->
<g id="node20" class="node"><title>2</title>
<ellipse fill="none" stroke="black" cx="81" cy="-93" rx="27" ry="19.0919"/>
<text text-anchor="middle" x="81" y="-89.9" font-family="Helvetica,sans-Serif" font-size="14.00">2</text>
</g>
<!-- 3&#45;&gt;2 -->
<g id="edge22" class="edge"><title>3&#45;&gt;2</title>
<path fill="none" stroke="black" d="M132.352,-150.577C123.49,-140.641 112.039,-127.801 102.199,-116.769"/>
<polygon fill="black" stroke="black" points="104.648,-114.256 95.3795,-109.122 99.4237,-118.915 104.648,-114.256"/>
</g>
<!-- m3 -->
<!-- 3&#45;&gt;m3 -->
<!-- 4 -->
<g id="node12" class="node"><title>4</title>
<ellipse fill="none" stroke="black" cx="147" cy="-19" rx="27" ry="19.0919"/>
<text text-anchor="middle" x="147" y="-15.9" font-family="Helvetica,sans-Serif" font-size="14.00">4</text>
</g>
<!-- 5&#45;&gt;4 -->
<g id="edge12" class="edge"><title>5&#45;&gt;4</title>
<path fill="none" stroke="black" d="M178.833,-75.0867C173.829,-66.2698 167.694,-55.4617 162.151,-45.6947"/>
<polygon fill="black" stroke="black" points="165.053,-43.7176 157.073,-36.7484 158.966,-47.1729 165.053,-43.7176"/>
</g>
<!-- m5 -->
<!-- 5&#45;&gt;m5 -->
<!-- 10 -->
<g id="node16" class="node"><title>10</title>
<ellipse fill="none" stroke="black" cx="243" cy="-19" rx="27" ry="19.0919"/>
<text text-anchor="middle" x="243" y="-15.9" font-family="Helvetica,sans-Serif" font-size="14.00">10</text>
</g>
<!-- 5&#45;&gt;10 -->
<g id="edge16" class="edge"><title>5&#45;&gt;10</title>
<path fill="none" stroke="black" d="M201.524,-75.8369C208.34,-66.4972 216.903,-54.7632 224.475,-44.3857"/>
<polygon fill="black" stroke="black" points="227.476,-46.2111 230.544,-36.07 221.822,-42.0848 227.476,-46.2111"/>
</g>
<!-- 15 -->
<g id="node3" class="node"><title>15</title>
<ellipse fill="none" stroke="black" cx="207" cy="-241" rx="27" ry="19.0919"/>
<text text-anchor="middle" x="207" y="-237.9" font-family="Helvetica,sans-Serif" font-size="14.00">15</text>
</g>
<!-- 15&#45;&gt;3 -->
<g id="edge2" class="edge"><title>15&#45;&gt;3</title>
<path fill="none" stroke="black" d="M193.385,-224.208C185.56,-214.558 175.59,-202.261 166.9,-191.544"/>
<polygon fill="black" stroke="black" points="169.578,-189.289 160.561,-183.725 164.14,-193.697 169.578,-189.289"/>
</g>
<!-- 15&#45;&gt;m15 -->
<!-- 20 -->
<g id="node8" class="node"><title>20</title>
<ellipse fill="none" stroke="black" cx="285" cy="-167" rx="27" ry="19.0919"/>
<text text-anchor="middle" x="285" y="-163.9" font-family="Helvetica,sans-Serif" font-size="14.00">20</text>
</g>
<!-- 15&#45;&gt;20 -->
<g id="edge6" class="edge"><title>15&#45;&gt;20</title>
<path fill="none" stroke="black" d="M223.162,-225.667C234.248,-215.15 249.135,-201.026 261.524,-189.272"/>
<polygon fill="black" stroke="black" points="264.013,-191.735 268.859,-182.313 259.195,-186.657 264.013,-191.735"/>
</g>
<!-- m15&#45;&gt;20 -->
<!-- 17 -->
<g id="node35" class="node"><title>17</title>
<ellipse fill="none" stroke="black" cx="261" cy="-93" rx="27" ry="19.0919"/>
<text text-anchor="middle" x="261" y="-89.9" font-family="Helvetica,sans-Serif" font-size="14.00">17</text>
</g>
<!-- 20&#45;&gt;17 -->
<g id="edge42" class="edge"><title>20&#45;&gt;17</title>
<path fill="none" stroke="black" d="M278.944,-148.327C276.3,-140.176 273.142,-130.438 270.217,-121.42"/>
<polygon fill="black" stroke="black" points="273.469,-120.1 267.054,-111.667 266.81,-122.259 273.469,-120.1"/>
</g>
<!-- m20 -->
<!-- 20&#45;&gt;m20 -->
<!-- 21 -->
<g id="node39" class="node"><title>21</title>
<ellipse fill="none" stroke="black" cx="357" cy="-93" rx="27" ry="19.0919"/>
<text text-anchor="middle" x="357" y="-89.9" font-family="Helvetica,sans-Serif" font-size="14.00">21</text>
</g>
<!-- 20&#45;&gt;21 -->
<g id="edge46" class="edge"><title>20&#45;&gt;21</title>
<path fill="none" stroke="black" d="M300.269,-151.307C310.225,-141.075 323.389,-127.545 334.529,-116.095"/>
<polygon fill="black" stroke="black" points="337.039,-118.534 341.504,-108.926 332.022,-113.653 337.039,-118.534"/>
</g>
<!-- 4&#45;&gt;m5 -->
<!-- m5&#45;&gt;10 -->
<!-- 2&#45;&gt;m3 -->
<!-- 1 -->
<g id="node27" class="node"><title>1</title>
<ellipse fill="none" stroke="black" cx="27" cy="-19" rx="27" ry="19.0919"/>
<text text-anchor="middle" x="27" y="-15.9" font-family="Helvetica,sans-Serif" font-size="14.00">1</text>
</g>
<!-- 2&#45;&gt;1 -->
<g id="edge32" class="edge"><title>2&#45;&gt;1</title>
<path fill="none" stroke="black" d="M68.4756,-75.8369C61.6601,-66.4972 53.0975,-54.7632 45.5247,-44.3857"/>
<polygon fill="black" stroke="black" points="48.1785,-42.0848 39.4565,-36.07 42.5239,-46.2111 48.1785,-42.0848"/>
</g>
<!-- m2 -->
<!-- 2&#45;&gt;m2 -->
<!-- r2 -->
<!-- 2&#45;&gt;r2 -->
<!-- m3&#45;&gt;5 -->
<!-- 1&#45;&gt;m2 -->
<!-- m2&#45;&gt;r2 -->
<!-- 17&#45;&gt;m20 -->
<!-- m20&#45;&gt;21 -->
</g>
</svg>
