<?xml version="1.0" encoding="UTF-8" standalone="no"?>
<!DOCTYPE svg PUBLIC "-//W3C//DTD SVG 1.1//EN"
 "http://www.w3.org/Graphics/SVG/1.1/DTD/svg11.dtd">
<!-- Generated by graphviz version 2.36.0 (20140111.2315)
 -->
<!-- Title: G Pages: 1 -->
<svg width="253pt" height="336pt"
 viewBox="0.00 0.00 253.00 336.00" xmlns="http://www.w3.org/2000/svg" xmlns:xlink="http://www.w3.org/1999/xlink">
<g id="graph0" class="graph" transform="scale(1 1) rotate(0) translate(4 332)">
<title>G</title>
<polygon fill="white" stroke="none" points="-4,4 -4,-332 249,-332 249,4 -4,4"/>
<!-- X -->
<g id="node1" class="node"><title>X</title>
<polygon fill="none" stroke="black" points="38,-110 -0.279814,-53 76.2798,-53 38,-110"/>
<text text-anchor="middle" x="38" y="-75.8" font-family="Helvetica,sans-Serif" font-size="14.00">X</text>
<text text-anchor="middle" x="38" y="-60.8" font-family="Helvetica,sans-Serif" font-size="14.00">(h)</text>
</g>
<!-- mb -->
<!-- X&#45;&gt;mb -->
<!-- Y -->
<g id="node2" class="node"><title>Y</title>
<polygon fill="none" stroke="black" points="170,-144 119.797,-36 220.203,-36 170,-144"/>
<text text-anchor="middle" x="170" y="-75.8" font-family="Helvetica,sans-Serif" font-size="14.00">Y</text>
<text text-anchor="middle" x="170" y="-60.8" font-family="Helvetica,sans-Serif" font-size="14.00">(h+1)</text>
</g>
<!-- Z -->
<g id="node3" class="node"><title>Z</title>
<polygon fill="none" stroke="black" points="207,-256 168.72,-199 245.28,-199 207,-256"/>
<text text-anchor="middle" x="207" y="-221.8" font-family="Helvetica,sans-Serif" font-size="14.00">Z</text>
<text text-anchor="middle" x="207" y="-206.8" font-family="Helvetica,sans-Serif" font-size="14.00">(h)</text>
</g>
<!-- a -->
<g id="node4" class="node"><title>a</title>
<ellipse fill="none" stroke="black" cx="147" cy="-310" rx="27" ry="18"/>
<text text-anchor="middle" x="147" y="-306.3" font-family="Helvetica,sans-Serif" font-size="14.00">a</text>
</g>
<!-- a&#45;&gt;Z -->
<g id="edge3" class="edge"><title>a&#45;&gt;Z:n</title>
<path fill="none" stroke="black" d="M169.683,-299.816C183.754,-292.735 200.112,-281.535 205.319,-266.134"/>
<polygon fill="black" stroke="black" points="208.816,-266.438 207,-256 201.91,-265.292 208.816,-266.438"/>
</g>
<!-- b -->
<g id="node5" class="node"><title>b</title>
<ellipse fill="none" stroke="black" cx="98" cy="-218" rx="27" ry="18"/>
<text text-anchor="middle" x="98" y="-214.3" font-family="Helvetica,sans-Serif" font-size="14.00">b</text>
</g>
<!-- a&#45;&gt;b -->
<g id="edge1" class="edge"><title>a&#45;&gt;b</title>
<path fill="none" stroke="black" d="M138.24,-292.91C130.899,-279.427 120.29,-259.941 111.808,-244.361"/>
<polygon fill="black" stroke="black" points="114.705,-242.363 106.85,-235.254 108.557,-245.711 114.705,-242.363"/>
</g>
<!-- ma -->
<!-- a&#45;&gt;ma -->
<!-- b&#45;&gt;X -->
<g id="edge6" class="edge"><title>b&#45;&gt;X:n</title>
<path fill="none" stroke="black" d="M83.4757,-202.666C67.3832,-185.334 43.1097,-154.351 38.6998,-121.308"/>
<polygon fill="black" stroke="black" points="42.1694,-120.74 38,-111 35.1855,-121.214 42.1694,-120.74"/>
</g>
<!-- b&#45;&gt;Y -->
<g id="edge8" class="edge"><title>b&#45;&gt;Y:n</title>
<path fill="none" stroke="black" d="M111.973,-202.547C118.623,-195.692 126.699,-187.402 134,-180 147.035,-166.785 162.909,-166.252 168.193,-153.997"/>
<polygon fill="black" stroke="black" points="171.666,-154.463 170,-144 164.777,-153.218 171.666,-154.463"/>
</g>
<!-- b&#45;&gt;ma -->
<!-- b&#45;&gt;mb -->
<!-- ma&#45;&gt;Z -->
<!-- mb&#45;&gt;Y -->
</g>
</svg>
