<?xml version="1.0" encoding="UTF-8" standalone="no"?>
<!DOCTYPE svg PUBLIC "-//W3C//DTD SVG 1.1//EN"
 "http://www.w3.org/Graphics/SVG/1.1/DTD/svg11.dtd">
<!-- Generated by graphviz version 2.36.0 (20140111.2315)
 -->
<!-- Title: G Pages: 1 -->
<svg width="244pt" height="336pt"
 viewBox="0.00 0.00 244.00 336.00" xmlns="http://www.w3.org/2000/svg" xmlns:xlink="http://www.w3.org/1999/xlink">
<g id="graph0" class="graph" transform="scale(1 1) rotate(0) translate(4 332)">
<title>G</title>
<polygon fill="white" stroke="none" points="-4,4 -4,-332 240,-332 240,4 -4,4"/>
<!-- X -->
<g id="node1" class="node"><title>X</title>
<polygon fill="none" stroke="black" points="38,-110 -0.279814,-53 76.2798,-53 38,-110"/>
<text text-anchor="middle" x="38" y="-75.8" font-family="Helvetica,sans-Serif" font-size="14.00">X</text>
<text text-anchor="middle" x="38" y="-60.8" font-family="Helvetica,sans-Serif" font-size="14.00">(h)</text>
</g>
<!-- mb -->
<!-- X&#45;&gt;mb -->
<!-- Y -->
<g id="node2" class="node"><title>Y</title>
<polygon fill="none" stroke="black" points="170,-144 119.797,-36 220.203,-36 170,-144"/>
<text text-anchor="middle" x="170" y="-75.8" font-family="Helvetica,sans-Serif" font-size="14.00">Y</text>
<text text-anchor="middle" x="170" y="-60.8" font-family="Helvetica,sans-Serif" font-size="14.00">(h+1)</text>
</g>
<!-- Z -->
<g id="node3" class="node"><title>Z</title>
<polygon fill="none" stroke="black" points="198,-256 159.72,-199 236.28,-199 198,-256"/>
<text text-anchor="middle" x="198" y="-221.8" font-family="Helvetica,sans-Serif" font-size="14.00">Z</text>
<text text-anchor="middle" x="198" y="-206.8" font-family="Helvetica,sans-Serif" font-size="14.00">(h)</text>
</g>
<!-- a -->
<g id="node4" class="node"><title>a</title>
<ellipse fill="none" stroke="black" cx="138" cy="-310" rx="18" ry="18"/>
<text text-anchor="middle" x="138" y="-306.3" font-family="Helvetica,sans-Serif" font-size="14.00">a</text>
</g>
<!-- a&#45;&gt;Z -->
<g id="edge3" class="edge"><title>a&#45;&gt;Z:n</title>
<path fill="none" stroke="black" d="M154.713,-302.653C169.693,-295.937 190.211,-283.865 196.257,-266.315"/>
<polygon fill="black" stroke="black" points="199.785,-266.443 198,-256 192.883,-265.277 199.785,-266.443"/>
</g>
<!-- b -->
<g id="node5" class="node"><title>b</title>
<ellipse fill="none" stroke="black" cx="98" cy="-218" rx="18" ry="18"/>
<text text-anchor="middle" x="98" y="-214.3" font-family="Helvetica,sans-Serif" font-size="14.00">b</text>
</g>
<!-- a&#45;&gt;b -->
<g id="edge1" class="edge"><title>a&#45;&gt;b</title>
<path fill="none" stroke="black" d="M131.033,-293.323C124.99,-279.727 116.136,-259.805 109.115,-244.008"/>
<polygon fill="black" stroke="black" points="112.282,-242.516 105.022,-234.799 105.885,-245.359 112.282,-242.516"/>
</g>
<!-- ma -->
<!-- a&#45;&gt;ma -->
<!-- b&#45;&gt;X -->
<g id="edge6" class="edge"><title>b&#45;&gt;X:n</title>
<path fill="none" stroke="black" d="M85.568,-204.892C69.5725,-188.075 43.2892,-155.798 38.6956,-121.276"/>
<polygon fill="black" stroke="black" points="42.1674,-120.741 38,-111 35.1834,-121.214 42.1674,-120.741"/>
</g>
<!-- b&#45;&gt;Y -->
<g id="edge8" class="edge"><title>b&#45;&gt;Y:n</title>
<path fill="none" stroke="black" d="M107.424,-202.247C112.27,-195.171 118.514,-186.781 125,-180 139.8,-164.529 161.302,-167.665 167.959,-154.149"/>
<polygon fill="black" stroke="black" points="171.459,-154.494 170,-144 164.597,-153.114 171.459,-154.494"/>
</g>
<!-- b&#45;&gt;ma -->
<!-- b&#45;&gt;mb -->
<!-- ma&#45;&gt;Z -->
<!-- mb&#45;&gt;Y -->
</g>
</svg>
