<?xml version="1.0" encoding="UTF-8" standalone="no"?>
<!DOCTYPE svg PUBLIC "-//W3C//DTD SVG 1.1//EN"
 "http://www.w3.org/Graphics/SVG/1.1/DTD/svg11.dtd">
<!-- Generated by graphviz version 2.26.3 (20100126.1600)
 -->
<!-- Title: G Pages: 1 -->
<svg width="284pt" height="586pt"
 viewBox="0.00 0.00 284.00 586.00" xmlns="http://www.w3.org/2000/svg" xmlns:xlink="http://www.w3.org/1999/xlink">
<g id="graph1" class="graph" transform="scale(1 1) rotate(0) translate(4 582)">
<title>G</title>
<polygon fill="white" stroke="white" points="-4,5 -4,-582 281,-582 281,5 -4,5"/>
<!-- W -->
<g id="node1" class="node"><title>W</title>
<polygon fill="none" stroke="black" points="35,-324 0.175363,-216 69.8246,-216 35,-324"/>
<text text-anchor="middle" x="35" y="-258.4" font-family="Helvetica,sans-Serif" font-size="14.00">W</text>
<text text-anchor="middle" x="35" y="-239.4" font-family="Helvetica,sans-Serif" font-size="14.00">(h)</text>
</g>
<!-- mb -->
<!-- W&#45;&gt;mb -->
<!-- X -->
<g id="node2" class="node"><title>X</title>
<polygon fill="none" stroke="black" points="83,-144 48.1754,-36 117.825,-36 83,-144"/>
<text text-anchor="middle" x="83" y="-78.4" font-family="Helvetica,sans-Serif" font-size="14.00">X</text>
<text text-anchor="middle" x="83" y="-59.4" font-family="Helvetica,sans-Serif" font-size="14.00">(h)</text>
</g>
<!-- mc -->
<!-- X&#45;&gt;mc -->
<!-- Y -->
<g id="node3" class="node"><title>Y</title>
<polygon fill="none" stroke="black" points="218,-118 160.005,-49 275.995,-49 218,-118"/>
<text text-anchor="middle" x="218" y="-78.4" font-family="Helvetica,sans-Serif" font-size="14.00">Y</text>
<text text-anchor="middle" x="218" y="-59.4" font-family="Helvetica,sans-Serif" font-size="14.00">(h&#45;1)</text>
</g>
<!-- Z -->
<g id="node4" class="node"><title>Z</title>
<polygon fill="none" stroke="black" points="195,-504 160.175,-396 229.825,-396 195,-504"/>
<text text-anchor="middle" x="195" y="-438.4" font-family="Helvetica,sans-Serif" font-size="14.00">Z</text>
<text text-anchor="middle" x="195" y="-419.4" font-family="Helvetica,sans-Serif" font-size="14.00">(h)</text>
</g>
<!-- a -->
<g id="node5" class="node"><title>a</title>
<ellipse fill="none" stroke="black" cx="139" cy="-559" rx="27" ry="19.0919"/>
<text text-anchor="middle" x="139" y="-555.9" font-family="Helvetica,sans-Serif" font-size="14.00">a</text>
</g>
<!-- a&#45;&gt;Z -->
<g id="edge6" class="edge"><title>a&#45;&gt;Z:n</title>
<path fill="none" stroke="black" d="M161.455,-548.091C174.235,-540.453 188.621,-528.973 193.378,-514.187"/>
<polygon fill="black" stroke="black" points="196.884,-514.426 195,-504 189.971,-513.325 196.884,-514.426"/>
</g>
<!-- b -->
<g id="node7" class="node"><title>b</title>
<ellipse fill="none" stroke="black" cx="91" cy="-432" rx="27" ry="19.0919"/>
<text text-anchor="middle" x="91" y="-428.9" font-family="Helvetica,sans-Serif" font-size="14.00">b</text>
</g>
<!-- a&#45;&gt;b -->
<g id="edge2" class="edge"><title>a&#45;&gt;b</title>
<path fill="none" stroke="black" d="M132.02,-540.533C124.022,-519.371 110.827,-484.459 101.567,-459.96"/>
<polygon fill="black" stroke="black" points="104.798,-458.606 97.988,-450.489 98.2496,-461.081 104.798,-458.606"/>
</g>
<!-- ma -->
<!-- a&#45;&gt;ma -->
<!-- b&#45;&gt;W -->
<g id="edge12" class="edge"><title>b&#45;&gt;W:n</title>
<path fill="none" stroke="black" d="M76.2867,-415.78C61.2503,-397.627 39.5591,-366.487 35.6241,-334.084"/>
<polygon fill="black" stroke="black" points="39.1112,-333.765 35,-324 32.1245,-334.197 39.1112,-333.765"/>
</g>
<!-- b&#45;&gt;ma -->
<!-- b&#45;&gt;mb -->
<!-- c -->
<g id="node17" class="node"><title>c</title>
<ellipse fill="none" stroke="black" cx="139" cy="-252" rx="27" ry="19.0919"/>
<text text-anchor="middle" x="139" y="-248.9" font-family="Helvetica,sans-Serif" font-size="14.00">c</text>
</g>
<!-- b&#45;&gt;c -->
<g id="edge16" class="edge"><title>b&#45;&gt;c</title>
<path fill="none" stroke="black" d="M96.0461,-413.077C104.473,-381.477 121.458,-317.783 131.358,-280.657"/>
<polygon fill="black" stroke="black" points="134.755,-281.504 133.949,-270.939 127.991,-279.7 134.755,-281.504"/>
</g>
<!-- ma&#45;&gt;Z -->
<!-- mb&#45;&gt;c -->
<!-- c&#45;&gt;X -->
<g id="edge22" class="edge"><title>c&#45;&gt;X:n</title>
<path fill="none" stroke="black" d="M130.191,-233.839C123.032,-219.214 112.585,-198.171 103,-180 96.3287,-167.352 87.8743,-163.665 84.4947,-153.93"/>
<polygon fill="black" stroke="black" points="87.9496,-153.368 83,-144 81.0276,-154.41 87.9496,-153.368"/>
</g>
<!-- c&#45;&gt;Y -->
<g id="edge26" class="edge"><title>c&#45;&gt;Y:n</title>
<path fill="none" stroke="black" d="M155.369,-236.821C176.927,-215.212 212.677,-173.162 217.464,-127.988"/>
<polygon fill="black" stroke="black" points="220.959,-128.173 218,-118 213.969,-127.798 220.959,-128.173"/>
</g>
<!-- c&#45;&gt;mc -->
<!-- mc&#45;&gt;Y -->
</g>
</svg>
