<?xml version="1.0" encoding="UTF-8" standalone="no"?>
<!DOCTYPE svg PUBLIC "-//W3C//DTD SVG 1.1//EN"
 "http://www.w3.org/Graphics/SVG/1.1/DTD/svg11.dtd">
<!-- Generated by graphviz version 2.36.0 (20140111.2315)
 -->
<!-- Title: G Pages: 1 -->
<svg width="423pt" height="296pt"
 viewBox="0.00 0.00 423.00 296.00" xmlns="http://www.w3.org/2000/svg" xmlns:xlink="http://www.w3.org/1999/xlink">
<g id="graph0" class="graph" transform="scale(1 1) rotate(0) translate(4 292)">
<title>G</title>
<polygon fill="white" stroke="none" points="-4,4 -4,-292 419,-292 419,4 -4,4"/>
<!-- W -->
<g id="node1" class="node"><title>W</title>
<polygon fill="none" stroke="black" points="34,-144 -0.319769,-36 68.3198,-36 34,-144"/>
<text text-anchor="middle" x="34" y="-75.8" font-family="Helvetica,sans-Serif" font-size="14.00">W</text>
<text text-anchor="middle" x="34" y="-60.8" font-family="Helvetica,sans-Serif" font-size="14.00">(h)</text>
</g>
<!-- mb -->
<!-- W&#45;&gt;mb -->
<!-- X -->
<g id="node2" class="node"><title>X</title>
<polygon fill="none" stroke="black" points="146,-144 111.68,-36 180.32,-36 146,-144"/>
<text text-anchor="middle" x="146" y="-75.8" font-family="Helvetica,sans-Serif" font-size="14.00">X</text>
<text text-anchor="middle" x="146" y="-60.8" font-family="Helvetica,sans-Serif" font-size="14.00">(h)</text>
</g>
<!-- Y -->
<g id="node3" class="node"><title>Y</title>
<polygon fill="none" stroke="black" points="251,-110 198.53,-53 303.47,-53 251,-110"/>
<text text-anchor="middle" x="251" y="-75.8" font-family="Helvetica,sans-Serif" font-size="14.00">Y</text>
<text text-anchor="middle" x="251" y="-60.8" font-family="Helvetica,sans-Serif" font-size="14.00">(h&#45;1)</text>
</g>
<!-- ma -->
<!-- Y&#45;&gt;ma -->
<!-- Z -->
<g id="node4" class="node"><title>Z</title>
<polygon fill="none" stroke="black" points="381,-144 346.68,-36 415.32,-36 381,-144"/>
<text text-anchor="middle" x="381" y="-75.8" font-family="Helvetica,sans-Serif" font-size="14.00">Z</text>
<text text-anchor="middle" x="381" y="-60.8" font-family="Helvetica,sans-Serif" font-size="14.00">(h)</text>
</g>
<!-- c -->
<g id="node5" class="node"><title>c</title>
<ellipse fill="none" stroke="black" cx="186" cy="-270" rx="27" ry="18"/>
<text text-anchor="middle" x="186" y="-266.3" font-family="Helvetica,sans-Serif" font-size="14.00">c</text>
</g>
<!-- b -->
<g id="node6" class="node"><title>b</title>
<ellipse fill="none" stroke="black" cx="106" cy="-198" rx="27" ry="18"/>
<text text-anchor="middle" x="106" y="-194.3" font-family="Helvetica,sans-Serif" font-size="14.00">b</text>
</g>
<!-- c&#45;&gt;b -->
<g id="edge1" class="edge"><title>c&#45;&gt;b</title>
<path fill="none" stroke="black" d="M170.195,-255.17C158.58,-245.008 142.606,-231.03 129.499,-219.561"/>
<polygon fill="black" stroke="black" points="131.603,-216.752 121.773,-212.801 126.994,-222.02 131.603,-216.752"/>
</g>
<!-- mc -->
<!-- c&#45;&gt;mc -->
<!-- a -->
<g id="node9" class="node"><title>a</title>
<ellipse fill="none" stroke="black" cx="288" cy="-198" rx="27" ry="18"/>
<text text-anchor="middle" x="288" y="-194.3" font-family="Helvetica,sans-Serif" font-size="14.00">a</text>
</g>
<!-- c&#45;&gt;a -->
<g id="edge3" class="edge"><title>c&#45;&gt;a</title>
<path fill="none" stroke="black" d="M204.236,-256.485C220.191,-245.536 243.565,-229.495 261.571,-217.138"/>
<polygon fill="black" stroke="black" points="263.658,-219.951 269.922,-211.406 259.697,-214.179 263.658,-219.951"/>
</g>
<!-- b&#45;&gt;W -->
<g id="edge6" class="edge"><title>b&#45;&gt;W:n</title>
<path fill="none" stroke="black" d="M81.6241,-190.141C63.7553,-183.688 41.6063,-172.228 35.5771,-153.892"/>
<polygon fill="black" stroke="black" points="39.0309,-153.324 34,-144 32.1182,-154.426 39.0309,-153.324"/>
</g>
<!-- b&#45;&gt;X -->
<g id="edge8" class="edge"><title>b&#45;&gt;X:n</title>
<path fill="none" stroke="black" d="M123.661,-183.739C132.032,-176.183 140.958,-165.888 144.463,-154.16"/>
<polygon fill="black" stroke="black" points="147.964,-154.411 146,-144 141.043,-153.364 147.964,-154.411"/>
</g>
<!-- b&#45;&gt;mc -->
<!-- b&#45;&gt;mb -->
<!-- ma&#45;&gt;Z -->
<!-- mc&#45;&gt;a -->
<!-- a&#45;&gt;Y -->
<g id="edge11" class="edge"><title>a&#45;&gt;Y:n</title>
<path fill="none" stroke="black" d="M276.698,-181.38C267.219,-166.916 254.755,-144.227 251.698,-121.213"/>
<polygon fill="black" stroke="black" points="255.174,-120.738 251,-111 248.191,-121.216 255.174,-120.738"/>
</g>
<!-- a&#45;&gt;Z -->
<g id="edge13" class="edge"><title>a&#45;&gt;Z:n</title>
<path fill="none" stroke="black" d="M314.401,-193.393C338.674,-188.61 371.994,-177.82 379.471,-154.131"/>
<polygon fill="black" stroke="black" points="382.968,-154.41 381,-144 376.046,-153.366 382.968,-154.41"/>
</g>
<!-- a&#45;&gt;ma -->
<!-- mb&#45;&gt;X -->
</g>
</svg>
