<?xml version="1.0" encoding="UTF-8" standalone="no"?>
<!DOCTYPE svg PUBLIC "-//W3C//DTD SVG 1.1//EN"
 "http://www.w3.org/Graphics/SVG/1.1/DTD/svg11.dtd">
<!-- Generated by graphviz version 2.36.0 (20140111.2315)
 -->
<!-- Title: G Pages: 1 -->
<svg width="160pt" height="250pt"
 viewBox="0.00 0.00 160.00 250.00" xmlns="http://www.w3.org/2000/svg" xmlns:xlink="http://www.w3.org/1999/xlink">
<g id="graph0" class="graph" transform="scale(1 1) rotate(0) translate(4 246)">
<title>G</title>
<polygon fill="white" stroke="none" points="-4,4 -4,-246 156,-246 156,4 -4,4"/>
<!-- 3 -->
<g id="node1" class="node"><title>3</title>
<ellipse fill="none" stroke="red" cx="124" cy="-213" rx="27.9291" ry="28.0702"/>
<text text-anchor="middle" x="124" y="-216.8" font-family="Helvetica,sans-Serif" font-size="14.00" fill="red">3</text>
<text text-anchor="middle" x="124" y="-201.8" font-family="Helvetica,sans-Serif" font-size="14.00" fill="red">b:&#45;2</text>
</g>
<!-- 2 -->
<g id="node2" class="node"><title>2</title>
<ellipse fill="none" stroke="green" cx="74" cy="-119" rx="27.9291" ry="28.0702"/>
<text text-anchor="middle" x="74" y="-122.8" font-family="Helvetica,sans-Serif" font-size="14.00" fill="green">2</text>
<text text-anchor="middle" x="74" y="-107.8" font-family="Helvetica,sans-Serif" font-size="14.00" fill="green">b:&#45;1</text>
</g>
<!-- 3&#45;&gt;2 -->
<g id="edge1" class="edge"><title>3&#45;&gt;2</title>
<path fill="none" stroke="black" d="M110.863,-187.828C105.11,-177.242 98.2652,-164.648 92.0448,-153.202"/>
<polygon fill="black" stroke="black" points="95.0731,-151.445 87.2228,-144.33 88.9228,-154.787 95.0731,-151.445"/>
</g>
<!-- m3 -->
<!-- 3&#45;&gt;m3 -->
<!-- r3 -->
<!-- 3&#45;&gt;r3 -->
<!-- 1 -->
<g id="node3" class="node"><title>1</title>
<ellipse fill="none" stroke="blue" cx="26" cy="-27" rx="26.3078" ry="26.7407"/>
<text text-anchor="middle" x="26" y="-30.8" font-family="Helvetica,sans-Serif" font-size="14.00" fill="blue">1</text>
<text text-anchor="middle" x="26" y="-15.8" font-family="Helvetica,sans-Serif" font-size="14.00" fill="blue">b:0</text>
</g>
<!-- 2&#45;&gt;1 -->
<g id="edge6" class="edge"><title>2&#45;&gt;1</title>
<path fill="none" stroke="black" d="M60.8838,-93.4071C55.3756,-83.0793 48.8971,-70.9321 43.0278,-59.9271"/>
<polygon fill="black" stroke="black" points="46.0697,-58.193 38.2755,-51.0166 39.8932,-61.4872 46.0697,-58.193"/>
</g>
<!-- 2&#45;&gt;m3 -->
<!-- l2 -->
<!-- 2&#45;&gt;l2 -->
<!-- r2 -->
<!-- 2&#45;&gt;r2 -->
<!-- 1&#45;&gt;l2 -->
<!-- m3&#45;&gt;r3 -->
<!-- l2&#45;&gt;r2 -->
</g>
</svg>
