<?xml version="1.0" encoding="UTF-8" standalone="no"?>
<!DOCTYPE svg PUBLIC "-//W3C//DTD SVG 1.1//EN"
 "http://www.w3.org/Graphics/SVG/1.1/DTD/svg11.dtd">
<!-- Generated by graphviz version 2.36.0 (20140111.2315)
 -->
<!-- Title: G Pages: 1 -->
<svg width="397pt" height="260pt"
 viewBox="0.00 0.00 397.00 260.00" xmlns="http://www.w3.org/2000/svg" xmlns:xlink="http://www.w3.org/1999/xlink">
<g id="graph0" class="graph" transform="scale(1 1) rotate(0) translate(4 256)">
<title>G</title>
<polygon fill="white" stroke="none" points="-4,4 -4,-256 393,-256 393,4 -4,4"/>
<!-- 3 -->
<g id="node1" class="node"><title>3</title>
<ellipse fill="none" stroke="blue" cx="149" cy="-162" rx="27" ry="18"/>
<text text-anchor="middle" x="149" y="-158.3" font-family="Helvetica,sans-Serif" font-size="14.00">3</text>
</g>
<!-- 5 -->
<g id="node2" class="node"><title>5</title>
<ellipse fill="none" stroke="blue" cx="192" cy="-90" rx="27" ry="18"/>
<text text-anchor="middle" x="192" y="-86.3" font-family="Helvetica,sans-Serif" font-size="14.00">5</text>
</g>
<!-- 3&#45;&gt;5 -->
<g id="edge13" class="edge"><title>3&#45;&gt;5</title>
<path fill="none" stroke="black" d="M158.757,-145.116C164.145,-136.345 170.952,-125.264 177.001,-115.416"/>
<polygon fill="black" stroke="black" points="180.029,-117.174 182.281,-106.821 174.065,-113.51 180.029,-117.174"/>
</g>
<!-- m15 -->
<!-- 3&#45;&gt;m15 -->
<!-- 2 -->
<g id="node9" class="node"><title>2</title>
<ellipse fill="none" stroke="black" cx="82" cy="-90" rx="27" ry="18"/>
<text text-anchor="middle" x="82" y="-86.3" font-family="Helvetica,sans-Serif" font-size="14.00">2</text>
</g>
<!-- 3&#45;&gt;2 -->
<g id="edge11" class="edge"><title>3&#45;&gt;2</title>
<path fill="none" stroke="black" d="M135.118,-146.496C125.865,-136.829 113.529,-123.94 103.074,-113.017"/>
<polygon fill="black" stroke="black" points="105.308,-110.29 95.8647,-105.485 100.251,-115.13 105.308,-110.29"/>
</g>
<!-- m3 -->
<!-- 3&#45;&gt;m3 -->
<!-- 4 -->
<g id="node6" class="node"><title>4</title>
<ellipse fill="none" stroke="black" cx="150" cy="-18" rx="27" ry="18"/>
<text text-anchor="middle" x="150" y="-14.3" font-family="Helvetica,sans-Serif" font-size="14.00">4</text>
</g>
<!-- 5&#45;&gt;4 -->
<g id="edge6" class="edge"><title>5&#45;&gt;4</title>
<path fill="none" stroke="black" d="M182.47,-73.1159C177.334,-64.5567 170.878,-53.7974 165.079,-44.1316"/>
<polygon fill="black" stroke="black" points="167.93,-42.0812 159.784,-35.307 161.928,-45.6827 167.93,-42.0812"/>
</g>
<!-- m5 -->
<!-- 5&#45;&gt;m5 -->
<!-- 10 -->
<g id="node8" class="node"><title>10</title>
<ellipse fill="none" stroke="black" cx="248" cy="-18" rx="27" ry="18"/>
<text text-anchor="middle" x="248" y="-14.3" font-family="Helvetica,sans-Serif" font-size="14.00">10</text>
</g>
<!-- 5&#45;&gt;10 -->
<g id="edge8" class="edge"><title>5&#45;&gt;10</title>
<path fill="none" stroke="black" d="M204.151,-73.811C211.563,-64.5464 221.184,-52.5203 229.525,-42.0944"/>
<polygon fill="black" stroke="black" points="232.359,-44.1545 235.873,-34.1593 226.893,-39.7816 232.359,-44.1545"/>
</g>
<!-- 15 -->
<g id="node3" class="node"><title>15</title>
<ellipse fill="none" stroke="black" cx="209" cy="-234" rx="27" ry="18"/>
<text text-anchor="middle" x="209" y="-230.3" font-family="Helvetica,sans-Serif" font-size="14.00">15</text>
</g>
<!-- 15&#45;&gt;3 -->
<g id="edge1" class="edge"><title>15&#45;&gt;3</title>
<path fill="none" stroke="black" d="M195.981,-217.811C187.961,-208.455 177.527,-196.282 168.53,-185.785"/>
<polygon fill="black" stroke="black" points="171.159,-183.474 161.994,-178.159 165.844,-188.03 171.159,-183.474"/>
</g>
<!-- 15&#45;&gt;m15 -->
<!-- 20 -->
<g id="node5" class="node"><title>20</title>
<ellipse fill="none" stroke="black" cx="288" cy="-162" rx="27" ry="18"/>
<text text-anchor="middle" x="288" y="-158.3" font-family="Helvetica,sans-Serif" font-size="14.00">20</text>
</g>
<!-- 15&#45;&gt;20 -->
<g id="edge3" class="edge"><title>15&#45;&gt;20</title>
<path fill="none" stroke="black" d="M224.608,-219.17C236.077,-209.008 251.851,-195.03 264.795,-183.561"/>
<polygon fill="black" stroke="black" points="267.261,-186.053 272.425,-176.801 262.619,-180.813 267.261,-186.053"/>
</g>
<!-- m15&#45;&gt;20 -->
<!-- 17 -->
<g id="node14" class="node"><title>17</title>
<ellipse fill="none" stroke="black" cx="264" cy="-90" rx="27" ry="18"/>
<text text-anchor="middle" x="264" y="-86.3" font-family="Helvetica,sans-Serif" font-size="14.00">17</text>
</g>
<!-- 20&#45;&gt;17 -->
<g id="edge21" class="edge"><title>20&#45;&gt;17</title>
<path fill="none" stroke="black" d="M282.19,-144.055C279.449,-136.059 276.113,-126.331 273.051,-117.4"/>
<polygon fill="black" stroke="black" points="276.31,-116.113 269.756,-107.789 269.689,-118.384 276.31,-116.113"/>
</g>
<!-- m20 -->
<!-- 20&#45;&gt;m20 -->
<!-- 21 -->
<g id="node16" class="node"><title>21</title>
<ellipse fill="none" stroke="black" cx="362" cy="-90" rx="27" ry="18"/>
<text text-anchor="middle" x="362" y="-86.3" font-family="Helvetica,sans-Serif" font-size="14.00">21</text>
</g>
<!-- 20&#45;&gt;21 -->
<g id="edge23" class="edge"><title>20&#45;&gt;21</title>
<path fill="none" stroke="black" d="M302.975,-146.834C313.507,-136.872 327.782,-123.369 339.655,-112.137"/>
<polygon fill="black" stroke="black" points="342.188,-114.559 347.047,-105.144 337.377,-109.474 342.188,-114.559"/>
</g>
<!-- 4&#45;&gt;m5 -->
<!-- m5&#45;&gt;10 -->
<!-- 2&#45;&gt;m3 -->
<!-- 1 -->
<g id="node11" class="node"><title>1</title>
<ellipse fill="none" stroke="black" cx="27" cy="-18" rx="27" ry="18"/>
<text text-anchor="middle" x="27" y="-14.3" font-family="Helvetica,sans-Serif" font-size="14.00">1</text>
</g>
<!-- 2&#45;&gt;1 -->
<g id="edge16" class="edge"><title>2&#45;&gt;1</title>
<path fill="none" stroke="black" d="M70.0658,-73.811C62.7864,-64.5464 53.3374,-52.5203 45.1456,-42.0944"/>
<polygon fill="black" stroke="black" points="47.8413,-39.8601 38.9109,-34.1593 42.337,-44.1849 47.8413,-39.8601"/>
</g>
<!-- m2 -->
<!-- 2&#45;&gt;m2 -->
<!-- r2 -->
<!-- 2&#45;&gt;r2 -->
<!-- m3&#45;&gt;5 -->
<!-- 1&#45;&gt;m2 -->
<!-- m2&#45;&gt;r2 -->
<!-- 17&#45;&gt;m20 -->
<!-- m20&#45;&gt;21 -->
</g>
</svg>
