<?xml version="1.0" encoding="UTF-8" standalone="no"?>
<!DOCTYPE svg PUBLIC "-//W3C//DTD SVG 1.1//EN"
 "http://www.w3.org/Graphics/SVG/1.1/DTD/svg11.dtd">
<!-- Generated by graphviz version 2.26.3 (20100126.1600)
 -->
<!-- Title: G Pages: 1 -->
<svg width="286pt" height="482pt"
 viewBox="0.00 0.00 286.00 482.00" xmlns="http://www.w3.org/2000/svg" xmlns:xlink="http://www.w3.org/1999/xlink">
<g id="graph1" class="graph" transform="scale(1 1) rotate(0) translate(4 478)">
<title>G</title>
<polygon fill="white" stroke="white" points="-4,5 -4,-478 283,-478 283,5 -4,5"/>
<!-- 5 -->
<g id="node1" class="node"><title>5</title>
<ellipse fill="none" stroke="red" cx="141" cy="-441" rx="27.7881" ry="32.5269"/>
<text text-anchor="middle" x="141" y="-447.4" font-family="Helvetica,sans-Serif" font-size="14.00" fill="red">5</text>
<text text-anchor="middle" x="141" y="-428.4" font-family="Helvetica,sans-Serif" font-size="14.00" fill="red">b:&#45;2</text>
</g>
<!-- 4 -->
<g id="node2" class="node"><title>4</title>
<ellipse fill="none" stroke="red" cx="86" cy="-339" rx="27.7881" ry="32.5269"/>
<text text-anchor="middle" x="86" y="-345.4" font-family="Helvetica,sans-Serif" font-size="14.00" fill="red">4</text>
<text text-anchor="middle" x="86" y="-326.4" font-family="Helvetica,sans-Serif" font-size="14.00" fill="red">b:&#45;3</text>
</g>
<!-- 5&#45;&gt;4 -->
<g id="edge2" class="edge"><title>5&#45;&gt;4</title>
<path fill="none" stroke="black" d="M126.116,-413.397C119.819,-401.718 112.394,-387.949 105.655,-375.452"/>
<polygon fill="black" stroke="black" points="108.723,-373.766 100.896,-366.625 102.561,-377.088 108.723,-373.766"/>
</g>
<!-- 8 -->
<g id="node6" class="node"><title>8</title>
<ellipse fill="none" stroke="black" cx="200" cy="-339" rx="27" ry="32.5269"/>
<text text-anchor="middle" x="200" y="-345.4" font-family="Helvetica,sans-Serif" font-size="14.00">8</text>
<text text-anchor="middle" x="200" y="-326.4" font-family="Helvetica,sans-Serif" font-size="14.00">b:0</text>
</g>
<!-- 5&#45;&gt;8 -->
<g id="edge6" class="edge"><title>5&#45;&gt;8</title>
<path fill="none" stroke="black" d="M156.656,-413.934C163.646,-401.849 171.977,-387.447 179.459,-374.512"/>
<polygon fill="black" stroke="black" points="182.498,-376.248 184.476,-365.839 176.439,-372.743 182.498,-376.248"/>
</g>
<!-- m5 -->
<!-- 5&#45;&gt;m5 -->
<!-- 1 -->
<g id="node3" class="node"><title>1</title>
<ellipse fill="none" stroke="red" cx="31" cy="-237" rx="31.1127" ry="32.5269"/>
<text text-anchor="middle" x="31" y="-243.4" font-family="Helvetica,sans-Serif" font-size="14.00" fill="red">1</text>
<text text-anchor="middle" x="31" y="-224.4" font-family="Helvetica,sans-Serif" font-size="14.00" fill="red">b:+2</text>
</g>
<!-- 4&#45;&gt;1 -->
<g id="edge12" class="edge"><title>4&#45;&gt;1</title>
<path fill="none" stroke="black" d="M71.1162,-311.397C64.9812,-300.02 57.7766,-286.658 51.1785,-274.422"/>
<polygon fill="black" stroke="black" points="54.1058,-272.476 46.2789,-265.335 47.9444,-275.799 54.1058,-272.476"/>
</g>
<!-- 4&#45;&gt;m5 -->
<!-- l4 -->
<!-- 4&#45;&gt;l4 -->
<!-- r4 -->
<!-- 4&#45;&gt;r4 -->
<!-- 3 -->
<g id="node4" class="node"><title>3</title>
<ellipse fill="none" stroke="black" cx="80" cy="-135" rx="27.7881" ry="32.5269"/>
<text text-anchor="middle" x="80" y="-141.4" font-family="Helvetica,sans-Serif" font-size="14.00">3</text>
<text text-anchor="middle" x="80" y="-122.4" font-family="Helvetica,sans-Serif" font-size="14.00">b:&#45;1</text>
</g>
<!-- 1&#45;&gt;3 -->
<g id="edge26" class="edge"><title>1&#45;&gt;3</title>
<path fill="none" stroke="black" d="M45.0414,-207.771C50.3077,-196.808 56.3677,-184.194 61.9473,-172.579"/>
<polygon fill="black" stroke="black" points="65.1194,-174.059 66.2948,-163.529 58.8097,-171.028 65.1194,-174.059"/>
</g>
<!-- 1&#45;&gt;l4 -->
<!-- l1 -->
<!-- 1&#45;&gt;l1 -->
<!-- m1 -->
<!-- 1&#45;&gt;m1 -->
<!-- 2 -->
<g id="node5" class="node"><title>2</title>
<ellipse fill="none" stroke="black" cx="32" cy="-33" rx="27" ry="32.5269"/>
<text text-anchor="middle" x="32" y="-39.4" font-family="Helvetica,sans-Serif" font-size="14.00">2</text>
<text text-anchor="middle" x="32" y="-20.4" font-family="Helvetica,sans-Serif" font-size="14.00">b:0</text>
</g>
<!-- 3&#45;&gt;2 -->
<g id="edge32" class="edge"><title>3&#45;&gt;2</title>
<path fill="none" stroke="black" d="M66.5016,-106.316C61.2942,-95.2501 55.2651,-82.4384 49.7178,-70.6503"/>
<polygon fill="black" stroke="black" points="52.822,-69.0267 45.3971,-61.4688 46.4883,-72.0073 52.822,-69.0267"/>
</g>
<!-- l3 -->
<!-- 3&#45;&gt;l3 -->
<!-- r3 -->
<!-- 3&#45;&gt;r3 -->
<!-- 2&#45;&gt;l3 -->
<!-- 7 -->
<g id="node7" class="node"><title>7</title>
<ellipse fill="none" stroke="black" cx="155" cy="-237" rx="27" ry="32.5269"/>
<text text-anchor="middle" x="155" y="-243.4" font-family="Helvetica,sans-Serif" font-size="14.00">7</text>
<text text-anchor="middle" x="155" y="-224.4" font-family="Helvetica,sans-Serif" font-size="14.00">b:0</text>
</g>
<!-- 8&#45;&gt;7 -->
<g id="edge42" class="edge"><title>8&#45;&gt;7</title>
<path fill="none" stroke="black" d="M187.225,-310.044C182.475,-299.276 177.009,-286.886 171.943,-275.404"/>
<polygon fill="black" stroke="black" points="175.045,-273.765 167.807,-266.029 168.641,-276.591 175.045,-273.765"/>
</g>
<!-- 11 -->
<g id="node8" class="node"><title>11</title>
<ellipse fill="none" stroke="black" cx="251" cy="-237" rx="27" ry="32.5269"/>
<text text-anchor="middle" x="251" y="-243.4" font-family="Helvetica,sans-Serif" font-size="14.00">11</text>
<text text-anchor="middle" x="251" y="-224.4" font-family="Helvetica,sans-Serif" font-size="14.00">b:0</text>
</g>
<!-- 8&#45;&gt;11 -->
<g id="edge46" class="edge"><title>8&#45;&gt;11</title>
<path fill="none" stroke="black" d="M213.936,-311.128C219.623,-299.753 226.285,-286.431 232.379,-274.242"/>
<polygon fill="black" stroke="black" points="235.562,-275.702 236.904,-265.193 229.301,-272.572 235.562,-275.702"/>
</g>
<!-- m8 -->
<!-- 8&#45;&gt;m8 -->
<!-- 7&#45;&gt;m8 -->
<!-- m5&#45;&gt;8 -->
<!-- l4&#45;&gt;r4 -->
<!-- l1&#45;&gt;m1 -->
<!-- m1&#45;&gt;3 -->
<!-- l3&#45;&gt;r3 -->
<!-- m8&#45;&gt;11 -->
</g>
</svg>
