<?xml version="1.0" encoding="UTF-8" standalone="no"?>
<!DOCTYPE svg PUBLIC "-//W3C//DTD SVG 1.1//EN"
 "http://www.w3.org/Graphics/SVG/1.1/DTD/svg11.dtd">
<!-- Generated by graphviz version 2.36.0 (20140111.2315)
 -->
<!-- Title: G Pages: 1 -->
<svg width="277pt" height="336pt"
 viewBox="0.00 0.00 277.00 336.00" xmlns="http://www.w3.org/2000/svg" xmlns:xlink="http://www.w3.org/1999/xlink">
<g id="graph0" class="graph" transform="scale(1 1) rotate(0) translate(4 332)">
<title>G</title>
<polygon fill="white" stroke="none" points="-4,4 -4,-332 273,-332 273,4 -4,4"/>
<!-- X -->
<g id="node1" class="node"><title>X</title>
<polygon fill="none" stroke="black" points="50,-256 -0.203437,-148 100.203,-148 50,-256"/>
<text text-anchor="middle" x="50" y="-187.8" font-family="Helvetica,sans-Serif" font-size="14.00">X</text>
<text text-anchor="middle" x="50" y="-172.8" font-family="Helvetica,sans-Serif" font-size="14.00">(h+1)</text>
</g>
<!-- mb -->
<!-- X&#45;&gt;mb -->
<!-- Y -->
<g id="node2" class="node"><title>Y</title>
<polygon fill="none" stroke="black" points="111,-76 72.7202,-19 149.28,-19 111,-76"/>
<text text-anchor="middle" x="111" y="-41.8" font-family="Helvetica,sans-Serif" font-size="14.00">Y</text>
<text text-anchor="middle" x="111" y="-26.8" font-family="Helvetica,sans-Serif" font-size="14.00">(h)</text>
</g>
<!-- ma -->
<!-- Y&#45;&gt;ma -->
<!-- Z -->
<g id="node3" class="node"><title>Z</title>
<polygon fill="none" stroke="black" points="231,-76 192.72,-19 269.28,-19 231,-76"/>
<text text-anchor="middle" x="231" y="-41.8" font-family="Helvetica,sans-Serif" font-size="14.00">Z</text>
<text text-anchor="middle" x="231" y="-26.8" font-family="Helvetica,sans-Serif" font-size="14.00">(h)</text>
</g>
<!-- b -->
<g id="node4" class="node"><title>b</title>
<ellipse fill="none" stroke="black" cx="122" cy="-310" rx="27" ry="18"/>
<text text-anchor="middle" x="122" y="-306.3" font-family="Helvetica,sans-Serif" font-size="14.00">b</text>
</g>
<!-- b&#45;&gt;X -->
<g id="edge1" class="edge"><title>b&#45;&gt;X:n</title>
<path fill="none" stroke="black" d="M97.6241,-302.141C79.7553,-295.688 57.6063,-284.228 51.5771,-265.892"/>
<polygon fill="black" stroke="black" points="55.0309,-265.324 50,-256 48.1182,-266.426 55.0309,-265.324"/>
</g>
<!-- b&#45;&gt;mb -->
<!-- a -->
<g id="node6" class="node"><title>a</title>
<ellipse fill="none" stroke="black" cx="171" cy="-184" rx="27" ry="18"/>
<text text-anchor="middle" x="171" y="-180.3" font-family="Helvetica,sans-Serif" font-size="14.00">a</text>
</g>
<!-- b&#45;&gt;a -->
<g id="edge3" class="edge"><title>b&#45;&gt;a</title>
<path fill="none" stroke="black" d="M128.608,-292.277C136.828,-271.476 150.955,-235.727 160.624,-211.257"/>
<polygon fill="black" stroke="black" points="163.92,-212.441 164.34,-201.854 157.41,-209.868 163.92,-212.441"/>
</g>
<!-- mb&#45;&gt;a -->
<!-- a&#45;&gt;Y -->
<g id="edge6" class="edge"><title>a&#45;&gt;Y:n</title>
<path fill="none" stroke="black" d="M163.023,-166.708C155.785,-152.174 144.649,-130.408 134,-112 126.498,-99.032 116.515,-95.9363 112.637,-85.8794"/>
<polygon fill="black" stroke="black" points="116.088,-85.2933 111,-76 109.182,-86.4377 116.088,-85.2933"/>
</g>
<!-- a&#45;&gt;Z -->
<g id="edge8" class="edge"><title>a&#45;&gt;Z:n</title>
<path fill="none" stroke="black" d="M185.524,-168.505C201.617,-150.984 225.89,-119.682 230.3,-86.3846"/>
<polygon fill="black" stroke="black" points="233.82,-86.2127 231,-76 226.835,-85.742 233.82,-86.2127"/>
</g>
<!-- a&#45;&gt;ma -->
<!-- ma&#45;&gt;Z -->
</g>
</svg>
