<?xml version="1.0" encoding="UTF-8" standalone="no"?>
<!DOCTYPE svg PUBLIC "-//W3C//DTD SVG 1.1//EN"
 "http://www.w3.org/Graphics/SVG/1.1/DTD/svg11.dtd">
<!-- Generated by graphviz version 2.36.0 (20140111.2315)
 -->
<!-- Title: G Pages: 1 -->
<svg width="278pt" height="350pt"
 viewBox="0.00 0.00 278.00 350.00" xmlns="http://www.w3.org/2000/svg" xmlns:xlink="http://www.w3.org/1999/xlink">
<g id="graph0" class="graph" transform="scale(1 1) rotate(0) translate(4 346)">
<title>G</title>
<polygon fill="white" stroke="none" points="-4,4 -4,-346 274,-346 274,4 -4,4"/>
<!-- 4 -->
<g id="node1" class="node"><title>4</title>
<ellipse fill="none" stroke="blue" cx="58" cy="-165" rx="18" ry="18"/>
<text text-anchor="middle" x="58" y="-161.3" font-family="Helvetica,sans-Serif" font-size="14.00">4</text>
</g>
<!-- 6 -->
<g id="node2" class="node"><title>6</title>
<ellipse fill="none" stroke="blue" cx="98" cy="-90" rx="18" ry="18"/>
<text text-anchor="middle" x="98" y="-86.3" font-family="Helvetica,sans-Serif" font-size="14.00">6</text>
</g>
<!-- 4&#45;&gt;6 -->
<g id="edge13" class="edge"><title>4&#45;&gt;6</title>
<path fill="none" stroke="black" d="M66.288,-148.874C71.6513,-139.086 78.7495,-126.132 84.8704,-114.961"/>
<polygon fill="black" stroke="black" points="87.9866,-116.558 89.7226,-106.106 81.8478,-113.194 87.9866,-116.558"/>
</g>
<!-- m8 -->
<!-- 4&#45;&gt;m8 -->
<!-- 3 -->
<g id="node9" class="node"><title>3</title>
<ellipse fill="none" stroke="black" cx="18" cy="-90" rx="18" ry="18"/>
<text text-anchor="middle" x="18" y="-86.3" font-family="Helvetica,sans-Serif" font-size="14.00">3</text>
</g>
<!-- 4&#45;&gt;3 -->
<g id="edge11" class="edge"><title>4&#45;&gt;3</title>
<path fill="none" stroke="black" d="M49.712,-148.874C44.3487,-139.086 37.2505,-126.132 31.1296,-114.961"/>
<polygon fill="black" stroke="black" points="34.1522,-113.194 26.2774,-106.106 28.0134,-116.558 34.1522,-113.194"/>
</g>
<!-- m4 -->
<!-- 4&#45;&gt;m4 -->
<!-- 5 -->
<g id="node11" class="node"><title>5</title>
<ellipse fill="none" stroke="red" cx="58" cy="-18" rx="18" ry="18"/>
<text text-anchor="middle" x="58" y="-14.3" font-family="Helvetica,sans-Serif" font-size="14.00">5</text>
</g>
<!-- 6&#45;&gt;5 -->
<g id="edge16" class="edge"><title>6&#45;&gt;5</title>
<path fill="none" stroke="red" d="M89.3206,-73.811C84.1838,-64.8216 77.5613,-53.2323 71.73,-43.0275"/>
<polygon fill="red" stroke="red" points="74.6628,-41.1053 66.6625,-34.1593 68.585,-44.5783 74.6628,-41.1053"/>
</g>
<!-- m6 -->
<!-- 6&#45;&gt;m6 -->
<!-- r6 -->
<!-- 6&#45;&gt;r6 -->
<!-- 15 -->
<g id="node3" class="node"><title>15</title>
<ellipse fill="none" stroke="black" cx="153" cy="-321" rx="20.203" ry="20.5982"/>
<text text-anchor="middle" x="153" y="-317.3" font-family="Helvetica,sans-Serif" font-size="14.00">15</text>
</g>
<!-- 8 -->
<g id="node4" class="node"><title>8</title>
<ellipse fill="none" stroke="black" cx="103" cy="-243" rx="18" ry="18"/>
<text text-anchor="middle" x="103" y="-239.3" font-family="Helvetica,sans-Serif" font-size="14.00">8</text>
</g>
<!-- 15&#45;&gt;8 -->
<g id="edge1" class="edge"><title>15&#45;&gt;8</title>
<path fill="none" stroke="black" d="M141.903,-303.133C134.934,-292.539 125.85,-278.732 118.214,-267.125"/>
<polygon fill="black" stroke="black" points="121.135,-265.197 112.715,-258.766 115.287,-269.044 121.135,-265.197"/>
</g>
<!-- m15 -->
<!-- 15&#45;&gt;m15 -->
<!-- 17 -->
<g id="node6" class="node"><title>17</title>
<ellipse fill="none" stroke="black" cx="221" cy="-243" rx="20.203" ry="20.5982"/>
<text text-anchor="middle" x="221" y="-239.3" font-family="Helvetica,sans-Serif" font-size="14.00">17</text>
</g>
<!-- 15&#45;&gt;17 -->
<g id="edge3" class="edge"><title>15&#45;&gt;17</title>
<path fill="none" stroke="black" d="M166.435,-304.985C176.214,-294.055 189.629,-279.062 200.71,-266.677"/>
<polygon fill="black" stroke="black" points="203.534,-268.77 207.593,-258.984 198.317,-264.103 203.534,-268.77"/>
</g>
<!-- 8&#45;&gt;4 -->
<g id="edge6" class="edge"><title>8&#45;&gt;4</title>
<path fill="none" stroke="black" d="M94.1094,-226.985C87.8228,-216.367 79.2656,-201.915 72.0594,-189.745"/>
<polygon fill="black" stroke="black" points="74.9787,-187.805 66.8721,-180.984 68.9554,-191.372 74.9787,-187.805"/>
</g>
<!-- 8&#45;&gt;m15 -->
<!-- 8&#45;&gt;m8 -->
<!-- 10 -->
<g id="node8" class="node"><title>10</title>
<ellipse fill="none" stroke="black" cx="140" cy="-165" rx="20.203" ry="20.5982"/>
<text text-anchor="middle" x="140" y="-161.3" font-family="Helvetica,sans-Serif" font-size="14.00">10</text>
</g>
<!-- 8&#45;&gt;10 -->
<g id="edge8" class="edge"><title>8&#45;&gt;10</title>
<path fill="none" stroke="black" d="M110.488,-226.62C115.173,-216.997 121.339,-204.33 126.824,-193.065"/>
<polygon fill="black" stroke="black" points="129.992,-194.552 131.223,-184.029 123.699,-191.488 129.992,-194.552"/>
</g>
<!-- m15&#45;&gt;17 -->
<!-- 16 -->
<g id="node14" class="node"><title>16</title>
<ellipse fill="none" stroke="black" cx="200" cy="-165" rx="20.203" ry="20.5982"/>
<text text-anchor="middle" x="200" y="-161.3" font-family="Helvetica,sans-Serif" font-size="14.00">16</text>
</g>
<!-- 17&#45;&gt;16 -->
<g id="edge21" class="edge"><title>17&#45;&gt;16</title>
<path fill="none" stroke="black" d="M215.701,-222.822C213.363,-214.361 210.565,-204.235 207.983,-194.89"/>
<polygon fill="black" stroke="black" points="211.335,-193.878 205.297,-185.172 204.587,-195.743 211.335,-193.878"/>
</g>
<!-- m17 -->
<!-- 17&#45;&gt;m17 -->
<!-- l17 -->
<!-- 17&#45;&gt;l17 -->
<!-- m8&#45;&gt;10 -->
<!-- 3&#45;&gt;m4 -->
<!-- m4&#45;&gt;6 -->
<!-- 5&#45;&gt;m6 -->
<!-- m6&#45;&gt;r6 -->
<!-- 16&#45;&gt;m17 -->
<!-- m17&#45;&gt;l17 -->
</g>
</svg>
