<?xml version="1.0" encoding="UTF-8" standalone="no"?>
<!DOCTYPE svg PUBLIC "-//W3C//DTD SVG 1.1//EN"
 "http://www.w3.org/Graphics/SVG/1.1/DTD/svg11.dtd">
<!-- Generated by graphviz version 2.36.0 (20140111.2315)
 -->
<!-- Title: G Pages: 1 -->
<svg width="283pt" height="260pt"
 viewBox="0.00 0.00 283.00 260.00" xmlns="http://www.w3.org/2000/svg" xmlns:xlink="http://www.w3.org/1999/xlink">
<g id="graph0" class="graph" transform="scale(1 1) rotate(0) translate(4 256)">
<title>G</title>
<polygon fill="white" stroke="none" points="-4,4 -4,-256 279,-256 279,4 -4,4"/>
<!-- 5 -->
<g id="node1" class="node"><title>5</title>
<ellipse fill="none" stroke="black" cx="140" cy="-234" rx="27" ry="18"/>
<text text-anchor="middle" x="140" y="-230.3" font-family="Helvetica,sans-Serif" font-size="14.00">5</text>
</g>
<!-- 4 -->
<g id="node2" class="node"><title>4</title>
<ellipse fill="none" stroke="black" cx="79" cy="-162" rx="27" ry="18"/>
<text text-anchor="middle" x="79" y="-158.3" font-family="Helvetica,sans-Serif" font-size="14.00">4</text>
</g>
<!-- 5&#45;&gt;4 -->
<g id="edge1" class="edge"><title>5&#45;&gt;4</title>
<path fill="none" stroke="black" d="M127.063,-218.155C118.814,-208.689 107.965,-196.238 98.6619,-185.563"/>
<polygon fill="black" stroke="black" points="101.126,-183.063 91.9179,-177.824 95.849,-187.662 101.126,-183.063"/>
</g>
<!-- m5 -->
<!-- 5&#45;&gt;m5 -->
<!-- 9 -->
<g id="node4" class="node"><title>9</title>
<ellipse fill="none" stroke="black" cx="195" cy="-162" rx="27" ry="18"/>
<text text-anchor="middle" x="195" y="-158.3" font-family="Helvetica,sans-Serif" font-size="14.00">9</text>
</g>
<!-- 5&#45;&gt;9 -->
<g id="edge3" class="edge"><title>5&#45;&gt;9</title>
<path fill="none" stroke="black" d="M151.934,-217.811C159.214,-208.546 168.663,-196.52 176.854,-186.094"/>
<polygon fill="black" stroke="black" points="179.663,-188.185 183.089,-178.159 174.159,-183.86 179.663,-188.185"/>
</g>
<!-- 4&#45;&gt;m5 -->
<!-- 1 -->
<g id="node5" class="node"><title>1</title>
<ellipse fill="none" stroke="black" cx="27" cy="-90" rx="27" ry="18"/>
<text text-anchor="middle" x="27" y="-86.3" font-family="Helvetica,sans-Serif" font-size="14.00">1</text>
</g>
<!-- 4&#45;&gt;1 -->
<g id="edge6" class="edge"><title>4&#45;&gt;1</title>
<path fill="none" stroke="black" d="M67.4595,-145.465C60.7273,-136.402 52.0985,-124.786 44.5403,-114.612"/>
<polygon fill="black" stroke="black" points="47.2811,-112.432 38.5082,-106.492 41.6619,-116.606 47.2811,-112.432"/>
</g>
<!-- l4 -->
<!-- 4&#45;&gt;l4 -->
<!-- r4 -->
<!-- 4&#45;&gt;r4 -->
<!-- m5&#45;&gt;9 -->
<!-- 7 -->
<g id="node8" class="node"><title>7</title>
<ellipse fill="none" stroke="black" cx="150" cy="-90" rx="27" ry="18"/>
<text text-anchor="middle" x="150" y="-86.3" font-family="Helvetica,sans-Serif" font-size="14.00">7</text>
</g>
<!-- 9&#45;&gt;7 -->
<g id="edge11" class="edge"><title>9&#45;&gt;7</title>
<path fill="none" stroke="black" d="M184.789,-145.116C179.15,-136.345 172.027,-125.264 165.696,-115.416"/>
<polygon fill="black" stroke="black" points="168.523,-113.34 160.171,-106.821 162.634,-117.126 168.523,-113.34"/>
</g>
<!-- m9 -->
<!-- 9&#45;&gt;m9 -->
<!-- 11 -->
<g id="node10" class="node"><title>11</title>
<ellipse fill="none" stroke="black" cx="248" cy="-90" rx="27" ry="18"/>
<text text-anchor="middle" x="248" y="-86.3" font-family="Helvetica,sans-Serif" font-size="14.00">11</text>
</g>
<!-- 9&#45;&gt;11 -->
<g id="edge13" class="edge"><title>9&#45;&gt;11</title>
<path fill="none" stroke="black" d="M206.762,-145.465C213.624,-136.402 222.419,-124.786 230.122,-114.612"/>
<polygon fill="black" stroke="black" points="233.024,-116.577 236.27,-106.492 227.444,-112.352 233.024,-116.577"/>
</g>
<!-- 1&#45;&gt;l4 -->
<!-- l4&#45;&gt;r4 -->
<!-- 7&#45;&gt;m9 -->
<!-- l7 -->
<!-- 7&#45;&gt;l7 -->
<!-- m7 -->
<!-- 7&#45;&gt;m7 -->
<!-- 8 -->
<g id="node13" class="node"><title>8</title>
<ellipse fill="none" stroke="black" cx="199" cy="-18" rx="27" ry="18"/>
<text text-anchor="middle" x="199" y="-14.3" font-family="Helvetica,sans-Serif" font-size="14.00">8</text>
</g>
<!-- 7&#45;&gt;8 -->
<g id="edge18" class="edge"><title>7&#45;&gt;8</title>
<path fill="none" stroke="black" d="M160.875,-73.4647C167.155,-64.4927 175.187,-53.0185 182.258,-42.9176"/>
<polygon fill="black" stroke="black" points="185.288,-44.6913 188.156,-34.4918 179.554,-40.677 185.288,-44.6913"/>
</g>
<!-- m9&#45;&gt;11 -->
<!-- l7&#45;&gt;m7 -->
<!-- m7&#45;&gt;8 -->
</g>
</svg>
