<?xml version="1.0" encoding="UTF-8" standalone="no"?>
<!DOCTYPE svg PUBLIC "-//W3C//DTD SVG 1.1//EN"
 "http://www.w3.org/Graphics/SVG/1.1/DTD/svg11.dtd">
<!-- Generated by graphviz version 2.36.0 (20140111.2315)
 -->
<!-- Title: G Pages: 1 -->
<svg width="351pt" height="350pt"
 viewBox="0.00 0.00 351.00 350.00" xmlns="http://www.w3.org/2000/svg" xmlns:xlink="http://www.w3.org/1999/xlink">
<g id="graph0" class="graph" transform="scale(1 1) rotate(0) translate(4 346)">
<title>G</title>
<polygon fill="white" stroke="none" points="-4,4 -4,-346 347,-346 347,4 -4,4"/>
<!-- 4 -->
<g id="node1" class="node"><title>4</title>
<ellipse fill="none" stroke="blue" cx="71" cy="-90" rx="18" ry="18"/>
<text text-anchor="middle" x="71" y="-86.3" font-family="Helvetica,sans-Serif" font-size="14.00">4</text>
</g>
<!-- 5 -->
<g id="node3" class="node"><title>5</title>
<ellipse fill="none" stroke="red" cx="98" cy="-18" rx="18" ry="18"/>
<text text-anchor="middle" x="98" y="-14.3" font-family="Helvetica,sans-Serif" font-size="14.00">5</text>
</g>
<!-- 4&#45;&gt;5 -->
<g id="edge18" class="edge"><title>4&#45;&gt;5</title>
<path fill="none" stroke="black" d="M77.2622,-72.7646C80.4996,-64.3715 84.5253,-53.9344 88.1661,-44.4952"/>
<polygon fill="black" stroke="black" points="91.4385,-45.7369 91.7718,-35.1473 84.9075,-43.2178 91.4385,-45.7369"/>
</g>
<!-- 3 -->
<g id="node12" class="node"><title>3</title>
<ellipse fill="none" stroke="black" cx="18" cy="-18" rx="18" ry="18"/>
<text text-anchor="middle" x="18" y="-14.3" font-family="Helvetica,sans-Serif" font-size="14.00">3</text>
</g>
<!-- 4&#45;&gt;3 -->
<g id="edge16" class="edge"><title>4&#45;&gt;3</title>
<path fill="none" stroke="black" d="M60.5289,-75.1703C53.1246,-65.391 43.0462,-52.0799 34.5589,-40.8702"/>
<polygon fill="black" stroke="black" points="37.2762,-38.6609 28.4493,-32.801 31.6954,-42.8864 37.2762,-38.6609"/>
</g>
<!-- m4 -->
<!-- 4&#45;&gt;m4 -->
<!-- 6 -->
<g id="node2" class="node"><title>6</title>
<ellipse fill="none" stroke="blue" cx="131" cy="-165" rx="18" ry="18"/>
<text text-anchor="middle" x="131" y="-161.3" font-family="Helvetica,sans-Serif" font-size="14.00">6</text>
</g>
<!-- 6&#45;&gt;4 -->
<g id="edge11" class="edge"><title>6&#45;&gt;4</title>
<path fill="none" stroke="black" d="M119.995,-150.611C111.199,-139.909 98.7019,-124.704 88.5309,-112.329"/>
<polygon fill="black" stroke="black" points="90.9887,-109.807 81.9352,-104.304 85.5809,-114.252 90.9887,-109.807"/>
</g>
<!-- m8 -->
<!-- 6&#45;&gt;m8 -->
<!-- m6 -->
<!-- 6&#45;&gt;m6 -->
<!-- r6 -->
<!-- 6&#45;&gt;r6 -->
<!-- 15 -->
<g id="node4" class="node"><title>15</title>
<ellipse fill="none" stroke="black" cx="226" cy="-321" rx="20.203" ry="20.5982"/>
<text text-anchor="middle" x="226" y="-317.3" font-family="Helvetica,sans-Serif" font-size="14.00">15</text>
</g>
<!-- 8 -->
<g id="node5" class="node"><title>8</title>
<ellipse fill="none" stroke="black" cx="176" cy="-243" rx="18" ry="18"/>
<text text-anchor="middle" x="176" y="-239.3" font-family="Helvetica,sans-Serif" font-size="14.00">8</text>
</g>
<!-- 15&#45;&gt;8 -->
<g id="edge1" class="edge"><title>15&#45;&gt;8</title>
<path fill="none" stroke="black" d="M214.903,-303.133C207.934,-292.539 198.85,-278.732 191.214,-267.125"/>
<polygon fill="black" stroke="black" points="194.135,-265.197 185.715,-258.766 188.287,-269.044 194.135,-265.197"/>
</g>
<!-- m15 -->
<!-- 15&#45;&gt;m15 -->
<!-- 17 -->
<g id="node7" class="node"><title>17</title>
<ellipse fill="none" stroke="black" cx="294" cy="-243" rx="20.203" ry="20.5982"/>
<text text-anchor="middle" x="294" y="-239.3" font-family="Helvetica,sans-Serif" font-size="14.00">17</text>
</g>
<!-- 15&#45;&gt;17 -->
<g id="edge3" class="edge"><title>15&#45;&gt;17</title>
<path fill="none" stroke="black" d="M239.435,-304.985C249.214,-294.055 262.629,-279.062 273.71,-266.677"/>
<polygon fill="black" stroke="black" points="276.534,-268.77 280.593,-258.984 271.317,-264.103 276.534,-268.77"/>
</g>
<!-- 8&#45;&gt;6 -->
<g id="edge6" class="edge"><title>8&#45;&gt;6</title>
<path fill="none" stroke="black" d="M167.109,-226.985C160.823,-216.367 152.266,-201.915 145.059,-189.745"/>
<polygon fill="black" stroke="black" points="147.979,-187.805 139.872,-180.984 141.955,-191.372 147.979,-187.805"/>
</g>
<!-- 8&#45;&gt;m15 -->
<!-- 8&#45;&gt;m8 -->
<!-- 10 -->
<g id="node9" class="node"><title>10</title>
<ellipse fill="none" stroke="black" cx="213" cy="-165" rx="20.203" ry="20.5982"/>
<text text-anchor="middle" x="213" y="-161.3" font-family="Helvetica,sans-Serif" font-size="14.00">10</text>
</g>
<!-- 8&#45;&gt;10 -->
<g id="edge8" class="edge"><title>8&#45;&gt;10</title>
<path fill="none" stroke="black" d="M183.488,-226.62C188.173,-216.997 194.339,-204.33 199.824,-193.065"/>
<polygon fill="black" stroke="black" points="202.992,-194.552 204.223,-184.029 196.699,-191.488 202.992,-194.552"/>
</g>
<!-- m15&#45;&gt;17 -->
<!-- 16 -->
<g id="node14" class="node"><title>16</title>
<ellipse fill="none" stroke="black" cx="273" cy="-165" rx="20.203" ry="20.5982"/>
<text text-anchor="middle" x="273" y="-161.3" font-family="Helvetica,sans-Serif" font-size="14.00">16</text>
</g>
<!-- 17&#45;&gt;16 -->
<g id="edge21" class="edge"><title>17&#45;&gt;16</title>
<path fill="none" stroke="black" d="M288.701,-222.822C286.363,-214.361 283.565,-204.235 280.983,-194.89"/>
<polygon fill="black" stroke="black" points="284.335,-193.878 278.297,-185.172 277.587,-195.743 284.335,-193.878"/>
</g>
<!-- m17 -->
<!-- 17&#45;&gt;m17 -->
<!-- l17 -->
<!-- 17&#45;&gt;l17 -->
<!-- m8&#45;&gt;10 -->
<!-- m6&#45;&gt;r6 -->
<!-- 3&#45;&gt;m6 -->
<!-- 3&#45;&gt;m4 -->
<!-- m4&#45;&gt;5 -->
<!-- 16&#45;&gt;m17 -->
<!-- m17&#45;&gt;l17 -->
</g>
</svg>
