<?xml version="1.0" encoding="UTF-8" standalone="no"?>
<!DOCTYPE svg PUBLIC "-//W3C//DTD SVG 1.1//EN"
 "http://www.w3.org/Graphics/SVG/1.1/DTD/svg11.dtd">
<!-- Generated by graphviz version 2.36.0 (20140111.2315)
 -->
<!-- Title: G Pages: 1 -->
<svg width="423pt" height="296pt"
 viewBox="0.00 0.00 423.00 296.00" xmlns="http://www.w3.org/2000/svg" xmlns:xlink="http://www.w3.org/1999/xlink">
<g id="graph0" class="graph" transform="scale(1 1) rotate(0) translate(4 292)">
<title>G</title>
<polygon fill="white" stroke="none" points="-4,4 -4,-292 419,-292 419,4 -4,4"/>
<!-- W -->
<g id="node1" class="node"><title>W</title>
<polygon fill="none" stroke="black" points="34,-144 -0.319769,-36 68.3198,-36 34,-144"/>
<text text-anchor="middle" x="34" y="-75.8" font-family="Helvetica,sans-Serif" font-size="14.00">W</text>
<text text-anchor="middle" x="34" y="-60.8" font-family="Helvetica,sans-Serif" font-size="14.00">(h)</text>
</g>
<!-- mb -->
<!-- W&#45;&gt;mb -->
<!-- X -->
<g id="node2" class="node"><title>X</title>
<polygon fill="none" stroke="black" points="146,-144 111.68,-36 180.32,-36 146,-144"/>
<text text-anchor="middle" x="146" y="-75.8" font-family="Helvetica,sans-Serif" font-size="14.00">X</text>
<text text-anchor="middle" x="146" y="-60.8" font-family="Helvetica,sans-Serif" font-size="14.00">(h)</text>
</g>
<!-- Y -->
<g id="node3" class="node"><title>Y</title>
<polygon fill="none" stroke="black" points="251,-110 198.53,-53 303.47,-53 251,-110"/>
<text text-anchor="middle" x="251" y="-75.8" font-family="Helvetica,sans-Serif" font-size="14.00">Y</text>
<text text-anchor="middle" x="251" y="-60.8" font-family="Helvetica,sans-Serif" font-size="14.00">(h&#45;1)</text>
</g>
<!-- ma -->
<!-- Y&#45;&gt;ma -->
<!-- Z -->
<g id="node4" class="node"><title>Z</title>
<polygon fill="none" stroke="black" points="381,-144 346.68,-36 415.32,-36 381,-144"/>
<text text-anchor="middle" x="381" y="-75.8" font-family="Helvetica,sans-Serif" font-size="14.00">Z</text>
<text text-anchor="middle" x="381" y="-60.8" font-family="Helvetica,sans-Serif" font-size="14.00">(h)</text>
</g>
<!-- c -->
<g id="node5" class="node"><title>c</title>
<ellipse fill="none" stroke="black" cx="190" cy="-270" rx="18" ry="18"/>
<text text-anchor="middle" x="190" y="-266.3" font-family="Helvetica,sans-Serif" font-size="14.00">c</text>
</g>
<!-- b -->
<g id="node6" class="node"><title>b</title>
<ellipse fill="none" stroke="black" cx="110" cy="-198" rx="18" ry="18"/>
<text text-anchor="middle" x="110" y="-194.3" font-family="Helvetica,sans-Serif" font-size="14.00">b</text>
</g>
<!-- c&#45;&gt;b -->
<g id="edge1" class="edge"><title>c&#45;&gt;b</title>
<path fill="none" stroke="black" d="M176.79,-257.441C164.283,-246.498 145.31,-229.896 130.777,-217.18"/>
<polygon fill="black" stroke="black" points="133.061,-214.527 123.23,-210.576 128.451,-219.795 133.061,-214.527"/>
</g>
<!-- mc -->
<!-- c&#45;&gt;mc -->
<!-- a -->
<g id="node9" class="node"><title>a</title>
<ellipse fill="none" stroke="black" cx="288" cy="-198" rx="18" ry="18"/>
<text text-anchor="middle" x="288" y="-194.3" font-family="Helvetica,sans-Serif" font-size="14.00">a</text>
</g>
<!-- c&#45;&gt;a -->
<g id="edge3" class="edge"><title>c&#45;&gt;a</title>
<path fill="none" stroke="black" d="M204.46,-258.671C220.547,-247.18 246.741,-228.471 265.51,-215.064"/>
<polygon fill="black" stroke="black" points="267.696,-217.804 273.799,-209.144 263.627,-212.108 267.696,-217.804"/>
</g>
<!-- b&#45;&gt;W -->
<g id="edge6" class="edge"><title>b&#45;&gt;W:n</title>
<path fill="none" stroke="black" d="M92.373,-193.002C72.7283,-187.527 42.77,-175.792 35.5874,-153.977"/>
<polygon fill="black" stroke="black" points="39.0278,-153.326 34,-144 32.1148,-154.426 39.0278,-153.326"/>
</g>
<!-- b&#45;&gt;X -->
<g id="edge8" class="edge"><title>b&#45;&gt;X:n</title>
<path fill="none" stroke="black" d="M123.405,-185.847C131.561,-178.011 141.067,-166.685 144.592,-153.965"/>
<polygon fill="black" stroke="black" points="148.066,-154.391 146,-144 141.135,-153.412 148.066,-154.391"/>
</g>
<!-- b&#45;&gt;mc -->
<!-- b&#45;&gt;mb -->
<!-- ma&#45;&gt;Z -->
<!-- mc&#45;&gt;a -->
<!-- a&#45;&gt;Y -->
<g id="edge11" class="edge"><title>a&#45;&gt;Y:n</title>
<path fill="none" stroke="black" d="M277.693,-182.886C268.114,-168.523 254.861,-145.039 251.698,-121.209"/>
<polygon fill="black" stroke="black" points="255.174,-120.738 251,-111 248.19,-121.215 255.174,-120.738"/>
</g>
<!-- a&#45;&gt;Z -->
<g id="edge13" class="edge"><title>a&#45;&gt;Z:n</title>
<path fill="none" stroke="black" d="M305.931,-194.895C330.106,-191.066 371.1,-180.723 379.478,-154.109"/>
<polygon fill="black" stroke="black" points="382.972,-154.41 381,-144 376.05,-153.367 382.972,-154.41"/>
</g>
<!-- a&#45;&gt;ma -->
<!-- mb&#45;&gt;X -->
</g>
</svg>
