<?xml version="1.0" encoding="UTF-8" standalone="no"?>
<!DOCTYPE svg PUBLIC "-//W3C//DTD SVG 1.1//EN"
 "http://www.w3.org/Graphics/SVG/1.1/DTD/svg11.dtd">
<!-- Generated by graphviz version 2.36.0 (20140111.2315)
 -->
<!-- Title: G Pages: 1 -->
<svg width="244pt" height="336pt"
 viewBox="0.00 0.00 244.00 336.00" xmlns="http://www.w3.org/2000/svg" xmlns:xlink="http://www.w3.org/1999/xlink">
<g id="graph0" class="graph" transform="scale(1 1) rotate(0) translate(4 332)">
<title>G</title>
<polygon fill="white" stroke="none" points="-4,4 -4,-332 240,-332 240,4 -4,4"/>
<!-- X -->
<g id="node1" class="node"><title>X</title>
<polygon fill="none" stroke="black" points="38,-256 -0.279814,-199 76.2798,-199 38,-256"/>
<text text-anchor="middle" x="38" y="-221.8" font-family="Helvetica,sans-Serif" font-size="14.00">X</text>
<text text-anchor="middle" x="38" y="-206.8" font-family="Helvetica,sans-Serif" font-size="14.00">(h)</text>
</g>
<!-- mb -->
<!-- X&#45;&gt;mb -->
<!-- Y -->
<g id="node2" class="node"><title>Y</title>
<polygon fill="none" stroke="black" points="66,-144 15.7966,-36 116.203,-36 66,-144"/>
<text text-anchor="middle" x="66" y="-75.8" font-family="Helvetica,sans-Serif" font-size="14.00">Y</text>
<text text-anchor="middle" x="66" y="-60.8" font-family="Helvetica,sans-Serif" font-size="14.00">(h+1)</text>
</g>
<!-- ma -->
<!-- Y&#45;&gt;ma -->
<!-- Z -->
<g id="node3" class="node"><title>Z</title>
<polygon fill="none" stroke="black" points="198,-110 159.72,-53 236.28,-53 198,-110"/>
<text text-anchor="middle" x="198" y="-75.8" font-family="Helvetica,sans-Serif" font-size="14.00">Z</text>
<text text-anchor="middle" x="198" y="-60.8" font-family="Helvetica,sans-Serif" font-size="14.00">(h)</text>
</g>
<!-- b -->
<g id="node4" class="node"><title>b</title>
<ellipse fill="none" stroke="black" cx="98" cy="-310" rx="18" ry="18"/>
<text text-anchor="middle" x="98" y="-306.3" font-family="Helvetica,sans-Serif" font-size="14.00">b</text>
</g>
<!-- b&#45;&gt;X -->
<g id="edge1" class="edge"><title>b&#45;&gt;X:n</title>
<path fill="none" stroke="black" d="M81.2867,-302.653C66.3071,-295.937 45.7892,-283.865 39.743,-266.315"/>
<polygon fill="black" stroke="black" points="43.1174,-265.277 38,-256 36.2152,-266.443 43.1174,-265.277"/>
</g>
<!-- b&#45;&gt;mb -->
<!-- a -->
<g id="node6" class="node"><title>a</title>
<ellipse fill="none" stroke="black" cx="138" cy="-218" rx="18" ry="18"/>
<text text-anchor="middle" x="138" y="-214.3" font-family="Helvetica,sans-Serif" font-size="14.00">a</text>
</g>
<!-- b&#45;&gt;a -->
<g id="edge3" class="edge"><title>b&#45;&gt;a</title>
<path fill="none" stroke="black" d="M104.967,-293.323C111.01,-279.727 119.864,-259.805 126.885,-244.008"/>
<polygon fill="black" stroke="black" points="130.115,-245.359 130.978,-234.799 123.718,-242.516 130.115,-245.359"/>
</g>
<!-- mb&#45;&gt;a -->
<!-- a&#45;&gt;Y -->
<g id="edge6" class="edge"><title>a&#45;&gt;Y:n</title>
<path fill="none" stroke="black" d="M128.366,-202.664C123.276,-195.529 116.705,-186.964 110,-180 95.3506,-164.784 74.4463,-167.507 67.9814,-154.051"/>
<polygon fill="black" stroke="black" points="71.3682,-153.134 66,-144 64.5004,-154.488 71.3682,-153.134"/>
</g>
<!-- a&#45;&gt;Z -->
<g id="edge8" class="edge"><title>a&#45;&gt;Z:n</title>
<path fill="none" stroke="black" d="M150.432,-204.892C166.427,-188.075 192.711,-155.798 197.304,-121.276"/>
<polygon fill="black" stroke="black" points="200.817,-121.214 198,-111 193.833,-120.741 200.817,-121.214"/>
</g>
<!-- a&#45;&gt;ma -->
<!-- ma&#45;&gt;Z -->
</g>
</svg>
