<?xml version="1.0" encoding="UTF-8" standalone="no"?>
<!DOCTYPE svg PUBLIC "-//W3C//DTD SVG 1.1//EN"
 "http://www.w3.org/Graphics/SVG/1.1/DTD/svg11.dtd">
<!-- Generated by graphviz version 2.26.3 (20100126.1600)
 -->
<!-- Title: G Pages: 1 -->
<svg width="422pt" height="342pt"
 viewBox="0.00 0.00 422.00 342.00" xmlns="http://www.w3.org/2000/svg" xmlns:xlink="http://www.w3.org/1999/xlink">
<g id="graph1" class="graph" transform="scale(1 1) rotate(0) translate(4 338)">
<title>G</title>
<polygon fill="white" stroke="white" points="-4,5 -4,-338 419,-338 419,5 -4,5"/>
<!-- 3 -->
<g id="node1" class="node"><title>3</title>
<ellipse fill="none" stroke="blue" cx="123" cy="-167" rx="27" ry="19.0919"/>
<text text-anchor="middle" x="123" y="-163.9" font-family="Helvetica,sans-Serif" font-size="14.00">3</text>
</g>
<!-- m5 -->
<!-- 3&#45;&gt;m5 -->
<!-- 2 -->
<g id="node19" class="node"><title>2</title>
<ellipse fill="none" stroke="black" cx="75" cy="-93" rx="27" ry="19.0919"/>
<text text-anchor="middle" x="75" y="-89.9" font-family="Helvetica,sans-Serif" font-size="14.00">2</text>
</g>
<!-- 3&#45;&gt;2 -->
<g id="edge22" class="edge"><title>3&#45;&gt;2</title>
<path fill="none" stroke="black" d="M111.625,-149.463C105.707,-140.339 98.3569,-129.009 91.7981,-118.897"/>
<polygon fill="black" stroke="black" points="94.672,-116.896 86.2937,-110.411 88.7993,-120.705 94.672,-116.896"/>
</g>
<!-- m3 -->
<!-- 3&#45;&gt;m3 -->
<!-- 4 -->
<g id="node23" class="node"><title>4</title>
<ellipse fill="none" stroke="black" cx="171" cy="-93" rx="27" ry="19.0919"/>
<text text-anchor="middle" x="171" y="-89.9" font-family="Helvetica,sans-Serif" font-size="14.00">4</text>
</g>
<!-- 3&#45;&gt;4 -->
<g id="edge26" class="edge"><title>3&#45;&gt;4</title>
<path fill="none" stroke="black" d="M134.375,-149.463C140.293,-140.339 147.643,-129.009 154.202,-118.897"/>
<polygon fill="black" stroke="black" points="157.201,-120.705 159.706,-110.411 151.328,-116.896 157.201,-120.705"/>
</g>
<!-- 5 -->
<g id="node2" class="node"><title>5</title>
<ellipse fill="none" stroke="blue" cx="177" cy="-241" rx="27" ry="19.0919"/>
<text text-anchor="middle" x="177" y="-237.9" font-family="Helvetica,sans-Serif" font-size="14.00">5</text>
</g>
<!-- 5&#45;&gt;3 -->
<g id="edge12" class="edge"><title>5&#45;&gt;3</title>
<path fill="none" stroke="black" d="M164.476,-223.837C157.66,-214.497 149.097,-202.763 141.525,-192.386"/>
<polygon fill="black" stroke="black" points="144.178,-190.085 135.456,-184.07 138.524,-194.211 144.178,-190.085"/>
</g>
<!-- m15 -->
<!-- 5&#45;&gt;m15 -->
<!-- 5&#45;&gt;m5 -->
<!-- 10 -->
<g id="node15" class="node"><title>10</title>
<ellipse fill="none" stroke="black" cx="219" cy="-167" rx="27" ry="19.0919"/>
<text text-anchor="middle" x="219" y="-163.9" font-family="Helvetica,sans-Serif" font-size="14.00">10</text>
</g>
<!-- 5&#45;&gt;10 -->
<g id="edge16" class="edge"><title>5&#45;&gt;10</title>
<path fill="none" stroke="black" d="M187.167,-223.087C192.171,-214.27 198.306,-203.462 203.849,-193.695"/>
<polygon fill="black" stroke="black" points="207.034,-195.173 208.927,-184.748 200.947,-191.718 207.034,-195.173"/>
</g>
<!-- 15 -->
<g id="node3" class="node"><title>15</title>
<ellipse fill="none" stroke="black" cx="237" cy="-315" rx="27" ry="19.0919"/>
<text text-anchor="middle" x="237" y="-311.9" font-family="Helvetica,sans-Serif" font-size="14.00">15</text>
</g>
<!-- 15&#45;&gt;5 -->
<g id="edge2" class="edge"><title>15&#45;&gt;5</title>
<path fill="none" stroke="black" d="M223.385,-298.208C215.56,-288.558 205.59,-276.261 196.9,-265.544"/>
<polygon fill="black" stroke="black" points="199.578,-263.289 190.561,-257.725 194.14,-267.697 199.578,-263.289"/>
</g>
<!-- 15&#45;&gt;m15 -->
<!-- 20 -->
<g id="node8" class="node"><title>20</title>
<ellipse fill="none" stroke="black" cx="315" cy="-241" rx="27" ry="19.0919"/>
<text text-anchor="middle" x="315" y="-237.9" font-family="Helvetica,sans-Serif" font-size="14.00">20</text>
</g>
<!-- 15&#45;&gt;20 -->
<g id="edge6" class="edge"><title>15&#45;&gt;20</title>
<path fill="none" stroke="black" d="M253.162,-299.667C264.248,-289.15 279.135,-275.026 291.524,-263.272"/>
<polygon fill="black" stroke="black" points="294.013,-265.735 298.859,-256.313 289.195,-260.657 294.013,-265.735"/>
</g>
<!-- m15&#45;&gt;20 -->
<!-- 17 -->
<g id="node35" class="node"><title>17</title>
<ellipse fill="none" stroke="black" cx="291" cy="-167" rx="27" ry="19.0919"/>
<text text-anchor="middle" x="291" y="-163.9" font-family="Helvetica,sans-Serif" font-size="14.00">17</text>
</g>
<!-- 20&#45;&gt;17 -->
<g id="edge42" class="edge"><title>20&#45;&gt;17</title>
<path fill="none" stroke="black" d="M308.944,-222.327C306.3,-214.176 303.142,-204.438 300.217,-195.42"/>
<polygon fill="black" stroke="black" points="303.469,-194.1 297.054,-185.667 296.81,-196.259 303.469,-194.1"/>
</g>
<!-- m20 -->
<!-- 20&#45;&gt;m20 -->
<!-- 21 -->
<g id="node39" class="node"><title>21</title>
<ellipse fill="none" stroke="black" cx="387" cy="-167" rx="27" ry="19.0919"/>
<text text-anchor="middle" x="387" y="-163.9" font-family="Helvetica,sans-Serif" font-size="14.00">21</text>
</g>
<!-- 20&#45;&gt;21 -->
<g id="edge46" class="edge"><title>20&#45;&gt;21</title>
<path fill="none" stroke="black" d="M330.269,-225.307C340.225,-215.075 353.389,-201.545 364.529,-190.095"/>
<polygon fill="black" stroke="black" points="367.039,-192.534 371.504,-182.926 362.022,-187.653 367.039,-192.534"/>
</g>
<!-- m5&#45;&gt;10 -->
<!-- 2&#45;&gt;m3 -->
<!-- 1 -->
<g id="node26" class="node"><title>1</title>
<ellipse fill="none" stroke="red" cx="27" cy="-19" rx="27" ry="19.0919"/>
<text text-anchor="middle" x="27" y="-15.9" font-family="Helvetica,sans-Serif" font-size="14.00">1</text>
</g>
<!-- 2&#45;&gt;1 -->
<g id="edge32" class="edge"><title>2&#45;&gt;1</title>
<path fill="none" stroke="red" d="M63.6247,-75.463C57.7066,-66.3394 50.3569,-55.0086 43.7981,-44.897"/>
<polygon fill="red" stroke="red" points="46.672,-42.896 38.2937,-36.4111 40.7993,-46.7054 46.672,-42.896"/>
</g>
<!-- m2 -->
<!-- 2&#45;&gt;m2 -->
<!-- r2 -->
<!-- 2&#45;&gt;r2 -->
<!-- m3&#45;&gt;4 -->
<!-- 1&#45;&gt;m2 -->
<!-- m2&#45;&gt;r2 -->
<!-- 17&#45;&gt;m20 -->
<!-- m20&#45;&gt;21 -->
</g>
</svg>
