<?xml version="1.0" encoding="UTF-8" standalone="no"?>
<!DOCTYPE svg PUBLIC "-//W3C//DTD SVG 1.1//EN"
 "http://www.w3.org/Graphics/SVG/1.1/DTD/svg11.dtd">
<!-- Generated by graphviz version 2.36.0 (20140111.2315)
 -->
<!-- Title: G Pages: 1 -->
<svg width="291pt" height="422pt"
 viewBox="0.00 0.00 291.00 422.00" xmlns="http://www.w3.org/2000/svg" xmlns:xlink="http://www.w3.org/1999/xlink">
<g id="graph0" class="graph" transform="scale(1 1) rotate(0) translate(4 418)">
<title>G</title>
<polygon fill="white" stroke="none" points="-4,4 -4,-418 287,-418 287,4 -4,4"/>
<!-- 5 -->
<g id="node1" class="node"><title>5</title>
<ellipse fill="none" stroke="red" cx="143" cy="-387" rx="27.9291" ry="26.7407"/>
<text text-anchor="middle" x="143" y="-390.8" font-family="Helvetica,sans-Serif" font-size="14.00" fill="red">5</text>
<text text-anchor="middle" x="143" y="-375.8" font-family="Helvetica,sans-Serif" font-size="14.00" fill="red">b:&#45;2</text>
</g>
<!-- 4 -->
<g id="node2" class="node"><title>4</title>
<ellipse fill="none" stroke="red" cx="87" cy="-297" rx="27.9291" ry="26.7407"/>
<text text-anchor="middle" x="87" y="-300.8" font-family="Helvetica,sans-Serif" font-size="14.00" fill="red">4</text>
<text text-anchor="middle" x="87" y="-285.8" font-family="Helvetica,sans-Serif" font-size="14.00" fill="red">b:&#45;3</text>
</g>
<!-- 5&#45;&gt;4 -->
<g id="edge1" class="edge"><title>5&#45;&gt;4</title>
<path fill="none" stroke="black" d="M128.579,-363.338C121.93,-352.89 113.934,-340.325 106.738,-329.016"/>
<polygon fill="black" stroke="black" points="109.5,-326.838 101.179,-320.281 103.595,-330.596 109.5,-326.838"/>
</g>
<!-- 8 -->
<g id="node6" class="node"><title>8</title>
<ellipse fill="none" stroke="black" cx="204" cy="-297" rx="27" ry="26.7407"/>
<text text-anchor="middle" x="204" y="-300.8" font-family="Helvetica,sans-Serif" font-size="14.00">8</text>
<text text-anchor="middle" x="204" y="-285.8" font-family="Helvetica,sans-Serif" font-size="14.00">b:0</text>
</g>
<!-- 5&#45;&gt;8 -->
<g id="edge3" class="edge"><title>5&#45;&gt;8</title>
<path fill="none" stroke="black" d="M158.079,-364.247C165.687,-353.271 175.033,-339.788 183.303,-327.857"/>
<polygon fill="black" stroke="black" points="186.274,-329.715 189.095,-319.503 180.521,-325.727 186.274,-329.715"/>
</g>
<!-- m5 -->
<!-- 5&#45;&gt;m5 -->
<!-- 1 -->
<g id="node3" class="node"><title>1</title>
<ellipse fill="none" stroke="red" cx="31" cy="-207" rx="31.1693" ry="26.7407"/>
<text text-anchor="middle" x="31" y="-210.8" font-family="Helvetica,sans-Serif" font-size="14.00" fill="red">1</text>
<text text-anchor="middle" x="31" y="-195.8" font-family="Helvetica,sans-Serif" font-size="14.00" fill="red">b:+2</text>
</g>
<!-- 4&#45;&gt;1 -->
<g id="edge6" class="edge"><title>4&#45;&gt;1</title>
<path fill="none" stroke="black" d="M72.5786,-273.338C66.0324,-263.051 58.1796,-250.711 51.0702,-239.539"/>
<polygon fill="black" stroke="black" points="53.8888,-237.449 45.5672,-230.891 47.9831,-241.207 53.8888,-237.449"/>
</g>
<!-- 4&#45;&gt;m5 -->
<!-- l4 -->
<!-- 4&#45;&gt;l4 -->
<!-- r4 -->
<!-- 4&#45;&gt;r4 -->
<!-- 3 -->
<g id="node4" class="node"><title>3</title>
<ellipse fill="none" stroke="black" cx="81" cy="-117" rx="27.9291" ry="26.7407"/>
<text text-anchor="middle" x="81" y="-120.8" font-family="Helvetica,sans-Serif" font-size="14.00">3</text>
<text text-anchor="middle" x="81" y="-105.8" font-family="Helvetica,sans-Serif" font-size="14.00">b:&#45;1</text>
</g>
<!-- 1&#45;&gt;3 -->
<g id="edge13" class="edge"><title>1&#45;&gt;3</title>
<path fill="none" stroke="black" d="M44.3991,-182.418C50.0941,-172.394 56.8211,-160.555 62.9444,-149.778"/>
<polygon fill="black" stroke="black" points="66.013,-151.462 67.91,-141.038 59.9268,-148.004 66.013,-151.462"/>
</g>
<!-- 1&#45;&gt;l4 -->
<!-- l1 -->
<!-- 1&#45;&gt;l1 -->
<!-- m1 -->
<!-- 1&#45;&gt;m1 -->
<!-- 2 -->
<g id="node5" class="node"><title>2</title>
<ellipse fill="none" stroke="black" cx="32" cy="-27" rx="27" ry="26.7407"/>
<text text-anchor="middle" x="32" y="-30.8" font-family="Helvetica,sans-Serif" font-size="14.00">2</text>
<text text-anchor="middle" x="32" y="-15.8" font-family="Helvetica,sans-Serif" font-size="14.00">b:0</text>
</g>
<!-- 3&#45;&gt;2 -->
<g id="edge16" class="edge"><title>3&#45;&gt;2</title>
<path fill="none" stroke="black" d="M68.1258,-92.879C62.4991,-82.7739 55.8073,-70.756 49.7213,-59.826"/>
<polygon fill="black" stroke="black" points="52.711,-58.0007 44.7882,-50.9665 46.5952,-61.4062 52.711,-58.0007"/>
</g>
<!-- l3 -->
<!-- 3&#45;&gt;l3 -->
<!-- r3 -->
<!-- 3&#45;&gt;r3 -->
<!-- 2&#45;&gt;l3 -->
<!-- 7 -->
<g id="node7" class="node"><title>7</title>
<ellipse fill="none" stroke="black" cx="158" cy="-207" rx="27" ry="26.7407"/>
<text text-anchor="middle" x="158" y="-210.8" font-family="Helvetica,sans-Serif" font-size="14.00">7</text>
<text text-anchor="middle" x="158" y="-195.8" font-family="Helvetica,sans-Serif" font-size="14.00">b:0</text>
</g>
<!-- 8&#45;&gt;7 -->
<g id="edge21" class="edge"><title>8&#45;&gt;7</title>
<path fill="none" stroke="black" d="M191.914,-272.879C186.726,-262.954 180.573,-251.183 174.942,-240.411"/>
<polygon fill="black" stroke="black" points="177.899,-238.513 170.165,-231.272 171.696,-241.756 177.899,-238.513"/>
</g>
<!-- 11 -->
<g id="node8" class="node"><title>11</title>
<ellipse fill="none" stroke="black" cx="256" cy="-207" rx="27" ry="26.7407"/>
<text text-anchor="middle" x="256" y="-210.8" font-family="Helvetica,sans-Serif" font-size="14.00">11</text>
<text text-anchor="middle" x="256" y="-195.8" font-family="Helvetica,sans-Serif" font-size="14.00">b:0</text>
</g>
<!-- 8&#45;&gt;11 -->
<g id="edge23" class="edge"><title>8&#45;&gt;11</title>
<path fill="none" stroke="black" d="M217.391,-273.338C223.517,-262.971 230.876,-250.518 237.518,-239.277"/>
<polygon fill="black" stroke="black" points="240.58,-240.975 242.654,-230.585 234.553,-237.414 240.58,-240.975"/>
</g>
<!-- m8 -->
<!-- 8&#45;&gt;m8 -->
<!-- 7&#45;&gt;m8 -->
<!-- m5&#45;&gt;8 -->
<!-- l4&#45;&gt;r4 -->
<!-- l1&#45;&gt;m1 -->
<!-- m1&#45;&gt;3 -->
<!-- l3&#45;&gt;r3 -->
<!-- m8&#45;&gt;11 -->
</g>
</svg>
