<?xml version="1.0" encoding="UTF-8" standalone="no"?>
<!DOCTYPE svg PUBLIC "-//W3C//DTD SVG 1.1//EN"
 "http://www.w3.org/Graphics/SVG/1.1/DTD/svg11.dtd">
<!-- Generated by graphviz version 2.26.3 (20100126.1600)
 -->
<!-- Title: G Pages: 1 -->
<svg width="286pt" height="380pt"
 viewBox="0.00 0.00 286.00 380.00" xmlns="http://www.w3.org/2000/svg" xmlns:xlink="http://www.w3.org/1999/xlink">
<g id="graph1" class="graph" transform="scale(1 1) rotate(0) translate(4 376)">
<title>G</title>
<polygon fill="white" stroke="white" points="-4,5 -4,-376 283,-376 283,5 -4,5"/>
<!-- 5 -->
<g id="node1" class="node"><title>5</title>
<ellipse fill="none" stroke="black" cx="143" cy="-339" rx="31.1127" ry="32.5269"/>
<text text-anchor="middle" x="143" y="-345.4" font-family="Helvetica,sans-Serif" font-size="14.00">5</text>
<text text-anchor="middle" x="143" y="-326.4" font-family="Helvetica,sans-Serif" font-size="14.00">b:+1</text>
</g>
<!-- 4 -->
<g id="node2" class="node"><title>4</title>
<ellipse fill="none" stroke="black" cx="79" cy="-237" rx="27.7881" ry="32.5269"/>
<text text-anchor="middle" x="79" y="-243.4" font-family="Helvetica,sans-Serif" font-size="14.00">4</text>
<text text-anchor="middle" x="79" y="-224.4" font-family="Helvetica,sans-Serif" font-size="14.00">b:&#45;1</text>
</g>
<!-- 5&#45;&gt;4 -->
<g id="edge2" class="edge"><title>5&#45;&gt;4</title>
<path fill="none" stroke="black" d="M125.849,-311.666C118.208,-299.487 109.115,-284.996 100.982,-272.034"/>
<polygon fill="black" stroke="black" points="103.815,-269.963 95.5349,-263.352 97.8851,-273.683 103.815,-269.963"/>
</g>
<!-- 9 -->
<g id="node6" class="node"><title>9</title>
<ellipse fill="none" stroke="black" cx="199" cy="-237" rx="27.7881" ry="32.5269"/>
<text text-anchor="middle" x="199" y="-243.4" font-family="Helvetica,sans-Serif" font-size="14.00">9</text>
<text text-anchor="middle" x="199" y="-224.4" font-family="Helvetica,sans-Serif" font-size="14.00">b:&#45;1</text>
</g>
<!-- 5&#45;&gt;9 -->
<g id="edge6" class="edge"><title>5&#45;&gt;9</title>
<path fill="none" stroke="black" d="M158.599,-310.587C164.892,-299.126 172.232,-285.757 178.916,-273.582"/>
<polygon fill="black" stroke="black" points="182.126,-275.007 183.871,-264.556 175.99,-271.638 182.126,-275.007"/>
</g>
<!-- m5 -->
<!-- 5&#45;&gt;m5 -->
<!-- 1 -->
<g id="node3" class="node"><title>1</title>
<ellipse fill="none" stroke="black" cx="27" cy="-135" rx="27" ry="32.5269"/>
<text text-anchor="middle" x="27" y="-141.4" font-family="Helvetica,sans-Serif" font-size="14.00">1</text>
<text text-anchor="middle" x="27" y="-122.4" font-family="Helvetica,sans-Serif" font-size="14.00">b:0</text>
</g>
<!-- 4&#45;&gt;1 -->
<g id="edge12" class="edge"><title>4&#45;&gt;1</title>
<path fill="none" stroke="black" d="M64.6531,-208.858C58.8559,-197.487 52.0841,-184.203 45.8942,-172.062"/>
<polygon fill="black" stroke="black" points="48.9602,-170.37 41.3001,-163.05 42.7238,-173.549 48.9602,-170.37"/>
</g>
<!-- 4&#45;&gt;m5 -->
<!-- l4 -->
<!-- 4&#45;&gt;l4 -->
<!-- r4 -->
<!-- 4&#45;&gt;r4 -->
<!-- 1&#45;&gt;l4 -->
<!-- 7 -->
<g id="node4" class="node"><title>7</title>
<ellipse fill="none" stroke="black" cx="151" cy="-135" rx="31.1127" ry="32.5269"/>
<text text-anchor="middle" x="151" y="-141.4" font-family="Helvetica,sans-Serif" font-size="14.00">7</text>
<text text-anchor="middle" x="151" y="-122.4" font-family="Helvetica,sans-Serif" font-size="14.00">b:+1</text>
</g>
<!-- 8 -->
<g id="node5" class="node"><title>8</title>
<ellipse fill="none" stroke="black" cx="199" cy="-33" rx="27" ry="32.5269"/>
<text text-anchor="middle" x="199" y="-39.4" font-family="Helvetica,sans-Serif" font-size="14.00">8</text>
<text text-anchor="middle" x="199" y="-20.4" font-family="Helvetica,sans-Serif" font-size="14.00">b:0</text>
</g>
<!-- 7&#45;&gt;8 -->
<g id="edge36" class="edge"><title>7&#45;&gt;8</title>
<path fill="none" stroke="black" d="M164.755,-105.771C169.914,-94.8084 175.85,-82.1938 181.316,-70.579"/>
<polygon fill="black" stroke="black" points="184.483,-72.0677 185.574,-61.5292 178.15,-69.0871 184.483,-72.0677"/>
</g>
<!-- m9 -->
<!-- 7&#45;&gt;m9 -->
<!-- l7 -->
<!-- 7&#45;&gt;l7 -->
<!-- m7 -->
<!-- 7&#45;&gt;m7 -->
<!-- 9&#45;&gt;7 -->
<g id="edge22" class="edge"><title>9&#45;&gt;7</title>
<path fill="none" stroke="black" d="M185.502,-208.316C180.382,-197.436 174.468,-184.869 168.998,-173.246"/>
<polygon fill="black" stroke="black" points="172.155,-171.735 164.73,-164.177 165.821,-174.715 172.155,-171.735"/>
</g>
<!-- 11 -->
<g id="node7" class="node"><title>11</title>
<ellipse fill="none" stroke="black" cx="251" cy="-135" rx="27" ry="32.5269"/>
<text text-anchor="middle" x="251" y="-141.4" font-family="Helvetica,sans-Serif" font-size="14.00">11</text>
<text text-anchor="middle" x="251" y="-122.4" font-family="Helvetica,sans-Serif" font-size="14.00">b:0</text>
</g>
<!-- 9&#45;&gt;11 -->
<g id="edge26" class="edge"><title>9&#45;&gt;11</title>
<path fill="none" stroke="black" d="M213.347,-208.858C219.144,-197.487 225.916,-184.203 232.106,-172.062"/>
<polygon fill="black" stroke="black" points="235.276,-173.549 236.7,-163.05 229.04,-170.37 235.276,-173.549"/>
</g>
<!-- 9&#45;&gt;m9 -->
<!-- m5&#45;&gt;9 -->
<!-- l4&#45;&gt;r4 -->
<!-- m9&#45;&gt;11 -->
<!-- l7&#45;&gt;m7 -->
<!-- m7&#45;&gt;8 -->
</g>
</svg>
