<?xml version="1.0" encoding="UTF-8" standalone="no"?>
<!DOCTYPE svg PUBLIC "-//W3C//DTD SVG 1.1//EN"
 "http://www.w3.org/Graphics/SVG/1.1/DTD/svg11.dtd">
<!-- Generated by graphviz version 2.36.0 (20140111.2315)
 -->
<!-- Title: G Pages: 1 -->
<svg width="166pt" height="258pt"
 viewBox="0.00 0.00 166.00 258.00" xmlns="http://www.w3.org/2000/svg" xmlns:xlink="http://www.w3.org/1999/xlink">
<g id="graph0" class="graph" transform="scale(1 1) rotate(0) translate(4 254)">
<title>G</title>
<polygon fill="white" stroke="none" points="-4,4 -4,-254 162,-254 162,4 -4,4"/>
<!-- 3 -->
<g id="node1" class="node"><title>3</title>
<ellipse fill="none" stroke="red" cx="132" cy="-27" rx="26.3078" ry="26.7407"/>
<text text-anchor="middle" x="132" y="-30.8" font-family="Helvetica,sans-Serif" font-size="14.00" fill="red">3</text>
<text text-anchor="middle" x="132" y="-15.8" font-family="Helvetica,sans-Serif" font-size="14.00" fill="red">b:0</text>
</g>
<!-- 2 -->
<g id="node2" class="node"><title>2</title>
<ellipse fill="none" stroke="green" cx="84" cy="-121" rx="31.1693" ry="31.2258"/>
<text text-anchor="middle" x="84" y="-124.8" font-family="Helvetica,sans-Serif" font-size="14.00" fill="green">2</text>
<text text-anchor="middle" x="84" y="-109.8" font-family="Helvetica,sans-Serif" font-size="14.00" fill="green">b:+1</text>
</g>
<!-- 2&#45;&gt;3 -->
<g id="edge8" class="edge"><title>2&#45;&gt;3</title>
<path fill="none" stroke="black" d="M98.142,-92.8946C103.489,-82.6459 109.626,-70.8826 115.195,-60.2105"/>
<polygon fill="black" stroke="black" points="118.384,-61.6632 119.907,-51.1784 112.178,-58.4252 118.384,-61.6632"/>
</g>
<!-- l2 -->
<!-- 2&#45;&gt;l2 -->
<!-- m2 -->
<!-- 2&#45;&gt;m2 -->
<!-- 1 -->
<g id="node3" class="node"><title>1</title>
<ellipse fill="none" stroke="blue" cx="31" cy="-219" rx="31.1693" ry="31.2258"/>
<text text-anchor="middle" x="31" y="-222.8" font-family="Helvetica,sans-Serif" font-size="14.00" fill="blue">1</text>
<text text-anchor="middle" x="31" y="-207.8" font-family="Helvetica,sans-Serif" font-size="14.00" fill="blue">b:+2</text>
</g>
<!-- 1&#45;&gt;2 -->
<g id="edge3" class="edge"><title>1&#45;&gt;2</title>
<path fill="none" stroke="black" d="M45.6228,-191.513C51.4252,-181.003 58.1856,-168.758 64.4014,-157.499"/>
<polygon fill="black" stroke="black" points="67.4718,-159.179 69.2409,-148.733 61.3437,-155.796 67.4718,-159.179"/>
</g>
<!-- l1 -->
<!-- 1&#45;&gt;l1 -->
<!-- m1 -->
<!-- 1&#45;&gt;m1 -->
<!-- l1&#45;&gt;m1 -->
<!-- m1&#45;&gt;2 -->
<!-- l2&#45;&gt;m2 -->
<!-- m2&#45;&gt;3 -->
</g>
</svg>
