<?xml version="1.0" encoding="UTF-8" standalone="no"?>
<!DOCTYPE svg PUBLIC "-//W3C//DTD SVG 1.1//EN"
 "http://www.w3.org/Graphics/SVG/1.1/DTD/svg11.dtd">
<!-- Generated by graphviz version 2.36.0 (20140111.2315)
 -->
<!-- Title: G Pages: 1 -->
<svg width="168pt" height="242pt"
 viewBox="0.00 0.00 168.00 242.00" xmlns="http://www.w3.org/2000/svg" xmlns:xlink="http://www.w3.org/1999/xlink">
<g id="graph0" class="graph" transform="scale(1 1) rotate(0) translate(4 238)">
<title>G</title>
<polygon fill="white" stroke="none" points="-4,4 -4,-238 164,-238 164,4 -4,4"/>
<!-- 3 -->
<g id="node1" class="node"><title>3</title>
<ellipse fill="none" stroke="red" cx="133" cy="-27" rx="27" ry="26.7407"/>
<text text-anchor="middle" x="133" y="-30.8" font-family="Helvetica,sans-Serif" font-size="14.00" fill="red">3</text>
<text text-anchor="middle" x="133" y="-15.8" font-family="Helvetica,sans-Serif" font-size="14.00" fill="red">b:0</text>
</g>
<!-- 2 -->
<g id="node2" class="node"><title>2</title>
<ellipse fill="none" stroke="green" cx="84" cy="-117" rx="31.1693" ry="26.7407"/>
<text text-anchor="middle" x="84" y="-120.8" font-family="Helvetica,sans-Serif" font-size="14.00" fill="green">2</text>
<text text-anchor="middle" x="84" y="-105.8" font-family="Helvetica,sans-Serif" font-size="14.00" fill="green">b:+1</text>
</g>
<!-- 2&#45;&gt;3 -->
<g id="edge8" class="edge"><title>2&#45;&gt;3</title>
<path fill="none" stroke="black" d="M97.1311,-92.4176C102.756,-82.3149 109.409,-70.3669 115.448,-59.5215"/>
<polygon fill="black" stroke="black" points="118.533,-61.1751 120.34,-50.7355 112.418,-57.7697 118.533,-61.1751"/>
</g>
<!-- l2 -->
<!-- 2&#45;&gt;l2 -->
<!-- m2 -->
<!-- 2&#45;&gt;m2 -->
<!-- 1 -->
<g id="node3" class="node"><title>1</title>
<ellipse fill="none" stroke="blue" cx="31" cy="-207" rx="31.1693" ry="26.7407"/>
<text text-anchor="middle" x="31" y="-210.8" font-family="Helvetica,sans-Serif" font-size="14.00" fill="blue">1</text>
<text text-anchor="middle" x="31" y="-195.8" font-family="Helvetica,sans-Serif" font-size="14.00" fill="blue">b:+2</text>
</g>
<!-- 1&#45;&gt;2 -->
<g id="edge3" class="edge"><title>1&#45;&gt;2</title>
<path fill="none" stroke="black" d="M44.9251,-182.879C50.9633,-172.853 58.1353,-160.945 64.6764,-150.084"/>
<polygon fill="black" stroke="black" points="67.8228,-151.644 69.9839,-141.272 61.8263,-148.033 67.8228,-151.644"/>
</g>
<!-- l1 -->
<!-- 1&#45;&gt;l1 -->
<!-- m1 -->
<!-- 1&#45;&gt;m1 -->
<!-- l1&#45;&gt;m1 -->
<!-- m1&#45;&gt;2 -->
<!-- l2&#45;&gt;m2 -->
<!-- m2&#45;&gt;3 -->
</g>
</svg>
