<?xml version="1.0" encoding="UTF-8" standalone="no"?>
<!DOCTYPE svg PUBLIC "-//W3C//DTD SVG 1.1//EN"
 "http://www.w3.org/Graphics/SVG/1.1/DTD/svg11.dtd">
<!-- Generated by graphviz version 2.26.3 (20100126.1600)
 -->
<!-- Title: G Pages: 1 -->
<svg width="270pt" height="354pt"
 viewBox="0.00 0.00 270.00 354.00" xmlns="http://www.w3.org/2000/svg" xmlns:xlink="http://www.w3.org/1999/xlink">
<g id="graph1" class="graph" transform="scale(1 1) rotate(0) translate(4 350)">
<title>G</title>
<polygon fill="white" stroke="white" points="-4,5 -4,-350 267,-350 267,5 -4,5"/>
<!-- X -->
<g id="node1" class="node"><title>X</title>
<polygon fill="none" stroke="black" points="43,-118 0.103806,-49 85.8962,-49 43,-118"/>
<text text-anchor="middle" x="43" y="-78.4" font-family="Helvetica,sans-Serif" font-size="14.00">X</text>
<text text-anchor="middle" x="43" y="-59.4" font-family="Helvetica,sans-Serif" font-size="14.00">(h)</text>
</g>
<!-- mb -->
<!-- X&#45;&gt;mb -->
<!-- Y -->
<g id="node2" class="node"><title>Y</title>
<polygon fill="none" stroke="black" points="179,-144 127.793,-36 230.207,-36 179,-144"/>
<text text-anchor="middle" x="179" y="-78.4" font-family="Helvetica,sans-Serif" font-size="14.00">Y</text>
<text text-anchor="middle" x="179" y="-59.4" font-family="Helvetica,sans-Serif" font-size="14.00">(h+1)</text>
</g>
<!-- Z -->
<g id="node3" class="node"><title>Z</title>
<polygon fill="none" stroke="black" points="219,-272 176.104,-203 261.896,-203 219,-272"/>
<text text-anchor="middle" x="219" y="-232.4" font-family="Helvetica,sans-Serif" font-size="14.00">Z</text>
<text text-anchor="middle" x="219" y="-213.4" font-family="Helvetica,sans-Serif" font-size="14.00">(h)</text>
</g>
<!-- a -->
<g id="node4" class="node"><title>a</title>
<ellipse fill="none" stroke="black" cx="155" cy="-327" rx="27" ry="19.0919"/>
<text text-anchor="middle" x="155" y="-323.9" font-family="Helvetica,sans-Serif" font-size="14.00">a</text>
</g>
<!-- a&#45;&gt;Z -->
<g id="edge6" class="edge"><title>a&#45;&gt;Z:n</title>
<path fill="none" stroke="black" d="M178.831,-317.823C194.042,-310.515 211.892,-298.761 217.339,-282.264"/>
<polygon fill="black" stroke="black" points="220.858,-282.431 219,-272 213.948,-281.313 220.858,-282.431"/>
</g>
<!-- b -->
<g id="node6" class="node"><title>b</title>
<ellipse fill="none" stroke="black" cx="107" cy="-226" rx="27" ry="19.0919"/>
<text text-anchor="middle" x="107" y="-222.9" font-family="Helvetica,sans-Serif" font-size="14.00">b</text>
</g>
<!-- a&#45;&gt;b -->
<g id="edge2" class="edge"><title>a&#45;&gt;b</title>
<path fill="none" stroke="black" d="M146.419,-308.943C139.092,-293.528 128.442,-271.117 120.058,-253.476"/>
<polygon fill="black" stroke="black" points="123.123,-251.771 115.669,-244.241 116.8,-254.775 123.123,-251.771"/>
</g>
<!-- ma -->
<!-- a&#45;&gt;ma -->
<!-- b&#45;&gt;X -->
<g id="edge12" class="edge"><title>b&#45;&gt;X:n</title>
<path fill="none" stroke="black" d="M90.5184,-210.514C73.2593,-192.696 48.0537,-161.548 43.6638,-127.996"/>
<polygon fill="black" stroke="black" points="47.155,-127.746 43,-118 40.1704,-128.21 47.155,-127.746"/>
</g>
<!-- b&#45;&gt;Y -->
<g id="edge16" class="edge"><title>b&#45;&gt;Y:n</title>
<path fill="none" stroke="black" d="M119.523,-208.998C126.238,-200.144 134.798,-189.263 143,-180 155.305,-166.103 171.647,-166.007 177.123,-153.931"/>
<polygon fill="black" stroke="black" points="180.581,-154.476 179,-144 173.703,-153.176 180.581,-154.476"/>
</g>
<!-- b&#45;&gt;ma -->
<!-- b&#45;&gt;mb -->
<!-- ma&#45;&gt;Z -->
<!-- mb&#45;&gt;Y -->
</g>
</svg>
