<?xml version="1.0" encoding="UTF-8" standalone="no"?>
<!DOCTYPE svg PUBLIC "-//W3C//DTD SVG 1.1//EN"
 "http://www.w3.org/Graphics/SVG/1.1/DTD/svg11.dtd">
<!-- Generated by graphviz version 2.26.3 (20100126.1600)
 -->
<!-- Title: G Pages: 1 -->
<svg width="286pt" height="354pt"
 viewBox="0.00 0.00 286.00 354.00" xmlns="http://www.w3.org/2000/svg" xmlns:xlink="http://www.w3.org/1999/xlink">
<g id="graph1" class="graph" transform="scale(1 1) rotate(0) translate(4 350)">
<title>G</title>
<polygon fill="white" stroke="white" points="-4,5 -4,-350 283,-350 283,5 -4,5"/>
<!-- X -->
<g id="node1" class="node"><title>X</title>
<polygon fill="none" stroke="black" points="51,-272 -0.207277,-164 102.207,-164 51,-272"/>
<text text-anchor="middle" x="51" y="-206.4" font-family="Helvetica,sans-Serif" font-size="14.00">X</text>
<text text-anchor="middle" x="51" y="-187.4" font-family="Helvetica,sans-Serif" font-size="14.00">(h+1)</text>
</g>
<!-- mb -->
<!-- X&#45;&gt;mb -->
<!-- Y -->
<g id="node2" class="node"><title>Y</title>
<polygon fill="none" stroke="black" points="107,-92 64.1038,-23 149.896,-23 107,-92"/>
<text text-anchor="middle" x="107" y="-52.4" font-family="Helvetica,sans-Serif" font-size="14.00">Y</text>
<text text-anchor="middle" x="107" y="-33.4" font-family="Helvetica,sans-Serif" font-size="14.00">(h)</text>
</g>
<!-- ma -->
<!-- Y&#45;&gt;ma -->
<!-- Z -->
<g id="node3" class="node"><title>Z</title>
<polygon fill="none" stroke="black" points="235,-92 192.104,-23 277.896,-23 235,-92"/>
<text text-anchor="middle" x="235" y="-52.4" font-family="Helvetica,sans-Serif" font-size="14.00">Z</text>
<text text-anchor="middle" x="235" y="-33.4" font-family="Helvetica,sans-Serif" font-size="14.00">(h)</text>
</g>
<!-- b -->
<g id="node4" class="node"><title>b</title>
<ellipse fill="none" stroke="black" cx="123" cy="-327" rx="27" ry="19.0919"/>
<text text-anchor="middle" x="123" y="-323.9" font-family="Helvetica,sans-Serif" font-size="14.00">b</text>
</g>
<!-- b&#45;&gt;X -->
<g id="edge2" class="edge"><title>b&#45;&gt;X:n</title>
<path fill="none" stroke="black" d="M97.8179,-319.3C80.056,-312.376 58.421,-300.411 52.5382,-281.931"/>
<polygon fill="black" stroke="black" points="55.9894,-281.346 51,-272 49.0719,-282.418 55.9894,-281.346"/>
</g>
<!-- b&#45;&gt;mb -->
<!-- a -->
<g id="node9" class="node"><title>a</title>
<ellipse fill="none" stroke="black" cx="171" cy="-200" rx="27" ry="19.0919"/>
<text text-anchor="middle" x="171" y="-196.9" font-family="Helvetica,sans-Serif" font-size="14.00">a</text>
</g>
<!-- b&#45;&gt;a -->
<g id="edge6" class="edge"><title>b&#45;&gt;a</title>
<path fill="none" stroke="black" d="M129.98,-308.533C137.978,-287.371 151.173,-252.459 160.433,-227.96"/>
<polygon fill="black" stroke="black" points="163.75,-229.081 164.012,-218.489 157.202,-226.606 163.75,-229.081"/>
</g>
<!-- mb&#45;&gt;a -->
<!-- a&#45;&gt;Y -->
<g id="edge12" class="edge"><title>a&#45;&gt;Y:n</title>
<path fill="none" stroke="black" d="M163.073,-181.712C156.337,-166.829 146.028,-145.498 135,-128 126.388,-114.335 113.721,-112.46 108.93,-102.005"/>
<polygon fill="black" stroke="black" points="112.331,-101.156 107,-92 105.458,-102.482 112.331,-101.156"/>
</g>
<!-- a&#45;&gt;Z -->
<g id="edge16" class="edge"><title>a&#45;&gt;Z:n</title>
<path fill="none" stroke="black" d="M187.482,-184.514C204.741,-166.696 229.946,-135.548 234.336,-101.996"/>
<polygon fill="black" stroke="black" points="237.83,-102.21 235,-92 230.845,-101.746 237.83,-102.21"/>
</g>
<!-- a&#45;&gt;ma -->
<!-- ma&#45;&gt;Z -->
</g>
</svg>
