<?xml version="1.0" encoding="UTF-8" standalone="no"?>
<!DOCTYPE svg PUBLIC "-//W3C//DTD SVG 1.1//EN"
 "http://www.w3.org/Graphics/SVG/1.1/DTD/svg11.dtd">
<!-- Generated by graphviz version 2.36.0 (20140111.2315)
 -->
<!-- Title: G Pages: 1 -->
<svg width="277pt" height="336pt"
 viewBox="0.00 0.00 277.00 336.00" xmlns="http://www.w3.org/2000/svg" xmlns:xlink="http://www.w3.org/1999/xlink">
<g id="graph0" class="graph" transform="scale(1 1) rotate(0) translate(4 332)">
<title>G</title>
<polygon fill="white" stroke="none" points="-4,4 -4,-332 273,-332 273,4 -4,4"/>
<!-- X -->
<g id="node1" class="node"><title>X</title>
<polygon fill="none" stroke="black" points="50,-144 -0.203437,-36 100.203,-36 50,-144"/>
<text text-anchor="middle" x="50" y="-75.8" font-family="Helvetica,sans-Serif" font-size="14.00">X</text>
<text text-anchor="middle" x="50" y="-60.8" font-family="Helvetica,sans-Serif" font-size="14.00">(h+1)</text>
</g>
<!-- mb -->
<!-- X&#45;&gt;mb -->
<!-- Y -->
<g id="node2" class="node"><title>Y</title>
<polygon fill="none" stroke="black" points="182,-110 143.72,-53 220.28,-53 182,-110"/>
<text text-anchor="middle" x="182" y="-75.8" font-family="Helvetica,sans-Serif" font-size="14.00">Y</text>
<text text-anchor="middle" x="182" y="-60.8" font-family="Helvetica,sans-Serif" font-size="14.00">(h)</text>
</g>
<!-- Z -->
<g id="node3" class="node"><title>Z</title>
<polygon fill="none" stroke="black" points="231,-256 192.72,-199 269.28,-199 231,-256"/>
<text text-anchor="middle" x="231" y="-221.8" font-family="Helvetica,sans-Serif" font-size="14.00">Z</text>
<text text-anchor="middle" x="231" y="-206.8" font-family="Helvetica,sans-Serif" font-size="14.00">(h)</text>
</g>
<!-- a -->
<g id="node4" class="node"><title>a</title>
<ellipse fill="none" stroke="black" cx="171" cy="-310" rx="27" ry="18"/>
<text text-anchor="middle" x="171" y="-306.3" font-family="Helvetica,sans-Serif" font-size="14.00">a</text>
</g>
<!-- a&#45;&gt;Z -->
<g id="edge3" class="edge"><title>a&#45;&gt;Z:n</title>
<path fill="none" stroke="black" d="M193.683,-299.816C207.754,-292.735 224.112,-281.535 229.319,-266.134"/>
<polygon fill="black" stroke="black" points="232.816,-266.438 231,-256 225.91,-265.292 232.816,-266.438"/>
</g>
<!-- b -->
<g id="node5" class="node"><title>b</title>
<ellipse fill="none" stroke="black" cx="122" cy="-218" rx="27" ry="18"/>
<text text-anchor="middle" x="122" y="-214.3" font-family="Helvetica,sans-Serif" font-size="14.00">b</text>
</g>
<!-- a&#45;&gt;b -->
<g id="edge1" class="edge"><title>a&#45;&gt;b</title>
<path fill="none" stroke="black" d="M162.24,-292.91C154.899,-279.427 144.29,-259.941 135.808,-244.361"/>
<polygon fill="black" stroke="black" points="138.705,-242.363 130.85,-235.254 132.557,-245.711 138.705,-242.363"/>
</g>
<!-- ma -->
<!-- a&#45;&gt;ma -->
<!-- b&#45;&gt;X -->
<g id="edge6" class="edge"><title>b&#45;&gt;X:n</title>
<path fill="none" stroke="black" d="M100.787,-206.803C82.0377,-196.332 56.8114,-178.155 51.1564,-153.953"/>
<polygon fill="black" stroke="black" points="54.6309,-153.529 50,-144 47.6777,-154.337 54.6309,-153.529"/>
</g>
<!-- b&#45;&gt;Y -->
<g id="edge8" class="edge"><title>b&#45;&gt;Y:n</title>
<path fill="none" stroke="black" d="M136.524,-202.666C152.617,-185.334 176.89,-154.351 181.3,-121.308"/>
<polygon fill="black" stroke="black" points="184.815,-121.214 182,-111 177.831,-120.74 184.815,-121.214"/>
</g>
<!-- b&#45;&gt;ma -->
<!-- b&#45;&gt;mb -->
<!-- ma&#45;&gt;Z -->
<!-- mb&#45;&gt;Y -->
</g>
</svg>
