<?xml version="1.0" encoding="UTF-8" standalone="no"?>
<!DOCTYPE svg PUBLIC "-//W3C//DTD SVG 1.1//EN"
 "http://www.w3.org/Graphics/SVG/1.1/DTD/svg11.dtd">
<!-- Generated by graphviz version 2.26.3 (20100126.1600)
 -->
<!-- Title: G Pages: 1 -->
<svg width="278pt" height="268pt"
 viewBox="0.00 0.00 278.00 268.00" xmlns="http://www.w3.org/2000/svg" xmlns:xlink="http://www.w3.org/1999/xlink">
<g id="graph1" class="graph" transform="scale(1 1) rotate(0) translate(4 264)">
<title>G</title>
<polygon fill="white" stroke="white" points="-4,5 -4,-264 275,-264 275,5 -4,5"/>
<!-- 5 -->
<g id="node1" class="node"><title>5</title>
<ellipse fill="none" stroke="black" cx="138" cy="-241" rx="27" ry="19.0919"/>
<text text-anchor="middle" x="138" y="-237.9" font-family="Helvetica,sans-Serif" font-size="14.00">5</text>
</g>
<!-- 4 -->
<g id="node3" class="node"><title>4</title>
<ellipse fill="none" stroke="black" cx="78" cy="-167" rx="27" ry="19.0919"/>
<text text-anchor="middle" x="78" y="-163.9" font-family="Helvetica,sans-Serif" font-size="14.00">4</text>
</g>
<!-- 5&#45;&gt;4 -->
<g id="edge2" class="edge"><title>5&#45;&gt;4</title>
<path fill="none" stroke="black" d="M124.385,-224.208C116.56,-214.558 106.59,-202.261 97.9001,-191.544"/>
<polygon fill="black" stroke="black" points="100.578,-189.289 91.561,-183.725 95.1405,-193.697 100.578,-189.289"/>
</g>
<!-- m5 -->
<!-- 5&#45;&gt;m5 -->
<!-- 9 -->
<g id="node7" class="node"><title>9</title>
<ellipse fill="none" stroke="black" cx="192" cy="-167" rx="27" ry="19.0919"/>
<text text-anchor="middle" x="192" y="-163.9" font-family="Helvetica,sans-Serif" font-size="14.00">9</text>
</g>
<!-- 5&#45;&gt;9 -->
<g id="edge6" class="edge"><title>5&#45;&gt;9</title>
<path fill="none" stroke="black" d="M150.524,-223.837C157.34,-214.497 165.903,-202.763 173.475,-192.386"/>
<polygon fill="black" stroke="black" points="176.476,-194.211 179.544,-184.07 170.822,-190.085 176.476,-194.211"/>
</g>
<!-- 4&#45;&gt;m5 -->
<!-- 1 -->
<g id="node11" class="node"><title>1</title>
<ellipse fill="none" stroke="black" cx="27" cy="-93" rx="27" ry="19.0919"/>
<text text-anchor="middle" x="27" y="-89.9" font-family="Helvetica,sans-Serif" font-size="14.00">1</text>
</g>
<!-- 4&#45;&gt;1 -->
<g id="edge12" class="edge"><title>4&#45;&gt;1</title>
<path fill="none" stroke="black" d="M66.1714,-149.837C59.7805,-140.564 51.763,-128.931 44.649,-118.608"/>
<polygon fill="black" stroke="black" points="47.4978,-116.574 38.9411,-110.326 41.734,-120.546 47.4978,-116.574"/>
</g>
<!-- l4 -->
<!-- 4&#45;&gt;l4 -->
<!-- r4 -->
<!-- 4&#45;&gt;r4 -->
<!-- m5&#45;&gt;9 -->
<!-- 7 -->
<g id="node19" class="node"><title>7</title>
<ellipse fill="none" stroke="black" cx="147" cy="-93" rx="27" ry="19.0919"/>
<text text-anchor="middle" x="147" y="-89.9" font-family="Helvetica,sans-Serif" font-size="14.00">7</text>
</g>
<!-- 9&#45;&gt;7 -->
<g id="edge22" class="edge"><title>9&#45;&gt;7</title>
<path fill="none" stroke="black" d="M181.336,-149.463C175.883,-140.497 169.135,-129.399 163.067,-119.422"/>
<polygon fill="black" stroke="black" points="165.93,-117.393 157.744,-110.668 159.949,-121.03 165.93,-117.393"/>
</g>
<!-- m9 -->
<!-- 9&#45;&gt;m9 -->
<!-- 11 -->
<g id="node23" class="node"><title>11</title>
<ellipse fill="none" stroke="black" cx="243" cy="-93" rx="27" ry="19.0919"/>
<text text-anchor="middle" x="243" y="-89.9" font-family="Helvetica,sans-Serif" font-size="14.00">11</text>
</g>
<!-- 9&#45;&gt;11 -->
<g id="edge26" class="edge"><title>9&#45;&gt;11</title>
<path fill="none" stroke="black" d="M203.829,-149.837C210.219,-140.564 218.237,-128.931 225.351,-118.608"/>
<polygon fill="black" stroke="black" points="228.266,-120.546 231.059,-110.326 222.502,-116.574 228.266,-120.546"/>
</g>
<!-- 1&#45;&gt;l4 -->
<!-- l4&#45;&gt;r4 -->
<!-- 7&#45;&gt;m9 -->
<!-- l7 -->
<!-- 7&#45;&gt;l7 -->
<!-- m7 -->
<!-- 7&#45;&gt;m7 -->
<!-- 8 -->
<g id="node31" class="node"><title>8</title>
<ellipse fill="none" stroke="black" cx="195" cy="-19" rx="27" ry="19.0919"/>
<text text-anchor="middle" x="195" y="-15.9" font-family="Helvetica,sans-Serif" font-size="14.00">8</text>
</g>
<!-- 7&#45;&gt;8 -->
<g id="edge36" class="edge"><title>7&#45;&gt;8</title>
<path fill="none" stroke="black" d="M158.375,-75.463C164.293,-66.3394 171.643,-55.0086 178.202,-44.897"/>
<polygon fill="black" stroke="black" points="181.201,-46.7054 183.706,-36.4111 175.328,-42.896 181.201,-46.7054"/>
</g>
<!-- m9&#45;&gt;11 -->
<!-- l7&#45;&gt;m7 -->
<!-- m7&#45;&gt;8 -->
</g>
</svg>
