<?xml version="1.0" encoding="UTF-8" standalone="no"?>
<!DOCTYPE svg PUBLIC "-//W3C//DTD SVG 1.1//EN"
 "http://www.w3.org/Graphics/SVG/1.1/DTD/svg11.dtd">
<!-- Generated by graphviz version 2.26.3 (20100126.1600)
 -->
<!-- Title: G Pages: 1 -->
<svg width="160pt" height="278pt"
 viewBox="0.00 0.00 160.00 278.00" xmlns="http://www.w3.org/2000/svg" xmlns:xlink="http://www.w3.org/1999/xlink">
<g id="graph1" class="graph" transform="scale(1 1) rotate(0) translate(4 274)">
<title>G</title>
<polygon fill="white" stroke="white" points="-4,5 -4,-274 157,-274 157,5 -4,5"/>
<!-- 3 -->
<g id="node1" class="node"><title>3</title>
<ellipse fill="none" stroke="red" cx="124" cy="-237" rx="27.7881" ry="32.5269"/>
<text text-anchor="middle" x="124" y="-243.4" font-family="Helvetica,sans-Serif" font-size="14.00" fill="red">3</text>
<text text-anchor="middle" x="124" y="-224.4" font-family="Helvetica,sans-Serif" font-size="14.00" fill="red">b:&#45;2</text>
</g>
<!-- 2 -->
<g id="node2" class="node"><title>2</title>
<ellipse fill="none" stroke="green" cx="75" cy="-135" rx="27.7881" ry="32.5269"/>
<text text-anchor="middle" x="75" y="-141.4" font-family="Helvetica,sans-Serif" font-size="14.00" fill="green">2</text>
<text text-anchor="middle" x="75" y="-122.4" font-family="Helvetica,sans-Serif" font-size="14.00" fill="green">b:&#45;1</text>
</g>
<!-- 3&#45;&gt;2 -->
<g id="edge2" class="edge"><title>3&#45;&gt;2</title>
<path fill="none" stroke="black" d="M110.351,-208.587C105.033,-197.517 98.86,-184.668 93.175,-172.834"/>
<polygon fill="black" stroke="black" points="96.2311,-171.112 88.746,-163.614 89.9214,-174.144 96.2311,-171.112"/>
</g>
<!-- m3 -->
<!-- 3&#45;&gt;m3 -->
<!-- r3 -->
<!-- 3&#45;&gt;r3 -->
<!-- 1 -->
<g id="node3" class="node"><title>1</title>
<ellipse fill="none" stroke="blue" cx="27" cy="-33" rx="27" ry="32.5269"/>
<text text-anchor="middle" x="27" y="-39.4" font-family="Helvetica,sans-Serif" font-size="14.00" fill="blue">1</text>
<text text-anchor="middle" x="27" y="-20.4" font-family="Helvetica,sans-Serif" font-size="14.00" fill="blue">b:0</text>
</g>
<!-- 2&#45;&gt;1 -->
<g id="edge12" class="edge"><title>2&#45;&gt;1</title>
<path fill="none" stroke="black" d="M61.5016,-106.316C56.2942,-95.2501 50.2651,-82.4384 44.7178,-70.6503"/>
<polygon fill="black" stroke="black" points="47.822,-69.0267 40.3971,-61.4688 41.4883,-72.0073 47.822,-69.0267"/>
</g>
<!-- 2&#45;&gt;m3 -->
<!-- l2 -->
<!-- 2&#45;&gt;l2 -->
<!-- r2 -->
<!-- 2&#45;&gt;r2 -->
<!-- 1&#45;&gt;l2 -->
<!-- m3&#45;&gt;r3 -->
<!-- l2&#45;&gt;r2 -->
</g>
</svg>
