<?xml version="1.0" encoding="UTF-8" standalone="no"?>
<!DOCTYPE svg PUBLIC "-//W3C//DTD SVG 1.1//EN"
 "http://www.w3.org/Graphics/SVG/1.1/DTD/svg11.dtd">
<!-- Generated by graphviz version 2.36.0 (20140111.2315)
 -->
<!-- Title: G Pages: 1 -->
<svg width="291pt" height="332pt"
 viewBox="0.00 0.00 291.00 332.00" xmlns="http://www.w3.org/2000/svg" xmlns:xlink="http://www.w3.org/1999/xlink">
<g id="graph0" class="graph" transform="scale(1 1) rotate(0) translate(4 328)">
<title>G</title>
<polygon fill="white" stroke="none" points="-4,4 -4,-328 287,-328 287,4 -4,4"/>
<!-- 5 -->
<g id="node1" class="node"><title>5</title>
<ellipse fill="none" stroke="black" cx="145" cy="-297" rx="31.1693" ry="26.7407"/>
<text text-anchor="middle" x="145" y="-300.8" font-family="Helvetica,sans-Serif" font-size="14.00">5</text>
<text text-anchor="middle" x="145" y="-285.8" font-family="Helvetica,sans-Serif" font-size="14.00">b:+1</text>
</g>
<!-- 4 -->
<g id="node2" class="node"><title>4</title>
<ellipse fill="none" stroke="black" cx="80" cy="-207" rx="27.9291" ry="26.7407"/>
<text text-anchor="middle" x="80" y="-210.8" font-family="Helvetica,sans-Serif" font-size="14.00">4</text>
<text text-anchor="middle" x="80" y="-195.8" font-family="Helvetica,sans-Serif" font-size="14.00">b:&#45;1</text>
</g>
<!-- 5&#45;&gt;4 -->
<g id="edge1" class="edge"><title>5&#45;&gt;4</title>
<path fill="none" stroke="black" d="M128.598,-273.794C120.487,-262.813 110.587,-249.41 101.844,-237.573"/>
<polygon fill="black" stroke="black" points="104.481,-235.253 95.7243,-229.288 98.8504,-239.411 104.481,-235.253"/>
</g>
<!-- 9 -->
<g id="node6" class="node"><title>9</title>
<ellipse fill="none" stroke="black" cx="203" cy="-207" rx="27.9291" ry="26.7407"/>
<text text-anchor="middle" x="203" y="-210.8" font-family="Helvetica,sans-Serif" font-size="14.00">9</text>
<text text-anchor="middle" x="203" y="-195.8" font-family="Helvetica,sans-Serif" font-size="14.00">b:&#45;1</text>
</g>
<!-- 5&#45;&gt;9 -->
<g id="edge3" class="edge"><title>5&#45;&gt;9</title>
<path fill="none" stroke="black" d="M159.936,-273.338C166.891,-262.787 175.268,-250.076 182.779,-238.681"/>
<polygon fill="black" stroke="black" points="185.734,-240.556 188.315,-230.281 179.889,-236.704 185.734,-240.556"/>
</g>
<!-- m5 -->
<!-- 5&#45;&gt;m5 -->
<!-- 1 -->
<g id="node3" class="node"><title>1</title>
<ellipse fill="none" stroke="black" cx="27" cy="-117" rx="27" ry="26.7407"/>
<text text-anchor="middle" x="27" y="-120.8" font-family="Helvetica,sans-Serif" font-size="14.00">1</text>
<text text-anchor="middle" x="27" y="-105.8" font-family="Helvetica,sans-Serif" font-size="14.00">b:0</text>
</g>
<!-- 4&#45;&gt;1 -->
<g id="edge6" class="edge"><title>4&#45;&gt;1</title>
<path fill="none" stroke="black" d="M66.3512,-183.338C60.1072,-172.971 52.6074,-160.518 45.8375,-149.277"/>
<polygon fill="black" stroke="black" points="48.7601,-147.346 40.6026,-140.585 42.7637,-150.957 48.7601,-147.346"/>
</g>
<!-- 4&#45;&gt;m5 -->
<!-- l4 -->
<!-- 4&#45;&gt;l4 -->
<!-- r4 -->
<!-- 4&#45;&gt;r4 -->
<!-- 1&#45;&gt;l4 -->
<!-- 7 -->
<g id="node4" class="node"><title>7</title>
<ellipse fill="none" stroke="black" cx="154" cy="-117" rx="31.1693" ry="26.7407"/>
<text text-anchor="middle" x="154" y="-120.8" font-family="Helvetica,sans-Serif" font-size="14.00">7</text>
<text text-anchor="middle" x="154" y="-105.8" font-family="Helvetica,sans-Serif" font-size="14.00">b:+1</text>
</g>
<!-- 8 -->
<g id="node5" class="node"><title>8</title>
<ellipse fill="none" stroke="black" cx="203" cy="-27" rx="27" ry="26.7407"/>
<text text-anchor="middle" x="203" y="-30.8" font-family="Helvetica,sans-Serif" font-size="14.00">8</text>
<text text-anchor="middle" x="203" y="-15.8" font-family="Helvetica,sans-Serif" font-size="14.00">b:0</text>
</g>
<!-- 7&#45;&gt;8 -->
<g id="edge18" class="edge"><title>7&#45;&gt;8</title>
<path fill="none" stroke="black" d="M167.131,-92.4176C172.756,-82.3149 179.409,-70.3669 185.448,-59.5215"/>
<polygon fill="black" stroke="black" points="188.533,-61.1751 190.34,-50.7355 182.418,-57.7697 188.533,-61.1751"/>
</g>
<!-- m9 -->
<!-- 7&#45;&gt;m9 -->
<!-- l7 -->
<!-- 7&#45;&gt;l7 -->
<!-- m7 -->
<!-- 7&#45;&gt;m7 -->
<!-- 9&#45;&gt;7 -->
<g id="edge11" class="edge"><title>9&#45;&gt;7</title>
<path fill="none" stroke="black" d="M190.126,-182.879C184.588,-172.933 178.018,-161.134 172.009,-150.343"/>
<polygon fill="black" stroke="black" points="175.052,-148.613 167.129,-141.579 168.936,-152.018 175.052,-148.613"/>
</g>
<!-- 11 -->
<g id="node7" class="node"><title>11</title>
<ellipse fill="none" stroke="black" cx="256" cy="-117" rx="27" ry="26.7407"/>
<text text-anchor="middle" x="256" y="-120.8" font-family="Helvetica,sans-Serif" font-size="14.00">11</text>
<text text-anchor="middle" x="256" y="-105.8" font-family="Helvetica,sans-Serif" font-size="14.00">b:0</text>
</g>
<!-- 9&#45;&gt;11 -->
<g id="edge13" class="edge"><title>9&#45;&gt;11</title>
<path fill="none" stroke="black" d="M216.649,-183.338C222.893,-172.971 230.393,-160.518 237.163,-149.277"/>
<polygon fill="black" stroke="black" points="240.236,-150.957 242.397,-140.585 234.24,-147.346 240.236,-150.957"/>
</g>
<!-- 9&#45;&gt;m9 -->
<!-- m5&#45;&gt;9 -->
<!-- l4&#45;&gt;r4 -->
<!-- m9&#45;&gt;11 -->
<!-- l7&#45;&gt;m7 -->
<!-- m7&#45;&gt;8 -->
</g>
</svg>
