<?xml version="1.0" encoding="UTF-8" standalone="no"?>
<!DOCTYPE svg PUBLIC "-//W3C//DTD SVG 1.1//EN"
 "http://www.w3.org/Graphics/SVG/1.1/DTD/svg11.dtd">
<!-- Generated by graphviz version 2.36.0 (20140111.2315)
 -->
<!-- Title: G Pages: 1 -->
<svg width="428pt" height="332pt"
 viewBox="0.00 0.00 428.00 332.00" xmlns="http://www.w3.org/2000/svg" xmlns:xlink="http://www.w3.org/1999/xlink">
<g id="graph0" class="graph" transform="scale(1 1) rotate(0) translate(4 328)">
<title>G</title>
<polygon fill="white" stroke="none" points="-4,4 -4,-328 424,-328 424,4 -4,4"/>
<!-- 3 -->
<g id="node1" class="node"><title>3</title>
<ellipse fill="none" stroke="blue" cx="125" cy="-162" rx="27" ry="18"/>
<text text-anchor="middle" x="125" y="-158.3" font-family="Helvetica,sans-Serif" font-size="14.00">3</text>
</g>
<!-- m5 -->
<!-- 3&#45;&gt;m5 -->
<!-- 2 -->
<g id="node8" class="node"><title>2</title>
<ellipse fill="none" stroke="black" cx="76" cy="-90" rx="27" ry="18"/>
<text text-anchor="middle" x="76" y="-86.3" font-family="Helvetica,sans-Serif" font-size="14.00">2</text>
</g>
<!-- 3&#45;&gt;2 -->
<g id="edge11" class="edge"><title>3&#45;&gt;2</title>
<path fill="none" stroke="black" d="M114.125,-145.465C107.845,-136.493 99.813,-125.019 92.7423,-114.918"/>
<polygon fill="black" stroke="black" points="95.4463,-112.677 86.8443,-106.492 89.7116,-116.691 95.4463,-112.677"/>
</g>
<!-- m3 -->
<!-- 3&#45;&gt;m3 -->
<!-- 4 -->
<g id="node10" class="node"><title>4</title>
<ellipse fill="none" stroke="black" cx="174" cy="-90" rx="27" ry="18"/>
<text text-anchor="middle" x="174" y="-86.3" font-family="Helvetica,sans-Serif" font-size="14.00">4</text>
</g>
<!-- 3&#45;&gt;4 -->
<g id="edge13" class="edge"><title>3&#45;&gt;4</title>
<path fill="none" stroke="black" d="M135.875,-145.465C142.155,-136.493 150.187,-125.019 157.258,-114.918"/>
<polygon fill="black" stroke="black" points="160.288,-116.691 163.156,-106.492 154.554,-112.677 160.288,-116.691"/>
</g>
<!-- 5 -->
<g id="node2" class="node"><title>5</title>
<ellipse fill="none" stroke="blue" cx="180" cy="-234" rx="27" ry="18"/>
<text text-anchor="middle" x="180" y="-230.3" font-family="Helvetica,sans-Serif" font-size="14.00">5</text>
</g>
<!-- 5&#45;&gt;3 -->
<g id="edge6" class="edge"><title>5&#45;&gt;3</title>
<path fill="none" stroke="black" d="M168.066,-217.811C160.786,-208.546 151.337,-196.52 143.146,-186.094"/>
<polygon fill="black" stroke="black" points="145.841,-183.86 136.911,-178.159 140.337,-188.185 145.841,-183.86"/>
</g>
<!-- m15 -->
<!-- 5&#45;&gt;m15 -->
<!-- 5&#45;&gt;m5 -->
<!-- 10 -->
<g id="node7" class="node"><title>10</title>
<ellipse fill="none" stroke="black" cx="223" cy="-162" rx="27" ry="18"/>
<text text-anchor="middle" x="223" y="-158.3" font-family="Helvetica,sans-Serif" font-size="14.00">10</text>
</g>
<!-- 5&#45;&gt;10 -->
<g id="edge8" class="edge"><title>5&#45;&gt;10</title>
<path fill="none" stroke="black" d="M189.757,-217.116C195.145,-208.345 201.952,-197.264 208.001,-187.416"/>
<polygon fill="black" stroke="black" points="211.029,-189.174 213.281,-178.821 205.065,-185.51 211.029,-189.174"/>
</g>
<!-- 15 -->
<g id="node3" class="node"><title>15</title>
<ellipse fill="none" stroke="black" cx="240" cy="-306" rx="27" ry="18"/>
<text text-anchor="middle" x="240" y="-302.3" font-family="Helvetica,sans-Serif" font-size="14.00">15</text>
</g>
<!-- 15&#45;&gt;5 -->
<g id="edge1" class="edge"><title>15&#45;&gt;5</title>
<path fill="none" stroke="black" d="M226.981,-289.811C218.961,-280.455 208.527,-268.282 199.53,-257.785"/>
<polygon fill="black" stroke="black" points="202.159,-255.474 192.994,-250.159 196.844,-260.03 202.159,-255.474"/>
</g>
<!-- 15&#45;&gt;m15 -->
<!-- 20 -->
<g id="node5" class="node"><title>20</title>
<ellipse fill="none" stroke="black" cx="319" cy="-234" rx="27" ry="18"/>
<text text-anchor="middle" x="319" y="-230.3" font-family="Helvetica,sans-Serif" font-size="14.00">20</text>
</g>
<!-- 15&#45;&gt;20 -->
<g id="edge3" class="edge"><title>15&#45;&gt;20</title>
<path fill="none" stroke="black" d="M255.608,-291.17C267.077,-281.008 282.851,-267.03 295.795,-255.561"/>
<polygon fill="black" stroke="black" points="298.261,-258.053 303.425,-248.801 293.619,-252.813 298.261,-258.053"/>
</g>
<!-- m15&#45;&gt;20 -->
<!-- 17 -->
<g id="node14" class="node"><title>17</title>
<ellipse fill="none" stroke="black" cx="295" cy="-162" rx="27" ry="18"/>
<text text-anchor="middle" x="295" y="-158.3" font-family="Helvetica,sans-Serif" font-size="14.00">17</text>
</g>
<!-- 20&#45;&gt;17 -->
<g id="edge21" class="edge"><title>20&#45;&gt;17</title>
<path fill="none" stroke="black" d="M313.19,-216.055C310.449,-208.059 307.113,-198.331 304.051,-189.4"/>
<polygon fill="black" stroke="black" points="307.31,-188.113 300.756,-179.789 300.689,-190.384 307.31,-188.113"/>
</g>
<!-- m20 -->
<!-- 20&#45;&gt;m20 -->
<!-- 21 -->
<g id="node16" class="node"><title>21</title>
<ellipse fill="none" stroke="black" cx="393" cy="-162" rx="27" ry="18"/>
<text text-anchor="middle" x="393" y="-158.3" font-family="Helvetica,sans-Serif" font-size="14.00">21</text>
</g>
<!-- 20&#45;&gt;21 -->
<g id="edge23" class="edge"><title>20&#45;&gt;21</title>
<path fill="none" stroke="black" d="M333.975,-218.834C344.507,-208.872 358.782,-195.369 370.655,-184.137"/>
<polygon fill="black" stroke="black" points="373.188,-186.559 378.047,-177.144 368.377,-181.474 373.188,-186.559"/>
</g>
<!-- m5&#45;&gt;10 -->
<!-- 2&#45;&gt;m3 -->
<!-- 1 -->
<g id="node11" class="node"><title>1</title>
<ellipse fill="none" stroke="red" cx="27" cy="-18" rx="27" ry="18"/>
<text text-anchor="middle" x="27" y="-14.3" font-family="Helvetica,sans-Serif" font-size="14.00">1</text>
</g>
<!-- 2&#45;&gt;1 -->
<g id="edge16" class="edge"><title>2&#45;&gt;1</title>
<path fill="none" stroke="red" d="M65.1253,-73.4647C58.8449,-64.4927 50.813,-53.0185 43.7423,-42.9176"/>
<polygon fill="red" stroke="red" points="46.4463,-40.677 37.8443,-34.4918 40.7116,-44.6913 46.4463,-40.677"/>
</g>
<!-- m2 -->
<!-- 2&#45;&gt;m2 -->
<!-- r2 -->
<!-- 2&#45;&gt;r2 -->
<!-- m3&#45;&gt;4 -->
<!-- 1&#45;&gt;m2 -->
<!-- m2&#45;&gt;r2 -->
<!-- 17&#45;&gt;m20 -->
<!-- m20&#45;&gt;21 -->
</g>
</svg>
