<?xml version="1.0" encoding="UTF-8" standalone="no"?>
<!DOCTYPE svg PUBLIC "-//W3C//DTD SVG 1.1//EN"
 "http://www.w3.org/Graphics/SVG/1.1/DTD/svg11.dtd">
<!-- Generated by graphviz version 2.36.0 (20140111.2315)
 -->
<!-- Title: G Pages: 1 -->
<svg width="264pt" height="584pt"
 viewBox="0.00 0.00 264.00 584.00" xmlns="http://www.w3.org/2000/svg" xmlns:xlink="http://www.w3.org/1999/xlink">
<g id="graph0" class="graph" transform="scale(1 1) rotate(0) translate(4 580)">
<title>G</title>
<polygon fill="white" stroke="none" points="-4,4 -4,-580 260,-580 260,4 -4,4"/>
<!-- W -->
<g id="node1" class="node"><title>W</title>
<polygon fill="none" stroke="black" points="34,-324 -0.319769,-216 68.3198,-216 34,-324"/>
<text text-anchor="middle" x="34" y="-255.8" font-family="Helvetica,sans-Serif" font-size="14.00">W</text>
<text text-anchor="middle" x="34" y="-240.8" font-family="Helvetica,sans-Serif" font-size="14.00">(h)</text>
</g>
<!-- mb -->
<!-- W&#45;&gt;mb -->
<!-- X -->
<g id="node2" class="node"><title>X</title>
<polygon fill="none" stroke="black" points="74,-144 39.6802,-36 108.32,-36 74,-144"/>
<text text-anchor="middle" x="74" y="-75.8" font-family="Helvetica,sans-Serif" font-size="14.00">X</text>
<text text-anchor="middle" x="74" y="-60.8" font-family="Helvetica,sans-Serif" font-size="14.00">(h)</text>
</g>
<!-- mc -->
<!-- X&#45;&gt;mc -->
<!-- Y -->
<g id="node3" class="node"><title>Y</title>
<polygon fill="none" stroke="black" points="204,-110 151.53,-53 256.47,-53 204,-110"/>
<text text-anchor="middle" x="204" y="-75.8" font-family="Helvetica,sans-Serif" font-size="14.00">Y</text>
<text text-anchor="middle" x="204" y="-60.8" font-family="Helvetica,sans-Serif" font-size="14.00">(h&#45;1)</text>
</g>
<!-- Z -->
<g id="node4" class="node"><title>Z</title>
<polygon fill="none" stroke="black" points="186,-504 151.68,-396 220.32,-396 186,-504"/>
<text text-anchor="middle" x="186" y="-435.8" font-family="Helvetica,sans-Serif" font-size="14.00">Z</text>
<text text-anchor="middle" x="186" y="-420.8" font-family="Helvetica,sans-Serif" font-size="14.00">(h)</text>
</g>
<!-- a -->
<g id="node5" class="node"><title>a</title>
<ellipse fill="none" stroke="black" cx="130" cy="-558" rx="18" ry="18"/>
<text text-anchor="middle" x="130" y="-554.3" font-family="Helvetica,sans-Serif" font-size="14.00">a</text>
</g>
<!-- a&#45;&gt;Z -->
<g id="edge3" class="edge"><title>a&#45;&gt;Z:n</title>
<path fill="none" stroke="black" d="M146.198,-550.043C160.152,-543.02 178.894,-530.794 184.411,-513.877"/>
<polygon fill="black" stroke="black" points="187.867,-514.429 186,-504 180.956,-513.317 187.867,-514.429"/>
</g>
<!-- b -->
<g id="node6" class="node"><title>b</title>
<ellipse fill="none" stroke="black" cx="90" cy="-432" rx="18" ry="18"/>
<text text-anchor="middle" x="90" y="-428.3" font-family="Helvetica,sans-Serif" font-size="14.00">b</text>
</g>
<!-- a&#45;&gt;b -->
<g id="edge1" class="edge"><title>a&#45;&gt;b</title>
<path fill="none" stroke="black" d="M124.688,-540.534C117.994,-519.782 106.407,-483.861 98.4813,-459.292"/>
<polygon fill="black" stroke="black" points="101.735,-457.977 95.3337,-449.534 95.0728,-460.126 101.735,-457.977"/>
</g>
<!-- ma -->
<!-- a&#45;&gt;ma -->
<!-- b&#45;&gt;W -->
<g id="edge6" class="edge"><title>b&#45;&gt;W:n</title>
<path fill="none" stroke="black" d="M78.1238,-418.287C63.1624,-401.013 38.884,-368.34 34.6422,-334.155"/>
<polygon fill="black" stroke="black" points="38.1243,-333.759 34,-324 31.1382,-334.201 38.1243,-333.759"/>
</g>
<!-- b&#45;&gt;ma -->
<!-- b&#45;&gt;mb -->
<!-- c -->
<g id="node9" class="node"><title>c</title>
<ellipse fill="none" stroke="black" cx="130" cy="-252" rx="18" ry="18"/>
<text text-anchor="middle" x="130" y="-248.3" font-family="Helvetica,sans-Serif" font-size="14.00">c</text>
</g>
<!-- b&#45;&gt;c -->
<g id="edge8" class="edge"><title>b&#45;&gt;c</title>
<path fill="none" stroke="black" d="M93.7631,-414.254C100.702,-383.377 115.566,-317.23 123.941,-279.962"/>
<polygon fill="black" stroke="black" points="127.44,-280.355 126.218,-269.831 120.61,-278.82 127.44,-280.355"/>
</g>
<!-- ma&#45;&gt;Z -->
<!-- mb&#45;&gt;c -->
<!-- c&#45;&gt;X -->
<g id="edge11" class="edge"><title>c&#45;&gt;X:n</title>
<path fill="none" stroke="black" d="M125.022,-234.609C120.189,-219.818 112.11,-197.725 102,-180 93.9974,-165.969 80.9687,-164.311 76.0059,-153.959"/>
<polygon fill="black" stroke="black" points="79.4056,-153.112 74,-144 72.5434,-154.494 79.4056,-153.112"/>
</g>
<!-- c&#45;&gt;Y -->
<g id="edge13" class="edge"><title>c&#45;&gt;Y:n</title>
<path fill="none" stroke="black" d="M142.22,-238.298C161.883,-216.55 198.828,-169.796 203.508,-121.087"/>
<polygon fill="black" stroke="black" points="207.009,-121.159 204,-111 200.017,-120.818 207.009,-121.159"/>
</g>
<!-- c&#45;&gt;mc -->
<!-- mc&#45;&gt;Y -->
</g>
</svg>
