<?xml version="1.0" encoding="UTF-8" standalone="no"?>
<!DOCTYPE svg PUBLIC "-//W3C//DTD SVG 1.1//EN"
 "http://www.w3.org/Graphics/SVG/1.1/DTD/svg11.dtd">
<!-- Generated by graphviz version 2.26.3 (20100126.1600)
 -->
<!-- Title: G Pages: 1 -->
<svg width="278pt" height="380pt"
 viewBox="0.00 0.00 278.00 380.00" xmlns="http://www.w3.org/2000/svg" xmlns:xlink="http://www.w3.org/1999/xlink">
<g id="graph1" class="graph" transform="scale(1 1) rotate(0) translate(4 376)">
<title>G</title>
<polygon fill="white" stroke="white" points="-4,5 -4,-376 275,-376 275,5 -4,5"/>
<!-- 5 -->
<g id="node1" class="node"><title>5</title>
<ellipse fill="none" stroke="black" cx="138" cy="-339" rx="27" ry="32.5269"/>
<text text-anchor="middle" x="138" y="-345.4" font-family="Helvetica,sans-Serif" font-size="14.00">5</text>
<text text-anchor="middle" x="138" y="-326.4" font-family="Helvetica,sans-Serif" font-size="14.00">b:1</text>
</g>
<!-- 4 -->
<g id="node2" class="node"><title>4</title>
<ellipse fill="none" stroke="black" cx="78" cy="-237" rx="27.7881" ry="32.5269"/>
<text text-anchor="middle" x="78" y="-243.4" font-family="Helvetica,sans-Serif" font-size="14.00">4</text>
<text text-anchor="middle" x="78" y="-224.4" font-family="Helvetica,sans-Serif" font-size="14.00">b:&#45;1</text>
</g>
<!-- 5&#45;&gt;4 -->
<g id="edge2" class="edge"><title>5&#45;&gt;4</title>
<path fill="none" stroke="black" d="M122.392,-312.467C115.283,-300.381 106.76,-285.893 99.0919,-272.856"/>
<polygon fill="black" stroke="black" points="102.034,-270.955 93.9472,-264.11 96.0007,-274.504 102.034,-270.955"/>
</g>
<!-- 9 -->
<g id="node6" class="node"><title>9</title>
<ellipse fill="none" stroke="black" cx="192" cy="-237" rx="27.7881" ry="32.5269"/>
<text text-anchor="middle" x="192" y="-243.4" font-family="Helvetica,sans-Serif" font-size="14.00">9</text>
<text text-anchor="middle" x="192" y="-224.4" font-family="Helvetica,sans-Serif" font-size="14.00">b:&#45;1</text>
</g>
<!-- 5&#45;&gt;9 -->
<g id="edge6" class="edge"><title>5&#45;&gt;9</title>
<path fill="none" stroke="black" d="M152.613,-311.397C158.686,-299.926 165.827,-286.437 172.349,-274.119"/>
<polygon fill="black" stroke="black" points="175.602,-275.455 177.187,-264.979 169.415,-272.18 175.602,-275.455"/>
</g>
<!-- m5 -->
<!-- 5&#45;&gt;m5 -->
<!-- 1 -->
<g id="node3" class="node"><title>1</title>
<ellipse fill="none" stroke="black" cx="27" cy="-135" rx="27" ry="32.5269"/>
<text text-anchor="middle" x="27" y="-141.4" font-family="Helvetica,sans-Serif" font-size="14.00">1</text>
<text text-anchor="middle" x="27" y="-122.4" font-family="Helvetica,sans-Serif" font-size="14.00">b:0</text>
</g>
<!-- 4&#45;&gt;1 -->
<g id="edge12" class="edge"><title>4&#45;&gt;1</title>
<path fill="none" stroke="black" d="M63.929,-208.858C58.2433,-197.487 51.6017,-184.203 45.5309,-172.062"/>
<polygon fill="black" stroke="black" points="48.6277,-170.429 41.0251,-163.05 42.3667,-173.56 48.6277,-170.429"/>
</g>
<!-- 4&#45;&gt;m5 -->
<!-- l4 -->
<!-- 4&#45;&gt;l4 -->
<!-- r4 -->
<!-- 4&#45;&gt;r4 -->
<!-- 1&#45;&gt;l4 -->
<!-- 7 -->
<g id="node4" class="node"><title>7</title>
<ellipse fill="none" stroke="black" cx="147" cy="-135" rx="27" ry="32.5269"/>
<text text-anchor="middle" x="147" y="-141.4" font-family="Helvetica,sans-Serif" font-size="14.00">7</text>
<text text-anchor="middle" x="147" y="-122.4" font-family="Helvetica,sans-Serif" font-size="14.00">b:1</text>
</g>
<!-- 8 -->
<g id="node5" class="node"><title>8</title>
<ellipse fill="none" stroke="black" cx="195" cy="-33" rx="27" ry="32.5269"/>
<text text-anchor="middle" x="195" y="-39.4" font-family="Helvetica,sans-Serif" font-size="14.00">8</text>
<text text-anchor="middle" x="195" y="-20.4" font-family="Helvetica,sans-Serif" font-size="14.00">b:0</text>
</g>
<!-- 7&#45;&gt;8 -->
<g id="edge36" class="edge"><title>7&#45;&gt;8</title>
<path fill="none" stroke="black" d="M160.371,-106.587C165.58,-95.5172 171.627,-82.6678 177.196,-70.8337"/>
<polygon fill="black" stroke="black" points="180.443,-72.1526 181.535,-61.6141 174.11,-69.172 180.443,-72.1526"/>
</g>
<!-- m9 -->
<!-- 7&#45;&gt;m9 -->
<!-- l7 -->
<!-- 7&#45;&gt;l7 -->
<!-- m7 -->
<!-- 7&#45;&gt;m7 -->
<!-- 9&#45;&gt;7 -->
<g id="edge22" class="edge"><title>9&#45;&gt;7</title>
<path fill="none" stroke="black" d="M179.225,-208.044C174.475,-197.276 169.009,-184.886 163.943,-173.404"/>
<polygon fill="black" stroke="black" points="167.045,-171.765 159.807,-164.029 160.641,-174.591 167.045,-171.765"/>
</g>
<!-- 11 -->
<g id="node7" class="node"><title>11</title>
<ellipse fill="none" stroke="black" cx="243" cy="-135" rx="27" ry="32.5269"/>
<text text-anchor="middle" x="243" y="-141.4" font-family="Helvetica,sans-Serif" font-size="14.00">11</text>
<text text-anchor="middle" x="243" y="-122.4" font-family="Helvetica,sans-Serif" font-size="14.00">b:0</text>
</g>
<!-- 9&#45;&gt;11 -->
<g id="edge26" class="edge"><title>9&#45;&gt;11</title>
<path fill="none" stroke="black" d="M206.071,-208.858C211.757,-197.487 218.398,-184.203 224.469,-172.062"/>
<polygon fill="black" stroke="black" points="227.633,-173.56 228.975,-163.05 221.372,-170.429 227.633,-173.56"/>
</g>
<!-- 9&#45;&gt;m9 -->
<!-- m5&#45;&gt;9 -->
<!-- l4&#45;&gt;r4 -->
<!-- m9&#45;&gt;11 -->
<!-- l7&#45;&gt;m7 -->
<!-- m7&#45;&gt;8 -->
</g>
</svg>
