<?xml version="1.0" encoding="UTF-8" standalone="no"?>
<!DOCTYPE svg PUBLIC "-//W3C//DTD SVG 1.1//EN"
 "http://www.w3.org/Graphics/SVG/1.1/DTD/svg11.dtd">
<!-- Generated by graphviz version 2.36.0 (20140111.2315)
 -->
<!-- Title: G Pages: 1 -->
<svg width="422pt" height="332pt"
 viewBox="0.00 0.00 422.00 332.00" xmlns="http://www.w3.org/2000/svg" xmlns:xlink="http://www.w3.org/1999/xlink">
<g id="graph0" class="graph" transform="scale(1 1) rotate(0) translate(4 328)">
<title>G</title>
<polygon fill="white" stroke="none" points="-4,4 -4,-328 418,-328 418,4 -4,4"/>
<!-- 8 -->
<g id="node1" class="node"><title>8</title>
<ellipse fill="none" stroke="green" cx="222" cy="-234" rx="27" ry="18"/>
<text text-anchor="middle" x="222" y="-230.3" font-family="Helvetica,sans-Serif" font-size="14.00">8</text>
</g>
<!-- 6 -->
<g id="node2" class="node"><title>6</title>
<ellipse fill="none" stroke="green" cx="167" cy="-162" rx="27" ry="18"/>
<text text-anchor="middle" x="167" y="-158.3" font-family="Helvetica,sans-Serif" font-size="14.00">6</text>
</g>
<!-- 8&#45;&gt;6 -->
<g id="edge6" class="edge"><title>8&#45;&gt;6</title>
<path fill="none" stroke="black" d="M210.066,-217.811C202.786,-208.546 193.337,-196.52 185.146,-186.094"/>
<polygon fill="black" stroke="black" points="187.841,-183.86 178.911,-178.159 182.337,-188.185 187.841,-183.86"/>
</g>
<!-- m15 -->
<!-- 8&#45;&gt;m15 -->
<!-- m8 -->
<!-- 8&#45;&gt;m8 -->
<!-- 10 -->
<g id="node8" class="node"><title>10</title>
<ellipse fill="none" stroke="black" cx="265" cy="-162" rx="27" ry="18"/>
<text text-anchor="middle" x="265" y="-158.3" font-family="Helvetica,sans-Serif" font-size="14.00">10</text>
</g>
<!-- 8&#45;&gt;10 -->
<g id="edge8" class="edge"><title>8&#45;&gt;10</title>
<path fill="none" stroke="black" d="M231.757,-217.116C237.145,-208.345 243.952,-197.264 250.001,-187.416"/>
<polygon fill="black" stroke="black" points="253.029,-189.174 255.281,-178.821 247.065,-185.51 253.029,-189.174"/>
</g>
<!-- 6&#45;&gt;m8 -->
<!-- 4 -->
<g id="node9" class="node"><title>4</title>
<ellipse fill="none" stroke="black" cx="94" cy="-90" rx="27" ry="18"/>
<text text-anchor="middle" x="94" y="-86.3" font-family="Helvetica,sans-Serif" font-size="14.00">4</text>
</g>
<!-- 6&#45;&gt;4 -->
<g id="edge11" class="edge"><title>6&#45;&gt;4</title>
<path fill="none" stroke="black" d="M152.227,-146.834C141.838,-136.872 127.756,-123.369 116.043,-112.137"/>
<polygon fill="black" stroke="black" points="118.391,-109.539 108.751,-105.144 113.546,-114.592 118.391,-109.539"/>
</g>
<!-- m6 -->
<!-- 6&#45;&gt;m6 -->
<!-- r6 -->
<!-- 6&#45;&gt;r6 -->
<!-- 5 -->
<g id="node3" class="node"><title>5</title>
<ellipse fill="none" stroke="red" cx="125" cy="-18" rx="27" ry="18"/>
<text text-anchor="middle" x="125" y="-14.3" font-family="Helvetica,sans-Serif" font-size="14.00">5</text>
</g>
<!-- 15 -->
<g id="node4" class="node"><title>15</title>
<ellipse fill="none" stroke="black" cx="282" cy="-306" rx="27" ry="18"/>
<text text-anchor="middle" x="282" y="-302.3" font-family="Helvetica,sans-Serif" font-size="14.00">15</text>
</g>
<!-- 15&#45;&gt;8 -->
<g id="edge1" class="edge"><title>15&#45;&gt;8</title>
<path fill="none" stroke="black" d="M268.981,-289.811C260.961,-280.455 250.527,-268.282 241.53,-257.785"/>
<polygon fill="black" stroke="black" points="244.159,-255.474 234.994,-250.159 238.844,-260.03 244.159,-255.474"/>
</g>
<!-- 15&#45;&gt;m15 -->
<!-- 17 -->
<g id="node6" class="node"><title>17</title>
<ellipse fill="none" stroke="black" cx="361" cy="-234" rx="27" ry="18"/>
<text text-anchor="middle" x="361" y="-230.3" font-family="Helvetica,sans-Serif" font-size="14.00">17</text>
</g>
<!-- 15&#45;&gt;17 -->
<g id="edge3" class="edge"><title>15&#45;&gt;17</title>
<path fill="none" stroke="black" d="M297.608,-291.17C309.077,-281.008 324.851,-267.03 337.795,-255.561"/>
<polygon fill="black" stroke="black" points="340.261,-258.053 345.425,-248.801 335.619,-252.813 340.261,-258.053"/>
</g>
<!-- m15&#45;&gt;17 -->
<!-- 16 -->
<g id="node14" class="node"><title>16</title>
<ellipse fill="none" stroke="black" cx="337" cy="-162" rx="27" ry="18"/>
<text text-anchor="middle" x="337" y="-158.3" font-family="Helvetica,sans-Serif" font-size="14.00">16</text>
</g>
<!-- 17&#45;&gt;16 -->
<g id="edge21" class="edge"><title>17&#45;&gt;16</title>
<path fill="none" stroke="black" d="M355.19,-216.055C352.449,-208.059 349.113,-198.331 346.051,-189.4"/>
<polygon fill="black" stroke="black" points="349.31,-188.113 342.756,-179.789 342.689,-190.384 349.31,-188.113"/>
</g>
<!-- m17 -->
<!-- 17&#45;&gt;m17 -->
<!-- l17 -->
<!-- 17&#45;&gt;l17 -->
<!-- m8&#45;&gt;10 -->
<!-- 4&#45;&gt;5 -->
<g id="edge18" class="edge"><title>4&#45;&gt;5</title>
<path fill="none" stroke="black" d="M101.347,-72.411C105.014,-64.1292 109.533,-53.9249 113.635,-44.662"/>
<polygon fill="black" stroke="black" points="116.857,-46.0307 117.706,-35.4699 110.457,-43.1962 116.857,-46.0307"/>
</g>
<!-- 3 -->
<g id="node12" class="node"><title>3</title>
<ellipse fill="none" stroke="black" cx="27" cy="-18" rx="27" ry="18"/>
<text text-anchor="middle" x="27" y="-14.3" font-family="Helvetica,sans-Serif" font-size="14.00">3</text>
</g>
<!-- 4&#45;&gt;3 -->
<g id="edge16" class="edge"><title>4&#45;&gt;3</title>
<path fill="none" stroke="black" d="M80.1176,-74.496C70.8646,-64.8287 58.5286,-51.9403 48.0738,-41.0175"/>
<polygon fill="black" stroke="black" points="50.3077,-38.2896 40.8647,-33.4855 45.2508,-43.1298 50.3077,-38.2896"/>
</g>
<!-- m4 -->
<!-- 4&#45;&gt;m4 -->
<!-- m6&#45;&gt;r6 -->
<!-- 3&#45;&gt;m6 -->
<!-- 3&#45;&gt;m4 -->
<!-- m4&#45;&gt;5 -->
<!-- 16&#45;&gt;m17 -->
<!-- m17&#45;&gt;l17 -->
</g>
</svg>
