<?xml version="1.0" encoding="UTF-8" standalone="no"?>
<!DOCTYPE svg PUBLIC "-//W3C//DTD SVG 1.1//EN"
 "http://www.w3.org/Graphics/SVG/1.1/DTD/svg11.dtd">
<!-- Generated by graphviz version 2.26.3 (20100126.1600)
 -->
<!-- Title: G Pages: 1 -->
<svg width="278pt" height="482pt"
 viewBox="0.00 0.00 278.00 482.00" xmlns="http://www.w3.org/2000/svg" xmlns:xlink="http://www.w3.org/1999/xlink">
<g id="graph1" class="graph" transform="scale(1 1) rotate(0) translate(4 478)">
<title>G</title>
<polygon fill="white" stroke="white" points="-4,5 -4,-478 275,-478 275,5 -4,5"/>
<!-- 5 -->
<g id="node1" class="node"><title>5</title>
<ellipse fill="none" stroke="black" cx="133" cy="-441" rx="27.7881" ry="32.5269"/>
<text text-anchor="middle" x="133" y="-447.4" font-family="Helvetica,sans-Serif" font-size="14.00">5</text>
<text text-anchor="middle" x="133" y="-428.4" font-family="Helvetica,sans-Serif" font-size="14.00">b:&#45;2</text>
</g>
<!-- 4 -->
<g id="node2" class="node"><title>4</title>
<ellipse fill="none" stroke="black" cx="78" cy="-339" rx="27.7881" ry="32.5269"/>
<text text-anchor="middle" x="78" y="-345.4" font-family="Helvetica,sans-Serif" font-size="14.00">4</text>
<text text-anchor="middle" x="78" y="-326.4" font-family="Helvetica,sans-Serif" font-size="14.00">b:&#45;3</text>
</g>
<!-- 5&#45;&gt;4 -->
<g id="edge2" class="edge"><title>5&#45;&gt;4</title>
<path fill="none" stroke="black" d="M118.116,-413.397C111.819,-401.718 104.394,-387.949 97.6554,-375.452"/>
<polygon fill="black" stroke="black" points="100.723,-373.766 92.8957,-366.625 94.5612,-377.088 100.723,-373.766"/>
</g>
<!-- 8 -->
<g id="node6" class="node"><title>8</title>
<ellipse fill="none" stroke="black" cx="192" cy="-339" rx="27" ry="32.5269"/>
<text text-anchor="middle" x="192" y="-345.4" font-family="Helvetica,sans-Serif" font-size="14.00">8</text>
<text text-anchor="middle" x="192" y="-326.4" font-family="Helvetica,sans-Serif" font-size="14.00">b:0</text>
</g>
<!-- 5&#45;&gt;8 -->
<g id="edge6" class="edge"><title>5&#45;&gt;8</title>
<path fill="none" stroke="black" d="M148.656,-413.934C155.646,-401.849 163.977,-387.447 171.459,-374.512"/>
<polygon fill="black" stroke="black" points="174.498,-376.248 176.476,-365.839 168.439,-372.743 174.498,-376.248"/>
</g>
<!-- m5 -->
<!-- 5&#45;&gt;m5 -->
<!-- 1 -->
<g id="node3" class="node"><title>1</title>
<ellipse fill="none" stroke="black" cx="27" cy="-237" rx="27" ry="32.5269"/>
<text text-anchor="middle" x="27" y="-243.4" font-family="Helvetica,sans-Serif" font-size="14.00">1</text>
<text text-anchor="middle" x="27" y="-224.4" font-family="Helvetica,sans-Serif" font-size="14.00">b:2</text>
</g>
<!-- 4&#45;&gt;1 -->
<g id="edge12" class="edge"><title>4&#45;&gt;1</title>
<path fill="none" stroke="black" d="M63.929,-310.858C58.2433,-299.487 51.6017,-286.203 45.5309,-274.062"/>
<polygon fill="black" stroke="black" points="48.6277,-272.429 41.0251,-265.05 42.3667,-275.56 48.6277,-272.429"/>
</g>
<!-- 4&#45;&gt;m5 -->
<!-- l4 -->
<!-- 4&#45;&gt;l4 -->
<!-- r4 -->
<!-- 4&#45;&gt;r4 -->
<!-- 3 -->
<g id="node4" class="node"><title>3</title>
<ellipse fill="none" stroke="black" cx="76" cy="-135" rx="27.7881" ry="32.5269"/>
<text text-anchor="middle" x="76" y="-141.4" font-family="Helvetica,sans-Serif" font-size="14.00">3</text>
<text text-anchor="middle" x="76" y="-122.4" font-family="Helvetica,sans-Serif" font-size="14.00">b:&#45;1</text>
</g>
<!-- 1&#45;&gt;3 -->
<g id="edge26" class="edge"><title>1&#45;&gt;3</title>
<path fill="none" stroke="black" d="M40.5192,-208.858C45.8837,-197.691 52.1338,-184.681 57.8806,-172.718"/>
<polygon fill="black" stroke="black" points="61.1795,-173.934 62.3548,-163.404 54.8697,-170.902 61.1795,-173.934"/>
</g>
<!-- 1&#45;&gt;l4 -->
<!-- l1 -->
<!-- 1&#45;&gt;l1 -->
<!-- m1 -->
<!-- 1&#45;&gt;m1 -->
<!-- 2 -->
<g id="node5" class="node"><title>2</title>
<ellipse fill="none" stroke="black" cx="28" cy="-33" rx="27" ry="32.5269"/>
<text text-anchor="middle" x="28" y="-39.4" font-family="Helvetica,sans-Serif" font-size="14.00">2</text>
<text text-anchor="middle" x="28" y="-20.4" font-family="Helvetica,sans-Serif" font-size="14.00">b:0</text>
</g>
<!-- 3&#45;&gt;2 -->
<g id="edge32" class="edge"><title>3&#45;&gt;2</title>
<path fill="none" stroke="black" d="M62.5016,-106.316C57.2942,-95.2501 51.2651,-82.4384 45.7178,-70.6503"/>
<polygon fill="black" stroke="black" points="48.822,-69.0267 41.3971,-61.4688 42.4883,-72.0073 48.822,-69.0267"/>
</g>
<!-- l3 -->
<!-- 3&#45;&gt;l3 -->
<!-- r3 -->
<!-- 3&#45;&gt;r3 -->
<!-- 2&#45;&gt;l3 -->
<!-- 7 -->
<g id="node7" class="node"><title>7</title>
<ellipse fill="none" stroke="black" cx="147" cy="-237" rx="27" ry="32.5269"/>
<text text-anchor="middle" x="147" y="-243.4" font-family="Helvetica,sans-Serif" font-size="14.00">7</text>
<text text-anchor="middle" x="147" y="-224.4" font-family="Helvetica,sans-Serif" font-size="14.00">b:0</text>
</g>
<!-- 8&#45;&gt;7 -->
<g id="edge42" class="edge"><title>8&#45;&gt;7</title>
<path fill="none" stroke="black" d="M179.225,-310.044C174.475,-299.276 169.009,-286.886 163.943,-275.404"/>
<polygon fill="black" stroke="black" points="167.045,-273.765 159.807,-266.029 160.641,-276.591 167.045,-273.765"/>
</g>
<!-- 11 -->
<g id="node8" class="node"><title>11</title>
<ellipse fill="none" stroke="black" cx="243" cy="-237" rx="27" ry="32.5269"/>
<text text-anchor="middle" x="243" y="-243.4" font-family="Helvetica,sans-Serif" font-size="14.00">11</text>
<text text-anchor="middle" x="243" y="-224.4" font-family="Helvetica,sans-Serif" font-size="14.00">b:0</text>
</g>
<!-- 8&#45;&gt;11 -->
<g id="edge46" class="edge"><title>8&#45;&gt;11</title>
<path fill="none" stroke="black" d="M205.936,-311.128C211.623,-299.753 218.285,-286.431 224.379,-274.242"/>
<polygon fill="black" stroke="black" points="227.562,-275.702 228.904,-265.193 221.301,-272.572 227.562,-275.702"/>
</g>
<!-- m8 -->
<!-- 8&#45;&gt;m8 -->
<!-- 7&#45;&gt;m8 -->
<!-- m5&#45;&gt;8 -->
<!-- l4&#45;&gt;r4 -->
<!-- l1&#45;&gt;m1 -->
<!-- m1&#45;&gt;3 -->
<!-- l3&#45;&gt;r3 -->
<!-- m8&#45;&gt;11 -->
</g>
</svg>
