<?xml version="1.0" encoding="UTF-8" standalone="no"?>
<!DOCTYPE svg PUBLIC "-//W3C//DTD SVG 1.1//EN"
 "http://www.w3.org/Graphics/SVG/1.1/DTD/svg11.dtd">
<!-- Generated by graphviz version 2.36.0 (20140111.2315)
 -->
<!-- Title: G Pages: 1 -->
<svg width="166pt" height="254pt"
 viewBox="0.00 0.00 166.00 254.00" xmlns="http://www.w3.org/2000/svg" xmlns:xlink="http://www.w3.org/1999/xlink">
<g id="graph0" class="graph" transform="scale(1 1) rotate(0) translate(4 250)">
<title>G</title>
<polygon fill="white" stroke="none" points="-4,4 -4,-250 162,-250 162,4 -4,4"/>
<!-- 3 -->
<g id="node1" class="node"><title>3</title>
<ellipse fill="none" stroke="black" cx="129" cy="-217" rx="28.5" ry="29"/>
<text text-anchor="middle" x="129" y="-220.8" font-family="Helvetica,sans-Serif" font-size="14.00">3</text>
<text text-anchor="middle" x="129" y="-205.8" font-family="Helvetica,sans-Serif" font-size="14.00">b:&#45;2</text>
</g>
<!-- 2 -->
<g id="node2" class="node"><title>2</title>
<ellipse fill="none" stroke="black" cx="79" cy="-123" rx="28.5" ry="29"/>
<text text-anchor="middle" x="79" y="-126.8" font-family="Helvetica,sans-Serif" font-size="14.00">2</text>
<text text-anchor="middle" x="79" y="-111.8" font-family="Helvetica,sans-Serif" font-size="14.00">b:&#45;1</text>
</g>
<!-- 3&#45;&gt;2 -->
<g id="edge1" class="edge"><title>3&#45;&gt;2</title>
<path fill="none" stroke="black" d="M115.601,-191.346C109.996,-181.033 103.392,-168.882 97.3477,-157.76"/>
<polygon fill="black" stroke="black" points="100.286,-155.837 92.4361,-148.722 94.1361,-159.18 100.286,-155.837"/>
</g>
<!-- m3 -->
<!-- 3&#45;&gt;m3 -->
<!-- r3 -->
<!-- 3&#45;&gt;r3 -->
<!-- 1 -->
<g id="node3" class="node"><title>1</title>
<ellipse fill="none" stroke="black" cx="29" cy="-29" rx="28.5" ry="29"/>
<text text-anchor="middle" x="29" y="-32.8" font-family="Helvetica,sans-Serif" font-size="14.00">1</text>
<text text-anchor="middle" x="29" y="-17.8" font-family="Helvetica,sans-Serif" font-size="14.00">b: 0</text>
</g>
<!-- 2&#45;&gt;1 -->
<g id="edge6" class="edge"><title>2&#45;&gt;1</title>
<path fill="none" stroke="black" d="M65.6009,-97.3457C59.9963,-87.0332 53.3922,-74.8817 47.3477,-63.7597"/>
<polygon fill="black" stroke="black" points="50.2864,-61.8373 42.4361,-54.7224 44.1361,-65.1799 50.2864,-61.8373"/>
</g>
<!-- 2&#45;&gt;m3 -->
<!-- l2 -->
<!-- 2&#45;&gt;l2 -->
<!-- r2 -->
<!-- 2&#45;&gt;r2 -->
<!-- 1&#45;&gt;l2 -->
<!-- m3&#45;&gt;r3 -->
<!-- l2&#45;&gt;r2 -->
</g>
</svg>
