<?xml version="1.0" encoding="UTF-8" standalone="no"?>
<!DOCTYPE svg PUBLIC "-//W3C//DTD SVG 1.1//EN"
 "http://www.w3.org/Graphics/SVG/1.1/DTD/svg11.dtd">
<!-- Generated by graphviz version 2.26.3 (20100126.1600)
 -->
<!-- Title: G Pages: 1 -->
<svg width="270pt" height="354pt"
 viewBox="0.00 0.00 270.00 354.00" xmlns="http://www.w3.org/2000/svg" xmlns:xlink="http://www.w3.org/1999/xlink">
<g id="graph1" class="graph" transform="scale(1 1) rotate(0) translate(4 350)">
<title>G</title>
<polygon fill="white" stroke="white" points="-4,5 -4,-350 267,-350 267,5 -4,5"/>
<!-- X -->
<g id="node1" class="node"><title>X</title>
<polygon fill="none" stroke="black" points="43,-272 0.103806,-203 85.8962,-203 43,-272"/>
<text text-anchor="middle" x="43" y="-232.4" font-family="Helvetica,sans-Serif" font-size="14.00">X</text>
<text text-anchor="middle" x="43" y="-213.4" font-family="Helvetica,sans-Serif" font-size="14.00">(h)</text>
</g>
<!-- mb -->
<!-- X&#45;&gt;mb -->
<!-- Y -->
<g id="node2" class="node"><title>Y</title>
<polygon fill="none" stroke="black" points="83,-144 31.7927,-36 134.207,-36 83,-144"/>
<text text-anchor="middle" x="83" y="-78.4" font-family="Helvetica,sans-Serif" font-size="14.00">Y</text>
<text text-anchor="middle" x="83" y="-59.4" font-family="Helvetica,sans-Serif" font-size="14.00">(h+1)</text>
</g>
<!-- ma -->
<!-- Y&#45;&gt;ma -->
<!-- Z -->
<g id="node3" class="node"><title>Z</title>
<polygon fill="none" stroke="black" points="219,-118 176.104,-49 261.896,-49 219,-118"/>
<text text-anchor="middle" x="219" y="-78.4" font-family="Helvetica,sans-Serif" font-size="14.00">Z</text>
<text text-anchor="middle" x="219" y="-59.4" font-family="Helvetica,sans-Serif" font-size="14.00">(h)</text>
</g>
<!-- b -->
<g id="node4" class="node"><title>b</title>
<ellipse fill="none" stroke="black" cx="107" cy="-327" rx="27" ry="19.0919"/>
<text text-anchor="middle" x="107" y="-323.9" font-family="Helvetica,sans-Serif" font-size="14.00">b</text>
</g>
<!-- b&#45;&gt;X -->
<g id="edge2" class="edge"><title>b&#45;&gt;X:n</title>
<path fill="none" stroke="black" d="M83.1688,-317.823C67.958,-310.515 50.1081,-298.761 44.6606,-282.264"/>
<polygon fill="black" stroke="black" points="48.0523,-281.313 43,-272 41.1422,-282.431 48.0523,-281.313"/>
</g>
<!-- b&#45;&gt;mb -->
<!-- a -->
<g id="node9" class="node"><title>a</title>
<ellipse fill="none" stroke="black" cx="155" cy="-226" rx="27" ry="19.0919"/>
<text text-anchor="middle" x="155" y="-222.9" font-family="Helvetica,sans-Serif" font-size="14.00">a</text>
</g>
<!-- b&#45;&gt;a -->
<g id="edge6" class="edge"><title>b&#45;&gt;a</title>
<path fill="none" stroke="black" d="M115.581,-308.943C122.908,-293.528 133.558,-271.117 141.942,-253.476"/>
<polygon fill="black" stroke="black" points="145.2,-254.775 146.331,-244.241 138.877,-251.771 145.2,-254.775"/>
</g>
<!-- mb&#45;&gt;a -->
<!-- a&#45;&gt;Y -->
<g id="edge12" class="edge"><title>a&#45;&gt;Y:n</title>
<path fill="none" stroke="black" d="M142.477,-208.998C135.762,-200.144 127.202,-189.263 119,-180 106.695,-166.103 90.3531,-166.007 84.8774,-153.931"/>
<polygon fill="black" stroke="black" points="88.2967,-153.176 83,-144 81.4185,-154.476 88.2967,-153.176"/>
</g>
<!-- a&#45;&gt;Z -->
<g id="edge16" class="edge"><title>a&#45;&gt;Z:n</title>
<path fill="none" stroke="black" d="M171.482,-210.514C188.741,-192.696 213.946,-161.548 218.336,-127.996"/>
<polygon fill="black" stroke="black" points="221.83,-128.21 219,-118 214.845,-127.746 221.83,-128.21"/>
</g>
<!-- a&#45;&gt;ma -->
<!-- ma&#45;&gt;Z -->
</g>
</svg>
