<?xml version="1.0" encoding="UTF-8" standalone="no"?>
<!DOCTYPE svg PUBLIC "-//W3C//DTD SVG 1.1//EN"
 "http://www.w3.org/Graphics/SVG/1.1/DTD/svg11.dtd">
<!-- Generated by graphviz version 2.26.3 (20100126.1600)
 -->
<!-- Title: G Pages: 1 -->
<svg width="166pt" height="278pt"
 viewBox="0.00 0.00 166.00 278.00" xmlns="http://www.w3.org/2000/svg" xmlns:xlink="http://www.w3.org/1999/xlink">
<g id="graph1" class="graph" transform="scale(1 1) rotate(0) translate(4 274)">
<title>G</title>
<polygon fill="white" stroke="white" points="-4,5 -4,-274 163,-274 163,5 -4,5"/>
<!-- 3 -->
<g id="node1" class="node"><title>3</title>
<ellipse fill="none" stroke="red" cx="131" cy="-33" rx="27" ry="32.5269"/>
<text text-anchor="middle" x="131" y="-39.4" font-family="Helvetica,sans-Serif" font-size="14.00" fill="red">3</text>
<text text-anchor="middle" x="131" y="-20.4" font-family="Helvetica,sans-Serif" font-size="14.00" fill="red">b:0</text>
</g>
<!-- 2 -->
<g id="node2" class="node"><title>2</title>
<ellipse fill="none" stroke="green" cx="83" cy="-135" rx="31.1127" ry="32.5269"/>
<text text-anchor="middle" x="83" y="-141.4" font-family="Helvetica,sans-Serif" font-size="14.00" fill="green">2</text>
<text text-anchor="middle" x="83" y="-122.4" font-family="Helvetica,sans-Serif" font-size="14.00" fill="green">b:+1</text>
</g>
<!-- 2&#45;&gt;3 -->
<g id="edge16" class="edge"><title>2&#45;&gt;3</title>
<path fill="none" stroke="black" d="M96.7549,-105.771C101.914,-94.8084 107.85,-82.1938 113.316,-70.579"/>
<polygon fill="black" stroke="black" points="116.483,-72.0677 117.574,-61.5292 110.15,-69.0871 116.483,-72.0677"/>
</g>
<!-- l2 -->
<!-- 2&#45;&gt;l2 -->
<!-- m2 -->
<!-- 2&#45;&gt;m2 -->
<!-- 1 -->
<g id="node3" class="node"><title>1</title>
<ellipse fill="none" stroke="blue" cx="31" cy="-237" rx="31.1127" ry="32.5269"/>
<text text-anchor="middle" x="31" y="-243.4" font-family="Helvetica,sans-Serif" font-size="14.00" fill="blue">1</text>
<text text-anchor="middle" x="31" y="-224.4" font-family="Helvetica,sans-Serif" font-size="14.00" fill="blue">b:+2</text>
</g>
<!-- 1&#45;&gt;2 -->
<g id="edge6" class="edge"><title>1&#45;&gt;2</title>
<path fill="none" stroke="black" d="M45.6233,-208.316C51.2172,-197.343 57.6864,-184.654 63.6541,-172.948"/>
<polygon fill="black" stroke="black" points="66.8826,-174.321 68.3063,-163.822 60.6462,-171.142 66.8826,-174.321"/>
</g>
<!-- l1 -->
<!-- 1&#45;&gt;l1 -->
<!-- m1 -->
<!-- 1&#45;&gt;m1 -->
<!-- l1&#45;&gt;m1 -->
<!-- m1&#45;&gt;2 -->
<!-- l2&#45;&gt;m2 -->
<!-- m2&#45;&gt;3 -->
</g>
</svg>
