<?xml version="1.0" encoding="UTF-8" standalone="no"?>
<!DOCTYPE svg PUBLIC "-//W3C//DTD SVG 1.1//EN"
 "http://www.w3.org/Graphics/SVG/1.1/DTD/svg11.dtd">
<!-- Generated by graphviz version 2.26.3 (20100126.1600)
 -->
<!-- Title: G Pages: 1 -->
<svg width="326pt" height="342pt"
 viewBox="0.00 0.00 326.00 342.00" xmlns="http://www.w3.org/2000/svg" xmlns:xlink="http://www.w3.org/1999/xlink">
<g id="graph1" class="graph" transform="scale(1 1) rotate(0) translate(4 338)">
<title>G</title>
<polygon fill="white" stroke="white" points="-4,5 -4,-338 323,-338 323,5 -4,5"/>
<!-- 4 -->
<g id="node1" class="node"><title>4</title>
<ellipse fill="none" stroke="blue" cx="75" cy="-167" rx="27" ry="19.0919"/>
<text text-anchor="middle" x="75" y="-163.9" font-family="Helvetica,sans-Serif" font-size="14.00">4</text>
</g>
<!-- 6 -->
<g id="node2" class="node"><title>6</title>
<ellipse fill="none" stroke="blue" cx="123" cy="-93" rx="27" ry="19.0919"/>
<text text-anchor="middle" x="123" y="-89.9" font-family="Helvetica,sans-Serif" font-size="14.00">6</text>
</g>
<!-- 4&#45;&gt;6 -->
<g id="edge26" class="edge"><title>4&#45;&gt;6</title>
<path fill="none" stroke="black" d="M86.3753,-149.463C92.2934,-140.339 99.6431,-129.009 106.202,-118.897"/>
<polygon fill="black" stroke="black" points="109.201,-120.705 111.706,-110.411 103.328,-116.896 109.201,-120.705"/>
</g>
<!-- m8 -->
<!-- 4&#45;&gt;m8 -->
<!-- 3 -->
<g id="node20" class="node"><title>3</title>
<ellipse fill="none" stroke="black" cx="27" cy="-93" rx="27" ry="19.0919"/>
<text text-anchor="middle" x="27" y="-89.9" font-family="Helvetica,sans-Serif" font-size="14.00">3</text>
</g>
<!-- 4&#45;&gt;3 -->
<g id="edge22" class="edge"><title>4&#45;&gt;3</title>
<path fill="none" stroke="black" d="M63.6247,-149.463C57.7066,-140.339 50.3569,-129.009 43.7981,-118.897"/>
<polygon fill="black" stroke="black" points="46.672,-116.896 38.2937,-110.411 40.7993,-120.705 46.672,-116.896"/>
</g>
<!-- m4 -->
<!-- 4&#45;&gt;m4 -->
<!-- 5 -->
<g id="node26" class="node"><title>5</title>
<ellipse fill="none" stroke="red" cx="75" cy="-19" rx="27" ry="19.0919"/>
<text text-anchor="middle" x="75" y="-15.9" font-family="Helvetica,sans-Serif" font-size="14.00">5</text>
</g>
<!-- 6&#45;&gt;5 -->
<g id="edge32" class="edge"><title>6&#45;&gt;5</title>
<path fill="none" stroke="red" d="M111.625,-75.463C105.707,-66.3394 98.3569,-55.0086 91.7981,-44.897"/>
<polygon fill="red" stroke="red" points="94.672,-42.896 86.2937,-36.4111 88.7993,-46.7054 94.672,-42.896"/>
</g>
<!-- m6 -->
<!-- 6&#45;&gt;m6 -->
<!-- r6 -->
<!-- 6&#45;&gt;r6 -->
<!-- 15 -->
<g id="node3" class="node"><title>15</title>
<ellipse fill="none" stroke="black" cx="189" cy="-315" rx="27" ry="19.0919"/>
<text text-anchor="middle" x="189" y="-311.9" font-family="Helvetica,sans-Serif" font-size="14.00">15</text>
</g>
<!-- 8 -->
<g id="node5" class="node"><title>8</title>
<ellipse fill="none" stroke="black" cx="129" cy="-241" rx="27" ry="19.0919"/>
<text text-anchor="middle" x="129" y="-237.9" font-family="Helvetica,sans-Serif" font-size="14.00">8</text>
</g>
<!-- 15&#45;&gt;8 -->
<g id="edge2" class="edge"><title>15&#45;&gt;8</title>
<path fill="none" stroke="black" d="M175.385,-298.208C167.56,-288.558 157.59,-276.261 148.9,-265.544"/>
<polygon fill="black" stroke="black" points="151.578,-263.289 142.561,-257.725 146.14,-267.697 151.578,-263.289"/>
</g>
<!-- m15 -->
<!-- 15&#45;&gt;m15 -->
<!-- 17 -->
<g id="node9" class="node"><title>17</title>
<ellipse fill="none" stroke="black" cx="267" cy="-241" rx="27" ry="19.0919"/>
<text text-anchor="middle" x="267" y="-237.9" font-family="Helvetica,sans-Serif" font-size="14.00">17</text>
</g>
<!-- 15&#45;&gt;17 -->
<g id="edge6" class="edge"><title>15&#45;&gt;17</title>
<path fill="none" stroke="black" d="M205.162,-299.667C216.248,-289.15 231.135,-275.026 243.524,-263.272"/>
<polygon fill="black" stroke="black" points="246.013,-265.735 250.859,-256.313 241.195,-260.657 246.013,-265.735"/>
</g>
<!-- 8&#45;&gt;4 -->
<g id="edge12" class="edge"><title>8&#45;&gt;4</title>
<path fill="none" stroke="black" d="M116.476,-223.837C109.66,-214.497 101.097,-202.763 93.5247,-192.386"/>
<polygon fill="black" stroke="black" points="96.1785,-190.085 87.4565,-184.07 90.5239,-194.211 96.1785,-190.085"/>
</g>
<!-- 8&#45;&gt;m15 -->
<!-- 8&#45;&gt;m8 -->
<!-- 10 -->
<g id="node16" class="node"><title>10</title>
<ellipse fill="none" stroke="black" cx="171" cy="-167" rx="27" ry="19.0919"/>
<text text-anchor="middle" x="171" y="-163.9" font-family="Helvetica,sans-Serif" font-size="14.00">10</text>
</g>
<!-- 8&#45;&gt;10 -->
<g id="edge16" class="edge"><title>8&#45;&gt;10</title>
<path fill="none" stroke="black" d="M139.167,-223.087C144.171,-214.27 150.306,-203.462 155.849,-193.695"/>
<polygon fill="black" stroke="black" points="159.034,-195.173 160.927,-184.748 152.947,-191.718 159.034,-195.173"/>
</g>
<!-- m15&#45;&gt;17 -->
<!-- 16 -->
<g id="node35" class="node"><title>16</title>
<ellipse fill="none" stroke="black" cx="243" cy="-167" rx="27" ry="19.0919"/>
<text text-anchor="middle" x="243" y="-163.9" font-family="Helvetica,sans-Serif" font-size="14.00">16</text>
</g>
<!-- 17&#45;&gt;16 -->
<g id="edge42" class="edge"><title>17&#45;&gt;16</title>
<path fill="none" stroke="black" d="M260.944,-222.327C258.3,-214.176 255.142,-204.438 252.217,-195.42"/>
<polygon fill="black" stroke="black" points="255.469,-194.1 249.054,-185.667 248.81,-196.259 255.469,-194.1"/>
</g>
<!-- m17 -->
<!-- 17&#45;&gt;m17 -->
<!-- l17 -->
<!-- 17&#45;&gt;l17 -->
<!-- m8&#45;&gt;10 -->
<!-- 3&#45;&gt;m4 -->
<!-- m4&#45;&gt;6 -->
<!-- 5&#45;&gt;m6 -->
<!-- m6&#45;&gt;r6 -->
<!-- 16&#45;&gt;m17 -->
<!-- m17&#45;&gt;l17 -->
</g>
</svg>
