<?xml version="1.0" encoding="UTF-8" standalone="no"?>
<!DOCTYPE svg PUBLIC "-//W3C//DTD SVG 1.1//EN"
 "http://www.w3.org/Graphics/SVG/1.1/DTD/svg11.dtd">
<!-- Generated by graphviz version 2.26.3 (20100126.1600)
 -->
<!-- Title: G Pages: 1 -->
<svg width="436pt" height="300pt"
 viewBox="0.00 0.00 436.00 300.00" xmlns="http://www.w3.org/2000/svg" xmlns:xlink="http://www.w3.org/1999/xlink">
<g id="graph1" class="graph" transform="scale(1 1) rotate(0) translate(4 296)">
<title>G</title>
<polygon fill="white" stroke="white" points="-4,5 -4,-296 433,-296 433,5 -4,5"/>
<!-- W -->
<g id="node1" class="node"><title>W</title>
<polygon fill="none" stroke="black" points="35,-144 0.175363,-36 69.8246,-36 35,-144"/>
<text text-anchor="middle" x="35" y="-78.4" font-family="Helvetica,sans-Serif" font-size="14.00">W</text>
<text text-anchor="middle" x="35" y="-59.4" font-family="Helvetica,sans-Serif" font-size="14.00">(h)</text>
</g>
<!-- mb -->
<!-- W&#45;&gt;mb -->
<!-- X -->
<g id="node2" class="node"><title>X</title>
<polygon fill="none" stroke="black" points="147,-144 112.175,-36 181.825,-36 147,-144"/>
<text text-anchor="middle" x="147" y="-78.4" font-family="Helvetica,sans-Serif" font-size="14.00">X</text>
<text text-anchor="middle" x="147" y="-59.4" font-family="Helvetica,sans-Serif" font-size="14.00">(h)</text>
</g>
<!-- Y -->
<g id="node3" class="node"><title>Y</title>
<polygon fill="none" stroke="black" points="258,-118 200.005,-49 315.995,-49 258,-118"/>
<text text-anchor="middle" x="258" y="-78.4" font-family="Helvetica,sans-Serif" font-size="14.00">Y</text>
<text text-anchor="middle" x="258" y="-59.4" font-family="Helvetica,sans-Serif" font-size="14.00">(h&#45;1)</text>
</g>
<!-- ma -->
<!-- Y&#45;&gt;ma -->
<!-- Z -->
<g id="node4" class="node"><title>Z</title>
<polygon fill="none" stroke="black" points="393,-144 358.175,-36 427.825,-36 393,-144"/>
<text text-anchor="middle" x="393" y="-78.4" font-family="Helvetica,sans-Serif" font-size="14.00">Z</text>
<text text-anchor="middle" x="393" y="-59.4" font-family="Helvetica,sans-Serif" font-size="14.00">(h)</text>
</g>
<!-- c -->
<g id="node5" class="node"><title>c</title>
<ellipse fill="none" stroke="black" cx="192" cy="-273" rx="27" ry="19.0919"/>
<text text-anchor="middle" x="192" y="-269.9" font-family="Helvetica,sans-Serif" font-size="14.00">c</text>
</g>
<!-- b -->
<g id="node7" class="node"><title>b</title>
<ellipse fill="none" stroke="black" cx="109" cy="-199" rx="27" ry="19.0919"/>
<text text-anchor="middle" x="109" y="-195.9" font-family="Helvetica,sans-Serif" font-size="14.00">b</text>
</g>
<!-- c&#45;&gt;b -->
<g id="edge2" class="edge"><title>c&#45;&gt;b</title>
<path fill="none" stroke="black" d="M175.204,-258.025C163.166,-247.293 146.769,-232.673 133.305,-220.669"/>
<polygon fill="black" stroke="black" points="135.565,-217.995 125.771,-213.953 130.906,-223.22 135.565,-217.995"/>
</g>
<!-- mc -->
<!-- c&#45;&gt;mc -->
<!-- a -->
<g id="node12" class="node"><title>a</title>
<ellipse fill="none" stroke="black" cx="297" cy="-199" rx="27" ry="19.0919"/>
<text text-anchor="middle" x="297" y="-195.9" font-family="Helvetica,sans-Serif" font-size="14.00">a</text>
</g>
<!-- c&#45;&gt;a -->
<g id="edge6" class="edge"><title>c&#45;&gt;a</title>
<path fill="none" stroke="black" d="M211.259,-259.427C227.54,-247.953 251.067,-231.372 269.359,-218.48"/>
<polygon fill="black" stroke="black" points="271.706,-221.108 277.863,-212.487 267.673,-215.387 271.706,-221.108"/>
</g>
<!-- b&#45;&gt;W -->
<g id="edge12" class="edge"><title>b&#45;&gt;W:n</title>
<path fill="none" stroke="black" d="M83.947,-191.81C65.4979,-185.04 42.6096,-173.039 36.5371,-153.949"/>
<polygon fill="black" stroke="black" points="39.9859,-153.348 35,-144 33.068,-154.417 39.9859,-153.348"/>
</g>
<!-- b&#45;&gt;X -->
<g id="edge16" class="edge"><title>b&#45;&gt;X:n</title>
<path fill="none" stroke="black" d="M126.665,-184.028C134.418,-176.11 142.468,-165.625 145.619,-154.001"/>
<polygon fill="black" stroke="black" points="149.1,-154.385 147,-144 142.165,-153.427 149.1,-154.385"/>
</g>
<!-- b&#45;&gt;mc -->
<!-- b&#45;&gt;mb -->
<!-- ma&#45;&gt;Z -->
<!-- mc&#45;&gt;a -->
<!-- a&#45;&gt;Y -->
<g id="edge22" class="edge"><title>a&#45;&gt;Y:n</title>
<path fill="none" stroke="black" d="M283.578,-182.421C273.884,-168.982 261.961,-148.931 258.8,-128.204"/>
<polygon fill="black" stroke="black" points="262.271,-127.696 258,-118 255.292,-128.243 262.271,-127.696"/>
</g>
<!-- a&#45;&gt;Z -->
<g id="edge26" class="edge"><title>a&#45;&gt;Z:n</title>
<path fill="none" stroke="black" d="M323.741,-195.311C348.929,-190.344 383.904,-179.063 391.505,-154.206"/>
<polygon fill="black" stroke="black" points="395.013,-154.402 393,-144 388.087,-153.387 395.013,-154.402"/>
</g>
<!-- a&#45;&gt;ma -->
<!-- mb&#45;&gt;X -->
</g>
</svg>
