<?xml version="1.0" encoding="UTF-8" standalone="no"?>
<!DOCTYPE svg PUBLIC "-//W3C//DTD SVG 1.1//EN"
 "http://www.w3.org/Graphics/SVG/1.1/DTD/svg11.dtd">
<!-- Generated by graphviz version 2.26.3 (20100126.1600)
 -->
<!-- Title: G Pages: 1 -->
<svg width="286pt" height="354pt"
 viewBox="0.00 0.00 286.00 354.00" xmlns="http://www.w3.org/2000/svg" xmlns:xlink="http://www.w3.org/1999/xlink">
<g id="graph1" class="graph" transform="scale(1 1) rotate(0) translate(4 350)">
<title>G</title>
<polygon fill="white" stroke="white" points="-4,5 -4,-350 283,-350 283,5 -4,5"/>
<!-- X -->
<g id="node1" class="node"><title>X</title>
<polygon fill="none" stroke="black" points="51,-144 -0.207277,-36 102.207,-36 51,-144"/>
<text text-anchor="middle" x="51" y="-78.4" font-family="Helvetica,sans-Serif" font-size="14.00">X</text>
<text text-anchor="middle" x="51" y="-59.4" font-family="Helvetica,sans-Serif" font-size="14.00">(h+1)</text>
</g>
<!-- mb -->
<!-- X&#45;&gt;mb -->
<!-- Y -->
<g id="node2" class="node"><title>Y</title>
<polygon fill="none" stroke="black" points="187,-118 144.104,-49 229.896,-49 187,-118"/>
<text text-anchor="middle" x="187" y="-78.4" font-family="Helvetica,sans-Serif" font-size="14.00">Y</text>
<text text-anchor="middle" x="187" y="-59.4" font-family="Helvetica,sans-Serif" font-size="14.00">(h)</text>
</g>
<!-- Z -->
<g id="node3" class="node"><title>Z</title>
<polygon fill="none" stroke="black" points="235,-272 192.104,-203 277.896,-203 235,-272"/>
<text text-anchor="middle" x="235" y="-232.4" font-family="Helvetica,sans-Serif" font-size="14.00">Z</text>
<text text-anchor="middle" x="235" y="-213.4" font-family="Helvetica,sans-Serif" font-size="14.00">(h)</text>
</g>
<!-- a -->
<g id="node4" class="node"><title>a</title>
<ellipse fill="none" stroke="black" cx="171" cy="-327" rx="27" ry="19.0919"/>
<text text-anchor="middle" x="171" y="-323.9" font-family="Helvetica,sans-Serif" font-size="14.00">a</text>
</g>
<!-- a&#45;&gt;Z -->
<g id="edge6" class="edge"><title>a&#45;&gt;Z:n</title>
<path fill="none" stroke="black" d="M194.831,-317.823C210.042,-310.515 227.892,-298.761 233.339,-282.264"/>
<polygon fill="black" stroke="black" points="236.858,-282.431 235,-272 229.948,-281.313 236.858,-282.431"/>
</g>
<!-- b -->
<g id="node6" class="node"><title>b</title>
<ellipse fill="none" stroke="black" cx="123" cy="-226" rx="27" ry="19.0919"/>
<text text-anchor="middle" x="123" y="-222.9" font-family="Helvetica,sans-Serif" font-size="14.00">b</text>
</g>
<!-- a&#45;&gt;b -->
<g id="edge2" class="edge"><title>a&#45;&gt;b</title>
<path fill="none" stroke="black" d="M162.419,-308.943C155.092,-293.528 144.442,-271.117 136.058,-253.476"/>
<polygon fill="black" stroke="black" points="139.123,-251.771 131.669,-244.241 132.8,-254.775 139.123,-251.771"/>
</g>
<!-- ma -->
<!-- a&#45;&gt;ma -->
<!-- b&#45;&gt;X -->
<g id="edge12" class="edge"><title>b&#45;&gt;X:n</title>
<path fill="none" stroke="black" d="M101.787,-213.879C82.8718,-201.504 57.3644,-180.388 52.0109,-153.968"/>
<polygon fill="black" stroke="black" points="55.4913,-153.596 51,-144 48.527,-154.302 55.4913,-153.596"/>
</g>
<!-- b&#45;&gt;Y -->
<g id="edge16" class="edge"><title>b&#45;&gt;Y:n</title>
<path fill="none" stroke="black" d="M135.951,-209.116C151.949,-187.675 177.935,-150.752 185.112,-128.11"/>
<polygon fill="black" stroke="black" points="188.604,-128.473 187,-118 181.723,-127.187 188.604,-128.473"/>
</g>
<!-- b&#45;&gt;ma -->
<!-- b&#45;&gt;mb -->
<!-- ma&#45;&gt;Z -->
<!-- mb&#45;&gt;Y -->
</g>
</svg>
