<?xml version="1.0" encoding="UTF-8" standalone="no"?>
<!DOCTYPE svg PUBLIC "-//W3C//DTD SVG 1.1//EN"
 "http://www.w3.org/Graphics/SVG/1.1/DTD/svg11.dtd">
<!-- Generated by graphviz version 2.36.0 (20140111.2315)
 -->
<!-- Title: G Pages: 1 -->
<svg width="352pt" height="350pt"
 viewBox="0.00 0.00 352.00 350.00" xmlns="http://www.w3.org/2000/svg" xmlns:xlink="http://www.w3.org/1999/xlink">
<g id="graph0" class="graph" transform="scale(1 1) rotate(0) translate(4 346)">
<title>G</title>
<polygon fill="white" stroke="none" points="-4,4 -4,-346 348,-346 348,4 -4,4"/>
<!-- 3 -->
<g id="node1" class="node"><title>3</title>
<ellipse fill="none" stroke="blue" cx="98" cy="-165" rx="18" ry="18"/>
<text text-anchor="middle" x="98" y="-161.3" font-family="Helvetica,sans-Serif" font-size="14.00">3</text>
</g>
<!-- m5 -->
<!-- 3&#45;&gt;m5 -->
<!-- 2 -->
<g id="node8" class="node"><title>2</title>
<ellipse fill="none" stroke="black" cx="58" cy="-90" rx="18" ry="18"/>
<text text-anchor="middle" x="58" y="-86.3" font-family="Helvetica,sans-Serif" font-size="14.00">2</text>
</g>
<!-- 3&#45;&gt;2 -->
<g id="edge11" class="edge"><title>3&#45;&gt;2</title>
<path fill="none" stroke="black" d="M89.712,-148.874C84.3487,-139.086 77.2505,-126.132 71.1296,-114.961"/>
<polygon fill="black" stroke="black" points="74.1522,-113.194 66.2774,-106.106 68.0134,-116.558 74.1522,-113.194"/>
</g>
<!-- m3 -->
<!-- 3&#45;&gt;m3 -->
<!-- 4 -->
<g id="node10" class="node"><title>4</title>
<ellipse fill="none" stroke="black" cx="138" cy="-90" rx="18" ry="18"/>
<text text-anchor="middle" x="138" y="-86.3" font-family="Helvetica,sans-Serif" font-size="14.00">4</text>
</g>
<!-- 3&#45;&gt;4 -->
<g id="edge13" class="edge"><title>3&#45;&gt;4</title>
<path fill="none" stroke="black" d="M106.288,-148.874C111.651,-139.086 118.75,-126.132 124.87,-114.961"/>
<polygon fill="black" stroke="black" points="127.987,-116.558 129.723,-106.106 121.848,-113.194 127.987,-116.558"/>
</g>
<!-- 5 -->
<g id="node2" class="node"><title>5</title>
<ellipse fill="none" stroke="blue" cx="143" cy="-243" rx="18" ry="18"/>
<text text-anchor="middle" x="143" y="-239.3" font-family="Helvetica,sans-Serif" font-size="14.00">5</text>
</g>
<!-- 5&#45;&gt;3 -->
<g id="edge6" class="edge"><title>5&#45;&gt;3</title>
<path fill="none" stroke="black" d="M134.109,-226.985C127.823,-216.367 119.266,-201.915 112.059,-189.745"/>
<polygon fill="black" stroke="black" points="114.979,-187.805 106.872,-180.984 108.955,-191.372 114.979,-187.805"/>
</g>
<!-- m15 -->
<!-- 5&#45;&gt;m15 -->
<!-- 5&#45;&gt;m5 -->
<!-- 10 -->
<g id="node7" class="node"><title>10</title>
<ellipse fill="none" stroke="black" cx="180" cy="-165" rx="20.203" ry="20.5982"/>
<text text-anchor="middle" x="180" y="-161.3" font-family="Helvetica,sans-Serif" font-size="14.00">10</text>
</g>
<!-- 5&#45;&gt;10 -->
<g id="edge8" class="edge"><title>5&#45;&gt;10</title>
<path fill="none" stroke="black" d="M150.488,-226.62C155.173,-216.997 161.339,-204.33 166.824,-193.065"/>
<polygon fill="black" stroke="black" points="169.992,-194.552 171.223,-184.029 163.699,-191.488 169.992,-194.552"/>
</g>
<!-- 15 -->
<g id="node3" class="node"><title>15</title>
<ellipse fill="none" stroke="black" cx="193" cy="-321" rx="20.203" ry="20.5982"/>
<text text-anchor="middle" x="193" y="-317.3" font-family="Helvetica,sans-Serif" font-size="14.00">15</text>
</g>
<!-- 15&#45;&gt;5 -->
<g id="edge1" class="edge"><title>15&#45;&gt;5</title>
<path fill="none" stroke="black" d="M181.903,-303.133C174.934,-292.539 165.85,-278.732 158.214,-267.125"/>
<polygon fill="black" stroke="black" points="161.135,-265.197 152.715,-258.766 155.287,-269.044 161.135,-265.197"/>
</g>
<!-- 15&#45;&gt;m15 -->
<!-- 20 -->
<g id="node5" class="node"><title>20</title>
<ellipse fill="none" stroke="black" cx="261" cy="-243" rx="20.203" ry="20.5982"/>
<text text-anchor="middle" x="261" y="-239.3" font-family="Helvetica,sans-Serif" font-size="14.00">20</text>
</g>
<!-- 15&#45;&gt;20 -->
<g id="edge3" class="edge"><title>15&#45;&gt;20</title>
<path fill="none" stroke="black" d="M206.435,-304.985C216.214,-294.055 229.629,-279.062 240.71,-266.677"/>
<polygon fill="black" stroke="black" points="243.534,-268.77 247.593,-258.984 238.317,-264.103 243.534,-268.77"/>
</g>
<!-- m15&#45;&gt;20 -->
<!-- 17 -->
<g id="node14" class="node"><title>17</title>
<ellipse fill="none" stroke="black" cx="240" cy="-165" rx="20.203" ry="20.5982"/>
<text text-anchor="middle" x="240" y="-161.3" font-family="Helvetica,sans-Serif" font-size="14.00">17</text>
</g>
<!-- 20&#45;&gt;17 -->
<g id="edge21" class="edge"><title>20&#45;&gt;17</title>
<path fill="none" stroke="black" d="M255.701,-222.822C253.363,-214.361 250.565,-204.235 247.983,-194.89"/>
<polygon fill="black" stroke="black" points="251.335,-193.878 245.297,-185.172 244.587,-195.743 251.335,-193.878"/>
</g>
<!-- m20 -->
<!-- 20&#45;&gt;m20 -->
<!-- 21 -->
<g id="node16" class="node"><title>21</title>
<ellipse fill="none" stroke="black" cx="324" cy="-165" rx="20.203" ry="20.5982"/>
<text text-anchor="middle" x="324" y="-161.3" font-family="Helvetica,sans-Serif" font-size="14.00">21</text>
</g>
<!-- 20&#45;&gt;21 -->
<g id="edge23" class="edge"><title>20&#45;&gt;21</title>
<path fill="none" stroke="black" d="M273.749,-226.62C282.63,-215.907 294.637,-201.422 304.687,-189.298"/>
<polygon fill="black" stroke="black" points="307.583,-191.289 311.27,-181.357 302.193,-186.822 307.583,-191.289"/>
</g>
<!-- m5&#45;&gt;10 -->
<!-- 2&#45;&gt;m3 -->
<!-- 1 -->
<g id="node11" class="node"><title>1</title>
<ellipse fill="none" stroke="red" cx="18" cy="-18" rx="18" ry="18"/>
<text text-anchor="middle" x="18" y="-14.3" font-family="Helvetica,sans-Serif" font-size="14.00">1</text>
</g>
<!-- 2&#45;&gt;1 -->
<g id="edge16" class="edge"><title>2&#45;&gt;1</title>
<path fill="none" stroke="red" d="M49.3206,-73.811C44.1838,-64.8216 37.5613,-53.2323 31.73,-43.0275"/>
<polygon fill="red" stroke="red" points="34.6628,-41.1053 26.6625,-34.1593 28.585,-44.5783 34.6628,-41.1053"/>
</g>
<!-- m2 -->
<!-- 2&#45;&gt;m2 -->
<!-- r2 -->
<!-- 2&#45;&gt;r2 -->
<!-- m3&#45;&gt;4 -->
<!-- 1&#45;&gt;m2 -->
<!-- m2&#45;&gt;r2 -->
<!-- 17&#45;&gt;m20 -->
<!-- m20&#45;&gt;21 -->
</g>
</svg>
