<?xml version="1.0" encoding="UTF-8" standalone="no"?>
<!DOCTYPE svg PUBLIC "-//W3C//DTD SVG 1.1//EN"
 "http://www.w3.org/Graphics/SVG/1.1/DTD/svg11.dtd">
<!-- Generated by graphviz version 2.36.0 (20140111.2315)
 -->
<!-- Title: G Pages: 1 -->
<svg width="233pt" height="266pt"
 viewBox="0.00 0.00 233.00 266.00" xmlns="http://www.w3.org/2000/svg" xmlns:xlink="http://www.w3.org/1999/xlink">
<g id="graph0" class="graph" transform="scale(1 1) rotate(0) translate(4 262)">
<title>G</title>
<polygon fill="white" stroke="none" points="-4,4 -4,-262 229,-262 229,4 -4,4"/>
<!-- 5 -->
<g id="node1" class="node"><title>5</title>
<ellipse fill="none" stroke="black" cx="113" cy="-240" rx="18" ry="18"/>
<text text-anchor="middle" x="113" y="-236.3" font-family="Helvetica,sans-Serif" font-size="14.00">5</text>
</g>
<!-- 4 -->
<g id="node2" class="node"><title>4</title>
<ellipse fill="none" stroke="black" cx="61" cy="-168" rx="18" ry="18"/>
<text text-anchor="middle" x="61" y="-164.3" font-family="Helvetica,sans-Serif" font-size="14.00">4</text>
</g>
<!-- 5&#45;&gt;4 -->
<g id="edge1" class="edge"><title>5&#45;&gt;4</title>
<path fill="none" stroke="black" d="M102.726,-225.17C95.4619,-215.391 85.5736,-202.08 77.2464,-190.87"/>
<polygon fill="black" stroke="black" points="80.0251,-188.741 71.2522,-182.801 74.4059,-192.916 80.0251,-188.741"/>
</g>
<!-- m5 -->
<!-- 5&#45;&gt;m5 -->
<!-- 9 -->
<g id="node4" class="node"><title>9</title>
<ellipse fill="none" stroke="black" cx="159" cy="-168" rx="18" ry="18"/>
<text text-anchor="middle" x="159" y="-164.3" font-family="Helvetica,sans-Serif" font-size="14.00">9</text>
</g>
<!-- 5&#45;&gt;9 -->
<g id="edge3" class="edge"><title>5&#45;&gt;9</title>
<path fill="none" stroke="black" d="M122.531,-224.496C128.699,-215.11 136.862,-202.688 143.901,-191.977"/>
<polygon fill="black" stroke="black" points="146.914,-193.765 149.481,-183.485 141.064,-189.92 146.914,-193.765"/>
</g>
<!-- 4&#45;&gt;m5 -->
<!-- 1 -->
<g id="node5" class="node"><title>1</title>
<ellipse fill="none" stroke="black" cx="18" cy="-93" rx="18" ry="18"/>
<text text-anchor="middle" x="18" y="-89.3" font-family="Helvetica,sans-Serif" font-size="14.00">1</text>
</g>
<!-- 4&#45;&gt;1 -->
<g id="edge6" class="edge"><title>4&#45;&gt;1</title>
<path fill="none" stroke="black" d="M52.2983,-152.227C46.5083,-142.398 38.7713,-129.263 32.1111,-117.956"/>
<polygon fill="black" stroke="black" points="34.9275,-115.841 26.8363,-109.001 28.896,-119.394 34.9275,-115.841"/>
</g>
<!-- l4 -->
<!-- 4&#45;&gt;l4 -->
<!-- r4 -->
<!-- 4&#45;&gt;r4 -->
<!-- m5&#45;&gt;9 -->
<!-- 7 -->
<g id="node8" class="node"><title>7</title>
<ellipse fill="none" stroke="black" cx="123" cy="-93" rx="18" ry="18"/>
<text text-anchor="middle" x="123" y="-89.3" font-family="Helvetica,sans-Serif" font-size="14.00">7</text>
</g>
<!-- 9&#45;&gt;7 -->
<g id="edge11" class="edge"><title>9&#45;&gt;7</title>
<path fill="none" stroke="black" d="M151.365,-151.519C146.64,-141.937 140.469,-129.424 135.09,-118.517"/>
<polygon fill="black" stroke="black" points="138.186,-116.88 130.624,-109.459 131.908,-119.976 138.186,-116.88"/>
</g>
<!-- m9 -->
<!-- 9&#45;&gt;m9 -->
<!-- 11 -->
<g id="node10" class="node"><title>11</title>
<ellipse fill="none" stroke="black" cx="205" cy="-93" rx="20.203" ry="20.5982"/>
<text text-anchor="middle" x="205" y="-89.3" font-family="Helvetica,sans-Serif" font-size="14.00">11</text>
</g>
<!-- 9&#45;&gt;11 -->
<g id="edge13" class="edge"><title>9&#45;&gt;11</title>
<path fill="none" stroke="black" d="M168.309,-152.227C174.216,-142.853 182.017,-130.474 188.906,-119.54"/>
<polygon fill="black" stroke="black" points="192.048,-121.12 194.418,-110.793 186.125,-117.388 192.048,-121.12"/>
</g>
<!-- 1&#45;&gt;l4 -->
<!-- l4&#45;&gt;r4 -->
<!-- 7&#45;&gt;m9 -->
<!-- l7 -->
<!-- 7&#45;&gt;l7 -->
<!-- m7 -->
<!-- 7&#45;&gt;m7 -->
<!-- 8 -->
<g id="node13" class="node"><title>8</title>
<ellipse fill="none" stroke="black" cx="163" cy="-18" rx="18" ry="18"/>
<text text-anchor="middle" x="163" y="-14.3" font-family="Helvetica,sans-Serif" font-size="14.00">8</text>
</g>
<!-- 7&#45;&gt;8 -->
<g id="edge18" class="edge"><title>7&#45;&gt;8</title>
<path fill="none" stroke="black" d="M131.288,-76.8744C136.651,-67.0864 143.75,-54.1321 149.87,-42.9615"/>
<polygon fill="black" stroke="black" points="152.987,-44.5579 154.723,-34.1063 146.848,-41.1942 152.987,-44.5579"/>
</g>
<!-- m9&#45;&gt;11 -->
<!-- l7&#45;&gt;m7 -->
<!-- m7&#45;&gt;8 -->
</g>
</svg>
