<?xml version="1.0" encoding="UTF-8" standalone="no"?>
<!DOCTYPE svg PUBLIC "-//W3C//DTD SVG 1.1//EN"
 "http://www.w3.org/Graphics/SVG/1.1/DTD/svg11.dtd">
<!-- Generated by graphviz version 2.36.0 (20140111.2315)
 -->
<!-- Title: G Pages: 1 -->
<svg width="356pt" height="548pt"
 viewBox="0.00 0.00 356.00 548.00" xmlns="http://www.w3.org/2000/svg" xmlns:xlink="http://www.w3.org/1999/xlink">
<g id="graph0" class="graph" transform="scale(1 1) rotate(0) translate(4 544)">
<title>G</title>
<polygon fill="white" stroke="none" points="-4,4 -4,-544 352,-544 352,4 -4,4"/>
<!-- l1 -->
<g id="node1" class="node"><title>l1</title>
<ellipse fill="black" stroke="black" cx="4" cy="-450" rx="1.8" ry="1.8"/>
</g>
<!-- m1 -->
<!-- l1&#45;&gt;m1 -->
<!-- 1 -->
<g id="node2" class="node"><title>1</title>
<ellipse fill="none" stroke="black" cx="27" cy="-522" rx="27" ry="18"/>
<text text-anchor="middle" x="27" y="-518.3" font-family="Helvetica,sans-Serif" font-size="14.00">1</text>
</g>
<!-- 1&#45;&gt;l1 -->
<g id="edge1" class="edge"><title>1&#45;&gt;l1</title>
<path fill="none" stroke="black" d="M21.4323,-504.055C18.1552,-494.081 13.9929,-481.413 10.5575,-470.957"/>
<polygon fill="black" stroke="black" points="-0.169742,-454.327 9.33058,-451.206 9.95489,-453.106 0.454571,-456.227 -0.169742,-454.327"/>
<polyline fill="none" stroke="black" points="4.26826,-451.816 5.82904,-456.567 "/>
<polygon fill="black" stroke="black" points="1.39104,-459.077 10.8914,-455.956 11.5157,-457.856 2.01535,-460.977 1.39104,-459.077"/>
<polyline fill="none" stroke="black" points="5.82904,-456.567 7.38983,-461.317 "/>
<polygon fill="black" stroke="black" points="13.8365,-469.725 7.38983,-461.317 7.18628,-471.91 13.8365,-469.725"/>
</g>
<!-- 1&#45;&gt;m1 -->
<!-- 2 -->
<g id="node4" class="node"><title>2</title>
<ellipse fill="none" stroke="black" cx="76" cy="-450" rx="27" ry="18"/>
<text text-anchor="middle" x="76" y="-446.3" font-family="Helvetica,sans-Serif" font-size="14.00">2</text>
</g>
<!-- 1&#45;&gt;2 -->
<g id="edge3" class="edge"><title>1&#45;&gt;2</title>
<path fill="none" stroke="black" d="M37.8747,-505.465C44.1551,-496.493 52.187,-485.019 59.2577,-474.918"/>
<polygon fill="black" stroke="black" points="62.2884,-476.691 65.1557,-466.492 56.5537,-472.677 62.2884,-476.691"/>
</g>
<!-- m1&#45;&gt;2 -->
<!-- l2 -->
<g id="node5" class="node"><title>l2</title>
<ellipse fill="black" stroke="black" cx="53" cy="-378" rx="1.8" ry="1.8"/>
</g>
<!-- 2&#45;&gt;l2 -->
<g id="edge6" class="edge"><title>2&#45;&gt;l2</title>
<path fill="none" stroke="black" d="M70.4323,-432.055C67.1552,-422.081 62.9929,-409.413 59.5575,-398.957"/>
<polygon fill="black" stroke="black" points="48.8303,-382.327 58.3306,-379.206 58.9549,-381.106 49.4546,-384.227 48.8303,-382.327"/>
<polyline fill="none" stroke="black" points="53.2683,-379.816 54.829,-384.567 "/>
<polygon fill="black" stroke="black" points="50.391,-387.077 59.8914,-383.956 60.5157,-385.856 51.0154,-388.977 50.391,-387.077"/>
<polyline fill="none" stroke="black" points="54.829,-384.567 56.3898,-389.317 "/>
<polygon fill="black" stroke="black" points="62.8365,-397.725 56.3898,-389.317 56.1863,-399.91 62.8365,-397.725"/>
</g>
<!-- m2 -->
<!-- 2&#45;&gt;m2 -->
<!-- 3 -->
<g id="node7" class="node"><title>3</title>
<ellipse fill="none" stroke="black" cx="125" cy="-378" rx="27" ry="18"/>
<text text-anchor="middle" x="125" y="-374.3" font-family="Helvetica,sans-Serif" font-size="14.00">3</text>
</g>
<!-- 2&#45;&gt;3 -->
<g id="edge8" class="edge"><title>2&#45;&gt;3</title>
<path fill="none" stroke="black" d="M86.8747,-433.465C93.1551,-424.493 101.187,-413.019 108.258,-402.918"/>
<polygon fill="black" stroke="black" points="111.288,-404.691 114.156,-394.492 105.554,-400.677 111.288,-404.691"/>
</g>
<!-- l2&#45;&gt;m2 -->
<!-- m2&#45;&gt;3 -->
<!-- l3 -->
<g id="node8" class="node"><title>l3</title>
<ellipse fill="black" stroke="black" cx="102" cy="-306" rx="1.8" ry="1.8"/>
</g>
<!-- 3&#45;&gt;l3 -->
<g id="edge11" class="edge"><title>3&#45;&gt;l3</title>
<path fill="none" stroke="black" d="M119.432,-360.055C116.155,-350.081 111.993,-337.413 108.557,-326.957"/>
<polygon fill="black" stroke="black" points="97.8303,-310.327 107.331,-307.206 107.955,-309.106 98.4546,-312.227 97.8303,-310.327"/>
<polyline fill="none" stroke="black" points="102.268,-307.816 103.829,-312.567 "/>
<polygon fill="black" stroke="black" points="99.391,-315.077 108.891,-311.956 109.516,-313.856 100.015,-316.977 99.391,-315.077"/>
<polyline fill="none" stroke="black" points="103.829,-312.567 105.39,-317.317 "/>
<polygon fill="black" stroke="black" points="111.837,-325.725 105.39,-317.317 105.186,-327.91 111.837,-325.725"/>
</g>
<!-- m3 -->
<!-- 3&#45;&gt;m3 -->
<!-- 4 -->
<g id="node10" class="node"><title>4</title>
<ellipse fill="none" stroke="black" cx="174" cy="-306" rx="27" ry="18"/>
<text text-anchor="middle" x="174" y="-302.3" font-family="Helvetica,sans-Serif" font-size="14.00">4</text>
</g>
<!-- 3&#45;&gt;4 -->
<g id="edge13" class="edge"><title>3&#45;&gt;4</title>
<path fill="none" stroke="black" d="M135.875,-361.465C142.155,-352.493 150.187,-341.019 157.258,-330.918"/>
<polygon fill="black" stroke="black" points="160.288,-332.691 163.156,-322.492 154.554,-328.677 160.288,-332.691"/>
</g>
<!-- l3&#45;&gt;m3 -->
<!-- m3&#45;&gt;4 -->
<!-- l4 -->
<g id="node11" class="node"><title>l4</title>
<ellipse fill="black" stroke="black" cx="151" cy="-234" rx="1.8" ry="1.8"/>
</g>
<!-- 4&#45;&gt;l4 -->
<g id="edge16" class="edge"><title>4&#45;&gt;l4</title>
<path fill="none" stroke="black" d="M168.432,-288.055C165.155,-278.081 160.993,-265.413 157.557,-254.957"/>
<polygon fill="black" stroke="black" points="146.83,-238.327 156.331,-235.206 156.955,-237.106 147.455,-240.227 146.83,-238.327"/>
<polyline fill="none" stroke="black" points="151.268,-235.816 152.829,-240.567 "/>
<polygon fill="black" stroke="black" points="148.391,-243.077 157.891,-239.956 158.516,-241.856 149.015,-244.977 148.391,-243.077"/>
<polyline fill="none" stroke="black" points="152.829,-240.567 154.39,-245.317 "/>
<polygon fill="black" stroke="black" points="160.837,-253.725 154.39,-245.317 154.186,-255.91 160.837,-253.725"/>
</g>
<!-- m4 -->
<!-- 4&#45;&gt;m4 -->
<!-- 5 -->
<g id="node13" class="node"><title>5</title>
<ellipse fill="none" stroke="black" cx="223" cy="-234" rx="27" ry="18"/>
<text text-anchor="middle" x="223" y="-230.3" font-family="Helvetica,sans-Serif" font-size="14.00">5</text>
</g>
<!-- 4&#45;&gt;5 -->
<g id="edge18" class="edge"><title>4&#45;&gt;5</title>
<path fill="none" stroke="black" d="M184.875,-289.465C191.155,-280.493 199.187,-269.019 206.258,-258.918"/>
<polygon fill="black" stroke="black" points="209.288,-260.691 212.156,-250.492 203.554,-256.677 209.288,-260.691"/>
</g>
<!-- l4&#45;&gt;m4 -->
<!-- m4&#45;&gt;5 -->
<!-- l5 -->
<g id="node14" class="node"><title>l5</title>
<ellipse fill="black" stroke="black" cx="200" cy="-162" rx="1.8" ry="1.8"/>
</g>
<!-- 5&#45;&gt;l5 -->
<g id="edge21" class="edge"><title>5&#45;&gt;l5</title>
<path fill="none" stroke="black" d="M217.432,-216.055C214.155,-206.081 209.993,-193.413 206.557,-182.957"/>
<polygon fill="black" stroke="black" points="195.83,-166.327 205.331,-163.206 205.955,-165.106 196.455,-168.227 195.83,-166.327"/>
<polyline fill="none" stroke="black" points="200.268,-163.816 201.829,-168.567 "/>
<polygon fill="black" stroke="black" points="197.391,-171.077 206.891,-167.956 207.516,-169.856 198.015,-172.977 197.391,-171.077"/>
<polyline fill="none" stroke="black" points="201.829,-168.567 203.39,-173.317 "/>
<polygon fill="black" stroke="black" points="209.837,-181.725 203.39,-173.317 203.186,-183.91 209.837,-181.725"/>
</g>
<!-- m5 -->
<!-- 5&#45;&gt;m5 -->
<!-- 6 -->
<g id="node16" class="node"><title>6</title>
<ellipse fill="none" stroke="black" cx="272" cy="-162" rx="27" ry="18"/>
<text text-anchor="middle" x="272" y="-158.3" font-family="Helvetica,sans-Serif" font-size="14.00">6</text>
</g>
<!-- 5&#45;&gt;6 -->
<g id="edge23" class="edge"><title>5&#45;&gt;6</title>
<path fill="none" stroke="black" d="M233.875,-217.465C240.155,-208.493 248.187,-197.019 255.258,-186.918"/>
<polygon fill="black" stroke="black" points="258.288,-188.691 261.156,-178.492 252.554,-184.677 258.288,-188.691"/>
</g>
<!-- l5&#45;&gt;m5 -->
<!-- m5&#45;&gt;6 -->
<!-- l6 -->
<g id="node17" class="node"><title>l6</title>
<ellipse fill="black" stroke="black" cx="249" cy="-90" rx="1.8" ry="1.8"/>
</g>
<!-- 6&#45;&gt;l6 -->
<g id="edge26" class="edge"><title>6&#45;&gt;l6</title>
<path fill="none" stroke="black" d="M266.432,-144.055C263.155,-134.081 258.993,-121.413 255.557,-110.957"/>
<polygon fill="black" stroke="black" points="244.83,-94.3273 254.331,-91.2057 254.955,-93.1058 245.455,-96.2273 244.83,-94.3273"/>
<polyline fill="none" stroke="black" points="249.268,-91.8164 250.829,-96.5666 "/>
<polygon fill="black" stroke="black" points="246.391,-99.0774 255.891,-95.9559 256.516,-97.8559 247.015,-100.977 246.391,-99.0774"/>
<polyline fill="none" stroke="black" points="250.829,-96.5666 252.39,-101.317 "/>
<polygon fill="black" stroke="black" points="258.837,-109.725 252.39,-101.317 252.186,-111.91 258.837,-109.725"/>
</g>
<!-- m6 -->
<!-- 6&#45;&gt;m6 -->
<!-- 7 -->
<g id="node19" class="node"><title>7</title>
<ellipse fill="none" stroke="black" cx="321" cy="-90" rx="27" ry="18"/>
<text text-anchor="middle" x="321" y="-86.3" font-family="Helvetica,sans-Serif" font-size="14.00">7</text>
</g>
<!-- 6&#45;&gt;7 -->
<g id="edge28" class="edge"><title>6&#45;&gt;7</title>
<path fill="none" stroke="black" d="M282.875,-145.465C289.155,-136.493 297.187,-125.019 304.258,-114.918"/>
<polygon fill="black" stroke="black" points="307.288,-116.691 310.156,-106.492 301.554,-112.677 307.288,-116.691"/>
</g>
<!-- l6&#45;&gt;m6 -->
<!-- m6&#45;&gt;7 -->
<!-- l7 -->
<g id="node20" class="node"><title>l7</title>
<ellipse fill="black" stroke="black" cx="298" cy="-18" rx="1.8" ry="1.8"/>
</g>
<!-- 7&#45;&gt;l7 -->
<g id="edge31" class="edge"><title>7&#45;&gt;l7</title>
<path fill="none" stroke="black" d="M315.432,-72.055C312.155,-62.081 307.993,-49.4133 304.557,-38.9575"/>
<polygon fill="black" stroke="black" points="293.83,-22.3273 303.331,-19.2057 303.955,-21.1058 294.455,-24.2273 293.83,-22.3273"/>
<polyline fill="none" stroke="black" points="298.268,-19.8164 299.829,-24.5666 "/>
<polygon fill="black" stroke="black" points="295.391,-27.0774 304.891,-23.9559 305.516,-25.8559 296.015,-28.9775 295.391,-27.0774"/>
<polyline fill="none" stroke="black" points="299.829,-24.5666 301.39,-29.3168 "/>
<polygon fill="black" stroke="black" points="307.837,-37.7245 301.39,-29.3168 301.186,-39.9096 307.837,-37.7245"/>
</g>
<!-- m7 -->
<!-- 7&#45;&gt;m7 -->
<!-- r7 -->
<g id="node22" class="node"><title>r7</title>
<ellipse fill="black" stroke="black" cx="344" cy="-18" rx="1.8" ry="1.8"/>
</g>
<!-- 7&#45;&gt;r7 -->
<g id="edge33" class="edge"><title>7&#45;&gt;r7</title>
<path fill="none" stroke="black" d="M326.568,-72.055C329.845,-62.081 334.007,-49.4133 337.443,-38.9575"/>
<polygon fill="black" stroke="black" points="338.669,-19.2057 348.17,-22.3273 347.545,-24.2273 338.045,-21.1058 338.669,-19.2057"/>
<polyline fill="none" stroke="black" points="343.732,-19.8164 342.171,-24.5666 "/>
<polygon fill="black" stroke="black" points="337.109,-23.9559 346.609,-27.0774 345.985,-28.9775 336.484,-25.8559 337.109,-23.9559"/>
<polyline fill="none" stroke="black" points="342.171,-24.5666 340.61,-29.3168 "/>
<polygon fill="black" stroke="black" points="340.814,-39.9096 340.61,-29.3168 334.163,-37.7245 340.814,-39.9096"/>
</g>
<!-- l7&#45;&gt;m7 -->
<!-- m7&#45;&gt;r7 -->
</g>
</svg>
