<?xml version="1.0" encoding="UTF-8" standalone="no"?>
<!DOCTYPE svg PUBLIC "-//W3C//DTD SVG 1.1//EN"
 "http://www.w3.org/Graphics/SVG/1.1/DTD/svg11.dtd">
<!-- Generated by graphviz version 2.36.0 (20140111.2315)
 -->
<!-- Title: G Pages: 1 -->
<svg width="532pt" height="188pt"
 viewBox="0.00 0.00 532.00 188.00" xmlns="http://www.w3.org/2000/svg" xmlns:xlink="http://www.w3.org/1999/xlink">
<g id="graph0" class="graph" transform="scale(1 1) rotate(0) translate(4 184)">
<title>G</title>
<polygon fill="white" stroke="none" points="-4,4 -4,-184 528,-184 528,4 -4,4"/>
<!-- a -->
<g id="node1" class="node"><title>a</title>
<ellipse fill="black" stroke="black" cx="264" cy="-178" rx="1.8" ry="1.8"/>
</g>
<!-- al -->
<g id="node2" class="node"><title>al</title>
<ellipse fill="black" stroke="black" cx="177" cy="-136" rx="1.8" ry="1.8"/>
</g>
<!-- a&#45;&gt;al -->
<g id="edge1" class="edge"><title>a&#45;&gt;al</title>
<path fill="none" stroke="black" d="M262.77,-176.435C254.629,-172.691 208.184,-151.337 187.241,-141.708"/>
<polygon fill="black" stroke="black" points="188.614,-138.488 178.067,-137.49 185.69,-144.848 188.614,-138.488"/>
</g>
<!-- am -->
<!-- a&#45;&gt;am -->
<!-- ar -->
<g id="node4" class="node"><title>ar</title>
<ellipse fill="black" stroke="black" cx="344" cy="-136" rx="1.8" ry="1.8"/>
</g>
<!-- a&#45;&gt;ar -->
<g id="edge3" class="edge"><title>a&#45;&gt;ar</title>
<path fill="none" stroke="black" d="M265.131,-176.435C272.519,-172.74 314.214,-151.893 333.816,-142.092"/>
<polygon fill="black" stroke="black" points="335.416,-145.205 342.795,-137.602 332.286,-138.944 335.416,-145.205"/>
</g>
<!-- all -->
<g id="node5" class="node"><title>all</title>
<ellipse fill="black" stroke="black" cx="81" cy="-92" rx="1.8" ry="1.8"/>
</g>
<!-- al&#45;&gt;all -->
<g id="edge4" class="edge"><title>al&#45;&gt;all</title>
<path fill="none" stroke="black" d="M175.922,-134.528C167.687,-130.926 114.444,-107.632 91.4968,-97.5923"/>
<polygon fill="black" stroke="black" points="92.7609,-94.3251 82.1964,-93.5234 89.9551,-100.738 92.7609,-94.3251"/>
</g>
<!-- alm -->
<!-- al&#45;&gt;alm -->
<!-- alr -->
<g id="node7" class="node"><title>alr</title>
<ellipse fill="black" stroke="black" cx="189" cy="-92" rx="1.8" ry="1.8"/>
</g>
<!-- al&#45;&gt;alr -->
<g id="edge6" class="edge"><title>al&#45;&gt;alr</title>
<path fill="none" stroke="black" d="M177.297,-133.962C178.474,-129.841 182.903,-114.34 185.961,-103.635"/>
<polygon fill="black" stroke="black" points="189.373,-104.435 188.755,-93.858 182.642,-102.512 189.373,-104.435"/>
</g>
<!-- arl -->
<g id="node8" class="node"><title>arl</title>
<ellipse fill="black" stroke="black" cx="333" cy="-92" rx="1.8" ry="1.8"/>
</g>
<!-- ar&#45;&gt;arl -->
<g id="edge7" class="edge"><title>ar&#45;&gt;arl</title>
<path fill="none" stroke="black" d="M343.728,-133.962C342.649,-129.841 338.589,-114.34 335.785,-103.635"/>
<polygon fill="black" stroke="black" points="339.144,-102.645 333.225,-93.858 332.373,-104.419 339.144,-102.645"/>
</g>
<!-- arm -->
<!-- ar&#45;&gt;arm -->
<!-- arr -->
<g id="node10" class="node"><title>arr</title>
<ellipse fill="black" stroke="black" cx="443" cy="-92" rx="1.8" ry="1.8"/>
</g>
<!-- ar&#45;&gt;arr -->
<g id="edge9" class="edge"><title>ar&#45;&gt;arr</title>
<path fill="none" stroke="black" d="M345.112,-134.528C353.644,-130.909 409.023,-107.415 432.503,-97.4531"/>
<polygon fill="black" stroke="black" points="433.927,-100.651 441.766,-93.5234 431.193,-94.207 433.927,-100.651"/>
</g>
<!-- alll -->
<g id="node11" class="node"><title>alll</title>
<ellipse fill="black" stroke="black" cx="35" cy="-48" rx="1.8" ry="1.8"/>
</g>
<!-- all&#45;&gt;alll -->
<g id="edge10" class="edge"><title>all&#45;&gt;alll</title>
<path fill="none" stroke="black" d="M80.2016,-90.271C75.9201,-86.3618 55.4331,-67.6563 43.5619,-56.8174"/>
<polygon fill="black" stroke="black" points="45.7162,-54.0449 35.9714,-49.8869 40.9963,-59.2144 45.7162,-54.0449"/>
</g>
<!-- allm -->
<!-- all&#45;&gt;allm -->
<!-- allr -->
<g id="node13" class="node"><title>allr</title>
<ellipse fill="black" stroke="black" cx="92" cy="-48" rx="1.8" ry="1.8"/>
</g>
<!-- all&#45;&gt;allr -->
<g id="edge12" class="edge"><title>all&#45;&gt;allr</title>
<path fill="none" stroke="black" d="M81.2719,-89.9618C82.3513,-85.8406 86.411,-70.3397 89.2147,-59.6348"/>
<polygon fill="black" stroke="black" points="92.6274,-60.4185 91.7753,-49.858 85.8558,-58.6449 92.6274,-60.4185"/>
</g>
<!-- alrl -->
<g id="node14" class="node"><title>alrl</title>
<ellipse fill="black" stroke="black" cx="163" cy="-48" rx="1.8" ry="1.8"/>
</g>
<!-- alr&#45;&gt;alrl -->
<g id="edge13" class="edge"><title>alr&#45;&gt;alrl</title>
<path fill="none" stroke="black" d="M188.357,-89.9618C185.721,-85.7032 175.563,-69.2936 168.931,-58.5809"/>
<polygon fill="black" stroke="black" points="171.771,-56.5184 163.531,-49.858 165.819,-60.2029 171.771,-56.5184"/>
</g>
<!-- alrm -->
<!-- alr&#45;&gt;alrm -->
<!-- alrr -->
<g id="node16" class="node"><title>alrr</title>
<ellipse fill="black" stroke="black" cx="223" cy="-48" rx="1.8" ry="1.8"/>
</g>
<!-- alr&#45;&gt;alrr -->
<g id="edge15" class="edge"><title>alr&#45;&gt;alrr</title>
<path fill="none" stroke="black" d="M189.59,-90.271C192.659,-86.4803 206.991,-68.7764 215.857,-57.8238"/>
<polygon fill="black" stroke="black" points="218.71,-59.8616 222.282,-49.8869 213.27,-55.4572 218.71,-59.8616"/>
</g>
<!-- arll -->
<g id="node17" class="node"><title>arll</title>
<ellipse fill="black" stroke="black" cx="299" cy="-48" rx="1.8" ry="1.8"/>
</g>
<!-- arl&#45;&gt;arll -->
<g id="edge16" class="edge"><title>arl&#45;&gt;arll</title>
<path fill="none" stroke="black" d="M332.41,-90.271C329.341,-86.4803 315.009,-68.7764 306.143,-57.8238"/>
<polygon fill="black" stroke="black" points="308.73,-55.4572 299.718,-49.8869 303.29,-59.8616 308.73,-55.4572"/>
</g>
<!-- arlm -->
<!-- arl&#45;&gt;arlm -->
<!-- arlr -->
<g id="node19" class="node"><title>arlr</title>
<ellipse fill="black" stroke="black" cx="361" cy="-48" rx="1.8" ry="1.8"/>
</g>
<!-- arl&#45;&gt;arlr -->
<g id="edge18" class="edge"><title>arl&#45;&gt;arlr</title>
<path fill="none" stroke="black" d="M333.692,-89.9618C336.562,-85.6574 347.707,-68.9393 354.842,-58.2374"/>
<polygon fill="black" stroke="black" points="357.793,-60.12 360.428,-49.858 351.969,-56.2371 357.793,-60.12"/>
</g>
<!-- arrl -->
<g id="node20" class="node"><title>arrl</title>
<ellipse fill="black" stroke="black" cx="432" cy="-48" rx="1.8" ry="1.8"/>
</g>
<!-- arr&#45;&gt;arrl -->
<g id="edge19" class="edge"><title>arr&#45;&gt;arrl</title>
<path fill="none" stroke="black" d="M442.728,-89.9618C441.649,-85.8406 437.589,-70.3397 434.785,-59.6348"/>
<polygon fill="black" stroke="black" points="438.144,-58.6449 432.225,-49.858 431.373,-60.4185 438.144,-58.6449"/>
</g>
<!-- arrm -->
<!-- arr&#45;&gt;arrm -->
<!-- arrr -->
<g id="node22" class="node"><title>arrr</title>
<ellipse fill="black" stroke="black" cx="489" cy="-48" rx="1.8" ry="1.8"/>
</g>
<!-- arr&#45;&gt;arrr -->
<g id="edge21" class="edge"><title>arr&#45;&gt;arrr</title>
<path fill="none" stroke="black" d="M443.798,-90.271C448.08,-86.3618 468.567,-67.6563 480.438,-56.8174"/>
<polygon fill="black" stroke="black" points="483.004,-59.2144 488.029,-49.8869 478.284,-54.0449 483.004,-59.2144"/>
</g>
<!-- allll -->
<g id="node23" class="node"><title>allll</title>
<ellipse fill="black" stroke="black" cx="1" cy="-4" rx="1.8" ry="1.8"/>
</g>
<!-- alll&#45;&gt;allll -->
<g id="edge22" class="edge"><title>alll&#45;&gt;allll</title>
<path fill="none" stroke="black" d="M34.4099,-46.271C31.3412,-42.4803 17.0095,-24.7764 8.14305,-13.8238"/>
<polygon fill="black" stroke="black" points="10.7304,-11.4572 1.71798,-5.88692 5.28964,-15.8616 10.7304,-11.4572"/>
</g>
<!-- alllm -->
<!-- alll&#45;&gt;alllm -->
<!-- alllr -->
<g id="node25" class="node"><title>alllr</title>
<ellipse fill="black" stroke="black" cx="47" cy="-4" rx="1.8" ry="1.8"/>
</g>
<!-- alll&#45;&gt;alllr -->
<g id="edge24" class="edge"><title>alll&#45;&gt;alllr</title>
<path fill="none" stroke="black" d="M35.2966,-45.9618C36.4741,-41.8406 40.903,-26.3397 43.9615,-15.6348"/>
<polygon fill="black" stroke="black" points="47.3729,-16.4348 46.7549,-5.858 40.6422,-14.5117 47.3729,-16.4348"/>
</g>
<!-- allrl -->
<g id="node26" class="node"><title>allrl</title>
<ellipse fill="black" stroke="black" cx="69" cy="-4" rx="1.8" ry="1.8"/>
</g>
<!-- allr&#45;&gt;allrl -->
<g id="edge25" class="edge"><title>allr&#45;&gt;allrl</title>
<path fill="none" stroke="black" d="M91.4315,-45.9618C89.1244,-41.749 80.3057,-25.6451 74.437,-14.9285"/>
<polygon fill="black" stroke="black" points="77.3429,-12.9479 69.4699,-5.858 71.2032,-16.3101 77.3429,-12.9479"/>
</g>
<!-- allrm -->
<!-- allr&#45;&gt;allrm -->
<!-- allrr -->
<g id="node28" class="node"><title>allrr</title>
<ellipse fill="black" stroke="black" cx="115" cy="-4" rx="1.8" ry="1.8"/>
</g>
<!-- allr&#45;&gt;allrr -->
<g id="edge27" class="edge"><title>allr&#45;&gt;allrr</title>
<path fill="none" stroke="black" d="M92.5685,-45.9618C94.8756,-41.749 103.694,-25.6451 109.563,-14.9285"/>
<polygon fill="black" stroke="black" points="112.797,-16.3101 114.53,-5.858 106.657,-12.9479 112.797,-16.3101"/>
</g>
<!-- alrll -->
<g id="node29" class="node"><title>alrll</title>
<ellipse fill="black" stroke="black" cx="137" cy="-4" rx="1.8" ry="1.8"/>
</g>
<!-- alrl&#45;&gt;alrll -->
<g id="edge28" class="edge"><title>alrl&#45;&gt;alrll</title>
<path fill="none" stroke="black" d="M162.357,-45.9618C159.721,-41.7032 149.563,-25.2936 142.931,-14.5809"/>
<polygon fill="black" stroke="black" points="145.771,-12.5184 137.531,-5.858 139.819,-16.2029 145.771,-12.5184"/>
</g>
<!-- alrlm -->
<!-- alrl&#45;&gt;alrlm -->
<!-- alrlr -->
<g id="node31" class="node"><title>alrlr</title>
<ellipse fill="black" stroke="black" cx="183" cy="-4" rx="1.8" ry="1.8"/>
</g>
<!-- alrl&#45;&gt;alrlr -->
<g id="edge30" class="edge"><title>alrl&#45;&gt;alrlr</title>
<path fill="none" stroke="black" d="M163.494,-45.9618C165.5,-41.749 173.169,-25.6451 178.272,-14.9285"/>
<polygon fill="black" stroke="black" points="181.452,-16.3914 182.591,-5.858 175.132,-13.3818 181.452,-16.3914"/>
</g>
<!-- alrrl -->
<g id="node32" class="node"><title>alrrl</title>
<ellipse fill="black" stroke="black" cx="205" cy="-4" rx="1.8" ry="1.8"/>
</g>
<!-- alrr&#45;&gt;alrrl -->
<g id="edge31" class="edge"><title>alrr&#45;&gt;alrrl</title>
<path fill="none" stroke="black" d="M222.555,-45.9618C220.769,-41.7948 213.997,-25.9938 209.406,-15.2798"/>
<polygon fill="black" stroke="black" points="212.524,-13.6707 205.368,-5.858 206.09,-16.4282 212.524,-13.6707"/>
</g>
<!-- alrrm -->
<!-- alrr&#45;&gt;alrrm -->
<!-- alrrr -->
<g id="node34" class="node"><title>alrrr</title>
<ellipse fill="black" stroke="black" cx="251" cy="-4" rx="1.8" ry="1.8"/>
</g>
<!-- alrr&#45;&gt;alrrr -->
<g id="edge33" class="edge"><title>alrr&#45;&gt;alrrr</title>
<path fill="none" stroke="black" d="M223.692,-45.9618C226.562,-41.6574 237.707,-24.9393 244.842,-14.2374"/>
<polygon fill="black" stroke="black" points="247.793,-16.12 250.428,-5.858 241.969,-12.2371 247.793,-16.12"/>
</g>
<!-- arlll -->
<g id="node35" class="node"><title>arlll</title>
<ellipse fill="black" stroke="black" cx="273" cy="-4" rx="1.8" ry="1.8"/>
</g>
<!-- arll&#45;&gt;arlll -->
<g id="edge34" class="edge"><title>arll&#45;&gt;arlll</title>
<path fill="none" stroke="black" d="M298.357,-45.9618C295.721,-41.7032 285.563,-25.2936 278.931,-14.5809"/>
<polygon fill="black" stroke="black" points="281.771,-12.5184 273.531,-5.858 275.819,-16.2029 281.771,-12.5184"/>
</g>
<!-- arllm -->
<!-- arll&#45;&gt;arllm -->
<!-- arllr -->
<g id="node37" class="node"><title>arllr</title>
<ellipse fill="black" stroke="black" cx="319" cy="-4" rx="1.8" ry="1.8"/>
</g>
<!-- arll&#45;&gt;arllr -->
<g id="edge36" class="edge"><title>arll&#45;&gt;arllr</title>
<path fill="none" stroke="black" d="M299.494,-45.9618C301.5,-41.749 309.169,-25.6451 314.272,-14.9285"/>
<polygon fill="black" stroke="black" points="317.452,-16.3914 318.591,-5.858 311.132,-13.3818 317.452,-16.3914"/>
</g>
<!-- arlrl -->
<g id="node38" class="node"><title>arlrl</title>
<ellipse fill="black" stroke="black" cx="341" cy="-4" rx="1.8" ry="1.8"/>
</g>
<!-- arlr&#45;&gt;arlrl -->
<g id="edge37" class="edge"><title>arlr&#45;&gt;arlrl</title>
<path fill="none" stroke="black" d="M360.506,-45.9618C358.5,-41.749 350.831,-25.6451 345.728,-14.9285"/>
<polygon fill="black" stroke="black" points="348.868,-13.3818 341.409,-5.858 342.548,-16.3914 348.868,-13.3818"/>
</g>
<!-- arlrm -->
<!-- arlr&#45;&gt;arlrm -->
<!-- arlrr -->
<g id="node40" class="node"><title>arlrr</title>
<ellipse fill="black" stroke="black" cx="387" cy="-4" rx="1.8" ry="1.8"/>
</g>
<!-- arlr&#45;&gt;arlrr -->
<g id="edge39" class="edge"><title>arlr&#45;&gt;arlrr</title>
<path fill="none" stroke="black" d="M361.643,-45.9618C364.279,-41.7032 374.437,-25.2936 381.069,-14.5809"/>
<polygon fill="black" stroke="black" points="384.181,-16.2029 386.469,-5.858 378.229,-12.5184 384.181,-16.2029"/>
</g>
<!-- arrll -->
<g id="node41" class="node"><title>arrll</title>
<ellipse fill="black" stroke="black" cx="409" cy="-4" rx="1.8" ry="1.8"/>
</g>
<!-- arrl&#45;&gt;arrll -->
<g id="edge40" class="edge"><title>arrl&#45;&gt;arrll</title>
<path fill="none" stroke="black" d="M431.431,-45.9618C429.124,-41.749 420.306,-25.6451 414.437,-14.9285"/>
<polygon fill="black" stroke="black" points="417.343,-12.9479 409.47,-5.858 411.203,-16.3101 417.343,-12.9479"/>
</g>
<!-- arrlm -->
<!-- arrl&#45;&gt;arrlm -->
<!-- arrlr -->
<g id="node43" class="node"><title>arrlr</title>
<ellipse fill="black" stroke="black" cx="455" cy="-4" rx="1.8" ry="1.8"/>
</g>
<!-- arrl&#45;&gt;arrlr -->
<g id="edge42" class="edge"><title>arrl&#45;&gt;arrlr</title>
<path fill="none" stroke="black" d="M432.569,-45.9618C434.876,-41.749 443.694,-25.6451 449.563,-14.9285"/>
<polygon fill="black" stroke="black" points="452.797,-16.3101 454.53,-5.858 446.657,-12.9479 452.797,-16.3101"/>
</g>
<!-- arrrl -->
<g id="node44" class="node"><title>arrrl</title>
<ellipse fill="black" stroke="black" cx="477" cy="-4" rx="1.8" ry="1.8"/>
</g>
<!-- arrr&#45;&gt;arrrl -->
<g id="edge43" class="edge"><title>arrr&#45;&gt;arrrl</title>
<path fill="none" stroke="black" d="M488.703,-45.9618C487.526,-41.8406 483.097,-26.3397 480.039,-15.6348"/>
<polygon fill="black" stroke="black" points="483.358,-14.5117 477.245,-5.858 476.627,-16.4348 483.358,-14.5117"/>
</g>
<!-- arrrm -->
<!-- arrr&#45;&gt;arrrm -->
<!-- arrrr -->
<g id="node46" class="node"><title>arrrr</title>
<ellipse fill="black" stroke="black" cx="523" cy="-4" rx="1.8" ry="1.8"/>
</g>
<!-- arrr&#45;&gt;arrrr -->
<g id="edge45" class="edge"><title>arrr&#45;&gt;arrrr</title>
<path fill="none" stroke="black" d="M489.59,-46.271C492.659,-42.4803 506.991,-24.7764 515.857,-13.8238"/>
<polygon fill="black" stroke="black" points="518.71,-15.8616 522.282,-5.88692 513.27,-11.4572 518.71,-15.8616"/>
</g>
</g>
</svg>
