<?xml version="1.0" encoding="UTF-8" standalone="no"?>
<!DOCTYPE svg PUBLIC "-//W3C//DTD SVG 1.1//EN"
 "http://www.w3.org/Graphics/SVG/1.1/DTD/svg11.dtd">
<!-- Generated by graphviz version 2.36.0 (20140111.2315)
 -->
<!-- Title: G Pages: 1 -->
<svg width="294pt" height="476pt"
 viewBox="0.00 0.00 294.00 476.00" xmlns="http://www.w3.org/2000/svg" xmlns:xlink="http://www.w3.org/1999/xlink">
<g id="graph0" class="graph" transform="scale(1 1) rotate(0) translate(4 472)">
<title>G</title>
<polygon fill="white" stroke="none" points="-4,4 -4,-472 290,-472 290,4 -4,4"/>
<!-- l1 -->
<!-- m1 -->
<!-- l1&#45;&gt;m1 -->
<!-- 1 -->
<g id="node2" class="node"><title>1</title>
<ellipse fill="none" stroke="black" cx="28" cy="-450" rx="18" ry="18"/>
<text text-anchor="middle" x="28" y="-446.3" font-family="Helvetica,sans-Serif" font-size="14.00">1</text>
</g>
<!-- 1&#45;&gt;l1 -->
<!-- 1&#45;&gt;m1 -->
<!-- 2 -->
<g id="node4" class="node"><title>2</title>
<ellipse fill="none" stroke="black" cx="68" cy="-378" rx="18" ry="18"/>
<text text-anchor="middle" x="68" y="-374.3" font-family="Helvetica,sans-Serif" font-size="14.00">2</text>
</g>
<!-- 1&#45;&gt;2 -->
<g id="edge3" class="edge"><title>1&#45;&gt;2</title>
<path fill="none" stroke="black" d="M36.6794,-433.811C41.8162,-424.822 48.4387,-413.232 54.27,-403.028"/>
<polygon fill="black" stroke="black" points="57.415,-404.578 59.3375,-394.159 51.3372,-401.105 57.415,-404.578"/>
</g>
<!-- m1&#45;&gt;2 -->
<!-- l2 -->
<!-- 2&#45;&gt;l2 -->
<!-- m2 -->
<!-- 2&#45;&gt;m2 -->
<!-- 3 -->
<g id="node7" class="node"><title>3</title>
<ellipse fill="none" stroke="black" cx="108" cy="-306" rx="18" ry="18"/>
<text text-anchor="middle" x="108" y="-302.3" font-family="Helvetica,sans-Serif" font-size="14.00">3</text>
</g>
<!-- 2&#45;&gt;3 -->
<g id="edge8" class="edge"><title>2&#45;&gt;3</title>
<path fill="none" stroke="black" d="M76.6794,-361.811C81.8162,-352.822 88.4387,-341.232 94.27,-331.028"/>
<polygon fill="black" stroke="black" points="97.415,-332.578 99.3375,-322.159 91.3372,-329.105 97.415,-332.578"/>
</g>
<!-- l2&#45;&gt;m2 -->
<!-- m2&#45;&gt;3 -->
<!-- l3 -->
<!-- 3&#45;&gt;l3 -->
<!-- m3 -->
<!-- 3&#45;&gt;m3 -->
<!-- 4 -->
<g id="node10" class="node"><title>4</title>
<ellipse fill="none" stroke="black" cx="148" cy="-234" rx="18" ry="18"/>
<text text-anchor="middle" x="148" y="-230.3" font-family="Helvetica,sans-Serif" font-size="14.00">4</text>
</g>
<!-- 3&#45;&gt;4 -->
<g id="edge13" class="edge"><title>3&#45;&gt;4</title>
<path fill="none" stroke="black" d="M116.679,-289.811C121.816,-280.822 128.439,-269.232 134.27,-259.028"/>
<polygon fill="black" stroke="black" points="137.415,-260.578 139.338,-250.159 131.337,-257.105 137.415,-260.578"/>
</g>
<!-- l3&#45;&gt;m3 -->
<!-- m3&#45;&gt;4 -->
<!-- l4 -->
<!-- 4&#45;&gt;l4 -->
<!-- m4 -->
<!-- 4&#45;&gt;m4 -->
<!-- 5 -->
<g id="node13" class="node"><title>5</title>
<ellipse fill="none" stroke="black" cx="188" cy="-162" rx="18" ry="18"/>
<text text-anchor="middle" x="188" y="-158.3" font-family="Helvetica,sans-Serif" font-size="14.00">5</text>
</g>
<!-- 4&#45;&gt;5 -->
<g id="edge18" class="edge"><title>4&#45;&gt;5</title>
<path fill="none" stroke="black" d="M156.679,-217.811C161.816,-208.822 168.439,-197.232 174.27,-187.028"/>
<polygon fill="black" stroke="black" points="177.415,-188.578 179.338,-178.159 171.337,-185.105 177.415,-188.578"/>
</g>
<!-- l4&#45;&gt;m4 -->
<!-- m4&#45;&gt;5 -->
<!-- l5 -->
<!-- 5&#45;&gt;l5 -->
<!-- m5 -->
<!-- 5&#45;&gt;m5 -->
<!-- 6 -->
<g id="node16" class="node"><title>6</title>
<ellipse fill="none" stroke="black" cx="228" cy="-90" rx="18" ry="18"/>
<text text-anchor="middle" x="228" y="-86.3" font-family="Helvetica,sans-Serif" font-size="14.00">6</text>
</g>
<!-- 5&#45;&gt;6 -->
<g id="edge23" class="edge"><title>5&#45;&gt;6</title>
<path fill="none" stroke="black" d="M196.679,-145.811C201.816,-136.822 208.439,-125.232 214.27,-115.028"/>
<polygon fill="black" stroke="black" points="217.415,-116.578 219.338,-106.159 211.337,-113.105 217.415,-116.578"/>
</g>
<!-- l5&#45;&gt;m5 -->
<!-- m5&#45;&gt;6 -->
<!-- l6 -->
<!-- 6&#45;&gt;l6 -->
<!-- m6 -->
<!-- 6&#45;&gt;m6 -->
<!-- 7 -->
<g id="node19" class="node"><title>7</title>
<ellipse fill="none" stroke="black" cx="268" cy="-18" rx="18" ry="18"/>
<text text-anchor="middle" x="268" y="-14.3" font-family="Helvetica,sans-Serif" font-size="14.00">7</text>
</g>
<!-- 6&#45;&gt;7 -->
<g id="edge28" class="edge"><title>6&#45;&gt;7</title>
<path fill="none" stroke="black" d="M236.679,-73.811C241.816,-64.8216 248.439,-53.2323 254.27,-43.0275"/>
<polygon fill="black" stroke="black" points="257.415,-44.5783 259.338,-34.1593 251.337,-41.1053 257.415,-44.5783"/>
</g>
<!-- l6&#45;&gt;m6 -->
<!-- m6&#45;&gt;7 -->
</g>
</svg>
