<?xml version="1.0" encoding="UTF-8" standalone="no"?>
<!DOCTYPE svg PUBLIC "-//W3C//DTD SVG 1.1//EN"
 "http://www.w3.org/Graphics/SVG/1.1/DTD/svg11.dtd">
<!-- Generated by graphviz version 2.26.3 (20100126.1600)
 -->
<!-- Title: G Pages: 1 -->
<svg width="262pt" height="144pt"
 viewBox="0.00 0.00 262.00 144.00" xmlns="http://www.w3.org/2000/svg" xmlns:xlink="http://www.w3.org/1999/xlink">
<g id="graph1" class="graph" transform="scale(1 1) rotate(0) translate(4 140)">
<title>G</title>
<polygon fill="white" stroke="white" points="-4,5 -4,-140 259,-140 259,5 -4,5"/>
<!-- a -->
<g id="node1" class="node"><title>a</title>
<ellipse fill="black" stroke="black" cx="126" cy="-134" rx="1.8" ry="1.8"/>
</g>
<!-- al -->
<g id="node3" class="node"><title>al</title>
<ellipse fill="black" stroke="black" cx="81" cy="-92" rx="1.8" ry="1.8"/>
</g>
<!-- a&#45;&gt;al -->
<g id="edge2" class="edge"><title>a&#45;&gt;al</title>
<path fill="none" stroke="black" d="M124.503,-132.603C119.219,-127.671 101.162,-110.818 90.0413,-100.439"/>
<polygon fill="black" stroke="black" points="92.2477,-97.7102 82.549,-93.4457 87.4715,-102.828 92.2477,-97.7102"/>
</g>
<!-- am -->
<!-- a&#45;&gt;am -->
<!-- ar -->
<g id="node7" class="node"><title>ar</title>
<ellipse fill="black" stroke="black" cx="172" cy="-92" rx="1.8" ry="1.8"/>
</g>
<!-- a&#45;&gt;ar -->
<g id="edge6" class="edge"><title>a&#45;&gt;ar</title>
<path fill="none" stroke="black" d="M127.531,-132.603C132.932,-127.671 151.39,-110.818 162.758,-100.439"/>
<polygon fill="black" stroke="black" points="165.392,-102.773 170.417,-93.4457 160.672,-97.6038 165.392,-102.773"/>
</g>
<!-- all -->
<g id="node9" class="node"><title>all</title>
<ellipse fill="black" stroke="black" cx="36" cy="-48" rx="1.8" ry="1.8"/>
</g>
<!-- al&#45;&gt;all -->
<g id="edge8" class="edge"><title>al&#45;&gt;all</title>
<path fill="none" stroke="black" d="M79.5028,-90.536C74.1651,-85.317 55.7962,-67.3563 44.7065,-56.513"/>
<polygon fill="black" stroke="black" points="47.146,-54.0033 37.549,-49.5146 42.2522,-59.0083 47.146,-54.0033"/>
</g>
<!-- alm -->
<!-- al&#45;&gt;alm -->
<!-- alr -->
<g id="node13" class="node"><title>alr</title>
<ellipse fill="black" stroke="black" cx="93" cy="-48" rx="1.8" ry="1.8"/>
</g>
<!-- al&#45;&gt;alr -->
<g id="edge12" class="edge"><title>al&#45;&gt;alr</title>
<path fill="none" stroke="black" d="M81.5156,-90.1094C82.9189,-84.9639 86.8943,-70.3875 89.7751,-59.8246"/>
<polygon fill="black" stroke="black" points="93.2451,-60.4032 92.4997,-49.8346 86.4917,-58.5613 93.2451,-60.4032"/>
</g>
<!-- arl -->
<g id="node15" class="node"><title>arl</title>
<ellipse fill="black" stroke="black" cx="161" cy="-48" rx="1.8" ry="1.8"/>
</g>
<!-- ar&#45;&gt;arl -->
<g id="edge14" class="edge"><title>ar&#45;&gt;arl</title>
<path fill="none" stroke="black" d="M171.527,-90.1094C170.241,-84.9639 166.597,-70.3875 163.956,-59.8246"/>
<polygon fill="black" stroke="black" points="167.28,-58.6871 161.459,-49.8346 160.489,-60.3849 167.28,-58.6871"/>
</g>
<!-- arm -->
<!-- ar&#45;&gt;arm -->
<!-- arr -->
<g id="node19" class="node"><title>arr</title>
<ellipse fill="black" stroke="black" cx="218" cy="-48" rx="1.8" ry="1.8"/>
</g>
<!-- ar&#45;&gt;arr -->
<g id="edge18" class="edge"><title>ar&#45;&gt;arr</title>
<path fill="none" stroke="black" d="M173.531,-90.536C178.987,-85.317 197.764,-67.3563 209.1,-56.513"/>
<polygon fill="black" stroke="black" points="211.609,-58.9561 216.417,-49.5146 206.771,-53.8976 211.609,-58.9561"/>
</g>
<!-- alll -->
<g id="node21" class="node"><title>alll</title>
<ellipse fill="black" stroke="black" cx="2" cy="-4" rx="1.8" ry="1.8"/>
</g>
<!-- all&#45;&gt;alll -->
<g id="edge20" class="edge"><title>all&#45;&gt;alll</title>
<path fill="none" stroke="black" d="M34.8688,-46.536C30.9569,-41.4736 17.781,-24.4225 9.34675,-13.5076"/>
<polygon fill="black" stroke="black" points="12.0544,-11.2874 3.17036,-5.51458 6.51537,-15.5675 12.0544,-11.2874"/>
</g>
<!-- allm -->
<!-- all&#45;&gt;allm -->
<!-- allr -->
<g id="node25" class="node"><title>allr</title>
<ellipse fill="black" stroke="black" cx="48" cy="-4" rx="1.8" ry="1.8"/>
</g>
<!-- all&#45;&gt;allr -->
<g id="edge24" class="edge"><title>all&#45;&gt;allr</title>
<path fill="none" stroke="black" d="M36.5156,-46.1094C37.9189,-40.9639 41.8943,-26.3875 44.7751,-15.8246"/>
<polygon fill="black" stroke="black" points="48.2451,-16.4032 47.4997,-5.83461 41.4917,-14.5613 48.2451,-16.4032"/>
</g>
<!-- alrl -->
<g id="node27" class="node"><title>alrl</title>
<ellipse fill="black" stroke="black" cx="70" cy="-4" rx="1.8" ry="1.8"/>
</g>
<!-- alr&#45;&gt;alrl -->
<g id="edge26" class="edge"><title>alr&#45;&gt;alrl</title>
<path fill="none" stroke="black" d="M92.0117,-46.1094C89.2334,-40.7943 81.1948,-25.4161 75.6421,-14.7935"/>
<polygon fill="black" stroke="black" points="78.6934,-13.0755 70.959,-5.83461 72.4898,-16.3183 78.6934,-13.0755"/>
</g>
<!-- alrm -->
<!-- alr&#45;&gt;alrm -->
<!-- alrr -->
<g id="node31" class="node"><title>alrr</title>
<ellipse fill="black" stroke="black" cx="116" cy="-4" rx="1.8" ry="1.8"/>
</g>
<!-- alr&#45;&gt;alrr -->
<g id="edge30" class="edge"><title>alr&#45;&gt;alrr</title>
<path fill="none" stroke="black" d="M93.9883,-46.1094C96.7666,-40.7943 104.805,-25.4161 110.358,-14.7935"/>
<polygon fill="black" stroke="black" points="113.51,-16.3183 115.041,-5.83461 107.307,-13.0755 113.51,-16.3183"/>
</g>
<!-- arll -->
<g id="node33" class="node"><title>arll</title>
<ellipse fill="black" stroke="black" cx="138" cy="-4" rx="1.8" ry="1.8"/>
</g>
<!-- arl&#45;&gt;arll -->
<g id="edge32" class="edge"><title>arl&#45;&gt;arll</title>
<path fill="none" stroke="black" d="M160.012,-46.1094C157.233,-40.7943 149.195,-25.4161 143.642,-14.7935"/>
<polygon fill="black" stroke="black" points="146.693,-13.0755 138.959,-5.83461 140.49,-16.3183 146.693,-13.0755"/>
</g>
<!-- arlm -->
<!-- arl&#45;&gt;arlm -->
<!-- arlr -->
<g id="node37" class="node"><title>arlr</title>
<ellipse fill="black" stroke="black" cx="184" cy="-4" rx="1.8" ry="1.8"/>
</g>
<!-- arl&#45;&gt;arlr -->
<g id="edge36" class="edge"><title>arl&#45;&gt;arlr</title>
<path fill="none" stroke="black" d="M161.988,-46.1094C164.767,-40.7943 172.805,-25.4161 178.358,-14.7935"/>
<polygon fill="black" stroke="black" points="181.51,-16.3183 183.041,-5.83461 175.307,-13.0755 181.51,-16.3183"/>
</g>
<!-- arrl -->
<g id="node39" class="node"><title>arrl</title>
<ellipse fill="black" stroke="black" cx="206" cy="-4" rx="1.8" ry="1.8"/>
</g>
<!-- arr&#45;&gt;arrl -->
<g id="edge38" class="edge"><title>arr&#45;&gt;arrl</title>
<path fill="none" stroke="black" d="M217.484,-46.1094C216.081,-40.9639 212.106,-26.3875 209.225,-15.8246"/>
<polygon fill="black" stroke="black" points="212.508,-14.5613 206.5,-5.83461 205.755,-16.4032 212.508,-14.5613"/>
</g>
<!-- arrm -->
<!-- arr&#45;&gt;arrm -->
<!-- arrr -->
<g id="node43" class="node"><title>arrr</title>
<ellipse fill="black" stroke="black" cx="252" cy="-4" rx="1.8" ry="1.8"/>
</g>
<!-- arr&#45;&gt;arrr -->
<g id="edge42" class="edge"><title>arr&#45;&gt;arrr</title>
<path fill="none" stroke="black" d="M219.131,-46.536C223.043,-41.4736 236.219,-24.4225 244.653,-13.5076"/>
<polygon fill="black" stroke="black" points="247.485,-15.5675 250.83,-5.51458 241.946,-11.2874 247.485,-15.5675"/>
</g>
</g>
</svg>
