<?xml version="1.0" encoding="UTF-8" standalone="no"?>
<!DOCTYPE svg PUBLIC "-//W3C//DTD SVG 1.1//EN"
 "http://www.w3.org/Graphics/SVG/1.1/DTD/svg11.dtd">
<!-- Generated by graphviz version 2.26.3 (20100126.1600)
 -->
<!-- Title: G Pages: 1 -->
<svg width="326pt" height="266pt"
 viewBox="0.00 0.00 326.00 266.00" xmlns="http://www.w3.org/2000/svg" xmlns:xlink="http://www.w3.org/1999/xlink">
<g id="graph1" class="graph" transform="scale(1 1) rotate(0) translate(4 262)">
<title>G</title>
<polygon fill="white" stroke="white" points="-4,5 -4,-262 323,-262 323,5 -4,5"/>
<!-- 1 -->
<g id="node1" class="node"><title>1</title>
<ellipse fill="none" stroke="black" cx="153" cy="-239" rx="27" ry="19.0919"/>
<text text-anchor="middle" x="153" y="-235.9" font-family="Helvetica,sans-Serif" font-size="14.00">1</text>
</g>
<!-- 2 -->
<g id="node3" class="node"><title>2</title>
<ellipse fill="none" stroke="black" cx="93" cy="-165" rx="27" ry="19.0919"/>
<text text-anchor="middle" x="93" y="-161.9" font-family="Helvetica,sans-Serif" font-size="14.00">2</text>
</g>
<!-- 1&#45;&gt;2 -->
<g id="edge2" class="edge"><title>1&#45;&gt;2</title>
<path fill="none" stroke="black" d="M139.385,-222.208C131.56,-212.558 121.59,-200.261 112.9,-189.544"/>
<polygon fill="black" stroke="black" points="115.578,-187.289 106.561,-181.725 110.14,-191.697 115.578,-187.289"/>
</g>
<!-- m1 -->
<!-- 1&#45;&gt;m1 -->
<!-- 3 -->
<g id="node7" class="node"><title>3</title>
<ellipse fill="none" stroke="black" cx="219" cy="-165" rx="27" ry="19.0919"/>
<text text-anchor="middle" x="219" y="-161.9" font-family="Helvetica,sans-Serif" font-size="14.00">3</text>
</g>
<!-- 1&#45;&gt;3 -->
<g id="edge6" class="edge"><title>1&#45;&gt;3</title>
<path fill="none" stroke="black" d="M167.648,-222.577C176.51,-212.641 187.961,-199.801 197.801,-188.769"/>
<polygon fill="black" stroke="black" points="200.576,-190.915 204.62,-181.122 195.352,-186.256 200.576,-190.915"/>
</g>
<!-- 2&#45;&gt;m1 -->
<!-- 4 -->
<g id="node11" class="node"><title>4</title>
<ellipse fill="none" stroke="black" cx="27" cy="-91" rx="27" ry="19.0919"/>
<text text-anchor="middle" x="27" y="-87.9" font-family="Helvetica,sans-Serif" font-size="14.00">4</text>
</g>
<!-- 2&#45;&gt;4 -->
<g id="edge12" class="edge"><title>2&#45;&gt;4</title>
<path fill="none" stroke="black" d="M78.3525,-148.577C69.4902,-138.641 58.0387,-125.801 48.1992,-114.769"/>
<polygon fill="black" stroke="black" points="50.6477,-112.256 41.3795,-107.122 45.4237,-116.915 50.6477,-112.256"/>
</g>
<!-- m2 -->
<!-- 2&#45;&gt;m2 -->
<!-- 5 -->
<g id="node15" class="node"><title>5</title>
<ellipse fill="none" stroke="black" cx="123" cy="-91" rx="27" ry="19.0919"/>
<text text-anchor="middle" x="123" y="-87.9" font-family="Helvetica,sans-Serif" font-size="14.00">5</text>
</g>
<!-- 2&#45;&gt;5 -->
<g id="edge16" class="edge"><title>2&#45;&gt;5</title>
<path fill="none" stroke="black" d="M100.416,-146.708C103.841,-138.258 107.983,-128.042 111.779,-118.678"/>
<polygon fill="black" stroke="black" points="115.052,-119.921 115.566,-109.338 108.565,-117.291 115.052,-119.921"/>
</g>
<!-- m1&#45;&gt;3 -->
<!-- 6 -->
<g id="node19" class="node"><title>6</title>
<ellipse fill="none" stroke="black" cx="195" cy="-91" rx="27" ry="19.0919"/>
<text text-anchor="middle" x="195" y="-87.9" font-family="Helvetica,sans-Serif" font-size="14.00">6</text>
</g>
<!-- 3&#45;&gt;6 -->
<g id="edge22" class="edge"><title>3&#45;&gt;6</title>
<path fill="none" stroke="black" d="M212.944,-146.327C210.3,-138.176 207.142,-128.438 204.217,-119.42"/>
<polygon fill="black" stroke="black" points="207.469,-118.1 201.054,-109.667 200.81,-120.259 207.469,-118.1"/>
</g>
<!-- m3 -->
<!-- 3&#45;&gt;m3 -->
<!-- 7 -->
<g id="node23" class="node"><title>7</title>
<ellipse fill="none" stroke="black" cx="291" cy="-91" rx="27" ry="19.0919"/>
<text text-anchor="middle" x="291" y="-87.9" font-family="Helvetica,sans-Serif" font-size="14.00">7</text>
</g>
<!-- 3&#45;&gt;7 -->
<g id="edge26" class="edge"><title>3&#45;&gt;7</title>
<path fill="none" stroke="black" d="M234.269,-149.307C244.225,-139.075 257.389,-125.545 268.529,-114.095"/>
<polygon fill="black" stroke="black" points="271.039,-116.534 275.504,-106.926 266.022,-111.653 271.039,-116.534"/>
</g>
<!-- 4&#45;&gt;m2 -->
<!-- l4 -->
<g id="node26" class="node"><title>l4</title>
<ellipse fill="black" stroke="black" cx="4" cy="-18" rx="1.8" ry="1.8"/>
</g>
<!-- 4&#45;&gt;l4 -->
<g id="edge32" class="edge"><title>4&#45;&gt;l4</title>
<path fill="none" stroke="black" d="M21.0769,-72.2007C17.8742,-62.0355 13.91,-49.4536 10.6075,-38.9717"/>
<polygon fill="black" stroke="black" points="0.1023,-22.2677 9.6401,-19.2626 10.2411,-21.1701 0.703319,-24.1752 0.1023,-22.2677"/>
<polyline fill="none" stroke="black" points="4.57069,-19.8113 6.07324,-24.5802 "/>
<polygon fill="black" stroke="black" points="1.60485,-27.0366 11.1426,-24.0315 11.7437,-25.939 2.20587,-28.9441 1.60485,-27.0366"/>
<polyline fill="none" stroke="black" points="6.07324,-24.5802 7.57579,-29.3491 "/>
<polygon fill="black" stroke="black" points="13.9191,-37.8351 7.57579,-29.3491 7.24265,-39.9387 13.9191,-37.8351"/>
</g>
<!-- m4 -->
<!-- 4&#45;&gt;m4 -->
<!-- r4 -->
<g id="node30" class="node"><title>r4</title>
<ellipse fill="black" stroke="black" cx="50" cy="-18" rx="1.8" ry="1.8"/>
</g>
<!-- 4&#45;&gt;r4 -->
<g id="edge36" class="edge"><title>4&#45;&gt;r4</title>
<path fill="none" stroke="black" d="M32.9231,-72.2007C36.1258,-62.0355 40.09,-49.4536 43.3925,-38.9717"/>
<polygon fill="black" stroke="black" points="44.3599,-19.2626 53.8977,-22.2677 53.2967,-24.1752 43.7589,-21.1701 44.3599,-19.2626"/>
<polyline fill="none" stroke="black" points="49.4293,-19.8113 47.9268,-24.5802 "/>
<polygon fill="black" stroke="black" points="42.8574,-24.0315 52.3952,-27.0366 51.7941,-28.9441 42.2563,-25.939 42.8574,-24.0315"/>
<polyline fill="none" stroke="black" points="47.9268,-24.5802 46.4242,-29.3491 "/>
<polygon fill="black" stroke="black" points="46.7573,-39.9387 46.4242,-29.3491 40.0809,-37.8351 46.7573,-39.9387"/>
</g>
<!-- m2&#45;&gt;5 -->
<!-- l5 -->
<g id="node34" class="node"><title>l5</title>
<ellipse fill="black" stroke="black" cx="100" cy="-18" rx="1.8" ry="1.8"/>
</g>
<!-- 5&#45;&gt;l5 -->
<g id="edge42" class="edge"><title>5&#45;&gt;l5</title>
<path fill="none" stroke="black" d="M117.077,-72.2007C113.874,-62.0355 109.91,-49.4536 106.608,-38.9717"/>
<polygon fill="black" stroke="black" points="96.1023,-22.2677 105.64,-19.2626 106.241,-21.1701 96.7033,-24.1752 96.1023,-22.2677"/>
<polyline fill="none" stroke="black" points="100.571,-19.8113 102.073,-24.5802 "/>
<polygon fill="black" stroke="black" points="97.6048,-27.0366 107.143,-24.0315 107.744,-25.939 98.2059,-28.9441 97.6048,-27.0366"/>
<polyline fill="none" stroke="black" points="102.073,-24.5802 103.576,-29.3491 "/>
<polygon fill="black" stroke="black" points="109.919,-37.8351 103.576,-29.3491 103.243,-39.9387 109.919,-37.8351"/>
</g>
<!-- m5 -->
<!-- 5&#45;&gt;m5 -->
<!-- r5 -->
<g id="node38" class="node"><title>r5</title>
<ellipse fill="black" stroke="black" cx="146" cy="-18" rx="1.8" ry="1.8"/>
</g>
<!-- 5&#45;&gt;r5 -->
<g id="edge46" class="edge"><title>5&#45;&gt;r5</title>
<path fill="none" stroke="black" d="M128.923,-72.2007C132.126,-62.0355 136.09,-49.4536 139.392,-38.9717"/>
<polygon fill="black" stroke="black" points="140.36,-19.2626 149.898,-22.2677 149.297,-24.1752 139.759,-21.1701 140.36,-19.2626"/>
<polyline fill="none" stroke="black" points="145.429,-19.8113 143.927,-24.5802 "/>
<polygon fill="black" stroke="black" points="138.857,-24.0315 148.395,-27.0366 147.794,-28.9441 138.256,-25.939 138.857,-24.0315"/>
<polyline fill="none" stroke="black" points="143.927,-24.5802 142.424,-29.3491 "/>
<polygon fill="black" stroke="black" points="142.757,-39.9387 142.424,-29.3491 136.081,-37.8351 142.757,-39.9387"/>
</g>
<!-- 6&#45;&gt;m3 -->
<!-- l6 -->
<g id="node42" class="node"><title>l6</title>
<ellipse fill="black" stroke="black" cx="172" cy="-18" rx="1.8" ry="1.8"/>
</g>
<!-- 6&#45;&gt;l6 -->
<g id="edge52" class="edge"><title>6&#45;&gt;l6</title>
<path fill="none" stroke="black" d="M189.077,-72.2007C185.874,-62.0355 181.91,-49.4536 178.608,-38.9717"/>
<polygon fill="black" stroke="black" points="168.102,-22.2677 177.64,-19.2626 178.241,-21.1701 168.703,-24.1752 168.102,-22.2677"/>
<polyline fill="none" stroke="black" points="172.571,-19.8113 174.073,-24.5802 "/>
<polygon fill="black" stroke="black" points="169.605,-27.0366 179.143,-24.0315 179.744,-25.939 170.206,-28.9441 169.605,-27.0366"/>
<polyline fill="none" stroke="black" points="174.073,-24.5802 175.576,-29.3491 "/>
<polygon fill="black" stroke="black" points="181.919,-37.8351 175.576,-29.3491 175.243,-39.9387 181.919,-37.8351"/>
</g>
<!-- m6 -->
<!-- 6&#45;&gt;m6 -->
<!-- r6 -->
<g id="node46" class="node"><title>r6</title>
<ellipse fill="black" stroke="black" cx="218" cy="-18" rx="1.8" ry="1.8"/>
</g>
<!-- 6&#45;&gt;r6 -->
<g id="edge56" class="edge"><title>6&#45;&gt;r6</title>
<path fill="none" stroke="black" d="M200.923,-72.2007C204.126,-62.0355 208.09,-49.4536 211.392,-38.9717"/>
<polygon fill="black" stroke="black" points="212.36,-19.2626 221.898,-22.2677 221.297,-24.1752 211.759,-21.1701 212.36,-19.2626"/>
<polyline fill="none" stroke="black" points="217.429,-19.8113 215.927,-24.5802 "/>
<polygon fill="black" stroke="black" points="210.857,-24.0315 220.395,-27.0366 219.794,-28.9441 210.256,-25.939 210.857,-24.0315"/>
<polyline fill="none" stroke="black" points="215.927,-24.5802 214.424,-29.3491 "/>
<polygon fill="black" stroke="black" points="214.757,-39.9387 214.424,-29.3491 208.081,-37.8351 214.757,-39.9387"/>
</g>
<!-- m3&#45;&gt;7 -->
<!-- l7 -->
<g id="node50" class="node"><title>l7</title>
<ellipse fill="black" stroke="black" cx="268" cy="-18" rx="1.8" ry="1.8"/>
</g>
<!-- 7&#45;&gt;l7 -->
<g id="edge62" class="edge"><title>7&#45;&gt;l7</title>
<path fill="none" stroke="black" d="M285.077,-72.2007C281.874,-62.0355 277.91,-49.4536 274.608,-38.9717"/>
<polygon fill="black" stroke="black" points="264.102,-22.2677 273.64,-19.2626 274.241,-21.1701 264.703,-24.1752 264.102,-22.2677"/>
<polyline fill="none" stroke="black" points="268.571,-19.8113 270.073,-24.5802 "/>
<polygon fill="black" stroke="black" points="265.605,-27.0366 275.143,-24.0315 275.744,-25.939 266.206,-28.9441 265.605,-27.0366"/>
<polyline fill="none" stroke="black" points="270.073,-24.5802 271.576,-29.3491 "/>
<polygon fill="black" stroke="black" points="277.919,-37.8351 271.576,-29.3491 271.243,-39.9387 277.919,-37.8351"/>
</g>
<!-- m7 -->
<!-- 7&#45;&gt;m7 -->
<!-- r7 -->
<g id="node54" class="node"><title>r7</title>
<ellipse fill="black" stroke="black" cx="314" cy="-18" rx="1.8" ry="1.8"/>
</g>
<!-- 7&#45;&gt;r7 -->
<g id="edge66" class="edge"><title>7&#45;&gt;r7</title>
<path fill="none" stroke="black" d="M296.923,-72.2007C300.126,-62.0355 304.09,-49.4536 307.392,-38.9717"/>
<polygon fill="black" stroke="black" points="308.36,-19.2626 317.898,-22.2677 317.297,-24.1752 307.759,-21.1701 308.36,-19.2626"/>
<polyline fill="none" stroke="black" points="313.429,-19.8113 311.927,-24.5802 "/>
<polygon fill="black" stroke="black" points="306.857,-24.0315 316.395,-27.0366 315.794,-28.9441 306.256,-25.939 306.857,-24.0315"/>
<polyline fill="none" stroke="black" points="311.927,-24.5802 310.424,-29.3491 "/>
<polygon fill="black" stroke="black" points="310.757,-39.9387 310.424,-29.3491 304.081,-37.8351 310.757,-39.9387"/>
</g>
<!-- l4&#45;&gt;m4 -->
<!-- m4&#45;&gt;r4 -->
<!-- l5&#45;&gt;m5 -->
<!-- m5&#45;&gt;r5 -->
<!-- l6&#45;&gt;m6 -->
<!-- m6&#45;&gt;r6 -->
<!-- l7&#45;&gt;m7 -->
<!-- m7&#45;&gt;r7 -->
</g>
</svg>
