<?xml version="1.0" encoding="UTF-8" standalone="no"?>
<!DOCTYPE svg PUBLIC "-//W3C//DTD SVG 1.1//EN"
 "http://www.w3.org/Graphics/SVG/1.1/DTD/svg11.dtd">
<!-- Generated by graphviz version 2.26.3 (20100126.1600)
 -->
<!-- Title: G Pages: 1 -->
<svg width="278pt" height="268pt"
 viewBox="0.00 0.00 278.00 268.00" xmlns="http://www.w3.org/2000/svg" xmlns:xlink="http://www.w3.org/1999/xlink">
<g id="graph1" class="graph" transform="scale(1 1) rotate(0) translate(4 264)">
<title>G</title>
<polygon fill="white" stroke="white" points="-4,5 -4,-264 275,-264 275,5 -4,5"/>
<!-- 5 -->
<g id="node1" class="node"><title>5</title>
<ellipse fill="none" stroke="black" cx="132" cy="-241" rx="27" ry="19.0919"/>
<text text-anchor="middle" x="132" y="-237.9" font-family="Helvetica,sans-Serif" font-size="14.00">5</text>
</g>
<!-- 4 -->
<g id="node3" class="node"><title>4</title>
<ellipse fill="none" stroke="black" cx="78" cy="-167" rx="27" ry="19.0919"/>
<text text-anchor="middle" x="78" y="-163.9" font-family="Helvetica,sans-Serif" font-size="14.00">4</text>
</g>
<!-- 5&#45;&gt;4 -->
<g id="edge2" class="edge"><title>5&#45;&gt;4</title>
<path fill="none" stroke="black" d="M119.476,-223.837C112.66,-214.497 104.097,-202.763 96.5247,-192.386"/>
<polygon fill="black" stroke="black" points="99.1785,-190.085 90.4565,-184.07 93.5239,-194.211 99.1785,-190.085"/>
</g>
<!-- null1 -->
<!-- 5&#45;&gt;null1 -->
<!-- 8 -->
<g id="node7" class="node"><title>8</title>
<ellipse fill="none" stroke="black" cx="192" cy="-167" rx="27" ry="19.0919"/>
<text text-anchor="middle" x="192" y="-163.9" font-family="Helvetica,sans-Serif" font-size="14.00">8</text>
</g>
<!-- 5&#45;&gt;8 -->
<g id="edge6" class="edge"><title>5&#45;&gt;8</title>
<path fill="none" stroke="black" d="M145.615,-224.208C153.44,-214.558 163.41,-202.261 172.1,-191.544"/>
<polygon fill="black" stroke="black" points="174.86,-193.697 178.439,-183.725 169.422,-189.289 174.86,-193.697"/>
</g>
<!-- 4&#45;&gt;null1 -->
<!-- 1 -->
<g id="node11" class="node"><title>1</title>
<ellipse fill="none" stroke="black" cx="27" cy="-93" rx="27" ry="19.0919"/>
<text text-anchor="middle" x="27" y="-89.9" font-family="Helvetica,sans-Serif" font-size="14.00">1</text>
</g>
<!-- 4&#45;&gt;1 -->
<g id="edge12" class="edge"><title>4&#45;&gt;1</title>
<path fill="none" stroke="black" d="M66.1714,-149.837C59.7805,-140.564 51.763,-128.931 44.649,-118.608"/>
<polygon fill="black" stroke="black" points="47.4978,-116.574 38.9411,-110.326 41.734,-120.546 47.4978,-116.574"/>
</g>
<!-- null2 -->
<!-- 4&#45;&gt;null2 -->
<!-- null3 -->
<!-- 4&#45;&gt;null3 -->
<!-- null1&#45;&gt;8 -->
<!-- 7 -->
<g id="node26" class="node"><title>7</title>
<ellipse fill="none" stroke="red" cx="147" cy="-93" rx="27" ry="19.0919"/>
<text text-anchor="middle" x="147" y="-89.9" font-family="Helvetica,sans-Serif" font-size="14.00">7</text>
</g>
<!-- 8&#45;&gt;7 -->
<g id="edge32" class="edge"><title>8&#45;&gt;7</title>
<path fill="none" stroke="black" d="M181.336,-149.463C175.883,-140.497 169.135,-129.399 163.067,-119.422"/>
<polygon fill="black" stroke="black" points="165.93,-117.393 157.744,-110.668 159.949,-121.03 165.93,-117.393"/>
</g>
<!-- null6 -->
<!-- 8&#45;&gt;null6 -->
<!-- 11 -->
<g id="node31" class="node"><title>11</title>
<ellipse fill="none" stroke="black" cx="243" cy="-93" rx="27" ry="19.0919"/>
<text text-anchor="middle" x="243" y="-89.9" font-family="Helvetica,sans-Serif" font-size="14.00">11</text>
</g>
<!-- 8&#45;&gt;11 -->
<g id="edge36" class="edge"><title>8&#45;&gt;11</title>
<path fill="none" stroke="black" d="M203.829,-149.837C210.219,-140.564 218.237,-128.931 225.351,-118.608"/>
<polygon fill="black" stroke="black" points="228.266,-120.546 231.059,-110.326 222.502,-116.574 228.266,-120.546"/>
</g>
<!-- 1&#45;&gt;null2 -->
<!-- null4 -->
<!-- 1&#45;&gt;null4 -->
<!-- null5 -->
<!-- 1&#45;&gt;null5 -->
<!-- 3 -->
<g id="node23" class="node"><title>3</title>
<ellipse fill="none" stroke="black" cx="75" cy="-19" rx="27" ry="19.0919"/>
<text text-anchor="middle" x="75" y="-15.9" font-family="Helvetica,sans-Serif" font-size="14.00">3</text>
</g>
<!-- 1&#45;&gt;3 -->
<g id="edge26" class="edge"><title>1&#45;&gt;3</title>
<path fill="none" stroke="black" d="M38.3753,-75.463C44.2934,-66.3394 51.6431,-55.0086 58.2019,-44.897"/>
<polygon fill="black" stroke="black" points="61.2007,-46.7054 63.7063,-36.4111 55.328,-42.896 61.2007,-46.7054"/>
</g>
<!-- null2&#45;&gt;null3 -->
<!-- null4&#45;&gt;null5 -->
<!-- null5&#45;&gt;3 -->
<!-- 7&#45;&gt;null6 -->
<!-- null6&#45;&gt;11 -->
</g>
</svg>
