<?xml version="1.0" encoding="UTF-8" standalone="no"?>
<!DOCTYPE svg PUBLIC "-//W3C//DTD SVG 1.1//EN"
 "http://www.w3.org/Graphics/SVG/1.1/DTD/svg11.dtd">
<!-- Generated by graphviz version 2.26.3 (20100126.1600)
 -->
<!-- Title: G Pages: 1 -->
<svg width="278pt" height="194pt"
 viewBox="0.00 0.00 278.00 194.00" xmlns="http://www.w3.org/2000/svg" xmlns:xlink="http://www.w3.org/1999/xlink">
<g id="graph1" class="graph" transform="scale(1 1) rotate(0) translate(4 190)">
<title>G</title>
<polygon fill="white" stroke="white" points="-4,5 -4,-190 275,-190 275,5 -4,5"/>
<!-- 5 -->
<g id="node1" class="node"><title>5</title>
<ellipse fill="none" stroke="black" cx="132" cy="-167" rx="27" ry="19.0919"/>
<text text-anchor="middle" x="132" y="-163.9" font-family="Helvetica,sans-Serif" font-size="14.00">5</text>
</g>
<!-- 4 -->
<g id="node3" class="node"><title>4</title>
<ellipse fill="none" stroke="black" cx="78" cy="-93" rx="27" ry="19.0919"/>
<text text-anchor="middle" x="78" y="-89.9" font-family="Helvetica,sans-Serif" font-size="14.00">4</text>
</g>
<!-- 5&#45;&gt;4 -->
<g id="edge2" class="edge"><title>5&#45;&gt;4</title>
<path fill="none" stroke="black" d="M119.476,-149.837C112.66,-140.497 104.097,-128.763 96.5247,-118.386"/>
<polygon fill="black" stroke="black" points="99.1785,-116.085 90.4565,-110.07 93.5239,-120.211 99.1785,-116.085"/>
</g>
<!-- null1 -->
<!-- 5&#45;&gt;null1 -->
<!-- 8 -->
<g id="node7" class="node"><title>8</title>
<ellipse fill="none" stroke="black" cx="192" cy="-93" rx="27" ry="19.0919"/>
<text text-anchor="middle" x="192" y="-89.9" font-family="Helvetica,sans-Serif" font-size="14.00">8</text>
</g>
<!-- 5&#45;&gt;8 -->
<g id="edge6" class="edge"><title>5&#45;&gt;8</title>
<path fill="none" stroke="black" d="M145.615,-150.208C153.44,-140.558 163.41,-128.261 172.1,-117.544"/>
<polygon fill="black" stroke="black" points="174.86,-119.697 178.439,-109.725 169.422,-115.289 174.86,-119.697"/>
</g>
<!-- 4&#45;&gt;null1 -->
<!-- 3 -->
<g id="node11" class="node"><title>3</title>
<ellipse fill="none" stroke="black" cx="27" cy="-19" rx="27" ry="19.0919"/>
<text text-anchor="middle" x="27" y="-15.9" font-family="Helvetica,sans-Serif" font-size="14.00">3</text>
</g>
<!-- 4&#45;&gt;3 -->
<g id="edge12" class="edge"><title>4&#45;&gt;3</title>
<path fill="none" stroke="black" d="M66.1714,-75.8369C59.7805,-66.5639 51.763,-54.9307 44.649,-44.6083"/>
<polygon fill="black" stroke="black" points="47.4978,-42.5741 38.9411,-36.3263 41.734,-46.5465 47.4978,-42.5741"/>
</g>
<!-- null2 -->
<!-- 4&#45;&gt;null2 -->
<!-- null3 -->
<!-- 4&#45;&gt;null3 -->
<!-- null1&#45;&gt;8 -->
<!-- 7 -->
<g id="node19" class="node"><title>7</title>
<ellipse fill="none" stroke="black" cx="147" cy="-19" rx="27" ry="19.0919"/>
<text text-anchor="middle" x="147" y="-15.9" font-family="Helvetica,sans-Serif" font-size="14.00">7</text>
</g>
<!-- 8&#45;&gt;7 -->
<g id="edge22" class="edge"><title>8&#45;&gt;7</title>
<path fill="none" stroke="black" d="M181.336,-75.463C175.883,-66.497 169.135,-55.3994 163.067,-45.4221"/>
<polygon fill="black" stroke="black" points="165.93,-43.3932 157.744,-36.6675 159.949,-47.0303 165.93,-43.3932"/>
</g>
<!-- null6 -->
<!-- 8&#45;&gt;null6 -->
<!-- 11 -->
<g id="node23" class="node"><title>11</title>
<ellipse fill="none" stroke="black" cx="243" cy="-19" rx="27" ry="19.0919"/>
<text text-anchor="middle" x="243" y="-15.9" font-family="Helvetica,sans-Serif" font-size="14.00">11</text>
</g>
<!-- 8&#45;&gt;11 -->
<g id="edge26" class="edge"><title>8&#45;&gt;11</title>
<path fill="none" stroke="black" d="M203.829,-75.8369C210.219,-66.5639 218.237,-54.9307 225.351,-44.6083"/>
<polygon fill="black" stroke="black" points="228.266,-46.5465 231.059,-36.3263 222.502,-42.5741 228.266,-46.5465"/>
</g>
<!-- 3&#45;&gt;null2 -->
<!-- null2&#45;&gt;null3 -->
<!-- 7&#45;&gt;null6 -->
<!-- null6&#45;&gt;11 -->
</g>
</svg>
