<?xml version="1.0" encoding="UTF-8" standalone="no"?>
<!DOCTYPE svg PUBLIC "-//W3C//DTD SVG 1.1//EN"
 "http://www.w3.org/Graphics/SVG/1.1/DTD/svg11.dtd">
<!-- Generated by graphviz version 2.26.3 (20100126.1600)
 -->
<!-- Title: G Pages: 1 -->
<svg width="392pt" height="342pt"
 viewBox="0.00 0.00 392.00 342.00" xmlns="http://www.w3.org/2000/svg" xmlns:xlink="http://www.w3.org/1999/xlink">
<g id="graph1" class="graph" transform="scale(1 1) rotate(0) translate(4 338)">
<title>G</title>
<polygon fill="white" stroke="white" points="-4,5 -4,-338 389,-338 389,5 -4,5"/>
<!-- 8 -->
<g id="node1" class="node"><title>8</title>
<ellipse fill="none" stroke="black" cx="153" cy="-315" rx="27" ry="19.0919"/>
<text text-anchor="middle" x="153" y="-311.9" font-family="Helvetica,sans-Serif" font-size="14.00">8</text>
</g>
<!-- 5 -->
<g id="node3" class="node"><title>5</title>
<ellipse fill="none" stroke="black" cx="93" cy="-241" rx="27" ry="19.0919"/>
<text text-anchor="middle" x="93" y="-237.9" font-family="Helvetica,sans-Serif" font-size="14.00">5</text>
</g>
<!-- 8&#45;&gt;5 -->
<g id="edge2" class="edge"><title>8&#45;&gt;5</title>
<path fill="none" stroke="black" d="M139.385,-298.208C131.56,-288.558 121.59,-276.261 112.9,-265.544"/>
<polygon fill="black" stroke="black" points="115.578,-263.289 106.561,-257.725 110.14,-267.697 115.578,-263.289"/>
</g>
<!-- m8 -->
<!-- 8&#45;&gt;m8 -->
<!-- 11 -->
<g id="node7" class="node"><title>11</title>
<ellipse fill="none" stroke="black" cx="219" cy="-241" rx="27" ry="19.0919"/>
<text text-anchor="middle" x="219" y="-237.9" font-family="Helvetica,sans-Serif" font-size="14.00">11</text>
</g>
<!-- 8&#45;&gt;11 -->
<g id="edge6" class="edge"><title>8&#45;&gt;11</title>
<path fill="none" stroke="black" d="M167.648,-298.577C176.51,-288.641 187.961,-275.801 197.801,-264.769"/>
<polygon fill="black" stroke="black" points="200.576,-266.915 204.62,-257.122 195.352,-262.256 200.576,-266.915"/>
</g>
<!-- 5&#45;&gt;m8 -->
<!-- 2 -->
<g id="node11" class="node"><title>2</title>
<ellipse fill="none" stroke="black" cx="27" cy="-167" rx="27" ry="19.0919"/>
<text text-anchor="middle" x="27" y="-163.9" font-family="Helvetica,sans-Serif" font-size="14.00">2</text>
</g>
<!-- 5&#45;&gt;2 -->
<g id="edge12" class="edge"><title>5&#45;&gt;2</title>
<path fill="none" stroke="black" d="M78.3525,-224.577C69.4902,-214.641 58.0387,-201.801 48.1992,-190.769"/>
<polygon fill="black" stroke="black" points="50.6477,-188.256 41.3795,-183.122 45.4237,-192.915 50.6477,-188.256"/>
</g>
<!-- m5 -->
<!-- 5&#45;&gt;m5 -->
<!-- 6 -->
<g id="node15" class="node"><title>6</title>
<ellipse fill="none" stroke="black" cx="123" cy="-167" rx="27" ry="19.0919"/>
<text text-anchor="middle" x="123" y="-163.9" font-family="Helvetica,sans-Serif" font-size="14.00">6</text>
</g>
<!-- 5&#45;&gt;6 -->
<g id="edge16" class="edge"><title>5&#45;&gt;6</title>
<path fill="none" stroke="black" d="M100.416,-222.708C103.841,-214.258 107.983,-204.042 111.779,-194.678"/>
<polygon fill="black" stroke="black" points="115.052,-195.921 115.566,-185.338 108.565,-193.291 115.052,-195.921"/>
</g>
<!-- m8&#45;&gt;11 -->
<!-- 10 -->
<g id="node26" class="node"><title>10</title>
<ellipse fill="none" stroke="red" cx="195" cy="-167" rx="27" ry="19.0919"/>
<text text-anchor="middle" x="195" y="-163.9" font-family="Helvetica,sans-Serif" font-size="14.00">10</text>
</g>
<!-- 11&#45;&gt;10 -->
<g id="edge32" class="edge"><title>11&#45;&gt;10</title>
<path fill="none" stroke="black" d="M212.944,-222.327C210.3,-214.176 207.142,-204.438 204.217,-195.42"/>
<polygon fill="black" stroke="black" points="207.469,-194.1 201.054,-185.667 200.81,-196.259 207.469,-194.1"/>
</g>
<!-- m11 -->
<!-- 11&#45;&gt;m11 -->
<!-- 18 -->
<g id="node31" class="node"><title>18</title>
<ellipse fill="none" stroke="black" cx="297" cy="-167" rx="27" ry="19.0919"/>
<text text-anchor="middle" x="297" y="-163.9" font-family="Helvetica,sans-Serif" font-size="14.00">18</text>
</g>
<!-- 11&#45;&gt;18 -->
<g id="edge36" class="edge"><title>11&#45;&gt;18</title>
<path fill="none" stroke="black" d="M235.162,-225.667C246.248,-215.15 261.135,-201.026 273.524,-189.272"/>
<polygon fill="black" stroke="black" points="276.013,-191.735 280.859,-182.313 271.195,-186.657 276.013,-191.735"/>
</g>
<!-- 2&#45;&gt;m5 -->
<!-- l2 -->
<!-- 2&#45;&gt;l2 -->
<!-- m2 -->
<!-- 2&#45;&gt;m2 -->
<!-- 4 -->
<g id="node23" class="node"><title>4</title>
<ellipse fill="none" stroke="black" cx="75" cy="-93" rx="27" ry="19.0919"/>
<text text-anchor="middle" x="75" y="-89.9" font-family="Helvetica,sans-Serif" font-size="14.00">4</text>
</g>
<!-- 2&#45;&gt;4 -->
<g id="edge26" class="edge"><title>2&#45;&gt;4</title>
<path fill="none" stroke="black" d="M38.3753,-149.463C44.2934,-140.339 51.6431,-129.009 58.2019,-118.897"/>
<polygon fill="black" stroke="black" points="61.2007,-120.705 63.7063,-110.411 55.328,-116.896 61.2007,-120.705"/>
</g>
<!-- m5&#45;&gt;6 -->
<!-- l2&#45;&gt;m2 -->
<!-- m2&#45;&gt;4 -->
<!-- 10&#45;&gt;m11 -->
<!-- l10 -->
<!-- 10&#45;&gt;l10 -->
<!-- m10 -->
<!-- 10&#45;&gt;m10 -->
<!-- 15 -->
<g id="node39" class="node"><title>15</title>
<ellipse fill="none" stroke="black" cx="237" cy="-93" rx="27" ry="19.0919"/>
<text text-anchor="middle" x="237" y="-89.9" font-family="Helvetica,sans-Serif" font-size="14.00">15</text>
</g>
<!-- 10&#45;&gt;15 -->
<g id="edge46" class="edge"><title>10&#45;&gt;15</title>
<path fill="none" stroke="red" d="M205.167,-149.087C210.171,-140.27 216.306,-129.462 221.849,-119.695"/>
<polygon fill="red" stroke="red" points="225.034,-121.173 226.927,-110.748 218.947,-117.718 225.034,-121.173"/>
</g>
<!-- m11&#45;&gt;18 -->
<!-- l18 -->
<!-- 18&#45;&gt;l18 -->
<!-- m18 -->
<!-- 18&#45;&gt;m18 -->
<!-- 20 -->
<g id="node47" class="node"><title>20</title>
<ellipse fill="none" stroke="red" cx="357" cy="-93" rx="27" ry="19.0919"/>
<text text-anchor="middle" x="357" y="-89.9" font-family="Helvetica,sans-Serif" font-size="14.00">20</text>
</g>
<!-- 18&#45;&gt;20 -->
<g id="edge56" class="edge"><title>18&#45;&gt;20</title>
<path fill="none" stroke="black" d="M310.615,-150.208C318.44,-140.558 328.41,-128.261 337.1,-117.544"/>
<polygon fill="black" stroke="black" points="339.86,-119.697 343.439,-109.725 334.422,-115.289 339.86,-119.697"/>
</g>
<!-- l10&#45;&gt;m10 -->
<!-- m10&#45;&gt;15 -->
<!-- l18&#45;&gt;m18 -->
<!-- m18&#45;&gt;20 -->
<!-- 21 -->
<g id="node51" class="node"><title>21</title>
<ellipse fill="none" stroke="black" cx="309" cy="-19" rx="27" ry="19.0919"/>
<text text-anchor="middle" x="309" y="-15.9" font-family="Helvetica,sans-Serif" font-size="14.00">21</text>
</g>
<!-- 20&#45;&gt;21 -->
<g id="edge62" class="edge"><title>20&#45;&gt;21</title>
<path fill="none" stroke="red" d="M345.625,-75.463C339.707,-66.3394 332.357,-55.0086 325.798,-44.897"/>
<polygon fill="red" stroke="red" points="328.672,-42.896 320.294,-36.4111 322.799,-46.7054 328.672,-42.896"/>
</g>
<!-- m20 -->
<!-- 20&#45;&gt;m20 -->
<!-- r20 -->
<!-- 20&#45;&gt;r20 -->
<!-- 21&#45;&gt;m20 -->
<!-- m20&#45;&gt;r20 -->
</g>
</svg>
