<?xml version="1.0" encoding="UTF-8" standalone="no"?>
<!DOCTYPE svg PUBLIC "-//W3C//DTD SVG 1.1//EN"
 "http://www.w3.org/Graphics/SVG/1.1/DTD/svg11.dtd">
<!-- Generated by graphviz version 2.36.0 (20140111.2315)
 -->
<!-- Title: G Pages: 1 -->
<svg width="259pt" height="260pt"
 viewBox="0.00 0.00 259.00 260.00" xmlns="http://www.w3.org/2000/svg" xmlns:xlink="http://www.w3.org/1999/xlink">
<g id="graph0" class="graph" transform="scale(1 1) rotate(0) translate(4 256)">
<title>G</title>
<polygon fill="white" stroke="none" points="-4,4 -4,-256 255,-256 255,4 -4,4"/>
<!-- 7 -->
<g id="node1" class="node"><title>7</title>
<ellipse fill="none" stroke="green" cx="126" cy="-234" rx="27" ry="18"/>
<text text-anchor="middle" x="126" y="-230.3" font-family="Helvetica,sans-Serif" font-size="14.00">7</text>
</g>
<!-- 4 -->
<g id="node2" class="node"><title>4</title>
<ellipse fill="none" stroke="black" cx="77" cy="-162" rx="27" ry="18"/>
<text text-anchor="middle" x="77" y="-158.3" font-family="Helvetica,sans-Serif" font-size="14.00">4</text>
</g>
<!-- 7&#45;&gt;4 -->
<g id="edge1" class="edge"><title>7&#45;&gt;4</title>
<path fill="none" stroke="black" d="M115.125,-217.465C108.845,-208.493 100.813,-197.019 93.7423,-186.918"/>
<polygon fill="black" stroke="black" points="96.4463,-184.677 87.8443,-178.492 90.7116,-188.691 96.4463,-184.677"/>
</g>
<!-- null1 -->
<!-- 7&#45;&gt;null1 -->
<!-- 8 -->
<g id="node4" class="node"><title>8</title>
<ellipse fill="none" stroke="black" cx="175" cy="-162" rx="27" ry="18"/>
<text text-anchor="middle" x="175" y="-158.3" font-family="Helvetica,sans-Serif" font-size="14.00">8</text>
</g>
<!-- 7&#45;&gt;8 -->
<g id="edge3" class="edge"><title>7&#45;&gt;8</title>
<path fill="none" stroke="black" d="M136.875,-217.465C143.155,-208.493 151.187,-197.019 158.258,-186.918"/>
<polygon fill="black" stroke="black" points="161.288,-188.691 164.156,-178.492 155.554,-184.677 161.288,-188.691"/>
</g>
<!-- 4&#45;&gt;null1 -->
<!-- 1 -->
<g id="node5" class="node"><title>1</title>
<ellipse fill="none" stroke="black" cx="28" cy="-90" rx="27" ry="18"/>
<text text-anchor="middle" x="28" y="-86.3" font-family="Helvetica,sans-Serif" font-size="14.00">1</text>
</g>
<!-- 4&#45;&gt;1 -->
<g id="edge6" class="edge"><title>4&#45;&gt;1</title>
<path fill="none" stroke="black" d="M66.1253,-145.465C59.8449,-136.493 51.813,-125.019 44.7423,-114.918"/>
<polygon fill="black" stroke="black" points="47.4463,-112.677 38.8443,-106.492 41.7116,-116.691 47.4463,-112.677"/>
</g>
<!-- null2 -->
<!-- 4&#45;&gt;null2 -->
<!-- null3 -->
<!-- 4&#45;&gt;null3 -->
<!-- null1&#45;&gt;8 -->
<!-- null7 -->
<!-- 8&#45;&gt;null7 -->
<!-- null6 -->
<!-- 8&#45;&gt;null6 -->
<!-- 11 -->
<g id="node13" class="node"><title>11</title>
<ellipse fill="none" stroke="black" cx="224" cy="-90" rx="27" ry="18"/>
<text text-anchor="middle" x="224" y="-86.3" font-family="Helvetica,sans-Serif" font-size="14.00">11</text>
</g>
<!-- 8&#45;&gt;11 -->
<g id="edge18" class="edge"><title>8&#45;&gt;11</title>
<path fill="none" stroke="black" d="M185.875,-145.465C192.155,-136.493 200.187,-125.019 207.258,-114.918"/>
<polygon fill="black" stroke="black" points="210.288,-116.691 213.156,-106.492 204.554,-112.677 210.288,-116.691"/>
</g>
<!-- 1&#45;&gt;null2 -->
<!-- null4 -->
<!-- 1&#45;&gt;null4 -->
<!-- null5 -->
<!-- 1&#45;&gt;null5 -->
<!-- 3 -->
<g id="node10" class="node"><title>3</title>
<ellipse fill="none" stroke="black" cx="77" cy="-18" rx="27" ry="18"/>
<text text-anchor="middle" x="77" y="-14.3" font-family="Helvetica,sans-Serif" font-size="14.00">3</text>
</g>
<!-- 1&#45;&gt;3 -->
<g id="edge13" class="edge"><title>1&#45;&gt;3</title>
<path fill="none" stroke="black" d="M38.8747,-73.4647C45.1551,-64.4927 53.187,-53.0185 60.2577,-42.9176"/>
<polygon fill="black" stroke="black" points="63.2884,-44.6913 66.1557,-34.4918 57.5537,-40.677 63.2884,-44.6913"/>
</g>
<!-- null2&#45;&gt;null3 -->
<!-- null4&#45;&gt;null5 -->
<!-- null5&#45;&gt;3 -->
<!-- null7&#45;&gt;null6 -->
<!-- null6&#45;&gt;11 -->
</g>
</svg>
