<?xml version="1.0" encoding="UTF-8" standalone="no"?>
<!DOCTYPE svg PUBLIC "-//W3C//DTD SVG 1.1//EN"
 "http://www.w3.org/Graphics/SVG/1.1/DTD/svg11.dtd">
<!-- Generated by graphviz version 2.36.0 (20140111.2315)
 -->
<!-- Title: G Pages: 1 -->
<svg width="243pt" height="266pt"
 viewBox="0.00 0.00 243.00 266.00" xmlns="http://www.w3.org/2000/svg" xmlns:xlink="http://www.w3.org/1999/xlink">
<g id="graph0" class="graph" transform="scale(1 1) rotate(0) translate(4 262)">
<title>G</title>
<polygon fill="white" stroke="none" points="-4,4 -4,-262 239,-262 239,4 -4,4"/>
<!-- 5 -->
<g id="node1" class="node"><title>5</title>
<ellipse fill="none" stroke="black" cx="117" cy="-240" rx="18" ry="18"/>
<text text-anchor="middle" x="117" y="-236.3" font-family="Helvetica,sans-Serif" font-size="14.00">5</text>
</g>
<!-- 4 -->
<g id="node2" class="node"><title>4</title>
<ellipse fill="none" stroke="black" cx="71" cy="-168" rx="18" ry="18"/>
<text text-anchor="middle" x="71" y="-164.3" font-family="Helvetica,sans-Serif" font-size="14.00">4</text>
</g>
<!-- 5&#45;&gt;4 -->
<g id="edge1" class="edge"><title>5&#45;&gt;4</title>
<path fill="none" stroke="black" d="M107.469,-224.496C101.301,-215.11 93.1381,-202.688 86.099,-191.977"/>
<polygon fill="black" stroke="black" points="88.9358,-189.92 80.519,-183.485 83.0859,-193.765 88.9358,-189.92"/>
</g>
<!-- null1 -->
<!-- 5&#45;&gt;null1 -->
<!-- 9 -->
<g id="node4" class="node"><title>9</title>
<ellipse fill="none" stroke="black" cx="169" cy="-168" rx="18" ry="18"/>
<text text-anchor="middle" x="169" y="-164.3" font-family="Helvetica,sans-Serif" font-size="14.00">9</text>
</g>
<!-- 5&#45;&gt;9 -->
<g id="edge3" class="edge"><title>5&#45;&gt;9</title>
<path fill="none" stroke="black" d="M127.274,-225.17C134.538,-215.391 144.426,-202.08 152.754,-190.87"/>
<polygon fill="black" stroke="black" points="155.594,-192.916 158.748,-182.801 149.975,-188.741 155.594,-192.916"/>
</g>
<!-- 4&#45;&gt;null1 -->
<!-- 1 -->
<g id="node5" class="node"><title>1</title>
<ellipse fill="none" stroke="red" cx="28" cy="-93" rx="18" ry="18"/>
<text text-anchor="middle" x="28" y="-89.3" font-family="Helvetica,sans-Serif" font-size="14.00">1</text>
</g>
<!-- 4&#45;&gt;1 -->
<g id="edge6" class="edge"><title>4&#45;&gt;1</title>
<path fill="none" stroke="black" d="M62.2983,-152.227C56.5083,-142.398 48.7713,-129.263 42.1111,-117.956"/>
<polygon fill="black" stroke="black" points="44.9275,-115.841 36.8363,-109.001 38.896,-119.394 44.9275,-115.841"/>
</g>
<!-- null2 -->
<!-- 4&#45;&gt;null2 -->
<!-- null3 -->
<!-- 4&#45;&gt;null3 -->
<!-- null1&#45;&gt;9 -->
<!-- 7 -->
<g id="node11" class="node"><title>7</title>
<ellipse fill="none" stroke="black" cx="133" cy="-93" rx="18" ry="18"/>
<text text-anchor="middle" x="133" y="-89.3" font-family="Helvetica,sans-Serif" font-size="14.00">7</text>
</g>
<!-- 9&#45;&gt;7 -->
<g id="edge16" class="edge"><title>9&#45;&gt;7</title>
<path fill="none" stroke="black" d="M161.365,-151.519C156.64,-141.937 150.469,-129.424 145.09,-118.517"/>
<polygon fill="black" stroke="black" points="148.186,-116.88 140.624,-109.459 141.908,-119.976 148.186,-116.88"/>
</g>
<!-- null6 -->
<!-- 9&#45;&gt;null6 -->
<!-- 11 -->
<g id="node13" class="node"><title>11</title>
<ellipse fill="none" stroke="black" cx="215" cy="-93" rx="20.203" ry="20.5982"/>
<text text-anchor="middle" x="215" y="-89.3" font-family="Helvetica,sans-Serif" font-size="14.00">11</text>
</g>
<!-- 9&#45;&gt;11 -->
<g id="edge18" class="edge"><title>9&#45;&gt;11</title>
<path fill="none" stroke="black" d="M178.309,-152.227C184.216,-142.853 192.017,-130.474 198.906,-119.54"/>
<polygon fill="black" stroke="black" points="202.048,-121.12 204.418,-110.793 196.125,-117.388 202.048,-121.12"/>
</g>
<!-- 1&#45;&gt;null2 -->
<!-- null4 -->
<!-- 1&#45;&gt;null4 -->
<!-- null5 -->
<!-- 1&#45;&gt;null5 -->
<!-- 3 -->
<g id="node10" class="node"><title>3</title>
<ellipse fill="none" stroke="black" cx="68" cy="-18" rx="18" ry="18"/>
<text text-anchor="middle" x="68" y="-14.3" font-family="Helvetica,sans-Serif" font-size="14.00">3</text>
</g>
<!-- 1&#45;&gt;3 -->
<g id="edge13" class="edge"><title>1&#45;&gt;3</title>
<path fill="none" stroke="black" d="M36.288,-76.8744C41.6513,-67.0864 48.7495,-54.1321 54.8704,-42.9615"/>
<polygon fill="black" stroke="black" points="57.9866,-44.5579 59.7226,-34.1063 51.8478,-41.1942 57.9866,-44.5579"/>
</g>
<!-- null2&#45;&gt;null3 -->
<!-- null4&#45;&gt;null5 -->
<!-- null5&#45;&gt;3 -->
<!-- 7&#45;&gt;null6 -->
<!-- null6&#45;&gt;11 -->
</g>
</svg>
