<?xml version="1.0" encoding="UTF-8" standalone="no"?>
<!DOCTYPE svg PUBLIC "-//W3C//DTD SVG 1.1//EN"
 "http://www.w3.org/Graphics/SVG/1.1/DTD/svg11.dtd">
<!-- Generated by graphviz version 2.36.0 (20140111.2315)
 -->
<!-- Title: G Pages: 1 -->
<svg width="330pt" height="188pt"
 viewBox="0.00 0.00 330.00 188.00" xmlns="http://www.w3.org/2000/svg" xmlns:xlink="http://www.w3.org/1999/xlink">
<g id="graph0" class="graph" transform="scale(1 1) rotate(0) translate(4 184)">
<title>G</title>
<polygon fill="white" stroke="none" points="-4,4 -4,-184 326,-184 326,4 -4,4"/>
<!-- 1 -->
<g id="node1" class="node"><title>1</title>
<ellipse fill="none" stroke="black" cx="142" cy="-162" rx="27" ry="18"/>
<text text-anchor="middle" x="142" y="-158.3" font-family="Helvetica,sans-Serif" font-size="14.00">1</text>
</g>
<!-- 2 -->
<g id="node2" class="node"><title>2</title>
<ellipse fill="none" stroke="black" cx="82" cy="-90" rx="27" ry="18"/>
<text text-anchor="middle" x="82" y="-86.3" font-family="Helvetica,sans-Serif" font-size="14.00">2</text>
</g>
<!-- 1&#45;&gt;2 -->
<g id="edge1" class="edge"><title>1&#45;&gt;2</title>
<path fill="none" stroke="black" d="M128.981,-145.811C120.961,-136.455 110.527,-124.282 101.53,-113.785"/>
<polygon fill="black" stroke="black" points="104.159,-111.474 94.9937,-106.159 98.8442,-116.03 104.159,-111.474"/>
</g>
<!-- m1 -->
<!-- 1&#45;&gt;m1 -->
<!-- 3 -->
<g id="node4" class="node"><title>3</title>
<ellipse fill="none" stroke="black" cx="221" cy="-90" rx="27" ry="18"/>
<text text-anchor="middle" x="221" y="-86.3" font-family="Helvetica,sans-Serif" font-size="14.00">3</text>
</g>
<!-- 1&#45;&gt;3 -->
<g id="edge3" class="edge"><title>1&#45;&gt;3</title>
<path fill="none" stroke="black" d="M157.608,-147.17C169.077,-137.008 184.851,-123.03 197.795,-111.561"/>
<polygon fill="black" stroke="black" points="200.261,-114.053 205.425,-104.801 195.619,-108.813 200.261,-114.053"/>
</g>
<!-- 2&#45;&gt;m1 -->
<!-- 4 -->
<g id="node5" class="node"><title>4</title>
<ellipse fill="none" stroke="black" cx="27" cy="-18" rx="27" ry="18"/>
<text text-anchor="middle" x="27" y="-14.3" font-family="Helvetica,sans-Serif" font-size="14.00">4</text>
</g>
<!-- 2&#45;&gt;4 -->
<g id="edge6" class="edge"><title>2&#45;&gt;4</title>
<path fill="none" stroke="black" d="M70.0658,-73.811C62.7864,-64.5464 53.3374,-52.5203 45.1456,-42.0944"/>
<polygon fill="black" stroke="black" points="47.8413,-39.8601 38.9109,-34.1593 42.337,-44.1849 47.8413,-39.8601"/>
</g>
<!-- m2 -->
<!-- 2&#45;&gt;m2 -->
<!-- 5 -->
<g id="node7" class="node"><title>5</title>
<ellipse fill="none" stroke="black" cx="125" cy="-18" rx="27" ry="18"/>
<text text-anchor="middle" x="125" y="-14.3" font-family="Helvetica,sans-Serif" font-size="14.00">5</text>
</g>
<!-- 2&#45;&gt;5 -->
<g id="edge8" class="edge"><title>2&#45;&gt;5</title>
<path fill="none" stroke="black" d="M91.7574,-73.1159C97.1452,-64.345 103.952,-53.2637 110.001,-43.4162"/>
<polygon fill="black" stroke="black" points="113.029,-45.174 115.281,-34.8212 107.065,-41.51 113.029,-45.174"/>
</g>
<!-- m1&#45;&gt;3 -->
<!-- 6 -->
<g id="node8" class="node"><title>6</title>
<ellipse fill="none" stroke="black" cx="197" cy="-18" rx="27" ry="18"/>
<text text-anchor="middle" x="197" y="-14.3" font-family="Helvetica,sans-Serif" font-size="14.00">6</text>
</g>
<!-- 3&#45;&gt;6 -->
<g id="edge11" class="edge"><title>3&#45;&gt;6</title>
<path fill="none" stroke="black" d="M215.19,-72.055C212.449,-64.0586 209.113,-54.3308 206.051,-45.3995"/>
<polygon fill="black" stroke="black" points="209.31,-44.1133 202.756,-35.789 202.689,-46.3836 209.31,-44.1133"/>
</g>
<!-- m3 -->
<!-- 3&#45;&gt;m3 -->
<!-- 7 -->
<g id="node10" class="node"><title>7</title>
<ellipse fill="none" stroke="black" cx="295" cy="-18" rx="27" ry="18"/>
<text text-anchor="middle" x="295" y="-14.3" font-family="Helvetica,sans-Serif" font-size="14.00">7</text>
</g>
<!-- 3&#45;&gt;7 -->
<g id="edge13" class="edge"><title>3&#45;&gt;7</title>
<path fill="none" stroke="black" d="M235.975,-74.8345C246.507,-64.872 260.782,-51.3687 272.655,-40.1371"/>
<polygon fill="black" stroke="black" points="275.188,-42.5592 280.047,-33.1445 270.377,-37.4739 275.188,-42.5592"/>
</g>
<!-- 4&#45;&gt;m2 -->
<!-- m2&#45;&gt;5 -->
<!-- 6&#45;&gt;m3 -->
<!-- m3&#45;&gt;7 -->
</g>
</svg>
