<?xml version="1.0" encoding="UTF-8" standalone="no"?>
<!DOCTYPE svg PUBLIC "-//W3C//DTD SVG 1.1//EN"
 "http://www.w3.org/Graphics/SVG/1.1/DTD/svg11.dtd">
<!-- Generated by graphviz version 2.36.0 (20140111.2315)
 -->
<!-- Title: G Pages: 1 -->
<svg width="357pt" height="476pt"
 viewBox="0.00 0.00 357.00 476.00" xmlns="http://www.w3.org/2000/svg" xmlns:xlink="http://www.w3.org/1999/xlink">
<g id="graph0" class="graph" transform="scale(1 1) rotate(0) translate(4 472)">
<title>G</title>
<polygon fill="white" stroke="none" points="-4,4 -4,-472 353,-472 353,4 -4,4"/>
<!-- l1 -->
<!-- m1 -->
<!-- l1&#45;&gt;m1 -->
<!-- 1 -->
<g id="node2" class="node"><title>1</title>
<ellipse fill="none" stroke="black" cx="28" cy="-450" rx="27" ry="18"/>
<text text-anchor="middle" x="28" y="-446.3" font-family="Helvetica,sans-Serif" font-size="14.00">1</text>
</g>
<!-- 1&#45;&gt;l1 -->
<!-- 1&#45;&gt;m1 -->
<!-- 2 -->
<g id="node4" class="node"><title>2</title>
<ellipse fill="none" stroke="black" cx="77" cy="-378" rx="27" ry="18"/>
<text text-anchor="middle" x="77" y="-374.3" font-family="Helvetica,sans-Serif" font-size="14.00">2</text>
</g>
<!-- 1&#45;&gt;2 -->
<g id="edge3" class="edge"><title>1&#45;&gt;2</title>
<path fill="none" stroke="black" d="M38.8747,-433.465C45.1551,-424.493 53.187,-413.019 60.2577,-402.918"/>
<polygon fill="black" stroke="black" points="63.2884,-404.691 66.1557,-394.492 57.5537,-400.677 63.2884,-404.691"/>
</g>
<!-- m1&#45;&gt;2 -->
<!-- l2 -->
<!-- 2&#45;&gt;l2 -->
<!-- m2 -->
<!-- 2&#45;&gt;m2 -->
<!-- 3 -->
<g id="node7" class="node"><title>3</title>
<ellipse fill="none" stroke="black" cx="126" cy="-306" rx="27" ry="18"/>
<text text-anchor="middle" x="126" y="-302.3" font-family="Helvetica,sans-Serif" font-size="14.00">3</text>
</g>
<!-- 2&#45;&gt;3 -->
<g id="edge8" class="edge"><title>2&#45;&gt;3</title>
<path fill="none" stroke="black" d="M87.8747,-361.465C94.1551,-352.493 102.187,-341.019 109.258,-330.918"/>
<polygon fill="black" stroke="black" points="112.288,-332.691 115.156,-322.492 106.554,-328.677 112.288,-332.691"/>
</g>
<!-- l2&#45;&gt;m2 -->
<!-- m2&#45;&gt;3 -->
<!-- l3 -->
<!-- 3&#45;&gt;l3 -->
<!-- m3 -->
<!-- 3&#45;&gt;m3 -->
<!-- 4 -->
<g id="node10" class="node"><title>4</title>
<ellipse fill="none" stroke="black" cx="175" cy="-234" rx="27" ry="18"/>
<text text-anchor="middle" x="175" y="-230.3" font-family="Helvetica,sans-Serif" font-size="14.00">4</text>
</g>
<!-- 3&#45;&gt;4 -->
<g id="edge13" class="edge"><title>3&#45;&gt;4</title>
<path fill="none" stroke="black" d="M136.875,-289.465C143.155,-280.493 151.187,-269.019 158.258,-258.918"/>
<polygon fill="black" stroke="black" points="161.288,-260.691 164.156,-250.492 155.554,-256.677 161.288,-260.691"/>
</g>
<!-- l3&#45;&gt;m3 -->
<!-- m3&#45;&gt;4 -->
<!-- l4 -->
<!-- 4&#45;&gt;l4 -->
<!-- m4 -->
<!-- 4&#45;&gt;m4 -->
<!-- 5 -->
<g id="node13" class="node"><title>5</title>
<ellipse fill="none" stroke="black" cx="224" cy="-162" rx="27" ry="18"/>
<text text-anchor="middle" x="224" y="-158.3" font-family="Helvetica,sans-Serif" font-size="14.00">5</text>
</g>
<!-- 4&#45;&gt;5 -->
<g id="edge18" class="edge"><title>4&#45;&gt;5</title>
<path fill="none" stroke="black" d="M185.875,-217.465C192.155,-208.493 200.187,-197.019 207.258,-186.918"/>
<polygon fill="black" stroke="black" points="210.288,-188.691 213.156,-178.492 204.554,-184.677 210.288,-188.691"/>
</g>
<!-- l4&#45;&gt;m4 -->
<!-- m4&#45;&gt;5 -->
<!-- l5 -->
<!-- 5&#45;&gt;l5 -->
<!-- m5 -->
<!-- 5&#45;&gt;m5 -->
<!-- 6 -->
<g id="node16" class="node"><title>6</title>
<ellipse fill="none" stroke="black" cx="273" cy="-90" rx="27" ry="18"/>
<text text-anchor="middle" x="273" y="-86.3" font-family="Helvetica,sans-Serif" font-size="14.00">6</text>
</g>
<!-- 5&#45;&gt;6 -->
<g id="edge23" class="edge"><title>5&#45;&gt;6</title>
<path fill="none" stroke="black" d="M234.875,-145.465C241.155,-136.493 249.187,-125.019 256.258,-114.918"/>
<polygon fill="black" stroke="black" points="259.288,-116.691 262.156,-106.492 253.554,-112.677 259.288,-116.691"/>
</g>
<!-- l5&#45;&gt;m5 -->
<!-- m5&#45;&gt;6 -->
<!-- l6 -->
<!-- 6&#45;&gt;l6 -->
<!-- m6 -->
<!-- 6&#45;&gt;m6 -->
<!-- 7 -->
<g id="node19" class="node"><title>7</title>
<ellipse fill="none" stroke="black" cx="322" cy="-18" rx="27" ry="18"/>
<text text-anchor="middle" x="322" y="-14.3" font-family="Helvetica,sans-Serif" font-size="14.00">7</text>
</g>
<!-- 6&#45;&gt;7 -->
<g id="edge28" class="edge"><title>6&#45;&gt;7</title>
<path fill="none" stroke="black" d="M283.875,-73.4647C290.155,-64.4927 298.187,-53.0185 305.258,-42.9176"/>
<polygon fill="black" stroke="black" points="308.288,-44.6913 311.156,-34.4918 302.554,-40.677 308.288,-44.6913"/>
</g>
<!-- l6&#45;&gt;m6 -->
<!-- m6&#45;&gt;7 -->
</g>
</svg>
