<?xml version="1.0" encoding="UTF-8" standalone="no"?>
<!DOCTYPE svg PUBLIC "-//W3C//DTD SVG 1.1//EN"
 "http://www.w3.org/Graphics/SVG/1.1/DTD/svg11.dtd">
<!-- Generated by graphviz version 2.36.0 (20140111.2315)
 -->
<!-- Title: G Pages: 1 -->
<svg width="260pt" height="144pt"
 viewBox="0.00 0.00 260.00 144.00" xmlns="http://www.w3.org/2000/svg" xmlns:xlink="http://www.w3.org/1999/xlink">
<g id="graph0" class="graph" transform="scale(1 1) rotate(0) translate(4 140)">
<title>G</title>
<polygon fill="white" stroke="none" points="-4,4 -4,-140 256,-140 256,4 -4,4"/>
<!-- a -->
<g id="node1" class="node"><title>a</title>
<ellipse fill="black" stroke="black" cx="125" cy="-134" rx="1.8" ry="1.8"/>
</g>
<!-- al -->
<g id="node2" class="node"><title>al</title>
<ellipse fill="black" stroke="black" cx="80" cy="-92" rx="1.8" ry="1.8"/>
</g>
<!-- a&#45;&gt;al -->
<g id="edge1" class="edge"><title>a&#45;&gt;al</title>
<path fill="none" stroke="black" d="M124.219,-132.306C120.073,-128.62 100.392,-111.126 88.7302,-100.76"/>
<polygon fill="black" stroke="black" points="90.7497,-97.8724 80.9503,-93.8447 86.0991,-103.104 90.7497,-97.8724"/>
</g>
<!-- am -->
<!-- a&#45;&gt;am -->
<!-- ar -->
<g id="node4" class="node"><title>ar</title>
<ellipse fill="black" stroke="black" cx="171" cy="-92" rx="1.8" ry="1.8"/>
</g>
<!-- a&#45;&gt;ar -->
<g id="edge3" class="edge"><title>a&#45;&gt;ar</title>
<path fill="none" stroke="black" d="M125.798,-132.306C130.08,-128.583 150.567,-110.768 162.438,-100.445"/>
<polygon fill="black" stroke="black" points="164.779,-103.048 170.029,-93.8447 160.186,-97.7654 164.779,-103.048"/>
</g>
<!-- all -->
<g id="node5" class="node"><title>all</title>
<ellipse fill="black" stroke="black" cx="35" cy="-48" rx="1.8" ry="1.8"/>
</g>
<!-- al&#45;&gt;all -->
<g id="edge4" class="edge"><title>al&#45;&gt;all</title>
<path fill="none" stroke="black" d="M79.2189,-90.271C75.0305,-86.3618 54.9889,-67.6563 43.3758,-56.8174"/>
<polygon fill="black" stroke="black" points="45.649,-54.1514 35.9503,-49.8869 40.8727,-59.2688 45.649,-54.1514"/>
</g>
<!-- alm -->
<!-- al&#45;&gt;alm -->
<!-- alr -->
<g id="node7" class="node"><title>alr</title>
<ellipse fill="black" stroke="black" cx="92" cy="-48" rx="1.8" ry="1.8"/>
</g>
<!-- al&#45;&gt;alr -->
<g id="edge6" class="edge"><title>al&#45;&gt;alr</title>
<path fill="none" stroke="black" d="M80.2966,-89.9618C81.4741,-85.8406 85.903,-70.3397 88.9615,-59.6348"/>
<polygon fill="black" stroke="black" points="92.3729,-60.4348 91.7549,-49.858 85.6422,-58.5117 92.3729,-60.4348"/>
</g>
<!-- arl -->
<g id="node8" class="node"><title>arl</title>
<ellipse fill="black" stroke="black" cx="160" cy="-48" rx="1.8" ry="1.8"/>
</g>
<!-- ar&#45;&gt;arl -->
<g id="edge7" class="edge"><title>ar&#45;&gt;arl</title>
<path fill="none" stroke="black" d="M170.728,-89.9618C169.649,-85.8406 165.589,-70.3397 162.785,-59.6348"/>
<polygon fill="black" stroke="black" points="166.144,-58.6449 160.225,-49.858 159.373,-60.4185 166.144,-58.6449"/>
</g>
<!-- arm -->
<!-- ar&#45;&gt;arm -->
<!-- arr -->
<g id="node10" class="node"><title>arr</title>
<ellipse fill="black" stroke="black" cx="217" cy="-48" rx="1.8" ry="1.8"/>
</g>
<!-- ar&#45;&gt;arr -->
<g id="edge9" class="edge"><title>ar&#45;&gt;arr</title>
<path fill="none" stroke="black" d="M171.798,-90.271C176.08,-86.3618 196.567,-67.6563 208.438,-56.8174"/>
<polygon fill="black" stroke="black" points="211.004,-59.2144 216.029,-49.8869 206.284,-54.0449 211.004,-59.2144"/>
</g>
<!-- alll -->
<g id="node11" class="node"><title>alll</title>
<ellipse fill="black" stroke="black" cx="1" cy="-4" rx="1.8" ry="1.8"/>
</g>
<!-- all&#45;&gt;alll -->
<g id="edge10" class="edge"><title>all&#45;&gt;alll</title>
<path fill="none" stroke="black" d="M34.4099,-46.271C31.3412,-42.4803 17.0095,-24.7764 8.14305,-13.8238"/>
<polygon fill="black" stroke="black" points="10.7304,-11.4572 1.71798,-5.88692 5.28964,-15.8616 10.7304,-11.4572"/>
</g>
<!-- allm -->
<!-- all&#45;&gt;allm -->
<!-- allr -->
<g id="node13" class="node"><title>allr</title>
<ellipse fill="black" stroke="black" cx="47" cy="-4" rx="1.8" ry="1.8"/>
</g>
<!-- all&#45;&gt;allr -->
<g id="edge12" class="edge"><title>all&#45;&gt;allr</title>
<path fill="none" stroke="black" d="M35.2966,-45.9618C36.4741,-41.8406 40.903,-26.3397 43.9615,-15.6348"/>
<polygon fill="black" stroke="black" points="47.3729,-16.4348 46.7549,-5.858 40.6422,-14.5117 47.3729,-16.4348"/>
</g>
<!-- alrl -->
<g id="node14" class="node"><title>alrl</title>
<ellipse fill="black" stroke="black" cx="69" cy="-4" rx="1.8" ry="1.8"/>
</g>
<!-- alr&#45;&gt;alrl -->
<g id="edge13" class="edge"><title>alr&#45;&gt;alrl</title>
<path fill="none" stroke="black" d="M91.4315,-45.9618C89.1244,-41.749 80.3057,-25.6451 74.437,-14.9285"/>
<polygon fill="black" stroke="black" points="77.3429,-12.9479 69.4699,-5.858 71.2032,-16.3101 77.3429,-12.9479"/>
</g>
<!-- alrm -->
<!-- alr&#45;&gt;alrm -->
<!-- alrr -->
<g id="node16" class="node"><title>alrr</title>
<ellipse fill="black" stroke="black" cx="115" cy="-4" rx="1.8" ry="1.8"/>
</g>
<!-- alr&#45;&gt;alrr -->
<g id="edge15" class="edge"><title>alr&#45;&gt;alrr</title>
<path fill="none" stroke="black" d="M92.5685,-45.9618C94.8756,-41.749 103.694,-25.6451 109.563,-14.9285"/>
<polygon fill="black" stroke="black" points="112.797,-16.3101 114.53,-5.858 106.657,-12.9479 112.797,-16.3101"/>
</g>
<!-- arll -->
<g id="node17" class="node"><title>arll</title>
<ellipse fill="black" stroke="black" cx="137" cy="-4" rx="1.8" ry="1.8"/>
</g>
<!-- arl&#45;&gt;arll -->
<g id="edge16" class="edge"><title>arl&#45;&gt;arll</title>
<path fill="none" stroke="black" d="M159.431,-45.9618C157.124,-41.749 148.306,-25.6451 142.437,-14.9285"/>
<polygon fill="black" stroke="black" points="145.343,-12.9479 137.47,-5.858 139.203,-16.3101 145.343,-12.9479"/>
</g>
<!-- arlm -->
<!-- arl&#45;&gt;arlm -->
<!-- arlr -->
<g id="node19" class="node"><title>arlr</title>
<ellipse fill="black" stroke="black" cx="183" cy="-4" rx="1.8" ry="1.8"/>
</g>
<!-- arl&#45;&gt;arlr -->
<g id="edge18" class="edge"><title>arl&#45;&gt;arlr</title>
<path fill="none" stroke="black" d="M160.569,-45.9618C162.876,-41.749 171.694,-25.6451 177.563,-14.9285"/>
<polygon fill="black" stroke="black" points="180.797,-16.3101 182.53,-5.858 174.657,-12.9479 180.797,-16.3101"/>
</g>
<!-- arrl -->
<g id="node20" class="node"><title>arrl</title>
<ellipse fill="black" stroke="black" cx="205" cy="-4" rx="1.8" ry="1.8"/>
</g>
<!-- arr&#45;&gt;arrl -->
<g id="edge19" class="edge"><title>arr&#45;&gt;arrl</title>
<path fill="none" stroke="black" d="M216.703,-45.9618C215.526,-41.8406 211.097,-26.3397 208.039,-15.6348"/>
<polygon fill="black" stroke="black" points="211.358,-14.5117 205.245,-5.858 204.627,-16.4348 211.358,-14.5117"/>
</g>
<!-- arrm -->
<!-- arr&#45;&gt;arrm -->
<!-- arrr -->
<g id="node22" class="node"><title>arrr</title>
<ellipse fill="black" stroke="black" cx="251" cy="-4" rx="1.8" ry="1.8"/>
</g>
<!-- arr&#45;&gt;arrr -->
<g id="edge21" class="edge"><title>arr&#45;&gt;arrr</title>
<path fill="none" stroke="black" d="M217.59,-46.271C220.659,-42.4803 234.991,-24.7764 243.857,-13.8238"/>
<polygon fill="black" stroke="black" points="246.71,-15.8616 250.282,-5.88692 241.27,-11.4572 246.71,-15.8616"/>
</g>
</g>
</svg>
