<?xml version="1.0" encoding="UTF-8" standalone="no"?>
<!DOCTYPE svg PUBLIC "-//W3C//DTD SVG 1.1//EN"
 "http://www.w3.org/Graphics/SVG/1.1/DTD/svg11.dtd">
<!-- Generated by graphviz version 2.36.0 (20140111.2315)
 -->
<!-- Title: G Pages: 1 -->
<svg width="296pt" height="520pt"
 viewBox="0.00 0.00 296.00 520.00" xmlns="http://www.w3.org/2000/svg" xmlns:xlink="http://www.w3.org/1999/xlink">
<g id="graph0" class="graph" transform="scale(1 1) rotate(0) translate(4 516)">
<title>G</title>
<polygon fill="white" stroke="none" points="-4,4 -4,-516 292,-516 292,4 -4,4"/>
<!-- l1 -->
<g id="node1" class="node"><title>l1</title>
<ellipse fill="black" stroke="black" cx="1" cy="-422" rx="1.8" ry="1.8"/>
</g>
<!-- m1 -->
<!-- l1&#45;&gt;m1 -->
<!-- 1 -->
<g id="node2" class="node"><title>1</title>
<ellipse fill="none" stroke="black" cx="24" cy="-494" rx="18" ry="18"/>
<text text-anchor="middle" x="24" y="-490.3" font-family="Helvetica,sans-Serif" font-size="14.00">1</text>
</g>
<!-- 1&#45;&gt;l1 -->
<g id="edge1" class="edge"><title>1&#45;&gt;l1</title>
<path fill="none" stroke="black" d="M18.6655,-476.765C15.3463,-466.663 11.0541,-453.599 7.53176,-442.879"/>
<polygon fill="black" stroke="black" points="-3.16368,-426.346 6.33664,-423.224 6.96095,-425.124 -2.53937,-428.246 -3.16368,-426.346"/>
<polyline fill="none" stroke="black" points="1.27432,-423.835 2.83511,-428.585 "/>
<polygon fill="black" stroke="black" points="-1.6029,-431.096 7.89742,-427.974 8.52174,-429.874 -0.978583,-432.996 -1.6029,-431.096"/>
<polyline fill="none" stroke="black" points="2.83511,-428.585 4.39589,-433.335 "/>
<polygon fill="black" stroke="black" points="10.8426,-441.743 4.39589,-433.335 4.19235,-443.928 10.8426,-441.743"/>
</g>
<!-- 1&#45;&gt;m1 -->
<!-- 2 -->
<g id="node4" class="node"><title>2</title>
<ellipse fill="none" stroke="black" cx="64" cy="-422" rx="18" ry="18"/>
<text text-anchor="middle" x="64" y="-418.3" font-family="Helvetica,sans-Serif" font-size="14.00">2</text>
</g>
<!-- 1&#45;&gt;2 -->
<g id="edge3" class="edge"><title>1&#45;&gt;2</title>
<path fill="none" stroke="black" d="M32.6794,-477.811C37.8162,-468.822 44.4387,-457.232 50.27,-447.028"/>
<polygon fill="black" stroke="black" points="53.415,-448.578 55.3375,-438.159 47.3372,-445.105 53.415,-448.578"/>
</g>
<!-- m1&#45;&gt;2 -->
<!-- l2 -->
<g id="node5" class="node"><title>l2</title>
<ellipse fill="black" stroke="black" cx="41" cy="-350" rx="1.8" ry="1.8"/>
</g>
<!-- 2&#45;&gt;l2 -->
<g id="edge6" class="edge"><title>2&#45;&gt;l2</title>
<path fill="none" stroke="black" d="M58.6655,-404.765C55.3463,-394.663 51.0541,-381.599 47.5318,-370.879"/>
<polygon fill="black" stroke="black" points="36.8363,-354.346 46.3366,-351.224 46.961,-353.124 37.4606,-356.246 36.8363,-354.346"/>
<polyline fill="none" stroke="black" points="41.2743,-351.835 42.8351,-356.585 "/>
<polygon fill="black" stroke="black" points="38.3971,-359.096 47.8974,-355.974 48.5217,-357.874 39.0214,-360.996 38.3971,-359.096"/>
<polyline fill="none" stroke="black" points="42.8351,-356.585 44.3959,-361.335 "/>
<polygon fill="black" stroke="black" points="50.8426,-369.743 44.3959,-361.335 44.1923,-371.928 50.8426,-369.743"/>
</g>
<!-- m2 -->
<!-- 2&#45;&gt;m2 -->
<!-- 3 -->
<g id="node7" class="node"><title>3</title>
<ellipse fill="none" stroke="black" cx="104" cy="-350" rx="18" ry="18"/>
<text text-anchor="middle" x="104" y="-346.3" font-family="Helvetica,sans-Serif" font-size="14.00">3</text>
</g>
<!-- 2&#45;&gt;3 -->
<g id="edge8" class="edge"><title>2&#45;&gt;3</title>
<path fill="none" stroke="black" d="M72.6794,-405.811C77.8162,-396.822 84.4387,-385.232 90.27,-375.028"/>
<polygon fill="black" stroke="black" points="93.415,-376.578 95.3375,-366.159 87.3372,-373.105 93.415,-376.578"/>
</g>
<!-- l2&#45;&gt;m2 -->
<!-- m2&#45;&gt;3 -->
<!-- l3 -->
<g id="node8" class="node"><title>l3</title>
<ellipse fill="black" stroke="black" cx="81" cy="-278" rx="1.8" ry="1.8"/>
</g>
<!-- 3&#45;&gt;l3 -->
<g id="edge11" class="edge"><title>3&#45;&gt;l3</title>
<path fill="none" stroke="black" d="M98.6655,-332.765C95.3463,-322.663 91.0541,-309.599 87.5318,-298.879"/>
<polygon fill="black" stroke="black" points="76.8363,-282.346 86.3366,-279.224 86.961,-281.124 77.4606,-284.246 76.8363,-282.346"/>
<polyline fill="none" stroke="black" points="81.2743,-279.835 82.8351,-284.585 "/>
<polygon fill="black" stroke="black" points="78.3971,-287.096 87.8974,-283.974 88.5217,-285.874 79.0214,-288.996 78.3971,-287.096"/>
<polyline fill="none" stroke="black" points="82.8351,-284.585 84.3959,-289.335 "/>
<polygon fill="black" stroke="black" points="90.8426,-297.743 84.3959,-289.335 84.1923,-299.928 90.8426,-297.743"/>
</g>
<!-- m3 -->
<!-- 3&#45;&gt;m3 -->
<!-- 4 -->
<g id="node10" class="node"><title>4</title>
<ellipse fill="none" stroke="black" cx="144" cy="-278" rx="18" ry="18"/>
<text text-anchor="middle" x="144" y="-274.3" font-family="Helvetica,sans-Serif" font-size="14.00">4</text>
</g>
<!-- 3&#45;&gt;4 -->
<g id="edge13" class="edge"><title>3&#45;&gt;4</title>
<path fill="none" stroke="black" d="M112.679,-333.811C117.816,-324.822 124.439,-313.232 130.27,-303.028"/>
<polygon fill="black" stroke="black" points="133.415,-304.578 135.338,-294.159 127.337,-301.105 133.415,-304.578"/>
</g>
<!-- l3&#45;&gt;m3 -->
<!-- m3&#45;&gt;4 -->
<!-- l4 -->
<g id="node11" class="node"><title>l4</title>
<ellipse fill="black" stroke="black" cx="121" cy="-206" rx="1.8" ry="1.8"/>
</g>
<!-- 4&#45;&gt;l4 -->
<g id="edge16" class="edge"><title>4&#45;&gt;l4</title>
<path fill="none" stroke="black" d="M138.666,-260.765C135.346,-250.663 131.054,-237.599 127.532,-226.879"/>
<polygon fill="black" stroke="black" points="116.836,-210.346 126.337,-207.224 126.961,-209.124 117.461,-212.246 116.836,-210.346"/>
<polyline fill="none" stroke="black" points="121.274,-207.835 122.835,-212.585 "/>
<polygon fill="black" stroke="black" points="118.397,-215.096 127.897,-211.974 128.522,-213.874 119.021,-216.996 118.397,-215.096"/>
<polyline fill="none" stroke="black" points="122.835,-212.585 124.396,-217.335 "/>
<polygon fill="black" stroke="black" points="130.843,-225.743 124.396,-217.335 124.192,-227.928 130.843,-225.743"/>
</g>
<!-- m4 -->
<!-- 4&#45;&gt;m4 -->
<!-- 5 -->
<g id="node13" class="node"><title>5</title>
<ellipse fill="none" stroke="black" cx="184" cy="-206" rx="18" ry="18"/>
<text text-anchor="middle" x="184" y="-202.3" font-family="Helvetica,sans-Serif" font-size="14.00">5</text>
</g>
<!-- 4&#45;&gt;5 -->
<g id="edge18" class="edge"><title>4&#45;&gt;5</title>
<path fill="none" stroke="black" d="M152.679,-261.811C157.816,-252.822 164.439,-241.232 170.27,-231.028"/>
<polygon fill="black" stroke="black" points="173.415,-232.578 175.338,-222.159 167.337,-229.105 173.415,-232.578"/>
</g>
<!-- l4&#45;&gt;m4 -->
<!-- m4&#45;&gt;5 -->
<!-- l5 -->
<g id="node14" class="node"><title>l5</title>
<ellipse fill="black" stroke="black" cx="161" cy="-134" rx="1.8" ry="1.8"/>
</g>
<!-- 5&#45;&gt;l5 -->
<g id="edge21" class="edge"><title>5&#45;&gt;l5</title>
<path fill="none" stroke="black" d="M178.666,-188.765C175.346,-178.663 171.054,-165.599 167.532,-154.879"/>
<polygon fill="black" stroke="black" points="156.836,-138.346 166.337,-135.224 166.961,-137.124 157.461,-140.246 156.836,-138.346"/>
<polyline fill="none" stroke="black" points="161.274,-135.835 162.835,-140.585 "/>
<polygon fill="black" stroke="black" points="158.397,-143.096 167.897,-139.974 168.522,-141.874 159.021,-144.996 158.397,-143.096"/>
<polyline fill="none" stroke="black" points="162.835,-140.585 164.396,-145.335 "/>
<polygon fill="black" stroke="black" points="170.843,-153.743 164.396,-145.335 164.192,-155.928 170.843,-153.743"/>
</g>
<!-- m5 -->
<!-- 5&#45;&gt;m5 -->
<!-- 6 -->
<g id="node16" class="node"><title>6</title>
<ellipse fill="none" stroke="black" cx="224" cy="-134" rx="18" ry="18"/>
<text text-anchor="middle" x="224" y="-130.3" font-family="Helvetica,sans-Serif" font-size="14.00">6</text>
</g>
<!-- 5&#45;&gt;6 -->
<g id="edge23" class="edge"><title>5&#45;&gt;6</title>
<path fill="none" stroke="black" d="M192.679,-189.811C197.816,-180.822 204.439,-169.232 210.27,-159.028"/>
<polygon fill="black" stroke="black" points="213.415,-160.578 215.338,-150.159 207.337,-157.105 213.415,-160.578"/>
</g>
<!-- l5&#45;&gt;m5 -->
<!-- m5&#45;&gt;6 -->
<!-- l6 -->
<g id="node17" class="node"><title>l6</title>
<ellipse fill="black" stroke="black" cx="201" cy="-62" rx="1.8" ry="1.8"/>
</g>
<!-- 6&#45;&gt;l6 -->
<g id="edge26" class="edge"><title>6&#45;&gt;l6</title>
<path fill="none" stroke="black" d="M218.666,-116.765C215.346,-106.663 211.054,-93.5994 207.532,-82.8793"/>
<polygon fill="black" stroke="black" points="196.836,-66.3457 206.337,-63.2241 206.961,-65.1242 197.461,-68.2458 196.836,-66.3457"/>
<polyline fill="none" stroke="black" points="201.274,-63.8349 202.835,-68.5851 "/>
<polygon fill="black" stroke="black" points="198.397,-71.0959 207.897,-67.9743 208.522,-69.8744 199.021,-72.9959 198.397,-71.0959"/>
<polyline fill="none" stroke="black" points="202.835,-68.5851 204.396,-73.3352 "/>
<polygon fill="black" stroke="black" points="210.843,-81.743 204.396,-73.3352 204.192,-83.9281 210.843,-81.743"/>
</g>
<!-- m6 -->
<!-- 6&#45;&gt;m6 -->
<!-- 7 -->
<g id="node19" class="node"><title>7</title>
<ellipse fill="none" stroke="black" cx="264" cy="-62" rx="18" ry="18"/>
<text text-anchor="middle" x="264" y="-58.3" font-family="Helvetica,sans-Serif" font-size="14.00">7</text>
</g>
<!-- 6&#45;&gt;7 -->
<g id="edge28" class="edge"><title>6&#45;&gt;7</title>
<path fill="none" stroke="black" d="M232.679,-117.811C237.816,-108.822 244.439,-97.2323 250.27,-87.0275"/>
<polygon fill="black" stroke="black" points="253.415,-88.5783 255.338,-78.1593 247.337,-85.1053 253.415,-88.5783"/>
</g>
<!-- l6&#45;&gt;m6 -->
<!-- m6&#45;&gt;7 -->
<!-- l7 -->
<g id="node20" class="node"><title>l7</title>
<ellipse fill="black" stroke="black" cx="241" cy="-4" rx="1.8" ry="1.8"/>
</g>
<!-- 7&#45;&gt;l7 -->
<g id="edge31" class="edge"><title>7&#45;&gt;l7</title>
<path fill="none" stroke="black" d="M257.471,-45.1024C254.868,-38.7646 251.844,-31.4023 249.103,-24.7287"/>
<polygon fill="black" stroke="black" points="237.184,-8.86872 246.434,-5.06951 247.194,-6.91955 237.943,-10.7188 237.184,-8.86872"/>
<polyline fill="none" stroke="black" points="241.429,-6.04409 243.328,-10.6692 "/>
<polygon fill="black" stroke="black" points="239.083,-13.4938 248.333,-9.69461 249.093,-11.5446 239.843,-15.3439 239.083,-13.4938"/>
<polyline fill="none" stroke="black" points="243.328,-10.6692 245.228,-15.2943 "/>
<polygon fill="black" stroke="black" points="252.265,-23.2148 245.228,-15.2943 245.79,-25.8742 252.265,-23.2148"/>
</g>
<!-- m7 -->
<!-- 7&#45;&gt;m7 -->
<!-- r7 -->
<g id="node22" class="node"><title>r7</title>
<ellipse fill="black" stroke="black" cx="287" cy="-4" rx="1.8" ry="1.8"/>
</g>
<!-- 7&#45;&gt;r7 -->
<g id="edge33" class="edge"><title>7&#45;&gt;r7</title>
<path fill="none" stroke="black" d="M270.529,-45.1024C273.132,-38.7646 276.156,-31.4023 278.897,-24.7287"/>
<polygon fill="black" stroke="black" points="281.566,-5.06951 290.816,-8.86872 290.057,-10.7188 280.806,-6.91955 281.566,-5.06951"/>
<polyline fill="none" stroke="black" points="286.571,-6.04409 284.672,-10.6692 "/>
<polygon fill="black" stroke="black" points="279.667,-9.69461 288.917,-13.4938 288.157,-15.3439 278.907,-11.5446 279.667,-9.69461"/>
<polyline fill="none" stroke="black" points="284.672,-10.6692 282.772,-15.2943 "/>
<polygon fill="black" stroke="black" points="282.21,-25.8742 282.772,-15.2943 275.735,-23.2148 282.21,-25.8742"/>
</g>
<!-- l7&#45;&gt;m7 -->
<!-- m7&#45;&gt;r7 -->
</g>
</svg>
