<?xml version="1.0" encoding="UTF-8" standalone="no"?>
<!DOCTYPE svg PUBLIC "-//W3C//DTD SVG 1.1//EN"
 "http://www.w3.org/Graphics/SVG/1.1/DTD/svg11.dtd">
<!-- Generated by graphviz version 2.26.3 (20100126.1600)
 -->
<!-- Title: G Pages: 1 -->
<svg width="326pt" height="194pt"
 viewBox="0.00 0.00 326.00 194.00" xmlns="http://www.w3.org/2000/svg" xmlns:xlink="http://www.w3.org/1999/xlink">
<g id="graph1" class="graph" transform="scale(1 1) rotate(0) translate(4 190)">
<title>G</title>
<polygon fill="white" stroke="white" points="-4,5 -4,-190 323,-190 323,5 -4,5"/>
<!-- 1 -->
<g id="node1" class="node"><title>1</title>
<ellipse fill="none" stroke="black" cx="141" cy="-167" rx="27" ry="19.0919"/>
<text text-anchor="middle" x="141" y="-163.9" font-family="Helvetica,sans-Serif" font-size="14.00">1</text>
</g>
<!-- 2 -->
<g id="node3" class="node"><title>2</title>
<ellipse fill="none" stroke="black" cx="81" cy="-93" rx="27" ry="19.0919"/>
<text text-anchor="middle" x="81" y="-89.9" font-family="Helvetica,sans-Serif" font-size="14.00">2</text>
</g>
<!-- 1&#45;&gt;2 -->
<g id="edge2" class="edge"><title>1&#45;&gt;2</title>
<path fill="none" stroke="black" d="M127.385,-150.208C119.56,-140.558 109.59,-128.261 100.9,-117.544"/>
<polygon fill="black" stroke="black" points="103.578,-115.289 94.561,-109.725 98.1405,-119.697 103.578,-115.289"/>
</g>
<!-- m1 -->
<!-- 1&#45;&gt;m1 -->
<!-- 3 -->
<g id="node7" class="node"><title>3</title>
<ellipse fill="none" stroke="black" cx="219" cy="-93" rx="27" ry="19.0919"/>
<text text-anchor="middle" x="219" y="-89.9" font-family="Helvetica,sans-Serif" font-size="14.00">3</text>
</g>
<!-- 1&#45;&gt;3 -->
<g id="edge6" class="edge"><title>1&#45;&gt;3</title>
<path fill="none" stroke="black" d="M157.162,-151.667C168.248,-141.15 183.135,-127.026 195.524,-115.272"/>
<polygon fill="black" stroke="black" points="198.013,-117.735 202.859,-108.313 193.195,-112.657 198.013,-117.735"/>
</g>
<!-- 2&#45;&gt;m1 -->
<!-- 4 -->
<g id="node11" class="node"><title>4</title>
<ellipse fill="none" stroke="black" cx="27" cy="-19" rx="27" ry="19.0919"/>
<text text-anchor="middle" x="27" y="-15.9" font-family="Helvetica,sans-Serif" font-size="14.00">4</text>
</g>
<!-- 2&#45;&gt;4 -->
<g id="edge12" class="edge"><title>2&#45;&gt;4</title>
<path fill="none" stroke="black" d="M68.4756,-75.8369C61.6601,-66.4972 53.0975,-54.7632 45.5247,-44.3857"/>
<polygon fill="black" stroke="black" points="48.1785,-42.0848 39.4565,-36.07 42.5239,-46.2111 48.1785,-42.0848"/>
</g>
<!-- m2 -->
<!-- 2&#45;&gt;m2 -->
<!-- 5 -->
<g id="node15" class="node"><title>5</title>
<ellipse fill="none" stroke="black" cx="123" cy="-19" rx="27" ry="19.0919"/>
<text text-anchor="middle" x="123" y="-15.9" font-family="Helvetica,sans-Serif" font-size="14.00">5</text>
</g>
<!-- 2&#45;&gt;5 -->
<g id="edge16" class="edge"><title>2&#45;&gt;5</title>
<path fill="none" stroke="black" d="M91.167,-75.0867C96.1712,-66.2698 102.306,-55.4617 107.849,-45.6947"/>
<polygon fill="black" stroke="black" points="111.034,-47.1729 112.927,-36.7484 104.947,-43.7176 111.034,-47.1729"/>
</g>
<!-- m1&#45;&gt;3 -->
<!-- 6 -->
<g id="node19" class="node"><title>6</title>
<ellipse fill="none" stroke="black" cx="195" cy="-19" rx="27" ry="19.0919"/>
<text text-anchor="middle" x="195" y="-15.9" font-family="Helvetica,sans-Serif" font-size="14.00">6</text>
</g>
<!-- 3&#45;&gt;6 -->
<g id="edge22" class="edge"><title>3&#45;&gt;6</title>
<path fill="none" stroke="black" d="M212.944,-74.3267C210.3,-66.1762 207.142,-56.4384 204.217,-47.4203"/>
<polygon fill="black" stroke="black" points="207.469,-46.0998 201.054,-37.6674 200.81,-48.2594 207.469,-46.0998"/>
</g>
<!-- m3 -->
<!-- 3&#45;&gt;m3 -->
<!-- 7 -->
<g id="node23" class="node"><title>7</title>
<ellipse fill="none" stroke="black" cx="291" cy="-19" rx="27" ry="19.0919"/>
<text text-anchor="middle" x="291" y="-15.9" font-family="Helvetica,sans-Serif" font-size="14.00">7</text>
</g>
<!-- 3&#45;&gt;7 -->
<g id="edge26" class="edge"><title>3&#45;&gt;7</title>
<path fill="none" stroke="black" d="M234.269,-77.3065C244.225,-67.0746 257.389,-53.545 268.529,-42.0947"/>
<polygon fill="black" stroke="black" points="271.039,-44.534 275.504,-34.926 266.022,-39.6525 271.039,-44.534"/>
</g>
<!-- 4&#45;&gt;m2 -->
<!-- m2&#45;&gt;5 -->
<!-- 6&#45;&gt;m3 -->
<!-- m3&#45;&gt;7 -->
</g>
</svg>
