<?xml version="1.0" encoding="UTF-8" standalone="no"?>
<!DOCTYPE svg PUBLIC "-//W3C//DTD SVG 1.1//EN"
 "http://www.w3.org/Graphics/SVG/1.1/DTD/svg11.dtd">
<!-- Generated by graphviz version 2.36.0 (20140111.2315)
 -->
<!-- Title: G Pages: 1 -->
<svg width="399pt" height="332pt"
 viewBox="0.00 0.00 399.00 332.00" xmlns="http://www.w3.org/2000/svg" xmlns:xlink="http://www.w3.org/1999/xlink">
<g id="graph0" class="graph" transform="scale(1 1) rotate(0) translate(4 328)">
<title>G</title>
<polygon fill="white" stroke="none" points="-4,4 -4,-328 395,-328 395,4 -4,4"/>
<!-- 8 -->
<g id="node1" class="node"><title>8</title>
<ellipse fill="none" stroke="black" cx="155" cy="-306" rx="27" ry="18"/>
<text text-anchor="middle" x="155" y="-302.3" font-family="Helvetica,sans-Serif" font-size="14.00">8</text>
</g>
<!-- 5 -->
<g id="node2" class="node"><title>5</title>
<ellipse fill="none" stroke="black" cx="95" cy="-234" rx="27" ry="18"/>
<text text-anchor="middle" x="95" y="-230.3" font-family="Helvetica,sans-Serif" font-size="14.00">5</text>
</g>
<!-- 8&#45;&gt;5 -->
<g id="edge1" class="edge"><title>8&#45;&gt;5</title>
<path fill="none" stroke="black" d="M141.981,-289.811C133.961,-280.455 123.527,-268.282 114.53,-257.785"/>
<polygon fill="black" stroke="black" points="117.159,-255.474 107.994,-250.159 111.844,-260.03 117.159,-255.474"/>
</g>
<!-- m8 -->
<!-- 8&#45;&gt;m8 -->
<!-- 11 -->
<g id="node4" class="node"><title>11</title>
<ellipse fill="none" stroke="black" cx="222" cy="-234" rx="27" ry="18"/>
<text text-anchor="middle" x="222" y="-230.3" font-family="Helvetica,sans-Serif" font-size="14.00">11</text>
</g>
<!-- 8&#45;&gt;11 -->
<g id="edge3" class="edge"><title>8&#45;&gt;11</title>
<path fill="none" stroke="black" d="M168.882,-290.496C178.135,-280.829 190.471,-267.94 200.926,-257.017"/>
<polygon fill="black" stroke="black" points="203.749,-259.13 208.135,-249.485 198.692,-254.29 203.749,-259.13"/>
</g>
<!-- 5&#45;&gt;m8 -->
<!-- 2 -->
<g id="node5" class="node"><title>2</title>
<ellipse fill="none" stroke="black" cx="28" cy="-162" rx="27" ry="18"/>
<text text-anchor="middle" x="28" y="-158.3" font-family="Helvetica,sans-Serif" font-size="14.00">2</text>
</g>
<!-- 5&#45;&gt;2 -->
<g id="edge6" class="edge"><title>5&#45;&gt;2</title>
<path fill="none" stroke="black" d="M81.1176,-218.496C71.8646,-208.829 59.5286,-195.94 49.0738,-185.017"/>
<polygon fill="black" stroke="black" points="51.3077,-182.29 41.8647,-177.485 46.2508,-187.13 51.3077,-182.29"/>
</g>
<!-- m5 -->
<!-- 5&#45;&gt;m5 -->
<!-- 6 -->
<g id="node7" class="node"><title>6</title>
<ellipse fill="none" stroke="black" cx="126" cy="-162" rx="27" ry="18"/>
<text text-anchor="middle" x="126" y="-158.3" font-family="Helvetica,sans-Serif" font-size="14.00">6</text>
</g>
<!-- 5&#45;&gt;6 -->
<g id="edge8" class="edge"><title>5&#45;&gt;6</title>
<path fill="none" stroke="black" d="M102.347,-216.411C106.014,-208.129 110.533,-197.925 114.635,-188.662"/>
<polygon fill="black" stroke="black" points="117.857,-190.031 118.706,-179.47 111.457,-187.196 117.857,-190.031"/>
</g>
<!-- m8&#45;&gt;11 -->
<!-- 10 -->
<g id="node11" class="node"><title>10</title>
<ellipse fill="none" stroke="red" cx="198" cy="-162" rx="27" ry="18"/>
<text text-anchor="middle" x="198" y="-158.3" font-family="Helvetica,sans-Serif" font-size="14.00">10</text>
</g>
<!-- 11&#45;&gt;10 -->
<g id="edge16" class="edge"><title>11&#45;&gt;10</title>
<path fill="none" stroke="black" d="M216.19,-216.055C213.449,-208.059 210.113,-198.331 207.051,-189.4"/>
<polygon fill="black" stroke="black" points="210.31,-188.113 203.756,-179.789 203.689,-190.384 210.31,-188.113"/>
</g>
<!-- m11 -->
<!-- 11&#45;&gt;m11 -->
<!-- 18 -->
<g id="node13" class="node"><title>18</title>
<ellipse fill="none" stroke="black" cx="302" cy="-162" rx="27" ry="18"/>
<text text-anchor="middle" x="302" y="-158.3" font-family="Helvetica,sans-Serif" font-size="14.00">18</text>
</g>
<!-- 11&#45;&gt;18 -->
<g id="edge18" class="edge"><title>11&#45;&gt;18</title>
<path fill="none" stroke="black" d="M237.805,-219.17C249.42,-209.008 265.394,-195.03 278.501,-183.561"/>
<polygon fill="black" stroke="black" points="281.006,-186.02 286.227,-176.801 276.397,-180.752 281.006,-186.02"/>
</g>
<!-- 2&#45;&gt;m5 -->
<!-- l2 -->
<!-- 2&#45;&gt;l2 -->
<!-- m2 -->
<!-- 2&#45;&gt;m2 -->
<!-- 4 -->
<g id="node10" class="node"><title>4</title>
<ellipse fill="none" stroke="black" cx="77" cy="-90" rx="27" ry="18"/>
<text text-anchor="middle" x="77" y="-86.3" font-family="Helvetica,sans-Serif" font-size="14.00">4</text>
</g>
<!-- 2&#45;&gt;4 -->
<g id="edge13" class="edge"><title>2&#45;&gt;4</title>
<path fill="none" stroke="black" d="M38.8747,-145.465C45.1551,-136.493 53.187,-125.019 60.2577,-114.918"/>
<polygon fill="black" stroke="black" points="63.2884,-116.691 66.1557,-106.492 57.5537,-112.677 63.2884,-116.691"/>
</g>
<!-- m5&#45;&gt;6 -->
<!-- l2&#45;&gt;m2 -->
<!-- m2&#45;&gt;4 -->
<!-- 10&#45;&gt;m11 -->
<!-- l10 -->
<!-- 10&#45;&gt;l10 -->
<!-- m10 -->
<!-- 10&#45;&gt;m10 -->
<!-- 15 -->
<g id="node16" class="node"><title>15</title>
<ellipse fill="none" stroke="black" cx="240" cy="-90" rx="27" ry="18"/>
<text text-anchor="middle" x="240" y="-86.3" font-family="Helvetica,sans-Serif" font-size="14.00">15</text>
</g>
<!-- 10&#45;&gt;15 -->
<g id="edge23" class="edge"><title>10&#45;&gt;15</title>
<path fill="none" stroke="red" d="M207.53,-145.116C212.666,-136.557 219.122,-125.797 224.921,-116.132"/>
<polygon fill="red" stroke="red" points="228.072,-117.683 230.216,-107.307 222.07,-114.081 228.072,-117.683"/>
</g>
<!-- m11&#45;&gt;18 -->
<!-- l18 -->
<!-- 18&#45;&gt;l18 -->
<!-- m18 -->
<!-- 18&#45;&gt;m18 -->
<!-- 20 -->
<g id="node19" class="node"><title>20</title>
<ellipse fill="none" stroke="red" cx="363" cy="-90" rx="27" ry="18"/>
<text text-anchor="middle" x="363" y="-86.3" font-family="Helvetica,sans-Serif" font-size="14.00">20</text>
</g>
<!-- 18&#45;&gt;20 -->
<g id="edge28" class="edge"><title>18&#45;&gt;20</title>
<path fill="none" stroke="black" d="M314.937,-146.155C323.186,-136.689 334.035,-124.238 343.338,-113.563"/>
<polygon fill="black" stroke="black" points="346.151,-115.662 350.082,-105.824 340.874,-111.063 346.151,-115.662"/>
</g>
<!-- l10&#45;&gt;m10 -->
<!-- m10&#45;&gt;15 -->
<!-- l18&#45;&gt;m18 -->
<!-- m18&#45;&gt;20 -->
<!-- 21 -->
<g id="node20" class="node"><title>21</title>
<ellipse fill="none" stroke="black" cx="314" cy="-18" rx="27" ry="18"/>
<text text-anchor="middle" x="314" y="-14.3" font-family="Helvetica,sans-Serif" font-size="14.00">21</text>
</g>
<!-- 20&#45;&gt;21 -->
<g id="edge31" class="edge"><title>20&#45;&gt;21</title>
<path fill="none" stroke="red" d="M352.125,-73.4647C345.845,-64.4927 337.813,-53.0185 330.742,-42.9176"/>
<polygon fill="red" stroke="red" points="333.446,-40.677 324.844,-34.4918 327.712,-44.6913 333.446,-40.677"/>
</g>
<!-- m20 -->
<!-- 20&#45;&gt;m20 -->
<!-- r20 -->
<!-- 20&#45;&gt;r20 -->
<!-- 21&#45;&gt;m20 -->
<!-- m20&#45;&gt;r20 -->
</g>
</svg>
