<?xml version="1.0" encoding="UTF-8" standalone="no"?>
<!DOCTYPE svg PUBLIC "-//W3C//DTD SVG 1.1//EN"
 "http://www.w3.org/Graphics/SVG/1.1/DTD/svg11.dtd">
<!-- Generated by graphviz version 2.26.3 (20100126.1600)
 -->
<!-- Title: G Pages: 1 -->
<svg width="254pt" height="268pt"
 viewBox="0.00 0.00 254.00 268.00" xmlns="http://www.w3.org/2000/svg" xmlns:xlink="http://www.w3.org/1999/xlink">
<g id="graph1" class="graph" transform="scale(1 1) rotate(0) translate(4 264)">
<title>G</title>
<polygon fill="white" stroke="white" points="-4,5 -4,-264 251,-264 251,5 -4,5"/>
<!-- 7 -->
<g id="node1" class="node"><title>7</title>
<ellipse fill="none" stroke="green" cx="123" cy="-241" rx="27" ry="19.0919"/>
<text text-anchor="middle" x="123" y="-237.9" font-family="Helvetica,sans-Serif" font-size="14.00">7</text>
</g>
<!-- 4 -->
<g id="node3" class="node"><title>4</title>
<ellipse fill="none" stroke="black" cx="75" cy="-167" rx="27" ry="19.0919"/>
<text text-anchor="middle" x="75" y="-163.9" font-family="Helvetica,sans-Serif" font-size="14.00">4</text>
</g>
<!-- 7&#45;&gt;4 -->
<g id="edge2" class="edge"><title>7&#45;&gt;4</title>
<path fill="none" stroke="black" d="M111.625,-223.463C105.707,-214.339 98.3569,-203.009 91.7981,-192.897"/>
<polygon fill="black" stroke="black" points="94.672,-190.896 86.2937,-184.411 88.7993,-194.705 94.672,-190.896"/>
</g>
<!-- null1 -->
<!-- 7&#45;&gt;null1 -->
<!-- 8 -->
<g id="node7" class="node"><title>8</title>
<ellipse fill="none" stroke="black" cx="171" cy="-167" rx="27" ry="19.0919"/>
<text text-anchor="middle" x="171" y="-163.9" font-family="Helvetica,sans-Serif" font-size="14.00">8</text>
</g>
<!-- 7&#45;&gt;8 -->
<g id="edge6" class="edge"><title>7&#45;&gt;8</title>
<path fill="none" stroke="black" d="M134.375,-223.463C140.293,-214.339 147.643,-203.009 154.202,-192.897"/>
<polygon fill="black" stroke="black" points="157.201,-194.705 159.706,-184.411 151.328,-190.896 157.201,-194.705"/>
</g>
<!-- 4&#45;&gt;null1 -->
<!-- 1 -->
<g id="node11" class="node"><title>1</title>
<ellipse fill="none" stroke="black" cx="27" cy="-93" rx="27" ry="19.0919"/>
<text text-anchor="middle" x="27" y="-89.9" font-family="Helvetica,sans-Serif" font-size="14.00">1</text>
</g>
<!-- 4&#45;&gt;1 -->
<g id="edge12" class="edge"><title>4&#45;&gt;1</title>
<path fill="none" stroke="black" d="M63.6247,-149.463C57.7066,-140.339 50.3569,-129.009 43.7981,-118.897"/>
<polygon fill="black" stroke="black" points="46.672,-116.896 38.2937,-110.411 40.7993,-120.705 46.672,-116.896"/>
</g>
<!-- null2 -->
<!-- 4&#45;&gt;null2 -->
<!-- null3 -->
<!-- 4&#45;&gt;null3 -->
<!-- null1&#45;&gt;8 -->
<!-- null7 -->
<!-- 8&#45;&gt;null7 -->
<!-- null6 -->
<!-- 8&#45;&gt;null6 -->
<!-- 11 -->
<g id="node31" class="node"><title>11</title>
<ellipse fill="none" stroke="black" cx="219" cy="-93" rx="27" ry="19.0919"/>
<text text-anchor="middle" x="219" y="-89.9" font-family="Helvetica,sans-Serif" font-size="14.00">11</text>
</g>
<!-- 8&#45;&gt;11 -->
<g id="edge36" class="edge"><title>8&#45;&gt;11</title>
<path fill="none" stroke="black" d="M182.375,-149.463C188.293,-140.339 195.643,-129.009 202.202,-118.897"/>
<polygon fill="black" stroke="black" points="205.201,-120.705 207.706,-110.411 199.328,-116.896 205.201,-120.705"/>
</g>
<!-- 1&#45;&gt;null2 -->
<!-- null4 -->
<!-- 1&#45;&gt;null4 -->
<!-- null5 -->
<!-- 1&#45;&gt;null5 -->
<!-- 3 -->
<g id="node23" class="node"><title>3</title>
<ellipse fill="none" stroke="black" cx="75" cy="-19" rx="27" ry="19.0919"/>
<text text-anchor="middle" x="75" y="-15.9" font-family="Helvetica,sans-Serif" font-size="14.00">3</text>
</g>
<!-- 1&#45;&gt;3 -->
<g id="edge26" class="edge"><title>1&#45;&gt;3</title>
<path fill="none" stroke="black" d="M38.3753,-75.463C44.2934,-66.3394 51.6431,-55.0086 58.2019,-44.897"/>
<polygon fill="black" stroke="black" points="61.2007,-46.7054 63.7063,-36.4111 55.328,-42.896 61.2007,-46.7054"/>
</g>
<!-- null2&#45;&gt;null3 -->
<!-- null4&#45;&gt;null5 -->
<!-- null5&#45;&gt;3 -->
<!-- null7&#45;&gt;null6 -->
<!-- null6&#45;&gt;11 -->
</g>
</svg>
