<?xml version="1.0" encoding="UTF-8" standalone="no"?>
<!DOCTYPE svg PUBLIC "-//W3C//DTD SVG 1.1//EN"
 "http://www.w3.org/Graphics/SVG/1.1/DTD/svg11.dtd">
<!-- Generated by graphviz version 2.36.0 (20140111.2315)
 -->
<!-- Title: G Pages: 1 -->
<svg width="218pt" height="266pt"
 viewBox="0.00 0.00 218.00 266.00" xmlns="http://www.w3.org/2000/svg" xmlns:xlink="http://www.w3.org/1999/xlink">
<g id="graph0" class="graph" transform="scale(1 1) rotate(0) translate(4 262)">
<title>G</title>
<polygon fill="white" stroke="none" points="-4,4 -4,-262 214,-262 214,4 -4,4"/>
<!-- 7 -->
<g id="node1" class="node"><title>7</title>
<ellipse fill="none" stroke="green" cx="108" cy="-240" rx="18" ry="18"/>
<text text-anchor="middle" x="108" y="-236.3" font-family="Helvetica,sans-Serif" font-size="14.00">7</text>
</g>
<!-- 4 -->
<g id="node2" class="node"><title>4</title>
<ellipse fill="none" stroke="black" cx="68" cy="-168" rx="18" ry="18"/>
<text text-anchor="middle" x="68" y="-164.3" font-family="Helvetica,sans-Serif" font-size="14.00">4</text>
</g>
<!-- 7&#45;&gt;4 -->
<g id="edge1" class="edge"><title>7&#45;&gt;4</title>
<path fill="none" stroke="black" d="M99.3206,-223.811C94.1838,-214.822 87.5613,-203.232 81.73,-193.028"/>
<polygon fill="black" stroke="black" points="84.6628,-191.105 76.6625,-184.159 78.585,-194.578 84.6628,-191.105"/>
</g>
<!-- null1 -->
<!-- 7&#45;&gt;null1 -->
<!-- 9 -->
<g id="node4" class="node"><title>9</title>
<ellipse fill="none" stroke="black" cx="148" cy="-168" rx="18" ry="18"/>
<text text-anchor="middle" x="148" y="-164.3" font-family="Helvetica,sans-Serif" font-size="14.00">9</text>
</g>
<!-- 7&#45;&gt;9 -->
<g id="edge3" class="edge"><title>7&#45;&gt;9</title>
<path fill="none" stroke="black" d="M116.679,-223.811C121.816,-214.822 128.439,-203.232 134.27,-193.028"/>
<polygon fill="black" stroke="black" points="137.415,-194.578 139.338,-184.159 131.337,-191.105 137.415,-194.578"/>
</g>
<!-- 4&#45;&gt;null1 -->
<!-- 1 -->
<g id="node5" class="node"><title>1</title>
<ellipse fill="none" stroke="black" cx="28" cy="-93" rx="18" ry="18"/>
<text text-anchor="middle" x="28" y="-89.3" font-family="Helvetica,sans-Serif" font-size="14.00">1</text>
</g>
<!-- 4&#45;&gt;1 -->
<g id="edge6" class="edge"><title>4&#45;&gt;1</title>
<path fill="none" stroke="black" d="M59.712,-151.874C54.3487,-142.086 47.2505,-129.132 41.1296,-117.961"/>
<polygon fill="black" stroke="black" points="44.1522,-116.194 36.2774,-109.106 38.0134,-119.558 44.1522,-116.194"/>
</g>
<!-- null2 -->
<!-- 4&#45;&gt;null2 -->
<!-- null3 -->
<!-- 4&#45;&gt;null3 -->
<!-- null1&#45;&gt;9 -->
<!-- null7 -->
<!-- 9&#45;&gt;null7 -->
<!-- null6 -->
<!-- 9&#45;&gt;null6 -->
<!-- 11 -->
<g id="node13" class="node"><title>11</title>
<ellipse fill="none" stroke="black" cx="190" cy="-93" rx="20.203" ry="20.5982"/>
<text text-anchor="middle" x="190" y="-89.3" font-family="Helvetica,sans-Serif" font-size="14.00">11</text>
</g>
<!-- 9&#45;&gt;11 -->
<g id="edge18" class="edge"><title>9&#45;&gt;11</title>
<path fill="none" stroke="black" d="M156.702,-151.874C161.943,-142.766 168.761,-130.915 174.862,-120.311"/>
<polygon fill="black" stroke="black" points="178.028,-121.828 179.981,-111.414 171.96,-118.337 178.028,-121.828"/>
</g>
<!-- 1&#45;&gt;null2 -->
<!-- null4 -->
<!-- 1&#45;&gt;null4 -->
<!-- null5 -->
<!-- 1&#45;&gt;null5 -->
<!-- 3 -->
<g id="node10" class="node"><title>3</title>
<ellipse fill="none" stroke="black" cx="68" cy="-18" rx="18" ry="18"/>
<text text-anchor="middle" x="68" y="-14.3" font-family="Helvetica,sans-Serif" font-size="14.00">3</text>
</g>
<!-- 1&#45;&gt;3 -->
<g id="edge13" class="edge"><title>1&#45;&gt;3</title>
<path fill="none" stroke="black" d="M36.288,-76.8744C41.6513,-67.0864 48.7495,-54.1321 54.8704,-42.9615"/>
<polygon fill="black" stroke="black" points="57.9866,-44.5579 59.7226,-34.1063 51.8478,-41.1942 57.9866,-44.5579"/>
</g>
<!-- null2&#45;&gt;null3 -->
<!-- null4&#45;&gt;null5 -->
<!-- null5&#45;&gt;3 -->
<!-- null7&#45;&gt;null6 -->
<!-- null6&#45;&gt;11 -->
</g>
</svg>
