<?xml version="1.0" encoding="UTF-8" standalone="no"?>
<!DOCTYPE svg PUBLIC "-//W3C//DTD SVG 1.1//EN"
 "http://www.w3.org/Graphics/SVG/1.1/DTD/svg11.dtd">
<!-- Generated by graphviz version 2.26.3 (20100126.1600)
 -->
<!-- Title: G Pages: 1 -->
<svg width="350pt" height="562pt"
 viewBox="0.00 0.00 350.00 562.00" xmlns="http://www.w3.org/2000/svg" xmlns:xlink="http://www.w3.org/1999/xlink">
<g id="graph1" class="graph" transform="scale(1 1) rotate(0) translate(4 558)">
<title>G</title>
<polygon fill="white" stroke="white" points="-4,5 -4,-558 347,-558 347,5 -4,5"/>
<!-- l1 -->
<g id="node1" class="node"><title>l1</title>
<ellipse fill="black" stroke="black" cx="4" cy="-461" rx="1.8" ry="1.8"/>
</g>
<!-- m1 -->
<!-- l1&#45;&gt;m1 -->
<!-- 1 -->
<g id="node2" class="node"><title>1</title>
<ellipse fill="none" stroke="black" cx="27" cy="-535" rx="27" ry="19.0919"/>
<text text-anchor="middle" x="27" y="-531.9" font-family="Helvetica,sans-Serif" font-size="14.00">1</text>
</g>
<!-- 1&#45;&gt;l1 -->
<g id="edge2" class="edge"><title>1&#45;&gt;l1</title>
<path fill="none" stroke="black" d="M21.1961,-516.327C17.9482,-505.877 13.8893,-492.818 10.5306,-482.012"/>
<polygon fill="black" stroke="black" points="0.0992769,-465.296 9.64866,-462.328 10.2423,-464.238 0.692894,-467.206 0.0992769,-465.296"/>
<polyline fill="none" stroke="black" points="4.57716,-462.857 6.0612,-467.632 "/>
<polygon fill="black" stroke="black" points="1.58332,-470.071 11.1327,-467.103 11.7263,-469.012 2.17694,-471.98 1.58332,-470.071"/>
<polyline fill="none" stroke="black" points="6.0612,-467.632 7.54525,-472.406 "/>
<polygon fill="black" stroke="black" points="13.8556,-480.917 7.54525,-472.406 7.17105,-482.995 13.8556,-480.917"/>
</g>
<!-- 1&#45;&gt;m1 -->
<!-- 2 -->
<g id="node7" class="node"><title>2</title>
<ellipse fill="none" stroke="black" cx="75" cy="-461" rx="27" ry="19.0919"/>
<text text-anchor="middle" x="75" y="-457.9" font-family="Helvetica,sans-Serif" font-size="14.00">2</text>
</g>
<!-- 1&#45;&gt;2 -->
<g id="edge6" class="edge"><title>1&#45;&gt;2</title>
<path fill="none" stroke="black" d="M38.3753,-517.463C44.2934,-508.339 51.6431,-497.009 58.2019,-486.897"/>
<polygon fill="black" stroke="black" points="61.2007,-488.705 63.7063,-478.411 55.328,-484.896 61.2007,-488.705"/>
</g>
<!-- m1&#45;&gt;2 -->
<!-- l2 -->
<g id="node10" class="node"><title>l2</title>
<ellipse fill="black" stroke="black" cx="52" cy="-387" rx="1.8" ry="1.8"/>
</g>
<!-- 2&#45;&gt;l2 -->
<g id="edge12" class="edge"><title>2&#45;&gt;l2</title>
<path fill="none" stroke="black" d="M69.1961,-442.327C65.9482,-431.877 61.8893,-418.818 58.5306,-408.012"/>
<polygon fill="black" stroke="black" points="48.0993,-391.296 57.6487,-388.328 58.2423,-390.238 48.6929,-393.206 48.0993,-391.296"/>
<polyline fill="none" stroke="black" points="52.5772,-388.857 54.0612,-393.632 "/>
<polygon fill="black" stroke="black" points="49.5833,-396.071 59.1327,-393.103 59.7263,-395.012 50.1769,-397.98 49.5833,-396.071"/>
<polyline fill="none" stroke="black" points="54.0612,-393.632 55.5452,-398.406 "/>
<polygon fill="black" stroke="black" points="61.8556,-406.917 55.5452,-398.406 55.171,-408.995 61.8556,-406.917"/>
</g>
<!-- m2 -->
<!-- 2&#45;&gt;m2 -->
<!-- 3 -->
<g id="node15" class="node"><title>3</title>
<ellipse fill="none" stroke="black" cx="123" cy="-387" rx="27" ry="19.0919"/>
<text text-anchor="middle" x="123" y="-383.9" font-family="Helvetica,sans-Serif" font-size="14.00">3</text>
</g>
<!-- 2&#45;&gt;3 -->
<g id="edge16" class="edge"><title>2&#45;&gt;3</title>
<path fill="none" stroke="black" d="M86.3753,-443.463C92.2934,-434.339 99.6431,-423.009 106.202,-412.897"/>
<polygon fill="black" stroke="black" points="109.201,-414.705 111.706,-404.411 103.328,-410.896 109.201,-414.705"/>
</g>
<!-- l2&#45;&gt;m2 -->
<!-- m2&#45;&gt;3 -->
<!-- l3 -->
<g id="node18" class="node"><title>l3</title>
<ellipse fill="black" stroke="black" cx="100" cy="-313" rx="1.8" ry="1.8"/>
</g>
<!-- 3&#45;&gt;l3 -->
<g id="edge22" class="edge"><title>3&#45;&gt;l3</title>
<path fill="none" stroke="black" d="M117.196,-368.327C113.948,-357.877 109.889,-344.818 106.531,-334.012"/>
<polygon fill="black" stroke="black" points="96.0993,-317.296 105.649,-314.328 106.242,-316.238 96.6929,-319.206 96.0993,-317.296"/>
<polyline fill="none" stroke="black" points="100.577,-314.857 102.061,-319.632 "/>
<polygon fill="black" stroke="black" points="97.5833,-322.071 107.133,-319.103 107.726,-321.012 98.1769,-323.98 97.5833,-322.071"/>
<polyline fill="none" stroke="black" points="102.061,-319.632 103.545,-324.406 "/>
<polygon fill="black" stroke="black" points="109.856,-332.917 103.545,-324.406 103.171,-334.995 109.856,-332.917"/>
</g>
<!-- m3 -->
<!-- 3&#45;&gt;m3 -->
<!-- 4 -->
<g id="node23" class="node"><title>4</title>
<ellipse fill="none" stroke="black" cx="171" cy="-313" rx="27" ry="19.0919"/>
<text text-anchor="middle" x="171" y="-309.9" font-family="Helvetica,sans-Serif" font-size="14.00">4</text>
</g>
<!-- 3&#45;&gt;4 -->
<g id="edge26" class="edge"><title>3&#45;&gt;4</title>
<path fill="none" stroke="black" d="M134.375,-369.463C140.293,-360.339 147.643,-349.009 154.202,-338.897"/>
<polygon fill="black" stroke="black" points="157.201,-340.705 159.706,-330.411 151.328,-336.896 157.201,-340.705"/>
</g>
<!-- l3&#45;&gt;m3 -->
<!-- m3&#45;&gt;4 -->
<!-- l4 -->
<g id="node26" class="node"><title>l4</title>
<ellipse fill="black" stroke="black" cx="148" cy="-239" rx="1.8" ry="1.8"/>
</g>
<!-- 4&#45;&gt;l4 -->
<g id="edge32" class="edge"><title>4&#45;&gt;l4</title>
<path fill="none" stroke="black" d="M165.196,-294.327C161.948,-283.877 157.889,-270.818 154.531,-260.012"/>
<polygon fill="black" stroke="black" points="144.099,-243.296 153.649,-240.328 154.242,-242.238 144.693,-245.206 144.099,-243.296"/>
<polyline fill="none" stroke="black" points="148.577,-240.857 150.061,-245.632 "/>
<polygon fill="black" stroke="black" points="145.583,-248.071 155.133,-245.103 155.726,-247.012 146.177,-249.98 145.583,-248.071"/>
<polyline fill="none" stroke="black" points="150.061,-245.632 151.545,-250.406 "/>
<polygon fill="black" stroke="black" points="157.856,-258.917 151.545,-250.406 151.171,-260.995 157.856,-258.917"/>
</g>
<!-- m4 -->
<!-- 4&#45;&gt;m4 -->
<!-- 5 -->
<g id="node31" class="node"><title>5</title>
<ellipse fill="none" stroke="black" cx="219" cy="-239" rx="27" ry="19.0919"/>
<text text-anchor="middle" x="219" y="-235.9" font-family="Helvetica,sans-Serif" font-size="14.00">5</text>
</g>
<!-- 4&#45;&gt;5 -->
<g id="edge36" class="edge"><title>4&#45;&gt;5</title>
<path fill="none" stroke="black" d="M182.375,-295.463C188.293,-286.339 195.643,-275.009 202.202,-264.897"/>
<polygon fill="black" stroke="black" points="205.201,-266.705 207.706,-256.411 199.328,-262.896 205.201,-266.705"/>
</g>
<!-- l4&#45;&gt;m4 -->
<!-- m4&#45;&gt;5 -->
<!-- l5 -->
<g id="node34" class="node"><title>l5</title>
<ellipse fill="black" stroke="black" cx="196" cy="-165" rx="1.8" ry="1.8"/>
</g>
<!-- 5&#45;&gt;l5 -->
<g id="edge42" class="edge"><title>5&#45;&gt;l5</title>
<path fill="none" stroke="black" d="M213.196,-220.327C209.948,-209.877 205.889,-196.818 202.531,-186.012"/>
<polygon fill="black" stroke="black" points="192.099,-169.296 201.649,-166.328 202.242,-168.238 192.693,-171.206 192.099,-169.296"/>
<polyline fill="none" stroke="black" points="196.577,-166.857 198.061,-171.632 "/>
<polygon fill="black" stroke="black" points="193.583,-174.071 203.133,-171.103 203.726,-173.012 194.177,-175.98 193.583,-174.071"/>
<polyline fill="none" stroke="black" points="198.061,-171.632 199.545,-176.406 "/>
<polygon fill="black" stroke="black" points="205.856,-184.917 199.545,-176.406 199.171,-186.995 205.856,-184.917"/>
</g>
<!-- m5 -->
<!-- 5&#45;&gt;m5 -->
<!-- 6 -->
<g id="node39" class="node"><title>6</title>
<ellipse fill="none" stroke="black" cx="267" cy="-165" rx="27" ry="19.0919"/>
<text text-anchor="middle" x="267" y="-161.9" font-family="Helvetica,sans-Serif" font-size="14.00">6</text>
</g>
<!-- 5&#45;&gt;6 -->
<g id="edge46" class="edge"><title>5&#45;&gt;6</title>
<path fill="none" stroke="black" d="M230.375,-221.463C236.293,-212.339 243.643,-201.009 250.202,-190.897"/>
<polygon fill="black" stroke="black" points="253.201,-192.705 255.706,-182.411 247.328,-188.896 253.201,-192.705"/>
</g>
<!-- l5&#45;&gt;m5 -->
<!-- m5&#45;&gt;6 -->
<!-- l6 -->
<g id="node42" class="node"><title>l6</title>
<ellipse fill="black" stroke="black" cx="244" cy="-91" rx="1.8" ry="1.8"/>
</g>
<!-- 6&#45;&gt;l6 -->
<g id="edge52" class="edge"><title>6&#45;&gt;l6</title>
<path fill="none" stroke="black" d="M261.196,-146.327C257.948,-135.877 253.889,-122.818 250.531,-112.012"/>
<polygon fill="black" stroke="black" points="240.099,-95.2959 249.649,-92.3278 250.242,-94.2377 240.693,-97.2058 240.099,-95.2959"/>
<polyline fill="none" stroke="black" points="244.577,-92.8569 246.061,-97.6316 "/>
<polygon fill="black" stroke="black" points="241.583,-100.071 251.133,-97.1025 251.726,-99.0124 242.177,-101.98 241.583,-100.071"/>
<polyline fill="none" stroke="black" points="246.061,-97.6316 247.545,-102.406 "/>
<polygon fill="black" stroke="black" points="253.856,-110.917 247.545,-102.406 247.171,-112.995 253.856,-110.917"/>
</g>
<!-- m6 -->
<!-- 6&#45;&gt;m6 -->
<!-- 7 -->
<g id="node47" class="node"><title>7</title>
<ellipse fill="none" stroke="black" cx="315" cy="-91" rx="27" ry="19.0919"/>
<text text-anchor="middle" x="315" y="-87.9" font-family="Helvetica,sans-Serif" font-size="14.00">7</text>
</g>
<!-- 6&#45;&gt;7 -->
<g id="edge56" class="edge"><title>6&#45;&gt;7</title>
<path fill="none" stroke="black" d="M278.375,-147.463C284.293,-138.339 291.643,-127.009 298.202,-116.897"/>
<polygon fill="black" stroke="black" points="301.201,-118.705 303.706,-108.411 295.328,-114.896 301.201,-118.705"/>
</g>
<!-- l6&#45;&gt;m6 -->
<!-- m6&#45;&gt;7 -->
<!-- l7 -->
<g id="node50" class="node"><title>l7</title>
<ellipse fill="black" stroke="black" cx="292" cy="-18" rx="1.8" ry="1.8"/>
</g>
<!-- 7&#45;&gt;l7 -->
<g id="edge62" class="edge"><title>7&#45;&gt;l7</title>
<path fill="none" stroke="black" d="M309.077,-72.2007C305.874,-62.0355 301.91,-49.4536 298.608,-38.9717"/>
<polygon fill="black" stroke="black" points="288.102,-22.2677 297.64,-19.2626 298.241,-21.1701 288.703,-24.1752 288.102,-22.2677"/>
<polyline fill="none" stroke="black" points="292.571,-19.8113 294.073,-24.5802 "/>
<polygon fill="black" stroke="black" points="289.605,-27.0366 299.143,-24.0315 299.744,-25.939 290.206,-28.9441 289.605,-27.0366"/>
<polyline fill="none" stroke="black" points="294.073,-24.5802 295.576,-29.3491 "/>
<polygon fill="black" stroke="black" points="301.919,-37.8351 295.576,-29.3491 295.243,-39.9387 301.919,-37.8351"/>
</g>
<!-- m7 -->
<!-- 7&#45;&gt;m7 -->
<!-- r7 -->
<g id="node54" class="node"><title>r7</title>
<ellipse fill="black" stroke="black" cx="338" cy="-18" rx="1.8" ry="1.8"/>
</g>
<!-- 7&#45;&gt;r7 -->
<g id="edge66" class="edge"><title>7&#45;&gt;r7</title>
<path fill="none" stroke="black" d="M320.923,-72.2007C324.126,-62.0355 328.09,-49.4536 331.392,-38.9717"/>
<polygon fill="black" stroke="black" points="332.36,-19.2626 341.898,-22.2677 341.297,-24.1752 331.759,-21.1701 332.36,-19.2626"/>
<polyline fill="none" stroke="black" points="337.429,-19.8113 335.927,-24.5802 "/>
<polygon fill="black" stroke="black" points="330.857,-24.0315 340.395,-27.0366 339.794,-28.9441 330.256,-25.939 330.857,-24.0315"/>
<polyline fill="none" stroke="black" points="335.927,-24.5802 334.424,-29.3491 "/>
<polygon fill="black" stroke="black" points="334.757,-39.9387 334.424,-29.3491 328.081,-37.8351 334.757,-39.9387"/>
</g>
<!-- l7&#45;&gt;m7 -->
<!-- m7&#45;&gt;r7 -->
</g>
</svg>
