<?xml version="1.0" encoding="UTF-8" standalone="no"?>
<!DOCTYPE svg PUBLIC "-//W3C//DTD SVG 1.1//EN"
 "http://www.w3.org/Graphics/SVG/1.1/DTD/svg11.dtd">
<!-- Generated by graphviz version 2.36.0 (20140111.2315)
 -->
<!-- Title: G Pages: 1 -->
<svg width="330pt" height="260pt"
 viewBox="0.00 0.00 330.00 260.00" xmlns="http://www.w3.org/2000/svg" xmlns:xlink="http://www.w3.org/1999/xlink">
<g id="graph0" class="graph" transform="scale(1 1) rotate(0) translate(4 256)">
<title>G</title>
<polygon fill="white" stroke="none" points="-4,4 -4,-256 326,-256 326,4 -4,4"/>
<!-- 1 -->
<g id="node1" class="node"><title>1</title>
<ellipse fill="none" stroke="black" cx="154" cy="-234" rx="27" ry="18"/>
<text text-anchor="middle" x="154" y="-230.3" font-family="Helvetica,sans-Serif" font-size="14.00">1</text>
</g>
<!-- 2 -->
<g id="node2" class="node"><title>2</title>
<ellipse fill="none" stroke="black" cx="94" cy="-162" rx="27" ry="18"/>
<text text-anchor="middle" x="94" y="-158.3" font-family="Helvetica,sans-Serif" font-size="14.00">2</text>
</g>
<!-- 1&#45;&gt;2 -->
<g id="edge1" class="edge"><title>1&#45;&gt;2</title>
<path fill="none" stroke="black" d="M140.981,-217.811C132.961,-208.455 122.527,-196.282 113.53,-185.785"/>
<polygon fill="black" stroke="black" points="116.159,-183.474 106.994,-178.159 110.844,-188.03 116.159,-183.474"/>
</g>
<!-- m1 -->
<!-- 1&#45;&gt;m1 -->
<!-- 3 -->
<g id="node4" class="node"><title>3</title>
<ellipse fill="none" stroke="black" cx="221" cy="-162" rx="27" ry="18"/>
<text text-anchor="middle" x="221" y="-158.3" font-family="Helvetica,sans-Serif" font-size="14.00">3</text>
</g>
<!-- 1&#45;&gt;3 -->
<g id="edge3" class="edge"><title>1&#45;&gt;3</title>
<path fill="none" stroke="black" d="M167.882,-218.496C177.135,-208.829 189.471,-195.94 199.926,-185.017"/>
<polygon fill="black" stroke="black" points="202.749,-187.13 207.135,-177.485 197.692,-182.29 202.749,-187.13"/>
</g>
<!-- 2&#45;&gt;m1 -->
<!-- 4 -->
<g id="node5" class="node"><title>4</title>
<ellipse fill="none" stroke="black" cx="27" cy="-90" rx="27" ry="18"/>
<text text-anchor="middle" x="27" y="-86.3" font-family="Helvetica,sans-Serif" font-size="14.00">4</text>
</g>
<!-- 2&#45;&gt;4 -->
<g id="edge6" class="edge"><title>2&#45;&gt;4</title>
<path fill="none" stroke="black" d="M80.1176,-146.496C70.8646,-136.829 58.5286,-123.94 48.0738,-113.017"/>
<polygon fill="black" stroke="black" points="50.3077,-110.29 40.8647,-105.485 45.2508,-115.13 50.3077,-110.29"/>
</g>
<!-- m2 -->
<!-- 2&#45;&gt;m2 -->
<!-- 5 -->
<g id="node7" class="node"><title>5</title>
<ellipse fill="none" stroke="black" cx="125" cy="-90" rx="27" ry="18"/>
<text text-anchor="middle" x="125" y="-86.3" font-family="Helvetica,sans-Serif" font-size="14.00">5</text>
</g>
<!-- 2&#45;&gt;5 -->
<g id="edge8" class="edge"><title>2&#45;&gt;5</title>
<path fill="none" stroke="black" d="M101.347,-144.411C105.014,-136.129 109.533,-125.925 113.635,-116.662"/>
<polygon fill="black" stroke="black" points="116.857,-118.031 117.706,-107.47 110.457,-115.196 116.857,-118.031"/>
</g>
<!-- m1&#45;&gt;3 -->
<!-- 6 -->
<g id="node8" class="node"><title>6</title>
<ellipse fill="none" stroke="black" cx="197" cy="-90" rx="27" ry="18"/>
<text text-anchor="middle" x="197" y="-86.3" font-family="Helvetica,sans-Serif" font-size="14.00">6</text>
</g>
<!-- 3&#45;&gt;6 -->
<g id="edge11" class="edge"><title>3&#45;&gt;6</title>
<path fill="none" stroke="black" d="M215.19,-144.055C212.449,-136.059 209.113,-126.331 206.051,-117.4"/>
<polygon fill="black" stroke="black" points="209.31,-116.113 202.756,-107.789 202.689,-118.384 209.31,-116.113"/>
</g>
<!-- m3 -->
<!-- 3&#45;&gt;m3 -->
<!-- 7 -->
<g id="node10" class="node"><title>7</title>
<ellipse fill="none" stroke="black" cx="295" cy="-90" rx="27" ry="18"/>
<text text-anchor="middle" x="295" y="-86.3" font-family="Helvetica,sans-Serif" font-size="14.00">7</text>
</g>
<!-- 3&#45;&gt;7 -->
<g id="edge13" class="edge"><title>3&#45;&gt;7</title>
<path fill="none" stroke="black" d="M235.975,-146.834C246.507,-136.872 260.782,-123.369 272.655,-112.137"/>
<polygon fill="black" stroke="black" points="275.188,-114.559 280.047,-105.144 270.377,-109.474 275.188,-114.559"/>
</g>
<!-- 4&#45;&gt;m2 -->
<!-- l4 -->
<g id="node11" class="node"><title>l4</title>
<ellipse fill="black" stroke="black" cx="4" cy="-18" rx="1.8" ry="1.8"/>
</g>
<!-- 4&#45;&gt;l4 -->
<g id="edge16" class="edge"><title>4&#45;&gt;l4</title>
<path fill="none" stroke="black" d="M21.4323,-72.055C18.1552,-62.081 13.9929,-49.4133 10.5575,-38.9575"/>
<polygon fill="black" stroke="black" points="-0.169742,-22.3273 9.33058,-19.2057 9.95489,-21.1058 0.454571,-24.2273 -0.169742,-22.3273"/>
<polyline fill="none" stroke="black" points="4.26826,-19.8164 5.82904,-24.5666 "/>
<polygon fill="black" stroke="black" points="1.39104,-27.0774 10.8914,-23.9559 11.5157,-25.8559 2.01535,-28.9775 1.39104,-27.0774"/>
<polyline fill="none" stroke="black" points="5.82904,-24.5666 7.38983,-29.3168 "/>
<polygon fill="black" stroke="black" points="13.8365,-37.7245 7.38983,-29.3168 7.18628,-39.9096 13.8365,-37.7245"/>
</g>
<!-- m4 -->
<!-- 4&#45;&gt;m4 -->
<!-- r4 -->
<g id="node13" class="node"><title>r4</title>
<ellipse fill="black" stroke="black" cx="50" cy="-18" rx="1.8" ry="1.8"/>
</g>
<!-- 4&#45;&gt;r4 -->
<g id="edge18" class="edge"><title>4&#45;&gt;r4</title>
<path fill="none" stroke="black" d="M32.5677,-72.055C35.8448,-62.081 40.0071,-49.4133 43.4425,-38.9575"/>
<polygon fill="black" stroke="black" points="44.6694,-19.2057 54.1697,-22.3273 53.5454,-24.2273 44.0451,-21.1058 44.6694,-19.2057"/>
<polyline fill="none" stroke="black" points="49.7317,-19.8164 48.171,-24.5666 "/>
<polygon fill="black" stroke="black" points="43.1086,-23.9559 52.609,-27.0774 51.9846,-28.9775 42.4843,-25.8559 43.1086,-23.9559"/>
<polyline fill="none" stroke="black" points="48.171,-24.5666 46.6102,-29.3168 "/>
<polygon fill="black" stroke="black" points="46.8137,-39.9096 46.6102,-29.3168 40.1635,-37.7245 46.8137,-39.9096"/>
</g>
<!-- m2&#45;&gt;5 -->
<!-- l5 -->
<g id="node14" class="node"><title>l5</title>
<ellipse fill="black" stroke="black" cx="102" cy="-18" rx="1.8" ry="1.8"/>
</g>
<!-- 5&#45;&gt;l5 -->
<g id="edge21" class="edge"><title>5&#45;&gt;l5</title>
<path fill="none" stroke="black" d="M119.432,-72.055C116.155,-62.081 111.993,-49.4133 108.557,-38.9575"/>
<polygon fill="black" stroke="black" points="97.8303,-22.3273 107.331,-19.2057 107.955,-21.1058 98.4546,-24.2273 97.8303,-22.3273"/>
<polyline fill="none" stroke="black" points="102.268,-19.8164 103.829,-24.5666 "/>
<polygon fill="black" stroke="black" points="99.391,-27.0774 108.891,-23.9559 109.516,-25.8559 100.015,-28.9775 99.391,-27.0774"/>
<polyline fill="none" stroke="black" points="103.829,-24.5666 105.39,-29.3168 "/>
<polygon fill="black" stroke="black" points="111.837,-37.7245 105.39,-29.3168 105.186,-39.9096 111.837,-37.7245"/>
</g>
<!-- m5 -->
<!-- 5&#45;&gt;m5 -->
<!-- r5 -->
<g id="node16" class="node"><title>r5</title>
<ellipse fill="black" stroke="black" cx="148" cy="-18" rx="1.8" ry="1.8"/>
</g>
<!-- 5&#45;&gt;r5 -->
<g id="edge23" class="edge"><title>5&#45;&gt;r5</title>
<path fill="none" stroke="black" d="M130.568,-72.055C133.845,-62.081 138.007,-49.4133 141.443,-38.9575"/>
<polygon fill="black" stroke="black" points="142.669,-19.2057 152.17,-22.3273 151.545,-24.2273 142.045,-21.1058 142.669,-19.2057"/>
<polyline fill="none" stroke="black" points="147.732,-19.8164 146.171,-24.5666 "/>
<polygon fill="black" stroke="black" points="141.109,-23.9559 150.609,-27.0774 149.985,-28.9775 140.484,-25.8559 141.109,-23.9559"/>
<polyline fill="none" stroke="black" points="146.171,-24.5666 144.61,-29.3168 "/>
<polygon fill="black" stroke="black" points="144.814,-39.9096 144.61,-29.3168 138.163,-37.7245 144.814,-39.9096"/>
</g>
<!-- 6&#45;&gt;m3 -->
<!-- l6 -->
<g id="node17" class="node"><title>l6</title>
<ellipse fill="black" stroke="black" cx="174" cy="-18" rx="1.8" ry="1.8"/>
</g>
<!-- 6&#45;&gt;l6 -->
<g id="edge26" class="edge"><title>6&#45;&gt;l6</title>
<path fill="none" stroke="black" d="M191.432,-72.055C188.155,-62.081 183.993,-49.4133 180.557,-38.9575"/>
<polygon fill="black" stroke="black" points="169.83,-22.3273 179.331,-19.2057 179.955,-21.1058 170.455,-24.2273 169.83,-22.3273"/>
<polyline fill="none" stroke="black" points="174.268,-19.8164 175.829,-24.5666 "/>
<polygon fill="black" stroke="black" points="171.391,-27.0774 180.891,-23.9559 181.516,-25.8559 172.015,-28.9775 171.391,-27.0774"/>
<polyline fill="none" stroke="black" points="175.829,-24.5666 177.39,-29.3168 "/>
<polygon fill="black" stroke="black" points="183.837,-37.7245 177.39,-29.3168 177.186,-39.9096 183.837,-37.7245"/>
</g>
<!-- m6 -->
<!-- 6&#45;&gt;m6 -->
<!-- r6 -->
<g id="node19" class="node"><title>r6</title>
<ellipse fill="black" stroke="black" cx="220" cy="-18" rx="1.8" ry="1.8"/>
</g>
<!-- 6&#45;&gt;r6 -->
<g id="edge28" class="edge"><title>6&#45;&gt;r6</title>
<path fill="none" stroke="black" d="M202.568,-72.055C205.845,-62.081 210.007,-49.4133 213.443,-38.9575"/>
<polygon fill="black" stroke="black" points="214.669,-19.2057 224.17,-22.3273 223.545,-24.2273 214.045,-21.1058 214.669,-19.2057"/>
<polyline fill="none" stroke="black" points="219.732,-19.8164 218.171,-24.5666 "/>
<polygon fill="black" stroke="black" points="213.109,-23.9559 222.609,-27.0774 221.985,-28.9775 212.484,-25.8559 213.109,-23.9559"/>
<polyline fill="none" stroke="black" points="218.171,-24.5666 216.61,-29.3168 "/>
<polygon fill="black" stroke="black" points="216.814,-39.9096 216.61,-29.3168 210.163,-37.7245 216.814,-39.9096"/>
</g>
<!-- m3&#45;&gt;7 -->
<!-- l7 -->
<g id="node20" class="node"><title>l7</title>
<ellipse fill="black" stroke="black" cx="272" cy="-18" rx="1.8" ry="1.8"/>
</g>
<!-- 7&#45;&gt;l7 -->
<g id="edge31" class="edge"><title>7&#45;&gt;l7</title>
<path fill="none" stroke="black" d="M289.432,-72.055C286.155,-62.081 281.993,-49.4133 278.557,-38.9575"/>
<polygon fill="black" stroke="black" points="267.83,-22.3273 277.331,-19.2057 277.955,-21.1058 268.455,-24.2273 267.83,-22.3273"/>
<polyline fill="none" stroke="black" points="272.268,-19.8164 273.829,-24.5666 "/>
<polygon fill="black" stroke="black" points="269.391,-27.0774 278.891,-23.9559 279.516,-25.8559 270.015,-28.9775 269.391,-27.0774"/>
<polyline fill="none" stroke="black" points="273.829,-24.5666 275.39,-29.3168 "/>
<polygon fill="black" stroke="black" points="281.837,-37.7245 275.39,-29.3168 275.186,-39.9096 281.837,-37.7245"/>
</g>
<!-- m7 -->
<!-- 7&#45;&gt;m7 -->
<!-- r7 -->
<g id="node22" class="node"><title>r7</title>
<ellipse fill="black" stroke="black" cx="318" cy="-18" rx="1.8" ry="1.8"/>
</g>
<!-- 7&#45;&gt;r7 -->
<g id="edge33" class="edge"><title>7&#45;&gt;r7</title>
<path fill="none" stroke="black" d="M300.568,-72.055C303.845,-62.081 308.007,-49.4133 311.443,-38.9575"/>
<polygon fill="black" stroke="black" points="312.669,-19.2057 322.17,-22.3273 321.545,-24.2273 312.045,-21.1058 312.669,-19.2057"/>
<polyline fill="none" stroke="black" points="317.732,-19.8164 316.171,-24.5666 "/>
<polygon fill="black" stroke="black" points="311.109,-23.9559 320.609,-27.0774 319.985,-28.9775 310.484,-25.8559 311.109,-23.9559"/>
<polyline fill="none" stroke="black" points="316.171,-24.5666 314.61,-29.3168 "/>
<polygon fill="black" stroke="black" points="314.814,-39.9096 314.61,-29.3168 308.163,-37.7245 314.814,-39.9096"/>
</g>
<!-- l4&#45;&gt;m4 -->
<!-- m4&#45;&gt;r4 -->
<!-- l5&#45;&gt;m5 -->
<!-- m5&#45;&gt;r5 -->
<!-- l6&#45;&gt;m6 -->
<!-- m6&#45;&gt;r6 -->
<!-- l7&#45;&gt;m7 -->
<!-- m7&#45;&gt;r7 -->
</g>
</svg>
