<?xml version="1.0" encoding="UTF-8" standalone="no"?>
<!DOCTYPE svg PUBLIC "-//W3C//DTD SVG 1.1//EN"
 "http://www.w3.org/Graphics/SVG/1.1/DTD/svg11.dtd">
<!-- Generated by graphviz version 2.26.3 (20100126.1600)
 -->
<!-- Title: G Pages: 1 -->
<svg width="350pt" height="490pt"
 viewBox="0.00 0.00 350.00 490.00" xmlns="http://www.w3.org/2000/svg" xmlns:xlink="http://www.w3.org/1999/xlink">
<g id="graph1" class="graph" transform="scale(1 1) rotate(0) translate(4 486)">
<title>G</title>
<polygon fill="white" stroke="white" points="-4,5 -4,-486 347,-486 347,5 -4,5"/>
<!-- l1 -->
<g id="node1" class="node"><title>l1</title>
<ellipse fill="black" stroke="black" cx="4" cy="-389" rx="1.8" ry="1.8"/>
</g>
<!-- m1 -->
<!-- l1&#45;&gt;m1 -->
<!-- 1 -->
<g id="node2" class="node"><title>1</title>
<ellipse fill="none" stroke="black" cx="27" cy="-463" rx="27" ry="19.0919"/>
<text text-anchor="middle" x="27" y="-459.9" font-family="Helvetica,sans-Serif" font-size="14.00">1</text>
</g>
<!-- 1&#45;&gt;l1 -->
<g id="edge2" class="edge"><title>1&#45;&gt;l1</title>
<path fill="none" stroke="black" d="M21.1961,-444.327C16.9418,-430.639 11.2961,-412.474 7.65509,-400.76"/>
<polygon fill="black" stroke="black" points="10.8876,-399.367 4.57716,-390.857 4.20299,-401.445 10.8876,-399.367"/>
</g>
<!-- 1&#45;&gt;m1 -->
<!-- 2 -->
<g id="node7" class="node"><title>2</title>
<ellipse fill="none" stroke="black" cx="75" cy="-389" rx="27" ry="19.0919"/>
<text text-anchor="middle" x="75" y="-385.9" font-family="Helvetica,sans-Serif" font-size="14.00">2</text>
</g>
<!-- 1&#45;&gt;2 -->
<g id="edge6" class="edge"><title>1&#45;&gt;2</title>
<path fill="none" stroke="black" d="M38.3753,-445.463C44.2934,-436.339 51.6431,-425.009 58.2019,-414.897"/>
<polygon fill="black" stroke="black" points="61.2007,-416.705 63.7063,-406.411 55.328,-412.896 61.2007,-416.705"/>
</g>
<!-- m1&#45;&gt;2 -->
<!-- l2 -->
<g id="node10" class="node"><title>l2</title>
<ellipse fill="black" stroke="black" cx="52" cy="-315" rx="1.8" ry="1.8"/>
</g>
<!-- 2&#45;&gt;l2 -->
<g id="edge12" class="edge"><title>2&#45;&gt;l2</title>
<path fill="none" stroke="black" d="M69.1961,-370.327C64.9418,-356.639 59.2961,-338.474 55.6551,-326.76"/>
<polygon fill="black" stroke="black" points="58.8876,-325.367 52.5772,-316.857 52.203,-327.445 58.8876,-325.367"/>
</g>
<!-- m2 -->
<!-- 2&#45;&gt;m2 -->
<!-- 3 -->
<g id="node15" class="node"><title>3</title>
<ellipse fill="none" stroke="black" cx="123" cy="-315" rx="27" ry="19.0919"/>
<text text-anchor="middle" x="123" y="-311.9" font-family="Helvetica,sans-Serif" font-size="14.00">3</text>
</g>
<!-- 2&#45;&gt;3 -->
<g id="edge16" class="edge"><title>2&#45;&gt;3</title>
<path fill="none" stroke="black" d="M86.3753,-371.463C92.2934,-362.339 99.6431,-351.009 106.202,-340.897"/>
<polygon fill="black" stroke="black" points="109.201,-342.705 111.706,-332.411 103.328,-338.896 109.201,-342.705"/>
</g>
<!-- l2&#45;&gt;m2 -->
<!-- m2&#45;&gt;3 -->
<!-- l3 -->
<g id="node18" class="node"><title>l3</title>
<ellipse fill="black" stroke="black" cx="100" cy="-241" rx="1.8" ry="1.8"/>
</g>
<!-- 3&#45;&gt;l3 -->
<g id="edge22" class="edge"><title>3&#45;&gt;l3</title>
<path fill="none" stroke="black" d="M117.196,-296.327C112.942,-282.639 107.296,-264.474 103.655,-252.76"/>
<polygon fill="black" stroke="black" points="106.888,-251.367 100.577,-242.857 100.203,-253.445 106.888,-251.367"/>
</g>
<!-- m3 -->
<!-- 3&#45;&gt;m3 -->
<!-- 4 -->
<g id="node23" class="node"><title>4</title>
<ellipse fill="none" stroke="black" cx="171" cy="-241" rx="27" ry="19.0919"/>
<text text-anchor="middle" x="171" y="-237.9" font-family="Helvetica,sans-Serif" font-size="14.00">4</text>
</g>
<!-- 3&#45;&gt;4 -->
<g id="edge26" class="edge"><title>3&#45;&gt;4</title>
<path fill="none" stroke="black" d="M134.375,-297.463C140.293,-288.339 147.643,-277.009 154.202,-266.897"/>
<polygon fill="black" stroke="black" points="157.201,-268.705 159.706,-258.411 151.328,-264.896 157.201,-268.705"/>
</g>
<!-- l3&#45;&gt;m3 -->
<!-- m3&#45;&gt;4 -->
<!-- l4 -->
<g id="node26" class="node"><title>l4</title>
<ellipse fill="black" stroke="black" cx="148" cy="-167" rx="1.8" ry="1.8"/>
</g>
<!-- 4&#45;&gt;l4 -->
<g id="edge32" class="edge"><title>4&#45;&gt;l4</title>
<path fill="none" stroke="black" d="M165.196,-222.327C160.942,-208.639 155.296,-190.474 151.655,-178.76"/>
<polygon fill="black" stroke="black" points="154.888,-177.367 148.577,-168.857 148.203,-179.445 154.888,-177.367"/>
</g>
<!-- m4 -->
<!-- 4&#45;&gt;m4 -->
<!-- 5 -->
<g id="node31" class="node"><title>5</title>
<ellipse fill="none" stroke="black" cx="219" cy="-167" rx="27" ry="19.0919"/>
<text text-anchor="middle" x="219" y="-163.9" font-family="Helvetica,sans-Serif" font-size="14.00">5</text>
</g>
<!-- 4&#45;&gt;5 -->
<g id="edge36" class="edge"><title>4&#45;&gt;5</title>
<path fill="none" stroke="black" d="M182.375,-223.463C188.293,-214.339 195.643,-203.009 202.202,-192.897"/>
<polygon fill="black" stroke="black" points="205.201,-194.705 207.706,-184.411 199.328,-190.896 205.201,-194.705"/>
</g>
<!-- l4&#45;&gt;m4 -->
<!-- m4&#45;&gt;5 -->
<!-- l5 -->
<g id="node34" class="node"><title>l5</title>
<ellipse fill="black" stroke="black" cx="196" cy="-93" rx="1.8" ry="1.8"/>
</g>
<!-- 5&#45;&gt;l5 -->
<g id="edge42" class="edge"><title>5&#45;&gt;l5</title>
<path fill="none" stroke="black" d="M213.196,-148.327C208.942,-134.639 203.296,-116.474 199.655,-104.76"/>
<polygon fill="black" stroke="black" points="202.888,-103.367 196.577,-94.8569 196.203,-105.445 202.888,-103.367"/>
</g>
<!-- m5 -->
<!-- 5&#45;&gt;m5 -->
<!-- 6 -->
<g id="node39" class="node"><title>6</title>
<ellipse fill="none" stroke="black" cx="267" cy="-93" rx="27" ry="19.0919"/>
<text text-anchor="middle" x="267" y="-89.9" font-family="Helvetica,sans-Serif" font-size="14.00">6</text>
</g>
<!-- 5&#45;&gt;6 -->
<g id="edge46" class="edge"><title>5&#45;&gt;6</title>
<path fill="none" stroke="black" d="M230.375,-149.463C236.293,-140.339 243.643,-129.009 250.202,-118.897"/>
<polygon fill="black" stroke="black" points="253.201,-120.705 255.706,-110.411 247.328,-116.896 253.201,-120.705"/>
</g>
<!-- l5&#45;&gt;m5 -->
<!-- m5&#45;&gt;6 -->
<!-- l6 -->
<g id="node42" class="node"><title>l6</title>
<ellipse fill="black" stroke="black" cx="244" cy="-19" rx="1.8" ry="1.8"/>
</g>
<!-- 6&#45;&gt;l6 -->
<g id="edge52" class="edge"><title>6&#45;&gt;l6</title>
<path fill="none" stroke="black" d="M261.196,-74.3267C256.942,-60.6389 251.296,-42.4743 247.655,-30.7599"/>
<polygon fill="black" stroke="black" points="250.888,-29.3675 244.577,-20.8569 244.203,-31.4452 250.888,-29.3675"/>
</g>
<!-- m6 -->
<!-- 6&#45;&gt;m6 -->
<!-- 7 -->
<g id="node47" class="node"><title>7</title>
<ellipse fill="none" stroke="black" cx="315" cy="-19" rx="27" ry="19.0919"/>
<text text-anchor="middle" x="315" y="-15.9" font-family="Helvetica,sans-Serif" font-size="14.00">7</text>
</g>
<!-- 6&#45;&gt;7 -->
<g id="edge56" class="edge"><title>6&#45;&gt;7</title>
<path fill="none" stroke="black" d="M278.375,-75.463C284.293,-66.3394 291.643,-55.0086 298.202,-44.897"/>
<polygon fill="black" stroke="black" points="301.201,-46.7054 303.706,-36.4111 295.328,-42.896 301.201,-46.7054"/>
</g>
<!-- l6&#45;&gt;m6 -->
<!-- m6&#45;&gt;7 -->
</g>
</svg>
