<?xml version="1.0" encoding="UTF-8" standalone="no"?>
<!DOCTYPE svg PUBLIC "-//W3C//DTD SVG 1.1//EN"
 "http://www.w3.org/Graphics/SVG/1.1/DTD/svg11.dtd">
<!-- Generated by graphviz version 2.36.0 (20140111.2315)
 -->
<!-- Title: G Pages: 1 -->
<svg width="345pt" height="356pt"
 viewBox="0.00 0.00 345.00 356.00" xmlns="http://www.w3.org/2000/svg" xmlns:xlink="http://www.w3.org/1999/xlink">
<g id="graph0" class="graph" transform="scale(1 1) rotate(0) translate(4 352)">
<title>G</title>
<polygon fill="white" stroke="none" points="-4,4 -4,-352 341,-352 341,4 -4,4"/>
<!-- 8 -->
<g id="node1" class="node"><title>8</title>
<ellipse fill="none" stroke="black" cx="129" cy="-330" rx="18" ry="18"/>
<text text-anchor="middle" x="129" y="-326.3" font-family="Helvetica,sans-Serif" font-size="14.00">8</text>
</g>
<!-- 5 -->
<g id="node2" class="node"><title>5</title>
<ellipse fill="none" stroke="black" cx="82" cy="-255" rx="18" ry="18"/>
<text text-anchor="middle" x="82" y="-251.3" font-family="Helvetica,sans-Serif" font-size="14.00">5</text>
</g>
<!-- 8&#45;&gt;5 -->
<g id="edge1" class="edge"><title>8&#45;&gt;5</title>
<path fill="none" stroke="black" d="M119.714,-314.578C113.297,-304.61 104.615,-291.125 97.1981,-279.606"/>
<polygon fill="black" stroke="black" points="99.9453,-277.407 91.5891,-270.894 94.0597,-281.196 99.9453,-277.407"/>
</g>
<!-- m8 -->
<!-- 8&#45;&gt;m8 -->
<!-- 11 -->
<g id="node4" class="node"><title>11</title>
<ellipse fill="none" stroke="black" cx="186" cy="-255" rx="20.203" ry="20.5982"/>
<text text-anchor="middle" x="186" y="-251.3" font-family="Helvetica,sans-Serif" font-size="14.00">11</text>
</g>
<!-- 8&#45;&gt;11 -->
<g id="edge3" class="edge"><title>8&#45;&gt;11</title>
<path fill="none" stroke="black" d="M139.721,-315.269C147.506,-305.299 158.238,-291.554 167.408,-279.811"/>
<polygon fill="black" stroke="black" points="170.348,-281.733 173.744,-271.697 164.831,-277.425 170.348,-281.733"/>
</g>
<!-- 5&#45;&gt;m8 -->
<!-- 2 -->
<g id="node5" class="node"><title>2</title>
<ellipse fill="none" stroke="black" cx="28" cy="-177" rx="18" ry="18"/>
<text text-anchor="middle" x="28" y="-173.3" font-family="Helvetica,sans-Serif" font-size="14.00">2</text>
</g>
<!-- 5&#45;&gt;2 -->
<g id="edge6" class="edge"><title>5&#45;&gt;2</title>
<path fill="none" stroke="black" d="M71.843,-239.705C63.9989,-228.665 52.9968,-213.181 43.9765,-200.485"/>
<polygon fill="black" stroke="black" points="46.7567,-198.356 38.1114,-192.231 41.0504,-202.41 46.7567,-198.356"/>
</g>
<!-- m5 -->
<!-- 5&#45;&gt;m5 -->
<!-- 6 -->
<g id="node7" class="node"><title>6</title>
<ellipse fill="none" stroke="black" cx="108" cy="-177" rx="18" ry="18"/>
<text text-anchor="middle" x="108" y="-173.3" font-family="Helvetica,sans-Serif" font-size="14.00">6</text>
</g>
<!-- 5&#45;&gt;6 -->
<g id="edge8" class="edge"><title>5&#45;&gt;6</title>
<path fill="none" stroke="black" d="M87.6416,-237.509C91.0034,-227.682 95.3442,-214.994 99.1533,-203.86"/>
<polygon fill="black" stroke="black" points="102.533,-204.792 102.459,-194.198 95.9102,-202.526 102.533,-204.792"/>
</g>
<!-- m8&#45;&gt;11 -->
<!-- 10 -->
<g id="node11" class="node"><title>10</title>
<ellipse fill="none" stroke="black" cx="165" cy="-177" rx="20.203" ry="20.5982"/>
<text text-anchor="middle" x="165" y="-173.3" font-family="Helvetica,sans-Serif" font-size="14.00">10</text>
</g>
<!-- 11&#45;&gt;10 -->
<g id="edge16" class="edge"><title>11&#45;&gt;10</title>
<path fill="none" stroke="black" d="M180.701,-234.822C178.363,-226.361 175.565,-216.235 172.983,-206.89"/>
<polygon fill="black" stroke="black" points="176.335,-205.878 170.297,-197.172 169.587,-207.743 176.335,-205.878"/>
</g>
<!-- m11 -->
<!-- 11&#45;&gt;m11 -->
<!-- 18 -->
<g id="node13" class="node"><title>18</title>
<ellipse fill="none" stroke="black" cx="255" cy="-177" rx="20.203" ry="20.5982"/>
<text text-anchor="middle" x="255" y="-173.3" font-family="Helvetica,sans-Serif" font-size="14.00">18</text>
</g>
<!-- 11&#45;&gt;18 -->
<g id="edge18" class="edge"><title>11&#45;&gt;18</title>
<path fill="none" stroke="black" d="M199.632,-238.985C209.62,-227.984 223.344,-212.867 234.63,-200.436"/>
<polygon fill="black" stroke="black" points="237.5,-202.482 241.631,-192.725 232.318,-197.777 237.5,-202.482"/>
</g>
<!-- 2&#45;&gt;m5 -->
<!-- l2 -->
<!-- 2&#45;&gt;l2 -->
<!-- m2 -->
<!-- 2&#45;&gt;m2 -->
<!-- 4 -->
<g id="node10" class="node"><title>4</title>
<ellipse fill="none" stroke="black" cx="68" cy="-99" rx="18" ry="18"/>
<text text-anchor="middle" x="68" y="-95.3" font-family="Helvetica,sans-Serif" font-size="14.00">4</text>
</g>
<!-- 2&#45;&gt;4 -->
<g id="edge13" class="edge"><title>2&#45;&gt;4</title>
<path fill="none" stroke="black" d="M36.0946,-160.62C41.5705,-150.216 48.9186,-136.255 55.1827,-124.353"/>
<polygon fill="black" stroke="black" points="58.3571,-125.836 59.9174,-115.357 52.1627,-122.576 58.3571,-125.836"/>
</g>
<!-- m5&#45;&gt;6 -->
<!-- l2&#45;&gt;m2 -->
<!-- m2&#45;&gt;4 -->
<!-- 10&#45;&gt;m11 -->
<!-- l10 -->
<!-- 10&#45;&gt;l10 -->
<!-- m10 -->
<!-- 10&#45;&gt;m10 -->
<!-- 15 -->
<g id="node16" class="node"><title>15</title>
<ellipse fill="none" stroke="red" cx="200" cy="-99" rx="20.203" ry="20.5982"/>
<text text-anchor="middle" x="200" y="-95.3" font-family="Helvetica,sans-Serif" font-size="14.00">15</text>
</g>
<!-- 10&#45;&gt;15 -->
<g id="edge23" class="edge"><title>10&#45;&gt;15</title>
<path fill="none" stroke="red" d="M173.295,-157.989C177.492,-148.875 182.677,-137.616 187.358,-127.45"/>
<polygon fill="red" stroke="red" points="190.64,-128.692 191.644,-118.145 184.282,-125.764 190.64,-128.692"/>
</g>
<!-- m11&#45;&gt;18 -->
<!-- l18 -->
<!-- 18&#45;&gt;l18 -->
<!-- m18 -->
<!-- 18&#45;&gt;m18 -->
<!-- 20 -->
<g id="node19" class="node"><title>20</title>
<ellipse fill="none" stroke="black" cx="309" cy="-99" rx="20.203" ry="20.5982"/>
<text text-anchor="middle" x="309" y="-95.3" font-family="Helvetica,sans-Serif" font-size="14.00">20</text>
</g>
<!-- 18&#45;&gt;20 -->
<g id="edge28" class="edge"><title>18&#45;&gt;20</title>
<path fill="none" stroke="black" d="M266.717,-159.509C273.984,-149.281 283.454,-135.953 291.589,-124.504"/>
<polygon fill="black" stroke="black" points="294.552,-126.377 297.491,-116.198 288.846,-122.322 294.552,-126.377"/>
</g>
<!-- l10&#45;&gt;m10 -->
<!-- m10&#45;&gt;15 -->
<!-- l18&#45;&gt;m18 -->
<!-- m18&#45;&gt;20 -->
<!-- 21 -->
<g id="node20" class="node"><title>21</title>
<ellipse fill="none" stroke="red" cx="267" cy="-21" rx="20.203" ry="20.5982"/>
<text text-anchor="middle" x="267" y="-17.3" font-family="Helvetica,sans-Serif" font-size="14.00">21</text>
</g>
<!-- 20&#45;&gt;21 -->
<g id="edge31" class="edge"><title>20&#45;&gt;21</title>
<path fill="none" stroke="red" d="M299.259,-80.373C294.011,-70.8768 287.431,-58.9705 281.585,-48.392"/>
<polygon fill="red" stroke="red" points="284.589,-46.5909 276.688,-39.5314 278.462,-49.9767 284.589,-46.5909"/>
</g>
<!-- m20 -->
<!-- 20&#45;&gt;m20 -->
<!-- r20 -->
<!-- 20&#45;&gt;r20 -->
<!-- 21&#45;&gt;m20 -->
<!-- m20&#45;&gt;r20 -->
</g>
</svg>
