<?xml version="1.0" encoding="UTF-8" standalone="no"?>
<!DOCTYPE svg PUBLIC "-//W3C//DTD SVG 1.1//EN"
 "http://www.w3.org/Graphics/SVG/1.1/DTD/svg11.dtd">
<!-- Generated by graphviz version 2.36.0 (20140111.2315)
 -->
<!-- Title: G Pages: 1 -->
<svg width="271pt" height="232pt"
 viewBox="0.00 0.00 271.00 232.00" xmlns="http://www.w3.org/2000/svg" xmlns:xlink="http://www.w3.org/1999/xlink">
<g id="graph0" class="graph" transform="scale(1 1) rotate(0) translate(4 228)">
<title>G</title>
<polygon fill="white" stroke="none" points="-4,4 -4,-228 267,-228 267,4 -4,4"/>
<!-- 1 -->
<g id="node1" class="node"><title>1</title>
<ellipse fill="none" stroke="black" cx="125" cy="-206" rx="18" ry="18"/>
<text text-anchor="middle" x="125" y="-202.3" font-family="Helvetica,sans-Serif" font-size="14.00">1</text>
</g>
<!-- 2 -->
<g id="node2" class="node"><title>2</title>
<ellipse fill="none" stroke="black" cx="78" cy="-134" rx="18" ry="18"/>
<text text-anchor="middle" x="78" y="-130.3" font-family="Helvetica,sans-Serif" font-size="14.00">2</text>
</g>
<!-- 1&#45;&gt;2 -->
<g id="edge1" class="edge"><title>1&#45;&gt;2</title>
<path fill="none" stroke="black" d="M115.262,-190.496C108.96,-181.11 100.619,-168.688 93.4272,-157.977"/>
<polygon fill="black" stroke="black" points="96.2061,-155.837 87.726,-149.485 90.3946,-159.739 96.2061,-155.837"/>
</g>
<!-- m1 -->
<!-- 1&#45;&gt;m1 -->
<!-- 3 -->
<g id="node4" class="node"><title>3</title>
<ellipse fill="none" stroke="black" cx="179" cy="-134" rx="18" ry="18"/>
<text text-anchor="middle" x="179" y="-130.3" font-family="Helvetica,sans-Serif" font-size="14.00">3</text>
</g>
<!-- 1&#45;&gt;3 -->
<g id="edge3" class="edge"><title>1&#45;&gt;3</title>
<path fill="none" stroke="black" d="M135.669,-191.17C143.213,-181.391 153.481,-168.08 162.129,-156.87"/>
<polygon fill="black" stroke="black" points="165.017,-158.857 168.354,-148.801 159.474,-154.581 165.017,-158.857"/>
</g>
<!-- 2&#45;&gt;m1 -->
<!-- 4 -->
<g id="node5" class="node"><title>4</title>
<ellipse fill="none" stroke="black" cx="24" cy="-62" rx="18" ry="18"/>
<text text-anchor="middle" x="24" y="-58.3" font-family="Helvetica,sans-Serif" font-size="14.00">4</text>
</g>
<!-- 2&#45;&gt;4 -->
<g id="edge6" class="edge"><title>2&#45;&gt;4</title>
<path fill="none" stroke="black" d="M67.3313,-119.17C59.7874,-109.391 49.5188,-96.0799 40.8713,-84.8702"/>
<polygon fill="black" stroke="black" points="43.5258,-82.581 34.6465,-76.801 37.9833,-86.8567 43.5258,-82.581"/>
</g>
<!-- m2 -->
<!-- 2&#45;&gt;m2 -->
<!-- 5 -->
<g id="node7" class="node"><title>5</title>
<ellipse fill="none" stroke="black" cx="104" cy="-62" rx="18" ry="18"/>
<text text-anchor="middle" x="104" y="-58.3" font-family="Helvetica,sans-Serif" font-size="14.00">5</text>
</g>
<!-- 2&#45;&gt;5 -->
<g id="edge8" class="edge"><title>2&#45;&gt;5</title>
<path fill="none" stroke="black" d="M84.0303,-116.765C87.1149,-108.46 90.9429,-98.1539 94.4195,-88.7936"/>
<polygon fill="black" stroke="black" points="97.8015,-89.7402 98.0024,-79.1473 91.2395,-87.3029 97.8015,-89.7402"/>
</g>
<!-- m1&#45;&gt;3 -->
<!-- 6 -->
<g id="node8" class="node"><title>6</title>
<ellipse fill="none" stroke="black" cx="159" cy="-62" rx="18" ry="18"/>
<text text-anchor="middle" x="159" y="-58.3" font-family="Helvetica,sans-Serif" font-size="14.00">6</text>
</g>
<!-- 3&#45;&gt;6 -->
<g id="edge11" class="edge"><title>3&#45;&gt;6</title>
<path fill="none" stroke="black" d="M174.26,-116.411C171.944,-108.304 169.101,-98.3537 166.499,-89.2482"/>
<polygon fill="black" stroke="black" points="169.818,-88.1236 163.706,-79.4699 163.088,-90.0467 169.818,-88.1236"/>
</g>
<!-- m3 -->
<!-- 3&#45;&gt;m3 -->
<!-- 7 -->
<g id="node10" class="node"><title>7</title>
<ellipse fill="none" stroke="black" cx="239" cy="-62" rx="18" ry="18"/>
<text text-anchor="middle" x="239" y="-58.3" font-family="Helvetica,sans-Serif" font-size="14.00">7</text>
</g>
<!-- 3&#45;&gt;7 -->
<g id="edge13" class="edge"><title>3&#45;&gt;7</title>
<path fill="none" stroke="black" d="M190.286,-119.834C199.001,-109.665 211.226,-95.4032 221.248,-83.7102"/>
<polygon fill="black" stroke="black" points="223.915,-85.9778 227.765,-76.1074 218.6,-81.4222 223.915,-85.9778"/>
</g>
<!-- 4&#45;&gt;m2 -->
<!-- l4 -->
<g id="node11" class="node"><title>l4</title>
<ellipse fill="black" stroke="black" cx="1" cy="-4" rx="1.8" ry="1.8"/>
</g>
<!-- 4&#45;&gt;l4 -->
<g id="edge16" class="edge"><title>4&#45;&gt;l4</title>
<path fill="none" stroke="black" d="M17.4706,-45.1024C14.8676,-38.7646 11.8438,-31.4023 9.10287,-24.7287"/>
<polygon fill="black" stroke="black" points="-2.81635,-8.86872 6.43385,-5.06951 7.19369,-6.91955 -2.05651,-10.7188 -2.81635,-8.86872"/>
<polyline fill="none" stroke="black" points="1.42882,-6.04409 3.32843,-10.6692 "/>
<polygon fill="black" stroke="black" points="-0.916745,-13.4938 8.33346,-9.69461 9.0933,-11.5446 -0.156901,-15.3439 -0.916745,-13.4938"/>
<polyline fill="none" stroke="black" points="3.32843,-10.6692 5.22804,-15.2943 "/>
<polygon fill="black" stroke="black" points="12.2648,-23.2148 5.22804,-15.2943 5.78969,-25.8742 12.2648,-23.2148"/>
</g>
<!-- m4 -->
<!-- 4&#45;&gt;m4 -->
<!-- r4 -->
<g id="node13" class="node"><title>r4</title>
<ellipse fill="black" stroke="black" cx="47" cy="-4" rx="1.8" ry="1.8"/>
</g>
<!-- 4&#45;&gt;r4 -->
<g id="edge18" class="edge"><title>4&#45;&gt;r4</title>
<path fill="none" stroke="black" d="M30.5294,-45.1024C33.1324,-38.7646 36.1562,-31.4023 38.8971,-24.7287"/>
<polygon fill="black" stroke="black" points="41.5662,-5.06951 50.8164,-8.86872 50.0565,-10.7188 40.8063,-6.91955 41.5662,-5.06951"/>
<polyline fill="none" stroke="black" points="46.5712,-6.04409 44.6716,-10.6692 "/>
<polygon fill="black" stroke="black" points="39.6665,-9.69461 48.9167,-13.4938 48.1569,-15.3439 38.9067,-11.5446 39.6665,-9.69461"/>
<polyline fill="none" stroke="black" points="44.6716,-10.6692 42.772,-15.2943 "/>
<polygon fill="black" stroke="black" points="42.2103,-25.8742 42.772,-15.2943 35.7352,-23.2148 42.2103,-25.8742"/>
</g>
<!-- m2&#45;&gt;5 -->
<!-- l5 -->
<g id="node14" class="node"><title>l5</title>
<ellipse fill="black" stroke="black" cx="75" cy="-4" rx="1.8" ry="1.8"/>
</g>
<!-- 5&#45;&gt;l5 -->
<g id="edge21" class="edge"><title>5&#45;&gt;l5</title>
<path fill="none" stroke="black" d="M96.0756,-45.6978C92.6126,-39.0105 88.5146,-31.0972 84.8573,-24.0347"/>
<polygon fill="black" stroke="black" points="71.5733,-9.25595 80.4532,-4.65738 81.373,-6.43337 72.493,-11.0319 71.5733,-9.25595"/>
<polyline fill="none" stroke="black" points="75.5534,-6.06867 77.8527,-10.5086 "/>
<polygon fill="black" stroke="black" points="73.8726,-13.6959 82.7525,-9.09735 83.6722,-10.8733 74.7923,-15.4719 73.8726,-13.6959"/>
<polyline fill="none" stroke="black" points="77.8527,-10.5086 80.152,-14.9486 "/>
<polygon fill="black" stroke="black" points="87.8585,-22.2191 80.152,-14.9486 81.6426,-25.4381 87.8585,-22.2191"/>
</g>
<!-- m5 -->
<!-- 5&#45;&gt;m5 -->
<!-- r5 -->
<g id="node16" class="node"><title>r5</title>
<ellipse fill="black" stroke="black" cx="121" cy="-4" rx="1.8" ry="1.8"/>
</g>
<!-- 5&#45;&gt;r5 -->
<g id="edge23" class="edge"><title>5&#45;&gt;r5</title>
<path fill="none" stroke="black" d="M109.009,-44.501C110.825,-38.5163 112.9,-31.683 114.807,-25.4017"/>
<polygon fill="black" stroke="black" points="115.616,-5.52424 125.184,-8.4291 124.603,-10.3429 115.035,-7.43801 115.616,-5.52424"/>
<polyline fill="none" stroke="black" points="120.69,-6.01979 119.238,-10.8042 "/>
<polygon fill="black" stroke="black" points="114.163,-10.3086 123.732,-13.2135 123.151,-15.1273 113.582,-12.2224 114.163,-10.3086"/>
<polyline fill="none" stroke="black" points="119.238,-10.8042 117.786,-15.5886 "/>
<polygon fill="black" stroke="black" points="118.23,-26.1741 117.786,-15.5886 111.532,-24.1407 118.23,-26.1741"/>
</g>
<!-- 6&#45;&gt;m3 -->
<!-- l6 -->
<g id="node17" class="node"><title>l6</title>
<ellipse fill="black" stroke="black" cx="143" cy="-4" rx="1.8" ry="1.8"/>
</g>
<!-- 6&#45;&gt;l6 -->
<g id="edge26" class="edge"><title>6&#45;&gt;l6</title>
<path fill="none" stroke="black" d="M154.286,-44.501C152.576,-38.5163 150.624,-31.683 148.829,-25.4017"/>
<polygon fill="black" stroke="black" points="138.758,-8.35494 148.374,-5.60769 148.923,-7.53074 139.308,-10.278 138.758,-8.35494"/>
<polyline fill="none" stroke="black" points="143.291,-6.01979 144.665,-10.8274 "/>
<polygon fill="black" stroke="black" points="140.132,-13.1626 149.747,-10.4153 150.297,-12.3384 140.682,-15.0856 140.132,-13.1626"/>
<polyline fill="none" stroke="black" points="144.665,-10.8274 146.039,-15.635 "/>
<polygon fill="black" stroke="black" points="152.151,-24.2887 146.039,-15.635 145.421,-26.2118 152.151,-24.2887"/>
</g>
<!-- m6 -->
<!-- 6&#45;&gt;m6 -->
<!-- r6 -->
<g id="node19" class="node"><title>r6</title>
<ellipse fill="black" stroke="black" cx="189" cy="-4" rx="1.8" ry="1.8"/>
</g>
<!-- 6&#45;&gt;r6 -->
<g id="edge28" class="edge"><title>6&#45;&gt;r6</title>
<path fill="none" stroke="black" d="M167.198,-45.6978C170.78,-39.0105 175.019,-31.0972 178.803,-24.0347"/>
<polygon fill="black" stroke="black" points="183.548,-4.58903 192.363,-9.31127 191.418,-11.0742 182.603,-6.35199 183.548,-4.58903"/>
<polyline fill="none" stroke="black" points="188.427,-6.06867 186.066,-10.4761 "/>
<polygon fill="black" stroke="black" points="181.187,-8.99643 190.002,-13.7187 189.057,-15.4816 180.242,-10.7594 181.187,-8.99643"/>
<polyline fill="none" stroke="black" points="186.066,-10.4761 183.705,-14.8835 "/>
<polygon fill="black" stroke="black" points="182.068,-25.3511 183.705,-14.8835 175.898,-22.0455 182.068,-25.3511"/>
</g>
<!-- m3&#45;&gt;7 -->
<!-- l7 -->
<g id="node20" class="node"><title>l7</title>
<ellipse fill="black" stroke="black" cx="216" cy="-4" rx="1.8" ry="1.8"/>
</g>
<!-- 7&#45;&gt;l7 -->
<g id="edge31" class="edge"><title>7&#45;&gt;l7</title>
<path fill="none" stroke="black" d="M232.471,-45.1024C229.868,-38.7646 226.844,-31.4023 224.103,-24.7287"/>
<polygon fill="black" stroke="black" points="212.184,-8.86872 221.434,-5.06951 222.194,-6.91955 212.943,-10.7188 212.184,-8.86872"/>
<polyline fill="none" stroke="black" points="216.429,-6.04409 218.328,-10.6692 "/>
<polygon fill="black" stroke="black" points="214.083,-13.4938 223.333,-9.69461 224.093,-11.5446 214.843,-15.3439 214.083,-13.4938"/>
<polyline fill="none" stroke="black" points="218.328,-10.6692 220.228,-15.2943 "/>
<polygon fill="black" stroke="black" points="227.265,-23.2148 220.228,-15.2943 220.79,-25.8742 227.265,-23.2148"/>
</g>
<!-- m7 -->
<!-- 7&#45;&gt;m7 -->
<!-- r7 -->
<g id="node22" class="node"><title>r7</title>
<ellipse fill="black" stroke="black" cx="262" cy="-4" rx="1.8" ry="1.8"/>
</g>
<!-- 7&#45;&gt;r7 -->
<g id="edge33" class="edge"><title>7&#45;&gt;r7</title>
<path fill="none" stroke="black" d="M245.529,-45.1024C248.132,-38.7646 251.156,-31.4023 253.897,-24.7287"/>
<polygon fill="black" stroke="black" points="256.566,-5.06951 265.816,-8.86872 265.057,-10.7188 255.806,-6.91955 256.566,-5.06951"/>
<polyline fill="none" stroke="black" points="261.571,-6.04409 259.672,-10.6692 "/>
<polygon fill="black" stroke="black" points="254.667,-9.69461 263.917,-13.4938 263.157,-15.3439 253.907,-11.5446 254.667,-9.69461"/>
<polyline fill="none" stroke="black" points="259.672,-10.6692 257.772,-15.2943 "/>
<polygon fill="black" stroke="black" points="257.21,-25.8742 257.772,-15.2943 250.735,-23.2148 257.21,-25.8742"/>
</g>
<!-- l4&#45;&gt;m4 -->
<!-- m4&#45;&gt;r4 -->
<!-- l5&#45;&gt;m5 -->
<!-- m5&#45;&gt;r5 -->
<!-- l6&#45;&gt;m6 -->
<!-- m6&#45;&gt;r6 -->
<!-- l7&#45;&gt;m7 -->
<!-- m7&#45;&gt;r7 -->
</g>
</svg>
