<?xml version="1.0" encoding="UTF-8" standalone="no"?>
<!DOCTYPE svg PUBLIC "-//W3C//DTD SVG 1.1//EN"
 "http://www.w3.org/Graphics/SVG/1.1/DTD/svg11.dtd">
<!-- Generated by graphviz version 2.36.0 (20140111.2315)
 -->
<!-- Title: G Pages: 1 -->
<svg width="284pt" height="260pt"
 viewBox="0.00 0.00 284.00 260.00" xmlns="http://www.w3.org/2000/svg" xmlns:xlink="http://www.w3.org/1999/xlink">
<g id="graph0" class="graph" transform="scale(1 1) rotate(0) translate(4 256)">
<title>G</title>
<polygon fill="white" stroke="none" points="-4,4 -4,-256 280,-256 280,4 -4,4"/>
<!-- 5 -->
<g id="node1" class="node"><title>5</title>
<ellipse fill="none" stroke="black" cx="135" cy="-234" rx="27" ry="18"/>
<text text-anchor="middle" x="135" y="-230.3" font-family="Helvetica,sans-Serif" font-size="14.00">5</text>
</g>
<!-- 4 -->
<g id="node2" class="node"><title>4</title>
<ellipse fill="none" stroke="black" cx="80" cy="-162" rx="27" ry="18"/>
<text text-anchor="middle" x="80" y="-158.3" font-family="Helvetica,sans-Serif" font-size="14.00">4</text>
</g>
<!-- 5&#45;&gt;4 -->
<g id="edge1" class="edge"><title>5&#45;&gt;4</title>
<path fill="none" stroke="black" d="M123.066,-217.811C115.786,-208.546 106.337,-196.52 98.1456,-186.094"/>
<polygon fill="black" stroke="black" points="100.841,-183.86 91.9109,-178.159 95.337,-188.185 100.841,-183.86"/>
</g>
<!-- null1 -->
<!-- 5&#45;&gt;null1 -->
<!-- 8 -->
<g id="node4" class="node"><title>8</title>
<ellipse fill="none" stroke="black" cx="196" cy="-162" rx="27" ry="18"/>
<text text-anchor="middle" x="196" y="-158.3" font-family="Helvetica,sans-Serif" font-size="14.00">8</text>
</g>
<!-- 5&#45;&gt;8 -->
<g id="edge3" class="edge"><title>5&#45;&gt;8</title>
<path fill="none" stroke="black" d="M147.937,-218.155C156.186,-208.689 167.035,-196.238 176.338,-185.563"/>
<polygon fill="black" stroke="black" points="179.151,-187.662 183.082,-177.824 173.874,-183.063 179.151,-187.662"/>
</g>
<!-- 4&#45;&gt;null1 -->
<!-- 1 -->
<g id="node5" class="node"><title>1</title>
<ellipse fill="none" stroke="red" cx="28" cy="-90" rx="27" ry="18"/>
<text text-anchor="middle" x="28" y="-86.3" font-family="Helvetica,sans-Serif" font-size="14.00">1</text>
</g>
<!-- 4&#45;&gt;1 -->
<g id="edge6" class="edge"><title>4&#45;&gt;1</title>
<path fill="none" stroke="black" d="M68.4595,-145.465C61.7273,-136.402 53.0985,-124.786 45.5403,-114.612"/>
<polygon fill="black" stroke="black" points="48.2811,-112.432 39.5082,-106.492 42.6619,-116.606 48.2811,-112.432"/>
</g>
<!-- null2 -->
<!-- 4&#45;&gt;null2 -->
<!-- null3 -->
<!-- 4&#45;&gt;null3 -->
<!-- null1&#45;&gt;8 -->
<!-- 7 -->
<g id="node11" class="node"><title>7</title>
<ellipse fill="none" stroke="black" cx="151" cy="-90" rx="27" ry="18"/>
<text text-anchor="middle" x="151" y="-86.3" font-family="Helvetica,sans-Serif" font-size="14.00">7</text>
</g>
<!-- 8&#45;&gt;7 -->
<g id="edge16" class="edge"><title>8&#45;&gt;7</title>
<path fill="none" stroke="black" d="M185.789,-145.116C180.15,-136.345 173.027,-125.264 166.696,-115.416"/>
<polygon fill="black" stroke="black" points="169.523,-113.34 161.171,-106.821 163.634,-117.126 169.523,-113.34"/>
</g>
<!-- null6 -->
<!-- 8&#45;&gt;null6 -->
<!-- 11 -->
<g id="node13" class="node"><title>11</title>
<ellipse fill="none" stroke="black" cx="249" cy="-90" rx="27" ry="18"/>
<text text-anchor="middle" x="249" y="-86.3" font-family="Helvetica,sans-Serif" font-size="14.00">11</text>
</g>
<!-- 8&#45;&gt;11 -->
<g id="edge18" class="edge"><title>8&#45;&gt;11</title>
<path fill="none" stroke="black" d="M207.762,-145.465C214.624,-136.402 223.419,-124.786 231.122,-114.612"/>
<polygon fill="black" stroke="black" points="234.024,-116.577 237.27,-106.492 228.444,-112.352 234.024,-116.577"/>
</g>
<!-- 1&#45;&gt;null2 -->
<!-- null4 -->
<!-- 1&#45;&gt;null4 -->
<!-- null5 -->
<!-- 1&#45;&gt;null5 -->
<!-- 3 -->
<g id="node10" class="node"><title>3</title>
<ellipse fill="none" stroke="black" cx="77" cy="-18" rx="27" ry="18"/>
<text text-anchor="middle" x="77" y="-14.3" font-family="Helvetica,sans-Serif" font-size="14.00">3</text>
</g>
<!-- 1&#45;&gt;3 -->
<g id="edge13" class="edge"><title>1&#45;&gt;3</title>
<path fill="none" stroke="black" d="M38.8747,-73.4647C45.1551,-64.4927 53.187,-53.0185 60.2577,-42.9176"/>
<polygon fill="black" stroke="black" points="63.2884,-44.6913 66.1557,-34.4918 57.5537,-40.677 63.2884,-44.6913"/>
</g>
<!-- null2&#45;&gt;null3 -->
<!-- null4&#45;&gt;null5 -->
<!-- null5&#45;&gt;3 -->
<!-- 7&#45;&gt;null6 -->
<!-- null6&#45;&gt;11 -->
</g>
</svg>
