<?xml version="1.0" encoding="UTF-8" standalone="no"?>
<!DOCTYPE svg PUBLIC "-//W3C//DTD SVG 1.1//EN"
 "http://www.w3.org/Graphics/SVG/1.1/DTD/svg11.dtd">
<!-- Generated by graphviz version 2.36.0 (20140111.2315)
 -->
<!-- Title: G Pages: 1 -->
<svg width="258pt" height="188pt"
 viewBox="0.00 0.00 258.00 188.00" xmlns="http://www.w3.org/2000/svg" xmlns:xlink="http://www.w3.org/1999/xlink">
<g id="graph0" class="graph" transform="scale(1 1) rotate(0) translate(4 184)">
<title>G</title>
<polygon fill="white" stroke="none" points="-4,4 -4,-184 254,-184 254,4 -4,4"/>
<!-- 1 -->
<g id="node1" class="node"><title>1</title>
<ellipse fill="none" stroke="black" cx="108" cy="-162" rx="18" ry="18"/>
<text text-anchor="middle" x="108" y="-158.3" font-family="Helvetica,sans-Serif" font-size="14.00">1</text>
</g>
<!-- 2 -->
<g id="node2" class="node"><title>2</title>
<ellipse fill="none" stroke="black" cx="61" cy="-90" rx="18" ry="18"/>
<text text-anchor="middle" x="61" y="-86.3" font-family="Helvetica,sans-Serif" font-size="14.00">2</text>
</g>
<!-- 1&#45;&gt;2 -->
<g id="edge1" class="edge"><title>1&#45;&gt;2</title>
<path fill="none" stroke="black" d="M98.2616,-146.496C91.9597,-137.11 83.6193,-124.688 76.4272,-113.977"/>
<polygon fill="black" stroke="black" points="79.2061,-111.837 70.726,-105.485 73.3946,-115.739 79.2061,-111.837"/>
</g>
<!-- m1 -->
<!-- 1&#45;&gt;m1 -->
<!-- 3 -->
<g id="node4" class="node"><title>3</title>
<ellipse fill="none" stroke="black" cx="172" cy="-90" rx="18" ry="18"/>
<text text-anchor="middle" x="172" y="-86.3" font-family="Helvetica,sans-Serif" font-size="14.00">3</text>
</g>
<!-- 1&#45;&gt;3 -->
<g id="edge3" class="edge"><title>1&#45;&gt;3</title>
<path fill="none" stroke="black" d="M119.739,-148.161C129.121,-137.899 142.451,-123.319 153.3,-111.453"/>
<polygon fill="black" stroke="black" points="156.171,-113.5 160.336,-103.758 151.005,-108.776 156.171,-113.5"/>
</g>
<!-- 2&#45;&gt;m1 -->
<!-- 4 -->
<g id="node5" class="node"><title>4</title>
<ellipse fill="none" stroke="black" cx="18" cy="-18" rx="18" ry="18"/>
<text text-anchor="middle" x="18" y="-14.3" font-family="Helvetica,sans-Serif" font-size="14.00">4</text>
</g>
<!-- 2&#45;&gt;4 -->
<g id="edge6" class="edge"><title>2&#45;&gt;4</title>
<path fill="none" stroke="black" d="M51.8808,-74.1548C46.2368,-64.967 38.8662,-52.9682 32.4414,-42.5092"/>
<polygon fill="black" stroke="black" points="35.3225,-40.5126 27.106,-33.8238 29.358,-44.1766 35.3225,-40.5126"/>
</g>
<!-- m2 -->
<!-- 2&#45;&gt;m2 -->
<!-- 5 -->
<g id="node7" class="node"><title>5</title>
<ellipse fill="none" stroke="black" cx="98" cy="-18" rx="18" ry="18"/>
<text text-anchor="middle" x="98" y="-14.3" font-family="Helvetica,sans-Serif" font-size="14.00">5</text>
</g>
<!-- 2&#45;&gt;5 -->
<g id="edge8" class="edge"><title>2&#45;&gt;5</title>
<path fill="none" stroke="black" d="M69.0284,-73.811C73.78,-64.8216 79.9058,-53.2323 85.2997,-43.0275"/>
<polygon fill="black" stroke="black" points="88.4084,-44.6359 89.9872,-34.1593 82.2198,-41.3647 88.4084,-44.6359"/>
</g>
<!-- m1&#45;&gt;3 -->
<!-- 6 -->
<g id="node8" class="node"><title>6</title>
<ellipse fill="none" stroke="black" cx="152" cy="-18" rx="18" ry="18"/>
<text text-anchor="middle" x="152" y="-14.3" font-family="Helvetica,sans-Serif" font-size="14.00">6</text>
</g>
<!-- 3&#45;&gt;6 -->
<g id="edge11" class="edge"><title>3&#45;&gt;6</title>
<path fill="none" stroke="black" d="M167.26,-72.411C164.944,-64.3036 162.101,-54.3537 159.499,-45.2482"/>
<polygon fill="black" stroke="black" points="162.818,-44.1236 156.706,-35.4699 156.088,-46.0467 162.818,-44.1236"/>
</g>
<!-- m3 -->
<!-- 3&#45;&gt;m3 -->
<!-- 7 -->
<g id="node10" class="node"><title>7</title>
<ellipse fill="none" stroke="black" cx="232" cy="-18" rx="18" ry="18"/>
<text text-anchor="middle" x="232" y="-14.3" font-family="Helvetica,sans-Serif" font-size="14.00">7</text>
</g>
<!-- 3&#45;&gt;7 -->
<g id="edge13" class="edge"><title>3&#45;&gt;7</title>
<path fill="none" stroke="black" d="M183.286,-75.8335C192.001,-65.6652 204.226,-51.4032 214.248,-39.7102"/>
<polygon fill="black" stroke="black" points="216.915,-41.9778 220.765,-32.1074 211.6,-37.4222 216.915,-41.9778"/>
</g>
<!-- 4&#45;&gt;m2 -->
<!-- m2&#45;&gt;5 -->
<!-- 6&#45;&gt;m3 -->
<!-- m3&#45;&gt;7 -->
</g>
</svg>
