<?xml version="1.0" encoding="UTF-8" standalone="no"?>
<!DOCTYPE svg PUBLIC "-//W3C//DTD SVG 1.1//EN"
 "http://www.w3.org/Graphics/SVG/1.1/DTD/svg11.dtd">
<!-- Generated by graphviz version 2.36.0 (20140111.2315)
 -->
<!-- Title: G Pages: 1 -->
<svg width="283pt" height="188pt"
 viewBox="0.00 0.00 283.00 188.00" xmlns="http://www.w3.org/2000/svg" xmlns:xlink="http://www.w3.org/1999/xlink">
<g id="graph0" class="graph" transform="scale(1 1) rotate(0) translate(4 184)">
<title>G</title>
<polygon fill="white" stroke="none" points="-4,4 -4,-184 279,-184 279,4 -4,4"/>
<!-- 5 -->
<g id="node1" class="node"><title>5</title>
<ellipse fill="none" stroke="black" cx="134" cy="-162" rx="27" ry="18"/>
<text text-anchor="middle" x="134" y="-158.3" font-family="Helvetica,sans-Serif" font-size="14.00">5</text>
</g>
<!-- 4 -->
<g id="node2" class="node"><title>4</title>
<ellipse fill="none" stroke="black" cx="79" cy="-90" rx="27" ry="18"/>
<text text-anchor="middle" x="79" y="-86.3" font-family="Helvetica,sans-Serif" font-size="14.00">4</text>
</g>
<!-- 5&#45;&gt;4 -->
<g id="edge1" class="edge"><title>5&#45;&gt;4</title>
<path fill="none" stroke="black" d="M122.066,-145.811C114.786,-136.546 105.337,-124.52 97.1456,-114.094"/>
<polygon fill="black" stroke="black" points="99.8413,-111.86 90.9109,-106.159 94.337,-116.185 99.8413,-111.86"/>
</g>
<!-- null1 -->
<!-- 5&#45;&gt;null1 -->
<!-- 8 -->
<g id="node4" class="node"><title>8</title>
<ellipse fill="none" stroke="black" cx="195" cy="-90" rx="27" ry="18"/>
<text text-anchor="middle" x="195" y="-86.3" font-family="Helvetica,sans-Serif" font-size="14.00">8</text>
</g>
<!-- 5&#45;&gt;8 -->
<g id="edge3" class="edge"><title>5&#45;&gt;8</title>
<path fill="none" stroke="black" d="M146.937,-146.155C155.186,-136.689 166.035,-124.238 175.338,-113.563"/>
<polygon fill="black" stroke="black" points="178.151,-115.662 182.082,-105.824 172.874,-111.063 178.151,-115.662"/>
</g>
<!-- 4&#45;&gt;null1 -->
<!-- 3 -->
<g id="node5" class="node"><title>3</title>
<ellipse fill="none" stroke="black" cx="27" cy="-18" rx="27" ry="18"/>
<text text-anchor="middle" x="27" y="-14.3" font-family="Helvetica,sans-Serif" font-size="14.00">3</text>
</g>
<!-- 4&#45;&gt;3 -->
<g id="edge6" class="edge"><title>4&#45;&gt;3</title>
<path fill="none" stroke="black" d="M67.4595,-73.4647C60.7273,-64.4021 52.0985,-52.7865 44.5403,-42.6119"/>
<polygon fill="black" stroke="black" points="47.2811,-40.4322 38.5082,-34.4918 41.6619,-44.6064 47.2811,-40.4322"/>
</g>
<!-- null2 -->
<!-- 4&#45;&gt;null2 -->
<!-- null3 -->
<!-- 4&#45;&gt;null3 -->
<!-- null1&#45;&gt;8 -->
<!-- 7 -->
<g id="node8" class="node"><title>7</title>
<ellipse fill="none" stroke="black" cx="150" cy="-18" rx="27" ry="18"/>
<text text-anchor="middle" x="150" y="-14.3" font-family="Helvetica,sans-Serif" font-size="14.00">7</text>
</g>
<!-- 8&#45;&gt;7 -->
<g id="edge11" class="edge"><title>8&#45;&gt;7</title>
<path fill="none" stroke="black" d="M184.789,-73.1159C179.15,-64.345 172.027,-53.2637 165.696,-43.4162"/>
<polygon fill="black" stroke="black" points="168.523,-41.3404 160.171,-34.8212 162.634,-45.1257 168.523,-41.3404"/>
</g>
<!-- null6 -->
<!-- 8&#45;&gt;null6 -->
<!-- 11 -->
<g id="node10" class="node"><title>11</title>
<ellipse fill="none" stroke="black" cx="248" cy="-18" rx="27" ry="18"/>
<text text-anchor="middle" x="248" y="-14.3" font-family="Helvetica,sans-Serif" font-size="14.00">11</text>
</g>
<!-- 8&#45;&gt;11 -->
<g id="edge13" class="edge"><title>8&#45;&gt;11</title>
<path fill="none" stroke="black" d="M206.762,-73.4647C213.624,-64.4021 222.419,-52.7865 230.122,-42.6119"/>
<polygon fill="black" stroke="black" points="233.024,-44.5772 236.27,-34.4918 227.444,-40.3517 233.024,-44.5772"/>
</g>
<!-- 3&#45;&gt;null2 -->
<!-- null2&#45;&gt;null3 -->
<!-- 7&#45;&gt;null6 -->
<!-- null6&#45;&gt;11 -->
</g>
</svg>
