<?xml version="1.0" encoding="UTF-8" standalone="no"?>
<!DOCTYPE svg PUBLIC "-//W3C//DTD SVG 1.1//EN"
 "http://www.w3.org/Graphics/SVG/1.1/DTD/svg11.dtd">
<!-- Generated by graphviz version 2.36.0 (20140111.2315)
 -->
<!-- Title: G Pages: 1 -->
<svg width="233pt" height="194pt"
 viewBox="0.00 0.00 233.00 194.00" xmlns="http://www.w3.org/2000/svg" xmlns:xlink="http://www.w3.org/1999/xlink">
<g id="graph0" class="graph" transform="scale(1 1) rotate(0) translate(4 190)">
<title>G</title>
<polygon fill="white" stroke="none" points="-4,4 -4,-190 229,-190 229,4 -4,4"/>
<!-- 5 -->
<g id="node1" class="node"><title>5</title>
<ellipse fill="none" stroke="black" cx="107" cy="-168" rx="18" ry="18"/>
<text text-anchor="middle" x="107" y="-164.3" font-family="Helvetica,sans-Serif" font-size="14.00">5</text>
</g>
<!-- 4 -->
<g id="node2" class="node"><title>4</title>
<ellipse fill="none" stroke="black" cx="61" cy="-96" rx="18" ry="18"/>
<text text-anchor="middle" x="61" y="-92.3" font-family="Helvetica,sans-Serif" font-size="14.00">4</text>
</g>
<!-- 5&#45;&gt;4 -->
<g id="edge1" class="edge"><title>5&#45;&gt;4</title>
<path fill="none" stroke="black" d="M97.4688,-152.496C91.301,-143.11 83.1381,-130.688 76.099,-119.977"/>
<polygon fill="black" stroke="black" points="78.9358,-117.92 70.519,-111.485 73.0859,-121.765 78.9358,-117.92"/>
</g>
<!-- null1 -->
<!-- 5&#45;&gt;null1 -->
<!-- 9 -->
<g id="node4" class="node"><title>9</title>
<ellipse fill="none" stroke="black" cx="159" cy="-96" rx="18" ry="18"/>
<text text-anchor="middle" x="159" y="-92.3" font-family="Helvetica,sans-Serif" font-size="14.00">9</text>
</g>
<!-- 5&#45;&gt;9 -->
<g id="edge3" class="edge"><title>5&#45;&gt;9</title>
<path fill="none" stroke="black" d="M117.274,-153.17C124.538,-143.391 134.426,-130.08 142.754,-118.87"/>
<polygon fill="black" stroke="black" points="145.594,-120.916 148.748,-110.801 139.975,-116.741 145.594,-120.916"/>
</g>
<!-- 4&#45;&gt;null1 -->
<!-- 3 -->
<g id="node5" class="node"><title>3</title>
<ellipse fill="none" stroke="black" cx="18" cy="-21" rx="18" ry="18"/>
<text text-anchor="middle" x="18" y="-17.3" font-family="Helvetica,sans-Serif" font-size="14.00">3</text>
</g>
<!-- 4&#45;&gt;3 -->
<g id="edge6" class="edge"><title>4&#45;&gt;3</title>
<path fill="none" stroke="black" d="M52.2983,-80.2274C46.5083,-70.3978 38.7713,-57.2628 32.1111,-45.9561"/>
<polygon fill="black" stroke="black" points="34.9275,-43.8412 26.8363,-37.0012 28.896,-47.3939 34.9275,-43.8412"/>
</g>
<!-- null2 -->
<!-- 4&#45;&gt;null2 -->
<!-- null3 -->
<!-- 4&#45;&gt;null3 -->
<!-- null1&#45;&gt;9 -->
<!-- 7 -->
<g id="node8" class="node"><title>7</title>
<ellipse fill="none" stroke="black" cx="123" cy="-21" rx="18" ry="18"/>
<text text-anchor="middle" x="123" y="-17.3" font-family="Helvetica,sans-Serif" font-size="14.00">7</text>
</g>
<!-- 9&#45;&gt;7 -->
<g id="edge11" class="edge"><title>9&#45;&gt;7</title>
<path fill="none" stroke="black" d="M151.365,-79.5186C146.64,-69.937 140.469,-57.424 135.09,-46.5168"/>
<polygon fill="black" stroke="black" points="138.186,-44.8798 130.624,-37.4591 131.908,-47.9759 138.186,-44.8798"/>
</g>
<!-- null6 -->
<!-- 9&#45;&gt;null6 -->
<!-- 11 -->
<g id="node10" class="node"><title>11</title>
<ellipse fill="none" stroke="black" cx="205" cy="-21" rx="20.203" ry="20.5982"/>
<text text-anchor="middle" x="205" y="-17.3" font-family="Helvetica,sans-Serif" font-size="14.00">11</text>
</g>
<!-- 9&#45;&gt;11 -->
<g id="edge13" class="edge"><title>9&#45;&gt;11</title>
<path fill="none" stroke="black" d="M168.309,-80.2274C174.216,-70.8535 182.017,-58.4735 188.906,-47.5399"/>
<polygon fill="black" stroke="black" points="192.048,-49.1198 194.418,-38.7935 186.125,-45.388 192.048,-49.1198"/>
</g>
<!-- 3&#45;&gt;null2 -->
<!-- null2&#45;&gt;null3 -->
<!-- 7&#45;&gt;null6 -->
<!-- null6&#45;&gt;11 -->
</g>
</svg>
