<?xml version="1.0" encoding="UTF-8" standalone="no"?>
<!DOCTYPE svg PUBLIC "-//W3C//DTD SVG 1.1//EN"
 "http://www.w3.org/Graphics/SVG/1.1/DTD/svg11.dtd">
<!-- Generated by graphviz version 2.26.3 (20100126.1600)
 -->
<!-- Title: G Pages: 1 -->
<svg width="326pt" height="266pt"
 viewBox="0.00 0.00 326.00 266.00" xmlns="http://www.w3.org/2000/svg" xmlns:xlink="http://www.w3.org/1999/xlink">
<g id="graph1" class="graph" transform="scale(1 1) rotate(0) translate(4 262)">
<title>G</title>
<polygon fill="white" stroke="white" points="-4,5 -4,-262 323,-262 323,5 -4,5"/>
<!-- 1 -->
<g id="node1" class="node"><title>1</title>
<ellipse fill="none" stroke="black" cx="153" cy="-239" rx="27" ry="19.0919"/>
<text text-anchor="middle" x="153" y="-235.9" font-family="Helvetica,sans-Serif" font-size="14.00">1</text>
</g>
<!-- 2 -->
<g id="node3" class="node"><title>2</title>
<ellipse fill="none" stroke="black" cx="93" cy="-165" rx="27" ry="19.0919"/>
<text text-anchor="middle" x="93" y="-161.9" font-family="Helvetica,sans-Serif" font-size="14.00">2</text>
</g>
<!-- 1&#45;&gt;2 -->
<g id="edge2" class="edge"><title>1&#45;&gt;2</title>
<path fill="none" stroke="black" d="M139.385,-222.208C131.56,-212.558 121.59,-200.261 112.9,-189.544"/>
<polygon fill="black" stroke="black" points="115.578,-187.289 106.561,-181.725 110.14,-191.697 115.578,-187.289"/>
</g>
<!-- m1 -->
<!-- 1&#45;&gt;m1 -->
<!-- 3 -->
<g id="node7" class="node"><title>3</title>
<ellipse fill="none" stroke="black" cx="219" cy="-165" rx="27" ry="19.0919"/>
<text text-anchor="middle" x="219" y="-161.9" font-family="Helvetica,sans-Serif" font-size="14.00">3</text>
</g>
<!-- 1&#45;&gt;3 -->
<g id="edge6" class="edge"><title>1&#45;&gt;3</title>
<path fill="none" stroke="black" d="M167.648,-222.577C176.51,-212.641 187.961,-199.801 197.801,-188.769"/>
<polygon fill="black" stroke="black" points="200.576,-190.915 204.62,-181.122 195.352,-186.256 200.576,-190.915"/>
</g>
<!-- 2&#45;&gt;m1 -->
<!-- 4 -->
<g id="node11" class="node"><title>4</title>
<ellipse fill="none" stroke="black" cx="27" cy="-91" rx="27" ry="19.0919"/>
<text text-anchor="middle" x="27" y="-87.9" font-family="Helvetica,sans-Serif" font-size="14.00">4</text>
</g>
<!-- 2&#45;&gt;4 -->
<g id="edge12" class="edge"><title>2&#45;&gt;4</title>
<path fill="none" stroke="black" d="M78.3525,-148.577C69.4902,-138.641 58.0387,-125.801 48.1992,-114.769"/>
<polygon fill="black" stroke="black" points="50.6477,-112.256 41.3795,-107.122 45.4237,-116.915 50.6477,-112.256"/>
</g>
<!-- m2 -->
<!-- 2&#45;&gt;m2 -->
<!-- 5 -->
<g id="node15" class="node"><title>5</title>
<ellipse fill="none" stroke="black" cx="123" cy="-91" rx="27" ry="19.0919"/>
<text text-anchor="middle" x="123" y="-87.9" font-family="Helvetica,sans-Serif" font-size="14.00">5</text>
</g>
<!-- 2&#45;&gt;5 -->
<g id="edge16" class="edge"><title>2&#45;&gt;5</title>
<path fill="none" stroke="black" d="M100.416,-146.708C103.841,-138.258 107.983,-128.042 111.779,-118.678"/>
<polygon fill="black" stroke="black" points="115.052,-119.921 115.566,-109.338 108.565,-117.291 115.052,-119.921"/>
</g>
<!-- m1&#45;&gt;3 -->
<!-- 6 -->
<g id="node19" class="node"><title>6</title>
<ellipse fill="none" stroke="black" cx="195" cy="-91" rx="27" ry="19.0919"/>
<text text-anchor="middle" x="195" y="-87.9" font-family="Helvetica,sans-Serif" font-size="14.00">6</text>
</g>
<!-- 3&#45;&gt;6 -->
<g id="edge22" class="edge"><title>3&#45;&gt;6</title>
<path fill="none" stroke="black" d="M212.944,-146.327C210.3,-138.176 207.142,-128.438 204.217,-119.42"/>
<polygon fill="black" stroke="black" points="207.469,-118.1 201.054,-109.667 200.81,-120.259 207.469,-118.1"/>
</g>
<!-- m3 -->
<!-- 3&#45;&gt;m3 -->
<!-- 7 -->
<g id="node23" class="node"><title>7</title>
<ellipse fill="none" stroke="black" cx="291" cy="-91" rx="27" ry="19.0919"/>
<text text-anchor="middle" x="291" y="-87.9" font-family="Helvetica,sans-Serif" font-size="14.00">7</text>
</g>
<!-- 3&#45;&gt;7 -->
<g id="edge26" class="edge"><title>3&#45;&gt;7</title>
<path fill="none" stroke="black" d="M234.269,-149.307C244.225,-139.075 257.389,-125.545 268.529,-114.095"/>
<polygon fill="black" stroke="black" points="271.039,-116.534 275.504,-106.926 266.022,-111.653 271.039,-116.534"/>
</g>
<!-- 4&#45;&gt;m2 -->
<!-- l4 -->
<g id="node26" class="node"><title>l4</title>
<ellipse fill="black" stroke="black" cx="4" cy="-18" rx="1.8" ry="1.8"/>
</g>
<!-- 4&#45;&gt;l4 -->
<g id="edge32" class="edge"><title>4&#45;&gt;l4</title>
<path fill="none" stroke="black" d="M21.0769,-72.2007C16.8219,-58.6955 11.2228,-40.9245 7.61696,-29.4799"/>
<polygon fill="black" stroke="black" points="10.9141,-28.2973 4.57069,-19.8113 4.23759,-30.4009 10.9141,-28.2973"/>
</g>
<!-- m4 -->
<!-- 4&#45;&gt;m4 -->
<!-- r4 -->
<g id="node30" class="node"><title>r4</title>
<ellipse fill="black" stroke="black" cx="50" cy="-18" rx="1.8" ry="1.8"/>
</g>
<!-- 4&#45;&gt;r4 -->
<g id="edge36" class="edge"><title>4&#45;&gt;r4</title>
<path fill="none" stroke="black" d="M32.9231,-72.2007C37.1781,-58.6955 42.7772,-40.9245 46.383,-29.4799"/>
<polygon fill="black" stroke="black" points="49.7624,-30.4009 49.4293,-19.8113 43.0859,-28.2973 49.7624,-30.4009"/>
</g>
<!-- m2&#45;&gt;5 -->
<!-- l5 -->
<g id="node34" class="node"><title>l5</title>
<ellipse fill="black" stroke="black" cx="100" cy="-18" rx="1.8" ry="1.8"/>
</g>
<!-- 5&#45;&gt;l5 -->
<g id="edge42" class="edge"><title>5&#45;&gt;l5</title>
<path fill="none" stroke="black" d="M117.077,-72.2007C112.822,-58.6955 107.223,-40.9245 103.617,-29.4799"/>
<polygon fill="black" stroke="black" points="106.914,-28.2973 100.571,-19.8113 100.238,-30.4009 106.914,-28.2973"/>
</g>
<!-- m5 -->
<!-- 5&#45;&gt;m5 -->
<!-- r5 -->
<g id="node38" class="node"><title>r5</title>
<ellipse fill="black" stroke="black" cx="146" cy="-18" rx="1.8" ry="1.8"/>
</g>
<!-- 5&#45;&gt;r5 -->
<g id="edge46" class="edge"><title>5&#45;&gt;r5</title>
<path fill="none" stroke="black" d="M128.923,-72.2007C133.178,-58.6955 138.777,-40.9245 142.383,-29.4799"/>
<polygon fill="black" stroke="black" points="145.762,-30.4009 145.429,-19.8113 139.086,-28.2973 145.762,-30.4009"/>
</g>
<!-- 6&#45;&gt;m3 -->
<!-- l6 -->
<g id="node42" class="node"><title>l6</title>
<ellipse fill="black" stroke="black" cx="172" cy="-18" rx="1.8" ry="1.8"/>
</g>
<!-- 6&#45;&gt;l6 -->
<g id="edge52" class="edge"><title>6&#45;&gt;l6</title>
<path fill="none" stroke="black" d="M189.077,-72.2007C184.822,-58.6955 179.223,-40.9245 175.617,-29.4799"/>
<polygon fill="black" stroke="black" points="178.914,-28.2973 172.571,-19.8113 172.238,-30.4009 178.914,-28.2973"/>
</g>
<!-- m6 -->
<!-- 6&#45;&gt;m6 -->
<!-- r6 -->
<g id="node46" class="node"><title>r6</title>
<ellipse fill="black" stroke="black" cx="218" cy="-18" rx="1.8" ry="1.8"/>
</g>
<!-- 6&#45;&gt;r6 -->
<g id="edge56" class="edge"><title>6&#45;&gt;r6</title>
<path fill="none" stroke="black" d="M200.923,-72.2007C205.178,-58.6955 210.777,-40.9245 214.383,-29.4799"/>
<polygon fill="black" stroke="black" points="217.762,-30.4009 217.429,-19.8113 211.086,-28.2973 217.762,-30.4009"/>
</g>
<!-- m3&#45;&gt;7 -->
<!-- l7 -->
<g id="node50" class="node"><title>l7</title>
<ellipse fill="black" stroke="black" cx="268" cy="-18" rx="1.8" ry="1.8"/>
</g>
<!-- 7&#45;&gt;l7 -->
<g id="edge62" class="edge"><title>7&#45;&gt;l7</title>
<path fill="none" stroke="black" d="M285.077,-72.2007C280.822,-58.6955 275.223,-40.9245 271.617,-29.4799"/>
<polygon fill="black" stroke="black" points="274.914,-28.2973 268.571,-19.8113 268.238,-30.4009 274.914,-28.2973"/>
</g>
<!-- m7 -->
<!-- 7&#45;&gt;m7 -->
<!-- r7 -->
<g id="node54" class="node"><title>r7</title>
<ellipse fill="black" stroke="black" cx="314" cy="-18" rx="1.8" ry="1.8"/>
</g>
<!-- 7&#45;&gt;r7 -->
<g id="edge66" class="edge"><title>7&#45;&gt;r7</title>
<path fill="none" stroke="black" d="M296.923,-72.2007C301.178,-58.6955 306.777,-40.9245 310.383,-29.4799"/>
<polygon fill="black" stroke="black" points="313.762,-30.4009 313.429,-19.8113 307.086,-28.2973 313.762,-30.4009"/>
</g>
<!-- l4&#45;&gt;m4 -->
<!-- m4&#45;&gt;r4 -->
<!-- l5&#45;&gt;m5 -->
<!-- m5&#45;&gt;r5 -->
<!-- l6&#45;&gt;m6 -->
<!-- m6&#45;&gt;r6 -->
<!-- l7&#45;&gt;m7 -->
<!-- m7&#45;&gt;r7 -->
</g>
</svg>
