<?xml version="1.0" encoding="UTF-8" standalone="no"?>
<!DOCTYPE svg PUBLIC "-//W3C//DTD SVG 1.1//EN"
 "http://www.w3.org/Graphics/SVG/1.1/DTD/svg11.dtd">
<!-- Generated by graphviz version 2.36.0 (20140111.2315)
 -->
<!-- Title: G Pages: 1 -->
<svg width="314pt" height="135pt"
 viewBox="0.00 0.00 314.00 134.50" xmlns="http://www.w3.org/2000/svg" xmlns:xlink="http://www.w3.org/1999/xlink">
<g id="graph0" class="graph" transform="scale(1 1) rotate(0) translate(4 130.5)">
<title>G</title>
<polygon fill="white" stroke="none" points="-4,4 -4,-130.5 310,-130.5 310,4 -4,4"/>
<!-- ptr -->
<g id="node1" class="node"><title>ptr</title>
<polygon fill="none" stroke="black" points="16,-75 16,-111 70,-111 70,-75 16,-75"/>
<text text-anchor="middle" x="43" y="-89.3" font-family="Helvetica,sans-Serif" font-size="14.00"> </text>
<text text-anchor="middle" x="8" y="-115.3" font-family="Helvetica,sans-Serif" font-size="14.00">str</text>
</g>
<!-- stack -->
<g id="node2" class="node"><title>stack</title>
<polygon fill="none" stroke="black" points="31.5,-1 31.5,-37 306.5,-37 306.5,-1 31.5,-1"/>
<text text-anchor="middle" x="43.5" y="-15.3" font-family="Helvetica,sans-Serif" font-size="14.00">h</text>
<polyline fill="none" stroke="black" points="55.5,-1 55.5,-37 "/>
<text text-anchor="middle" x="67.5" y="-15.3" font-family="Helvetica,sans-Serif" font-size="14.00">e</text>
<polyline fill="none" stroke="black" points="79.5,-1 79.5,-37 "/>
<text text-anchor="middle" x="89.5" y="-15.3" font-family="Helvetica,sans-Serif" font-size="14.00">l</text>
<polyline fill="none" stroke="black" points="99.5,-1 99.5,-37 "/>
<text text-anchor="middle" x="109.5" y="-15.3" font-family="Helvetica,sans-Serif" font-size="14.00">l</text>
<polyline fill="none" stroke="black" points="119.5,-1 119.5,-37 "/>
<text text-anchor="middle" x="131.5" y="-15.3" font-family="Helvetica,sans-Serif" font-size="14.00">o</text>
<polyline fill="none" stroke="black" points="143.5,-1 143.5,-37 "/>
<text text-anchor="middle" x="153.5" y="-15.3" font-family="Helvetica,sans-Serif" font-size="14.00"> </text>
<polyline fill="none" stroke="black" points="163.5,-1 163.5,-37 "/>
<text text-anchor="middle" x="176.5" y="-15.3" font-family="Helvetica,sans-Serif" font-size="14.00">w</text>
<polyline fill="none" stroke="black" points="189.5,-1 189.5,-37 "/>
<text text-anchor="middle" x="201.5" y="-15.3" font-family="Helvetica,sans-Serif" font-size="14.00">o</text>
<polyline fill="none" stroke="black" points="213.5,-1 213.5,-37 "/>
<text text-anchor="middle" x="224" y="-15.3" font-family="Helvetica,sans-Serif" font-size="14.00">r</text>
<polyline fill="none" stroke="black" points="234.5,-1 234.5,-37 "/>
<text text-anchor="middle" x="244.5" y="-15.3" font-family="Helvetica,sans-Serif" font-size="14.00">l</text>
<polyline fill="none" stroke="black" points="254.5,-1 254.5,-37 "/>
<text text-anchor="middle" x="266.5" y="-15.3" font-family="Helvetica,sans-Serif" font-size="14.00">d</text>
<polyline fill="none" stroke="black" points="278.5,-1 278.5,-37 "/>
<text text-anchor="middle" x="292.5" y="-15.3" font-family="Helvetica,sans-Serif" font-size="14.00">\0</text>
</g>
<!-- ptr&#45;&gt;stack -->
<g id="edge1" class="edge"><title>ptr:0:c&#45;&gt;stack:0</title>
<path fill="none" stroke="black" d="M43,-93C43,-93 43,-70.2283 43,-48.275"/>
<polygon fill="black" stroke="black" points="46.5001,-48 43,-38 39.5001,-48 46.5001,-48"/>
</g>
</g>
</svg>
