<?xml version="1.0" encoding="UTF-8" standalone="no"?>
<!DOCTYPE svg PUBLIC "-//W3C//DTD SVG 1.1//EN"
 "http://www.w3.org/Graphics/SVG/1.1/DTD/svg11.dtd">
<!-- Generated by graphviz version 2.36.0 (20140111.2315)
 -->
<!-- Title: G Pages: 1 -->
<svg width="623pt" height="135pt"
 viewBox="0.00 0.00 622.50 134.50" xmlns="http://www.w3.org/2000/svg" xmlns:xlink="http://www.w3.org/1999/xlink">
<g id="graph0" class="graph" transform="scale(1 1) rotate(0) translate(4 130.5)">
<title>G</title>
<polygon fill="white" stroke="none" points="-4,4 -4,-130.5 618.5,-130.5 618.5,4 -4,4"/>
<!-- ptr -->
<g id="node1" class="node"><title>ptr</title>
<polygon fill="none" stroke="black" points="53.5,-75 53.5,-111 139.5,-111 139.5,-75 53.5,-75"/>
<text text-anchor="middle" x="96.5" y="-89.3" font-family="Helvetica,sans-Serif" font-size="14.00">0xfd21a8ce</text>
<text text-anchor="middle" x="44" y="-115.3" font-family="Helvetica,sans-Serif" font-size="14.00">str:</text>
</g>
<!-- stack -->
<g id="node2" class="node"><title>stack</title>
<polygon fill="none" stroke="black" points="74,-1 74,-37 615,-37 615,-1 74,-1"/>
<text text-anchor="middle" x="97" y="-15.3" font-family="Helvetica,sans-Serif" font-size="14.00">0x68</text>
<polyline fill="none" stroke="black" points="120,-1 120,-37 "/>
<text text-anchor="middle" x="143" y="-15.3" font-family="Helvetica,sans-Serif" font-size="14.00">0x65</text>
<polyline fill="none" stroke="black" points="166,-1 166,-37 "/>
<text text-anchor="middle" x="188.5" y="-15.3" font-family="Helvetica,sans-Serif" font-size="14.00">0x6c</text>
<polyline fill="none" stroke="black" points="211,-1 211,-37 "/>
<text text-anchor="middle" x="233.5" y="-15.3" font-family="Helvetica,sans-Serif" font-size="14.00">0x6c</text>
<polyline fill="none" stroke="black" points="256,-1 256,-37 "/>
<text text-anchor="middle" x="277" y="-15.3" font-family="Helvetica,sans-Serif" font-size="14.00">0x6f</text>
<polyline fill="none" stroke="black" points="298,-1 298,-37 "/>
<text text-anchor="middle" x="321" y="-15.3" font-family="Helvetica,sans-Serif" font-size="14.00">0x20</text>
<polyline fill="none" stroke="black" points="344,-1 344,-37 "/>
<text text-anchor="middle" x="367" y="-15.3" font-family="Helvetica,sans-Serif" font-size="14.00">0x77</text>
<polyline fill="none" stroke="black" points="390,-1 390,-37 "/>
<text text-anchor="middle" x="411" y="-15.3" font-family="Helvetica,sans-Serif" font-size="14.00">0x6f</text>
<polyline fill="none" stroke="black" points="432,-1 432,-37 "/>
<text text-anchor="middle" x="455" y="-15.3" font-family="Helvetica,sans-Serif" font-size="14.00">0x72</text>
<polyline fill="none" stroke="black" points="478,-1 478,-37 "/>
<text text-anchor="middle" x="500.5" y="-15.3" font-family="Helvetica,sans-Serif" font-size="14.00">0x6c</text>
<polyline fill="none" stroke="black" points="523,-1 523,-37 "/>
<text text-anchor="middle" x="546" y="-15.3" font-family="Helvetica,sans-Serif" font-size="14.00">0x64</text>
<polyline fill="none" stroke="black" points="569,-1 569,-37 "/>
<text text-anchor="middle" x="592" y="-15.3" font-family="Helvetica,sans-Serif" font-size="14.00">0x00</text>
<text text-anchor="middle" x="37" y="-41.3" font-family="Helvetica,sans-Serif" font-size="14.00">0xfd21a8ce:</text>
</g>
<!-- ptr&#45;&gt;stack -->
</g>
</svg>
