<?xml version="1.0" encoding="UTF-8" standalone="no"?>
<!DOCTYPE svg PUBLIC "-//W3C//DTD SVG 1.1//EN"
 "http://www.w3.org/Graphics/SVG/1.1/DTD/svg11.dtd">
<!-- Generated by graphviz version 2.36.0 (20140111.2315)
 -->
<!-- Title: G Pages: 1 -->
<svg width="317pt" height="135pt"
 viewBox="0.00 0.00 317.00 134.50" xmlns="http://www.w3.org/2000/svg" xmlns:xlink="http://www.w3.org/1999/xlink">
<g id="graph0" class="graph" transform="scale(1 1) rotate(0) translate(4 130.5)">
<title>G</title>
<polygon fill="white" stroke="none" points="-4,4 -4,-130.5 313,-130.5 313,4 -4,4"/>
<!-- ptr -->
<g id="node1" class="node"><title>ptr</title>
<polygon fill="none" stroke="black" points="19,-75 19,-111 73,-111 73,-75 19,-75"/>
<text text-anchor="middle" x="46" y="-89.3" font-family="Helvetica,sans-Serif" font-size="14.00"> </text>
<text text-anchor="middle" x="9.5" y="-115.3" font-family="Helvetica,sans-Serif" font-size="14.00">str:</text>
</g>
<!-- stack -->
<g id="node2" class="node"><title>stack</title>
<polygon fill="none" stroke="black" points="34.5,-1 34.5,-37 309.5,-37 309.5,-1 34.5,-1"/>
<text text-anchor="middle" x="46.5" y="-15.3" font-family="Helvetica,sans-Serif" font-size="14.00">h</text>
<polyline fill="none" stroke="black" points="58.5,-1 58.5,-37 "/>
<text text-anchor="middle" x="70.5" y="-15.3" font-family="Helvetica,sans-Serif" font-size="14.00">e</text>
<polyline fill="none" stroke="black" points="82.5,-1 82.5,-37 "/>
<text text-anchor="middle" x="92.5" y="-15.3" font-family="Helvetica,sans-Serif" font-size="14.00">l</text>
<polyline fill="none" stroke="black" points="102.5,-1 102.5,-37 "/>
<text text-anchor="middle" x="112.5" y="-15.3" font-family="Helvetica,sans-Serif" font-size="14.00">l</text>
<polyline fill="none" stroke="black" points="122.5,-1 122.5,-37 "/>
<text text-anchor="middle" x="134.5" y="-15.3" font-family="Helvetica,sans-Serif" font-size="14.00">o</text>
<polyline fill="none" stroke="black" points="146.5,-1 146.5,-37 "/>
<text text-anchor="middle" x="156.5" y="-15.3" font-family="Helvetica,sans-Serif" font-size="14.00"> </text>
<polyline fill="none" stroke="black" points="166.5,-1 166.5,-37 "/>
<text text-anchor="middle" x="179.5" y="-15.3" font-family="Helvetica,sans-Serif" font-size="14.00">w</text>
<polyline fill="none" stroke="black" points="192.5,-1 192.5,-37 "/>
<text text-anchor="middle" x="204.5" y="-15.3" font-family="Helvetica,sans-Serif" font-size="14.00">o</text>
<polyline fill="none" stroke="black" points="216.5,-1 216.5,-37 "/>
<text text-anchor="middle" x="227" y="-15.3" font-family="Helvetica,sans-Serif" font-size="14.00">r</text>
<polyline fill="none" stroke="black" points="237.5,-1 237.5,-37 "/>
<text text-anchor="middle" x="247.5" y="-15.3" font-family="Helvetica,sans-Serif" font-size="14.00">l</text>
<polyline fill="none" stroke="black" points="257.5,-1 257.5,-37 "/>
<text text-anchor="middle" x="269.5" y="-15.3" font-family="Helvetica,sans-Serif" font-size="14.00">d</text>
<polyline fill="none" stroke="black" points="281.5,-1 281.5,-37 "/>
<text text-anchor="middle" x="295.5" y="-15.3" font-family="Helvetica,sans-Serif" font-size="14.00">\0</text>
</g>
<!-- ptr&#45;&gt;stack -->
<g id="edge1" class="edge"><title>ptr:0:c&#45;&gt;stack:0</title>
<path fill="none" stroke="black" d="M46,-93C46,-93 46,-70.2283 46,-48.275"/>
<polygon fill="black" stroke="black" points="49.5001,-48 46,-38 42.5001,-48 49.5001,-48"/>
</g>
</g>
</svg>
