<?xml version="1.0" encoding="UTF-8" standalone="no"?>
<!DOCTYPE svg PUBLIC "-//W3C//DTD SVG 1.1//EN"
 "http://www.w3.org/Graphics/SVG/1.1/DTD/svg11.dtd">
<!-- Generated by graphviz version 2.36.0 (20140111.2315)
 -->
<!-- Title: G Pages: 1 -->
<svg width="209pt" height="260pt"
 viewBox="0.00 0.00 209.00 260.00" xmlns="http://www.w3.org/2000/svg" xmlns:xlink="http://www.w3.org/1999/xlink">
<g id="graph0" class="graph" transform="scale(1 1) rotate(0) translate(4 256)">
<title>G</title>
<polygon fill="white" stroke="none" points="-4,4 -4,-256 205,-256 205,4 -4,4"/>
<!-- eq -->
<g id="node1" class="node"><title>eq</title>
<ellipse fill="none" stroke="black" cx="76" cy="-234" rx="27" ry="18"/>
<text text-anchor="middle" x="76" y="-230.3" font-family="Helvetica,sans-Serif" font-size="14.00">=</text>
</g>
<!-- a -->
<g id="node2" class="node"><title>a</title>
<ellipse fill="none" stroke="black" cx="27" cy="-162" rx="27" ry="18"/>
<text text-anchor="middle" x="27" y="-158.3" font-family="Helvetica,sans-Serif" font-size="14.00">a</text>
</g>
<!-- eq&#45;&gt;a -->
<g id="edge1" class="edge"><title>eq&#45;&gt;a</title>
<path fill="none" stroke="black" d="M65.1253,-217.465C58.8449,-208.493 50.813,-197.019 43.7423,-186.918"/>
<polygon fill="black" stroke="black" points="46.4463,-184.677 37.8443,-178.492 40.7116,-188.691 46.4463,-184.677"/>
</g>
<!-- ma -->
<!-- eq&#45;&gt;ma -->
<!-- star -->
<g id="node4" class="node"><title>star</title>
<ellipse fill="none" stroke="black" cx="125" cy="-162" rx="27" ry="18"/>
<text text-anchor="middle" x="125" y="-158.3" font-family="Helvetica,sans-Serif" font-size="14.00">*</text>
</g>
<!-- eq&#45;&gt;star -->
<g id="edge3" class="edge"><title>eq&#45;&gt;star</title>
<path fill="none" stroke="black" d="M86.8747,-217.465C93.1551,-208.493 101.187,-197.019 108.258,-186.918"/>
<polygon fill="black" stroke="black" points="111.288,-188.691 114.156,-178.492 105.554,-184.677 111.288,-188.691"/>
</g>
<!-- a&#45;&gt;ma -->
<!-- ma&#45;&gt;star -->
<!-- plus -->
<g id="node5" class="node"><title>plus</title>
<ellipse fill="none" stroke="black" cx="76" cy="-90" rx="27" ry="18"/>
<text text-anchor="middle" x="76" y="-86.3" font-family="Helvetica,sans-Serif" font-size="14.00">+</text>
</g>
<!-- star&#45;&gt;plus -->
<g id="edge6" class="edge"><title>star&#45;&gt;plus</title>
<path fill="none" stroke="black" d="M114.125,-145.465C107.845,-136.493 99.813,-125.019 92.7423,-114.918"/>
<polygon fill="black" stroke="black" points="95.4463,-112.677 86.8443,-106.492 89.7116,-116.691 95.4463,-112.677"/>
</g>
<!-- mstar -->
<!-- star&#45;&gt;mstar -->
<!-- d -->
<g id="node7" class="node"><title>d</title>
<ellipse fill="none" stroke="black" cx="174" cy="-90" rx="27" ry="18"/>
<text text-anchor="middle" x="174" y="-86.3" font-family="Helvetica,sans-Serif" font-size="14.00">d</text>
</g>
<!-- star&#45;&gt;d -->
<g id="edge8" class="edge"><title>star&#45;&gt;d</title>
<path fill="none" stroke="black" d="M135.875,-145.465C142.155,-136.493 150.187,-125.019 157.258,-114.918"/>
<polygon fill="black" stroke="black" points="160.288,-116.691 163.156,-106.492 154.554,-112.677 160.288,-116.691"/>
</g>
<!-- plus&#45;&gt;mstar -->
<!-- b -->
<g id="node8" class="node"><title>b</title>
<ellipse fill="none" stroke="black" cx="27" cy="-18" rx="27" ry="18"/>
<text text-anchor="middle" x="27" y="-14.3" font-family="Helvetica,sans-Serif" font-size="14.00">b</text>
</g>
<!-- plus&#45;&gt;b -->
<g id="edge11" class="edge"><title>plus&#45;&gt;b</title>
<path fill="none" stroke="black" d="M65.1253,-73.4647C58.8449,-64.4927 50.813,-53.0185 43.7423,-42.9176"/>
<polygon fill="black" stroke="black" points="46.4463,-40.677 37.8443,-34.4918 40.7116,-44.6913 46.4463,-40.677"/>
</g>
<!-- mplus -->
<!-- plus&#45;&gt;mplus -->
<!-- c -->
<g id="node10" class="node"><title>c</title>
<ellipse fill="none" stroke="black" cx="125" cy="-18" rx="27" ry="18"/>
<text text-anchor="middle" x="125" y="-14.3" font-family="Helvetica,sans-Serif" font-size="14.00">c</text>
</g>
<!-- plus&#45;&gt;c -->
<g id="edge13" class="edge"><title>plus&#45;&gt;c</title>
<path fill="none" stroke="black" d="M86.8747,-73.4647C93.1551,-64.4927 101.187,-53.0185 108.258,-42.9176"/>
<polygon fill="black" stroke="black" points="111.288,-44.6913 114.156,-34.4918 105.554,-40.677 111.288,-44.6913"/>
</g>
<!-- mstar&#45;&gt;d -->
<!-- b&#45;&gt;mplus -->
<!-- mplus&#45;&gt;c -->
</g>
</svg>
