<?xml version="1.0" encoding="UTF-8" standalone="no"?>
<!DOCTYPE svg PUBLIC "-//W3C//DTD SVG 1.1//EN"
 "http://www.w3.org/Graphics/SVG/1.1/DTD/svg11.dtd">
<!-- Generated by graphviz version 2.26.3 (20100126.1600)
 -->
<!-- Title: G Pages: 1 -->
<svg width="117pt" height="120pt"
 viewBox="0.00 0.00 117.00 120.00" xmlns="http://www.w3.org/2000/svg" xmlns:xlink="http://www.w3.org/1999/xlink">
<g id="graph1" class="graph" transform="scale(1 1) rotate(0) translate(4 116)">
<title>G</title>
<polygon fill="white" stroke="white" points="-4,5 -4,-116 114,-116 114,5 -4,5"/>
<!-- stack -->
<g id="node1" class="node"><title>stack</title>
<polygon fill="none" stroke="black" points="9,-75 9,-111 109,-111 109,-75 9,-75"/>
<text text-anchor="middle" x="19" y="-89.9" font-family="Helvetica,sans-Serif" font-size="14.00"> </text>
<polyline fill="none" stroke="black" points="29,-75 29,-111 "/>
<text text-anchor="middle" x="39" y="-89.9" font-family="Helvetica,sans-Serif" font-size="14.00"> </text>
<polyline fill="none" stroke="black" points="49,-75 49,-111 "/>
<text text-anchor="middle" x="59" y="-89.9" font-family="Helvetica,sans-Serif" font-size="14.00"> </text>
<polyline fill="none" stroke="black" points="69,-75 69,-111 "/>
<text text-anchor="middle" x="79" y="-89.9" font-family="Helvetica,sans-Serif" font-size="14.00"> </text>
<polyline fill="none" stroke="black" points="89,-75 89,-111 "/>
<text text-anchor="middle" x="99" y="-89.9" font-family="Helvetica,sans-Serif" font-size="14.00"> </text>
</g>
<!-- a -->
<g id="node3" class="node"><title>a</title>
<ellipse fill="none" stroke="black" cx="19" cy="-19" rx="19.0919" ry="19.0919"/>
<text text-anchor="middle" x="19" y="-15.9" font-family="Helvetica,sans-Serif" font-size="14.00">a</text>
</g>
<!-- stack&#45;&gt;a -->
<g id="edge2" class="edge"><title>stack:0:c&#45;&gt;a</title>
<path fill="none" stroke="black" d="M19,-94C19,-94 19,-69.5104 19,-48.5192"/>
<polygon fill="black" stroke="black" points="22.5001,-48.3143 19,-38.3144 15.5001,-48.3144 22.5001,-48.3143"/>
</g>
</g>
</svg>
