<?xml version="1.0" encoding="UTF-8" standalone="no"?>
<!DOCTYPE svg PUBLIC "-//W3C//DTD SVG 1.1//EN"
 "http://www.w3.org/Graphics/SVG/1.1/DTD/svg11.dtd">
<!-- Generated by graphviz version 2.26.3 (20100126.1600)
 -->
<!-- Title: G Pages: 1 -->
<svg width="377pt" height="268pt"
 viewBox="0.00 0.00 377.00 268.00" xmlns="http://www.w3.org/2000/svg" xmlns:xlink="http://www.w3.org/1999/xlink">
<g id="graph1" class="graph" transform="scale(1 1) rotate(0) translate(4 264)">
<title>G</title>
<polygon fill="white" stroke="white" points="-4,5 -4,-264 374,-264 374,5 -4,5"/>
<!-- stack -->
<g id="node1" class="node"><title>stack</title>
<polygon fill="none" stroke="black" points="150,-223 150,-259 250,-259 250,-223 150,-223"/>
<text text-anchor="middle" x="160" y="-237.9" font-family="Helvetica,sans-Serif" font-size="14.00"> </text>
<polyline fill="none" stroke="black" points="170,-223 170,-259 "/>
<text text-anchor="middle" x="180" y="-237.9" font-family="Helvetica,sans-Serif" font-size="14.00"> </text>
<polyline fill="none" stroke="black" points="190,-223 190,-259 "/>
<text text-anchor="middle" x="200" y="-237.9" font-family="Helvetica,sans-Serif" font-size="14.00"> </text>
<polyline fill="none" stroke="black" points="210,-223 210,-259 "/>
<text text-anchor="middle" x="220" y="-237.9" font-family="Helvetica,sans-Serif" font-size="14.00"> </text>
<polyline fill="none" stroke="black" points="230,-223 230,-259 "/>
<text text-anchor="middle" x="240" y="-237.9" font-family="Helvetica,sans-Serif" font-size="14.00"> </text>
</g>
<!-- plus1 -->
<g id="node2" class="node"><title>plus1</title>
<ellipse fill="none" stroke="black" cx="101" cy="-167" rx="19.0919" ry="19.0919"/>
<text text-anchor="middle" x="101" y="-163.9" font-family="Helvetica,sans-Serif" font-size="14.00">+</text>
</g>
<!-- stack&#45;&gt;plus1 -->
<g id="edge2" class="edge"><title>stack:0:c&#45;&gt;plus1</title>
<path fill="none" stroke="black" d="M160,-242C160,-242 155.488,-230.547 150,-222.5 141.771,-210.434 131.194,-198.146 121.974,-188.209"/>
<polygon fill="black" stroke="black" points="124.362,-185.641 114.942,-180.794 119.283,-190.458 124.362,-185.641"/>
</g>
<!-- mult1 -->
<g id="node4" class="node"><title>mult1</title>
<ellipse fill="none" stroke="black" cx="212" cy="-167" rx="19.0919" ry="19.0919"/>
<text text-anchor="middle" x="212" y="-163.9" font-family="Helvetica,sans-Serif" font-size="14.00">*</text>
</g>
<!-- stack&#45;&gt;mult1 -->
<g id="edge4" class="edge"><title>stack:1:c&#45;&gt;mult1</title>
<path fill="none" stroke="black" d="M180,-242C180,-242 191.245,-215.644 200.403,-194.179"/>
<polygon fill="black" stroke="black" points="203.711,-195.345 204.416,-184.774 197.273,-192.598 203.711,-195.345"/>
</g>
<!-- hidden1 -->
<!-- plus1&#45;&gt;hidden1 -->
<!-- a -->
<g id="node11" class="node"><title>a</title>
<ellipse fill="none" stroke="black" cx="19" cy="-93" rx="19.0919" ry="19.0919"/>
<text text-anchor="middle" x="19" y="-89.9" font-family="Helvetica,sans-Serif" font-size="14.00">a</text>
</g>
<!-- plus1&#45;&gt;a -->
<g id="edge6" class="edge"><title>plus1&#45;&gt;a</title>
<path fill="none" stroke="black" d="M86.7167,-154.11C74.0178,-142.65 55.2623,-125.725 40.708,-112.59"/>
<polygon fill="black" stroke="black" points="42.8885,-109.843 33.1196,-105.742 38.1987,-115.04 42.8885,-109.843"/>
</g>
<!-- b -->
<g id="node14" class="node"><title>b</title>
<ellipse fill="none" stroke="black" cx="129" cy="-93" rx="19.0919" ry="19.0919"/>
<text text-anchor="middle" x="129" y="-89.9" font-family="Helvetica,sans-Serif" font-size="14.00">b</text>
</g>
<!-- plus1&#45;&gt;b -->
<g id="edge10" class="edge"><title>plus1&#45;&gt;b</title>
<path fill="none" stroke="black" d="M107.778,-149.087C111.021,-140.515 114.977,-130.062 118.59,-120.512"/>
<polygon fill="black" stroke="black" points="121.922,-121.596 122.187,-111.005 115.375,-119.119 121.922,-121.596"/>
</g>
<!-- plus2 -->
<g id="node3" class="node"><title>plus2</title>
<ellipse fill="none" stroke="black" cx="295" cy="-93" rx="19.0919" ry="19.0919"/>
<text text-anchor="middle" x="295" y="-89.9" font-family="Helvetica,sans-Serif" font-size="14.00">+</text>
</g>
<!-- hidden2 -->
<!-- plus2&#45;&gt;hidden2 -->
<!-- d -->
<g id="node24" class="node"><title>d</title>
<ellipse fill="none" stroke="black" cx="240" cy="-19" rx="19.0919" ry="19.0919"/>
<text text-anchor="middle" x="240" y="-15.9" font-family="Helvetica,sans-Serif" font-size="14.00">d</text>
</g>
<!-- plus2&#45;&gt;d -->
<g id="edge26" class="edge"><title>plus2&#45;&gt;d</title>
<path fill="none" stroke="black" d="M283.604,-77.6672C276.082,-67.5467 266.078,-54.0868 257.55,-42.6125"/>
<polygon fill="black" stroke="black" points="260.156,-40.2513 251.381,-34.3132 254.538,-44.427 260.156,-40.2513"/>
</g>
<!-- e -->
<g id="node27" class="node"><title>e</title>
<ellipse fill="none" stroke="black" cx="350" cy="-19" rx="19.0919" ry="19.0919"/>
<text text-anchor="middle" x="350" y="-15.9" font-family="Helvetica,sans-Serif" font-size="14.00">e</text>
</g>
<!-- plus2&#45;&gt;e -->
<g id="edge30" class="edge"><title>plus2&#45;&gt;e</title>
<path fill="none" stroke="black" d="M306.396,-77.6672C313.918,-67.5467 323.922,-54.0868 332.45,-42.6125"/>
<polygon fill="black" stroke="black" points="335.462,-44.427 338.619,-34.3132 329.844,-40.2513 335.462,-44.427"/>
</g>
<!-- mult1&#45;&gt;plus2 -->
<g id="edge20" class="edge"><title>mult1&#45;&gt;plus2</title>
<path fill="none" stroke="black" d="M226.457,-154.11C239.311,-142.65 258.295,-125.725 273.027,-112.59"/>
<polygon fill="black" stroke="black" points="275.573,-115.009 280.708,-105.742 270.915,-109.784 275.573,-115.009"/>
</g>
<!-- hidden3 -->
<!-- mult1&#45;&gt;hidden3 -->
<!-- c -->
<g id="node18" class="node"><title>c</title>
<ellipse fill="none" stroke="black" cx="185" cy="-93" rx="19.0919" ry="19.0919"/>
<text text-anchor="middle" x="185" y="-89.9" font-family="Helvetica,sans-Serif" font-size="14.00">c</text>
</g>
<!-- mult1&#45;&gt;c -->
<g id="edge16" class="edge"><title>mult1&#45;&gt;c</title>
<path fill="none" stroke="black" d="M205.464,-149.087C202.337,-140.515 198.522,-130.062 195.038,-120.512"/>
<polygon fill="black" stroke="black" points="198.285,-119.199 191.569,-111.005 191.709,-121.599 198.285,-119.199"/>
</g>
<!-- hidden1&#45;&gt;b -->
<!-- hidden2&#45;&gt;e -->
<!-- hidden3&#45;&gt;plus2 -->
<!-- a&#45;&gt;hidden1 -->
<!-- c&#45;&gt;hidden3 -->
<!-- d&#45;&gt;hidden2 -->
</g>
</svg>
