<?xml version="1.0" encoding="UTF-8" standalone="no"?>
<!DOCTYPE svg PUBLIC "-//W3C//DTD SVG 1.1//EN"
 "http://www.w3.org/Graphics/SVG/1.1/DTD/svg11.dtd">
<!-- Generated by graphviz version 2.36.0 (20140111.2315)
 -->
<!-- Title: G Pages: 1 -->
<svg width="260pt" height="190pt"
 viewBox="0.00 0.00 260.00 190.00" xmlns="http://www.w3.org/2000/svg" xmlns:xlink="http://www.w3.org/1999/xlink">
<g id="graph0" class="graph" transform="scale(1 1) rotate(0) translate(4 186)">
<title>G</title>
<polygon fill="white" stroke="none" points="-4,4 -4,-186 256,-186 256,4 -4,4"/>
<!-- stack -->
<g id="node1" class="node"><title>stack</title>
<polygon fill="none" stroke="black" points="113,-145 113,-181 213,-181 213,-145 113,-145"/>
<text text-anchor="middle" x="123" y="-159.3" font-family="Helvetica,sans-Serif" font-size="14.00"> </text>
<polyline fill="none" stroke="black" points="133,-145 133,-181 "/>
<text text-anchor="middle" x="143" y="-159.3" font-family="Helvetica,sans-Serif" font-size="14.00"> </text>
<polyline fill="none" stroke="black" points="153,-145 153,-181 "/>
<text text-anchor="middle" x="163" y="-159.3" font-family="Helvetica,sans-Serif" font-size="14.00"> </text>
<polyline fill="none" stroke="black" points="173,-145 173,-181 "/>
<text text-anchor="middle" x="183" y="-159.3" font-family="Helvetica,sans-Serif" font-size="14.00"> </text>
<polyline fill="none" stroke="black" points="193,-145 193,-181 "/>
<text text-anchor="middle" x="203" y="-159.3" font-family="Helvetica,sans-Serif" font-size="14.00"> </text>
</g>
<!-- plus1 -->
<g id="node2" class="node"><title>plus1</title>
<ellipse fill="none" stroke="black" cx="72" cy="-90" rx="18" ry="18"/>
<text text-anchor="middle" x="72" y="-86.3" font-family="Helvetica,sans-Serif" font-size="14.00">+</text>
</g>
<!-- stack&#45;&gt;plus1 -->
<g id="edge1" class="edge"><title>stack:0:c&#45;&gt;plus1</title>
<path fill="none" stroke="black" d="M123,-163C123,-163 118.081,-152.345 113,-144.5 105.817,-133.409 96.9933,-121.693 89.3741,-112.061"/>
<polygon fill="black" stroke="black" points="92.0516,-109.806 83.0601,-104.202 86.5945,-114.19 92.0516,-109.806"/>
</g>
<!-- c -->
<g id="node4" class="node"><title>c</title>
<ellipse fill="none" stroke="black" cx="126" cy="-90" rx="18" ry="18"/>
<text text-anchor="middle" x="126" y="-86.3" font-family="Helvetica,sans-Serif" font-size="14.00">c</text>
</g>
<!-- stack&#45;&gt;c -->
<g id="edge2" class="edge"><title>stack:1:c&#45;&gt;c</title>
<path fill="none" stroke="black" d="M143,-163C143,-163 137.12,-138.095 132.276,-117.58"/>
<polygon fill="black" stroke="black" points="135.647,-116.627 129.943,-107.699 128.835,-118.236 135.647,-116.627"/>
</g>
<!-- d -->
<g id="node5" class="node"><title>d</title>
<ellipse fill="none" stroke="black" cx="180" cy="-90" rx="18" ry="18"/>
<text text-anchor="middle" x="180" y="-86.3" font-family="Helvetica,sans-Serif" font-size="14.00">d</text>
</g>
<!-- stack&#45;&gt;d -->
<g id="edge3" class="edge"><title>stack:2:c&#45;&gt;d</title>
<path fill="none" stroke="black" d="M163,-163C163,-163 168.88,-138.095 173.724,-117.58"/>
<polygon fill="black" stroke="black" points="177.165,-118.236 176.057,-107.699 170.353,-116.627 177.165,-118.236"/>
</g>
<!-- e -->
<g id="node6" class="node"><title>e</title>
<ellipse fill="none" stroke="black" cx="234" cy="-90" rx="18" ry="18"/>
<text text-anchor="middle" x="234" y="-86.3" font-family="Helvetica,sans-Serif" font-size="14.00">e</text>
</g>
<!-- stack&#45;&gt;e -->
<g id="edge4" class="edge"><title>stack:3:c&#45;&gt;e</title>
<path fill="none" stroke="black" d="M183,-163C183,-163 187.919,-152.345 193,-144.5 200.183,-133.409 209.007,-121.693 216.626,-112.061"/>
<polygon fill="black" stroke="black" points="219.405,-114.19 222.94,-104.202 213.948,-109.806 219.405,-114.19"/>
</g>
<!-- hidden1 -->
<!-- plus1&#45;&gt;hidden1 -->
<!-- a -->
<g id="node7" class="node"><title>a</title>
<ellipse fill="none" stroke="black" cx="18" cy="-18" rx="18" ry="18"/>
<text text-anchor="middle" x="18" y="-14.3" font-family="Helvetica,sans-Serif" font-size="14.00">a</text>
</g>
<!-- plus1&#45;&gt;a -->
<g id="edge5" class="edge"><title>plus1&#45;&gt;a</title>
<path fill="none" stroke="black" d="M61.3313,-75.1703C53.7874,-65.391 43.5188,-52.0799 34.8713,-40.8702"/>
<polygon fill="black" stroke="black" points="37.5258,-38.581 28.6465,-32.801 31.9833,-42.8567 37.5258,-38.581"/>
</g>
<!-- b -->
<g id="node8" class="node"><title>b</title>
<ellipse fill="none" stroke="black" cx="126" cy="-18" rx="18" ry="18"/>
<text text-anchor="middle" x="126" y="-14.3" font-family="Helvetica,sans-Serif" font-size="14.00">b</text>
</g>
<!-- plus1&#45;&gt;b -->
<g id="edge7" class="edge"><title>plus1&#45;&gt;b</title>
<path fill="none" stroke="black" d="M82.6687,-75.1703C90.2126,-65.391 100.481,-52.0799 109.129,-40.8702"/>
<polygon fill="black" stroke="black" points="112.017,-42.8567 115.354,-32.801 106.474,-38.581 112.017,-42.8567"/>
</g>
<!-- hidden1&#45;&gt;b -->
<!-- a&#45;&gt;hidden1 -->
</g>
</svg>
