<?xml version="1.0" encoding="UTF-8" standalone="no"?>
<!DOCTYPE svg PUBLIC "-//W3C//DTD SVG 1.1//EN"
 "http://www.w3.org/Graphics/SVG/1.1/DTD/svg11.dtd">
<!-- Generated by graphviz version 2.36.0 (20140111.2315)
 -->
<!-- Title: G Pages: 1 -->
<svg width="187pt" height="190pt"
 viewBox="0.00 0.00 187.00 190.00" xmlns="http://www.w3.org/2000/svg" xmlns:xlink="http://www.w3.org/1999/xlink">
<g id="graph0" class="graph" transform="scale(1 1) rotate(0) translate(4 186)">
<title>G</title>
<polygon fill="white" stroke="none" points="-4,4 -4,-186 183,-186 183,4 -4,4"/>
<!-- stack -->
<g id="node1" class="node"><title>stack</title>
<polygon fill="none" stroke="black" points="79,-145 79,-181 179,-181 179,-145 79,-145"/>
<text text-anchor="middle" x="89" y="-159.3" font-family="Helvetica,sans-Serif" font-size="14.00"> </text>
<polyline fill="none" stroke="black" points="99,-145 99,-181 "/>
<text text-anchor="middle" x="109" y="-159.3" font-family="Helvetica,sans-Serif" font-size="14.00"> </text>
<polyline fill="none" stroke="black" points="119,-145 119,-181 "/>
<text text-anchor="middle" x="129" y="-159.3" font-family="Helvetica,sans-Serif" font-size="14.00"> </text>
<polyline fill="none" stroke="black" points="139,-145 139,-181 "/>
<text text-anchor="middle" x="149" y="-159.3" font-family="Helvetica,sans-Serif" font-size="14.00"> </text>
<polyline fill="none" stroke="black" points="159,-145 159,-181 "/>
<text text-anchor="middle" x="169" y="-159.3" font-family="Helvetica,sans-Serif" font-size="14.00"> </text>
</g>
<!-- plus1 -->
<g id="node2" class="node"><title>plus1</title>
<ellipse fill="none" stroke="black" cx="72" cy="-90" rx="18" ry="18"/>
<text text-anchor="middle" x="72" y="-86.3" font-family="Helvetica,sans-Serif" font-size="14.00">+</text>
</g>
<!-- stack&#45;&gt;plus1 -->
<g id="edge1" class="edge"><title>stack:0:c&#45;&gt;plus1</title>
<path fill="none" stroke="black" d="M89,-163C89,-163 83.1197,-138.095 78.2758,-117.58"/>
<polygon fill="black" stroke="black" points="81.6472,-116.627 75.9429,-107.699 74.8345,-118.236 81.6472,-116.627"/>
</g>
<!-- c -->
<g id="node4" class="node"><title>c</title>
<ellipse fill="none" stroke="black" cx="126" cy="-90" rx="18" ry="18"/>
<text text-anchor="middle" x="126" y="-86.3" font-family="Helvetica,sans-Serif" font-size="14.00">c</text>
</g>
<!-- stack&#45;&gt;c -->
<g id="edge2" class="edge"><title>stack:1:c&#45;&gt;c</title>
<path fill="none" stroke="black" d="M109,-163C109,-163 114.88,-138.095 119.724,-117.58"/>
<polygon fill="black" stroke="black" points="123.165,-118.236 122.057,-107.699 116.353,-116.627 123.165,-118.236"/>
</g>
<!-- hidden1 -->
<!-- plus1&#45;&gt;hidden1 -->
<!-- a -->
<g id="node5" class="node"><title>a</title>
<ellipse fill="none" stroke="black" cx="18" cy="-18" rx="18" ry="18"/>
<text text-anchor="middle" x="18" y="-14.3" font-family="Helvetica,sans-Serif" font-size="14.00">a</text>
</g>
<!-- plus1&#45;&gt;a -->
<g id="edge3" class="edge"><title>plus1&#45;&gt;a</title>
<path fill="none" stroke="black" d="M61.3313,-75.1703C53.7874,-65.391 43.5188,-52.0799 34.8713,-40.8702"/>
<polygon fill="black" stroke="black" points="37.5258,-38.581 28.6465,-32.801 31.9833,-42.8567 37.5258,-38.581"/>
</g>
<!-- b -->
<g id="node6" class="node"><title>b</title>
<ellipse fill="none" stroke="black" cx="126" cy="-18" rx="18" ry="18"/>
<text text-anchor="middle" x="126" y="-14.3" font-family="Helvetica,sans-Serif" font-size="14.00">b</text>
</g>
<!-- plus1&#45;&gt;b -->
<g id="edge5" class="edge"><title>plus1&#45;&gt;b</title>
<path fill="none" stroke="black" d="M82.6687,-75.1703C90.2126,-65.391 100.481,-52.0799 109.129,-40.8702"/>
<polygon fill="black" stroke="black" points="112.017,-42.8567 115.354,-32.801 106.474,-38.581 112.017,-42.8567"/>
</g>
<!-- hidden1&#45;&gt;b -->
<!-- a&#45;&gt;hidden1 -->
</g>
</svg>
