<?xml version="1.0" encoding="UTF-8" standalone="no"?>
<!DOCTYPE svg PUBLIC "-//W3C//DTD SVG 1.1//EN"
 "http://www.w3.org/Graphics/SVG/1.1/DTD/svg11.dtd">
<!-- Generated by graphviz version 2.26.3 (20100126.1600)
 -->
<!-- Title: G Pages: 1 -->
<svg width="206pt" height="268pt"
 viewBox="0.00 0.00 206.00 268.00" xmlns="http://www.w3.org/2000/svg" xmlns:xlink="http://www.w3.org/1999/xlink">
<g id="graph1" class="graph" transform="scale(1 1) rotate(0) translate(4 264)">
<title>G</title>
<polygon fill="white" stroke="white" points="-4,5 -4,-264 203,-264 203,5 -4,5"/>
<!-- eq -->
<g id="node1" class="node"><title>eq</title>
<ellipse fill="none" stroke="black" cx="75" cy="-241" rx="27" ry="19.0919"/>
<text text-anchor="middle" x="75" y="-237.9" font-family="Helvetica,sans-Serif" font-size="14.00">=</text>
</g>
<!-- a -->
<g id="node3" class="node"><title>a</title>
<ellipse fill="none" stroke="black" cx="27" cy="-167" rx="27" ry="19.0919"/>
<text text-anchor="middle" x="27" y="-163.9" font-family="Helvetica,sans-Serif" font-size="14.00">a</text>
</g>
<!-- eq&#45;&gt;a -->
<g id="edge2" class="edge"><title>eq&#45;&gt;a</title>
<path fill="none" stroke="black" d="M63.6247,-223.463C57.7066,-214.339 50.3569,-203.009 43.7981,-192.897"/>
<polygon fill="black" stroke="black" points="46.672,-190.896 38.2937,-184.411 40.7993,-194.705 46.672,-190.896"/>
</g>
<!-- ma -->
<!-- eq&#45;&gt;ma -->
<!-- star -->
<g id="node6" class="node"><title>star</title>
<ellipse fill="none" stroke="black" cx="123" cy="-167" rx="27" ry="19.0919"/>
<text text-anchor="middle" x="123" y="-163.9" font-family="Helvetica,sans-Serif" font-size="14.00">*</text>
</g>
<!-- eq&#45;&gt;star -->
<g id="edge6" class="edge"><title>eq&#45;&gt;star</title>
<path fill="none" stroke="black" d="M86.3753,-223.463C92.2934,-214.339 99.6431,-203.009 106.202,-192.897"/>
<polygon fill="black" stroke="black" points="109.201,-194.705 111.706,-184.411 103.328,-190.896 109.201,-194.705"/>
</g>
<!-- a&#45;&gt;ma -->
<!-- ma&#45;&gt;star -->
<!-- plus -->
<g id="node10" class="node"><title>plus</title>
<ellipse fill="none" stroke="black" cx="75" cy="-93" rx="27" ry="19.0919"/>
<text text-anchor="middle" x="75" y="-89.9" font-family="Helvetica,sans-Serif" font-size="14.00">+</text>
</g>
<!-- star&#45;&gt;plus -->
<g id="edge12" class="edge"><title>star&#45;&gt;plus</title>
<path fill="none" stroke="black" d="M111.625,-149.463C105.707,-140.339 98.3569,-129.009 91.7981,-118.897"/>
<polygon fill="black" stroke="black" points="94.672,-116.896 86.2937,-110.411 88.7993,-120.705 94.672,-116.896"/>
</g>
<!-- mstar -->
<!-- star&#45;&gt;mstar -->
<!-- d -->
<g id="node15" class="node"><title>d</title>
<ellipse fill="none" stroke="black" cx="171" cy="-93" rx="27" ry="19.0919"/>
<text text-anchor="middle" x="171" y="-89.9" font-family="Helvetica,sans-Serif" font-size="14.00">d</text>
</g>
<!-- star&#45;&gt;d -->
<g id="edge16" class="edge"><title>star&#45;&gt;d</title>
<path fill="none" stroke="black" d="M134.375,-149.463C140.293,-140.339 147.643,-129.009 154.202,-118.897"/>
<polygon fill="black" stroke="black" points="157.201,-120.705 159.706,-110.411 151.328,-116.896 157.201,-120.705"/>
</g>
<!-- plus&#45;&gt;mstar -->
<!-- b -->
<g id="node19" class="node"><title>b</title>
<ellipse fill="none" stroke="black" cx="27" cy="-19" rx="27" ry="19.0919"/>
<text text-anchor="middle" x="27" y="-15.9" font-family="Helvetica,sans-Serif" font-size="14.00">b</text>
</g>
<!-- plus&#45;&gt;b -->
<g id="edge22" class="edge"><title>plus&#45;&gt;b</title>
<path fill="none" stroke="black" d="M63.6247,-75.463C57.7066,-66.3394 50.3569,-55.0086 43.7981,-44.897"/>
<polygon fill="black" stroke="black" points="46.672,-42.896 38.2937,-36.4111 40.7993,-46.7054 46.672,-42.896"/>
</g>
<!-- mplus -->
<!-- plus&#45;&gt;mplus -->
<!-- c -->
<g id="node23" class="node"><title>c</title>
<ellipse fill="none" stroke="black" cx="123" cy="-19" rx="27" ry="19.0919"/>
<text text-anchor="middle" x="123" y="-15.9" font-family="Helvetica,sans-Serif" font-size="14.00">c</text>
</g>
<!-- plus&#45;&gt;c -->
<g id="edge26" class="edge"><title>plus&#45;&gt;c</title>
<path fill="none" stroke="black" d="M86.3753,-75.463C92.2934,-66.3394 99.6431,-55.0086 106.202,-44.897"/>
<polygon fill="black" stroke="black" points="109.201,-46.7054 111.706,-36.4111 103.328,-42.896 109.201,-46.7054"/>
</g>
<!-- mstar&#45;&gt;d -->
<!-- b&#45;&gt;mplus -->
<!-- mplus&#45;&gt;c -->
</g>
</svg>
