<?xml version="1.0" encoding="UTF-8" standalone="no"?>
<!DOCTYPE svg PUBLIC "-//W3C//DTD SVG 1.1//EN"
 "http://www.w3.org/Graphics/SVG/1.1/DTD/svg11.dtd">
<!-- Generated by graphviz version 2.26.3 (20100126.1600)
 -->
<!-- Title: G Pages: 1 -->
<svg width="377pt" height="268pt"
 viewBox="0.00 0.00 377.00 268.00" xmlns="http://www.w3.org/2000/svg" xmlns:xlink="http://www.w3.org/1999/xlink">
<g id="graph1" class="graph" transform="scale(1 1) rotate(0) translate(4 264)">
<title>G</title>
<polygon fill="white" stroke="white" points="-4,5 -4,-264 374,-264 374,5 -4,5"/>
<!-- plus1 -->
<g id="node1" class="node"><title>plus1</title>
<ellipse fill="none" stroke="black" cx="88" cy="-167" rx="19.0919" ry="19.0919"/>
<text text-anchor="middle" x="88" y="-163.9" font-family="Helvetica,sans-Serif" font-size="14.00">+</text>
</g>
<!-- hidden1 -->
<!-- plus1&#45;&gt;hidden1 -->
<!-- hidden4 -->
<!-- plus1&#45;&gt;hidden4 -->
<!-- a -->
<g id="node10" class="node"><title>a</title>
<ellipse fill="none" stroke="black" cx="19" cy="-93" rx="19.0919" ry="19.0919"/>
<text text-anchor="middle" x="19" y="-89.9" font-family="Helvetica,sans-Serif" font-size="14.00">a</text>
</g>
<!-- plus1&#45;&gt;a -->
<g id="edge2" class="edge"><title>plus1&#45;&gt;a</title>
<path fill="none" stroke="black" d="M75.0216,-153.081C64.9662,-142.297 50.8496,-127.158 39.3029,-114.774"/>
<polygon fill="black" stroke="black" points="41.5343,-112.035 32.1548,-107.108 36.4146,-116.809 41.5343,-112.035"/>
</g>
<!-- b -->
<g id="node13" class="node"><title>b</title>
<ellipse fill="none" stroke="black" cx="129" cy="-93" rx="19.0919" ry="19.0919"/>
<text text-anchor="middle" x="129" y="-89.9" font-family="Helvetica,sans-Serif" font-size="14.00">b</text>
</g>
<!-- plus1&#45;&gt;b -->
<g id="edge6" class="edge"><title>plus1&#45;&gt;b</title>
<path fill="none" stroke="black" d="M97.3035,-150.208C102.493,-140.842 109.064,-128.982 114.875,-118.493"/>
<polygon fill="black" stroke="black" points="117.948,-120.169 119.733,-109.725 111.825,-116.776 117.948,-120.169"/>
</g>
<!-- plus2 -->
<g id="node2" class="node"><title>plus2</title>
<ellipse fill="none" stroke="black" cx="295" cy="-93" rx="19.0919" ry="19.0919"/>
<text text-anchor="middle" x="295" y="-89.9" font-family="Helvetica,sans-Serif" font-size="14.00">+</text>
</g>
<!-- hidden2 -->
<!-- plus2&#45;&gt;hidden2 -->
<!-- d -->
<g id="node28" class="node"><title>d</title>
<ellipse fill="none" stroke="black" cx="240" cy="-19" rx="19.0919" ry="19.0919"/>
<text text-anchor="middle" x="240" y="-15.9" font-family="Helvetica,sans-Serif" font-size="14.00">d</text>
</g>
<!-- plus2&#45;&gt;d -->
<g id="edge32" class="edge"><title>plus2&#45;&gt;d</title>
<path fill="none" stroke="black" d="M283.604,-77.6672C276.082,-67.5467 266.078,-54.0868 257.55,-42.6125"/>
<polygon fill="black" stroke="black" points="260.156,-40.2513 251.381,-34.3132 254.538,-44.427 260.156,-40.2513"/>
</g>
<!-- e -->
<g id="node31" class="node"><title>e</title>
<ellipse fill="none" stroke="black" cx="350" cy="-19" rx="19.0919" ry="19.0919"/>
<text text-anchor="middle" x="350" y="-15.9" font-family="Helvetica,sans-Serif" font-size="14.00">e</text>
</g>
<!-- plus2&#45;&gt;e -->
<g id="edge36" class="edge"><title>plus2&#45;&gt;e</title>
<path fill="none" stroke="black" d="M306.396,-77.6672C313.918,-67.5467 323.922,-54.0868 332.45,-42.6125"/>
<polygon fill="black" stroke="black" points="335.462,-44.427 338.619,-34.3132 329.844,-40.2513 335.462,-44.427"/>
</g>
<!-- mult1 -->
<g id="node3" class="node"><title>mult1</title>
<ellipse fill="none" stroke="black" cx="212" cy="-167" rx="19.0919" ry="19.0919"/>
<text text-anchor="middle" x="212" y="-163.9" font-family="Helvetica,sans-Serif" font-size="14.00">*</text>
</g>
<!-- mult1&#45;&gt;plus2 -->
<g id="edge26" class="edge"><title>mult1&#45;&gt;plus2</title>
<path fill="none" stroke="black" d="M226.457,-154.11C239.311,-142.65 258.295,-125.725 273.027,-112.59"/>
<polygon fill="black" stroke="black" points="275.573,-115.009 280.708,-105.742 270.915,-109.784 275.573,-115.009"/>
</g>
<!-- hidden3 -->
<!-- mult1&#45;&gt;hidden3 -->
<!-- c -->
<g id="node22" class="node"><title>c</title>
<ellipse fill="none" stroke="black" cx="185" cy="-93" rx="19.0919" ry="19.0919"/>
<text text-anchor="middle" x="185" y="-89.9" font-family="Helvetica,sans-Serif" font-size="14.00">c</text>
</g>
<!-- mult1&#45;&gt;c -->
<g id="edge22" class="edge"><title>mult1&#45;&gt;c</title>
<path fill="none" stroke="black" d="M205.464,-149.087C202.337,-140.515 198.522,-130.062 195.038,-120.512"/>
<polygon fill="black" stroke="black" points="198.285,-119.199 191.569,-111.005 191.709,-121.599 198.285,-119.199"/>
</g>
<!-- mult2 -->
<g id="node4" class="node"><title>mult2</title>
<ellipse fill="none" stroke="black" cx="143" cy="-241" rx="19.0919" ry="19.0919"/>
<text text-anchor="middle" x="143" y="-237.9" font-family="Helvetica,sans-Serif" font-size="14.00">*</text>
</g>
<!-- mult2&#45;&gt;plus1 -->
<g id="edge12" class="edge"><title>mult2&#45;&gt;plus1</title>
<path fill="none" stroke="black" d="M131.604,-225.667C124.082,-215.547 114.078,-202.087 105.55,-190.612"/>
<polygon fill="black" stroke="black" points="108.156,-188.251 99.3814,-182.313 102.538,-192.427 108.156,-188.251"/>
</g>
<!-- mult2&#45;&gt;mult1 -->
<g id="edge16" class="edge"><title>mult2&#45;&gt;mult1</title>
<path fill="none" stroke="black" d="M155.978,-227.081C166.034,-216.297 180.15,-201.158 191.697,-188.774"/>
<polygon fill="black" stroke="black" points="194.585,-190.809 198.845,-181.108 189.466,-186.035 194.585,-190.809"/>
</g>
<!-- mult2&#45;&gt;hidden4 -->
<!-- hidden1&#45;&gt;b -->
<!-- hidden2&#45;&gt;e -->
<!-- hidden3&#45;&gt;plus2 -->
<!-- hidden4&#45;&gt;mult1 -->
<!-- a&#45;&gt;hidden1 -->
<!-- c&#45;&gt;hidden3 -->
<!-- d&#45;&gt;hidden2 -->
</g>
</svg>
