<?xml version="1.0" encoding="UTF-8" standalone="no"?>
<!DOCTYPE svg PUBLIC "-//W3C//DTD SVG 1.1//EN"
 "http://www.w3.org/Graphics/SVG/1.1/DTD/svg11.dtd">
<!-- Generated by graphviz version 2.36.0 (20140111.2315)
 -->
<!-- Title: G Pages: 1 -->
<svg width="164pt" height="260pt"
 viewBox="0.00 0.00 164.00 260.00" xmlns="http://www.w3.org/2000/svg" xmlns:xlink="http://www.w3.org/1999/xlink">
<g id="graph0" class="graph" transform="scale(1 1) rotate(0) translate(4 256)">
<title>G</title>
<polygon fill="white" stroke="none" points="-4,4 -4,-256 160,-256 160,4 -4,4"/>
<!-- eq -->
<g id="node1" class="node"><title>eq</title>
<ellipse fill="none" stroke="black" cx="58" cy="-234" rx="18" ry="18"/>
<text text-anchor="middle" x="58" y="-230.3" font-family="Helvetica,sans-Serif" font-size="14.00">=</text>
</g>
<!-- a -->
<g id="node2" class="node"><title>a</title>
<ellipse fill="none" stroke="black" cx="18" cy="-162" rx="18" ry="18"/>
<text text-anchor="middle" x="18" y="-158.3" font-family="Helvetica,sans-Serif" font-size="14.00">a</text>
</g>
<!-- eq&#45;&gt;a -->
<g id="edge1" class="edge"><title>eq&#45;&gt;a</title>
<path fill="none" stroke="black" d="M49.3206,-217.811C44.1838,-208.822 37.5613,-197.232 31.73,-187.028"/>
<polygon fill="black" stroke="black" points="34.6628,-185.105 26.6625,-178.159 28.585,-188.578 34.6628,-185.105"/>
</g>
<!-- ma -->
<!-- eq&#45;&gt;ma -->
<!-- star -->
<g id="node4" class="node"><title>star</title>
<ellipse fill="none" stroke="black" cx="98" cy="-162" rx="18" ry="18"/>
<text text-anchor="middle" x="98" y="-158.3" font-family="Helvetica,sans-Serif" font-size="14.00">*</text>
</g>
<!-- eq&#45;&gt;star -->
<g id="edge3" class="edge"><title>eq&#45;&gt;star</title>
<path fill="none" stroke="black" d="M66.6794,-217.811C71.8162,-208.822 78.4387,-197.232 84.27,-187.028"/>
<polygon fill="black" stroke="black" points="87.415,-188.578 89.3375,-178.159 81.3372,-185.105 87.415,-188.578"/>
</g>
<!-- a&#45;&gt;ma -->
<!-- ma&#45;&gt;star -->
<!-- plus -->
<g id="node5" class="node"><title>plus</title>
<ellipse fill="none" stroke="black" cx="58" cy="-90" rx="18" ry="18"/>
<text text-anchor="middle" x="58" y="-86.3" font-family="Helvetica,sans-Serif" font-size="14.00">+</text>
</g>
<!-- star&#45;&gt;plus -->
<g id="edge6" class="edge"><title>star&#45;&gt;plus</title>
<path fill="none" stroke="black" d="M89.3206,-145.811C84.1838,-136.822 77.5613,-125.232 71.73,-115.028"/>
<polygon fill="black" stroke="black" points="74.6628,-113.105 66.6625,-106.159 68.585,-116.578 74.6628,-113.105"/>
</g>
<!-- mstar -->
<!-- star&#45;&gt;mstar -->
<!-- d -->
<g id="node7" class="node"><title>d</title>
<ellipse fill="none" stroke="black" cx="138" cy="-90" rx="18" ry="18"/>
<text text-anchor="middle" x="138" y="-86.3" font-family="Helvetica,sans-Serif" font-size="14.00">d</text>
</g>
<!-- star&#45;&gt;d -->
<g id="edge8" class="edge"><title>star&#45;&gt;d</title>
<path fill="none" stroke="black" d="M106.679,-145.811C111.816,-136.822 118.439,-125.232 124.27,-115.028"/>
<polygon fill="black" stroke="black" points="127.415,-116.578 129.338,-106.159 121.337,-113.105 127.415,-116.578"/>
</g>
<!-- plus&#45;&gt;mstar -->
<!-- b -->
<g id="node8" class="node"><title>b</title>
<ellipse fill="none" stroke="black" cx="18" cy="-18" rx="18" ry="18"/>
<text text-anchor="middle" x="18" y="-14.3" font-family="Helvetica,sans-Serif" font-size="14.00">b</text>
</g>
<!-- plus&#45;&gt;b -->
<g id="edge11" class="edge"><title>plus&#45;&gt;b</title>
<path fill="none" stroke="black" d="M49.3206,-73.811C44.1838,-64.8216 37.5613,-53.2323 31.73,-43.0275"/>
<polygon fill="black" stroke="black" points="34.6628,-41.1053 26.6625,-34.1593 28.585,-44.5783 34.6628,-41.1053"/>
</g>
<!-- mplus -->
<!-- plus&#45;&gt;mplus -->
<!-- c -->
<g id="node10" class="node"><title>c</title>
<ellipse fill="none" stroke="black" cx="98" cy="-18" rx="18" ry="18"/>
<text text-anchor="middle" x="98" y="-14.3" font-family="Helvetica,sans-Serif" font-size="14.00">c</text>
</g>
<!-- plus&#45;&gt;c -->
<g id="edge13" class="edge"><title>plus&#45;&gt;c</title>
<path fill="none" stroke="black" d="M66.6794,-73.811C71.8162,-64.8216 78.4387,-53.2323 84.27,-43.0275"/>
<polygon fill="black" stroke="black" points="87.415,-44.5783 89.3375,-34.1593 81.3372,-41.1053 87.415,-44.5783"/>
</g>
<!-- mstar&#45;&gt;d -->
<!-- b&#45;&gt;mplus -->
<!-- mplus&#45;&gt;c -->
</g>
</svg>
