<?xml version="1.0" encoding="UTF-8" standalone="no"?>
<!DOCTYPE svg PUBLIC "-//W3C//DTD SVG 1.1//EN"
 "http://www.w3.org/Graphics/SVG/1.1/DTD/svg11.dtd">
<!-- Generated by graphviz version 2.36.0 (20140111.2315)
 -->
<!-- Title: G Pages: 1 -->
<svg width="368pt" height="334pt"
 viewBox="0.00 0.00 368.00 334.00" xmlns="http://www.w3.org/2000/svg" xmlns:xlink="http://www.w3.org/1999/xlink">
<g id="graph0" class="graph" transform="scale(1 1) rotate(0) translate(4 330)">
<title>G</title>
<polygon fill="white" stroke="none" points="-4,4 -4,-330 364,-330 364,4 -4,4"/>
<!-- stack -->
<g id="node1" class="node"><title>stack</title>
<polygon fill="none" stroke="black" points="150,-289 150,-325 250,-325 250,-289 150,-289"/>
<text text-anchor="middle" x="160" y="-303.3" font-family="Helvetica,sans-Serif" font-size="14.00"> </text>
<polyline fill="none" stroke="black" points="170,-289 170,-325 "/>
<text text-anchor="middle" x="180" y="-303.3" font-family="Helvetica,sans-Serif" font-size="14.00"> </text>
<polyline fill="none" stroke="black" points="190,-289 190,-325 "/>
<text text-anchor="middle" x="200" y="-303.3" font-family="Helvetica,sans-Serif" font-size="14.00"> </text>
<polyline fill="none" stroke="black" points="210,-289 210,-325 "/>
<text text-anchor="middle" x="220" y="-303.3" font-family="Helvetica,sans-Serif" font-size="14.00"> </text>
<polyline fill="none" stroke="black" points="230,-289 230,-325 "/>
<text text-anchor="middle" x="240" y="-303.3" font-family="Helvetica,sans-Serif" font-size="14.00"> </text>
</g>
<!-- mult2 -->
<g id="node5" class="node"><title>mult2</title>
<ellipse fill="none" stroke="black" cx="160" cy="-234" rx="18" ry="18"/>
<text text-anchor="middle" x="160" y="-230.3" font-family="Helvetica,sans-Serif" font-size="14.00">*</text>
</g>
<!-- stack&#45;&gt;mult2 -->
<g id="edge1" class="edge"><title>stack:0:c&#45;&gt;mult2</title>
<path fill="none" stroke="black" d="M160,-307C160,-307 160,-282.602 160,-262.21"/>
<polygon fill="black" stroke="black" points="163.5,-262.063 160,-252.063 156.5,-262.063 163.5,-262.063"/>
</g>
<!-- plus1 -->
<g id="node2" class="node"><title>plus1</title>
<ellipse fill="none" stroke="black" cx="79" cy="-162" rx="18" ry="18"/>
<text text-anchor="middle" x="79" y="-158.3" font-family="Helvetica,sans-Serif" font-size="14.00">+</text>
</g>
<!-- hidden1 -->
<!-- plus1&#45;&gt;hidden1 -->
<!-- hidden4 -->
<!-- plus1&#45;&gt;hidden4 -->
<!-- a -->
<g id="node10" class="node"><title>a</title>
<ellipse fill="none" stroke="black" cx="18" cy="-90" rx="18" ry="18"/>
<text text-anchor="middle" x="18" y="-86.3" font-family="Helvetica,sans-Serif" font-size="14.00">a</text>
</g>
<!-- plus1&#45;&gt;a -->
<g id="edge2" class="edge"><title>plus1&#45;&gt;a</title>
<path fill="none" stroke="black" d="M67.5264,-147.834C58.6654,-137.665 46.2371,-123.403 36.0475,-111.71"/>
<polygon fill="black" stroke="black" points="38.6307,-109.347 29.4222,-104.107 33.3533,-113.946 38.6307,-109.347"/>
</g>
<!-- b -->
<g id="node11" class="node"><title>b</title>
<ellipse fill="none" stroke="black" cx="126" cy="-90" rx="18" ry="18"/>
<text text-anchor="middle" x="126" y="-86.3" font-family="Helvetica,sans-Serif" font-size="14.00">b</text>
</g>
<!-- plus1&#45;&gt;b -->
<g id="edge4" class="edge"><title>plus1&#45;&gt;b</title>
<path fill="none" stroke="black" d="M88.7384,-146.496C95.0403,-137.11 103.381,-124.688 110.573,-113.977"/>
<polygon fill="black" stroke="black" points="113.605,-115.739 116.274,-105.485 107.794,-111.837 113.605,-115.739"/>
</g>
<!-- plus2 -->
<g id="node3" class="node"><title>plus2</title>
<ellipse fill="none" stroke="black" cx="288" cy="-90" rx="18" ry="18"/>
<text text-anchor="middle" x="288" y="-86.3" font-family="Helvetica,sans-Serif" font-size="14.00">+</text>
</g>
<!-- hidden2 -->
<!-- plus2&#45;&gt;hidden2 -->
<!-- d -->
<g id="node13" class="node"><title>d</title>
<ellipse fill="none" stroke="black" cx="234" cy="-18" rx="18" ry="18"/>
<text text-anchor="middle" x="234" y="-14.3" font-family="Helvetica,sans-Serif" font-size="14.00">d</text>
</g>
<!-- plus2&#45;&gt;d -->
<g id="edge17" class="edge"><title>plus2&#45;&gt;d</title>
<path fill="none" stroke="black" d="M277.331,-75.1703C269.787,-65.391 259.519,-52.0799 250.871,-40.8702"/>
<polygon fill="black" stroke="black" points="253.526,-38.581 244.646,-32.801 247.983,-42.8567 253.526,-38.581"/>
</g>
<!-- e -->
<g id="node14" class="node"><title>e</title>
<ellipse fill="none" stroke="black" cx="342" cy="-18" rx="18" ry="18"/>
<text text-anchor="middle" x="342" y="-14.3" font-family="Helvetica,sans-Serif" font-size="14.00">e</text>
</g>
<!-- plus2&#45;&gt;e -->
<g id="edge19" class="edge"><title>plus2&#45;&gt;e</title>
<path fill="none" stroke="black" d="M298.669,-75.1703C306.213,-65.391 316.481,-52.0799 325.129,-40.8702"/>
<polygon fill="black" stroke="black" points="328.017,-42.8567 331.354,-32.801 322.474,-38.581 328.017,-42.8567"/>
</g>
<!-- mult1 -->
<g id="node4" class="node"><title>mult1</title>
<ellipse fill="none" stroke="black" cx="227" cy="-162" rx="18" ry="18"/>
<text text-anchor="middle" x="227" y="-158.3" font-family="Helvetica,sans-Serif" font-size="14.00">*</text>
</g>
<!-- mult1&#45;&gt;plus2 -->
<g id="edge14" class="edge"><title>mult1&#45;&gt;plus2</title>
<path fill="none" stroke="black" d="M238.474,-147.834C247.335,-137.665 259.763,-123.403 269.952,-111.71"/>
<polygon fill="black" stroke="black" points="272.647,-113.946 276.578,-104.107 267.369,-109.347 272.647,-113.946"/>
</g>
<!-- hidden3 -->
<!-- mult1&#45;&gt;hidden3 -->
<!-- c -->
<g id="node12" class="node"><title>c</title>
<ellipse fill="none" stroke="black" cx="180" cy="-90" rx="18" ry="18"/>
<text text-anchor="middle" x="180" y="-86.3" font-family="Helvetica,sans-Serif" font-size="14.00">c</text>
</g>
<!-- mult1&#45;&gt;c -->
<g id="edge12" class="edge"><title>mult1&#45;&gt;c</title>
<path fill="none" stroke="black" d="M217.262,-146.496C210.96,-137.11 202.619,-124.688 195.427,-113.977"/>
<polygon fill="black" stroke="black" points="198.206,-111.837 189.726,-105.485 192.395,-115.739 198.206,-111.837"/>
</g>
<!-- mult2&#45;&gt;plus1 -->
<g id="edge7" class="edge"><title>mult2&#45;&gt;plus1</title>
<path fill="none" stroke="black" d="M146.624,-221.441C133.886,-210.432 114.521,-193.697 99.7732,-180.952"/>
<polygon fill="black" stroke="black" points="101.981,-178.234 92.1266,-174.344 97.4042,-183.531 101.981,-178.234"/>
</g>
<!-- mult2&#45;&gt;mult1 -->
<g id="edge9" class="edge"><title>mult2&#45;&gt;mult1</title>
<path fill="none" stroke="black" d="M171.978,-220.485C181.859,-210.163 196.071,-195.314 207.575,-183.294"/>
<polygon fill="black" stroke="black" points="210.286,-185.524 214.672,-175.88 205.229,-180.684 210.286,-185.524"/>
</g>
<!-- mult2&#45;&gt;hidden4 -->
<!-- hidden1&#45;&gt;b -->
<!-- hidden2&#45;&gt;e -->
<!-- hidden3&#45;&gt;plus2 -->
<!-- hidden4&#45;&gt;mult1 -->
<!-- a&#45;&gt;hidden1 -->
<!-- c&#45;&gt;hidden3 -->
<!-- d&#45;&gt;hidden2 -->
</g>
</svg>
