<?xml version="1.0" encoding="UTF-8" standalone="no"?>
<!DOCTYPE svg PUBLIC "-//W3C//DTD SVG 1.1//EN"
 "http://www.w3.org/Graphics/SVG/1.1/DTD/svg11.dtd">
<!-- Generated by graphviz version 2.26.3 (20100126.1600)
 -->
<!-- Title: G Pages: 1 -->
<svg width="269pt" height="194pt"
 viewBox="0.00 0.00 269.00 194.00" xmlns="http://www.w3.org/2000/svg" xmlns:xlink="http://www.w3.org/1999/xlink">
<g id="graph1" class="graph" transform="scale(1 1) rotate(0) translate(4 190)">
<title>G</title>
<polygon fill="white" stroke="white" points="-4,5 -4,-190 266,-190 266,5 -4,5"/>
<!-- stack -->
<g id="node1" class="node"><title>stack</title>
<polygon fill="none" stroke="black" points="118,-149 118,-185 218,-185 218,-149 118,-149"/>
<text text-anchor="middle" x="128" y="-163.9" font-family="Helvetica,sans-Serif" font-size="14.00"> </text>
<polyline fill="none" stroke="black" points="138,-149 138,-185 "/>
<text text-anchor="middle" x="148" y="-163.9" font-family="Helvetica,sans-Serif" font-size="14.00"> </text>
<polyline fill="none" stroke="black" points="158,-149 158,-185 "/>
<text text-anchor="middle" x="168" y="-163.9" font-family="Helvetica,sans-Serif" font-size="14.00"> </text>
<polyline fill="none" stroke="black" points="178,-149 178,-185 "/>
<text text-anchor="middle" x="188" y="-163.9" font-family="Helvetica,sans-Serif" font-size="14.00"> </text>
<polyline fill="none" stroke="black" points="198,-149 198,-185 "/>
<text text-anchor="middle" x="208" y="-163.9" font-family="Helvetica,sans-Serif" font-size="14.00"> </text>
</g>
<!-- plus1 -->
<g id="node2" class="node"><title>plus1</title>
<ellipse fill="none" stroke="black" cx="74" cy="-93" rx="19.0919" ry="19.0919"/>
<text text-anchor="middle" x="74" y="-89.9" font-family="Helvetica,sans-Serif" font-size="14.00">+</text>
</g>
<!-- stack&#45;&gt;plus1 -->
<g id="edge2" class="edge"><title>stack:0:c&#45;&gt;plus1</title>
<path fill="none" stroke="black" d="M128,-168C128,-168 123.273,-156.689 118,-148.5 110.615,-137.031 101.368,-125.08 93.259,-115.218"/>
<polygon fill="black" stroke="black" points="95.8848,-112.902 86.7814,-107.482 90.5178,-117.396 95.8848,-112.902"/>
</g>
<!-- c -->
<g id="node6" class="node"><title>c</title>
<ellipse fill="none" stroke="black" cx="130" cy="-93" rx="19.0919" ry="19.0919"/>
<text text-anchor="middle" x="130" y="-89.9" font-family="Helvetica,sans-Serif" font-size="14.00">c</text>
</g>
<!-- stack&#45;&gt;c -->
<g id="edge4" class="edge"><title>stack:1:c&#45;&gt;c</title>
<path fill="none" stroke="black" d="M148,-168C148,-168 141.929,-142.705 136.839,-121.495"/>
<polygon fill="black" stroke="black" points="140.187,-120.446 134.449,-111.539 133.38,-122.08 140.187,-120.446"/>
</g>
<!-- d -->
<g id="node8" class="node"><title>d</title>
<ellipse fill="none" stroke="black" cx="186" cy="-93" rx="19.0919" ry="19.0919"/>
<text text-anchor="middle" x="186" y="-89.9" font-family="Helvetica,sans-Serif" font-size="14.00">d</text>
</g>
<!-- stack&#45;&gt;d -->
<g id="edge6" class="edge"><title>stack:2:c&#45;&gt;d</title>
<path fill="none" stroke="black" d="M168,-168C168,-168 174.071,-142.705 179.161,-121.495"/>
<polygon fill="black" stroke="black" points="182.62,-122.08 181.551,-111.539 175.813,-120.446 182.62,-122.08"/>
</g>
<!-- e -->
<g id="node10" class="node"><title>e</title>
<ellipse fill="none" stroke="black" cx="242" cy="-93" rx="19.0919" ry="19.0919"/>
<text text-anchor="middle" x="242" y="-89.9" font-family="Helvetica,sans-Serif" font-size="14.00">e</text>
</g>
<!-- stack&#45;&gt;e -->
<g id="edge8" class="edge"><title>stack:3:c&#45;&gt;e</title>
<path fill="none" stroke="black" d="M188,-168C188,-168 192.727,-156.689 198,-148.5 205.385,-137.031 214.632,-125.08 222.741,-115.218"/>
<polygon fill="black" stroke="black" points="225.482,-117.396 229.219,-107.482 220.115,-112.902 225.482,-117.396"/>
</g>
<!-- hidden1 -->
<!-- plus1&#45;&gt;hidden1 -->
<!-- a -->
<g id="node12" class="node"><title>a</title>
<ellipse fill="none" stroke="black" cx="19" cy="-19" rx="19.0919" ry="19.0919"/>
<text text-anchor="middle" x="19" y="-15.9" font-family="Helvetica,sans-Serif" font-size="14.00">a</text>
</g>
<!-- plus1&#45;&gt;a -->
<g id="edge10" class="edge"><title>plus1&#45;&gt;a</title>
<path fill="none" stroke="black" d="M62.604,-77.6672C55.082,-67.5467 45.0781,-54.0868 36.5498,-42.6125"/>
<polygon fill="black" stroke="black" points="39.1558,-40.2513 30.3814,-34.3132 33.5376,-44.427 39.1558,-40.2513"/>
</g>
<!-- b -->
<g id="node15" class="node"><title>b</title>
<ellipse fill="none" stroke="black" cx="129" cy="-19" rx="19.0919" ry="19.0919"/>
<text text-anchor="middle" x="129" y="-15.9" font-family="Helvetica,sans-Serif" font-size="14.00">b</text>
</g>
<!-- plus1&#45;&gt;b -->
<g id="edge14" class="edge"><title>plus1&#45;&gt;b</title>
<path fill="none" stroke="black" d="M85.396,-77.6672C92.918,-67.5467 102.922,-54.0868 111.45,-42.6125"/>
<polygon fill="black" stroke="black" points="114.462,-44.427 117.619,-34.3132 108.844,-40.2513 114.462,-44.427"/>
</g>
<!-- hidden1&#45;&gt;b -->
<!-- a&#45;&gt;hidden1 -->
</g>
</svg>
