<?xml version="1.0" encoding="UTF-8" standalone="no"?>
<!DOCTYPE svg PUBLIC "-//W3C//DTD SVG 1.1//EN"
 "http://www.w3.org/Graphics/SVG/1.1/DTD/svg11.dtd">
<!-- Generated by graphviz version 2.26.3 (20100126.1600)
 -->
<!-- Title: G Pages: 1 -->
<svg width="213pt" height="194pt"
 viewBox="0.00 0.00 213.00 194.00" xmlns="http://www.w3.org/2000/svg" xmlns:xlink="http://www.w3.org/1999/xlink">
<g id="graph1" class="graph" transform="scale(1 1) rotate(0) translate(4 190)">
<title>G</title>
<polygon fill="white" stroke="white" points="-4,5 -4,-190 210,-190 210,5 -4,5"/>
<!-- stack -->
<g id="node1" class="node"><title>stack</title>
<polygon fill="none" stroke="black" points="100,-149 100,-185 200,-185 200,-149 100,-149"/>
<text text-anchor="middle" x="110" y="-163.9" font-family="Helvetica,sans-Serif" font-size="14.00"> </text>
<polyline fill="none" stroke="black" points="120,-149 120,-185 "/>
<text text-anchor="middle" x="130" y="-163.9" font-family="Helvetica,sans-Serif" font-size="14.00"> </text>
<polyline fill="none" stroke="black" points="140,-149 140,-185 "/>
<text text-anchor="middle" x="150" y="-163.9" font-family="Helvetica,sans-Serif" font-size="14.00"> </text>
<polyline fill="none" stroke="black" points="160,-149 160,-185 "/>
<text text-anchor="middle" x="170" y="-163.9" font-family="Helvetica,sans-Serif" font-size="14.00"> </text>
<polyline fill="none" stroke="black" points="180,-149 180,-185 "/>
<text text-anchor="middle" x="190" y="-163.9" font-family="Helvetica,sans-Serif" font-size="14.00"> </text>
</g>
<!-- plus1 -->
<g id="node2" class="node"><title>plus1</title>
<ellipse fill="none" stroke="black" cx="74" cy="-93" rx="19.0919" ry="19.0919"/>
<text text-anchor="middle" x="74" y="-89.9" font-family="Helvetica,sans-Serif" font-size="14.00">+</text>
</g>
<!-- stack&#45;&gt;plus1 -->
<g id="edge2" class="edge"><title>stack:0:c&#45;&gt;plus1</title>
<path fill="none" stroke="black" d="M110,-168C110,-168 97.0885,-141.101 86.7302,-119.521"/>
<polygon fill="black" stroke="black" points="89.8323,-117.896 82.3496,-110.395 83.5216,-120.925 89.8323,-117.896"/>
</g>
<!-- c -->
<g id="node6" class="node"><title>c</title>
<ellipse fill="none" stroke="black" cx="130" cy="-93" rx="19.0919" ry="19.0919"/>
<text text-anchor="middle" x="130" y="-89.9" font-family="Helvetica,sans-Serif" font-size="14.00">c</text>
</g>
<!-- stack&#45;&gt;c -->
<g id="edge4" class="edge"><title>stack:1:c&#45;&gt;c</title>
<path fill="none" stroke="black" d="M130,-168C130,-168 130,-143.51 130,-122.519"/>
<polygon fill="black" stroke="black" points="133.5,-122.314 130,-112.314 126.5,-122.314 133.5,-122.314"/>
</g>
<!-- d -->
<g id="node8" class="node"><title>d</title>
<ellipse fill="none" stroke="black" cx="186" cy="-93" rx="19.0919" ry="19.0919"/>
<text text-anchor="middle" x="186" y="-89.9" font-family="Helvetica,sans-Serif" font-size="14.00">d</text>
</g>
<!-- stack&#45;&gt;d -->
<g id="edge6" class="edge"><title>stack:2:c&#45;&gt;d</title>
<path fill="none" stroke="black" d="M150,-168C150,-168 162.912,-141.101 173.27,-119.521"/>
<polygon fill="black" stroke="black" points="176.478,-120.925 177.65,-110.395 170.168,-117.896 176.478,-120.925"/>
</g>
<!-- hidden1 -->
<!-- plus1&#45;&gt;hidden1 -->
<!-- a -->
<g id="node10" class="node"><title>a</title>
<ellipse fill="none" stroke="black" cx="19" cy="-19" rx="19.0919" ry="19.0919"/>
<text text-anchor="middle" x="19" y="-15.9" font-family="Helvetica,sans-Serif" font-size="14.00">a</text>
</g>
<!-- plus1&#45;&gt;a -->
<g id="edge8" class="edge"><title>plus1&#45;&gt;a</title>
<path fill="none" stroke="black" d="M62.604,-77.6672C55.082,-67.5467 45.0781,-54.0868 36.5498,-42.6125"/>
<polygon fill="black" stroke="black" points="39.1558,-40.2513 30.3814,-34.3132 33.5376,-44.427 39.1558,-40.2513"/>
</g>
<!-- b -->
<g id="node13" class="node"><title>b</title>
<ellipse fill="none" stroke="black" cx="129" cy="-19" rx="19.0919" ry="19.0919"/>
<text text-anchor="middle" x="129" y="-15.9" font-family="Helvetica,sans-Serif" font-size="14.00">b</text>
</g>
<!-- plus1&#45;&gt;b -->
<g id="edge12" class="edge"><title>plus1&#45;&gt;b</title>
<path fill="none" stroke="black" d="M85.396,-77.6672C92.918,-67.5467 102.922,-54.0868 111.45,-42.6125"/>
<polygon fill="black" stroke="black" points="114.462,-44.427 117.619,-34.3132 108.844,-40.2513 114.462,-44.427"/>
</g>
<!-- hidden1&#45;&gt;b -->
<!-- a&#45;&gt;hidden1 -->
</g>
</svg>
