<?xml version="1.0" encoding="UTF-8" standalone="no"?>
<!DOCTYPE svg PUBLIC "-//W3C//DTD SVG 1.1//EN"
 "http://www.w3.org/Graphics/SVG/1.1/DTD/svg11.dtd">
<!-- Generated by graphviz version 2.36.0 (20140111.2315)
 -->
<!-- Title: G Pages: 1 -->
<svg width="133pt" height="118pt"
 viewBox="0.00 0.00 133.00 118.00" xmlns="http://www.w3.org/2000/svg" xmlns:xlink="http://www.w3.org/1999/xlink">
<g id="graph0" class="graph" transform="scale(1 1) rotate(0) translate(4 114)">
<title>G</title>
<polygon fill="white" stroke="none" points="-4,4 -4,-114 129,-114 129,4 -4,4"/>
<!-- stack -->
<g id="node1" class="node"><title>stack</title>
<polygon fill="none" stroke="black" points="25,-73 25,-109 125,-109 125,-73 25,-73"/>
<text text-anchor="middle" x="35" y="-87.3" font-family="Helvetica,sans-Serif" font-size="14.00"> </text>
<polyline fill="none" stroke="black" points="45,-73 45,-109 "/>
<text text-anchor="middle" x="55" y="-87.3" font-family="Helvetica,sans-Serif" font-size="14.00"> </text>
<polyline fill="none" stroke="black" points="65,-73 65,-109 "/>
<text text-anchor="middle" x="75" y="-87.3" font-family="Helvetica,sans-Serif" font-size="14.00"> </text>
<polyline fill="none" stroke="black" points="85,-73 85,-109 "/>
<text text-anchor="middle" x="95" y="-87.3" font-family="Helvetica,sans-Serif" font-size="14.00"> </text>
<polyline fill="none" stroke="black" points="105,-73 105,-109 "/>
<text text-anchor="middle" x="115" y="-87.3" font-family="Helvetica,sans-Serif" font-size="14.00"> </text>
</g>
<!-- a -->
<g id="node2" class="node"><title>a</title>
<ellipse fill="none" stroke="black" cx="18" cy="-18" rx="18" ry="18"/>
<text text-anchor="middle" x="18" y="-14.3" font-family="Helvetica,sans-Serif" font-size="14.00">a</text>
</g>
<!-- stack&#45;&gt;a -->
<g id="edge1" class="edge"><title>stack:0:c&#45;&gt;a</title>
<path fill="none" stroke="black" d="M35,-91C35,-91 29.1197,-66.095 24.2758,-45.58"/>
<polygon fill="black" stroke="black" points="27.6472,-44.6273 21.9429,-35.6992 20.8345,-46.2359 27.6472,-44.6273"/>
</g>
<!-- b -->
<g id="node3" class="node"><title>b</title>
<ellipse fill="none" stroke="black" cx="72" cy="-18" rx="18" ry="18"/>
<text text-anchor="middle" x="72" y="-14.3" font-family="Helvetica,sans-Serif" font-size="14.00">b</text>
</g>
<!-- stack&#45;&gt;b -->
<g id="edge2" class="edge"><title>stack:1:c&#45;&gt;b</title>
<path fill="none" stroke="black" d="M55,-91C55,-91 60.8803,-66.095 65.7242,-45.58"/>
<polygon fill="black" stroke="black" points="69.1655,-46.2359 68.0571,-35.6992 62.3528,-44.6273 69.1655,-46.2359"/>
</g>
</g>
</svg>
