<?xml version="1.0" encoding="UTF-8" standalone="no"?>
<!DOCTYPE svg PUBLIC "-//W3C//DTD SVG 1.1//EN"
 "http://www.w3.org/Graphics/SVG/1.1/DTD/svg11.dtd">
<!-- Generated by graphviz version 2.36.0 (20140111.2315)
 -->
<!-- Title: G Pages: 1 -->
<svg width="314pt" height="190pt"
 viewBox="0.00 0.00 314.00 190.00" xmlns="http://www.w3.org/2000/svg" xmlns:xlink="http://www.w3.org/1999/xlink">
<g id="graph0" class="graph" transform="scale(1 1) rotate(0) translate(4 186)">
<title>G</title>
<polygon fill="white" stroke="none" points="-4,4 -4,-186 310,-186 310,4 -4,4"/>
<!-- stack -->
<g id="node1" class="node"><title>stack</title>
<polygon fill="none" stroke="black" points="96,-145 96,-181 196,-181 196,-145 96,-145"/>
<text text-anchor="middle" x="106" y="-159.3" font-family="Helvetica,sans-Serif" font-size="14.00"> </text>
<polyline fill="none" stroke="black" points="116,-145 116,-181 "/>
<text text-anchor="middle" x="126" y="-159.3" font-family="Helvetica,sans-Serif" font-size="14.00"> </text>
<polyline fill="none" stroke="black" points="136,-145 136,-181 "/>
<text text-anchor="middle" x="146" y="-159.3" font-family="Helvetica,sans-Serif" font-size="14.00"> </text>
<polyline fill="none" stroke="black" points="156,-145 156,-181 "/>
<text text-anchor="middle" x="166" y="-159.3" font-family="Helvetica,sans-Serif" font-size="14.00"> </text>
<polyline fill="none" stroke="black" points="176,-145 176,-181 "/>
<text text-anchor="middle" x="186" y="-159.3" font-family="Helvetica,sans-Serif" font-size="14.00"> </text>
</g>
<!-- plus1 -->
<g id="node2" class="node"><title>plus1</title>
<ellipse fill="none" stroke="black" cx="72" cy="-90" rx="18" ry="18"/>
<text text-anchor="middle" x="72" y="-86.3" font-family="Helvetica,sans-Serif" font-size="14.00">+</text>
</g>
<!-- stack&#45;&gt;plus1 -->
<g id="edge1" class="edge"><title>stack:0:c&#45;&gt;plus1</title>
<path fill="none" stroke="black" d="M106,-163C106,-163 93.4994,-136.528 83.6578,-115.687"/>
<polygon fill="black" stroke="black" points="86.8125,-114.171 79.3775,-106.623 80.4827,-117.16 86.8125,-114.171"/>
</g>
<!-- plus2 -->
<g id="node3" class="node"><title>plus2</title>
<ellipse fill="none" stroke="black" cx="207" cy="-90" rx="18" ry="18"/>
<text text-anchor="middle" x="207" y="-86.3" font-family="Helvetica,sans-Serif" font-size="14.00">+</text>
</g>
<!-- stack&#45;&gt;plus2 -->
<g id="edge3" class="edge"><title>stack:2:c&#45;&gt;plus2</title>
<path fill="none" stroke="black" d="M146,-163C146,-163 150.505,-152.06 156,-144.5 164.93,-132.214 176.504,-119.853 186.369,-110.112"/>
<polygon fill="black" stroke="black" points="189.064,-112.375 193.83,-102.913 184.203,-107.337 189.064,-112.375"/>
</g>
<!-- c -->
<g id="node6" class="node"><title>c</title>
<ellipse fill="none" stroke="black" cx="126" cy="-90" rx="18" ry="18"/>
<text text-anchor="middle" x="126" y="-86.3" font-family="Helvetica,sans-Serif" font-size="14.00">c</text>
</g>
<!-- stack&#45;&gt;c -->
<g id="edge2" class="edge"><title>stack:1:c&#45;&gt;c</title>
<path fill="none" stroke="black" d="M126,-163C126,-163 126,-138.602 126,-118.21"/>
<polygon fill="black" stroke="black" points="129.5,-118.063 126,-108.063 122.5,-118.063 129.5,-118.063"/>
</g>
<!-- hidden1 -->
<!-- plus1&#45;&gt;hidden1 -->
<!-- a -->
<g id="node7" class="node"><title>a</title>
<ellipse fill="none" stroke="black" cx="18" cy="-18" rx="18" ry="18"/>
<text text-anchor="middle" x="18" y="-14.3" font-family="Helvetica,sans-Serif" font-size="14.00">a</text>
</g>
<!-- plus1&#45;&gt;a -->
<g id="edge4" class="edge"><title>plus1&#45;&gt;a</title>
<path fill="none" stroke="black" d="M61.3313,-75.1703C53.7874,-65.391 43.5188,-52.0799 34.8713,-40.8702"/>
<polygon fill="black" stroke="black" points="37.5258,-38.581 28.6465,-32.801 31.9833,-42.8567 37.5258,-38.581"/>
</g>
<!-- b -->
<g id="node8" class="node"><title>b</title>
<ellipse fill="none" stroke="black" cx="126" cy="-18" rx="18" ry="18"/>
<text text-anchor="middle" x="126" y="-14.3" font-family="Helvetica,sans-Serif" font-size="14.00">b</text>
</g>
<!-- plus1&#45;&gt;b -->
<g id="edge6" class="edge"><title>plus1&#45;&gt;b</title>
<path fill="none" stroke="black" d="M82.6687,-75.1703C90.2126,-65.391 100.481,-52.0799 109.129,-40.8702"/>
<polygon fill="black" stroke="black" points="112.017,-42.8567 115.354,-32.801 106.474,-38.581 112.017,-42.8567"/>
</g>
<!-- hidden2 -->
<!-- plus2&#45;&gt;hidden2 -->
<!-- d -->
<g id="node9" class="node"><title>d</title>
<ellipse fill="none" stroke="black" cx="180" cy="-18" rx="18" ry="18"/>
<text text-anchor="middle" x="180" y="-14.3" font-family="Helvetica,sans-Serif" font-size="14.00">d</text>
</g>
<!-- plus2&#45;&gt;d -->
<g id="edge9" class="edge"><title>plus2&#45;&gt;d</title>
<path fill="none" stroke="black" d="M200.738,-72.7646C197.5,-64.3715 193.475,-53.9344 189.834,-44.4952"/>
<polygon fill="black" stroke="black" points="193.093,-43.2178 186.228,-35.1473 186.562,-45.7369 193.093,-43.2178"/>
</g>
<!-- e -->
<g id="node10" class="node"><title>e</title>
<ellipse fill="none" stroke="black" cx="288" cy="-18" rx="18" ry="18"/>
<text text-anchor="middle" x="288" y="-14.3" font-family="Helvetica,sans-Serif" font-size="14.00">e</text>
</g>
<!-- plus2&#45;&gt;e -->
<g id="edge11" class="edge"><title>plus2&#45;&gt;e</title>
<path fill="none" stroke="black" d="M220.376,-77.4409C233.114,-66.4321 252.479,-49.6969 267.227,-36.9522"/>
<polygon fill="black" stroke="black" points="269.596,-39.5308 274.873,-30.344 265.019,-34.2345 269.596,-39.5308"/>
</g>
<!-- hidden1&#45;&gt;b -->
<!-- hidden2&#45;&gt;e -->
<!-- a&#45;&gt;hidden1 -->
<!-- d&#45;&gt;hidden2 -->
</g>
</svg>
