<?xml version="1.0" encoding="UTF-8" standalone="no"?>
<!DOCTYPE svg PUBLIC "-//W3C//DTD SVG 1.1//EN"
 "http://www.w3.org/Graphics/SVG/1.1/DTD/svg11.dtd">
<!-- Generated by graphviz version 2.36.0 (20140111.2315)
 -->
<!-- Title: G Pages: 1 -->
<svg width="368pt" height="262pt"
 viewBox="0.00 0.00 368.00 262.00" xmlns="http://www.w3.org/2000/svg" xmlns:xlink="http://www.w3.org/1999/xlink">
<g id="graph0" class="graph" transform="scale(1 1) rotate(0) translate(4 258)">
<title>G</title>
<polygon fill="white" stroke="none" points="-4,4 -4,-258 364,-258 364,4 -4,4"/>
<!-- stack -->
<g id="node1" class="node"><title>stack</title>
<polygon fill="none" stroke="black" points="146,-217 146,-253 246,-253 246,-217 146,-217"/>
<text text-anchor="middle" x="156" y="-231.3" font-family="Helvetica,sans-Serif" font-size="14.00"> </text>
<polyline fill="none" stroke="black" points="166,-217 166,-253 "/>
<text text-anchor="middle" x="176" y="-231.3" font-family="Helvetica,sans-Serif" font-size="14.00"> </text>
<polyline fill="none" stroke="black" points="186,-217 186,-253 "/>
<text text-anchor="middle" x="196" y="-231.3" font-family="Helvetica,sans-Serif" font-size="14.00"> </text>
<polyline fill="none" stroke="black" points="206,-217 206,-253 "/>
<text text-anchor="middle" x="216" y="-231.3" font-family="Helvetica,sans-Serif" font-size="14.00"> </text>
<polyline fill="none" stroke="black" points="226,-217 226,-253 "/>
<text text-anchor="middle" x="236" y="-231.3" font-family="Helvetica,sans-Serif" font-size="14.00"> </text>
</g>
<!-- plus1 -->
<g id="node2" class="node"><title>plus1</title>
<ellipse fill="none" stroke="black" cx="99" cy="-162" rx="18" ry="18"/>
<text text-anchor="middle" x="99" y="-158.3" font-family="Helvetica,sans-Serif" font-size="14.00">+</text>
</g>
<!-- stack&#45;&gt;plus1 -->
<g id="edge1" class="edge"><title>stack:0:c&#45;&gt;plus1</title>
<path fill="none" stroke="black" d="M156,-235C156,-235 151.34,-224.171 146,-216.5 137.832,-204.768 127.455,-192.72 118.53,-183.035"/>
<polygon fill="black" stroke="black" points="120.856,-180.399 111.455,-175.514 115.757,-185.196 120.856,-180.399"/>
</g>
<!-- mult1 -->
<g id="node4" class="node"><title>mult1</title>
<ellipse fill="none" stroke="black" cx="207" cy="-162" rx="18" ry="18"/>
<text text-anchor="middle" x="207" y="-158.3" font-family="Helvetica,sans-Serif" font-size="14.00">*</text>
</g>
<!-- stack&#45;&gt;mult1 -->
<g id="edge2" class="edge"><title>stack:1:c&#45;&gt;mult1</title>
<path fill="none" stroke="black" d="M176,-235C176,-235 187.169,-209.058 196.099,-188.318"/>
<polygon fill="black" stroke="black" points="199.38,-189.548 200.12,-178.979 192.951,-186.78 199.38,-189.548"/>
</g>
<!-- hidden1 -->
<!-- plus1&#45;&gt;hidden1 -->
<!-- a -->
<g id="node8" class="node"><title>a</title>
<ellipse fill="none" stroke="black" cx="18" cy="-90" rx="18" ry="18"/>
<text text-anchor="middle" x="18" y="-86.3" font-family="Helvetica,sans-Serif" font-size="14.00">a</text>
</g>
<!-- plus1&#45;&gt;a -->
<g id="edge3" class="edge"><title>plus1&#45;&gt;a</title>
<path fill="none" stroke="black" d="M85.6245,-149.441C72.8857,-138.432 53.5207,-121.697 38.7732,-108.952"/>
<polygon fill="black" stroke="black" points="40.9813,-106.234 31.1266,-102.344 36.4042,-111.531 40.9813,-106.234"/>
</g>
<!-- b -->
<g id="node9" class="node"><title>b</title>
<ellipse fill="none" stroke="black" cx="126" cy="-90" rx="18" ry="18"/>
<text text-anchor="middle" x="126" y="-86.3" font-family="Helvetica,sans-Serif" font-size="14.00">b</text>
</g>
<!-- plus1&#45;&gt;b -->
<g id="edge5" class="edge"><title>plus1&#45;&gt;b</title>
<path fill="none" stroke="black" d="M105.262,-144.765C108.5,-136.371 112.525,-125.934 116.166,-116.495"/>
<polygon fill="black" stroke="black" points="119.438,-117.737 119.772,-107.147 112.907,-115.218 119.438,-117.737"/>
</g>
<!-- plus2 -->
<g id="node3" class="node"><title>plus2</title>
<ellipse fill="none" stroke="black" cx="288" cy="-90" rx="18" ry="18"/>
<text text-anchor="middle" x="288" y="-86.3" font-family="Helvetica,sans-Serif" font-size="14.00">+</text>
</g>
<!-- hidden2 -->
<!-- plus2&#45;&gt;hidden2 -->
<!-- d -->
<g id="node11" class="node"><title>d</title>
<ellipse fill="none" stroke="black" cx="234" cy="-18" rx="18" ry="18"/>
<text text-anchor="middle" x="234" y="-14.3" font-family="Helvetica,sans-Serif" font-size="14.00">d</text>
</g>
<!-- plus2&#45;&gt;d -->
<g id="edge13" class="edge"><title>plus2&#45;&gt;d</title>
<path fill="none" stroke="black" d="M277.331,-75.1703C269.787,-65.391 259.519,-52.0799 250.871,-40.8702"/>
<polygon fill="black" stroke="black" points="253.526,-38.581 244.646,-32.801 247.983,-42.8567 253.526,-38.581"/>
</g>
<!-- e -->
<g id="node12" class="node"><title>e</title>
<ellipse fill="none" stroke="black" cx="342" cy="-18" rx="18" ry="18"/>
<text text-anchor="middle" x="342" y="-14.3" font-family="Helvetica,sans-Serif" font-size="14.00">e</text>
</g>
<!-- plus2&#45;&gt;e -->
<g id="edge15" class="edge"><title>plus2&#45;&gt;e</title>
<path fill="none" stroke="black" d="M298.669,-75.1703C306.213,-65.391 316.481,-52.0799 325.129,-40.8702"/>
<polygon fill="black" stroke="black" points="328.017,-42.8567 331.354,-32.801 322.474,-38.581 328.017,-42.8567"/>
</g>
<!-- mult1&#45;&gt;plus2 -->
<g id="edge10" class="edge"><title>mult1&#45;&gt;plus2</title>
<path fill="none" stroke="black" d="M220.376,-149.441C233.114,-138.432 252.479,-121.697 267.227,-108.952"/>
<polygon fill="black" stroke="black" points="269.596,-111.531 274.873,-102.344 265.019,-106.234 269.596,-111.531"/>
</g>
<!-- hidden3 -->
<!-- mult1&#45;&gt;hidden3 -->
<!-- c -->
<g id="node10" class="node"><title>c</title>
<ellipse fill="none" stroke="black" cx="180" cy="-90" rx="18" ry="18"/>
<text text-anchor="middle" x="180" y="-86.3" font-family="Helvetica,sans-Serif" font-size="14.00">c</text>
</g>
<!-- mult1&#45;&gt;c -->
<g id="edge8" class="edge"><title>mult1&#45;&gt;c</title>
<path fill="none" stroke="black" d="M200.738,-144.765C197.5,-136.371 193.475,-125.934 189.834,-116.495"/>
<polygon fill="black" stroke="black" points="193.093,-115.218 186.228,-107.147 186.562,-117.737 193.093,-115.218"/>
</g>
<!-- hidden1&#45;&gt;b -->
<!-- hidden2&#45;&gt;e -->
<!-- hidden3&#45;&gt;plus2 -->
<!-- a&#45;&gt;hidden1 -->
<!-- c&#45;&gt;hidden3 -->
<!-- d&#45;&gt;hidden2 -->
</g>
</svg>
