<?xml version="1.0" encoding="UTF-8" standalone="no"?>
<!DOCTYPE svg PUBLIC "-//W3C//DTD SVG 1.1//EN"
 "http://www.w3.org/Graphics/SVG/1.1/DTD/svg11.dtd">
<!-- Generated by graphviz version 2.26.3 (20100126.1600)
 -->
<!-- Title: G Pages: 1 -->
<svg width="322pt" height="194pt"
 viewBox="0.00 0.00 322.00 194.00" xmlns="http://www.w3.org/2000/svg" xmlns:xlink="http://www.w3.org/1999/xlink">
<g id="graph1" class="graph" transform="scale(1 1) rotate(0) translate(4 190)">
<title>G</title>
<polygon fill="white" stroke="white" points="-4,5 -4,-190 319,-190 319,5 -4,5"/>
<!-- stack -->
<g id="node1" class="node"><title>stack</title>
<polygon fill="none" stroke="black" points="120,-149 120,-185 220,-185 220,-149 120,-149"/>
<text text-anchor="middle" x="130" y="-163.9" font-family="Helvetica,sans-Serif" font-size="14.00"> </text>
<polyline fill="none" stroke="black" points="140,-149 140,-185 "/>
<text text-anchor="middle" x="150" y="-163.9" font-family="Helvetica,sans-Serif" font-size="14.00"> </text>
<polyline fill="none" stroke="black" points="160,-149 160,-185 "/>
<text text-anchor="middle" x="170" y="-163.9" font-family="Helvetica,sans-Serif" font-size="14.00"> </text>
<polyline fill="none" stroke="black" points="180,-149 180,-185 "/>
<text text-anchor="middle" x="190" y="-163.9" font-family="Helvetica,sans-Serif" font-size="14.00"> </text>
<polyline fill="none" stroke="black" points="200,-149 200,-185 "/>
<text text-anchor="middle" x="210" y="-163.9" font-family="Helvetica,sans-Serif" font-size="14.00"> </text>
</g>
<!-- plus1 -->
<g id="node2" class="node"><title>plus1</title>
<ellipse fill="none" stroke="black" cx="81" cy="-93" rx="19.0919" ry="19.0919"/>
<text text-anchor="middle" x="81" y="-89.9" font-family="Helvetica,sans-Serif" font-size="14.00">+</text>
</g>
<!-- stack&#45;&gt;plus1 -->
<g id="edge2" class="edge"><title>stack:0:c&#45;&gt;plus1</title>
<path fill="none" stroke="black" d="M130,-168C130,-168 125.034,-156.838 120,-148.5 113.476,-137.694 105.578,-126.207 98.6001,-116.504"/>
<polygon fill="black" stroke="black" points="101.238,-114.181 92.5167,-108.165 95.5828,-118.307 101.238,-114.181"/>
</g>
<!-- plus2 -->
<g id="node3" class="node"><title>plus2</title>
<ellipse fill="none" stroke="black" cx="233" cy="-93" rx="19.0919" ry="19.0919"/>
<text text-anchor="middle" x="233" y="-89.9" font-family="Helvetica,sans-Serif" font-size="14.00">+</text>
</g>
<!-- stack&#45;&gt;plus2 -->
<g id="edge6" class="edge"><title>stack:2:c&#45;&gt;plus2</title>
<path fill="none" stroke="black" d="M170,-168C170,-168 174.356,-156.438 180,-148.5 189.106,-135.694 201.07,-122.908 211.327,-112.842"/>
<polygon fill="black" stroke="black" points="213.962,-115.164 218.761,-105.719 209.119,-110.11 213.962,-115.164"/>
</g>
<!-- c -->
<g id="node8" class="node"><title>c</title>
<ellipse fill="none" stroke="black" cx="150" cy="-93" rx="19.0919" ry="19.0919"/>
<text text-anchor="middle" x="150" y="-89.9" font-family="Helvetica,sans-Serif" font-size="14.00">c</text>
</g>
<!-- stack&#45;&gt;c -->
<g id="edge4" class="edge"><title>stack:1:c&#45;&gt;c</title>
<path fill="none" stroke="black" d="M150,-168C150,-168 150,-143.51 150,-122.519"/>
<polygon fill="black" stroke="black" points="153.5,-122.314 150,-112.314 146.5,-122.314 153.5,-122.314"/>
</g>
<!-- hidden1 -->
<!-- plus1&#45;&gt;hidden1 -->
<!-- a -->
<g id="node11" class="node"><title>a</title>
<ellipse fill="none" stroke="black" cx="19" cy="-19" rx="19.0919" ry="19.0919"/>
<text text-anchor="middle" x="19" y="-15.9" font-family="Helvetica,sans-Serif" font-size="14.00">a</text>
</g>
<!-- plus1&#45;&gt;a -->
<g id="edge8" class="edge"><title>plus1&#45;&gt;a</title>
<path fill="none" stroke="black" d="M68.7508,-78.38C59.9194,-67.8392 47.8358,-53.4169 37.7889,-41.4254"/>
<polygon fill="black" stroke="black" points="40.3288,-39.0071 31.2238,-33.5896 34.9632,-43.5027 40.3288,-39.0071"/>
</g>
<!-- b -->
<g id="node14" class="node"><title>b</title>
<ellipse fill="none" stroke="black" cx="129" cy="-19" rx="19.0919" ry="19.0919"/>
<text text-anchor="middle" x="129" y="-15.9" font-family="Helvetica,sans-Serif" font-size="14.00">b</text>
</g>
<!-- plus1&#45;&gt;b -->
<g id="edge12" class="edge"><title>plus1&#45;&gt;b</title>
<path fill="none" stroke="black" d="M91.4153,-76.9431C97.7053,-67.246 105.852,-54.6872 112.951,-43.7419"/>
<polygon fill="black" stroke="black" points="116.099,-45.3199 118.605,-35.0256 110.227,-41.5105 116.099,-45.3199"/>
</g>
<!-- hidden2 -->
<!-- plus2&#45;&gt;hidden2 -->
<!-- d -->
<g id="node18" class="node"><title>d</title>
<ellipse fill="none" stroke="black" cx="185" cy="-19" rx="19.0919" ry="19.0919"/>
<text text-anchor="middle" x="185" y="-15.9" font-family="Helvetica,sans-Serif" font-size="14.00">d</text>
</g>
<!-- plus2&#45;&gt;d -->
<g id="edge18" class="edge"><title>plus2&#45;&gt;d</title>
<path fill="none" stroke="black" d="M222.585,-76.9431C216.295,-67.246 208.148,-54.6872 201.049,-43.7419"/>
<polygon fill="black" stroke="black" points="203.773,-41.5105 195.395,-35.0256 197.901,-45.3199 203.773,-41.5105"/>
</g>
<!-- e -->
<g id="node21" class="node"><title>e</title>
<ellipse fill="none" stroke="black" cx="295" cy="-19" rx="19.0919" ry="19.0919"/>
<text text-anchor="middle" x="295" y="-15.9" font-family="Helvetica,sans-Serif" font-size="14.00">e</text>
</g>
<!-- plus2&#45;&gt;e -->
<g id="edge22" class="edge"><title>plus2&#45;&gt;e</title>
<path fill="none" stroke="black" d="M245.249,-78.38C254.081,-67.8392 266.164,-53.4169 276.211,-41.4254"/>
<polygon fill="black" stroke="black" points="279.037,-43.5027 282.776,-33.5896 273.671,-39.0071 279.037,-43.5027"/>
</g>
<!-- hidden1&#45;&gt;b -->
<!-- hidden2&#45;&gt;e -->
<!-- a&#45;&gt;hidden1 -->
<!-- d&#45;&gt;hidden2 -->
</g>
</svg>
