<?xml version="1.0" encoding="UTF-8" standalone="no"?>
<!DOCTYPE svg PUBLIC "-//W3C//DTD SVG 1.1//EN"
 "http://www.w3.org/Graphics/SVG/1.1/DTD/svg11.dtd">
<!-- Generated by graphviz version 2.26.3 (20100126.1600)
 -->
<!-- Title: G Pages: 1 -->
<svg width="135pt" height="120pt"
 viewBox="0.00 0.00 135.00 120.00" xmlns="http://www.w3.org/2000/svg" xmlns:xlink="http://www.w3.org/1999/xlink">
<g id="graph1" class="graph" transform="scale(1 1) rotate(0) translate(4 116)">
<title>G</title>
<polygon fill="white" stroke="white" points="-4,5 -4,-116 132,-116 132,5 -4,5"/>
<!-- stack -->
<g id="node1" class="node"><title>stack</title>
<polygon fill="none" stroke="black" points="27,-75 27,-111 127,-111 127,-75 27,-75"/>
<text text-anchor="middle" x="37" y="-89.9" font-family="Helvetica,sans-Serif" font-size="14.00"> </text>
<polyline fill="none" stroke="black" points="47,-75 47,-111 "/>
<text text-anchor="middle" x="57" y="-89.9" font-family="Helvetica,sans-Serif" font-size="14.00"> </text>
<polyline fill="none" stroke="black" points="67,-75 67,-111 "/>
<text text-anchor="middle" x="77" y="-89.9" font-family="Helvetica,sans-Serif" font-size="14.00"> </text>
<polyline fill="none" stroke="black" points="87,-75 87,-111 "/>
<text text-anchor="middle" x="97" y="-89.9" font-family="Helvetica,sans-Serif" font-size="14.00"> </text>
<polyline fill="none" stroke="black" points="107,-75 107,-111 "/>
<text text-anchor="middle" x="117" y="-89.9" font-family="Helvetica,sans-Serif" font-size="14.00"> </text>
</g>
<!-- a -->
<g id="node3" class="node"><title>a</title>
<ellipse fill="none" stroke="black" cx="19" cy="-19" rx="19.0919" ry="19.0919"/>
<text text-anchor="middle" x="19" y="-15.9" font-family="Helvetica,sans-Serif" font-size="14.00">a</text>
</g>
<!-- stack&#45;&gt;a -->
<g id="edge2" class="edge"><title>stack:0:c&#45;&gt;a</title>
<path fill="none" stroke="black" d="M37,-94C37,-94 30.9291,-68.7048 25.8387,-47.4947"/>
<polygon fill="black" stroke="black" points="29.1866,-46.4464 23.4494,-37.5393 22.3799,-48.08 29.1866,-46.4464"/>
</g>
<!-- b -->
<g id="node5" class="node"><title>b</title>
<ellipse fill="none" stroke="black" cx="75" cy="-19" rx="19.0919" ry="19.0919"/>
<text text-anchor="middle" x="75" y="-15.9" font-family="Helvetica,sans-Serif" font-size="14.00">b</text>
</g>
<!-- stack&#45;&gt;b -->
<g id="edge4" class="edge"><title>stack:1:c&#45;&gt;b</title>
<path fill="none" stroke="black" d="M57,-94C57,-94 63.0709,-68.7048 68.1613,-47.4947"/>
<polygon fill="black" stroke="black" points="71.6201,-48.08 70.5506,-37.5393 64.8134,-46.4464 71.6201,-48.08"/>
</g>
</g>
</svg>
