<?xml version="1.0" encoding="UTF-8" standalone="no"?>
<!DOCTYPE svg PUBLIC "-//W3C//DTD SVG 1.1//EN"
 "http://www.w3.org/Graphics/SVG/1.1/DTD/svg11.dtd">
<!-- Generated by graphviz version 2.36.0 (20140111.2315)
 -->
<!-- Title: G Pages: 1 -->
<svg width="116pt" height="118pt"
 viewBox="0.00 0.00 116.00 118.00" xmlns="http://www.w3.org/2000/svg" xmlns:xlink="http://www.w3.org/1999/xlink">
<g id="graph0" class="graph" transform="scale(1 1) rotate(0) translate(4 114)">
<title>G</title>
<polygon fill="white" stroke="none" points="-4,4 -4,-114 112,-114 112,4 -4,4"/>
<!-- stack -->
<g id="node1" class="node"><title>stack</title>
<polygon fill="none" stroke="black" points="8,-73 8,-109 108,-109 108,-73 8,-73"/>
<text text-anchor="middle" x="18" y="-87.3" font-family="Helvetica,sans-Serif" font-size="14.00"> </text>
<polyline fill="none" stroke="black" points="28,-73 28,-109 "/>
<text text-anchor="middle" x="38" y="-87.3" font-family="Helvetica,sans-Serif" font-size="14.00"> </text>
<polyline fill="none" stroke="black" points="48,-73 48,-109 "/>
<text text-anchor="middle" x="58" y="-87.3" font-family="Helvetica,sans-Serif" font-size="14.00"> </text>
<polyline fill="none" stroke="black" points="68,-73 68,-109 "/>
<text text-anchor="middle" x="78" y="-87.3" font-family="Helvetica,sans-Serif" font-size="14.00"> </text>
<polyline fill="none" stroke="black" points="88,-73 88,-109 "/>
<text text-anchor="middle" x="98" y="-87.3" font-family="Helvetica,sans-Serif" font-size="14.00"> </text>
</g>
<!-- a -->
<g id="node2" class="node"><title>a</title>
<ellipse fill="none" stroke="black" cx="18" cy="-18" rx="18" ry="18"/>
<text text-anchor="middle" x="18" y="-14.3" font-family="Helvetica,sans-Serif" font-size="14.00">a</text>
</g>
<!-- stack&#45;&gt;a -->
<g id="edge1" class="edge"><title>stack:0:c&#45;&gt;a</title>
<path fill="none" stroke="black" d="M18,-91C18,-91 18,-66.6016 18,-46.2105"/>
<polygon fill="black" stroke="black" points="21.5001,-46.063 18,-36.063 14.5001,-46.063 21.5001,-46.063"/>
</g>
</g>
</svg>
