<?xml version="1.0" encoding="UTF-8" standalone="no"?>
<!DOCTYPE svg PUBLIC "-//W3C//DTD SVG 1.1//EN"
 "http://www.w3.org/Graphics/SVG/1.1/DTD/svg11.dtd">
<!-- Generated by graphviz version 2.36.0 (20140111.2315)
 -->
<!-- Title: G Pages: 1 -->
<svg width="332pt" height="260pt"
 viewBox="0.00 0.00 332.00 260.00" xmlns="http://www.w3.org/2000/svg" xmlns:xlink="http://www.w3.org/1999/xlink">
<g id="graph0" class="graph" transform="scale(1 1) rotate(0) translate(4 256)">
<title>G</title>
<polygon fill="white" stroke="none" points="-4,4 -4,-256 328,-256 328,4 -4,4"/>
<!-- div -->
<g id="node1" class="node"><title>div</title>
<ellipse fill="none" stroke="black" cx="182" cy="-234" rx="18" ry="18"/>
<text text-anchor="middle" x="182" y="-230.3" font-family="Helvetica,sans-Serif" font-size="14.00">/</text>
</g>
<!-- star1 -->
<g id="node2" class="node"><title>star1</title>
<ellipse fill="none" stroke="black" cx="135" cy="-162" rx="18" ry="18"/>
<text text-anchor="middle" x="135" y="-158.3" font-family="Helvetica,sans-Serif" font-size="14.00">*</text>
</g>
<!-- div&#45;&gt;star1 -->
<g id="edge1" class="edge"><title>div&#45;&gt;star1</title>
<path fill="none" stroke="black" d="M172.262,-218.496C165.96,-209.11 157.619,-196.688 150.427,-185.977"/>
<polygon fill="black" stroke="black" points="153.206,-183.837 144.726,-177.485 147.395,-187.739 153.206,-183.837"/>
</g>
<!-- mdiv -->
<!-- div&#45;&gt;mdiv -->
<!-- star2 -->
<g id="node4" class="node"><title>star2</title>
<ellipse fill="none" stroke="black" cx="246" cy="-162" rx="18" ry="18"/>
<text text-anchor="middle" x="246" y="-158.3" font-family="Helvetica,sans-Serif" font-size="14.00">*</text>
</g>
<!-- div&#45;&gt;star2 -->
<g id="edge3" class="edge"><title>div&#45;&gt;star2</title>
<path fill="none" stroke="black" d="M193.739,-220.161C203.121,-209.899 216.451,-195.319 227.3,-183.453"/>
<polygon fill="black" stroke="black" points="230.171,-185.5 234.336,-175.758 225.005,-180.776 230.171,-185.5"/>
</g>
<!-- star1&#45;&gt;mdiv -->
<!-- plus -->
<g id="node5" class="node"><title>plus</title>
<ellipse fill="none" stroke="black" cx="75" cy="-90" rx="18" ry="18"/>
<text text-anchor="middle" x="75" y="-86.3" font-family="Helvetica,sans-Serif" font-size="14.00">+</text>
</g>
<!-- star1&#45;&gt;plus -->
<g id="edge6" class="edge"><title>star1&#45;&gt;plus</title>
<path fill="none" stroke="black" d="M123.714,-147.834C114.999,-137.665 102.774,-123.403 92.7516,-111.71"/>
<polygon fill="black" stroke="black" points="95.4003,-109.422 86.2349,-104.107 90.0855,-113.978 95.4003,-109.422"/>
</g>
<!-- mstar1 -->
<!-- star1&#45;&gt;mstar1 -->
<!-- minus -->
<g id="node7" class="node"><title>minus</title>
<ellipse fill="none" stroke="black" cx="172" cy="-90" rx="18" ry="18"/>
<text text-anchor="middle" x="172" y="-86.3" font-family="Helvetica,sans-Serif" font-size="14.00">&#45;</text>
</g>
<!-- star1&#45;&gt;minus -->
<g id="edge8" class="edge"><title>star1&#45;&gt;minus</title>
<path fill="none" stroke="black" d="M143.028,-145.811C147.78,-136.822 153.906,-125.232 159.3,-115.028"/>
<polygon fill="black" stroke="black" points="162.408,-116.636 163.987,-106.159 156.22,-113.365 162.408,-116.636"/>
</g>
<!-- mdiv&#45;&gt;star2 -->
<!-- 5 -->
<g id="node14" class="node"><title>5</title>
<ellipse fill="none" stroke="black" cx="226" cy="-90" rx="18" ry="18"/>
<text text-anchor="middle" x="226" y="-86.3" font-family="Helvetica,sans-Serif" font-size="14.00">5</text>
</g>
<!-- star2&#45;&gt;5 -->
<g id="edge21" class="edge"><title>star2&#45;&gt;5</title>
<path fill="none" stroke="black" d="M241.26,-144.411C238.944,-136.304 236.101,-126.354 233.499,-117.248"/>
<polygon fill="black" stroke="black" points="236.818,-116.124 230.706,-107.47 230.088,-118.047 236.818,-116.124"/>
</g>
<!-- mstar2 -->
<!-- star2&#45;&gt;mstar2 -->
<!-- 6 -->
<g id="node16" class="node"><title>6</title>
<ellipse fill="none" stroke="black" cx="306" cy="-90" rx="18" ry="18"/>
<text text-anchor="middle" x="306" y="-86.3" font-family="Helvetica,sans-Serif" font-size="14.00">6</text>
</g>
<!-- star2&#45;&gt;6 -->
<g id="edge23" class="edge"><title>star2&#45;&gt;6</title>
<path fill="none" stroke="black" d="M257.286,-147.834C266.001,-137.665 278.226,-123.403 288.248,-111.71"/>
<polygon fill="black" stroke="black" points="290.915,-113.978 294.765,-104.107 285.6,-109.422 290.915,-113.978"/>
</g>
<!-- plus&#45;&gt;mstar1 -->
<!-- 1 -->
<g id="node8" class="node"><title>1</title>
<ellipse fill="none" stroke="black" cx="18" cy="-18" rx="18" ry="18"/>
<text text-anchor="middle" x="18" y="-14.3" font-family="Helvetica,sans-Serif" font-size="14.00">1</text>
</g>
<!-- plus&#45;&gt;1 -->
<g id="edge11" class="edge"><title>plus&#45;&gt;1</title>
<path fill="none" stroke="black" d="M64.0098,-75.5033C55.8878,-65.5289 44.6681,-51.7503 35.3416,-40.2967"/>
<polygon fill="black" stroke="black" points="37.9848,-37.9996 28.9564,-32.4553 32.5567,-42.4197 37.9848,-37.9996"/>
</g>
<!-- mplus -->
<!-- plus&#45;&gt;mplus -->
<!-- 2 -->
<g id="node10" class="node"><title>2</title>
<ellipse fill="none" stroke="black" cx="98" cy="-18" rx="18" ry="18"/>
<text text-anchor="middle" x="98" y="-14.3" font-family="Helvetica,sans-Serif" font-size="14.00">2</text>
</g>
<!-- plus&#45;&gt;2 -->
<g id="edge13" class="edge"><title>plus&#45;&gt;2</title>
<path fill="none" stroke="black" d="M80.3345,-72.7646C83.0242,-64.5785 86.3528,-54.4479 89.393,-45.1953"/>
<polygon fill="black" stroke="black" points="92.7383,-46.2263 92.5347,-35.6334 86.088,-44.0412 92.7383,-46.2263"/>
</g>
<!-- mstar1&#45;&gt;minus -->
<!-- 3 -->
<g id="node11" class="node"><title>3</title>
<ellipse fill="none" stroke="black" cx="152" cy="-18" rx="18" ry="18"/>
<text text-anchor="middle" x="152" y="-14.3" font-family="Helvetica,sans-Serif" font-size="14.00">3</text>
</g>
<!-- minus&#45;&gt;3 -->
<g id="edge16" class="edge"><title>minus&#45;&gt;3</title>
<path fill="none" stroke="black" d="M167.26,-72.411C164.944,-64.3036 162.101,-54.3537 159.499,-45.2482"/>
<polygon fill="black" stroke="black" points="162.818,-44.1236 156.706,-35.4699 156.088,-46.0467 162.818,-44.1236"/>
</g>
<!-- mminus -->
<!-- minus&#45;&gt;mminus -->
<!-- 4 -->
<g id="node13" class="node"><title>4</title>
<ellipse fill="none" stroke="black" cx="232" cy="-18" rx="18" ry="18"/>
<text text-anchor="middle" x="232" y="-14.3" font-family="Helvetica,sans-Serif" font-size="14.00">4</text>
</g>
<!-- minus&#45;&gt;4 -->
<g id="edge18" class="edge"><title>minus&#45;&gt;4</title>
<path fill="none" stroke="black" d="M183.286,-75.8335C192.001,-65.6652 204.226,-51.4032 214.248,-39.7102"/>
<polygon fill="black" stroke="black" points="216.915,-41.9778 220.765,-32.1074 211.6,-37.4222 216.915,-41.9778"/>
</g>
<!-- 1&#45;&gt;mplus -->
<!-- mplus&#45;&gt;2 -->
<!-- 3&#45;&gt;mminus -->
<!-- mminus&#45;&gt;4 -->
<!-- 5&#45;&gt;mstar2 -->
<!-- mstar2&#45;&gt;6 -->
</g>
</svg>
