<?xml version="1.0" encoding="UTF-8" standalone="no"?>
<!DOCTYPE svg PUBLIC "-//W3C//DTD SVG 1.1//EN"
 "http://www.w3.org/Graphics/SVG/1.1/DTD/svg11.dtd">
<!-- Generated by graphviz version 2.26.3 (20100126.1600)
 -->
<!-- Title: G Pages: 1 -->
<svg width="190pt" height="194pt"
 viewBox="0.00 0.00 190.00 194.00" xmlns="http://www.w3.org/2000/svg" xmlns:xlink="http://www.w3.org/1999/xlink">
<g id="graph1" class="graph" transform="scale(1 1) rotate(0) translate(4 190)">
<title>G</title>
<polygon fill="white" stroke="white" points="-4,5 -4,-190 187,-190 187,5 -4,5"/>
<!-- stack -->
<g id="node1" class="node"><title>stack</title>
<polygon fill="none" stroke="black" points="82,-149 82,-185 182,-185 182,-149 82,-149"/>
<text text-anchor="middle" x="92" y="-163.9" font-family="Helvetica,sans-Serif" font-size="14.00"> </text>
<polyline fill="none" stroke="black" points="102,-149 102,-185 "/>
<text text-anchor="middle" x="112" y="-163.9" font-family="Helvetica,sans-Serif" font-size="14.00"> </text>
<polyline fill="none" stroke="black" points="122,-149 122,-185 "/>
<text text-anchor="middle" x="132" y="-163.9" font-family="Helvetica,sans-Serif" font-size="14.00"> </text>
<polyline fill="none" stroke="black" points="142,-149 142,-185 "/>
<text text-anchor="middle" x="152" y="-163.9" font-family="Helvetica,sans-Serif" font-size="14.00"> </text>
<polyline fill="none" stroke="black" points="162,-149 162,-185 "/>
<text text-anchor="middle" x="172" y="-163.9" font-family="Helvetica,sans-Serif" font-size="14.00"> </text>
</g>
<!-- plus1 -->
<g id="node2" class="node"><title>plus1</title>
<ellipse fill="none" stroke="black" cx="74" cy="-93" rx="19.0919" ry="19.0919"/>
<text text-anchor="middle" x="74" y="-89.9" font-family="Helvetica,sans-Serif" font-size="14.00">+</text>
</g>
<!-- stack&#45;&gt;plus1 -->
<g id="edge2" class="edge"><title>stack:0:c&#45;&gt;plus1</title>
<path fill="none" stroke="black" d="M92,-168C92,-168 85.9291,-142.705 80.8387,-121.495"/>
<polygon fill="black" stroke="black" points="84.1866,-120.446 78.4494,-111.539 77.3799,-122.08 84.1866,-120.446"/>
</g>
<!-- c -->
<g id="node6" class="node"><title>c</title>
<ellipse fill="none" stroke="black" cx="130" cy="-93" rx="19.0919" ry="19.0919"/>
<text text-anchor="middle" x="130" y="-89.9" font-family="Helvetica,sans-Serif" font-size="14.00">c</text>
</g>
<!-- stack&#45;&gt;c -->
<g id="edge4" class="edge"><title>stack:1:c&#45;&gt;c</title>
<path fill="none" stroke="black" d="M112,-168C112,-168 118.071,-142.705 123.161,-121.495"/>
<polygon fill="black" stroke="black" points="126.62,-122.08 125.551,-111.539 119.813,-120.446 126.62,-122.08"/>
</g>
<!-- hidden1 -->
<!-- plus1&#45;&gt;hidden1 -->
<!-- a -->
<g id="node8" class="node"><title>a</title>
<ellipse fill="none" stroke="black" cx="19" cy="-19" rx="19.0919" ry="19.0919"/>
<text text-anchor="middle" x="19" y="-15.9" font-family="Helvetica,sans-Serif" font-size="14.00">a</text>
</g>
<!-- plus1&#45;&gt;a -->
<g id="edge6" class="edge"><title>plus1&#45;&gt;a</title>
<path fill="none" stroke="black" d="M62.604,-77.6672C55.082,-67.5467 45.0781,-54.0868 36.5498,-42.6125"/>
<polygon fill="black" stroke="black" points="39.1558,-40.2513 30.3814,-34.3132 33.5376,-44.427 39.1558,-40.2513"/>
</g>
<!-- b -->
<g id="node11" class="node"><title>b</title>
<ellipse fill="none" stroke="black" cx="129" cy="-19" rx="19.0919" ry="19.0919"/>
<text text-anchor="middle" x="129" y="-15.9" font-family="Helvetica,sans-Serif" font-size="14.00">b</text>
</g>
<!-- plus1&#45;&gt;b -->
<g id="edge10" class="edge"><title>plus1&#45;&gt;b</title>
<path fill="none" stroke="black" d="M85.396,-77.6672C92.918,-67.5467 102.922,-54.0868 111.45,-42.6125"/>
<polygon fill="black" stroke="black" points="114.462,-44.427 117.619,-34.3132 108.844,-40.2513 114.462,-44.427"/>
</g>
<!-- hidden1&#45;&gt;b -->
<!-- a&#45;&gt;hidden1 -->
</g>
</svg>
