<?xml version="1.0" encoding="UTF-8" standalone="no"?>
<!DOCTYPE svg PUBLIC "-//W3C//DTD SVG 1.1//EN"
 "http://www.w3.org/Graphics/SVG/1.1/DTD/svg11.dtd">
<!-- Generated by graphviz version 2.26.3 (20100126.1600)
 -->
<!-- Title: G Pages: 1 -->
<svg width="422pt" height="268pt"
 viewBox="0.00 0.00 422.00 268.00" xmlns="http://www.w3.org/2000/svg" xmlns:xlink="http://www.w3.org/1999/xlink">
<g id="graph1" class="graph" transform="scale(1 1) rotate(0) translate(4 264)">
<title>G</title>
<polygon fill="white" stroke="white" points="-4,5 -4,-264 419,-264 419,5 -4,5"/>
<!-- div -->
<g id="node1" class="node"><title>div</title>
<ellipse fill="none" stroke="black" cx="237" cy="-241" rx="27" ry="19.0919"/>
<text text-anchor="middle" x="237" y="-237.9" font-family="Helvetica,sans-Serif" font-size="14.00">/</text>
</g>
<!-- star1 -->
<g id="node2" class="node"><title>star1</title>
<ellipse fill="none" stroke="black" cx="177" cy="-167" rx="27" ry="19.0919"/>
<text text-anchor="middle" x="177" y="-163.9" font-family="Helvetica,sans-Serif" font-size="14.00">*</text>
</g>
<!-- div&#45;&gt;star1 -->
<g id="edge2" class="edge"><title>div&#45;&gt;star1</title>
<path fill="none" stroke="black" d="M223.385,-224.208C215.56,-214.558 205.59,-202.261 196.9,-191.544"/>
<polygon fill="black" stroke="black" points="199.578,-189.289 190.561,-183.725 194.14,-193.697 199.578,-189.289"/>
</g>
<!-- mdiv -->
<!-- div&#45;&gt;mdiv -->
<!-- star2 -->
<g id="node6" class="node"><title>star2</title>
<ellipse fill="none" stroke="black" cx="315" cy="-167" rx="27" ry="19.0919"/>
<text text-anchor="middle" x="315" y="-163.9" font-family="Helvetica,sans-Serif" font-size="14.00">*</text>
</g>
<!-- div&#45;&gt;star2 -->
<g id="edge6" class="edge"><title>div&#45;&gt;star2</title>
<path fill="none" stroke="black" d="M253.162,-225.667C264.248,-215.15 279.135,-201.026 291.524,-189.272"/>
<polygon fill="black" stroke="black" points="294.013,-191.735 298.859,-182.313 289.195,-186.657 294.013,-191.735"/>
</g>
<!-- star1&#45;&gt;mdiv -->
<!-- plus -->
<g id="node10" class="node"><title>plus</title>
<ellipse fill="none" stroke="black" cx="99" cy="-93" rx="27" ry="19.0919"/>
<text text-anchor="middle" x="99" y="-89.9" font-family="Helvetica,sans-Serif" font-size="14.00">+</text>
</g>
<!-- star1&#45;&gt;plus -->
<g id="edge12" class="edge"><title>star1&#45;&gt;plus</title>
<path fill="none" stroke="black" d="M160.838,-151.667C149.752,-141.15 134.865,-127.026 122.476,-115.272"/>
<polygon fill="black" stroke="black" points="124.805,-112.657 115.141,-108.313 119.987,-117.735 124.805,-112.657"/>
</g>
<!-- mstar1 -->
<!-- star1&#45;&gt;mstar1 -->
<!-- minus -->
<g id="node14" class="node"><title>minus</title>
<ellipse fill="none" stroke="black" cx="219" cy="-93" rx="27" ry="19.0919"/>
<text text-anchor="middle" x="219" y="-89.9" font-family="Helvetica,sans-Serif" font-size="14.00">&#45;</text>
</g>
<!-- star1&#45;&gt;minus -->
<g id="edge16" class="edge"><title>star1&#45;&gt;minus</title>
<path fill="none" stroke="black" d="M187.167,-149.087C192.171,-140.27 198.306,-129.462 203.849,-119.695"/>
<polygon fill="black" stroke="black" points="207.034,-121.173 208.927,-110.748 200.947,-117.718 207.034,-121.173"/>
</g>
<!-- mdiv&#45;&gt;star2 -->
<!-- 5 -->
<g id="node35" class="node"><title>5</title>
<ellipse fill="none" stroke="black" cx="291" cy="-93" rx="27" ry="19.0919"/>
<text text-anchor="middle" x="291" y="-89.9" font-family="Helvetica,sans-Serif" font-size="14.00">5</text>
</g>
<!-- star2&#45;&gt;5 -->
<g id="edge42" class="edge"><title>star2&#45;&gt;5</title>
<path fill="none" stroke="black" d="M308.944,-148.327C306.3,-140.176 303.142,-130.438 300.217,-121.42"/>
<polygon fill="black" stroke="black" points="303.469,-120.1 297.054,-111.667 296.81,-122.259 303.469,-120.1"/>
</g>
<!-- mstar2 -->
<!-- star2&#45;&gt;mstar2 -->
<!-- 6 -->
<g id="node39" class="node"><title>6</title>
<ellipse fill="none" stroke="black" cx="387" cy="-93" rx="27" ry="19.0919"/>
<text text-anchor="middle" x="387" y="-89.9" font-family="Helvetica,sans-Serif" font-size="14.00">6</text>
</g>
<!-- star2&#45;&gt;6 -->
<g id="edge46" class="edge"><title>star2&#45;&gt;6</title>
<path fill="none" stroke="black" d="M330.269,-151.307C340.225,-141.075 353.389,-127.545 364.529,-116.095"/>
<polygon fill="black" stroke="black" points="367.039,-118.534 371.504,-108.926 362.022,-113.653 367.039,-118.534"/>
</g>
<!-- plus&#45;&gt;mstar1 -->
<!-- 1 -->
<g id="node19" class="node"><title>1</title>
<ellipse fill="none" stroke="black" cx="27" cy="-19" rx="27" ry="19.0919"/>
<text text-anchor="middle" x="27" y="-15.9" font-family="Helvetica,sans-Serif" font-size="14.00">1</text>
</g>
<!-- plus&#45;&gt;1 -->
<g id="edge22" class="edge"><title>plus&#45;&gt;1</title>
<path fill="none" stroke="black" d="M83.7307,-77.3065C73.7753,-67.0746 60.6114,-53.545 49.4705,-42.0947"/>
<polygon fill="black" stroke="black" points="51.9777,-39.6525 42.4956,-34.926 46.9606,-44.534 51.9777,-39.6525"/>
</g>
<!-- mplus -->
<!-- plus&#45;&gt;mplus -->
<!-- 2 -->
<g id="node23" class="node"><title>2</title>
<ellipse fill="none" stroke="black" cx="123" cy="-19" rx="27" ry="19.0919"/>
<text text-anchor="middle" x="123" y="-15.9" font-family="Helvetica,sans-Serif" font-size="14.00">2</text>
</g>
<!-- plus&#45;&gt;2 -->
<g id="edge26" class="edge"><title>plus&#45;&gt;2</title>
<path fill="none" stroke="black" d="M105.056,-74.3267C107.7,-66.1762 110.858,-56.4384 113.783,-47.4203"/>
<polygon fill="black" stroke="black" points="117.19,-48.2594 116.946,-37.6674 110.531,-46.0998 117.19,-48.2594"/>
</g>
<!-- mstar1&#45;&gt;minus -->
<!-- 3 -->
<g id="node27" class="node"><title>3</title>
<ellipse fill="none" stroke="black" cx="195" cy="-19" rx="27" ry="19.0919"/>
<text text-anchor="middle" x="195" y="-15.9" font-family="Helvetica,sans-Serif" font-size="14.00">3</text>
</g>
<!-- minus&#45;&gt;3 -->
<g id="edge32" class="edge"><title>minus&#45;&gt;3</title>
<path fill="none" stroke="black" d="M212.944,-74.3267C210.3,-66.1762 207.142,-56.4384 204.217,-47.4203"/>
<polygon fill="black" stroke="black" points="207.469,-46.0998 201.054,-37.6674 200.81,-48.2594 207.469,-46.0998"/>
</g>
<!-- mminus -->
<!-- minus&#45;&gt;mminus -->
<!-- 4 -->
<g id="node31" class="node"><title>4</title>
<ellipse fill="none" stroke="black" cx="291" cy="-19" rx="27" ry="19.0919"/>
<text text-anchor="middle" x="291" y="-15.9" font-family="Helvetica,sans-Serif" font-size="14.00">4</text>
</g>
<!-- minus&#45;&gt;4 -->
<g id="edge36" class="edge"><title>minus&#45;&gt;4</title>
<path fill="none" stroke="black" d="M234.269,-77.3065C244.225,-67.0746 257.389,-53.545 268.529,-42.0947"/>
<polygon fill="black" stroke="black" points="271.039,-44.534 275.504,-34.926 266.022,-39.6525 271.039,-44.534"/>
</g>
<!-- 1&#45;&gt;mplus -->
<!-- mplus&#45;&gt;2 -->
<!-- 3&#45;&gt;mminus -->
<!-- mminus&#45;&gt;4 -->
<!-- 5&#45;&gt;mstar2 -->
<!-- mstar2&#45;&gt;6 -->
</g>
</svg>
