<?xml version="1.0" encoding="UTF-8" standalone="no"?>
<!DOCTYPE svg PUBLIC "-//W3C//DTD SVG 1.1//EN"
 "http://www.w3.org/Graphics/SVG/1.1/DTD/svg11.dtd">
<!-- Generated by graphviz version 2.26.3 (20100126.1600)
 -->
<!-- Title: G Pages: 1 -->
<svg width="172pt" height="194pt"
 viewBox="0.00 0.00 172.00 194.00" xmlns="http://www.w3.org/2000/svg" xmlns:xlink="http://www.w3.org/1999/xlink">
<g id="graph1" class="graph" transform="scale(1 1) rotate(0) translate(4 190)">
<title>G</title>
<polygon fill="white" stroke="white" points="-4,5 -4,-190 169,-190 169,5 -4,5"/>
<!-- stack -->
<g id="node1" class="node"><title>stack</title>
<polygon fill="none" stroke="black" points="64,-149 64,-185 164,-185 164,-149 64,-149"/>
<text text-anchor="middle" x="74" y="-163.9" font-family="Helvetica,sans-Serif" font-size="14.00"> </text>
<polyline fill="none" stroke="black" points="84,-149 84,-185 "/>
<text text-anchor="middle" x="94" y="-163.9" font-family="Helvetica,sans-Serif" font-size="14.00"> </text>
<polyline fill="none" stroke="black" points="104,-149 104,-185 "/>
<text text-anchor="middle" x="114" y="-163.9" font-family="Helvetica,sans-Serif" font-size="14.00"> </text>
<polyline fill="none" stroke="black" points="124,-149 124,-185 "/>
<text text-anchor="middle" x="134" y="-163.9" font-family="Helvetica,sans-Serif" font-size="14.00"> </text>
<polyline fill="none" stroke="black" points="144,-149 144,-185 "/>
<text text-anchor="middle" x="154" y="-163.9" font-family="Helvetica,sans-Serif" font-size="14.00"> </text>
</g>
<!-- plus1 -->
<g id="node2" class="node"><title>plus1</title>
<ellipse fill="none" stroke="black" cx="74" cy="-93" rx="19.0919" ry="19.0919"/>
<text text-anchor="middle" x="74" y="-89.9" font-family="Helvetica,sans-Serif" font-size="14.00">+</text>
</g>
<!-- stack&#45;&gt;plus1 -->
<g id="edge2" class="edge"><title>stack:0:c&#45;&gt;plus1</title>
<path fill="none" stroke="black" d="M74,-168C74,-168 74,-143.51 74,-122.519"/>
<polygon fill="black" stroke="black" points="77.5001,-122.314 74,-112.314 70.5001,-122.314 77.5001,-122.314"/>
</g>
<!-- hidden1 -->
<!-- plus1&#45;&gt;hidden1 -->
<!-- a -->
<g id="node6" class="node"><title>a</title>
<ellipse fill="none" stroke="black" cx="19" cy="-19" rx="19.0919" ry="19.0919"/>
<text text-anchor="middle" x="19" y="-15.9" font-family="Helvetica,sans-Serif" font-size="14.00">a</text>
</g>
<!-- plus1&#45;&gt;a -->
<g id="edge4" class="edge"><title>plus1&#45;&gt;a</title>
<path fill="none" stroke="black" d="M62.604,-77.6672C55.082,-67.5467 45.0781,-54.0868 36.5498,-42.6125"/>
<polygon fill="black" stroke="black" points="39.1558,-40.2513 30.3814,-34.3132 33.5376,-44.427 39.1558,-40.2513"/>
</g>
<!-- b -->
<g id="node9" class="node"><title>b</title>
<ellipse fill="none" stroke="black" cx="129" cy="-19" rx="19.0919" ry="19.0919"/>
<text text-anchor="middle" x="129" y="-15.9" font-family="Helvetica,sans-Serif" font-size="14.00">b</text>
</g>
<!-- plus1&#45;&gt;b -->
<g id="edge8" class="edge"><title>plus1&#45;&gt;b</title>
<path fill="none" stroke="black" d="M85.396,-77.6672C92.918,-67.5467 102.922,-54.0868 111.45,-42.6125"/>
<polygon fill="black" stroke="black" points="114.462,-44.427 117.619,-34.3132 108.844,-40.2513 114.462,-44.427"/>
</g>
<!-- hidden1&#45;&gt;b -->
<!-- a&#45;&gt;hidden1 -->
</g>
</svg>
