<?xml version="1.0" encoding="UTF-8" standalone="no"?>
<!DOCTYPE svg PUBLIC "-//W3C//DTD SVG 1.1//EN"
 "http://www.w3.org/Graphics/SVG/1.1/DTD/svg11.dtd">
<!-- Generated by graphviz version 2.36.0 (20140111.2315)
 -->
<!-- Title: G Pages: 1 -->
<svg width="426pt" height="260pt"
 viewBox="0.00 0.00 426.00 260.00" xmlns="http://www.w3.org/2000/svg" xmlns:xlink="http://www.w3.org/1999/xlink">
<g id="graph0" class="graph" transform="scale(1 1) rotate(0) translate(4 256)">
<title>G</title>
<polygon fill="white" stroke="none" points="-4,4 -4,-256 422,-256 422,4 -4,4"/>
<!-- div -->
<g id="node1" class="node"><title>div</title>
<ellipse fill="none" stroke="black" cx="238" cy="-234" rx="27" ry="18"/>
<text text-anchor="middle" x="238" y="-230.3" font-family="Helvetica,sans-Serif" font-size="14.00">/</text>
</g>
<!-- star1 -->
<g id="node2" class="node"><title>star1</title>
<ellipse fill="none" stroke="black" cx="178" cy="-162" rx="27" ry="18"/>
<text text-anchor="middle" x="178" y="-158.3" font-family="Helvetica,sans-Serif" font-size="14.00">*</text>
</g>
<!-- div&#45;&gt;star1 -->
<g id="edge1" class="edge"><title>div&#45;&gt;star1</title>
<path fill="none" stroke="black" d="M224.981,-217.811C216.961,-208.455 206.527,-196.282 197.53,-185.785"/>
<polygon fill="black" stroke="black" points="200.159,-183.474 190.994,-178.159 194.844,-188.03 200.159,-183.474"/>
</g>
<!-- mdiv -->
<!-- div&#45;&gt;mdiv -->
<!-- star2 -->
<g id="node4" class="node"><title>star2</title>
<ellipse fill="none" stroke="black" cx="317" cy="-162" rx="27" ry="18"/>
<text text-anchor="middle" x="317" y="-158.3" font-family="Helvetica,sans-Serif" font-size="14.00">*</text>
</g>
<!-- div&#45;&gt;star2 -->
<g id="edge3" class="edge"><title>div&#45;&gt;star2</title>
<path fill="none" stroke="black" d="M253.608,-219.17C265.077,-209.008 280.851,-195.03 293.795,-183.561"/>
<polygon fill="black" stroke="black" points="296.261,-186.053 301.425,-176.801 291.619,-180.813 296.261,-186.053"/>
</g>
<!-- star1&#45;&gt;mdiv -->
<!-- plus -->
<g id="node5" class="node"><title>plus</title>
<ellipse fill="none" stroke="black" cx="99" cy="-90" rx="27" ry="18"/>
<text text-anchor="middle" x="99" y="-86.3" font-family="Helvetica,sans-Serif" font-size="14.00">+</text>
</g>
<!-- star1&#45;&gt;plus -->
<g id="edge6" class="edge"><title>star1&#45;&gt;plus</title>
<path fill="none" stroke="black" d="M162.392,-147.17C150.923,-137.008 135.149,-123.03 122.205,-111.561"/>
<polygon fill="black" stroke="black" points="124.381,-108.813 114.575,-104.801 119.739,-114.053 124.381,-108.813"/>
</g>
<!-- mstar1 -->
<!-- star1&#45;&gt;mstar1 -->
<!-- minus -->
<g id="node7" class="node"><title>minus</title>
<ellipse fill="none" stroke="black" cx="221" cy="-90" rx="27" ry="18"/>
<text text-anchor="middle" x="221" y="-86.3" font-family="Helvetica,sans-Serif" font-size="14.00">&#45;</text>
</g>
<!-- star1&#45;&gt;minus -->
<g id="edge8" class="edge"><title>star1&#45;&gt;minus</title>
<path fill="none" stroke="black" d="M187.757,-145.116C193.145,-136.345 199.952,-125.264 206.001,-115.416"/>
<polygon fill="black" stroke="black" points="209.029,-117.174 211.281,-106.821 203.065,-113.51 209.029,-117.174"/>
</g>
<!-- mdiv&#45;&gt;star2 -->
<!-- 5 -->
<g id="node14" class="node"><title>5</title>
<ellipse fill="none" stroke="black" cx="293" cy="-90" rx="27" ry="18"/>
<text text-anchor="middle" x="293" y="-86.3" font-family="Helvetica,sans-Serif" font-size="14.00">5</text>
</g>
<!-- star2&#45;&gt;5 -->
<g id="edge21" class="edge"><title>star2&#45;&gt;5</title>
<path fill="none" stroke="black" d="M311.19,-144.055C308.449,-136.059 305.113,-126.331 302.051,-117.4"/>
<polygon fill="black" stroke="black" points="305.31,-116.113 298.756,-107.789 298.689,-118.384 305.31,-116.113"/>
</g>
<!-- mstar2 -->
<!-- star2&#45;&gt;mstar2 -->
<!-- 6 -->
<g id="node16" class="node"><title>6</title>
<ellipse fill="none" stroke="black" cx="391" cy="-90" rx="27" ry="18"/>
<text text-anchor="middle" x="391" y="-86.3" font-family="Helvetica,sans-Serif" font-size="14.00">6</text>
</g>
<!-- star2&#45;&gt;6 -->
<g id="edge23" class="edge"><title>star2&#45;&gt;6</title>
<path fill="none" stroke="black" d="M331.975,-146.834C342.507,-136.872 356.782,-123.369 368.655,-112.137"/>
<polygon fill="black" stroke="black" points="371.188,-114.559 376.047,-105.144 366.377,-109.474 371.188,-114.559"/>
</g>
<!-- plus&#45;&gt;mstar1 -->
<!-- 1 -->
<g id="node8" class="node"><title>1</title>
<ellipse fill="none" stroke="black" cx="27" cy="-18" rx="27" ry="18"/>
<text text-anchor="middle" x="27" y="-14.3" font-family="Helvetica,sans-Serif" font-size="14.00">1</text>
</g>
<!-- plus&#45;&gt;1 -->
<g id="edge11" class="edge"><title>plus&#45;&gt;1</title>
<path fill="none" stroke="black" d="M84.4297,-74.8345C74.2501,-64.9376 60.4761,-51.5462 48.9694,-40.3591"/>
<polygon fill="black" stroke="black" points="51.4055,-37.8461 41.7957,-33.3847 46.5259,-42.865 51.4055,-37.8461"/>
</g>
<!-- mplus -->
<!-- plus&#45;&gt;mplus -->
<!-- 2 -->
<g id="node10" class="node"><title>2</title>
<ellipse fill="none" stroke="black" cx="125" cy="-18" rx="27" ry="18"/>
<text text-anchor="middle" x="125" y="-14.3" font-family="Helvetica,sans-Serif" font-size="14.00">2</text>
</g>
<!-- plus&#45;&gt;2 -->
<g id="edge13" class="edge"><title>plus&#45;&gt;2</title>
<path fill="none" stroke="black" d="M105.162,-72.411C108.161,-64.3352 111.84,-54.4312 115.211,-45.3547"/>
<polygon fill="black" stroke="black" points="118.501,-46.5491 118.702,-35.9562 111.939,-44.1118 118.501,-46.5491"/>
</g>
<!-- mstar1&#45;&gt;minus -->
<!-- 3 -->
<g id="node11" class="node"><title>3</title>
<ellipse fill="none" stroke="black" cx="197" cy="-18" rx="27" ry="18"/>
<text text-anchor="middle" x="197" y="-14.3" font-family="Helvetica,sans-Serif" font-size="14.00">3</text>
</g>
<!-- minus&#45;&gt;3 -->
<g id="edge16" class="edge"><title>minus&#45;&gt;3</title>
<path fill="none" stroke="black" d="M215.19,-72.055C212.449,-64.0586 209.113,-54.3308 206.051,-45.3995"/>
<polygon fill="black" stroke="black" points="209.31,-44.1133 202.756,-35.789 202.689,-46.3836 209.31,-44.1133"/>
</g>
<!-- mminus -->
<!-- minus&#45;&gt;mminus -->
<!-- 4 -->
<g id="node13" class="node"><title>4</title>
<ellipse fill="none" stroke="black" cx="295" cy="-18" rx="27" ry="18"/>
<text text-anchor="middle" x="295" y="-14.3" font-family="Helvetica,sans-Serif" font-size="14.00">4</text>
</g>
<!-- minus&#45;&gt;4 -->
<g id="edge18" class="edge"><title>minus&#45;&gt;4</title>
<path fill="none" stroke="black" d="M235.975,-74.8345C246.507,-64.872 260.782,-51.3687 272.655,-40.1371"/>
<polygon fill="black" stroke="black" points="275.188,-42.5592 280.047,-33.1445 270.377,-37.4739 275.188,-42.5592"/>
</g>
<!-- 1&#45;&gt;mplus -->
<!-- mplus&#45;&gt;2 -->
<!-- 3&#45;&gt;mminus -->
<!-- mminus&#45;&gt;4 -->
<!-- 5&#45;&gt;mstar2 -->
<!-- mstar2&#45;&gt;6 -->
</g>
</svg>
