<?xml version="1.0" encoding="UTF-8" standalone="no"?>
<!DOCTYPE svg PUBLIC "-//W3C//DTD SVG 1.1//EN"
 "http://www.w3.org/Graphics/SVG/1.1/DTD/svg11.dtd">
<!-- Generated by graphviz version 2.26.3 (20100126.1600)
 -->
<!-- Title: G Pages: 1 -->
<svg width="372pt" height="342pt"
 viewBox="0.00 0.00 372.00 342.00" xmlns="http://www.w3.org/2000/svg" xmlns:xlink="http://www.w3.org/1999/xlink">
<g id="graph1" class="graph" transform="scale(1 1) rotate(0) translate(4 338)">
<title>G</title>
<polygon fill="white" stroke="white" points="-4,5 -4,-338 369,-338 369,5 -4,5"/>
<!-- home -->
<g id="node1" class="node"><title>home</title>
<ellipse fill="none" stroke="black" cx="42" cy="-315" rx="36.0624" ry="19.0919"/>
<text text-anchor="middle" x="42" y="-311.9" font-family="Helvetica,sans-Serif" font-size="14.00">home</text>
</g>
<!-- aaron -->
<g id="node3" class="node"><title>aaron</title>
<ellipse fill="none" stroke="black" cx="42" cy="-241" rx="36.0624" ry="19.0919"/>
<text text-anchor="middle" x="42" y="-237.9" font-family="Helvetica,sans-Serif" font-size="14.00">aaron</text>
</g>
<!-- home&#45;&gt;aaron -->
<g id="edge2" class="edge"><title>home&#45;&gt;aaron</title>
<path fill="none" stroke="black" d="M42,-295.943C42,-288.149 42,-278.954 42,-270.338"/>
<polygon fill="black" stroke="black" points="45.5001,-270.249 42,-260.249 38.5001,-270.249 45.5001,-270.249"/>
</g>
<!-- cs2150 -->
<g id="node5" class="node"><title>cs2150</title>
<ellipse fill="none" stroke="black" cx="42" cy="-167" rx="41.9273" ry="19.0919"/>
<text text-anchor="middle" x="42" y="-163.9" font-family="Helvetica,sans-Serif" font-size="14.00">cs2150</text>
</g>
<!-- aaron&#45;&gt;cs2150 -->
<g id="edge4" class="edge"><title>aaron&#45;&gt;cs2150</title>
<path fill="none" stroke="black" d="M42,-221.943C42,-214.149 42,-204.954 42,-196.338"/>
<polygon fill="black" stroke="black" points="45.5001,-196.249 42,-186.249 38.5001,-196.249 45.5001,-196.249"/>
</g>
<!-- cs4970 -->
<g id="node7" class="node"><title>cs4970</title>
<ellipse fill="none" stroke="black" cx="190" cy="-167" rx="41.9273" ry="19.0919"/>
<text text-anchor="middle" x="190" y="-163.9" font-family="Helvetica,sans-Serif" font-size="14.00">cs4970</text>
</g>
<!-- cs2150&#45;&gt;cs4970 -->
<g id="edge6" class="edge"><title>cs2150&#45;&gt;cs4970</title>
<path fill="none" stroke="black" d="M84.2031,-167C101.937,-167 119.671,-167 137.405,-167"/>
<polygon fill="black" stroke="black" points="137.847,-170.5 147.847,-167 137.847,-163.5 137.847,-170.5"/>
</g>
<!-- lab1 -->
<g id="node13" class="node"><title>lab1</title>
<ellipse fill="none" stroke="black" cx="42" cy="-93" rx="29.1951" ry="19.0919"/>
<text text-anchor="middle" x="42" y="-89.9" font-family="Helvetica,sans-Serif" font-size="14.00">lab1</text>
</g>
<!-- cs2150&#45;&gt;lab1 -->
<g id="edge12" class="edge"><title>cs2150&#45;&gt;lab1</title>
<path fill="none" stroke="black" d="M42,-147.943C42,-140.149 42,-130.954 42,-122.338"/>
<polygon fill="black" stroke="black" points="45.5001,-122.249 42,-112.249 38.5001,-122.249 45.5001,-122.249"/>
</g>
<!-- mail -->
<g id="node9" class="node"><title>mail</title>
<ellipse fill="none" stroke="black" cx="325" cy="-167" rx="29.1951" ry="19.0919"/>
<text text-anchor="middle" x="325" y="-163.9" font-family="Helvetica,sans-Serif" font-size="14.00">mail</text>
</g>
<!-- cs4970&#45;&gt;mail -->
<g id="edge8" class="edge"><title>cs4970&#45;&gt;mail</title>
<path fill="none" stroke="black" d="M232.188,-167C249.967,-167 267.747,-167 285.527,-167"/>
<polygon fill="black" stroke="black" points="285.996,-170.5 295.996,-167 285.996,-163.5 285.996,-170.5"/>
</g>
<!-- school -->
<g id="node11" class="node"><title>school</title>
<ellipse fill="none" stroke="black" cx="325" cy="-93" rx="39.0967" ry="19.0919"/>
<text text-anchor="middle" x="325" y="-89.9" font-family="Helvetica,sans-Serif" font-size="14.00">school</text>
</g>
<!-- mail&#45;&gt;school -->
<g id="edge10" class="edge"><title>mail&#45;&gt;school</title>
<path fill="none" stroke="black" d="M325,-147.943C325,-140.149 325,-130.954 325,-122.338"/>
<polygon fill="black" stroke="black" points="328.5,-122.249 325,-112.249 321.5,-122.249 328.5,-122.249"/>
</g>
<!-- lab2 -->
<g id="node15" class="node"><title>lab2</title>
<ellipse fill="none" stroke="black" cx="137" cy="-93" rx="29.1951" ry="19.0919"/>
<text text-anchor="middle" x="137" y="-89.9" font-family="Helvetica,sans-Serif" font-size="14.00">lab2</text>
</g>
<!-- lab1&#45;&gt;lab2 -->
<g id="edge14" class="edge"><title>lab1&#45;&gt;lab2</title>
<path fill="none" stroke="black" d="M71.3164,-93C80.0454,-93 88.7743,-93 97.5032,-93"/>
<polygon fill="black" stroke="black" points="97.7503,-96.5001 107.75,-93 97.7502,-89.5001 97.7503,-96.5001"/>
</g>
<!-- collh -->
<g id="node20" class="node"><title>collh</title>
<ellipse fill="none" stroke="black" cx="42" cy="-19" rx="33.9411" ry="19.0919"/>
<text text-anchor="middle" x="42" y="-15.9" font-family="Helvetica,sans-Serif" font-size="14.00">coll.h</text>
</g>
<!-- lab1&#45;&gt;collh -->
<g id="edge20" class="edge"><title>lab1&#45;&gt;collh</title>
<path fill="none" stroke="black" d="M42,-73.9432C42,-66.1493 42,-56.9538 42,-48.3381"/>
<polygon fill="black" stroke="black" points="45.5001,-48.2494 42,-38.2495 38.5001,-48.2495 45.5001,-48.2494"/>
</g>
<!-- proj1 -->
<g id="node17" class="node"><title>proj1</title>
<ellipse fill="none" stroke="black" cx="235" cy="-93" rx="33.234" ry="19.0919"/>
<text text-anchor="middle" x="235" y="-89.9" font-family="Helvetica,sans-Serif" font-size="14.00">proj1</text>
</g>
<!-- lab2&#45;&gt;proj1 -->
<g id="edge16" class="edge"><title>lab2&#45;&gt;proj1</title>
<path fill="none" stroke="black" d="M166.094,-93C174.671,-93 183.247,-93 191.824,-93"/>
<polygon fill="black" stroke="black" points="191.893,-96.5001 201.893,-93 191.893,-89.5001 191.893,-96.5001"/>
</g>
<!-- projh -->
<g id="node18" class="node"><title>projh</title>
<ellipse fill="none" stroke="black" cx="235" cy="-19" rx="34.8574" ry="19.0919"/>
<text text-anchor="middle" x="235" y="-15.9" font-family="Helvetica,sans-Serif" font-size="14.00">proj.h</text>
</g>
<!-- proj1&#45;&gt;projh -->
<g id="edge18" class="edge"><title>proj1&#45;&gt;projh</title>
<path fill="none" stroke="black" d="M235,-73.9432C235,-66.1493 235,-56.9538 235,-48.3381"/>
<polygon fill="black" stroke="black" points="238.5,-48.2494 235,-38.2495 231.5,-48.2495 238.5,-48.2494"/>
</g>
<!-- collcpp -->
<g id="node22" class="node"><title>collcpp</title>
<ellipse fill="none" stroke="black" cx="138" cy="-19" rx="43.8406" ry="19.0919"/>
<text text-anchor="middle" x="138" y="-15.9" font-family="Helvetica,sans-Serif" font-size="14.00">coll.cpp</text>
</g>
<!-- collh&#45;&gt;collcpp -->
<g id="edge22" class="edge"><title>collh&#45;&gt;collcpp</title>
<path fill="none" stroke="black" d="M76.125,-19C78.5722,-19 81.0194,-19 83.4666,-19"/>
<polygon fill="black" stroke="black" points="83.5274,-22.5001 93.5273,-19 83.5273,-15.5001 83.5274,-22.5001"/>
</g>
</g>
</svg>
