<?xml version="1.0" encoding="UTF-8" standalone="no"?>
<!DOCTYPE svg PUBLIC "-//W3C//DTD SVG 1.1//EN"
 "http://www.w3.org/Graphics/SVG/1.1/DTD/svg11.dtd">
<!-- Generated by graphviz version 2.36.0 (20140111.2315)
 -->
<!-- Title: G Pages: 1 -->
<svg width="347pt" height="332pt"
 viewBox="0.00 0.00 347.00 332.00" xmlns="http://www.w3.org/2000/svg" xmlns:xlink="http://www.w3.org/1999/xlink">
<g id="graph0" class="graph" transform="scale(1 1) rotate(0) translate(4 328)">
<title>G</title>
<polygon fill="white" stroke="none" points="-4,4 -4,-328 343,-328 343,4 -4,4"/>
<!-- home -->
<g id="node1" class="node"><title>home</title>
<ellipse fill="none" stroke="black" cx="38" cy="-306" rx="33.2209" ry="18"/>
<text text-anchor="middle" x="38" y="-302.3" font-family="Helvetica,sans-Serif" font-size="14.00">home</text>
</g>
<!-- aaron -->
<g id="node2" class="node"><title>aaron</title>
<ellipse fill="none" stroke="black" cx="38" cy="-234" rx="33.2209" ry="18"/>
<text text-anchor="middle" x="38" y="-230.3" font-family="Helvetica,sans-Serif" font-size="14.00">aaron</text>
</g>
<!-- home&#45;&gt;aaron -->
<g id="edge1" class="edge"><title>home&#45;&gt;aaron</title>
<path fill="none" stroke="black" d="M38,-287.697C38,-279.983 38,-270.712 38,-262.112"/>
<polygon fill="black" stroke="black" points="41.5001,-262.104 38,-252.104 34.5001,-262.104 41.5001,-262.104"/>
</g>
<!-- cs2150 -->
<g id="node3" class="node"><title>cs2150</title>
<ellipse fill="none" stroke="black" cx="38" cy="-162" rx="38.4949" ry="18"/>
<text text-anchor="middle" x="38" y="-158.3" font-family="Helvetica,sans-Serif" font-size="14.00">cs2150</text>
</g>
<!-- aaron&#45;&gt;cs2150 -->
<g id="edge2" class="edge"><title>aaron&#45;&gt;cs2150</title>
<path fill="none" stroke="black" d="M38,-215.697C38,-207.983 38,-198.712 38,-190.112"/>
<polygon fill="black" stroke="black" points="41.5001,-190.104 38,-180.104 34.5001,-190.104 41.5001,-190.104"/>
</g>
<!-- cs4970 -->
<g id="node4" class="node"><title>cs4970</title>
<ellipse fill="none" stroke="black" cx="176" cy="-162" rx="38.4949" ry="18"/>
<text text-anchor="middle" x="176" y="-158.3" font-family="Helvetica,sans-Serif" font-size="14.00">cs4970</text>
</g>
<!-- cs2150&#45;&gt;cs4970 -->
<g id="edge3" class="edge"><title>cs2150&#45;&gt;cs4970</title>
<path fill="none" stroke="black" d="M76.543,-162C93.2729,-162 110.003,-162 126.733,-162"/>
<polygon fill="black" stroke="black" points="127.15,-165.5 137.15,-162 127.15,-158.5 127.15,-165.5"/>
</g>
<!-- lab1 -->
<g id="node7" class="node"><title>lab1</title>
<ellipse fill="none" stroke="black" cx="38" cy="-90" rx="26.949" ry="18"/>
<text text-anchor="middle" x="38" y="-86.3" font-family="Helvetica,sans-Serif" font-size="14.00">lab1</text>
</g>
<!-- cs2150&#45;&gt;lab1 -->
<g id="edge6" class="edge"><title>cs2150&#45;&gt;lab1</title>
<path fill="none" stroke="black" d="M38,-143.697C38,-135.983 38,-126.712 38,-118.112"/>
<polygon fill="black" stroke="black" points="41.5001,-118.104 38,-108.104 34.5001,-118.104 41.5001,-118.104"/>
</g>
<!-- mail -->
<g id="node5" class="node"><title>mail</title>
<ellipse fill="none" stroke="black" cx="303" cy="-162" rx="26.949" ry="18"/>
<text text-anchor="middle" x="303" y="-158.3" font-family="Helvetica,sans-Serif" font-size="14.00">mail</text>
</g>
<!-- cs4970&#45;&gt;mail -->
<g id="edge4" class="edge"><title>cs4970&#45;&gt;mail</title>
<path fill="none" stroke="black" d="M214.695,-162C231.708,-162 248.72,-162 265.733,-162"/>
<polygon fill="black" stroke="black" points="265.75,-165.5 275.75,-162 265.75,-158.5 265.75,-165.5"/>
</g>
<!-- school -->
<g id="node6" class="node"><title>school</title>
<ellipse fill="none" stroke="black" cx="303" cy="-90" rx="36.096" ry="18"/>
<text text-anchor="middle" x="303" y="-86.3" font-family="Helvetica,sans-Serif" font-size="14.00">school</text>
</g>
<!-- mail&#45;&gt;school -->
<g id="edge5" class="edge"><title>mail&#45;&gt;school</title>
<path fill="none" stroke="black" d="M303,-143.697C303,-135.983 303,-126.712 303,-118.112"/>
<polygon fill="black" stroke="black" points="306.5,-118.104 303,-108.104 299.5,-118.104 306.5,-118.104"/>
</g>
<!-- lab2 -->
<g id="node8" class="node"><title>lab2</title>
<ellipse fill="none" stroke="black" cx="127" cy="-90" rx="26.949" ry="18"/>
<text text-anchor="middle" x="127" y="-86.3" font-family="Helvetica,sans-Serif" font-size="14.00">lab2</text>
</g>
<!-- lab1&#45;&gt;lab2 -->
<g id="edge7" class="edge"><title>lab1&#45;&gt;lab2</title>
<path fill="none" stroke="black" d="M65.4648,-90C73.4647,-90 81.4646,-90 89.4645,-90"/>
<polygon fill="black" stroke="black" points="89.5977,-93.5001 99.5976,-90 89.5976,-86.5001 89.5977,-93.5001"/>
</g>
<!-- collh -->
<g id="node11" class="node"><title>collh</title>
<ellipse fill="none" stroke="black" cx="38" cy="-18" rx="31.2965" ry="18"/>
<text text-anchor="middle" x="38" y="-14.3" font-family="Helvetica,sans-Serif" font-size="14.00">coll.h</text>
</g>
<!-- lab1&#45;&gt;collh -->
<g id="edge10" class="edge"><title>lab1&#45;&gt;collh</title>
<path fill="none" stroke="black" d="M38,-71.6966C38,-63.9827 38,-54.7125 38,-46.1124"/>
<polygon fill="black" stroke="black" points="41.5001,-46.1043 38,-36.1043 34.5001,-46.1044 41.5001,-46.1043"/>
</g>
<!-- proj1 -->
<g id="node9" class="node"><title>proj1</title>
<ellipse fill="none" stroke="black" cx="218" cy="-90" rx="30.3206" ry="18"/>
<text text-anchor="middle" x="218" y="-86.3" font-family="Helvetica,sans-Serif" font-size="14.00">proj1</text>
</g>
<!-- lab2&#45;&gt;proj1 -->
<g id="edge8" class="edge"><title>lab2&#45;&gt;proj1</title>
<path fill="none" stroke="black" d="M154.371,-90C162.09,-90 169.81,-90 177.529,-90"/>
<polygon fill="black" stroke="black" points="177.677,-93.5001 187.677,-90 177.677,-86.5001 177.677,-93.5001"/>
</g>
<!-- projh -->
<g id="node10" class="node"><title>projh</title>
<ellipse fill="none" stroke="black" cx="218" cy="-18" rx="32.2457" ry="18"/>
<text text-anchor="middle" x="218" y="-14.3" font-family="Helvetica,sans-Serif" font-size="14.00">proj.h</text>
</g>
<!-- proj1&#45;&gt;projh -->
<g id="edge9" class="edge"><title>proj1&#45;&gt;projh</title>
<path fill="none" stroke="black" d="M218,-71.6966C218,-63.9827 218,-54.7125 218,-46.1124"/>
<polygon fill="black" stroke="black" points="221.5,-46.1043 218,-36.1043 214.5,-46.1044 221.5,-46.1043"/>
</g>
<!-- collcpp -->
<g id="node12" class="node"><title>collcpp</title>
<ellipse fill="none" stroke="black" cx="127" cy="-18" rx="39.9464" ry="18"/>
<text text-anchor="middle" x="127" y="-14.3" font-family="Helvetica,sans-Serif" font-size="14.00">coll.cpp</text>
</g>
<!-- collh&#45;&gt;collcpp -->
<g id="edge11" class="edge"><title>collh&#45;&gt;collcpp</title>
<path fill="none" stroke="black" d="M69.2891,-18C71.6091,-18 73.9292,-18 76.2493,-18"/>
<polygon fill="black" stroke="black" points="76.422,-21.5001 86.422,-18 76.422,-14.5001 76.422,-21.5001"/>
</g>
</g>
</svg>
