<?xml version="1.0" encoding="UTF-8" standalone="no"?>
<!DOCTYPE svg PUBLIC "-//W3C//DTD SVG 1.1//EN"
 "http://www.w3.org/Graphics/SVG/1.1/DTD/svg11.dtd">
<!-- Generated by graphviz version 2.36.0 (20140111.2315)
 -->
<!-- Title: G Pages: 1 -->
<svg width="239pt" height="244pt"
 viewBox="0.00 0.00 238.80 243.52" xmlns="http://www.w3.org/2000/svg" xmlns:xlink="http://www.w3.org/1999/xlink">
<g id="graph0" class="graph" transform="scale(1 1) rotate(0) translate(4 239.517)">
<title>G</title>
<polygon fill="white" stroke="none" points="-4,4 -4,-239.517 234.803,-239.517 234.803,4 -4,4"/>
<!-- v4 -->
<g id="node1" class="node"><title>v4</title>
<ellipse fill="none" stroke="black" cx="21.5" cy="-165.004" rx="21.5" ry="21.5"/>
<text text-anchor="middle" x="21.5" y="-161.304" font-family="Helvetica,sans-Serif" font-size="14.00">v4</text>
</g>
<!-- v5 -->
<g id="node2" class="node"><title>v5</title>
<ellipse fill="none" stroke="black" cx="79.2086" cy="-214.017" rx="21.5" ry="21.5"/>
<text text-anchor="middle" x="79.2086" y="-210.317" font-family="Helvetica,sans-Serif" font-size="14.00">v5</text>
</g>
<!-- v4&#45;&gt;v5 -->
<g id="edge1" class="edge"><title>v4&#45;&gt;v5</title>
<path fill="none" stroke="black" d="M38.1917,-179.18C43.3805,-183.587 49.2116,-188.54 54.813,-193.297"/>
<polygon fill="black" stroke="black" points="52.866,-196.235 62.7537,-200.041 57.3975,-190.9 52.866,-196.235"/>
</g>
<!-- v8 -->
<g id="node3" class="node"><title>v8</title>
<ellipse fill="none" stroke="black" cx="82.101" cy="-112.059" rx="21.5" ry="21.5"/>
<text text-anchor="middle" x="82.101" y="-108.359" font-family="Helvetica,sans-Serif" font-size="14.00">v8</text>
</g>
<!-- v4&#45;&gt;v8 -->
<g id="edge2" class="edge"><title>v4&#45;&gt;v8</title>
<path fill="none" stroke="black" d="M37.74,-150.815C43.9894,-145.355 51.2642,-139 58.0929,-133.034"/>
<polygon fill="black" stroke="black" points="60.5882,-135.501 65.8162,-126.286 55.9827,-130.23 60.5882,-135.501"/>
</g>
<!-- v2 -->
<g id="node4" class="node"><title>v2</title>
<ellipse fill="none" stroke="black" cx="132.156" cy="-151.375" rx="21.5" ry="21.5"/>
<text text-anchor="middle" x="132.156" y="-147.675" font-family="Helvetica,sans-Serif" font-size="14.00">v2</text>
</g>
<!-- v5&#45;&gt;v2 -->
<g id="edge3" class="edge"><title>v5&#45;&gt;v2</title>
<path fill="none" stroke="black" d="M93.12,-197.558C98.7902,-190.85 105.461,-182.958 111.669,-175.613"/>
<polygon fill="black" stroke="black" points="114.372,-177.838 118.154,-167.941 109.025,-173.319 114.372,-177.838"/>
</g>
<!-- v8&#45;&gt;v2 -->
<g id="edge4" class="edge"><title>v8&#45;&gt;v2</title>
<path fill="none" stroke="black" d="M99.0474,-125.37C101.657,-127.419 104.397,-129.572 107.138,-131.724"/>
<polygon fill="black" stroke="black" points="105.201,-134.654 115.227,-138.078 109.525,-129.149 105.201,-134.654"/>
</g>
<!-- v1 -->
<g id="node5" class="node"><title>v1</title>
<ellipse fill="none" stroke="black" cx="178.408" cy="-94.361" rx="21.5" ry="21.5"/>
<text text-anchor="middle" x="178.408" y="-90.661" font-family="Helvetica,sans-Serif" font-size="14.00">v1</text>
</g>
<!-- v8&#45;&gt;v1 -->
<g id="edge5" class="edge"><title>v8&#45;&gt;v1</title>
<path fill="none" stroke="black" d="M103.475,-108.131C116.317,-105.771 132.886,-102.726 147.177,-100.1"/>
<polygon fill="black" stroke="black" points="147.892,-103.528 157.094,-98.2777 146.626,-96.6428 147.892,-103.528"/>
</g>
<!-- v7 -->
<g id="node6" class="node"><title>v7</title>
<ellipse fill="none" stroke="black" cx="209.303" cy="-161.289" rx="21.5" ry="21.5"/>
<text text-anchor="middle" x="209.303" y="-157.589" font-family="Helvetica,sans-Serif" font-size="14.00">v7</text>
</g>
<!-- v2&#45;&gt;v7 -->
<g id="edge7" class="edge"><title>v2&#45;&gt;v7</title>
<path fill="none" stroke="black" d="M153.646,-154.137C161.17,-155.104 169.78,-156.21 177.943,-157.259"/>
<polygon fill="black" stroke="black" points="177.564,-160.739 187.929,-158.542 178.456,-153.796 177.564,-160.739"/>
</g>
<!-- v1&#45;&gt;v7 -->
<g id="edge6" class="edge"><title>v1&#45;&gt;v7</title>
<path fill="none" stroke="black" d="M187.511,-114.08C190.127,-119.748 193.038,-126.053 195.858,-132.161"/>
<polygon fill="black" stroke="black" points="192.79,-133.867 200.159,-141.48 199.146,-130.934 192.79,-133.867"/>
</g>
<!-- v6 -->
<g id="node8" class="node"><title>v6</title>
<ellipse fill="none" stroke="black" cx="187.867" cy="-21.5" rx="21.5" ry="21.5"/>
<text text-anchor="middle" x="187.867" y="-17.8" font-family="Helvetica,sans-Serif" font-size="14.00">v6</text>
</g>
<!-- v1&#45;&gt;v6 -->
<g id="edge10" class="edge"><title>v1&#45;&gt;v6</title>
<path fill="none" stroke="black" d="M181.195,-72.8944C181.996,-66.7237 182.887,-59.8599 183.751,-53.2095"/>
<polygon fill="black" stroke="black" points="187.251,-53.4324 185.068,-43.065 180.309,-52.5311 187.251,-53.4324"/>
</g>
<!-- v3 -->
<g id="node7" class="node"><title>v3</title>
<ellipse fill="none" stroke="black" cx="123.177" cy="-52.9043" rx="21.5" ry="21.5"/>
<text text-anchor="middle" x="123.177" y="-49.2043" font-family="Helvetica,sans-Serif" font-size="14.00">v3</text>
</g>
<!-- v3&#45;&gt;v2 -->
<g id="edge8" class="edge"><title>v3&#45;&gt;v2</title>
<path fill="none" stroke="black" d="M125.17,-74.7582C126.375,-87.9806 127.933,-105.066 129.272,-119.746"/>
<polygon fill="black" stroke="black" points="125.806,-120.281 130.2,-129.921 132.777,-119.645 125.806,-120.281"/>
</g>
<!-- v6&#45;&gt;v3 -->
<g id="edge9" class="edge"><title>v6&#45;&gt;v3</title>
<path fill="none" stroke="black" d="M168.458,-30.9223C163.213,-33.4686 157.424,-36.2788 151.789,-39.0145"/>
<polygon fill="black" stroke="black" points="150.04,-35.9728 142.572,-43.4886 153.097,-42.27 150.04,-35.9728"/>
</g>
</g>
</svg>
