<?xml version="1.0" encoding="UTF-8" standalone="no"?>
<!DOCTYPE svg PUBLIC "-//W3C//DTD SVG 1.1//EN"
 "http://www.w3.org/Graphics/SVG/1.1/DTD/svg11.dtd">
<!-- Generated by graphviz version 2.36.0 (20140111.2315)
 -->
<!-- Title: G Pages: 1 -->
<svg width="173pt" height="256pt"
 viewBox="0.00 0.00 173.40 255.84" xmlns="http://www.w3.org/2000/svg" xmlns:xlink="http://www.w3.org/1999/xlink">
<g id="graph0" class="graph" transform="scale(1 1) rotate(0) translate(4 251.843)">
<title>G</title>
<polygon fill="white" stroke="none" points="-4,4 -4,-251.843 169.397,-251.843 169.397,4 -4,4"/>
<!-- A -->
<g id="node1" class="node"><title>A</title>
<ellipse fill="none" stroke="black" cx="109.17" cy="-153.791" rx="21.5" ry="21.5"/>
<text text-anchor="middle" x="109.17" y="-150.091" font-family="Helvetica,sans-Serif" font-size="14.00">A</text>
</g>
<!-- B -->
<g id="node2" class="node"><title>B</title>
<ellipse fill="none" stroke="black" cx="143.897" cy="-82.6937" rx="21.5" ry="21.5"/>
<text text-anchor="middle" x="143.897" y="-78.9937" font-family="Helvetica,sans-Serif" font-size="14.00">B</text>
</g>
<!-- A&#45;&gt;B -->
<g id="edge1" class="edge"><title>A&#45;&gt;B</title>
<path fill="none" stroke="black" d="M118.659,-134.363C122.143,-127.231 126.163,-119.001 129.956,-111.235"/>
<polygon fill="black" stroke="black" points="133.175,-112.619 134.419,-102.098 126.885,-109.547 133.175,-112.619"/>
</g>
<!-- C -->
<g id="node3" class="node"><title>C</title>
<ellipse fill="none" stroke="black" cx="130.485" cy="-226.343" rx="21.5" ry="21.5"/>
<text text-anchor="middle" x="130.485" y="-222.643" font-family="Helvetica,sans-Serif" font-size="14.00">C</text>
</g>
<!-- A&#45;&gt;C -->
<g id="edge2" class="edge"><title>A&#45;&gt;C</title>
<path fill="none" stroke="black" d="M115.335,-174.776C117.251,-181.299 119.405,-188.63 121.474,-195.672"/>
<polygon fill="black" stroke="black" points="118.23,-197.047 124.407,-205.655 124.946,-195.074 118.23,-197.047"/>
</g>
<!-- D -->
<g id="node4" class="node"><title>D</title>
<ellipse fill="none" stroke="black" cx="31.1315" cy="-136.639" rx="21.5" ry="21.5"/>
<text text-anchor="middle" x="31.1315" y="-132.939" font-family="Helvetica,sans-Serif" font-size="14.00">D</text>
</g>
<!-- A&#45;&gt;D -->
<g id="edge3" class="edge"><title>A&#45;&gt;D</title>
<path fill="none" stroke="black" d="M87.8455,-149.104C79.8662,-147.35 70.6345,-145.321 61.9669,-143.416"/>
<polygon fill="black" stroke="black" points="62.6781,-139.989 52.1599,-141.261 61.1754,-146.826 62.6781,-139.989"/>
</g>
<!-- G -->
<g id="node5" class="node"><title>G</title>
<ellipse fill="none" stroke="black" cx="92.1853" cy="-21.5" rx="21.5" ry="21.5"/>
<text text-anchor="middle" x="92.1853" y="-17.8" font-family="Helvetica,sans-Serif" font-size="14.00">G</text>
</g>
<!-- B&#45;&gt;G -->
<g id="edge4" class="edge"><title>B&#45;&gt;G</title>
<path fill="none" stroke="black" d="M129.766,-65.9723C124.522,-59.7662 118.461,-52.5939 112.758,-45.8454"/>
<polygon fill="black" stroke="black" points="115.426,-43.5802 106.299,-38.2012 110.08,-48.0984 115.426,-43.5802"/>
</g>
<!-- E -->
<g id="node6" class="node"><title>E</title>
<ellipse fill="none" stroke="black" cx="59.7415" cy="-204.828" rx="21.5" ry="21.5"/>
<text text-anchor="middle" x="59.7415" y="-201.128" font-family="Helvetica,sans-Serif" font-size="14.00">E</text>
</g>
<!-- C&#45;&gt;E -->
<g id="edge5" class="edge"><title>C&#45;&gt;E</title>
<path fill="none" stroke="black" d="M109.642,-220.004C103.651,-218.182 96.9864,-216.155 90.5293,-214.191"/>
<polygon fill="black" stroke="black" points="91.2654,-210.757 80.6797,-211.195 89.2286,-217.454 91.2654,-210.757"/>
</g>
<!-- D&#45;&gt;E -->
<g id="edge6" class="edge"><title>D&#45;&gt;E</title>
<path fill="none" stroke="black" d="M39.5607,-156.729C41.9837,-162.504 44.6789,-168.928 47.2903,-175.152"/>
<polygon fill="black" stroke="black" points="44.1772,-176.778 51.2737,-184.646 50.6321,-174.07 44.1772,-176.778"/>
</g>
<!-- F -->
<g id="node7" class="node"><title>F</title>
<ellipse fill="none" stroke="black" cx="21.5" cy="-58.3533" rx="21.5" ry="21.5"/>
<text text-anchor="middle" x="21.5" y="-54.6533" font-family="Helvetica,sans-Serif" font-size="14.00">F</text>
</g>
<!-- D&#45;&gt;F -->
<g id="edge7" class="edge"><title>D&#45;&gt;F</title>
<path fill="none" stroke="black" d="M28.4997,-115.247C27.5335,-107.394 26.4185,-98.3313 25.3665,-89.7803"/>
<polygon fill="black" stroke="black" points="28.8237,-89.2171 24.1287,-79.7193 21.8761,-90.0719 28.8237,-89.2171"/>
</g>
<!-- E&#45;&gt;A -->
<g id="edge8" class="edge"><title>E&#45;&gt;A</title>
<path fill="none" stroke="black" d="M74.8402,-189.238C78.6729,-185.28 82.8712,-180.945 86.9757,-176.707"/>
<polygon fill="black" stroke="black" points="89.7207,-178.904 94.1636,-169.285 84.6924,-174.034 89.7207,-178.904"/>
</g>
<!-- F&#45;&gt;G -->
<g id="edge9" class="edge"><title>F&#45;&gt;G</title>
<path fill="none" stroke="black" d="M40.8151,-48.2829C47.9058,-44.586 56.0885,-40.3198 63.8094,-36.2944"/>
<polygon fill="black" stroke="black" points="65.6445,-39.2848 72.8936,-31.5581 62.4083,-33.0778 65.6445,-39.2848"/>
</g>
</g>
</svg>
