<?xml version="1.0" encoding="UTF-8" standalone="no"?>
<!DOCTYPE svg PUBLIC "-//W3C//DTD SVG 1.1//EN"
 "http://www.w3.org/Graphics/SVG/1.1/DTD/svg11.dtd">
<!-- Generated by graphviz version 2.36.0 (20140111.2315)
 -->
<!-- Title: G Pages: 1 -->
<svg width="201pt" height="195pt"
 viewBox="0.00 0.00 201.00 195.00" xmlns="http://www.w3.org/2000/svg" xmlns:xlink="http://www.w3.org/1999/xlink">
<g id="graph0" class="graph" transform="scale(1 1) rotate(0) translate(4 191)">
<title>G</title>
<polygon fill="white" stroke="none" points="-4,4 -4,-191 197,-191 197,4 -4,4"/>
<!-- v2 -->
<g id="node1" class="node"><title>v2</title>
<ellipse fill="none" stroke="black" cx="114.067" cy="-84.1744" rx="21.5" ry="21.5"/>
<text text-anchor="middle" x="114.067" y="-80.4744" font-family="Helvetica,sans-Serif" font-size="14.00">v2</text>
</g>
<!-- v1 -->
<g id="node2" class="node"><title>v1</title>
<ellipse fill="none" stroke="black" cx="171.022" cy="-84.5185" rx="21.5" ry="21.5"/>
<text text-anchor="middle" x="171.022" y="-80.8185" font-family="Helvetica,sans-Serif" font-size="14.00">v1</text>
</g>
<!-- v2&#45;&gt;v1 -->
<g id="edge1" class="edge"><title>v2&#45;&gt;v1</title>
<path fill="none" stroke="black" d="M135.599,-84.3045C136.733,-84.3114 137.883,-84.3183 139.04,-84.3253"/>
<polygon fill="black" stroke="black" points="139.438,-87.8277 149.459,-84.3883 139.481,-80.8278 139.438,-87.8277"/>
</g>
<!-- v3 -->
<g id="node3" class="node"><title>v3</title>
<ellipse fill="none" stroke="black" cx="86.0906" cy="-30.7493" rx="21.5" ry="21.5"/>
<text text-anchor="middle" x="86.0906" y="-27.0493" font-family="Helvetica,sans-Serif" font-size="14.00">v3</text>
</g>
<!-- v2&#45;&gt;v3 -->
<g id="edge4" class="edge"><title>v2&#45;&gt;v3</title>
<path fill="none" stroke="black" d="M103.967,-64.8867C102.924,-62.8954 101.85,-60.8443 100.77,-58.7826"/>
<polygon fill="black" stroke="black" points="103.822,-57.0648 96.082,-49.8296 97.6205,-60.3121 103.822,-57.0648"/>
</g>
<!-- v5 -->
<g id="node5" class="node"><title>v5</title>
<ellipse fill="none" stroke="black" cx="142.188" cy="-165.115" rx="21.5" ry="21.5"/>
<text text-anchor="middle" x="142.188" y="-161.415" font-family="Helvetica,sans-Serif" font-size="14.00">v5</text>
</g>
<!-- v2&#45;&gt;v5 -->
<g id="edge5" class="edge"><title>v2&#45;&gt;v5</title>
<path fill="none" stroke="black" d="M121.163,-104.599C124.36,-113.802 128.2,-124.854 131.719,-134.981"/>
<polygon fill="black" stroke="black" points="128.506,-136.399 135.094,-144.697 135.118,-134.102 128.506,-136.399"/>
</g>
<!-- v1&#45;&gt;v3 -->
<g id="edge2" class="edge"><title>v1&#45;&gt;v3</title>
<path fill="none" stroke="black" d="M152.593,-72.8514C141.018,-65.5235 125.891,-55.9467 112.989,-47.7785"/>
<polygon fill="black" stroke="black" points="114.805,-44.7855 104.483,-42.3936 111.06,-50.6999 114.805,-44.7855"/>
</g>
<!-- v4 -->
<g id="node4" class="node"><title>v4</title>
<ellipse fill="none" stroke="black" cx="83.0747" cy="-143.304" rx="21.5" ry="21.5"/>
<text text-anchor="middle" x="83.0747" y="-139.604" font-family="Helvetica,sans-Serif" font-size="14.00">v4</text>
</g>
<!-- v1&#45;&gt;v4 -->
<g id="edge3" class="edge"><title>v1&#45;&gt;v4</title>
<path fill="none" stroke="black" d="M152.799,-96.6989C140.335,-105.03 123.609,-116.21 109.663,-125.532"/>
<polygon fill="black" stroke="black" points="107.342,-122.873 100.973,-131.34 111.232,-128.693 107.342,-122.873"/>
</g>
<!-- v6 -->
<g id="node6" class="node"><title>v6</title>
<ellipse fill="none" stroke="black" cx="25.7049" cy="-78.339" rx="21.5" ry="21.5"/>
<text text-anchor="middle" x="25.7049" y="-74.639" font-family="Helvetica,sans-Serif" font-size="14.00">v6</text>
</g>
<!-- v3&#45;&gt;v6 -->
<g id="edge10" class="edge"><title>v3&#45;&gt;v6</title>
<path fill="none" stroke="black" d="M68.948,-44.2593C63.2906,-48.7179 56.8762,-53.773 50.7528,-58.5988"/>
<polygon fill="black" stroke="black" points="48.3691,-56.0211 42.6814,-64.9599 52.7019,-61.519 48.3691,-56.0211"/>
</g>
<!-- v4&#45;&gt;v6 -->
<g id="edge6" class="edge"><title>v4&#45;&gt;v6</title>
<path fill="none" stroke="black" d="M68.5979,-126.911C61.957,-119.391 53.9569,-110.331 46.6737,-102.084"/>
<polygon fill="black" stroke="black" points="49.2212,-99.681 39.9784,-94.5021 43.9742,-104.315 49.2212,-99.681"/>
</g>
<!-- v7 -->
<g id="node7" class="node"><title>v7</title>
<ellipse fill="none" stroke="black" cx="21.8034" cy="-143.397" rx="21.5" ry="21.5"/>
<text text-anchor="middle" x="21.8034" y="-139.697" font-family="Helvetica,sans-Serif" font-size="14.00">v7</text>
</g>
<!-- v4&#45;&gt;v7 -->
<g id="edge7" class="edge"><title>v4&#45;&gt;v7</title>
<path fill="none" stroke="black" d="M61.3002,-143.337C58.772,-143.341 56.1558,-143.345 53.5288,-143.349"/>
<polygon fill="black" stroke="black" points="53.5024,-139.849 43.5078,-143.364 53.5131,-146.849 53.5024,-139.849"/>
</g>
<!-- v5&#45;&gt;v4 -->
<g id="edge11" class="edge"><title>v5&#45;&gt;v4</title>
<path fill="none" stroke="black" d="M121.845,-157.609C118.933,-156.534 115.889,-155.411 112.841,-154.287"/>
<polygon fill="black" stroke="black" points="113.849,-150.928 103.255,-150.75 111.426,-157.495 113.849,-150.928"/>
</g>
<!-- v6&#45;&gt;v7 -->
<g id="edge12" class="edge"><title>v6&#45;&gt;v7</title>
<path fill="none" stroke="black" d="M24.4058,-100.002C24.1844,-103.694 23.9504,-107.597 23.717,-111.488"/>
<polygon fill="black" stroke="black" points="20.2152,-111.415 23.1102,-121.606 27.2026,-111.834 20.2152,-111.415"/>
</g>
<!-- v0 -->
<g id="node8" class="node"><title>v0</title>
<ellipse fill="none" stroke="black" cx="160.393" cy="-21.4333" rx="21.5" ry="21.5"/>
<text text-anchor="middle" x="160.393" y="-17.7333" font-family="Helvetica,sans-Serif" font-size="14.00">v0</text>
</g>
<!-- v0&#45;&gt;v2 -->
<g id="edge9" class="edge"><title>v0&#45;&gt;v2</title>
<path fill="none" stroke="black" d="M147.489,-38.9102C142.971,-45.0289 137.8,-52.0313 132.898,-58.6702"/>
<polygon fill="black" stroke="black" points="130.026,-56.6676 126.902,-66.7913 135.658,-60.8256 130.026,-56.6676"/>
</g>
<!-- v0&#45;&gt;v1 -->
<g id="edge8" class="edge"><title>v0&#45;&gt;v1</title>
<path fill="none" stroke="black" d="M163.992,-42.7911C164.563,-46.1824 165.164,-49.7497 165.764,-53.3112"/>
<polygon fill="black" stroke="black" points="162.314,-53.9032 167.427,-63.1827 169.217,-52.7402 162.314,-53.9032"/>
</g>
</g>
</svg>
