<?xml version="1.0" encoding="UTF-8" standalone="no"?>
<!DOCTYPE svg PUBLIC "-//W3C//DTD SVG 1.1//EN"
 "http://www.w3.org/Graphics/SVG/1.1/DTD/svg11.dtd">
<!-- Generated by graphviz version 2.36.0 (20140111.2315)
 -->
<!-- Title: G Pages: 1 -->
<svg width="288pt" height="290pt"
 viewBox="0.00 0.00 287.84 290.35" xmlns="http://www.w3.org/2000/svg" xmlns:xlink="http://www.w3.org/1999/xlink">
<g id="graph0" class="graph" transform="scale(1 1) rotate(0) translate(4 286.346)">
<title>G</title>
<polygon fill="white" stroke="none" points="-4,4 -4,-286.346 283.838,-286.346 283.838,4 -4,4"/>
<!-- v1 -->
<g id="node1" class="node"><title>v1</title>
<ellipse fill="none" stroke="black" cx="40.1076" cy="-76.7937" rx="21.5" ry="21.5"/>
<text text-anchor="middle" x="40.1076" y="-73.0937" font-family="Helvetica,sans-Serif" font-size="14.00">v1</text>
</g>
<!-- v3 -->
<g id="node2" class="node"><title>v3</title>
<ellipse fill="none" stroke="black" cx="99.1857" cy="-128.148" rx="21.5" ry="21.5"/>
<text text-anchor="middle" x="99.1857" y="-124.448" font-family="Helvetica,sans-Serif" font-size="14.00">v3</text>
</g>
<!-- v1&#45;&gt;v3 -->
<g id="edge1" class="edge"><title>v1&#45;&gt;v3</title>
<path fill="none" stroke="black" d="M56.5641,-91.0988C64.7582,-98.2217 74.6354,-106.808 82.8174,-113.92"/>
</g>
<!-- v10 -->
<g id="node3" class="node"><title>v10</title>
<ellipse fill="none" stroke="black" cx="100.852" cy="-48.1263" rx="22.4744" ry="22.4744"/>
<text text-anchor="middle" x="100.852" y="-44.4263" font-family="Helvetica,sans-Serif" font-size="14.00">v10</text>
</g>
<!-- v1&#45;&gt;v10 -->
<g id="edge2" class="edge"><title>v1&#45;&gt;v10</title>
<path fill="none" stroke="black" d="M59.662,-67.5654C66.3211,-64.4227 73.7783,-60.9034 80.4986,-57.7319"/>
</g>
<!-- v3&#45;&gt;v10 -->
<g id="edge6" class="edge"><title>v3&#45;&gt;v10</title>
<path fill="none" stroke="black" d="M99.6411,-106.282C99.8705,-95.2683 100.148,-81.9277 100.38,-70.8032"/>
</g>
<!-- v4 -->
<g id="node5" class="node"><title>v4</title>
<ellipse fill="none" stroke="black" cx="76.7279" cy="-207.037" rx="21.5" ry="21.5"/>
<text text-anchor="middle" x="76.7279" y="-203.337" font-family="Helvetica,sans-Serif" font-size="14.00">v4</text>
</g>
<!-- v3&#45;&gt;v4 -->
<g id="edge4" class="edge"><title>v3&#45;&gt;v4</title>
<path fill="none" stroke="black" d="M93.2852,-148.875C90.0102,-160.379 85.9481,-174.648 82.667,-186.174"/>
</g>
<!-- v6 -->
<g id="node6" class="node"><title>v6</title>
<ellipse fill="none" stroke="black" cx="181.603" cy="-148.852" rx="21.5" ry="21.5"/>
<text text-anchor="middle" x="181.603" y="-145.152" font-family="Helvetica,sans-Serif" font-size="14.00">v6</text>
</g>
<!-- v3&#45;&gt;v6 -->
<g id="edge5" class="edge"><title>v3&#45;&gt;v6</title>
<path fill="none" stroke="black" d="M120.41,-133.48C132.811,-136.595 148.397,-140.51 160.736,-143.61"/>
</g>
<!-- v2 -->
<g id="node4" class="node"><title>v2</title>
<ellipse fill="none" stroke="black" cx="21.5" cy="-260.846" rx="21.5" ry="21.5"/>
<text text-anchor="middle" x="21.5" y="-257.146" font-family="Helvetica,sans-Serif" font-size="14.00">v2</text>
</g>
<!-- v2&#45;&gt;v4 -->
<g id="edge3" class="edge"><title>v2&#45;&gt;v4</title>
<path fill="none" stroke="black" d="M37.1784,-245.57C44.7045,-238.237 53.6953,-229.478 61.2015,-222.164"/>
</g>
<!-- v5 -->
<g id="node7" class="node"><title>v5</title>
<ellipse fill="none" stroke="black" cx="156.481" cy="-226.272" rx="21.5" ry="21.5"/>
<text text-anchor="middle" x="156.481" y="-222.572" font-family="Helvetica,sans-Serif" font-size="14.00">v5</text>
</g>
<!-- v4&#45;&gt;v5 -->
<g id="edge7" class="edge"><title>v4&#45;&gt;v5</title>
<path fill="none" stroke="black" d="M97.6822,-212.091C109.312,-214.896 123.738,-218.375 135.39,-221.185"/>
</g>
<!-- v7 -->
<g id="node8" class="node"><title>v7</title>
<ellipse fill="none" stroke="black" cx="258.338" cy="-143.159" rx="21.5" ry="21.5"/>
<text text-anchor="middle" x="258.338" y="-139.459" font-family="Helvetica,sans-Serif" font-size="14.00">v7</text>
</g>
<!-- v6&#45;&gt;v7 -->
<g id="edge9" class="edge"><title>v6&#45;&gt;v7</title>
<path fill="none" stroke="black" d="M203.387,-147.236C213.844,-146.46 226.336,-145.533 236.765,-144.76"/>
</g>
<!-- v8 -->
<g id="node9" class="node"><title>v8</title>
<ellipse fill="none" stroke="black" cx="225.65" cy="-82.3881" rx="21.5" ry="21.5"/>
<text text-anchor="middle" x="225.65" y="-78.6881" font-family="Helvetica,sans-Serif" font-size="14.00">v8</text>
</g>
<!-- v6&#45;&gt;v8 -->
<g id="edge10" class="edge"><title>v6&#45;&gt;v8</title>
<path fill="none" stroke="black" d="M193.639,-130.69C199.854,-121.312 207.416,-109.903 213.629,-100.528"/>
</g>
<!-- v5&#45;&gt;v6 -->
<g id="edge8" class="edge"><title>v5&#45;&gt;v6</title>
<path fill="none" stroke="black" d="M163.214,-205.525C166.847,-194.327 171.317,-180.553 174.939,-169.388"/>
</g>
<!-- v7&#45;&gt;v8 -->
<g id="edge11" class="edge"><title>v7&#45;&gt;v8</title>
<path fill="none" stroke="black" d="M247.995,-123.931C244.179,-116.837 239.857,-108.801 236.038,-101.7"/>
</g>
<!-- v9 -->
<g id="node10" class="node"><title>v9</title>
<ellipse fill="none" stroke="black" cx="175.336" cy="-21.5" rx="21.5" ry="21.5"/>
<text text-anchor="middle" x="175.336" y="-17.8" font-family="Helvetica,sans-Serif" font-size="14.00">v9</text>
</g>
<!-- v8&#45;&gt;v9 -->
<g id="edge12" class="edge"><title>v8&#45;&gt;v9</title>
<path fill="none" stroke="black" d="M211.902,-65.7502C204.802,-57.1588 196.165,-46.7063 189.068,-38.1178"/>
</g>
<!-- v9&#45;&gt;v10 -->
<g id="edge13" class="edge"><title>v9&#45;&gt;v10</title>
<path fill="none" stroke="black" d="M154.983,-28.7757C144.818,-32.4096 132.523,-36.8047 122.221,-40.4873"/>
</g>
</g>
</svg>
