<?xml version="1.0" encoding="UTF-8" standalone="no"?>
<!DOCTYPE svg PUBLIC "-//W3C//DTD SVG 1.1//EN"
 "http://www.w3.org/Graphics/SVG/1.1/DTD/svg11.dtd">
<!-- Generated by graphviz version 2.36.0 (20140111.2315)
 -->
<!-- Title: G Pages: 1 -->
<svg width="171pt" height="191pt"
 viewBox="0.00 0.00 171.17 191.05" xmlns="http://www.w3.org/2000/svg" xmlns:xlink="http://www.w3.org/1999/xlink">
<g id="graph0" class="graph" transform="scale(1 1) rotate(0) translate(4 187.054)">
<title>G</title>
<polygon fill="white" stroke="none" points="-4,4 -4,-187.054 167.172,-187.054 167.172,4 -4,4"/>
<!-- v1 -->
<g id="node1" class="node"><title>v1</title>
<ellipse fill="none" stroke="black" cx="30.4054" cy="-31.2303" rx="21.5" ry="21.5"/>
<text text-anchor="middle" x="30.4054" y="-27.5303" font-family="Helvetica,sans-Serif" font-size="14.00">v1</text>
</g>
<!-- v2 -->
<g id="node2" class="node"><title>v2</title>
<ellipse fill="none" stroke="black" cx="114.261" cy="-21.5" rx="21.5" ry="21.5"/>
<text text-anchor="middle" x="114.261" y="-17.8" font-family="Helvetica,sans-Serif" font-size="14.00">v2</text>
</g>
<!-- v1&#45;&gt;v2 -->
<g id="edge1" class="edge"><title>v1&#45;&gt;v2</title>
<path fill="none" stroke="black" d="M52.0002,-28.7245C64.5201,-27.2718 80.2316,-25.4486 92.739,-23.9973"/>
<text text-anchor="middle" x="68.3696" y="-30.1609" font-family="Helvetica,sans-Serif" font-size="14.00" fill="blue">7</text>
</g>
<!-- v3 -->
<g id="node3" class="node"><title>v3</title>
<ellipse fill="none" stroke="black" cx="77.4853" cy="-70.7696" rx="21.5" ry="21.5"/>
<text text-anchor="middle" x="77.4853" y="-67.0696" font-family="Helvetica,sans-Serif" font-size="14.00">v3</text>
</g>
<!-- v1&#45;&gt;v3 -->
<g id="edge2" class="edge"><title>v1&#45;&gt;v3</title>
<path fill="none" stroke="black" d="M46.8716,-45.0593C51.4325,-48.8896 56.3839,-53.048 60.9487,-56.8817"/>
<text text-anchor="middle" x="55.9102" y="-39.7705" font-family="Helvetica,sans-Serif" font-size="14.00" fill="blue">9</text>
</g>
<!-- v6 -->
<g id="node4" class="node"><title>v6</title>
<ellipse fill="none" stroke="black" cx="21.5" cy="-113.094" rx="21.5" ry="21.5"/>
<text text-anchor="middle" x="21.5" y="-109.394" font-family="Helvetica,sans-Serif" font-size="14.00">v6</text>
</g>
<!-- v1&#45;&gt;v6 -->
<g id="edge3" class="edge"><title>v1&#45;&gt;v6</title>
<path fill="none" stroke="black" d="M28.0656,-52.7389C26.7669,-64.6768 25.1562,-79.4841 23.8551,-91.4444"/>
<text text-anchor="middle" x="16.4603" y="-75.8916" font-family="Helvetica,sans-Serif" font-size="14.00" fill="blue">14 </text>
</g>
<!-- v2&#45;&gt;v3 -->
<g id="edge4" class="edge"><title>v2&#45;&gt;v3</title>
<path fill="none" stroke="black" d="M101.398,-38.7321C97.8358,-43.5051 93.9682,-48.6868 90.4024,-53.464"/>
<text text-anchor="middle" x="87.9004" y="-34.898" font-family="Helvetica,sans-Serif" font-size="14.00" fill="blue">10</text>
</g>
<!-- v4 -->
<g id="node5" class="node"><title>v4</title>
<ellipse fill="none" stroke="black" cx="141.672" cy="-99.1507" rx="21.5" ry="21.5"/>
<text text-anchor="middle" x="141.672" y="-95.4507" font-family="Helvetica,sans-Serif" font-size="14.00">v4</text>
</g>
<!-- v2&#45;&gt;v4 -->
<g id="edge5" class="edge"><title>v2&#45;&gt;v4</title>
<path fill="none" stroke="black" d="M121.463,-41.9018C125.46,-53.2253 130.418,-67.2707 134.423,-78.6155"/>
<text text-anchor="middle" x="119.943" y="-64.0587" font-family="Helvetica,sans-Serif" font-size="14.00" fill="blue">15</text>
</g>
<!-- v3&#45;&gt;v6 -->
<g id="edge6" class="edge"><title>v3&#45;&gt;v6</title>
<path fill="none" stroke="black" d="M60.0781,-83.9292C53.2731,-89.0736 45.4894,-94.958 38.7041,-100.087"/>
<text text-anchor="middle" x="53.3911" y="-95.8083" font-family="Helvetica,sans-Serif" font-size="14.00" fill="blue">2</text>
</g>
<!-- v3&#45;&gt;v4 -->
<g id="edge7" class="edge"><title>v3&#45;&gt;v4</title>
<path fill="none" stroke="black" d="M97.4425,-79.594C105.244,-83.0437 114.168,-86.9896 121.948,-90.4293"/>
<text text-anchor="middle" x="109.695" y="-73.8116" font-family="Helvetica,sans-Serif" font-size="14.00" fill="blue">11</text>
</g>
<!-- v5 -->
<g id="node6" class="node"><title>v5</title>
<ellipse fill="none" stroke="black" cx="88.0197" cy="-161.554" rx="21.5" ry="21.5"/>
<text text-anchor="middle" x="88.0197" y="-157.854" font-family="Helvetica,sans-Serif" font-size="14.00">v5</text>
</g>
<!-- v4&#45;&gt;v5 -->
<g id="edge8" class="edge"><title>v4&#45;&gt;v5</title>
<path fill="none" stroke="black" d="M127.576,-115.546C119.752,-124.646 110.047,-135.934 102.208,-145.051"/>
<text text-anchor="middle" x="110.892" y="-119.099" font-family="Helvetica,sans-Serif" font-size="14.00" fill="blue">6</text>
</g>
<!-- v5&#45;&gt;v6 -->
<g id="edge9" class="edge"><title>v5&#45;&gt;v6</title>
<path fill="none" stroke="black" d="M70.5424,-148.821C60.8421,-141.755 48.8101,-132.989 39.0915,-125.909"/>
<text text-anchor="middle" x="50.817" y="-141.165" font-family="Helvetica,sans-Serif" font-size="14.00" fill="blue">9</text>
</g>
</g>
</svg>
