<?xml version="1.0" encoding="UTF-8" standalone="no"?>
<!DOCTYPE svg PUBLIC "-//W3C//DTD SVG 1.1//EN"
 "http://www.w3.org/Graphics/SVG/1.1/DTD/svg11.dtd">
<!-- Generated by graphviz version 2.36.0 (20140111.2315)
 -->
<!-- Title: G Pages: 1 -->
<svg width="200pt" height="181pt"
 viewBox="0.00 0.00 200.14 180.52" xmlns="http://www.w3.org/2000/svg" xmlns:xlink="http://www.w3.org/1999/xlink">
<g id="graph0" class="graph" transform="scale(1 1) rotate(0) translate(4 176.519)">
<title>G</title>
<polygon fill="white" stroke="none" points="-4,4 -4,-176.519 196.142,-176.519 196.142,4 -4,4"/>
<!-- v0 -->
<g id="node1" class="node"><title>v0</title>
<ellipse fill="none" stroke="black" cx="133.635" cy="-150.641" rx="21.5" ry="21.5"/>
<text text-anchor="middle" x="133.635" y="-146.941" font-family="Helvetica,sans-Serif" font-size="14.00">v0</text>
</g>
<!-- v2 -->
<g id="node2" class="node"><title>v2</title>
<ellipse fill="none" stroke="black" cx="170.642" cy="-85.9346" rx="21.5" ry="21.5"/>
<text text-anchor="middle" x="170.642" y="-82.2346" font-family="Helvetica,sans-Serif" font-size="14.00">v2</text>
</g>
<!-- v0&#45;&gt;v2 -->
<g id="edge1" class="edge"><title>v0&#45;&gt;v2</title>
<path fill="none" stroke="black" d="M144.339,-131.925C147.609,-126.207 151.277,-119.794 154.812,-113.613"/>
<polygon fill="black" stroke="black" points="157.907,-115.251 159.834,-104.832 151.831,-111.775 157.907,-115.251"/>
<text text-anchor="middle" x="145.575" y="-111.569" font-family="Helvetica,sans-Serif" font-size="14.00" fill="blue">2</text>
</g>
<!-- v3 -->
<g id="node3" class="node"><title>v3</title>
<ellipse fill="none" stroke="black" cx="96.0632" cy="-86.2172" rx="21.5" ry="21.5"/>
<text text-anchor="middle" x="96.0632" y="-82.5172" font-family="Helvetica,sans-Serif" font-size="14.00">v3</text>
</g>
<!-- v0&#45;&gt;v3 -->
<g id="edge2" class="edge"><title>v0&#45;&gt;v3</title>
<path fill="none" stroke="black" d="M122.768,-132.007C119.448,-126.314 115.724,-119.929 112.135,-113.775"/>
<polygon fill="black" stroke="black" points="115.098,-111.907 107.036,-105.032 109.051,-115.434 115.098,-111.907"/>
<text text-anchor="middle" x="109.451" y="-111.691" font-family="Helvetica,sans-Serif" font-size="14.00" fill="blue">1 &#160;</text>
</g>
<!-- v2&#45;&gt;v3 -->
<g id="edge4" class="edge"><title>v2&#45;&gt;v3</title>
<path fill="none" stroke="black" d="M149.071,-86.0163C142.423,-86.0415 134.959,-86.0698 127.778,-86.097"/>
<polygon fill="black" stroke="black" points="127.573,-82.5977 117.586,-86.1356 127.599,-89.5976 127.573,-82.5977"/>
<text text-anchor="middle" x="134.424" y="-89.8567" font-family="Helvetica,sans-Serif" font-size="14.00" fill="blue">1</text>
</g>
<!-- v5 -->
<g id="node5" class="node"><title>v5</title>
<ellipse fill="none" stroke="black" cx="133.078" cy="-21.5" rx="21.5" ry="21.5"/>
<text text-anchor="middle" x="133.078" y="-17.8" font-family="Helvetica,sans-Serif" font-size="14.00">v5</text>
</g>
<!-- v2&#45;&gt;v5 -->
<g id="edge5" class="edge"><title>v2&#45;&gt;v5</title>
<path fill="none" stroke="black" d="M159.777,-67.2974C156.457,-61.6038 152.734,-55.2175 149.146,-49.0627"/>
<polygon fill="black" stroke="black" points="152.109,-47.1949 144.049,-40.3185 146.061,-50.7204 152.109,-47.1949"/>
<text text-anchor="middle" x="146.461" y="-46.9801" font-family="Helvetica,sans-Serif" font-size="14.00" fill="blue">2 &#160;</text>
</g>
<!-- v1 -->
<g id="node4" class="node"><title>v1</title>
<ellipse fill="none" stroke="black" cx="59.1169" cy="-151.019" rx="21.5" ry="21.5"/>
<text text-anchor="middle" x="59.1169" y="-147.319" font-family="Helvetica,sans-Serif" font-size="14.00">v1</text>
</g>
<!-- v3&#45;&gt;v1 -->
<g id="edge6" class="edge"><title>v3&#45;&gt;v1</title>
<path fill="none" stroke="black" d="M85.3768,-104.961C82.1121,-110.687 78.4502,-117.109 74.9211,-123.299"/>
<polygon fill="black" stroke="black" points="71.8198,-121.672 69.9073,-132.093 77.9008,-125.14 71.8198,-121.672"/>
<text text-anchor="middle" x="70.649" y="-117.93" font-family="Helvetica,sans-Serif" font-size="14.00" fill="blue">5 &#160;&#160;</text>
</g>
<!-- v3&#45;&gt;v5 -->
<g id="edge9" class="edge"><title>v3&#45;&gt;v5</title>
<path fill="none" stroke="black" d="M106.769,-67.4983C110.04,-61.7797 113.709,-55.3653 117.244,-49.1836"/>
<polygon fill="black" stroke="black" points="120.341,-50.8192 122.267,-40.401 114.264,-47.3439 120.341,-50.8192"/>
<text text-anchor="middle" x="108.007" y="-47.1409" font-family="Helvetica,sans-Serif" font-size="14.00" fill="blue">6</text>
</g>
<!-- v4 -->
<g id="node6" class="node"><title>v4</title>
<ellipse fill="none" stroke="black" cx="21.5" cy="-86.6543" rx="21.5" ry="21.5"/>
<text text-anchor="middle" x="21.5" y="-82.9543" font-family="Helvetica,sans-Serif" font-size="14.00">v4</text>
</g>
<!-- v3&#45;&gt;v4 -->
<g id="edge7" class="edge"><title>v3&#45;&gt;v4</title>
<path fill="none" stroke="black" d="M74.4964,-86.3436C67.85,-86.3826 60.3879,-86.4263 53.2079,-86.4684"/>
<polygon fill="black" stroke="black" points="52.9976,-82.9695 43.0183,-86.5281 53.0387,-89.9693 52.9976,-82.9695"/>
<text text-anchor="middle" x="59.8522" y="-90.206" font-family="Helvetica,sans-Serif" font-size="14.00" fill="blue">1</text>
</g>
<!-- v6 -->
<g id="node7" class="node"><title>v6</title>
<ellipse fill="none" stroke="black" cx="58.4557" cy="-21.8472" rx="21.5" ry="21.5"/>
<text text-anchor="middle" x="58.4557" y="-18.1472" font-family="Helvetica,sans-Serif" font-size="14.00">v6</text>
</g>
<!-- v3&#45;&gt;v6 -->
<g id="edge8" class="edge"><title>v3&#45;&gt;v6</title>
<path fill="none" stroke="black" d="M85.1855,-67.5987C81.8624,-61.9108 78.135,-55.5309 74.5428,-49.3823"/>
<polygon fill="black" stroke="black" points="77.5058,-47.5156 69.4392,-40.6468 71.4617,-51.0468 77.5058,-47.5156"/>
<text text-anchor="middle" x="70.3641" y="-47.2905" font-family="Helvetica,sans-Serif" font-size="14.00" fill="blue">5 &#160;&#160;</text>
</g>
<!-- v1&#45;&gt;v0 -->
<g id="edge3" class="edge"><title>v1&#45;&gt;v0</title>
<path fill="none" stroke="black" d="M80.6707,-150.91C87.3131,-150.876 94.7707,-150.838 101.946,-150.802"/>
<polygon fill="black" stroke="black" points="102.148,-154.301 112.13,-150.75 102.112,-147.301 102.148,-154.301"/>
<text text-anchor="middle" x="87.3085" y="-154.656" font-family="Helvetica,sans-Serif" font-size="14.00" fill="blue">2</text>
</g>
<!-- v5&#45;&gt;v6 -->
<g id="edge11" class="edge"><title>v5&#45;&gt;v6</title>
<path fill="none" stroke="black" d="M111.494,-21.6004C104.842,-21.6314 97.3743,-21.6661 90.1887,-21.6996"/>
<polygon fill="black" stroke="black" points="89.9746,-18.2004 79.991,-21.747 90.0072,-25.2003 89.9746,-18.2004"/>
<text text-anchor="middle" x="92.8413" y="-25.45" font-family="Helvetica,sans-Serif" font-size="14.00" fill="blue">10</text>
</g>
<!-- v4&#45;&gt;v1 -->
<g id="edge10" class="edge"><title>v4&#45;&gt;v1</title>
<path fill="none" stroke="black" d="M32.3804,-105.271C35.7043,-110.959 39.4327,-117.338 43.0258,-123.486"/>
<polygon fill="black" stroke="black" points="40.063,-125.353 48.1307,-132.221 46.1066,-121.821 40.063,-125.353"/>
<text text-anchor="middle" x="33.7031" y="-118.179" font-family="Helvetica,sans-Serif" font-size="14.00" fill="blue">1</text>
</g>
<!-- v6&#45;&gt;v4 -->
<g id="edge12" class="edge"><title>v6&#45;&gt;v4</title>
<path fill="none" stroke="black" d="M47.7666,-40.5921C44.501,-46.3187 40.8383,-52.7419 37.3083,-58.9323"/>
<polygon fill="black" stroke="black" points="34.2064,-57.3063 32.2931,-67.727 40.2872,-60.7739 34.2064,-57.3063"/>
<text text-anchor="middle" x="33.0374" y="-53.5622" font-family="Helvetica,sans-Serif" font-size="14.00" fill="blue">3 &#160;&#160;</text>
</g>
</g>
</svg>
