<?xml version="1.0" encoding="UTF-8" standalone="no"?>
<!DOCTYPE svg PUBLIC "-//W3C//DTD SVG 1.1//EN"
 "http://www.w3.org/Graphics/SVG/1.1/DTD/svg11.dtd">
<!-- Generated by graphviz version 2.36.0 (20140111.2315)
 -->
<!-- Title: G Pages: 1 -->
<svg width="111pt" height="212pt"
 viewBox="0.00 0.00 111.00 212.00" xmlns="http://www.w3.org/2000/svg" xmlns:xlink="http://www.w3.org/1999/xlink">
<g id="graph0" class="graph" transform="scale(1 1) rotate(0) translate(4 208)">
<title>G</title>
<polygon fill="white" stroke="none" points="-4,4 -4,-208 107,-208 107,4 -4,4"/>
<!-- v1 -->
<g id="node1" class="node"><title>v1</title>
<ellipse fill="none" stroke="black" cx="51" cy="-182" rx="21.25" ry="21.5"/>
<text text-anchor="middle" x="51" y="-178.3" font-family="Helvetica,sans-Serif" font-size="14.00">v1</text>
</g>
<!-- v2 -->
<g id="node2" class="node"><title>v2</title>
<ellipse fill="none" stroke="black" cx="21" cy="-102" rx="21.25" ry="21.5"/>
<text text-anchor="middle" x="21" y="-98.3" font-family="Helvetica,sans-Serif" font-size="14.00">v2</text>
</g>
<!-- v1&#45;&gt;v2 -->
<g id="edge1" class="edge"><title>v1&#45;&gt;v2</title>
<path fill="none" stroke="black" d="M43.5843,-161.719C40.1227,-152.719 35.9298,-141.818 32.1011,-131.863"/>
<polygon fill="black" stroke="black" points="35.291,-130.406 28.4344,-122.329 28.7575,-132.919 35.291,-130.406"/>
</g>
<!-- v3 -->
<g id="node3" class="node"><title>v3</title>
<ellipse fill="none" stroke="black" cx="82" cy="-102" rx="21.25" ry="21.5"/>
<text text-anchor="middle" x="82" y="-98.3" font-family="Helvetica,sans-Serif" font-size="14.00">v3</text>
</g>
<!-- v1&#45;&gt;v3 -->
<g id="edge2" class="edge"><title>v1&#45;&gt;v3</title>
<path fill="none" stroke="black" d="M58.6629,-161.719C62.2399,-152.719 66.5725,-141.818 70.5288,-131.863"/>
<polygon fill="black" stroke="black" points="73.8769,-132.915 74.3178,-122.329 67.3718,-130.33 73.8769,-132.915"/>
</g>
<!-- v2&#45;&gt;v3 -->
<!-- v4 -->
<g id="node4" class="node"><title>v4</title>
<ellipse fill="none" stroke="black" cx="51" cy="-22" rx="21.25" ry="21.5"/>
<text text-anchor="middle" x="51" y="-18.3" font-family="Helvetica,sans-Serif" font-size="14.00">v4</text>
</g>
<!-- v2&#45;&gt;v4 -->
<g id="edge3" class="edge"><title>v2&#45;&gt;v4</title>
<path fill="none" stroke="black" d="M28.4157,-81.7191C31.8773,-72.719 36.0702,-61.8176 39.8989,-51.8629"/>
<polygon fill="black" stroke="black" points="43.2425,-52.9193 43.5656,-42.3294 36.709,-50.4064 43.2425,-52.9193"/>
</g>
<!-- v3&#45;&gt;v4 -->
<g id="edge4" class="edge"><title>v3&#45;&gt;v4</title>
<path fill="none" stroke="black" d="M74.3371,-81.7191C70.7601,-72.719 66.4275,-61.8176 62.4712,-51.8629"/>
<polygon fill="black" stroke="black" points="65.6282,-50.3297 58.6822,-42.3294 59.1231,-52.9151 65.6282,-50.3297"/>
</g>
</g>
</svg>
