<?xml version="1.0" encoding="UTF-8" standalone="no"?>
<!DOCTYPE svg PUBLIC "-//W3C//DTD SVG 1.1//EN"
 "http://www.w3.org/Graphics/SVG/1.1/DTD/svg11.dtd">
<!-- Generated by graphviz version 2.36.0 (20140111.2315)
 -->
<!-- Title: G Pages: 1 -->
<svg width="262pt" height="215pt"
 viewBox="0.00 0.00 262.15 214.93" xmlns="http://www.w3.org/2000/svg" xmlns:xlink="http://www.w3.org/1999/xlink">
<g id="graph0" class="graph" transform="scale(1 1) rotate(0) translate(4 210.934)">
<title>G</title>
<polygon fill="white" stroke="none" points="-4,4 -4,-210.934 258.15,-210.934 258.15,4 -4,4"/>
<!-- v1 -->
<g id="node1" class="node"><title>v1</title>
<ellipse fill="none" stroke="black" cx="131.531" cy="-21.5" rx="21.5" ry="21.5"/>
<text text-anchor="middle" x="131.531" y="-17.8" font-family="Helvetica,sans-Serif" font-size="14.00">v1</text>
</g>
<!-- v2 -->
<g id="node2" class="node"><title>v2</title>
<ellipse fill="none" stroke="black" cx="198.496" cy="-44.5051" rx="21.5" ry="21.5"/>
<text text-anchor="middle" x="198.496" y="-40.8051" font-family="Helvetica,sans-Serif" font-size="14.00">v2</text>
</g>
<!-- v1&#45;&gt;v2 -->
<g id="edge1" class="edge"><title>v1&#45;&gt;v2</title>
<path fill="none" stroke="black" d="M151.987,-28.5273C157.083,-30.2781 162.657,-32.1928 168.119,-34.0693"/>
<polygon fill="black" stroke="black" points="167.109,-37.4231 177.704,-37.3621 169.384,-30.8029 167.109,-37.4231"/>
</g>
<!-- v3 -->
<g id="node3" class="node"><title>v3</title>
<ellipse fill="none" stroke="black" cx="150.108" cy="-98.1639" rx="21.5" ry="21.5"/>
<text text-anchor="middle" x="150.108" y="-94.4639" font-family="Helvetica,sans-Serif" font-size="14.00">v3</text>
</g>
<!-- v1&#45;&gt;v3 -->
<g id="edge2" class="edge"><title>v1&#45;&gt;v3</title>
<path fill="none" stroke="black" d="M136.607,-42.4487C138.471,-50.1392 140.621,-59.0141 142.65,-67.3879"/>
<polygon fill="black" stroke="black" points="139.281,-68.346 145.038,-77.2405 146.084,-66.6975 139.281,-68.346"/>
</g>
<!-- v4 -->
<g id="node4" class="node"><title>v4</title>
<ellipse fill="none" stroke="black" cx="231.299" cy="-107.915" rx="21.5" ry="21.5"/>
<text text-anchor="middle" x="231.299" y="-104.215" font-family="Helvetica,sans-Serif" font-size="14.00">v4</text>
</g>
<!-- v2&#45;&gt;v4 -->
<g id="edge3" class="edge"><title>v2&#45;&gt;v4</title>
<path fill="none" stroke="black" d="M208.516,-63.8748C211.06,-68.7917 213.846,-74.1775 216.57,-79.4431"/>
<polygon fill="black" stroke="black" points="213.637,-81.3903 221.34,-88.6642 219.854,-78.174 213.637,-81.3903"/>
</g>
<!-- v3&#45;&gt;v2 -->
<g id="edge4" class="edge"><title>v3&#45;&gt;v2</title>
<path fill="none" stroke="black" d="M164.626,-82.0645C168.549,-77.7137 172.879,-72.9122 177.095,-68.2378"/>
<polygon fill="black" stroke="black" points="179.891,-70.3635 183.988,-60.5931 174.692,-65.6756 179.891,-70.3635"/>
</g>
<!-- v3&#45;&gt;v4 -->
<g id="edge5" class="edge"><title>v3&#45;&gt;v4</title>
<path fill="none" stroke="black" d="M171.865,-100.777C180.397,-101.802 190.356,-102.998 199.655,-104.115"/>
<polygon fill="black" stroke="black" points="199.416,-107.611 209.762,-105.329 200.251,-100.661 199.416,-107.611"/>
</g>
<!-- v7 -->
<g id="node5" class="node"><title>v7</title>
<ellipse fill="none" stroke="black" cx="155.782" cy="-176.43" rx="21.5" ry="21.5"/>
<text text-anchor="middle" x="155.782" y="-172.73" font-family="Helvetica,sans-Serif" font-size="14.00">v7</text>
</g>
<!-- v3&#45;&gt;v7 -->
<g id="edge6" class="edge"><title>v3&#45;&gt;v7</title>
<path fill="none" stroke="black" d="M151.688,-119.965C152.242,-127.598 152.875,-136.333 153.475,-144.615"/>
<polygon fill="black" stroke="black" points="149.996,-145.025 154.21,-154.746 156.977,-144.519 149.996,-145.025"/>
</g>
<!-- v5 -->
<g id="node6" class="node"><title>v5</title>
<ellipse fill="none" stroke="black" cx="232.65" cy="-185.434" rx="21.5" ry="21.5"/>
<text text-anchor="middle" x="232.65" y="-181.734" font-family="Helvetica,sans-Serif" font-size="14.00">v5</text>
</g>
<!-- v4&#45;&gt;v5 -->
<g id="edge7" class="edge"><title>v4&#45;&gt;v5</title>
<path fill="none" stroke="black" d="M231.675,-129.508C231.804,-136.922 231.952,-145.386 232.092,-153.446"/>
<polygon fill="black" stroke="black" points="228.597,-153.75 232.271,-163.687 235.596,-153.628 228.597,-153.75"/>
</g>
<!-- v7&#45;&gt;v5 -->
<g id="edge11" class="edge"><title>v7&#45;&gt;v5</title>
<path fill="none" stroke="black" d="M177.194,-178.938C184.545,-179.799 192.938,-180.782 200.93,-181.718"/>
<polygon fill="black" stroke="black" points="200.747,-185.221 211.086,-182.908 201.561,-178.268 200.747,-185.221"/>
</g>
<!-- v6 -->
<g id="node7" class="node"><title>v6</title>
<ellipse fill="none" stroke="black" cx="91.5136" cy="-147.321" rx="21.5" ry="21.5"/>
<text text-anchor="middle" x="91.5136" y="-143.621" font-family="Helvetica,sans-Serif" font-size="14.00">v6</text>
</g>
<!-- v6&#45;&gt;v3 -->
<g id="edge8" class="edge"><title>v6&#45;&gt;v3</title>
<path fill="none" stroke="black" d="M108.148,-133.366C113.637,-128.76 119.861,-123.539 125.803,-118.554"/>
<polygon fill="black" stroke="black" points="128.223,-121.092 133.635,-111.983 123.724,-115.729 128.223,-121.092"/>
</g>
<!-- v6&#45;&gt;v7 -->
<g id="edge9" class="edge"><title>v6&#45;&gt;v7</title>
<path fill="none" stroke="black" d="M111.145,-156.213C116.037,-158.428 121.385,-160.851 126.628,-163.225"/>
<polygon fill="black" stroke="black" points="125.273,-166.454 135.827,-167.392 128.162,-160.078 125.273,-166.454"/>
</g>
<!-- v8 -->
<g id="node8" class="node"><title>v8</title>
<ellipse fill="none" stroke="black" cx="21.5" cy="-174.435" rx="21.5" ry="21.5"/>
<text text-anchor="middle" x="21.5" y="-170.735" font-family="Helvetica,sans-Serif" font-size="14.00">v8</text>
</g>
<!-- v6&#45;&gt;v8 -->
<g id="edge10" class="edge"><title>v6&#45;&gt;v8</title>
<path fill="none" stroke="black" d="M71.2627,-155.163C65.0761,-157.559 58.1369,-160.247 51.4492,-162.837"/>
<polygon fill="black" stroke="black" points="50.009,-159.641 41.9479,-166.516 52.537,-166.169 50.009,-159.641"/>
</g>
</g>
</svg>
