<?xml version="1.0" encoding="UTF-8" standalone="no"?>
<!DOCTYPE svg PUBLIC "-//W3C//DTD SVG 1.1//EN"
 "http://www.w3.org/Graphics/SVG/1.1/DTD/svg11.dtd">
<!-- Generated by graphviz version 2.36.0 (20140111.2315)
 -->
<!-- Title: G Pages: 1 -->
<svg width="184pt" height="197pt"
 viewBox="0.00 0.00 184.40 196.66" xmlns="http://www.w3.org/2000/svg" xmlns:xlink="http://www.w3.org/1999/xlink">
<g id="graph0" class="graph" transform="scale(1 1) rotate(0) translate(4 192.657)">
<title>G</title>
<polygon fill="white" stroke="none" points="-4,4 -4,-192.657 180.403,-192.657 180.403,4 -4,4"/>
<!-- v1 -->
<g id="node1" class="node"><title>v1</title>
<ellipse fill="none" stroke="black" cx="80.5212" cy="-168.509" rx="20.2975" ry="20.2975"/>
<text text-anchor="middle" x="80.5212" y="-164.809" font-family="Helvetica,sans-Serif" font-size="14.00">v1</text>
</g>
<!-- v2 -->
<g id="node2" class="node"><title>v2</title>
<ellipse fill="none" stroke="black" cx="148.606" cy="-138.063" rx="20.2975" ry="20.2975"/>
<text text-anchor="middle" x="148.606" y="-134.363" font-family="Helvetica,sans-Serif" font-size="14.00">v2</text>
</g>
<!-- v1&#45;&gt;v2 -->
<g id="edge1" class="edge"><title>v1&#45;&gt;v2</title>
<path fill="none" stroke="black" d="M99.1257,-160.189C108.733,-155.893 120.421,-150.667 130.024,-146.372"/>
</g>
<!-- v3 -->
<g id="node3" class="node"><title>v3</title>
<ellipse fill="none" stroke="black" cx="20.1482" cy="-124.786" rx="20.2975" ry="20.2975"/>
<text text-anchor="middle" x="20.1482" y="-121.086" font-family="Helvetica,sans-Serif" font-size="14.00">v3</text>
</g>
<!-- v1&#45;&gt;v3 -->
<!-- v4 -->
<g id="node4" class="node"><title>v4</title>
<ellipse fill="none" stroke="black" cx="88.2241" cy="-94.3287" rx="20.2975" ry="20.2975"/>
<text text-anchor="middle" x="88.2241" y="-90.6287" font-family="Helvetica,sans-Serif" font-size="14.00">v4</text>
</g>
<!-- v1&#45;&gt;v4 -->
<g id="edge3" class="edge"><title>v1&#45;&gt;v4</title>
<path fill="none" stroke="black" d="M82.626,-148.239C83.7129,-137.772 85.0352,-125.038 86.1218,-114.574"/>
</g>
<!-- v2&#45;&gt;v4 -->
<!-- v5 -->
<g id="node5" class="node"><title>v5</title>
<ellipse fill="none" stroke="black" cx="156.255" cy="-63.8373" rx="20.2975" ry="20.2975"/>
<text text-anchor="middle" x="156.255" y="-60.1373" font-family="Helvetica,sans-Serif" font-size="14.00">v5</text>
</g>
<!-- v2&#45;&gt;v5 -->
<!-- v3&#45;&gt;v4 -->
<g id="edge6" class="edge"><title>v3&#45;&gt;v4</title>
<path fill="none" stroke="black" d="M38.7502,-116.464C48.3558,-112.166 60.0422,-106.938 69.6445,-102.641"/>
</g>
<!-- v6 -->
<g id="node6" class="node"><title>v6</title>
<ellipse fill="none" stroke="black" cx="27.7562" cy="-50.6522" rx="20.2975" ry="20.2975"/>
<text text-anchor="middle" x="27.7562" y="-46.9522" font-family="Helvetica,sans-Serif" font-size="14.00">v6</text>
</g>
<!-- v3&#45;&gt;v6 -->
<!-- v4&#45;&gt;v5 -->
<!-- v4&#45;&gt;v6 -->
<!-- v7 -->
<g id="node7" class="node"><title>v7</title>
<ellipse fill="none" stroke="black" cx="95.7837" cy="-20.1482" rx="20.2975" ry="20.2975"/>
<text text-anchor="middle" x="95.7837" y="-16.4482" font-family="Helvetica,sans-Serif" font-size="14.00">v7</text>
</g>
<!-- v4&#45;&gt;v7 -->
<g id="edge10" class="edge"><title>v4&#45;&gt;v7</title>
<path fill="none" stroke="black" d="M90.2898,-74.0585C91.3564,-63.5916 92.6542,-50.8573 93.7205,-40.3938"/>
</g>
<!-- v5&#45;&gt;v7 -->
<g id="edge11" class="edge"><title>v5&#45;&gt;v7</title>
<path fill="none" stroke="black" d="M139.731,-51.8991C131.198,-45.7345 120.817,-38.2345 112.288,-32.072"/>
</g>
<!-- v6&#45;&gt;v7 -->
<g id="edge12" class="edge"><title>v6&#45;&gt;v7</title>
<path fill="none" stroke="black" d="M46.345,-42.3168C55.9438,-38.0127 67.6218,-32.7762 77.2174,-28.4735"/>
</g>
</g>
</svg>
