<?xml version="1.0" encoding="UTF-8" standalone="no"?>
<!DOCTYPE svg PUBLIC "-//W3C//DTD SVG 1.1//EN"
 "http://www.w3.org/Graphics/SVG/1.1/DTD/svg11.dtd">
<!-- Generated by graphviz version 2.36.0 (20140111.2315)
 -->
<!-- Title: G Pages: 1 -->
<svg width="137pt" height="137pt"
 viewBox="0.00 0.00 136.94 137.01" xmlns="http://www.w3.org/2000/svg" xmlns:xlink="http://www.w3.org/1999/xlink">
<g id="graph0" class="graph" transform="scale(1 1) rotate(0) translate(4 133.013)">
<title>G</title>
<polygon fill="white" stroke="none" points="-4,4 -4,-133.013 132.936,-133.013 132.936,4 -4,4"/>
<!-- A -->
<g id="node1" class="node"><title>A</title>
<ellipse fill="none" stroke="black" cx="21.5" cy="-58.1315" rx="21.5" ry="21.5"/>
<text text-anchor="middle" x="21.5" y="-54.4315" font-family="Helvetica,sans-Serif" font-size="14.00">A</text>
</g>
<!-- B -->
<g id="node2" class="node"><title>B</title>
<ellipse fill="none" stroke="black" cx="107.436" cy="-70.8525" rx="21.5" ry="21.5"/>
<text text-anchor="middle" x="107.436" y="-67.1525" font-family="Helvetica,sans-Serif" font-size="14.00">B</text>
</g>
<!-- A&#45;&gt;B -->
<g id="edge1" class="edge"><title>A&#45;&gt;B</title>
<path fill="none" stroke="black" d="M43.1853,-61.3416C56.3121,-63.2847 72.9842,-65.7526 86.0555,-67.6875"/>
</g>
<!-- C -->
<g id="node3" class="node"><title>C</title>
<ellipse fill="none" stroke="black" cx="70.7914" cy="-21.5" rx="21.5" ry="21.5"/>
<text text-anchor="middle" x="70.7914" y="-17.8" font-family="Helvetica,sans-Serif" font-size="14.00">C</text>
</g>
<!-- A&#45;&gt;C -->
<g id="edge2" class="edge"><title>A&#45;&gt;C</title>
<path fill="none" stroke="black" d="M39.0171,-45.1135C43.6659,-41.6587 48.6849,-37.9287 53.3307,-34.4761"/>
</g>
<!-- D -->
<g id="node4" class="node"><title>D</title>
<ellipse fill="none" stroke="black" cx="58.0551" cy="-107.513" rx="21.5" ry="21.5"/>
<text text-anchor="middle" x="58.0551" y="-103.813" font-family="Helvetica,sans-Serif" font-size="14.00">D</text>
</g>
<!-- A&#45;&gt;D -->
<g id="edge6" class="edge"><title>A&#45;&gt;D</title>
<path fill="none" stroke="black" d="M34.4909,-75.6806C37.9385,-80.3378 41.6607,-85.366 45.106,-90.0203"/>
</g>
<!-- B&#45;&gt;C -->
<g id="edge5" class="edge"><title>B&#45;&gt;C</title>
<path fill="none" stroke="black" d="M100.19,-50.3126C96.7157,-44.9102 92.5104,-39.2473 88.3438,-34.3607"/>
</g>
<!-- B&#45;&gt;C -->
<!-- B&#45;&gt;D -->
<g id="edge3" class="edge"><title>B&#45;&gt;D</title>
<path fill="none" stroke="black" d="M90.1651,-83.6745C85.3813,-87.2259 80.1879,-91.0815 75.3999,-94.6361"/>
</g>
<!-- C&#45;&gt;D -->
<g id="edge4" class="edge"><title>C&#45;&gt;D</title>
<path fill="none" stroke="black" d="M67.5775,-43.2047C65.632,-56.3431 63.1611,-73.0301 61.2238,-86.113"/>
</g>
</g>
</svg>
