<?xml version="1.0" encoding="UTF-8" standalone="no"?>
<!DOCTYPE svg PUBLIC "-//W3C//DTD SVG 1.1//EN"
 "http://www.w3.org/Graphics/SVG/1.1/DTD/svg11.dtd">
<!-- Generated by graphviz version 2.36.0 (20140111.2315)
 -->
<!-- Title: G Pages: 1 -->
<svg width="556pt" height="556pt"
 viewBox="0.00 0.00 555.99 555.99" xmlns="http://www.w3.org/2000/svg" xmlns:xlink="http://www.w3.org/1999/xlink">
<g id="graph0" class="graph" transform="scale(1 1) rotate(0) translate(4 551.987)">
<title>G</title>
<polygon fill="white" stroke="none" points="-4,4 -4,-551.987 551.987,-551.987 551.987,4 -4,4"/>
<!-- v1 -->
<g id="node1" class="node"><title>v1</title>
<ellipse fill="none" stroke="black" cx="274.487" cy="-526.487" rx="21.5" ry="21.5"/>
<text text-anchor="middle" x="274.487" y="-522.787" font-family="Helvetica,sans-Serif" font-size="14.00">v1</text>
</g>
<!-- v2 -->
<g id="node2" class="node"><title>v2</title>
<ellipse fill="none" stroke="black" cx="352.36" cy="-514.154" rx="21.5" ry="21.5"/>
<text text-anchor="middle" x="352.36" y="-510.454" font-family="Helvetica,sans-Serif" font-size="14.00">v2</text>
</g>
<!-- v1&#45;&gt;v2 -->
<g id="edge1" class="edge"><title>v1&#45;&gt;v2</title>
<path fill="none" stroke="black" d="M295.766,-523.117C306.754,-521.377 320.122,-519.259 331.106,-517.52"/>
</g>
<!-- v3 -->
<g id="node3" class="node"><title>v3</title>
<ellipse fill="none" stroke="black" cx="422.609" cy="-478.359" rx="21.5" ry="21.5"/>
<text text-anchor="middle" x="422.609" y="-474.659" font-family="Helvetica,sans-Serif" font-size="14.00">v3</text>
</g>
<!-- v1&#45;&gt;v3 -->
<g id="edge2" class="edge"><title>v1&#45;&gt;v3</title>
<path fill="none" stroke="black" d="M295.083,-519.795C323.223,-510.652 373.414,-494.344 401.711,-485.15"/>
</g>
<!-- v4 -->
<g id="node4" class="node"><title>v4</title>
<ellipse fill="none" stroke="black" cx="478.359" cy="-422.609" rx="21.5" ry="21.5"/>
<text text-anchor="middle" x="478.359" y="-418.909" font-family="Helvetica,sans-Serif" font-size="14.00">v4</text>
</g>
<!-- v1&#45;&gt;v4 -->
<g id="edge3" class="edge"><title>v1&#45;&gt;v4</title>
<path fill="none" stroke="black" d="M293.667,-516.715C332.523,-496.916 420.144,-452.271 459.082,-432.431"/>
</g>
<!-- v5 -->
<g id="node5" class="node"><title>v5</title>
<ellipse fill="none" stroke="black" cx="514.154" cy="-352.36" rx="21.5" ry="21.5"/>
<text text-anchor="middle" x="514.154" y="-348.66" font-family="Helvetica,sans-Serif" font-size="14.00">v5</text>
</g>
<!-- v1&#45;&gt;v5 -->
<g id="edge4" class="edge"><title>v1&#45;&gt;v5</title>
<path fill="none" stroke="black" d="M292.11,-513.683C336.432,-481.482 452.155,-397.404 496.505,-365.182"/>
</g>
<!-- v6 -->
<g id="node6" class="node"><title>v6</title>
<ellipse fill="none" stroke="black" cx="526.487" cy="-274.487" rx="21.5" ry="21.5"/>
<text text-anchor="middle" x="526.487" y="-270.787" font-family="Helvetica,sans-Serif" font-size="14.00">v6</text>
</g>
<!-- v1&#45;&gt;v6 -->
<g id="edge5" class="edge"><title>v1&#45;&gt;v6</title>
<path fill="none" stroke="black" d="M289.872,-511.103C334.86,-466.114 465.844,-335.13 510.984,-289.99"/>
</g>
<!-- v7 -->
<g id="node7" class="node"><title>v7</title>
<ellipse fill="none" stroke="black" cx="514.154" cy="-196.615" rx="21.5" ry="21.5"/>
<text text-anchor="middle" x="514.154" y="-192.915" font-family="Helvetica,sans-Serif" font-size="14.00">v7</text>
</g>
<!-- v1&#45;&gt;v7 -->
<g id="edge6" class="edge"><title>v1&#45;&gt;v7</title>
<path fill="none" stroke="black" d="M287.373,-508.752C329.084,-451.341 460.11,-270.999 501.495,-214.038"/>
</g>
<!-- v8 -->
<g id="node8" class="node"><title>v8</title>
<ellipse fill="none" stroke="black" cx="478.359" cy="-126.365" rx="21.5" ry="21.5"/>
<text text-anchor="middle" x="478.359" y="-122.665" font-family="Helvetica,sans-Serif" font-size="14.00">v8</text>
</g>
<!-- v1&#45;&gt;v8 -->
<g id="edge7" class="edge"><title>v1&#45;&gt;v8</title>
<path fill="none" stroke="black" d="M284.32,-507.188C318.761,-439.595 433.728,-213.959 468.386,-145.939"/>
</g>
<!-- v9 -->
<g id="node9" class="node"><title>v9</title>
<ellipse fill="none" stroke="black" cx="422.609" cy="-70.6149" rx="21.5" ry="21.5"/>
<text text-anchor="middle" x="422.609" y="-66.9149" font-family="Helvetica,sans-Serif" font-size="14.00">v9</text>
</g>
<!-- v1&#45;&gt;v9 -->
<g id="edge8" class="edge"><title>v1&#45;&gt;v9</title>
<path fill="none" stroke="black" d="M281.139,-506.014C305.711,-430.389 391.21,-167.253 415.891,-91.2923"/>
</g>
<!-- v10 -->
<g id="node10" class="node"><title>v10</title>
<ellipse fill="none" stroke="black" cx="352.36" cy="-34.8208" rx="22.4744" ry="22.4744"/>
<text text-anchor="middle" x="352.36" y="-31.1208" font-family="Helvetica,sans-Serif" font-size="14.00">v10</text>
</g>
<!-- v1&#45;&gt;v10 -->
<g id="edge9" class="edge"><title>v1&#45;&gt;v10</title>
<path fill="none" stroke="black" d="M277.883,-505.045C290.661,-424.368 335.783,-139.482 348.812,-57.217"/>
</g>
<!-- v11 -->
<g id="node11" class="node"><title>v11</title>
<ellipse fill="none" stroke="black" cx="274.487" cy="-22.4872" rx="22.4744" ry="22.4744"/>
<text text-anchor="middle" x="274.487" y="-18.7872" font-family="Helvetica,sans-Serif" font-size="14.00">v11</text>
</g>
<!-- v1&#45;&gt;v11 -->
<g id="edge10" class="edge"><title>v1&#45;&gt;v11</title>
<path fill="none" stroke="black" d="M274.487,-504.831C274.487,-422.493 274.487,-129.327 274.487,-45.2046"/>
</g>
<!-- v12 -->
<g id="node12" class="node"><title>v12</title>
<ellipse fill="none" stroke="black" cx="196.615" cy="-34.8208" rx="22.4744" ry="22.4744"/>
<text text-anchor="middle" x="196.615" y="-31.1208" font-family="Helvetica,sans-Serif" font-size="14.00">v12</text>
</g>
<!-- v1&#45;&gt;v12 -->
<g id="edge11" class="edge"><title>v1&#45;&gt;v12</title>
<path fill="none" stroke="black" d="M271.091,-505.045C258.313,-424.368 213.192,-139.482 200.162,-57.217"/>
</g>
<!-- v13 -->
<g id="node13" class="node"><title>v13</title>
<ellipse fill="none" stroke="black" cx="126.365" cy="-70.6149" rx="22.4744" ry="22.4744"/>
<text text-anchor="middle" x="126.365" y="-66.9149" font-family="Helvetica,sans-Serif" font-size="14.00">v13</text>
</g>
<!-- v1&#45;&gt;v13 -->
<g id="edge12" class="edge"><title>v1&#45;&gt;v13</title>
<path fill="none" stroke="black" d="M267.835,-506.014C243.348,-430.649 158.352,-169.059 133.34,-92.082"/>
</g>
<!-- v14 -->
<g id="node14" class="node"><title>v14</title>
<ellipse fill="none" stroke="black" cx="70.6149" cy="-126.365" rx="22.4744" ry="22.4744"/>
<text text-anchor="middle" x="70.6149" y="-122.665" font-family="Helvetica,sans-Serif" font-size="14.00">v14</text>
</g>
<!-- v1&#45;&gt;v14 -->
<g id="edge13" class="edge"><title>v1&#45;&gt;v14</title>
<path fill="none" stroke="black" d="M264.654,-507.188C230.293,-439.751 115.777,-215.001 80.8296,-146.413"/>
</g>
<!-- v15 -->
<g id="node15" class="node"><title>v15</title>
<ellipse fill="none" stroke="black" cx="34.8208" cy="-196.615" rx="22.4744" ry="22.4744"/>
<text text-anchor="middle" x="34.8208" y="-192.915" font-family="Helvetica,sans-Serif" font-size="14.00">v15</text>
</g>
<!-- v1&#45;&gt;v15 -->
<g id="edge14" class="edge"><title>v1&#45;&gt;v15</title>
<path fill="none" stroke="black" d="M261.602,-508.752C220.085,-451.609 90.0839,-272.678 48.0638,-214.842"/>
</g>
<!-- v16 -->
<g id="node16" class="node"><title>v16</title>
<ellipse fill="none" stroke="black" cx="22.4872" cy="-274.487" rx="22.4744" ry="22.4744"/>
<text text-anchor="middle" x="22.4872" y="-270.787" font-family="Helvetica,sans-Serif" font-size="14.00">v16</text>
</g>
<!-- v1&#45;&gt;v16 -->
<g id="edge15" class="edge"><title>v1&#45;&gt;v16</title>
<path fill="none" stroke="black" d="M259.103,-511.103C214.328,-466.328 84.3726,-336.373 38.6395,-290.64"/>
</g>
<!-- v17 -->
<g id="node17" class="node"><title>v17</title>
<ellipse fill="none" stroke="black" cx="34.8208" cy="-352.36" rx="22.4744" ry="22.4744"/>
<text text-anchor="middle" x="34.8208" y="-348.66" font-family="Helvetica,sans-Serif" font-size="14.00">v17</text>
</g>
<!-- v1&#45;&gt;v17 -->
<g id="edge16" class="edge"><title>v1&#45;&gt;v17</title>
<path fill="none" stroke="black" d="M256.864,-513.683C212.759,-481.639 97.9465,-398.223 53.1239,-365.658"/>
</g>
<!-- v18 -->
<g id="node18" class="node"><title>v18</title>
<ellipse fill="none" stroke="black" cx="70.6149" cy="-422.609" rx="22.4744" ry="22.4744"/>
<text text-anchor="middle" x="70.6149" y="-418.909" font-family="Helvetica,sans-Serif" font-size="14.00">v18</text>
</g>
<!-- v1&#45;&gt;v18 -->
<g id="edge17" class="edge"><title>v1&#45;&gt;v18</title>
<path fill="none" stroke="black" d="M255.307,-516.715C216.748,-497.068 130.168,-452.953 90.7947,-432.891"/>
</g>
<!-- v19 -->
<g id="node19" class="node"><title>v19</title>
<ellipse fill="none" stroke="black" cx="126.365" cy="-478.359" rx="22.4744" ry="22.4744"/>
<text text-anchor="middle" x="126.365" y="-474.659" font-family="Helvetica,sans-Serif" font-size="14.00">v19</text>
</g>
<!-- v1&#45;&gt;v19 -->
<g id="edge18" class="edge"><title>v1&#45;&gt;v19</title>
<path fill="none" stroke="black" d="M253.891,-519.795C226.069,-510.755 176.692,-494.712 148.231,-485.464"/>
</g>
<!-- v20 -->
<g id="node20" class="node"><title>v20</title>
<ellipse fill="none" stroke="black" cx="196.615" cy="-514.154" rx="22.4744" ry="22.4744"/>
<text text-anchor="middle" x="196.615" y="-510.454" font-family="Helvetica,sans-Serif" font-size="14.00">v20</text>
</g>
<!-- v1&#45;&gt;v20 -->
<g id="edge19" class="edge"><title>v1&#45;&gt;v20</title>
<path fill="none" stroke="black" d="M253.208,-523.117C242.581,-521.434 229.726,-519.398 218.956,-517.692"/>
</g>
<!-- v2&#45;&gt;v3 -->
<g id="edge20" class="edge"><title>v2&#45;&gt;v3</title>
<path fill="none" stroke="black" d="M371.556,-504.373C381.468,-499.322 393.527,-493.177 403.436,-488.129"/>
</g>
<!-- v2&#45;&gt;v4 -->
<g id="edge21" class="edge"><title>v2&#45;&gt;v4</title>
<path fill="none" stroke="black" d="M369.879,-501.425C393.817,-484.033 436.511,-453.014 460.582,-435.525"/>
</g>
<!-- v2&#45;&gt;v5 -->
<g id="edge22" class="edge"><title>v2&#45;&gt;v5</title>
<path fill="none" stroke="black" d="M367.581,-498.932C398.417,-468.096 467.954,-398.559 498.855,-367.658"/>
</g>
<!-- v2&#45;&gt;v6 -->
<g id="edge23" class="edge"><title>v2&#45;&gt;v6</title>
<path fill="none" stroke="black" d="M365.164,-496.53C397.365,-452.209 481.443,-336.486 513.664,-292.136"/>
</g>
<!-- v2&#45;&gt;v7 -->
<g id="edge24" class="edge"><title>v2&#45;&gt;v7</title>
<path fill="none" stroke="black" d="M362.237,-494.768C391.121,-438.079 475.218,-273.029 504.2,-216.15"/>
</g>
<!-- v2&#45;&gt;v8 -->
<g id="edge25" class="edge"><title>v2&#45;&gt;v8</title>
<path fill="none" stroke="black" d="M359.045,-493.578C380.871,-426.404 449.887,-213.993 471.69,-146.891"/>
</g>
<!-- v2&#45;&gt;v9 -->
<g id="edge26" class="edge"><title>v2&#45;&gt;v9</title>
<path fill="none" stroke="black" d="M355.748,-492.761C367.629,-417.746 407.322,-167.136 419.214,-92.0521"/>
</g>
<!-- v2&#45;&gt;v10 -->
<g id="edge27" class="edge"><title>v2&#45;&gt;v10</title>
<path fill="none" stroke="black" d="M352.36,-492.626C352.36,-413.383 352.36,-138.331 352.36,-57.3926"/>
</g>
<!-- v2&#45;&gt;v11 -->
<g id="edge28" class="edge"><title>v2&#45;&gt;v11</title>
<path fill="none" stroke="black" d="M348.963,-492.711C336.185,-412.034 291.064,-127.148 278.034,-44.8834"/>
</g>
<!-- v2&#45;&gt;v12 -->
<g id="edge29" class="edge"><title>v2&#45;&gt;v12</title>
<path fill="none" stroke="black" d="M345.667,-493.557C320.224,-415.25 229.63,-136.431 203.635,-56.4263"/>
</g>
<!-- v2&#45;&gt;v13 -->
<g id="edge30" class="edge"><title>v2&#45;&gt;v13</title>
<path fill="none" stroke="black" d="M342.503,-494.81C305.42,-422.03 174.473,-165.031 136.66,-90.8188"/>
</g>
<!-- v2&#45;&gt;v14 -->
<g id="edge31" class="edge"><title>v2&#45;&gt;v14</title>
<path fill="none" stroke="black" d="M339.706,-496.738C293.128,-432.629 131.457,-210.107 83.8823,-144.626"/>
</g>
<!-- v2&#45;&gt;v15 -->
<g id="edge32" class="edge"><title>v2&#45;&gt;v15</title>
<path fill="none" stroke="black" d="M337.044,-498.838C283.525,-445.319 105.162,-266.957 50.7307,-212.525"/>
</g>
<!-- v2&#45;&gt;v16 -->
<g id="edge33" class="edge"><title>v2&#45;&gt;v16</title>
<path fill="none" stroke="black" d="M334.624,-501.268C277.481,-459.751 98.5503,-329.75 40.7146,-287.73"/>
</g>
<!-- v2&#45;&gt;v17 -->
<g id="edge34" class="edge"><title>v2&#45;&gt;v17</title>
<path fill="none" stroke="black" d="M332.974,-504.276C276.554,-475.529 112.801,-392.092 55.1739,-362.73"/>
</g>
<!-- v2&#45;&gt;v18 -->
<g id="edge35" class="edge"><title>v2&#45;&gt;v18</title>
<path fill="none" stroke="black" d="M331.642,-507.422C279.793,-490.575 144.824,-446.721 92.1315,-429.6"/>
</g>
<!-- v2&#45;&gt;v19 -->
<g id="edge36" class="edge"><title>v2&#45;&gt;v19</title>
<path fill="none" stroke="black" d="M331.099,-510.786C288.355,-504.016 192.381,-488.815 148.735,-481.902"/>
</g>
<!-- v2&#45;&gt;v20 -->
<g id="edge37" class="edge"><title>v2&#45;&gt;v20</title>
<path fill="none" stroke="black" d="M330.704,-514.154C301.366,-514.154 249.235,-514.154 219.35,-514.154"/>
</g>
<!-- v3&#45;&gt;v4 -->
<g id="edge38" class="edge"><title>v3&#45;&gt;v4</title>
<path fill="none" stroke="black" d="M437.843,-463.125C445.71,-455.259 455.28,-445.689 463.144,-437.825"/>
</g>
<!-- v3&#45;&gt;v5 -->
<g id="edge39" class="edge"><title>v3&#45;&gt;v5</title>
<path fill="none" stroke="black" d="M435.338,-460.84C452.73,-436.902 483.749,-394.208 501.238,-370.137"/>
</g>
<!-- v3&#45;&gt;v6 -->
<g id="edge40" class="edge"><title>v3&#45;&gt;v6</title>
<path fill="none" stroke="black" d="M432.382,-459.18C452.18,-420.323 496.825,-332.702 516.665,-293.765"/>
</g>
<!-- v3&#45;&gt;v7 -->
<g id="edge41" class="edge"><title>v3&#45;&gt;v7</title>
<path fill="none" stroke="black" d="M429.341,-457.642C446.27,-405.539 490.472,-269.498 507.412,-217.363"/>
</g>
<!-- v3&#45;&gt;v8 -->
<g id="edge42" class="edge"><title>v3&#45;&gt;v8</title>
<path fill="none" stroke="black" d="M426.013,-456.871C435.966,-394.03 464.943,-211.071 474.93,-148.02"/>
</g>
<!-- v3&#45;&gt;v9 -->
<g id="edge43" class="edge"><title>v3&#45;&gt;v9</title>
<path fill="none" stroke="black" d="M422.609,-456.725C422.609,-386.095 422.609,-162.753 422.609,-92.197"/>
</g>
<!-- v3&#45;&gt;v10 -->
<g id="edge44" class="edge"><title>v3&#45;&gt;v10</title>
<path fill="none" stroke="black" d="M419.221,-456.967C407.381,-382.212 367.921,-133.074 355.879,-57.0437"/>
</g>
<!-- v3&#45;&gt;v11 -->
<g id="edge45" class="edge"><title>v3&#45;&gt;v11</title>
<path fill="none" stroke="black" d="M415.957,-457.886C391.47,-382.521 306.474,-120.931 281.462,-43.9543"/>
</g>
<!-- v3&#45;&gt;v12 -->
<g id="edge46" class="edge"><title>v3&#45;&gt;v12</title>
<path fill="none" stroke="black" d="M412.753,-459.016C375.67,-386.236 244.722,-129.237 206.909,-55.0247"/>
</g>
<!-- v3&#45;&gt;v13 -->
<g id="edge47" class="edge"><title>v3&#45;&gt;v13</title>
<path fill="none" stroke="black" d="M409.88,-460.839C361.483,-394.227 189.164,-157.05 139.718,-88.9936"/>
</g>
<!-- v3&#45;&gt;v14 -->
<g id="edge48" class="edge"><title>v3&#45;&gt;v14</title>
<path fill="none" stroke="black" d="M407.03,-462.781C349.021,-404.771 145.854,-201.604 86.8172,-142.568"/>
</g>
<!-- v3&#45;&gt;v15 -->
<g id="edge49" class="edge"><title>v3&#45;&gt;v15</title>
<path fill="none" stroke="black" d="M405.193,-465.706C341.084,-419.128 118.562,-257.457 53.0818,-209.882"/>
</g>
<!-- v3&#45;&gt;v16 -->
<g id="edge50" class="edge"><title>v3&#45;&gt;v16</title>
<path fill="none" stroke="black" d="M403.31,-468.526C335.873,-434.165 111.123,-319.649 42.5348,-284.702"/>
</g>
<!-- v3&#45;&gt;v17 -->
<g id="edge51" class="edge"><title>v3&#45;&gt;v17</title>
<path fill="none" stroke="black" d="M402.034,-471.674C335.173,-449.95 124.426,-381.474 56.2946,-359.337"/>
</g>
<!-- v3&#45;&gt;v18 -->
<g id="edge52" class="edge"><title>v3&#45;&gt;v18</title>
<path fill="none" stroke="black" d="M401.12,-474.956C338.579,-465.05 157.057,-436.3 93.1765,-426.183"/>
</g>
<!-- v3&#45;&gt;v19 -->
<g id="edge53" class="edge"><title>v3&#45;&gt;v19</title>
<path fill="none" stroke="black" d="M400.826,-478.359C346.308,-478.359 204.393,-478.359 148.989,-478.359"/>
</g>
<!-- v3&#45;&gt;v20 -->
<g id="edge54" class="edge"><title>v3&#45;&gt;v20</title>
<path fill="none" stroke="black" d="M401.348,-481.727C358.605,-488.497 262.63,-503.698 218.984,-510.611"/>
</g>
<!-- v4&#45;&gt;v5 -->
<g id="edge55" class="edge"><title>v4&#45;&gt;v5</title>
<path fill="none" stroke="black" d="M488.14,-403.413C493.191,-393.501 499.336,-381.441 504.385,-371.532"/>
</g>
<!-- v4&#45;&gt;v6 -->
<g id="edge56" class="edge"><title>v4&#45;&gt;v6</title>
<path fill="none" stroke="black" d="M485.051,-402.013C494.195,-373.873 510.503,-323.683 519.697,-295.386"/>
</g>
<!-- v4&#45;&gt;v7 -->
<g id="edge57" class="edge"><title>v4&#45;&gt;v7</title>
<path fill="none" stroke="black" d="M481.727,-401.348C488.549,-358.276 503.933,-261.147 510.769,-217.984"/>
</g>
<!-- v4&#45;&gt;v8 -->
<g id="edge58" class="edge"><title>v4&#45;&gt;v8</title>
<path fill="none" stroke="black" d="M478.359,-400.826C478.359,-346.041 478.359,-202.999 478.359,-148.181"/>
</g>
<!-- v4&#45;&gt;v9 -->
<g id="edge59" class="edge"><title>v4&#45;&gt;v9</title>
<path fill="none" stroke="black" d="M474.956,-401.12C465.003,-338.28 436.025,-155.321 426.039,-92.2698"/>
</g>
<!-- v4&#45;&gt;v10 -->
<g id="edge60" class="edge"><title>v4&#45;&gt;v10</title>
<path fill="none" stroke="black" d="M471.674,-402.034C449.95,-335.173 381.474,-124.426 359.337,-56.2946"/>
</g>
<!-- v4&#45;&gt;v11 -->
<g id="edge61" class="edge"><title>v4&#45;&gt;v11</title>
<path fill="none" stroke="black" d="M468.526,-403.31C434.165,-335.873 319.649,-111.123 284.702,-42.5348"/>
</g>
<!-- v4&#45;&gt;v12 -->
<g id="edge62" class="edge"><title>v4&#45;&gt;v12</title>
<path fill="none" stroke="black" d="M465.706,-405.193C419.128,-341.084 257.457,-118.562 209.882,-53.0818"/>
</g>
<!-- v4&#45;&gt;v13 -->
<g id="edge63" class="edge"><title>v4&#45;&gt;v13</title>
<path fill="none" stroke="black" d="M462.781,-407.03C404.771,-349.021 201.604,-145.854 142.568,-86.8172"/>
</g>
<!-- v4&#45;&gt;v14 -->
<g id="edge64" class="edge"><title>v4&#45;&gt;v14</title>
<path fill="none" stroke="black" d="M460.839,-409.88C394.227,-361.483 157.05,-189.164 88.9936,-139.718"/>
</g>
<!-- v4&#45;&gt;v15 -->
<g id="edge65" class="edge"><title>v4&#45;&gt;v15</title>
<path fill="none" stroke="black" d="M459.016,-412.753C386.236,-375.67 129.237,-244.722 55.0247,-206.909"/>
</g>
<!-- v4&#45;&gt;v16 -->
<g id="edge66" class="edge"><title>v4&#45;&gt;v16</title>
<path fill="none" stroke="black" d="M457.886,-415.957C382.521,-391.47 120.931,-306.474 43.9543,-281.462"/>
</g>
<!-- v4&#45;&gt;v17 -->
<g id="edge67" class="edge"><title>v4&#45;&gt;v17</title>
<path fill="none" stroke="black" d="M456.967,-419.221C382.212,-407.381 133.074,-367.921 57.0437,-355.879"/>
</g>
<!-- v4&#45;&gt;v18 -->
<g id="edge68" class="edge"><title>v4&#45;&gt;v18</title>
<path fill="none" stroke="black" d="M456.725,-422.609C386.424,-422.609 164.832,-422.609 93.1937,-422.609"/>
</g>
<!-- v4&#45;&gt;v19 -->
<g id="edge69" class="edge"><title>v4&#45;&gt;v19</title>
<path fill="none" stroke="black" d="M456.871,-426.013C394.329,-435.918 212.807,-464.668 148.927,-474.786"/>
</g>
<!-- v4&#45;&gt;v20 -->
<g id="edge70" class="edge"><title>v4&#45;&gt;v20</title>
<path fill="none" stroke="black" d="M457.642,-429.341C405.793,-446.187 270.824,-490.042 218.132,-507.162"/>
</g>
<!-- v5&#45;&gt;v6 -->
<g id="edge71" class="edge"><title>v5&#45;&gt;v6</title>
<path fill="none" stroke="black" d="M517.524,-331.081C519.264,-320.093 521.381,-306.725 523.121,-295.74"/>
</g>
<!-- v5&#45;&gt;v7 -->
<g id="edge72" class="edge"><title>v5&#45;&gt;v7</title>
<path fill="none" stroke="black" d="M514.154,-330.704C514.154,-301.032 514.154,-248.044 514.154,-218.337"/>
</g>
<!-- v5&#45;&gt;v8 -->
<g id="edge73" class="edge"><title>v5&#45;&gt;v8</title>
<path fill="none" stroke="black" d="M510.786,-331.099C503.964,-288.026 488.58,-190.897 481.744,-147.734"/>
</g>
<!-- v5&#45;&gt;v9 -->
<g id="edge74" class="edge"><title>v5&#45;&gt;v9</title>
<path fill="none" stroke="black" d="M507.422,-331.642C490.493,-279.539 446.29,-143.498 429.351,-91.3626"/>
</g>
<!-- v5&#45;&gt;v10 -->
<g id="edge75" class="edge"><title>v5&#45;&gt;v10</title>
<path fill="none" stroke="black" d="M504.276,-332.974C475.529,-276.554 392.092,-112.801 362.73,-55.1739"/>
</g>
<!-- v5&#45;&gt;v11 -->
<g id="edge76" class="edge"><title>v5&#45;&gt;v11</title>
<path fill="none" stroke="black" d="M501.268,-334.624C459.751,-277.481 329.75,-98.5503 287.73,-40.7146"/>
</g>
<!-- v5&#45;&gt;v12 -->
<g id="edge77" class="edge"><title>v5&#45;&gt;v12</title>
<path fill="none" stroke="black" d="M498.838,-337.044C445.319,-283.525 266.957,-105.162 212.525,-50.7307"/>
</g>
<!-- v5&#45;&gt;v13 -->
<g id="edge78" class="edge"><title>v5&#45;&gt;v13</title>
<path fill="none" stroke="black" d="M496.738,-339.706C432.629,-293.128 210.107,-131.457 144.626,-83.8823"/>
</g>
<!-- v5&#45;&gt;v14 -->
<g id="edge79" class="edge"><title>v5&#45;&gt;v14</title>
<path fill="none" stroke="black" d="M494.81,-342.503C422.03,-305.42 165.031,-174.473 90.8188,-136.66"/>
</g>
<!-- v5&#45;&gt;v15 -->
<g id="edge80" class="edge"><title>v5&#45;&gt;v15</title>
<path fill="none" stroke="black" d="M493.557,-345.667C415.25,-320.224 136.431,-229.63 56.4263,-203.635"/>
</g>
<!-- v5&#45;&gt;v16 -->
<g id="edge81" class="edge"><title>v5&#45;&gt;v16</title>
<path fill="none" stroke="black" d="M492.711,-348.963C412.034,-336.185 127.148,-291.064 44.8834,-278.034"/>
</g>
<!-- v5&#45;&gt;v17 -->
<g id="edge82" class="edge"><title>v5&#45;&gt;v17</title>
<path fill="none" stroke="black" d="M492.626,-352.36C413.383,-352.36 138.331,-352.36 57.3926,-352.36"/>
</g>
<!-- v5&#45;&gt;v18 -->
<g id="edge83" class="edge"><title>v5&#45;&gt;v18</title>
<path fill="none" stroke="black" d="M492.761,-355.748C418.006,-367.588 168.868,-407.047 92.8378,-419.089"/>
</g>
<!-- v5&#45;&gt;v19 -->
<g id="edge84" class="edge"><title>v5&#45;&gt;v19</title>
<path fill="none" stroke="black" d="M493.578,-359.045C426.718,-380.769 215.971,-449.245 147.839,-471.382"/>
</g>
<!-- v5&#45;&gt;v20 -->
<g id="edge85" class="edge"><title>v5&#45;&gt;v20</title>
<path fill="none" stroke="black" d="M494.768,-362.237C438.349,-390.984 274.595,-474.421 216.968,-503.783"/>
</g>
<!-- v6&#45;&gt;v7 -->
<g id="edge86" class="edge"><title>v6&#45;&gt;v7</title>
<path fill="none" stroke="black" d="M523.117,-253.208C521.377,-242.22 519.259,-228.852 517.52,-217.868"/>
</g>
<!-- v6&#45;&gt;v8 -->
<g id="edge87" class="edge"><title>v6&#45;&gt;v8</title>
<path fill="none" stroke="black" d="M519.795,-253.891C510.652,-225.751 494.344,-175.561 485.15,-147.264"/>
</g>
<!-- v6&#45;&gt;v9 -->
<g id="edge88" class="edge"><title>v6&#45;&gt;v9</title>
<path fill="none" stroke="black" d="M516.715,-255.307C496.916,-216.451 452.271,-128.83 432.431,-89.8922"/>
</g>
<!-- v6&#45;&gt;v10 -->
<g id="edge89" class="edge"><title>v6&#45;&gt;v10</title>
<path fill="none" stroke="black" d="M513.683,-256.864C481.639,-212.759 398.223,-97.9465 365.658,-53.1239"/>
</g>
<!-- v6&#45;&gt;v11 -->
<g id="edge90" class="edge"><title>v6&#45;&gt;v11</title>
<path fill="none" stroke="black" d="M511.103,-259.103C466.328,-214.328 336.373,-84.3726 290.64,-38.6395"/>
</g>
<!-- v6&#45;&gt;v12 -->
<g id="edge91" class="edge"><title>v6&#45;&gt;v12</title>
<path fill="none" stroke="black" d="M508.752,-261.602C451.609,-220.085 272.678,-90.0839 214.842,-48.0638"/>
</g>
<!-- v6&#45;&gt;v13 -->
<g id="edge92" class="edge"><title>v6&#45;&gt;v13</title>
<path fill="none" stroke="black" d="M507.188,-264.654C439.751,-230.293 215.001,-115.777 146.413,-80.8296"/>
</g>
<!-- v6&#45;&gt;v14 -->
<g id="edge93" class="edge"><title>v6&#45;&gt;v14</title>
<path fill="none" stroke="black" d="M506.014,-267.835C430.649,-243.348 169.059,-158.352 92.082,-133.34"/>
</g>
<!-- v6&#45;&gt;v15 -->
<g id="edge94" class="edge"><title>v6&#45;&gt;v15</title>
<path fill="none" stroke="black" d="M505.045,-271.091C424.368,-258.313 139.482,-213.192 57.217,-200.162"/>
</g>
<!-- v6&#45;&gt;v16 -->
<g id="edge95" class="edge"><title>v6&#45;&gt;v16</title>
<path fill="none" stroke="black" d="M504.831,-274.487C422.493,-274.487 129.327,-274.487 45.2046,-274.487"/>
</g>
<!-- v6&#45;&gt;v17 -->
<g id="edge96" class="edge"><title>v6&#45;&gt;v17</title>
<path fill="none" stroke="black" d="M505.045,-277.883C424.368,-290.661 139.482,-335.783 57.217,-348.812"/>
</g>
<!-- v6&#45;&gt;v18 -->
<g id="edge97" class="edge"><title>v6&#45;&gt;v18</title>
<path fill="none" stroke="black" d="M506.014,-281.139C430.649,-305.627 169.059,-390.623 92.082,-415.634"/>
</g>
<!-- v6&#45;&gt;v19 -->
<g id="edge98" class="edge"><title>v6&#45;&gt;v19</title>
<path fill="none" stroke="black" d="M507.188,-284.32C439.751,-318.681 215.001,-433.197 146.413,-468.145"/>
</g>
<!-- v6&#45;&gt;v20 -->
<g id="edge99" class="edge"><title>v6&#45;&gt;v20</title>
<path fill="none" stroke="black" d="M508.752,-287.373C451.609,-328.889 272.678,-458.89 214.842,-500.911"/>
</g>
<!-- v7&#45;&gt;v8 -->
<g id="edge100" class="edge"><title>v7&#45;&gt;v8</title>
<path fill="none" stroke="black" d="M504.373,-177.419C499.322,-167.507 493.177,-155.447 488.129,-145.538"/>
</g>
<!-- v7&#45;&gt;v9 -->
<g id="edge101" class="edge"><title>v7&#45;&gt;v9</title>
<path fill="none" stroke="black" d="M501.425,-179.095C484.033,-155.158 453.014,-112.463 435.525,-88.392"/>
</g>
<!-- v7&#45;&gt;v10 -->
<g id="edge102" class="edge"><title>v7&#45;&gt;v10</title>
<path fill="none" stroke="black" d="M498.932,-181.394C468.41,-150.872 399.974,-82.4357 368.616,-51.0773"/>
</g>
<!-- v7&#45;&gt;v11 -->
<g id="edge103" class="edge"><title>v7&#45;&gt;v11</title>
<path fill="none" stroke="black" d="M496.53,-183.811C452.425,-151.766 337.613,-68.3507 292.79,-35.7852"/>
</g>
<!-- v7&#45;&gt;v12 -->
<g id="edge104" class="edge"><title>v7&#45;&gt;v12</title>
<path fill="none" stroke="black" d="M494.768,-186.737C438.349,-157.99 274.595,-74.5537 216.968,-45.1912"/>
</g>
<!-- v7&#45;&gt;v13 -->
<g id="edge105" class="edge"><title>v7&#45;&gt;v13</title>
<path fill="none" stroke="black" d="M493.578,-189.93C426.718,-168.205 215.971,-99.7295 147.839,-77.5921"/>
</g>
<!-- v7&#45;&gt;v14 -->
<g id="edge106" class="edge"><title>v7&#45;&gt;v14</title>
<path fill="none" stroke="black" d="M492.761,-193.227C418.006,-181.387 168.868,-141.927 92.8378,-129.885"/>
</g>
<!-- v7&#45;&gt;v15 -->
<g id="edge107" class="edge"><title>v7&#45;&gt;v15</title>
<path fill="none" stroke="black" d="M492.626,-196.615C413.383,-196.615 138.331,-196.615 57.3926,-196.615"/>
</g>
<!-- v7&#45;&gt;v16 -->
<g id="edge108" class="edge"><title>v7&#45;&gt;v16</title>
<path fill="none" stroke="black" d="M492.711,-200.011C412.034,-212.789 127.148,-257.911 44.8834,-270.94"/>
</g>
<!-- v7&#45;&gt;v17 -->
<g id="edge109" class="edge"><title>v7&#45;&gt;v17</title>
<path fill="none" stroke="black" d="M493.557,-203.307C415.25,-228.751 136.431,-319.344 56.4263,-345.339"/>
</g>
<!-- v7&#45;&gt;v18 -->
<g id="edge110" class="edge"><title>v7&#45;&gt;v18</title>
<path fill="none" stroke="black" d="M494.81,-206.471C422.03,-243.554 165.031,-374.502 90.8188,-412.315"/>
</g>
<!-- v7&#45;&gt;v19 -->
<g id="edge111" class="edge"><title>v7&#45;&gt;v19</title>
<path fill="none" stroke="black" d="M496.738,-209.268C432.629,-255.846 210.107,-417.518 144.626,-465.092"/>
</g>
<!-- v7&#45;&gt;v20 -->
<g id="edge112" class="edge"><title>v7&#45;&gt;v20</title>
<path fill="none" stroke="black" d="M498.838,-211.93C445.319,-265.449 266.957,-443.812 212.525,-498.244"/>
</g>
<!-- v8&#45;&gt;v9 -->
<g id="edge113" class="edge"><title>v8&#45;&gt;v9</title>
<path fill="none" stroke="black" d="M463.125,-111.131C455.259,-103.265 445.689,-93.6943 437.825,-85.8305"/>
</g>
<!-- v8&#45;&gt;v10 -->
<g id="edge114" class="edge"><title>v8&#45;&gt;v10</title>
<path fill="none" stroke="black" d="M460.84,-113.636C437.173,-96.4413 395.17,-65.9245 370.96,-48.3346"/>
</g>
<!-- v8&#45;&gt;v11 -->
<g id="edge115" class="edge"><title>v8&#45;&gt;v11</title>
<path fill="none" stroke="black" d="M459.18,-116.593C420.621,-96.9458 334.041,-52.8312 294.667,-32.7693"/>
</g>
<!-- v8&#45;&gt;v12 -->
<g id="edge116" class="edge"><title>v8&#45;&gt;v12</title>
<path fill="none" stroke="black" d="M457.642,-119.634C405.793,-102.787 270.824,-58.9327 218.132,-41.812"/>
</g>
<!-- v8&#45;&gt;v13 -->
<g id="edge117" class="edge"><title>v8&#45;&gt;v13</title>
<path fill="none" stroke="black" d="M456.871,-122.962C394.329,-113.056 212.807,-84.3059 148.927,-74.1883"/>
</g>
<!-- v8&#45;&gt;v14 -->
<g id="edge118" class="edge"><title>v8&#45;&gt;v14</title>
<path fill="none" stroke="black" d="M456.725,-126.365C386.424,-126.365 164.832,-126.365 93.1937,-126.365"/>
</g>
<!-- v8&#45;&gt;v15 -->
<g id="edge119" class="edge"><title>v8&#45;&gt;v15</title>
<path fill="none" stroke="black" d="M456.967,-129.753C382.212,-141.594 133.074,-181.053 57.0437,-193.095"/>
</g>
<!-- v8&#45;&gt;v16 -->
<g id="edge120" class="edge"><title>v8&#45;&gt;v16</title>
<path fill="none" stroke="black" d="M457.886,-133.017C382.521,-157.505 120.931,-242.501 43.9543,-267.512"/>
</g>
<!-- v8&#45;&gt;v17 -->
<g id="edge121" class="edge"><title>v8&#45;&gt;v17</title>
<path fill="none" stroke="black" d="M459.016,-136.221C386.236,-173.304 129.237,-304.252 55.0247,-342.065"/>
</g>
<!-- v8&#45;&gt;v18 -->
<g id="edge122" class="edge"><title>v8&#45;&gt;v18</title>
<path fill="none" stroke="black" d="M460.839,-139.094C394.227,-187.491 157.05,-359.811 88.9936,-409.256"/>
</g>
<!-- v8&#45;&gt;v19 -->
<g id="edge123" class="edge"><title>v8&#45;&gt;v19</title>
<path fill="none" stroke="black" d="M462.781,-141.944C404.771,-199.954 201.604,-403.12 142.568,-462.157"/>
</g>
<!-- v8&#45;&gt;v20 -->
<g id="edge124" class="edge"><title>v8&#45;&gt;v20</title>
<path fill="none" stroke="black" d="M465.706,-143.781C419.128,-207.89 257.457,-430.412 209.882,-495.893"/>
</g>
<!-- v9&#45;&gt;v10 -->
<g id="edge125" class="edge"><title>v9&#45;&gt;v10</title>
<path fill="none" stroke="black" d="M403.413,-60.834C393.826,-55.949 382.23,-50.0405 372.514,-45.0899"/>
</g>
<!-- v9&#45;&gt;v11 -->
<g id="edge126" class="edge"><title>v9&#45;&gt;v11</title>
<path fill="none" stroke="black" d="M402.013,-63.9229C374.191,-54.883 324.814,-38.8394 296.353,-29.5918"/>
</g>
<!-- v9&#45;&gt;v12 -->
<g id="edge127" class="edge"><title>v9&#45;&gt;v12</title>
<path fill="none" stroke="black" d="M401.348,-67.2475C358.605,-60.4776 262.63,-45.2767 218.984,-38.3638"/>
</g>
<!-- v9&#45;&gt;v13 -->
<g id="edge128" class="edge"><title>v9&#45;&gt;v13</title>
<path fill="none" stroke="black" d="M400.826,-70.6149C346.308,-70.6149 204.393,-70.6149 148.989,-70.6149"/>
</g>
<!-- v9&#45;&gt;v14 -->
<g id="edge129" class="edge"><title>v9&#45;&gt;v14</title>
<path fill="none" stroke="black" d="M401.12,-74.0184C338.579,-83.924 157.057,-112.674 93.1765,-122.792"/>
</g>
<!-- v9&#45;&gt;v15 -->
<g id="edge130" class="edge"><title>v9&#45;&gt;v15</title>
<path fill="none" stroke="black" d="M402.034,-77.3002C335.173,-99.0245 124.426,-167.5 56.2946,-189.638"/>
</g>
<!-- v9&#45;&gt;v16 -->
<g id="edge131" class="edge"><title>v9&#45;&gt;v16</title>
<path fill="none" stroke="black" d="M403.31,-80.4481C335.873,-114.809 111.123,-229.325 42.5348,-264.272"/>
</g>
<!-- v9&#45;&gt;v17 -->
<g id="edge132" class="edge"><title>v9&#45;&gt;v17</title>
<path fill="none" stroke="black" d="M405.193,-83.2682C341.084,-129.846 118.562,-291.518 53.0818,-339.092"/>
</g>
<!-- v9&#45;&gt;v18 -->
<g id="edge133" class="edge"><title>v9&#45;&gt;v18</title>
<path fill="none" stroke="black" d="M407.03,-86.1938C349.021,-144.204 145.854,-347.37 86.8172,-406.407"/>
</g>
<!-- v9&#45;&gt;v19 -->
<g id="edge134" class="edge"><title>v9&#45;&gt;v19</title>
<path fill="none" stroke="black" d="M409.88,-88.1351C361.483,-154.748 189.164,-391.925 139.718,-459.981"/>
</g>
<!-- v9&#45;&gt;v20 -->
<g id="edge135" class="edge"><title>v9&#45;&gt;v20</title>
<path fill="none" stroke="black" d="M412.753,-89.9584C375.67,-162.738 244.722,-419.738 206.909,-493.95"/>
</g>
<!-- v10&#45;&gt;v11 -->
<g id="edge136" class="edge"><title>v10&#45;&gt;v11</title>
<path fill="none" stroke="black" d="M329.836,-31.2534C319.504,-29.6171 307.286,-27.6819 296.96,-26.0466"/>
</g>
<!-- v10&#45;&gt;v12 -->
<g id="edge137" class="edge"><title>v10&#45;&gt;v12</title>
<path fill="none" stroke="black" d="M329.713,-34.8208C300.185,-34.8208 248.83,-34.8208 219.289,-34.8208"/>
</g>
<!-- v10&#45;&gt;v13 -->
<g id="edge138" class="edge"><title>v10&#45;&gt;v13</title>
<path fill="none" stroke="black" d="M329.864,-38.3837C286.546,-45.2447 192.016,-60.2167 148.77,-67.0663"/>
</g>
<!-- v10&#45;&gt;v14 -->
<g id="edge139" class="edge"><title>v10&#45;&gt;v14</title>
<path fill="none" stroke="black" d="M330.719,-41.8521C278.275,-58.8923 144.849,-102.245 92.3288,-119.31"/>
</g>
<!-- v10&#45;&gt;v15 -->
<g id="edge140" class="edge"><title>v10&#45;&gt;v15</title>
<path fill="none" stroke="black" d="M332.013,-45.1879C274.659,-74.4112 112.144,-157.217 54.9979,-186.334"/>
</g>
<!-- v10&#45;&gt;v16 -->
<g id="edge141" class="edge"><title>v10&#45;&gt;v16</title>
<path fill="none" stroke="black" d="M334.154,-48.0477C276.616,-89.8518 99.0653,-218.85 41.0428,-261.006"/>
</g>
<!-- v10&#45;&gt;v17 -->
<g id="edge142" class="edge"><title>v10&#45;&gt;v17</title>
<path fill="none" stroke="black" d="M336.176,-51.0041C281.705,-105.475 105.394,-281.786 50.9715,-336.209"/>
</g>
<!-- v10&#45;&gt;v18 -->
<g id="edge143" class="edge"><title>v10&#45;&gt;v18</title>
<path fill="none" stroke="black" d="M338.96,-53.2637C291.498,-118.589 131.687,-338.55 84.0965,-404.053"/>
</g>
<!-- v10&#45;&gt;v19 -->
<g id="edge144" class="edge"><title>v10&#45;&gt;v19</title>
<path fill="none" stroke="black" d="M342.062,-55.0313C304.37,-129.005 174.172,-384.532 136.594,-458.284"/>
</g>
<!-- v10&#45;&gt;v20 -->
<g id="edge145" class="edge"><title>v10&#45;&gt;v20</title>
<path fill="none" stroke="black" d="M345.365,-56.3479C319.499,-135.955 229.424,-413.177 203.59,-492.686"/>
</g>
<!-- v11&#45;&gt;v12 -->
<g id="edge146" class="edge"><title>v11&#45;&gt;v12</title>
<path fill="none" stroke="black" d="M251.963,-26.0546C241.632,-27.6909 229.413,-29.6261 219.088,-31.2614"/>
</g>
<!-- v11&#45;&gt;v13 -->
<g id="edge147" class="edge"><title>v11&#45;&gt;v13</title>
<path fill="none" stroke="black" d="M252.949,-29.4854C224.866,-38.61 176.025,-54.4794 147.929,-63.6082"/>
</g>
<!-- v11&#45;&gt;v14 -->
<g id="edge148" class="edge"><title>v11&#45;&gt;v14</title>
<path fill="none" stroke="black" d="M254.194,-32.8272C215.116,-52.7385 129.84,-96.1887 90.8262,-116.067"/>
</g>
<!-- v11&#45;&gt;v15 -->
<g id="edge149" class="edge"><title>v11&#45;&gt;v15</title>
<path fill="none" stroke="black" d="M256.079,-35.8616C211.467,-68.2738 97.968,-150.736 53.2918,-183.195"/>
</g>
<!-- v11&#45;&gt;v16 -->
<g id="edge150" class="edge"><title>v11&#45;&gt;v16</title>
<path fill="none" stroke="black" d="M258.34,-38.6343C212.824,-84.1506 83.8513,-213.123 38.4998,-258.475"/>
</g>
<!-- v11&#45;&gt;v17 -->
<g id="edge151" class="edge"><title>v11&#45;&gt;v17</title>
<path fill="none" stroke="black" d="M261.26,-40.6924C219.456,-98.2308 90.4581,-275.781 48.3022,-333.804"/>
</g>
<!-- v11&#45;&gt;v18 -->
<g id="edge152" class="edge"><title>v11&#45;&gt;v18</title>
<path fill="none" stroke="black" d="M264.237,-42.6035C229.436,-110.905 116.021,-333.495 81.0066,-402.214"/>
</g>
<!-- v11&#45;&gt;v19 -->
<g id="edge153" class="edge"><title>v11&#45;&gt;v19</title>
<path fill="none" stroke="black" d="M267.443,-44.1682C242.462,-121.051 158.279,-380.138 133.367,-456.811"/>
</g>
<!-- v11&#45;&gt;v20 -->
<g id="edge154" class="edge"><title>v11&#45;&gt;v20</title>
<path fill="none" stroke="black" d="M270.939,-44.8907C257.951,-126.892 213.088,-410.146 200.139,-491.9"/>
</g>
<!-- v12&#45;&gt;v13 -->
<g id="edge155" class="edge"><title>v12&#45;&gt;v13</title>
<path fill="none" stroke="black" d="M176.296,-45.1739C167.057,-49.8815 156.145,-55.4414 146.882,-60.161"/>
</g>
<!-- v12&#45;&gt;v14 -->
<g id="edge156" class="edge"><title>v12&#45;&gt;v14</title>
<path fill="none" stroke="black" d="M178.293,-48.1321C154.405,-65.4883 112.858,-95.6737 88.9585,-113.038"/>
</g>
<!-- v12&#45;&gt;v15 -->
<g id="edge157" class="edge"><title>v12&#45;&gt;v15</title>
<path fill="none" stroke="black" d="M180.51,-50.9257C149.497,-81.9384 81.8218,-149.614 50.8606,-180.575"/>
</g>
<!-- v12&#45;&gt;v16 -->
<g id="edge158" class="edge"><title>v12&#45;&gt;v16</title>
<path fill="none" stroke="black" d="M183.24,-53.229C150.828,-97.8408 68.3663,-211.34 35.9071,-256.016"/>
</g>
<!-- v12&#45;&gt;v17 -->
<g id="edge159" class="edge"><title>v12&#45;&gt;v17</title>
<path fill="none" stroke="black" d="M186.248,-55.1673C157.024,-112.521 74.219,-275.036 45.1015,-332.182"/>
</g>
<!-- v12&#45;&gt;v18 -->
<g id="edge160" class="edge"><title>v12&#45;&gt;v18</title>
<path fill="none" stroke="black" d="M189.661,-56.2223C167.683,-123.863 99.8651,-332.586 77.7025,-400.796"/>
</g>
<!-- v12&#45;&gt;v19 -->
<g id="edge161" class="edge"><title>v12&#45;&gt;v19</title>
<path fill="none" stroke="black" d="M193.083,-57.1199C181.077,-132.921 141.92,-380.148 129.904,-456.016"/>
</g>
<!-- v12&#45;&gt;v20 -->
<g id="edge162" class="edge"><title>v12&#45;&gt;v20</title>
<path fill="none" stroke="black" d="M196.615,-57.6175C196.615,-138.457 196.615,-410.878 196.615,-491.496"/>
</g>
<!-- v13&#45;&gt;v14 -->
<g id="edge163" class="edge"><title>v13&#45;&gt;v14</title>
<path fill="none" stroke="black" d="M110.24,-86.7402C102.908,-94.0723 94.248,-102.732 86.8971,-110.083"/>
</g>
<!-- v13&#45;&gt;v15 -->
<g id="edge164" class="edge"><title>v13&#45;&gt;v15</title>
<path fill="none" stroke="black" d="M113.054,-88.9364C95.6977,-112.825 65.5123,-154.372 48.1482,-178.271"/>
</g>
<!-- v13&#45;&gt;v16 -->
<g id="edge165" class="edge"><title>v13&#45;&gt;v16</title>
<path fill="none" stroke="black" d="M116.025,-90.9083C96.1139,-129.986 52.6637,-215.262 32.7854,-254.276"/>
</g>
<!-- v13&#45;&gt;v17 -->
<g id="edge166" class="edge"><title>v13&#45;&gt;v17</title>
<path fill="none" stroke="black" d="M119.334,-92.2551C102.294,-144.699 58.9409,-278.126 41.8761,-330.646"/>
</g>
<!-- v13&#45;&gt;v18 -->
<g id="edge167" class="edge"><title>v13&#45;&gt;v18</title>
<path fill="none" stroke="black" d="M122.835,-92.9007C112.806,-156.222 84.2193,-336.714 74.1651,-400.194"/>
</g>
<!-- v13&#45;&gt;v19 -->
<g id="edge168" class="edge"><title>v13&#45;&gt;v19</title>
<path fill="none" stroke="black" d="M126.365,-93.1178C126.365,-164.323 126.365,-384.219 126.365,-455.675"/>
</g>
<!-- v13&#45;&gt;v20 -->
<g id="edge169" class="edge"><title>v13&#45;&gt;v20</title>
<path fill="none" stroke="black" d="M129.897,-92.914C141.903,-168.715 181.06,-415.942 193.076,-491.81"/>
</g>
<!-- v14&#45;&gt;v15 -->
<g id="edge170" class="edge"><title>v14&#45;&gt;v15</title>
<path fill="none" stroke="black" d="M60.2617,-146.684C55.5542,-155.923 49.9943,-166.835 45.2747,-176.098"/>
</g>
<!-- v14&#45;&gt;v16 -->
<g id="edge171" class="edge"><title>v14&#45;&gt;v16</title>
<path fill="none" stroke="black" d="M63.6167,-147.903C54.492,-175.986 38.6226,-224.827 29.4938,-252.923"/>
</g>
<!-- v14&#45;&gt;v17 -->
<g id="edge172" class="edge"><title>v14&#45;&gt;v17</title>
<path fill="none" stroke="black" d="M67.0519,-148.861C60.1909,-192.179 45.2189,-286.708 38.3693,-329.955"/>
</g>
<!-- v14&#45;&gt;v18 -->
<g id="edge173" class="edge"><title>v14&#45;&gt;v18</title>
<path fill="none" stroke="black" d="M70.6149,-149.119C70.6149,-204.262 70.6149,-344.555 70.6149,-399.778"/>
</g>
<!-- v14&#45;&gt;v19 -->
<g id="edge174" class="edge"><title>v14&#45;&gt;v19</title>
<path fill="none" stroke="black" d="M74.1446,-148.651C84.1736,-211.972 112.761,-392.464 122.815,-455.944"/>
</g>
<!-- v14&#45;&gt;v20 -->
<g id="edge175" class="edge"><title>v14&#45;&gt;v20</title>
<path fill="none" stroke="black" d="M77.5687,-147.767C99.5464,-215.407 167.365,-424.131 189.527,-492.34"/>
</g>
<!-- v15&#45;&gt;v16 -->
<g id="edge176" class="edge"><title>v15&#45;&gt;v16</title>
<path fill="none" stroke="black" d="M31.2534,-219.139C29.6171,-229.47 27.6819,-241.689 26.0466,-252.014"/>
</g>
<!-- v15&#45;&gt;v17 -->
<g id="edge177" class="edge"><title>v15&#45;&gt;v17</title>
<path fill="none" stroke="black" d="M34.8208,-219.261C34.8208,-248.79 34.8208,-300.144 34.8208,-329.686"/>
</g>
<!-- v15&#45;&gt;v18 -->
<g id="edge178" class="edge"><title>v15&#45;&gt;v18</title>
<path fill="none" stroke="black" d="M38.3837,-219.11C45.2447,-262.429 60.2167,-356.958 67.0663,-400.205"/>
</g>
<!-- v15&#45;&gt;v19 -->
<g id="edge179" class="edge"><title>v15&#45;&gt;v19</title>
<path fill="none" stroke="black" d="M41.8521,-218.255C58.8923,-270.699 102.245,-404.126 119.31,-456.646"/>
</g>
<!-- v15&#45;&gt;v20 -->
<g id="edge180" class="edge"><title>v15&#45;&gt;v20</title>
<path fill="none" stroke="black" d="M45.1879,-216.961C74.4112,-274.315 157.217,-436.83 186.334,-493.977"/>
</g>
<!-- v16&#45;&gt;v17 -->
<g id="edge181" class="edge"><title>v16&#45;&gt;v17</title>
<path fill="none" stroke="black" d="M26.0546,-297.011C27.6909,-307.343 29.6261,-319.561 31.2614,-329.886"/>
</g>
<!-- v16&#45;&gt;v18 -->
<g id="edge182" class="edge"><title>v16&#45;&gt;v18</title>
<path fill="none" stroke="black" d="M29.4854,-296.025C38.61,-324.108 54.4794,-372.949 63.6082,-401.045"/>
</g>
<!-- v16&#45;&gt;v19 -->
<g id="edge183" class="edge"><title>v16&#45;&gt;v19</title>
<path fill="none" stroke="black" d="M32.8272,-294.781C52.7385,-333.859 96.1887,-419.135 116.067,-458.148"/>
</g>
<!-- v16&#45;&gt;v20 -->
<g id="edge184" class="edge"><title>v16&#45;&gt;v20</title>
<path fill="none" stroke="black" d="M35.8616,-292.895C68.2738,-337.507 150.736,-451.006 183.195,-495.683"/>
</g>
<!-- v17&#45;&gt;v18 -->
<g id="edge185" class="edge"><title>v17&#45;&gt;v18</title>
<path fill="none" stroke="black" d="M45.1739,-372.679C49.8815,-381.918 55.4414,-392.83 60.161,-402.092"/>
</g>
<!-- v17&#45;&gt;v19 -->
<g id="edge186" class="edge"><title>v17&#45;&gt;v19</title>
<path fill="none" stroke="black" d="M48.1321,-370.681C65.4883,-394.57 95.6737,-436.116 113.038,-460.016"/>
</g>
<!-- v17&#45;&gt;v20 -->
<g id="edge187" class="edge"><title>v17&#45;&gt;v20</title>
<path fill="none" stroke="black" d="M50.9257,-368.464C81.9384,-399.477 149.614,-467.153 180.575,-498.114"/>
</g>
<!-- v18&#45;&gt;v19 -->
<g id="edge188" class="edge"><title>v18&#45;&gt;v19</title>
<path fill="none" stroke="black" d="M86.7402,-438.734C94.0723,-446.067 102.732,-454.726 110.083,-462.077"/>
</g>
<!-- v18&#45;&gt;v20 -->
<g id="edge189" class="edge"><title>v18&#45;&gt;v20</title>
<path fill="none" stroke="black" d="M88.9364,-435.921C112.825,-453.277 154.372,-483.462 178.271,-500.826"/>
</g>
<!-- v19&#45;&gt;v20 -->
<g id="edge190" class="edge"><title>v19&#45;&gt;v20</title>
<path fill="none" stroke="black" d="M146.684,-488.713C155.923,-493.42 166.835,-498.98 176.098,-503.7"/>
</g>
</g>
</svg>
