<?xml version="1.0" encoding="UTF-8" standalone="no"?>
<!DOCTYPE svg PUBLIC "-//W3C//DTD SVG 1.1//EN"
 "http://www.w3.org/Graphics/SVG/1.1/DTD/svg11.dtd">
<!-- Generated by graphviz version 2.36.0 (20140111.2315)
 -->
<!-- Title: G Pages: 1 -->
<svg width="143pt" height="89pt"
 viewBox="0.00 0.00 143.00 89.00" xmlns="http://www.w3.org/2000/svg" xmlns:xlink="http://www.w3.org/1999/xlink">
<g id="graph0" class="graph" transform="scale(1 1) rotate(0) translate(4 85)">
<title>G</title>
<polygon fill="white" stroke="none" points="-4,4 -4,-85 139,-85 139,4 -4,4"/>
<!-- A -->
<g id="node1" class="node"><title>A</title>
<ellipse fill="none" stroke="black" cx="8.55454" cy="-45.5348" rx="9" ry="9"/>
</g>
<!-- D -->
<g id="node4" class="node"><title>D</title>
<ellipse fill="none" stroke="black" cx="60.9611" cy="-54.6854" rx="9" ry="9"/>
</g>
<!-- A&#45;&gt;D -->
<g id="edge1" class="edge"><title>A&#45;&gt;D</title>
<path fill="none" stroke="black" d="M17.6831,-47.1288C27.3019,-48.8083 42.358,-51.4372 51.9372,-53.1098"/>
</g>
<!-- B -->
<g id="node2" class="node"><title>B</title>
<ellipse fill="none" stroke="black" cx="125.788" cy="-29.4487" rx="9" ry="9"/>
</g>
<!-- C -->
<g id="node3" class="node"><title>C</title>
<ellipse fill="none" stroke="black" cx="76.3741" cy="-8.99762" rx="9" ry="9"/>
</g>
<!-- B&#45;&gt;C -->
<g id="edge2" class="edge"><title>B&#45;&gt;C</title>
<path fill="none" stroke="black" d="M117.18,-25.8864C108.111,-22.1328 93.9148,-16.2573 84.8826,-12.5191"/>
</g>
<!-- C&#45;&gt;D -->
<g id="edge3" class="edge"><title>C&#45;&gt;D</title>
<path fill="none" stroke="black" d="M73.4023,-17.8067C70.673,-25.897 66.6502,-37.8217 63.9238,-45.9034"/>
</g>
<!-- E -->
<g id="node5" class="node"><title>E</title>
<ellipse fill="none" stroke="black" cx="103.226" cy="-72.1855" rx="9" ry="9"/>
</g>
<!-- D&#45;&gt;E -->
<g id="edge4" class="edge"><title>D&#45;&gt;E</title>
<path fill="none" stroke="black" d="M69.5141,-58.2268C76.8468,-61.263 87.3567,-65.6147 94.6858,-68.6493"/>
</g>
<!-- E&#45;&gt;B -->
<g id="edge5" class="edge"><title>E&#45;&gt;B</title>
<path fill="none" stroke="black" d="M107.576,-63.9454C111.571,-56.3777 117.46,-45.2232 121.451,-37.6635"/>
</g>
</g>
</svg>
