<?xml version="1.0" encoding="UTF-8" standalone="no"?>
<!DOCTYPE svg PUBLIC "-//W3C//DTD SVG 1.1//EN"
 "http://www.w3.org/Graphics/SVG/1.1/DTD/svg11.dtd">
<!-- Generated by graphviz version 2.36.0 (20140111.2315)
 -->
<!-- Title: G Pages: 1 -->
<svg width="162pt" height="182pt"
 viewBox="0.00 0.00 162.24 181.67" xmlns="http://www.w3.org/2000/svg" xmlns:xlink="http://www.w3.org/1999/xlink">
<g id="graph0" class="graph" transform="scale(1 1) rotate(0) translate(4 177.674)">
<title>G</title>
<polygon fill="white" stroke="none" points="-4,4 -4,-177.674 158.242,-177.674 158.242,4 -4,4"/>
<!-- v1 -->
<g id="node1" class="node"><title>v1</title>
<ellipse fill="none" stroke="black" cx="65.3395" cy="-93.379" rx="21.5" ry="21.5"/>
<text text-anchor="middle" x="65.3395" y="-89.679" font-family="Helvetica,sans-Serif" font-size="14.00">1</text>
</g>
<!-- v2 -->
<g id="node2" class="node"><title>v2</title>
<ellipse fill="none" stroke="black" cx="132.742" cy="-65.8262" rx="21.5" ry="21.5"/>
<text text-anchor="middle" x="132.742" y="-62.1262" font-family="Helvetica,sans-Serif" font-size="14.00">2</text>
</g>
<!-- v1&#45;&gt;v2 -->
<g id="edge1" class="edge"><title>v1&#45;&gt;v2</title>
<path fill="none" stroke="black" d="M85.5624,-85.1122C91.0276,-82.8782 97.0588,-80.4127 102.93,-78.0125"/>
<polygon fill="black" stroke="black" points="104.601,-81.1108 112.533,-74.0871 101.952,-74.6313 104.601,-81.1108"/>
</g>
<!-- v3 -->
<g id="node3" class="node"><title>v3</title>
<ellipse fill="none" stroke="black" cx="76.2524" cy="-21.5" rx="21.5" ry="21.5"/>
<text text-anchor="middle" x="76.2524" y="-17.8" font-family="Helvetica,sans-Serif" font-size="14.00">3</text>
</g>
<!-- v1&#45;&gt;v3 -->
<g id="edge2" class="edge"><title>v1&#45;&gt;v3</title>
<path fill="none" stroke="black" d="M68.6137,-71.8129C69.4986,-65.9848 70.4751,-59.553 71.4257,-53.2913"/>
<polygon fill="black" stroke="black" points="74.9397,-53.4629 72.9805,-43.0508 68.019,-52.4122 74.9397,-53.4629"/>
</g>
<!-- v4 -->
<g id="node4" class="node"><title>v4</title>
<ellipse fill="none" stroke="black" cx="21.5" cy="-152.174" rx="21.5" ry="21.5"/>
<text text-anchor="middle" x="21.5" y="-148.474" font-family="Helvetica,sans-Serif" font-size="14.00">4</text>
</g>
<!-- v1&#45;&gt;v4 -->
<g id="edge3" class="edge"><title>v1&#45;&gt;v4</title>
<path fill="none" stroke="black" d="M47.9597,-106.391C43.5157,-111.453 38.8378,-117.437 34.636,-123.388"/>
<polygon fill="black" stroke="black" points="31.545,-121.715 28.9034,-131.975 37.3668,-125.602 31.545,-121.715"/>
</g>
<!-- v2&#45;&gt;v3 -->
<g id="edge4" class="edge"><title>v2&#45;&gt;v3</title>
<path fill="none" stroke="black" d="M115.793,-52.5269C111.213,-48.9328 106.158,-44.9664 101.237,-41.105"/>
<polygon fill="black" stroke="black" points="103.217,-38.2097 93.1891,-34.7899 98.8956,-43.7167 103.217,-38.2097"/>
</g>
<!-- v4&#45;&gt;v1 -->
<g id="edge5" class="edge"><title>v4&#45;&gt;v1</title>
<path fill="none" stroke="black" d="M38.8798,-139.162C43.3238,-134.1 48.0017,-128.116 52.2035,-122.165"/>
<polygon fill="black" stroke="black" points="55.2945,-123.838 57.9361,-113.578 49.4727,-119.951 55.2945,-123.838"/>
</g>
</g>
</svg>
