<?xml version="1.0" encoding="UTF-8" standalone="no"?>
<!DOCTYPE svg PUBLIC "-//W3C//DTD SVG 1.1//EN"
 "http://www.w3.org/Graphics/SVG/1.1/DTD/svg11.dtd">
<!-- Generated by graphviz version 2.36.0 (20140111.2315)
 -->
<!-- Title: G Pages: 1 -->
<svg width="184pt" height="197pt"
 viewBox="0.00 0.00 184.40 196.66" xmlns="http://www.w3.org/2000/svg" xmlns:xlink="http://www.w3.org/1999/xlink">
<g id="graph0" class="graph" transform="scale(1 1) rotate(0) translate(4 192.657)">
<title>G</title>
<polygon fill="white" stroke="none" points="-4,4 -4,-192.657 180.403,-192.657 180.403,4 -4,4"/>
<!-- v1 -->
<g id="node1" class="node"><title>v1</title>
<ellipse fill="none" stroke="black" cx="80.5212" cy="-168.509" rx="20.2975" ry="20.2975"/>
<text text-anchor="middle" x="80.5212" y="-164.809" font-family="Helvetica,sans-Serif" font-size="14.00">v1</text>
</g>
<!-- v2 -->
<g id="node2" class="node"><title>v2</title>
<ellipse fill="none" stroke="black" cx="148.606" cy="-138.063" rx="20.2975" ry="20.2975"/>
<text text-anchor="middle" x="148.606" y="-134.363" font-family="Helvetica,sans-Serif" font-size="14.00">v2</text>
</g>
<!-- v1&#45;&gt;v2 -->
<g id="edge1" class="edge"><title>v1&#45;&gt;v2</title>
<path fill="none" stroke="black" d="M99.1257,-160.189C108.733,-155.893 120.421,-150.667 130.024,-146.372"/>
<text text-anchor="middle" x="110.575" y="-157.081" font-family="Helvetica,sans-Serif" font-size="14.00" fill="blue">2</text>
</g>
<!-- v3 -->
<g id="node3" class="node"><title>v3</title>
<ellipse fill="none" stroke="black" cx="20.1482" cy="-124.786" rx="20.2975" ry="20.2975"/>
<text text-anchor="middle" x="20.1482" y="-121.086" font-family="Helvetica,sans-Serif" font-size="14.00">v3</text>
</g>
<!-- v1&#45;&gt;v3 -->
<g id="edge2" class="edge"><title>v1&#45;&gt;v3</title>
<path fill="none" stroke="black" d="M64.024,-156.561C55.5053,-150.392 45.1413,-142.886 36.6254,-136.719"/>
<text text-anchor="middle" x="46.3247" y="-150.44" font-family="Helvetica,sans-Serif" font-size="14.00" fill="blue">4</text>
</g>
<!-- v4 -->
<g id="node4" class="node"><title>v4</title>
<ellipse fill="none" stroke="black" cx="88.2241" cy="-94.3287" rx="20.2975" ry="20.2975"/>
<text text-anchor="middle" x="88.2241" y="-90.6287" font-family="Helvetica,sans-Serif" font-size="14.00">v4</text>
</g>
<!-- v1&#45;&gt;v4 -->
<g id="edge3" class="edge"><title>v1&#45;&gt;v4</title>
<path fill="none" stroke="black" d="M82.626,-148.239C83.7129,-137.772 85.0352,-125.038 86.1218,-114.574"/>
<text text-anchor="middle" x="78.3739" y="-135.206" font-family="Helvetica,sans-Serif" font-size="14.00" fill="blue">1 </text>
</g>
<!-- v2&#45;&gt;v4 -->
<g id="edge4" class="edge"><title>v2&#45;&gt;v4</title>
<path fill="none" stroke="black" d="M132.107,-126.112C123.587,-119.941 113.221,-112.434 104.704,-106.265"/>
<text text-anchor="middle" x="114.405" y="-119.988" font-family="Helvetica,sans-Serif" font-size="14.00" fill="blue">3</text>
</g>
<!-- v5 -->
<g id="node5" class="node"><title>v5</title>
<ellipse fill="none" stroke="black" cx="156.255" cy="-63.8373" rx="20.2975" ry="20.2975"/>
<text text-anchor="middle" x="156.255" y="-60.1373" font-family="Helvetica,sans-Serif" font-size="14.00">v5</text>
</g>
<!-- v2&#45;&gt;v5 -->
<g id="edge5" class="edge"><title>v2&#45;&gt;v5</title>
<path fill="none" stroke="black" d="M150.696,-117.78C151.776,-107.307 153.089,-94.565 154.167,-84.0952"/>
<text text-anchor="middle" x="142.932" y="-104.738" font-family="Helvetica,sans-Serif" font-size="14.00" fill="blue">10 </text>
</g>
<!-- v3&#45;&gt;v4 -->
<g id="edge6" class="edge"><title>v3&#45;&gt;v4</title>
<path fill="none" stroke="black" d="M38.7502,-116.464C48.3558,-112.166 60.0422,-106.938 69.6445,-102.641"/>
<text text-anchor="middle" x="50.1974" y="-113.353" font-family="Helvetica,sans-Serif" font-size="14.00" fill="blue">2</text>
</g>
<!-- v6 -->
<g id="node6" class="node"><title>v6</title>
<ellipse fill="none" stroke="black" cx="27.7562" cy="-50.6522" rx="20.2975" ry="20.2975"/>
<text text-anchor="middle" x="27.7562" y="-46.9522" font-family="Helvetica,sans-Serif" font-size="14.00">v6</text>
</g>
<!-- v3&#45;&gt;v6 -->
<g id="edge7" class="edge"><title>v3&#45;&gt;v6</title>
<path fill="none" stroke="black" d="M22.2271,-104.529C23.3006,-94.0685 24.6067,-81.3421 25.6798,-70.8852"/>
<text text-anchor="middle" x="17.9535" y="-91.5071" font-family="Helvetica,sans-Serif" font-size="14.00" fill="blue">5 </text>
</g>
<!-- v4&#45;&gt;v5 -->
<g id="edge8" class="edge"><title>v4&#45;&gt;v5</title>
<path fill="none" stroke="black" d="M106.814,-85.9968C116.413,-81.6944 128.092,-76.4601 137.688,-72.1591"/>
<text text-anchor="middle" x="118.251" y="-82.878" font-family="Helvetica,sans-Serif" font-size="14.00" fill="blue">7</text>
</g>
<!-- v4&#45;&gt;v6 -->
<g id="edge9" class="edge"><title>v4&#45;&gt;v6</title>
<path fill="none" stroke="black" d="M71.701,-82.3939C63.1689,-76.2311 52.7886,-68.7333 44.2594,-62.5725"/>
<text text-anchor="middle" x="53.9802" y="-76.2832" font-family="Helvetica,sans-Serif" font-size="14.00" fill="blue">8</text>
</g>
<!-- v7 -->
<g id="node7" class="node"><title>v7</title>
<ellipse fill="none" stroke="black" cx="95.7837" cy="-20.1482" rx="20.2975" ry="20.2975"/>
<text text-anchor="middle" x="95.7837" y="-16.4482" font-family="Helvetica,sans-Serif" font-size="14.00">v7</text>
</g>
<!-- v4&#45;&gt;v7 -->
<g id="edge10" class="edge"><title>v4&#45;&gt;v7</title>
<path fill="none" stroke="black" d="M90.2898,-74.0585C91.3564,-63.5916 92.6542,-50.8573 93.7205,-40.3938"/>
<text text-anchor="middle" x="86.0051" y="-61.0262" font-family="Helvetica,sans-Serif" font-size="14.00" fill="blue">4 </text>
</g>
<!-- v5&#45;&gt;v7 -->
<g id="edge11" class="edge"><title>v5&#45;&gt;v7</title>
<path fill="none" stroke="black" d="M139.731,-51.8991C131.198,-45.7345 120.817,-38.2345 112.288,-32.072"/>
<text text-anchor="middle" x="122.009" y="-45.7856" font-family="Helvetica,sans-Serif" font-size="14.00" fill="blue">6</text>
</g>
<!-- v6&#45;&gt;v7 -->
<g id="edge12" class="edge"><title>v6&#45;&gt;v7</title>
<path fill="none" stroke="black" d="M46.345,-42.3168C55.9438,-38.0127 67.6218,-32.7762 77.2174,-28.4735"/>
<text text-anchor="middle" x="57.7812" y="-39.1951" font-family="Helvetica,sans-Serif" font-size="14.00" fill="blue">1</text>
</g>
</g>
</svg>
