<?xml version="1.0" encoding="UTF-8" standalone="no"?>
<!DOCTYPE svg PUBLIC "-//W3C//DTD SVG 1.1//EN"
 "http://www.w3.org/Graphics/SVG/1.1/DTD/svg11.dtd">
<!-- Generated by graphviz version 2.36.0 (20140111.2315)
 -->
<!-- Title: G Pages: 1 -->
<svg width="80pt" height="72pt"
 viewBox="0.00 0.00 80.00 72.00" xmlns="http://www.w3.org/2000/svg" xmlns:xlink="http://www.w3.org/1999/xlink">
<g id="graph0" class="graph" transform="scale(1 1) rotate(0) translate(4 68)">
<title>G</title>
<polygon fill="white" stroke="none" points="-4,4 -4,-68 76,-68 76,4 -4,4"/>
<!-- 5 -->
<g id="node1" class="node"><title>5</title>
<ellipse fill="none" stroke="black" cx="7" cy="-7" rx="6.5" ry="7"/>
</g>
<!-- m11 -->
<!-- 5&#45;&gt;m11 -->
<!-- 11 -->
<g id="node2" class="node"><title>11</title>
<ellipse fill="none" stroke="black" cx="36" cy="-57" rx="6.5" ry="7"/>
</g>
<!-- 11&#45;&gt;5 -->
<g id="edge1" class="edge"><title>11&#45;&gt;5</title>
<path fill="none" stroke="black" d="M32.6733,-50.4938C28.4774,-43.5487 21.114,-31.3612 15.346,-21.814"/>
<polygon fill="black" stroke="black" points="18.279,-19.9003 10.1121,-13.1511 12.2876,-23.5202 18.279,-19.9003"/>
</g>
<!-- 21 -->
<g id="node3" class="node"><title>21</title>
<ellipse fill="none" stroke="black" cx="65" cy="-7" rx="6.5" ry="7"/>
</g>
<!-- 11&#45;&gt;21 -->
<g id="edge3" class="edge"><title>11&#45;&gt;21</title>
<path fill="none" stroke="black" d="M39.3267,-50.4938C43.5226,-43.5487 50.886,-31.3612 56.654,-21.814"/>
<polygon fill="black" stroke="black" points="59.7124,-23.5202 61.8879,-13.1511 53.721,-19.9003 59.7124,-23.5202"/>
</g>
<!-- 11&#45;&gt;m11 -->
<!-- m11&#45;&gt;21 -->
</g>
</svg>
