<?xml version="1.0" encoding="UTF-8" standalone="no"?>
<!DOCTYPE svg PUBLIC "-//W3C//DTD SVG 1.1//EN"
 "http://www.w3.org/Graphics/SVG/1.1/DTD/svg11.dtd">
<!-- Generated by graphviz version 2.36.0 (20140111.2315)
 -->
<!-- Title: G Pages: 1 -->
<svg width="199pt" height="172pt"
 viewBox="0.00 0.00 199.00 172.00" xmlns="http://www.w3.org/2000/svg" xmlns:xlink="http://www.w3.org/1999/xlink">
<g id="graph0" class="graph" transform="scale(1 1) rotate(0) translate(4 168)">
<title>G</title>
<polygon fill="white" stroke="none" points="-4,4 -4,-168 195,-168 195,4 -4,4"/>
<!-- 5 -->
<g id="node1" class="node"><title>5</title>
<ellipse fill="none" stroke="black" cx="66" cy="-107" rx="6.5" ry="7"/>
</g>
<!-- 2 -->
<g id="node3" class="node"><title>2</title>
<ellipse fill="none" stroke="black" cx="36" cy="-57" rx="6.5" ry="7"/>
</g>
<!-- 5&#45;&gt;2 -->
<g id="edge6" class="edge"><title>5&#45;&gt;2</title>
<path fill="none" stroke="black" d="M62.7895,-100.863C58.4815,-93.9705 50.6689,-81.4702 44.588,-71.7408"/>
<polygon fill="black" stroke="black" points="47.5464,-69.8704 39.2784,-63.2454 41.6104,-73.5804 47.5464,-69.8704"/>
</g>
<!-- 9 -->
<g id="node4" class="node"><title>9</title>
<ellipse fill="none" stroke="black" cx="94" cy="-57" rx="6.5" ry="7"/>
</g>
<!-- 5&#45;&gt;9 -->
<g id="edge8" class="edge"><title>5&#45;&gt;9</title>
<path fill="none" stroke="black" d="M69.212,-100.494C73.2206,-93.6218 80.2233,-81.6172 85.7655,-72.1164"/>
<polygon fill="black" stroke="black" points="88.81,-73.8434 90.8255,-63.442 82.7635,-70.3162 88.81,-73.8434"/>
</g>
<!-- m11 -->
<!-- 5&#45;&gt;m11 -->
<!-- m5 -->
<!-- 5&#45;&gt;m5 -->
<!-- 11 -->
<g id="node2" class="node"><title>11</title>
<ellipse fill="none" stroke="black" cx="96" cy="-157" rx="6.5" ry="7"/>
</g>
<!-- 11&#45;&gt;5 -->
<g id="edge1" class="edge"><title>11&#45;&gt;5</title>
<path fill="none" stroke="black" d="M92.7895,-150.863C88.4815,-143.97 80.6689,-131.47 74.588,-121.741"/>
<polygon fill="black" stroke="black" points="77.5464,-119.87 69.2784,-113.245 71.6104,-123.58 77.5464,-119.87"/>
</g>
<!-- 21 -->
<g id="node8" class="node"><title>21</title>
<ellipse fill="none" stroke="black" cx="140" cy="-107" rx="6.5" ry="7"/>
</g>
<!-- 11&#45;&gt;21 -->
<g id="edge3" class="edge"><title>11&#45;&gt;21</title>
<path fill="none" stroke="black" d="M100.38,-151.222C106.97,-144.033 119.648,-130.202 128.894,-120.116"/>
<polygon fill="black" stroke="black" points="131.718,-122.215 135.895,-112.478 126.558,-117.485 131.718,-122.215"/>
</g>
<!-- 11&#45;&gt;m11 -->
<!-- 1 -->
<g id="node5" class="node"><title>1</title>
<ellipse fill="none" stroke="black" cx="7" cy="-7" rx="6.5" ry="7"/>
</g>
<!-- 2&#45;&gt;1 -->
<g id="edge11" class="edge"><title>2&#45;&gt;1</title>
<path fill="none" stroke="black" d="M32.6733,-50.4938C28.4774,-43.5487 21.114,-31.3612 15.346,-21.814"/>
<polygon fill="black" stroke="black" points="18.279,-19.9003 10.1121,-13.1511 12.2876,-23.5202 18.279,-19.9003"/>
</g>
<!-- 3 -->
<g id="node6" class="node"><title>3</title>
<ellipse fill="none" stroke="black" cx="65" cy="-7" rx="6.5" ry="7"/>
</g>
<!-- 2&#45;&gt;3 -->
<g id="edge13" class="edge"><title>2&#45;&gt;3</title>
<path fill="none" stroke="black" d="M39.3267,-50.4938C43.5226,-43.5487 50.886,-31.3612 56.654,-21.814"/>
<polygon fill="black" stroke="black" points="59.7124,-23.5202 61.8879,-13.1511 53.721,-19.9003 59.7124,-23.5202"/>
</g>
<!-- 2&#45;&gt;m5 -->
<!-- m2 -->
<!-- 2&#45;&gt;m2 -->
<!-- 1&#45;&gt;m2 -->
<!-- 16 -->
<g id="node7" class="node"><title>16</title>
<ellipse fill="none" stroke="black" cx="126" cy="-57" rx="6.5" ry="7"/>
</g>
<!-- m21 -->
<!-- 16&#45;&gt;m21 -->
<!-- 21&#45;&gt;16 -->
<g id="edge16" class="edge"><title>21&#45;&gt;16</title>
<path fill="none" stroke="black" d="M138.283,-100.114C136.373,-93.5648 133.208,-82.7123 130.569,-73.6646"/>
<polygon fill="black" stroke="black" points="133.891,-72.5539 127.731,-63.9339 127.171,-74.5139 133.891,-72.5539"/>
</g>
<!-- 25 -->
<g id="node9" class="node"><title>25</title>
<ellipse fill="none" stroke="black" cx="184" cy="-57" rx="6.5" ry="7"/>
</g>
<!-- 21&#45;&gt;25 -->
<g id="edge18" class="edge"><title>21&#45;&gt;25</title>
<path fill="none" stroke="black" d="M144.38,-101.222C150.97,-94.0326 163.648,-80.2017 172.894,-70.116"/>
<polygon fill="black" stroke="black" points="175.718,-72.2146 179.895,-62.478 170.558,-67.4845 175.718,-72.2146"/>
</g>
<!-- 21&#45;&gt;m21 -->
<!-- m11&#45;&gt;21 -->
<!-- m5&#45;&gt;9 -->
<!-- m2&#45;&gt;3 -->
<!-- m21&#45;&gt;25 -->
</g>
</svg>
