<?xml version="1.0" encoding="UTF-8" standalone="no"?>
<!DOCTYPE svg PUBLIC "-//W3C//DTD SVG 1.1//EN"
 "http://www.w3.org/Graphics/SVG/1.1/DTD/svg11.dtd">
<!-- Generated by graphviz version 2.36.0 (20140111.2315)
 -->
<!-- Title: G Pages: 1 -->
<svg width="326pt" height="294pt"
 viewBox="0.00 0.00 326.00 294.00" xmlns="http://www.w3.org/2000/svg" xmlns:xlink="http://www.w3.org/1999/xlink">
<g id="graph0" class="graph" transform="scale(1 1) rotate(0) translate(4 290)">
<title>G</title>
<polygon fill="white" stroke="none" points="-4,4 -4,-290 322,-290 322,4 -4,4"/>
<!-- 15 -->
<g id="node1" class="node"><title>15</title>
<ellipse fill="none" stroke="black" cx="163" cy="-264" rx="21.25" ry="21.5"/>
<text text-anchor="middle" x="163" y="-260.3" font-family="Helvetica,sans-Serif" font-size="14.00">15</text>
</g>
<!-- 20 -->
<g id="node2" class="node"><title>20</title>
<ellipse fill="none" stroke="black" cx="111" cy="-184" rx="21.25" ry="21.5"/>
<text text-anchor="middle" x="111" y="-180.3" font-family="Helvetica,sans-Serif" font-size="14.00">20</text>
</g>
<!-- 15&#45;&gt;20 -->
<g id="edge1" class="edge"><title>15&#45;&gt;20</title>
<path fill="none" stroke="black" d="M151.46,-245.689C144.593,-235.389 135.753,-222.129 128.088,-210.632"/>
<polygon fill="black" stroke="black" points="130.967,-208.641 122.508,-202.262 125.143,-212.524 130.967,-208.641"/>
</g>
<!-- m15 -->
<!-- 15&#45;&gt;m15 -->
<!-- 65 -->
<g id="node4" class="node"><title>65</title>
<ellipse fill="none" stroke="black" cx="211" cy="-184" rx="21.25" ry="21.5"/>
<text text-anchor="middle" x="211" y="-180.3" font-family="Helvetica,sans-Serif" font-size="14.00">65</text>
</g>
<!-- 15&#45;&gt;65 -->
<g id="edge3" class="edge"><title>15&#45;&gt;65</title>
<path fill="none" stroke="black" d="M173.892,-245.301C180.09,-235.228 187.972,-222.421 194.875,-211.203"/>
<polygon fill="black" stroke="black" points="197.891,-212.98 200.151,-202.629 191.929,-209.312 197.891,-212.98"/>
</g>
<!-- 20&#45;&gt;m15 -->
<!-- 40 -->
<g id="node5" class="node"><title>40</title>
<ellipse fill="none" stroke="black" cx="64" cy="-104" rx="21.25" ry="21.5"/>
<text text-anchor="middle" x="64" y="-100.3" font-family="Helvetica,sans-Serif" font-size="14.00">40</text>
</g>
<!-- 20&#45;&gt;40 -->
<g id="edge6" class="edge"><title>20&#45;&gt;40</title>
<path fill="none" stroke="black" d="M100.335,-165.301C94.2656,-155.228 86.5486,-142.421 79.7889,-131.203"/>
<polygon fill="black" stroke="black" points="82.7818,-129.388 74.6228,-122.629 76.7861,-133.001 82.7818,-129.388"/>
</g>
<!-- m20 -->
<!-- 20&#45;&gt;m20 -->
<!-- 60 -->
<g id="node7" class="node"><title>60</title>
<ellipse fill="none" stroke="black" cx="150" cy="-104" rx="21.25" ry="21.5"/>
<text text-anchor="middle" x="150" y="-100.3" font-family="Helvetica,sans-Serif" font-size="14.00">60</text>
</g>
<!-- 20&#45;&gt;60 -->
<g id="edge8" class="edge"><title>20&#45;&gt;60</title>
<path fill="none" stroke="black" d="M120.242,-164.515C124.968,-155.064 130.817,-143.367 136.075,-132.85"/>
<polygon fill="black" stroke="black" points="139.347,-134.132 140.689,-123.623 133.086,-131.002 139.347,-134.132"/>
</g>
<!-- m15&#45;&gt;65 -->
<!-- 65&#45;&gt;m15 -->
<!-- 85 -->
<g id="node11" class="node"><title>85</title>
<ellipse fill="none" stroke="black" cx="211" cy="-104" rx="21.25" ry="21.5"/>
<text text-anchor="middle" x="211" y="-100.3" font-family="Helvetica,sans-Serif" font-size="14.00">85</text>
</g>
<!-- 65&#45;&gt;85 -->
<g id="edge16" class="edge"><title>65&#45;&gt;85</title>
<path fill="none" stroke="black" d="M211,-162.097C211,-154.077 211,-144.744 211,-135.977"/>
<polygon fill="black" stroke="black" points="214.5,-135.69 211,-125.69 207.5,-135.69 214.5,-135.69"/>
</g>
<!-- 99 -->
<g id="node13" class="node"><title>99</title>
<ellipse fill="none" stroke="black" cx="297" cy="-104" rx="21.25" ry="21.5"/>
<text text-anchor="middle" x="297" y="-100.3" font-family="Helvetica,sans-Serif" font-size="14.00">99</text>
</g>
<!-- 65&#45;&gt;99 -->
<g id="edge18" class="edge"><title>65&#45;&gt;99</title>
<path fill="none" stroke="black" d="M226.375,-169.055C239.623,-157.04 258.937,-139.522 274.021,-125.842"/>
<polygon fill="black" stroke="black" points="276.412,-128.398 281.468,-119.087 271.709,-123.213 276.412,-128.398"/>
</g>
<!-- 40&#45;&gt;m20 -->
<!-- 50 -->
<g id="node8" class="node"><title>50</title>
<ellipse fill="none" stroke="black" cx="21" cy="-23" rx="21.25" ry="21.5"/>
<text text-anchor="middle" x="21" y="-19.3" font-family="Helvetica,sans-Serif" font-size="14.00">50</text>
</g>
<!-- 40&#45;&gt;50 -->
<g id="edge11" class="edge"><title>40&#45;&gt;50</title>
<path fill="none" stroke="black" d="M54.0269,-84.6772C48.5997,-74.7064 41.7813,-62.1796 35.7512,-51.101"/>
<polygon fill="black" stroke="black" points="38.774,-49.3333 30.9191,-42.2234 32.6257,-52.6799 38.774,-49.3333"/>
</g>
<!-- m40 -->
<!-- 40&#45;&gt;m40 -->
<!-- 700 -->
<g id="node10" class="node"><title>700</title>
<ellipse fill="none" stroke="black" cx="109" cy="-23" rx="23.1186" ry="23.1582"/>
<text text-anchor="middle" x="109" y="-19.3" font-family="Helvetica,sans-Serif" font-size="14.00">700</text>
</g>
<!-- 40&#45;&gt;700 -->
<g id="edge13" class="edge"><title>40&#45;&gt;700</title>
<path fill="none" stroke="black" d="M74.2112,-85.0737C79.7216,-75.3998 86.6506,-63.2356 92.8714,-52.3147"/>
<polygon fill="black" stroke="black" points="95.9753,-53.937 97.8836,-43.5154 89.8928,-50.4723 95.9753,-53.937"/>
</g>
<!-- m20&#45;&gt;60 -->
<!-- 50&#45;&gt;m40 -->
<!-- m40&#45;&gt;700 -->
<!-- m65 -->
<!-- 85&#45;&gt;m65 -->
<!-- m65&#45;&gt;99 -->
</g>
</svg>
