<?xml version="1.0" encoding="UTF-8" standalone="no"?>
<!DOCTYPE svg PUBLIC "-//W3C//DTD SVG 1.1//EN"
 "http://www.w3.org/Graphics/SVG/1.1/DTD/svg11.dtd">
<!-- Generated by graphviz version 2.36.0 (20140111.2315)
 -->
<!-- Title: G Pages: 1 -->
<svg width="577pt" height="292pt"
 viewBox="0.00 0.00 577.00 292.00" xmlns="http://www.w3.org/2000/svg" xmlns:xlink="http://www.w3.org/1999/xlink">
<g id="graph0" class="graph" transform="scale(1 1) rotate(0) translate(4 288)">
<title>G</title>
<polygon fill="white" stroke="none" points="-4,4 -4,-288 573,-288 573,4 -4,4"/>
<!-- 11 -->
<g id="node1" class="node"><title>11</title>
<ellipse fill="none" stroke="black" cx="284" cy="-262" rx="21.25" ry="21.5"/>
<text text-anchor="middle" x="284" y="-258.3" font-family="Helvetica,sans-Serif" font-size="14.00">11</text>
</g>
<!-- 5 -->
<g id="node2" class="node"><title>5</title>
<ellipse fill="none" stroke="black" cx="189" cy="-182" rx="21.25" ry="21.5"/>
<text text-anchor="middle" x="189" y="-178.3" font-family="Helvetica,sans-Serif" font-size="14.00">5</text>
</g>
<!-- 11&#45;&gt;5 -->
<g id="edge1" class="edge"><title>11&#45;&gt;5</title>
<path fill="none" stroke="black" d="M267.885,-247.768C252.872,-235.442 230.288,-216.9 213.127,-202.809"/>
<polygon fill="black" stroke="black" points="215.144,-199.937 205.195,-196.297 210.702,-205.347 215.144,-199.937"/>
</g>
<!-- m11 -->
<!-- 11&#45;&gt;m11 -->
<!-- 21 -->
<g id="node4" class="node"><title>21</title>
<ellipse fill="none" stroke="black" cx="379" cy="-182" rx="21.25" ry="21.5"/>
<text text-anchor="middle" x="379" y="-178.3" font-family="Helvetica,sans-Serif" font-size="14.00">21</text>
</g>
<!-- 11&#45;&gt;21 -->
<g id="edge3" class="edge"><title>11&#45;&gt;21</title>
<path fill="none" stroke="black" d="M300.115,-247.768C315.128,-235.442 337.712,-216.9 354.873,-202.809"/>
<polygon fill="black" stroke="black" points="357.298,-205.347 362.805,-196.297 352.856,-199.937 357.298,-205.347"/>
</g>
<!-- 5&#45;&gt;m11 -->
<!-- 2 -->
<g id="node5" class="node"><title>2</title>
<ellipse fill="none" stroke="black" cx="86" cy="-102" rx="21.25" ry="21.5"/>
<text text-anchor="middle" x="86" y="-98.3" font-family="Helvetica,sans-Serif" font-size="14.00">2</text>
</g>
<!-- 5&#45;&gt;2 -->
<g id="edge6" class="edge"><title>5&#45;&gt;2</title>
<path fill="none" stroke="black" d="M172.451,-168.468C155.807,-155.864 129.941,-136.276 110.836,-121.808"/>
<polygon fill="black" stroke="black" points="112.935,-119.007 102.85,-115.76 108.709,-124.587 112.935,-119.007"/>
</g>
<!-- m5 -->
<!-- 5&#45;&gt;m5 -->
<!-- 9 -->
<g id="node7" class="node"><title>9</title>
<ellipse fill="none" stroke="black" cx="211" cy="-102" rx="21.25" ry="21.5"/>
<text text-anchor="middle" x="211" y="-98.3" font-family="Helvetica,sans-Serif" font-size="14.00">9</text>
</g>
<!-- 5&#45;&gt;9 -->
<g id="edge8" class="edge"><title>5&#45;&gt;9</title>
<path fill="none" stroke="black" d="M194.666,-160.913C197.096,-152.294 199.986,-142.05 202.654,-132.591"/>
<polygon fill="black" stroke="black" points="206.084,-133.323 205.43,-122.749 199.347,-131.423 206.084,-133.323"/>
</g>
<!-- m11&#45;&gt;21 -->
<!-- 16 -->
<g id="node14" class="node"><title>16</title>
<ellipse fill="none" stroke="black" cx="358" cy="-102" rx="21.25" ry="21.5"/>
<text text-anchor="middle" x="358" y="-98.3" font-family="Helvetica,sans-Serif" font-size="14.00">16</text>
</g>
<!-- 21&#45;&gt;16 -->
<g id="edge21" class="edge"><title>21&#45;&gt;16</title>
<path fill="none" stroke="black" d="M373.592,-160.913C371.289,-152.361 368.556,-142.207 366.026,-132.809"/>
<polygon fill="black" stroke="black" points="369.369,-131.765 363.39,-123.019 362.61,-133.585 369.369,-131.765"/>
</g>
<!-- m21 -->
<!-- 21&#45;&gt;m21 -->
<!-- 25 -->
<g id="node16" class="node"><title>25</title>
<ellipse fill="none" stroke="black" cx="483" cy="-102" rx="21.25" ry="21.5"/>
<text text-anchor="middle" x="483" y="-98.3" font-family="Helvetica,sans-Serif" font-size="14.00">25</text>
</g>
<!-- 21&#45;&gt;25 -->
<g id="edge23" class="edge"><title>21&#45;&gt;25</title>
<path fill="none" stroke="black" d="M395.709,-168.468C412.615,-155.789 438.944,-136.042 458.267,-121.55"/>
<polygon fill="black" stroke="black" points="460.432,-124.301 466.332,-115.501 456.232,-118.701 460.432,-124.301"/>
</g>
<!-- 2&#45;&gt;m5 -->
<!-- 1 -->
<g id="node8" class="node"><title>1</title>
<ellipse fill="none" stroke="black" cx="21" cy="-22" rx="21.25" ry="21.5"/>
<text text-anchor="middle" x="21" y="-18.3" font-family="Helvetica,sans-Serif" font-size="14.00">1</text>
</g>
<!-- 2&#45;&gt;1 -->
<g id="edge11" class="edge"><title>2&#45;&gt;1</title>
<path fill="none" stroke="black" d="M72.532,-84.8383C63.3199,-73.7838 50.9579,-58.9495 40.651,-46.5812"/>
<polygon fill="black" stroke="black" points="43.3191,-44.3156 34.2284,-38.8741 37.9415,-48.797 43.3191,-44.3156"/>
</g>
<!-- m2 -->
<!-- 2&#45;&gt;m2 -->
<!-- 3 -->
<g id="node10" class="node"><title>3</title>
<ellipse fill="none" stroke="black" cx="107" cy="-22" rx="21.25" ry="21.5"/>
<text text-anchor="middle" x="107" y="-18.3" font-family="Helvetica,sans-Serif" font-size="14.00">3</text>
</g>
<!-- 2&#45;&gt;3 -->
<g id="edge13" class="edge"><title>2&#45;&gt;3</title>
<path fill="none" stroke="black" d="M91.408,-80.9131C93.7106,-72.3608 96.4442,-62.2074 98.9745,-52.8091"/>
<polygon fill="black" stroke="black" points="102.39,-53.585 101.61,-43.0189 95.6308,-51.7651 102.39,-53.585"/>
</g>
<!-- m5&#45;&gt;9 -->
<!-- 7 -->
<g id="node11" class="node"><title>7</title>
<ellipse fill="none" stroke="black" cx="168" cy="-22" rx="21.25" ry="21.5"/>
<text text-anchor="middle" x="168" y="-18.3" font-family="Helvetica,sans-Serif" font-size="14.00">7</text>
</g>
<!-- 9&#45;&gt;7 -->
<g id="edge16" class="edge"><title>9&#45;&gt;7</title>
<path fill="none" stroke="black" d="M201.027,-82.9092C195.692,-73.2326 189.014,-61.1179 183.061,-50.3193"/>
<polygon fill="black" stroke="black" points="185.961,-48.3306 178.068,-41.2629 179.831,-51.7101 185.961,-48.3306"/>
</g>
<!-- m9 -->
<!-- 9&#45;&gt;m9 -->
<!-- 10 -->
<g id="node13" class="node"><title>10</title>
<ellipse fill="none" stroke="black" cx="254" cy="-22" rx="21.25" ry="21.5"/>
<text text-anchor="middle" x="254" y="-18.3" font-family="Helvetica,sans-Serif" font-size="14.00">10</text>
</g>
<!-- 9&#45;&gt;10 -->
<g id="edge18" class="edge"><title>9&#45;&gt;10</title>
<path fill="none" stroke="black" d="M220.973,-82.9092C226.308,-73.2326 232.986,-61.1179 238.939,-50.3193"/>
<polygon fill="black" stroke="black" points="242.169,-51.7101 243.932,-41.2629 236.039,-48.3306 242.169,-51.7101"/>
</g>
<!-- 1&#45;&gt;m2 -->
<!-- m2&#45;&gt;3 -->
<!-- 7&#45;&gt;m9 -->
<!-- m9&#45;&gt;10 -->
<!-- 16&#45;&gt;m21 -->
<!-- 13 -->
<g id="node17" class="node"><title>13</title>
<ellipse fill="none" stroke="black" cx="315" cy="-22" rx="21.25" ry="21.5"/>
<text text-anchor="middle" x="315" y="-18.3" font-family="Helvetica,sans-Serif" font-size="14.00">13</text>
</g>
<!-- 16&#45;&gt;13 -->
<g id="edge26" class="edge"><title>16&#45;&gt;13</title>
<path fill="none" stroke="black" d="M348.027,-82.9092C342.692,-73.2326 336.014,-61.1179 330.061,-50.3193"/>
<polygon fill="black" stroke="black" points="332.961,-48.3306 325.068,-41.2629 326.831,-51.7101 332.961,-48.3306"/>
</g>
<!-- m16 -->
<!-- 16&#45;&gt;m16 -->
<!-- 19 -->
<g id="node19" class="node"><title>19</title>
<ellipse fill="none" stroke="black" cx="401" cy="-22" rx="21.25" ry="21.5"/>
<text text-anchor="middle" x="401" y="-18.3" font-family="Helvetica,sans-Serif" font-size="14.00">19</text>
</g>
<!-- 16&#45;&gt;19 -->
<g id="edge28" class="edge"><title>16&#45;&gt;19</title>
<path fill="none" stroke="black" d="M367.973,-82.9092C373.308,-73.2326 379.986,-61.1179 385.939,-50.3193"/>
<polygon fill="black" stroke="black" points="389.169,-51.7101 390.932,-41.2629 383.039,-48.3306 389.169,-51.7101"/>
</g>
<!-- m21&#45;&gt;25 -->
<!-- 22 -->
<g id="node20" class="node"><title>22</title>
<ellipse fill="none" stroke="black" cx="462" cy="-22" rx="21.25" ry="21.5"/>
<text text-anchor="middle" x="462" y="-18.3" font-family="Helvetica,sans-Serif" font-size="14.00">22</text>
</g>
<!-- 25&#45;&gt;22 -->
<g id="edge31" class="edge"><title>25&#45;&gt;22</title>
<path fill="none" stroke="black" d="M477.592,-80.9131C475.289,-72.3608 472.556,-62.2074 470.026,-52.8091"/>
<polygon fill="black" stroke="black" points="473.369,-51.7651 467.39,-43.0189 466.61,-53.585 473.369,-51.7651"/>
</g>
<!-- m25 -->
<!-- 25&#45;&gt;m25 -->
<!-- 30 -->
<g id="node22" class="node"><title>30</title>
<ellipse fill="none" stroke="black" cx="548" cy="-22" rx="21.25" ry="21.5"/>
<text text-anchor="middle" x="548" y="-18.3" font-family="Helvetica,sans-Serif" font-size="14.00">30</text>
</g>
<!-- 25&#45;&gt;30 -->
<g id="edge33" class="edge"><title>25&#45;&gt;30</title>
<path fill="none" stroke="black" d="M496.468,-84.8383C505.68,-73.7838 518.042,-58.9495 528.349,-46.5812"/>
<polygon fill="black" stroke="black" points="531.059,-48.797 534.772,-38.8741 525.681,-44.3156 531.059,-48.797"/>
</g>
<!-- 13&#45;&gt;m16 -->
<!-- m16&#45;&gt;19 -->
<!-- 22&#45;&gt;m25 -->
<!-- m25&#45;&gt;30 -->
</g>
</svg>
