<?xml version="1.0" encoding="UTF-8" standalone="no"?>
<!DOCTYPE svg PUBLIC "-//W3C//DTD SVG 1.1//EN"
 "http://www.w3.org/Graphics/SVG/1.1/DTD/svg11.dtd">
<!-- Generated by graphviz version 2.36.0 (20140111.2315)
 -->
<!-- Title: G Pages: 1 -->
<svg width="179pt" height="212pt"
 viewBox="0.00 0.00 179.00 212.00" xmlns="http://www.w3.org/2000/svg" xmlns:xlink="http://www.w3.org/1999/xlink">
<g id="graph0" class="graph" transform="scale(1 1) rotate(0) translate(4 208)">
<title>G</title>
<polygon fill="white" stroke="none" points="-4,4 -4,-208 175,-208 175,4 -4,4"/>
<!-- 10 -->
<g id="node1" class="node"><title>10</title>
<ellipse fill="none" stroke="black" cx="107" cy="-182" rx="21.25" ry="21.5"/>
<text text-anchor="middle" x="107" y="-178.3" font-family="Helvetica,sans-Serif" font-size="14.00">10</text>
</g>
<!-- 20 -->
<g id="node2" class="node"><title>20</title>
<ellipse fill="none" stroke="red" cx="64" cy="-102" rx="21.25" ry="21.5"/>
<text text-anchor="middle" x="64" y="-98.3" font-family="Helvetica,sans-Serif" font-size="14.00">20</text>
</g>
<!-- 10&#45;&gt;20 -->
<g id="edge1" class="edge"><title>10&#45;&gt;20</title>
<path fill="none" stroke="black" d="M97.0269,-162.909C91.6924,-153.233 85.0137,-141.118 79.0607,-130.319"/>
<polygon fill="black" stroke="black" points="81.961,-128.331 74.068,-121.263 75.8308,-131.71 81.961,-128.331"/>
</g>
<!-- m10 -->
<!-- 10&#45;&gt;m10 -->
<!-- 80 -->
<g id="node4" class="node"><title>80</title>
<ellipse fill="none" stroke="black" cx="150" cy="-102" rx="21.25" ry="21.5"/>
<text text-anchor="middle" x="150" y="-98.3" font-family="Helvetica,sans-Serif" font-size="14.00">80</text>
</g>
<!-- 10&#45;&gt;80 -->
<g id="edge3" class="edge"><title>10&#45;&gt;80</title>
<path fill="none" stroke="black" d="M116.973,-162.909C122.308,-153.233 128.986,-141.118 134.939,-130.319"/>
<polygon fill="black" stroke="black" points="138.169,-131.71 139.932,-121.263 132.039,-128.331 138.169,-131.71"/>
</g>
<!-- 20&#45;&gt;m10 -->
<!-- 15 -->
<g id="node5" class="node"><title>15</title>
<ellipse fill="none" stroke="red" cx="107" cy="-22" rx="21.25" ry="21.5"/>
<text text-anchor="middle" x="107" y="-18.3" font-family="Helvetica,sans-Serif" font-size="14.00">15</text>
</g>
<!-- 20&#45;&gt;15 -->
<g id="edge8" class="edge"><title>20&#45;&gt;15</title>
<path fill="none" stroke="red" d="M73.9731,-82.9092C79.3076,-73.2326 85.9863,-61.1179 91.9393,-50.3193"/>
<polygon fill="red" stroke="red" points="95.1692,-51.7101 96.932,-41.2629 89.039,-48.3306 95.1692,-51.7101"/>
</g>
<!-- 30 -->
<g id="node6" class="node"><title>30</title>
<ellipse fill="none" stroke="black" cx="21" cy="-22" rx="21.25" ry="21.5"/>
<text text-anchor="middle" x="21" y="-18.3" font-family="Helvetica,sans-Serif" font-size="14.00">30</text>
</g>
<!-- 20&#45;&gt;30 -->
<g id="edge6" class="edge"><title>20&#45;&gt;30</title>
<path fill="none" stroke="black" d="M54.0269,-82.9092C48.6924,-73.2326 42.0137,-61.1179 36.0607,-50.3193"/>
<polygon fill="black" stroke="black" points="38.961,-48.3306 31.068,-41.2629 32.8308,-51.7101 38.961,-48.3306"/>
</g>
<!-- m20 -->
<!-- 20&#45;&gt;m20 -->
<!-- m10&#45;&gt;80 -->
<!-- 30&#45;&gt;m20 -->
<!-- m20&#45;&gt;15 -->
</g>
</svg>
