<?xml version="1.0" encoding="UTF-8" standalone="no"?>
<!DOCTYPE svg PUBLIC "-//W3C//DTD SVG 1.1//EN"
 "http://www.w3.org/Graphics/SVG/1.1/DTD/svg11.dtd">
<!-- Generated by graphviz version 2.36.0 (20140111.2315)
 -->
<!-- Title: G Pages: 1 -->
<svg width="483pt" height="307pt"
 viewBox="0.00 0.00 482.50 306.50" xmlns="http://www.w3.org/2000/svg" xmlns:xlink="http://www.w3.org/1999/xlink">
<g id="graph0" class="graph" transform="scale(1 1) rotate(0) translate(4 302.5)">
<title>G</title>
<polygon fill="white" stroke="none" points="-4,4 -4,-302.5 478.5,-302.5 478.5,4 -4,4"/>
<!-- A -->
<g id="node1" class="node"><title>A</title>
<ellipse fill="none" stroke="black" cx="286.5" cy="-262" rx="21.25" ry="21.5"/>
<text text-anchor="middle" x="286.5" y="-258.3" font-family="Helvetica,sans-Serif" font-size="14.00">A</text>
<text text-anchor="middle" x="261" y="-287.3" font-family="Helvetica,sans-Serif" font-size="14.00">1</text>
</g>
<!-- B -->
<g id="node2" class="node"><title>B</title>
<ellipse fill="none" stroke="black" cx="197.5" cy="-182" rx="21.25" ry="21.5"/>
<text text-anchor="middle" x="197.5" y="-178.3" font-family="Helvetica,sans-Serif" font-size="14.00">B</text>
<text text-anchor="middle" x="172" y="-207.3" font-family="Helvetica,sans-Serif" font-size="14.00">2</text>
</g>
<!-- A&#45;&gt;B -->
<g id="edge1" class="edge"><title>A&#45;&gt;B</title>
<path fill="none" stroke="black" d="M270.589,-247.055C256.794,-234.965 236.642,-217.304 220.991,-203.587"/>
<polygon fill="black" stroke="black" points="223.101,-200.783 213.274,-196.824 218.487,-206.047 223.101,-200.783"/>
</g>
<!-- C -->
<g id="node3" class="node"><title>C</title>
<ellipse fill="none" stroke="black" cx="381.5" cy="-182" rx="21.25" ry="21.5"/>
<text text-anchor="middle" x="381.5" y="-178.3" font-family="Helvetica,sans-Serif" font-size="14.00">C</text>
<text text-anchor="middle" x="356" y="-207.3" font-family="Helvetica,sans-Serif" font-size="14.00">3</text>
</g>
<!-- A&#45;&gt;C -->
<g id="edge3" class="edge"><title>A&#45;&gt;C</title>
<path fill="none" stroke="black" d="M302.615,-247.768C317.628,-235.442 340.212,-216.9 357.373,-202.809"/>
<polygon fill="black" stroke="black" points="359.798,-205.347 365.305,-196.297 355.356,-199.937 359.798,-205.347"/>
</g>
<!-- mA -->
<!-- A&#45;&gt;mA -->
<!-- D -->
<g id="node4" class="node"><title>D</title>
<ellipse fill="none" stroke="black" cx="94.5" cy="-102" rx="21.25" ry="21.5"/>
<text text-anchor="middle" x="94.5" y="-98.3" font-family="Helvetica,sans-Serif" font-size="14.00">D</text>
<text text-anchor="middle" x="69" y="-127.3" font-family="Helvetica,sans-Serif" font-size="14.00">4</text>
</g>
<!-- B&#45;&gt;D -->
<g id="edge6" class="edge"><title>B&#45;&gt;D</title>
<path fill="none" stroke="black" d="M180.951,-168.468C164.307,-155.864 138.441,-136.276 119.336,-121.808"/>
<polygon fill="black" stroke="black" points="121.435,-119.007 111.35,-115.76 117.209,-124.587 121.435,-119.007"/>
</g>
<!-- E -->
<g id="node5" class="node"><title>E</title>
<ellipse fill="none" stroke="black" cx="219.5" cy="-102" rx="21.25" ry="21.5"/>
<text text-anchor="middle" x="219.5" y="-98.3" font-family="Helvetica,sans-Serif" font-size="14.00">E</text>
<text text-anchor="middle" x="194" y="-127.3" font-family="Helvetica,sans-Serif" font-size="14.00">5</text>
</g>
<!-- B&#45;&gt;E -->
<g id="edge8" class="edge"><title>B&#45;&gt;E</title>
<path fill="none" stroke="black" d="M203.166,-160.913C205.596,-152.294 208.486,-142.05 211.154,-132.591"/>
<polygon fill="black" stroke="black" points="214.584,-133.323 213.93,-122.749 207.847,-131.423 214.584,-133.323"/>
</g>
<!-- B&#45;&gt;mA -->
<!-- mB -->
<!-- B&#45;&gt;mB -->
<!-- F -->
<g id="node6" class="node"><title>F</title>
<ellipse fill="none" stroke="black" cx="360.5" cy="-102" rx="21.25" ry="21.5"/>
<text text-anchor="middle" x="360.5" y="-98.3" font-family="Helvetica,sans-Serif" font-size="14.00">F</text>
<text text-anchor="middle" x="335" y="-127.3" font-family="Helvetica,sans-Serif" font-size="14.00">6</text>
</g>
<!-- C&#45;&gt;F -->
<g id="edge21" class="edge"><title>C&#45;&gt;F</title>
<path fill="none" stroke="black" d="M376.092,-160.913C373.789,-152.361 371.056,-142.207 368.526,-132.809"/>
<polygon fill="black" stroke="black" points="371.869,-131.765 365.89,-123.019 365.11,-133.585 371.869,-131.765"/>
</g>
<!-- G -->
<g id="node7" class="node"><title>G</title>
<ellipse fill="none" stroke="black" cx="446.5" cy="-102" rx="21.25" ry="21.5"/>
<text text-anchor="middle" x="446.5" y="-98.3" font-family="Helvetica,sans-Serif" font-size="14.00">G</text>
<text text-anchor="middle" x="421" y="-127.3" font-family="Helvetica,sans-Serif" font-size="14.00">7</text>
</g>
<!-- C&#45;&gt;G -->
<g id="edge23" class="edge"><title>C&#45;&gt;G</title>
<path fill="none" stroke="black" d="M394.968,-164.838C404.18,-153.784 416.542,-138.95 426.849,-126.581"/>
<polygon fill="black" stroke="black" points="429.559,-128.797 433.272,-118.874 424.181,-124.316 429.559,-128.797"/>
</g>
<!-- mC -->
<!-- C&#45;&gt;mC -->
<!-- H -->
<g id="node8" class="node"><title>H</title>
<ellipse fill="none" stroke="black" cx="29.5" cy="-22" rx="21.25" ry="21.5"/>
<text text-anchor="middle" x="29.5" y="-18.3" font-family="Helvetica,sans-Serif" font-size="14.00">H</text>
<text text-anchor="middle" x="4" y="-47.3" font-family="Helvetica,sans-Serif" font-size="14.00">8</text>
</g>
<!-- D&#45;&gt;H -->
<g id="edge11" class="edge"><title>D&#45;&gt;H</title>
<path fill="none" stroke="black" d="M81.032,-84.8383C71.8199,-73.7838 59.4579,-58.9495 49.151,-46.5812"/>
<polygon fill="black" stroke="black" points="51.8191,-44.3156 42.7284,-38.8741 46.4415,-48.797 51.8191,-44.3156"/>
</g>
<!-- I -->
<g id="node9" class="node"><title>I</title>
<ellipse fill="none" stroke="black" cx="115.5" cy="-22" rx="21.25" ry="21.5"/>
<text text-anchor="middle" x="115.5" y="-18.3" font-family="Helvetica,sans-Serif" font-size="14.00">I</text>
<text text-anchor="middle" x="90" y="-47.3" font-family="Helvetica,sans-Serif" font-size="14.00">9</text>
</g>
<!-- D&#45;&gt;I -->
<g id="edge13" class="edge"><title>D&#45;&gt;I</title>
<path fill="none" stroke="black" d="M99.908,-80.9131C102.211,-72.3608 104.944,-62.2074 107.474,-52.8091"/>
<polygon fill="black" stroke="black" points="110.89,-53.585 110.11,-43.0189 104.131,-51.7651 110.89,-53.585"/>
</g>
<!-- D&#45;&gt;mB -->
<!-- mD -->
<!-- D&#45;&gt;mD -->
<!-- J -->
<g id="node10" class="node"><title>J</title>
<ellipse fill="none" stroke="black" cx="176.5" cy="-22" rx="21.25" ry="21.5"/>
<text text-anchor="middle" x="176.5" y="-18.3" font-family="Helvetica,sans-Serif" font-size="14.00">J</text>
<text text-anchor="middle" x="147" y="-47.3" font-family="Helvetica,sans-Serif" font-size="14.00">10</text>
</g>
<!-- E&#45;&gt;J -->
<g id="edge16" class="edge"><title>E&#45;&gt;J</title>
<path fill="none" stroke="black" d="M209.527,-82.9092C204.192,-73.2326 197.514,-61.1179 191.561,-50.3193"/>
<polygon fill="black" stroke="black" points="194.461,-48.3306 186.568,-41.2629 188.331,-51.7101 194.461,-48.3306"/>
</g>
<!-- K -->
<g id="node11" class="node"><title>K</title>
<ellipse fill="none" stroke="black" cx="262.5" cy="-22" rx="21.25" ry="21.5"/>
<text text-anchor="middle" x="262.5" y="-18.3" font-family="Helvetica,sans-Serif" font-size="14.00">K</text>
<text text-anchor="middle" x="233" y="-47.3" font-family="Helvetica,sans-Serif" font-size="14.00">11</text>
</g>
<!-- E&#45;&gt;K -->
<g id="edge18" class="edge"><title>E&#45;&gt;K</title>
<path fill="none" stroke="black" d="M229.473,-82.9092C234.808,-73.2326 241.486,-61.1179 247.439,-50.3193"/>
<polygon fill="black" stroke="black" points="250.669,-51.7101 252.432,-41.2629 244.539,-48.3306 250.669,-51.7101"/>
</g>
<!-- mE -->
<!-- E&#45;&gt;mE -->
<!-- L -->
<g id="node12" class="node"><title>L</title>
<ellipse fill="none" stroke="black" cx="323.5" cy="-22" rx="21.25" ry="21.5"/>
<text text-anchor="middle" x="323.5" y="-18.3" font-family="Helvetica,sans-Serif" font-size="14.00">L</text>
<text text-anchor="middle" x="294" y="-47.3" font-family="Helvetica,sans-Serif" font-size="14.00">12</text>
</g>
<!-- F&#45;&gt;L -->
<g id="edge26" class="edge"><title>F&#45;&gt;L</title>
<path fill="none" stroke="black" d="M351.543,-82.1184C347.089,-72.7291 341.619,-61.1975 336.696,-50.8196"/>
<polygon fill="black" stroke="black" points="339.822,-49.2427 332.374,-41.7077 333.498,-52.2428 339.822,-49.2427"/>
</g>
<!-- F&#45;&gt;mC -->
<!-- mF -->
<!-- F&#45;&gt;mF -->
<!-- rF -->
<!-- F&#45;&gt;rF -->
<!-- lG -->
<!-- G&#45;&gt;lG -->
<!-- mG -->
<!-- G&#45;&gt;mG -->
<!-- rG -->
<!-- G&#45;&gt;rG -->
<!-- H&#45;&gt;mD -->
<!-- J&#45;&gt;mE -->
<!-- L&#45;&gt;mF -->
<!-- mA&#45;&gt;C -->
<!-- mB&#45;&gt;E -->
<!-- mD&#45;&gt;I -->
<!-- mE&#45;&gt;K -->
<!-- mC&#45;&gt;G -->
<!-- mF&#45;&gt;rF -->
<!-- lG&#45;&gt;mG -->
<!-- mG&#45;&gt;rG -->
</g>
</svg>
