<?xml version="1.0" encoding="UTF-8" standalone="no"?>
<!DOCTYPE svg PUBLIC "-//W3C//DTD SVG 1.1//EN"
 "http://www.w3.org/Graphics/SVG/1.1/DTD/svg11.dtd">
<!-- Generated by graphviz version 2.36.0 (20140111.2315)
 -->
<!-- Title: G Pages: 1 -->
<svg width="274pt" height="172pt"
 viewBox="0.00 0.00 274.00 172.00" xmlns="http://www.w3.org/2000/svg" xmlns:xlink="http://www.w3.org/1999/xlink">
<g id="graph0" class="graph" transform="scale(1 1) rotate(0) translate(4 168)">
<title>G</title>
<polygon fill="white" stroke="none" points="-4,4 -4,-168 270,-168 270,4 -4,4"/>
<!-- 5 -->
<g id="node1" class="node"><title>5</title>
<ellipse fill="none" stroke="black" cx="111" cy="-107" rx="6.5" ry="7"/>
</g>
<!-- 2 -->
<g id="node3" class="node"><title>2</title>
<ellipse fill="none" stroke="black" cx="51" cy="-57" rx="6.5" ry="7"/>
</g>
<!-- 5&#45;&gt;2 -->
<g id="edge6" class="edge"><title>5&#45;&gt;2</title>
<path fill="none" stroke="black" d="M105.884,-101.908C96.6715,-94.5372 77.0309,-78.8247 63.9189,-68.3351"/>
<polygon fill="black" stroke="black" points="65.7628,-65.3281 55.7677,-61.8141 61.3899,-70.7942 65.7628,-65.3281"/>
</g>
<!-- 9 -->
<g id="node4" class="node"><title>9</title>
<ellipse fill="none" stroke="black" cx="126" cy="-57" rx="6.5" ry="7"/>
</g>
<!-- 5&#45;&gt;9 -->
<g id="edge8" class="edge"><title>5&#45;&gt;9</title>
<path fill="none" stroke="black" d="M112.839,-100.114C114.886,-93.5648 118.277,-82.7123 121.105,-73.6646"/>
<polygon fill="black" stroke="black" points="124.504,-74.5227 124.146,-63.9339 117.822,-72.4347 124.504,-74.5227"/>
</g>
<!-- m11 -->
<!-- 5&#45;&gt;m11 -->
<!-- m5 -->
<!-- 5&#45;&gt;m5 -->
<!-- 11 -->
<g id="node2" class="node"><title>11</title>
<ellipse fill="none" stroke="black" cx="156" cy="-157" rx="6.5" ry="7"/>
</g>
<!-- 11&#45;&gt;5 -->
<g id="edge1" class="edge"><title>11&#45;&gt;5</title>
<path fill="none" stroke="black" d="M151.847,-151.57C145.184,-144.463 131.878,-130.269 122.259,-120.01"/>
<polygon fill="black" stroke="black" points="124.667,-117.461 115.274,-112.559 119.56,-122.248 124.667,-117.461"/>
</g>
<!-- 21 -->
<g id="node12" class="node"><title>21</title>
<ellipse fill="none" stroke="black" cx="215" cy="-107" rx="6.5" ry="7"/>
</g>
<!-- 11&#45;&gt;21 -->
<g id="edge3" class="edge"><title>11&#45;&gt;21</title>
<path fill="none" stroke="black" d="M161.03,-151.908C170,-144.61 189.022,-129.135 201.912,-118.648"/>
<polygon fill="black" stroke="black" points="204.434,-121.108 209.982,-112.082 200.016,-115.678 204.434,-121.108"/>
</g>
<!-- 11&#45;&gt;m11 -->
<!-- 1 -->
<g id="node5" class="node"><title>1</title>
<ellipse fill="none" stroke="black" cx="7" cy="-7" rx="6.5" ry="7"/>
</g>
<!-- 2&#45;&gt;1 -->
<g id="edge11" class="edge"><title>2&#45;&gt;1</title>
<path fill="none" stroke="black" d="M46.6203,-51.2221C40.0299,-44.0326 27.3516,-30.2017 18.1063,-20.116"/>
<polygon fill="black" stroke="black" points="20.4422,-17.4845 11.1048,-12.478 15.2821,-22.2146 20.4422,-17.4845"/>
</g>
<!-- 3 -->
<g id="node6" class="node"><title>3</title>
<ellipse fill="none" stroke="black" cx="65" cy="-7" rx="6.5" ry="7"/>
</g>
<!-- 2&#45;&gt;3 -->
<g id="edge13" class="edge"><title>2&#45;&gt;3</title>
<path fill="none" stroke="black" d="M52.7167,-50.1143C54.6269,-43.5648 57.7922,-32.7123 60.4312,-23.6646"/>
<polygon fill="black" stroke="black" points="63.8292,-24.5139 63.2693,-13.9339 57.1092,-22.5539 63.8292,-24.5139"/>
</g>
<!-- 2&#45;&gt;m5 -->
<!-- m2 -->
<!-- 2&#45;&gt;m2 -->
<!-- 7 -->
<g id="node7" class="node"><title>7</title>
<ellipse fill="none" stroke="black" cx="97" cy="-7" rx="6.5" ry="7"/>
</g>
<!-- 9&#45;&gt;7 -->
<g id="edge16" class="edge"><title>9&#45;&gt;7</title>
<path fill="none" stroke="black" d="M122.673,-50.4938C118.477,-43.5487 111.114,-31.3612 105.346,-21.814"/>
<polygon fill="black" stroke="black" points="108.279,-19.9003 100.112,-13.1511 102.288,-23.5202 108.279,-19.9003"/>
</g>
<!-- 10 -->
<g id="node8" class="node"><title>10</title>
<ellipse fill="none" stroke="black" cx="155" cy="-7" rx="6.5" ry="7"/>
</g>
<!-- 9&#45;&gt;10 -->
<g id="edge18" class="edge"><title>9&#45;&gt;10</title>
<path fill="none" stroke="black" d="M129.327,-50.4938C133.523,-43.5487 140.886,-31.3612 146.654,-21.814"/>
<polygon fill="black" stroke="black" points="149.712,-23.5202 151.888,-13.1511 143.721,-19.9003 149.712,-23.5202"/>
</g>
<!-- m9 -->
<!-- 9&#45;&gt;m9 -->
<!-- 1&#45;&gt;m2 -->
<!-- 7&#45;&gt;m9 -->
<!-- 13 -->
<g id="node9" class="node"><title>13</title>
<ellipse fill="none" stroke="black" cx="187" cy="-7" rx="6.5" ry="7"/>
</g>
<!-- m16 -->
<!-- 13&#45;&gt;m16 -->
<!-- 16 -->
<g id="node10" class="node"><title>16</title>
<ellipse fill="none" stroke="black" cx="201" cy="-57" rx="6.5" ry="7"/>
</g>
<!-- 16&#45;&gt;13 -->
<g id="edge26" class="edge"><title>16&#45;&gt;13</title>
<path fill="none" stroke="black" d="M199.283,-50.1143C197.373,-43.5648 194.208,-32.7123 191.569,-23.6646"/>
<polygon fill="black" stroke="black" points="194.891,-22.5539 188.731,-13.9339 188.171,-24.5139 194.891,-22.5539"/>
</g>
<!-- 19 -->
<g id="node11" class="node"><title>19</title>
<ellipse fill="none" stroke="black" cx="245" cy="-7" rx="6.5" ry="7"/>
</g>
<!-- 16&#45;&gt;19 -->
<g id="edge28" class="edge"><title>16&#45;&gt;19</title>
<path fill="none" stroke="black" d="M205.38,-51.2221C211.97,-44.0326 224.648,-30.2017 233.894,-20.116"/>
<polygon fill="black" stroke="black" points="236.718,-22.2146 240.895,-12.478 231.558,-17.4845 236.718,-22.2146"/>
</g>
<!-- m21 -->
<!-- 16&#45;&gt;m21 -->
<!-- 16&#45;&gt;m16 -->
<!-- 21&#45;&gt;16 -->
<g id="edge21" class="edge"><title>21&#45;&gt;16</title>
<path fill="none" stroke="black" d="M213.283,-100.114C211.373,-93.5648 208.208,-82.7123 205.569,-73.6646"/>
<polygon fill="black" stroke="black" points="208.891,-72.5539 202.731,-63.9339 202.171,-74.5139 208.891,-72.5539"/>
</g>
<!-- 25 -->
<g id="node13" class="node"><title>25</title>
<ellipse fill="none" stroke="black" cx="259" cy="-57" rx="6.5" ry="7"/>
</g>
<!-- 21&#45;&gt;25 -->
<g id="edge23" class="edge"><title>21&#45;&gt;25</title>
<path fill="none" stroke="black" d="M219.38,-101.222C225.97,-94.0326 238.648,-80.2017 247.894,-70.116"/>
<polygon fill="black" stroke="black" points="250.718,-72.2146 254.895,-62.478 245.558,-67.4845 250.718,-72.2146"/>
</g>
<!-- 21&#45;&gt;m21 -->
<!-- m11&#45;&gt;21 -->
<!-- m5&#45;&gt;9 -->
<!-- m2&#45;&gt;3 -->
<!-- m9&#45;&gt;10 -->
<!-- m21&#45;&gt;25 -->
<!-- m16&#45;&gt;19 -->
</g>
</svg>
