<?xml version="1.0" encoding="UTF-8" standalone="no"?>
<!DOCTYPE svg PUBLIC "-//W3C//DTD SVG 1.1//EN"
 "http://www.w3.org/Graphics/SVG/1.1/DTD/svg11.dtd">
<!-- Generated by graphviz version 2.36.0 (20140111.2315)
 -->
<!-- Title: G Pages: 1 -->
<svg width="222pt" height="292pt"
 viewBox="0.00 0.00 222.00 292.00" xmlns="http://www.w3.org/2000/svg" xmlns:xlink="http://www.w3.org/1999/xlink">
<g id="graph0" class="graph" transform="scale(1 1) rotate(0) translate(4 288)">
<title>G</title>
<polygon fill="white" stroke="none" points="-4,4 -4,-288 218,-288 218,4 -4,4"/>
<!-- 11 -->
<g id="node1" class="node"><title>11</title>
<ellipse fill="none" stroke="black" cx="150" cy="-262" rx="21.25" ry="21.5"/>
<text text-anchor="middle" x="150" y="-258.3" font-family="Helvetica,sans-Serif" font-size="14.00">11</text>
</g>
<!-- 5 -->
<g id="node2" class="node"><title>5</title>
<ellipse fill="none" stroke="black" cx="107" cy="-182" rx="21.25" ry="21.5"/>
<text text-anchor="middle" x="107" y="-178.3" font-family="Helvetica,sans-Serif" font-size="14.00">5</text>
</g>
<!-- 11&#45;&gt;5 -->
<g id="edge1" class="edge"><title>11&#45;&gt;5</title>
<path fill="none" stroke="black" d="M140.027,-242.909C134.692,-233.233 128.014,-221.118 122.061,-210.319"/>
<polygon fill="black" stroke="black" points="124.961,-208.331 117.068,-201.263 118.831,-211.71 124.961,-208.331"/>
</g>
<!-- m11 -->
<!-- 11&#45;&gt;m11 -->
<!-- 21 -->
<g id="node4" class="node"><title>21</title>
<ellipse fill="none" stroke="black" cx="193" cy="-182" rx="21.25" ry="21.5"/>
<text text-anchor="middle" x="193" y="-178.3" font-family="Helvetica,sans-Serif" font-size="14.00">21</text>
</g>
<!-- 11&#45;&gt;21 -->
<g id="edge3" class="edge"><title>11&#45;&gt;21</title>
<path fill="none" stroke="black" d="M159.973,-242.909C165.308,-233.233 171.986,-221.118 177.939,-210.319"/>
<polygon fill="black" stroke="black" points="181.169,-211.71 182.932,-201.263 175.039,-208.331 181.169,-211.71"/>
</g>
<!-- 5&#45;&gt;m11 -->
<!-- 2 -->
<g id="node5" class="node"><title>2</title>
<ellipse fill="none" stroke="black" cx="64" cy="-102" rx="21.25" ry="21.5"/>
<text text-anchor="middle" x="64" y="-98.3" font-family="Helvetica,sans-Serif" font-size="14.00">2</text>
</g>
<!-- 5&#45;&gt;2 -->
<g id="edge6" class="edge"><title>5&#45;&gt;2</title>
<path fill="none" stroke="black" d="M97.0269,-162.909C91.6924,-153.233 85.0137,-141.118 79.0607,-130.319"/>
<polygon fill="black" stroke="black" points="81.961,-128.331 74.068,-121.263 75.8308,-131.71 81.961,-128.331"/>
</g>
<!-- m5 -->
<!-- 5&#45;&gt;m5 -->
<!-- 9 -->
<g id="node7" class="node"><title>9</title>
<ellipse fill="none" stroke="black" cx="150" cy="-102" rx="21.25" ry="21.5"/>
<text text-anchor="middle" x="150" y="-98.3" font-family="Helvetica,sans-Serif" font-size="14.00">9</text>
</g>
<!-- 5&#45;&gt;9 -->
<g id="edge8" class="edge"><title>5&#45;&gt;9</title>
<path fill="none" stroke="black" d="M116.973,-162.909C122.308,-153.233 128.986,-141.118 134.939,-130.319"/>
<polygon fill="black" stroke="black" points="138.169,-131.71 139.932,-121.263 132.039,-128.331 138.169,-131.71"/>
</g>
<!-- m11&#45;&gt;21 -->
<!-- 2&#45;&gt;m5 -->
<!-- 1 -->
<g id="node8" class="node"><title>1</title>
<ellipse fill="none" stroke="black" cx="21" cy="-22" rx="21.25" ry="21.5"/>
<text text-anchor="middle" x="21" y="-18.3" font-family="Helvetica,sans-Serif" font-size="14.00">1</text>
</g>
<!-- 2&#45;&gt;1 -->
<g id="edge11" class="edge"><title>2&#45;&gt;1</title>
<path fill="none" stroke="black" d="M54.0269,-82.9092C48.6924,-73.2326 42.0137,-61.1179 36.0607,-50.3193"/>
<polygon fill="black" stroke="black" points="38.961,-48.3306 31.068,-41.2629 32.8308,-51.7101 38.961,-48.3306"/>
</g>
<!-- m2 -->
<!-- 2&#45;&gt;m2 -->
<!-- 3 -->
<g id="node10" class="node"><title>3</title>
<ellipse fill="none" stroke="black" cx="107" cy="-22" rx="21.25" ry="21.5"/>
<text text-anchor="middle" x="107" y="-18.3" font-family="Helvetica,sans-Serif" font-size="14.00">3</text>
</g>
<!-- 2&#45;&gt;3 -->
<g id="edge13" class="edge"><title>2&#45;&gt;3</title>
<path fill="none" stroke="black" d="M73.9731,-82.9092C79.3076,-73.2326 85.9863,-61.1179 91.9393,-50.3193"/>
<polygon fill="black" stroke="black" points="95.1692,-51.7101 96.932,-41.2629 89.039,-48.3306 95.1692,-51.7101"/>
</g>
<!-- m5&#45;&gt;9 -->
<!-- 1&#45;&gt;m2 -->
<!-- m2&#45;&gt;3 -->
</g>
</svg>
