<?xml version="1.0" encoding="UTF-8" standalone="no"?>
<!DOCTYPE svg PUBLIC "-//W3C//DTD SVG 1.1//EN"
 "http://www.w3.org/Graphics/SVG/1.1/DTD/svg11.dtd">
<!-- Generated by graphviz version 2.36.0 (20140111.2315)
 -->
<!-- Title: G Pages: 1 -->
<svg width="136pt" height="132pt"
 viewBox="0.00 0.00 136.00 132.00" xmlns="http://www.w3.org/2000/svg" xmlns:xlink="http://www.w3.org/1999/xlink">
<g id="graph0" class="graph" transform="scale(1 1) rotate(0) translate(4 128)">
<title>G</title>
<polygon fill="white" stroke="none" points="-4,4 -4,-128 132,-128 132,4 -4,4"/>
<!-- 20 -->
<g id="node1" class="node"><title>20</title>
<ellipse fill="none" stroke="black" cx="64" cy="-102" rx="21.25" ry="21.5"/>
<text text-anchor="middle" x="64" y="-98.3" font-family="Helvetica,sans-Serif" font-size="14.00">20</text>
</g>
<!-- 10 -->
<g id="node2" class="node"><title>10</title>
<ellipse fill="none" stroke="black" cx="21" cy="-22" rx="21.25" ry="21.5"/>
<text text-anchor="middle" x="21" y="-18.3" font-family="Helvetica,sans-Serif" font-size="14.00">10</text>
</g>
<!-- 20&#45;&gt;10 -->
<g id="edge1" class="edge"><title>20&#45;&gt;10</title>
<path fill="none" stroke="red" d="M54.0269,-82.9092C48.6924,-73.2326 42.0137,-61.1179 36.0607,-50.3193"/>
<polygon fill="red" stroke="red" points="38.961,-48.3306 31.068,-41.2629 32.8308,-51.7101 38.961,-48.3306"/>
</g>
<!-- m -->
<!-- 20&#45;&gt;m -->
<!-- 25 -->
<g id="node4" class="node"><title>25</title>
<ellipse fill="none" stroke="black" cx="107" cy="-22" rx="21.25" ry="21.5"/>
<text text-anchor="middle" x="107" y="-18.3" font-family="Helvetica,sans-Serif" font-size="14.00">25</text>
</g>
<!-- 20&#45;&gt;25 -->
<g id="edge3" class="edge"><title>20&#45;&gt;25</title>
<path fill="none" stroke="black" d="M73.9731,-82.9092C79.3076,-73.2326 85.9863,-61.1179 91.9393,-50.3193"/>
<polygon fill="black" stroke="black" points="95.1692,-51.7101 96.932,-41.2629 89.039,-48.3306 95.1692,-51.7101"/>
</g>
<!-- 10&#45;&gt;m -->
<!-- m&#45;&gt;25 -->
</g>
</svg>
