<?xml version="1.0" encoding="UTF-8" standalone="no"?>
<!DOCTYPE svg PUBLIC "-//W3C//DTD SVG 1.1//EN"
 "http://www.w3.org/Graphics/SVG/1.1/DTD/svg11.dtd">
<!-- Generated by graphviz version 2.36.0 (20140111.2315)
 -->
<!-- Title: G Pages: 1 -->
<svg width="326pt" height="294pt"
 viewBox="0.00 0.00 326.00 294.00" xmlns="http://www.w3.org/2000/svg" xmlns:xlink="http://www.w3.org/1999/xlink">
<g id="graph0" class="graph" transform="scale(1 1) rotate(0) translate(4 290)">
<title>G</title>
<polygon fill="white" stroke="none" points="-4,4 -4,-290 322,-290 322,4 -4,4"/>
<!-- 10 -->
<g id="node1" class="node"><title>10</title>
<ellipse fill="none" stroke="black" cx="163" cy="-264" rx="21.25" ry="21.5"/>
<text text-anchor="middle" x="163" y="-260.3" font-family="Helvetica,sans-Serif" font-size="14.00">10</text>
</g>
<!-- 20 -->
<g id="node2" class="node"><title>20</title>
<ellipse fill="none" stroke="black" cx="111" cy="-184" rx="21.25" ry="21.5"/>
<text text-anchor="middle" x="111" y="-180.3" font-family="Helvetica,sans-Serif" font-size="14.00">20</text>
</g>
<!-- 10&#45;&gt;20 -->
<g id="edge1" class="edge"><title>10&#45;&gt;20</title>
<path fill="none" stroke="black" d="M151.46,-245.689C144.593,-235.389 135.753,-222.129 128.088,-210.632"/>
<polygon fill="black" stroke="black" points="130.967,-208.641 122.508,-202.262 125.143,-212.524 130.967,-208.641"/>
</g>
<!-- m10 -->
<!-- 10&#45;&gt;m10 -->
<!-- 80 -->
<g id="node4" class="node"><title>80</title>
<ellipse fill="none" stroke="black" cx="232" cy="-184" rx="21.25" ry="21.5"/>
<text text-anchor="middle" x="232" y="-180.3" font-family="Helvetica,sans-Serif" font-size="14.00">80</text>
</g>
<!-- 10&#45;&gt;80 -->
<g id="edge3" class="edge"><title>10&#45;&gt;80</title>
<path fill="none" stroke="black" d="M176.963,-247.216C186.848,-236.042 200.269,-220.87 211.383,-208.306"/>
<polygon fill="black" stroke="black" points="214.289,-210.304 218.293,-200.495 209.046,-205.666 214.289,-210.304"/>
</g>
<!-- 20&#45;&gt;m10 -->
<!-- 40 -->
<g id="node5" class="node"><title>40</title>
<ellipse fill="none" stroke="black" cx="64" cy="-104" rx="21.25" ry="21.5"/>
<text text-anchor="middle" x="64" y="-100.3" font-family="Helvetica,sans-Serif" font-size="14.00">40</text>
</g>
<!-- 20&#45;&gt;40 -->
<g id="edge6" class="edge"><title>20&#45;&gt;40</title>
<path fill="none" stroke="black" d="M100.335,-165.301C94.2656,-155.228 86.5486,-142.421 79.7889,-131.203"/>
<polygon fill="black" stroke="black" points="82.7818,-129.388 74.6228,-122.629 76.7861,-133.001 82.7818,-129.388"/>
</g>
<!-- m20 -->
<!-- 20&#45;&gt;m20 -->
<!-- 60 -->
<g id="node7" class="node"><title>60</title>
<ellipse fill="none" stroke="black" cx="150" cy="-104" rx="21.25" ry="21.5"/>
<text text-anchor="middle" x="150" y="-100.3" font-family="Helvetica,sans-Serif" font-size="14.00">60</text>
</g>
<!-- 20&#45;&gt;60 -->
<g id="edge8" class="edge"><title>20&#45;&gt;60</title>
<path fill="none" stroke="black" d="M120.242,-164.515C124.968,-155.064 130.817,-143.367 136.075,-132.85"/>
<polygon fill="black" stroke="black" points="139.347,-134.132 140.689,-123.623 133.086,-131.002 139.347,-134.132"/>
</g>
<!-- m10&#45;&gt;80 -->
<!-- 99 -->
<g id="node11" class="node"><title>99</title>
<ellipse fill="none" stroke="black" cx="211" cy="-104" rx="21.25" ry="21.5"/>
<text text-anchor="middle" x="211" y="-100.3" font-family="Helvetica,sans-Serif" font-size="14.00">99</text>
</g>
<!-- 80&#45;&gt;99 -->
<g id="edge16" class="edge"><title>80&#45;&gt;99</title>
<path fill="none" stroke="black" d="M226.592,-162.913C224.289,-154.361 221.556,-144.207 219.026,-134.809"/>
<polygon fill="black" stroke="black" points="222.369,-133.765 216.39,-125.019 215.61,-135.585 222.369,-133.765"/>
</g>
<!-- m80 -->
<!-- 80&#45;&gt;m80 -->
<!-- 85 -->
<g id="node13" class="node"><title>85</title>
<ellipse fill="none" stroke="black" cx="297" cy="-104" rx="21.25" ry="21.5"/>
<text text-anchor="middle" x="297" y="-100.3" font-family="Helvetica,sans-Serif" font-size="14.00">85</text>
</g>
<!-- 80&#45;&gt;85 -->
<g id="edge18" class="edge"><title>80&#45;&gt;85</title>
<path fill="none" stroke="black" d="M245.468,-166.838C254.68,-155.784 267.042,-140.95 277.349,-128.581"/>
<polygon fill="black" stroke="black" points="280.059,-130.797 283.772,-120.874 274.681,-126.316 280.059,-130.797"/>
</g>
<!-- 40&#45;&gt;m20 -->
<!-- 50 -->
<g id="node8" class="node"><title>50</title>
<ellipse fill="none" stroke="black" cx="21" cy="-23" rx="21.25" ry="21.5"/>
<text text-anchor="middle" x="21" y="-19.3" font-family="Helvetica,sans-Serif" font-size="14.00">50</text>
</g>
<!-- 40&#45;&gt;50 -->
<g id="edge11" class="edge"><title>40&#45;&gt;50</title>
<path fill="none" stroke="black" d="M54.0269,-84.6772C48.5997,-74.7064 41.7813,-62.1796 35.7512,-51.101"/>
<polygon fill="black" stroke="black" points="38.774,-49.3333 30.9191,-42.2234 32.6257,-52.6799 38.774,-49.3333"/>
</g>
<!-- m40 -->
<!-- 40&#45;&gt;m40 -->
<!-- 700 -->
<g id="node10" class="node"><title>700</title>
<ellipse fill="none" stroke="black" cx="109" cy="-23" rx="23.1186" ry="23.1582"/>
<text text-anchor="middle" x="109" y="-19.3" font-family="Helvetica,sans-Serif" font-size="14.00">700</text>
</g>
<!-- 40&#45;&gt;700 -->
<g id="edge13" class="edge"><title>40&#45;&gt;700</title>
<path fill="none" stroke="black" d="M74.2112,-85.0737C79.7216,-75.3998 86.6506,-63.2356 92.8714,-52.3147"/>
<polygon fill="black" stroke="black" points="95.9753,-53.937 97.8836,-43.5154 89.8928,-50.4723 95.9753,-53.937"/>
</g>
<!-- m20&#45;&gt;60 -->
<!-- 50&#45;&gt;m40 -->
<!-- m40&#45;&gt;700 -->
<!-- 99&#45;&gt;m80 -->
<!-- m80&#45;&gt;85 -->
</g>
</svg>
