<?xml version="1.0" encoding="UTF-8" standalone="no"?>
<!DOCTYPE svg PUBLIC "-//W3C//DTD SVG 1.1//EN"
 "http://www.w3.org/Graphics/SVG/1.1/DTD/svg11.dtd">
<!-- Generated by graphviz version 2.36.0 (20140111.2315)
 -->
<!-- Title: G Pages: 1 -->
<svg width="369pt" height="294pt"
 viewBox="0.00 0.00 369.00 294.00" xmlns="http://www.w3.org/2000/svg" xmlns:xlink="http://www.w3.org/1999/xlink">
<g id="graph0" class="graph" transform="scale(1 1) rotate(0) translate(4 290)">
<title>G</title>
<polygon fill="white" stroke="none" points="-4,4 -4,-290 365,-290 365,4 -4,4"/>
<!-- 10 -->
<g id="node1" class="node"><title>10</title>
<ellipse fill="none" stroke="black" stroke-dasharray="5,2" cx="206" cy="-264" rx="21.25" ry="21.5"/>
<text text-anchor="middle" x="206" y="-260.3" font-family="Helvetica,sans-Serif" font-size="14.00">10</text>
</g>
<!-- 20 -->
<g id="node2" class="node"><title>20</title>
<ellipse fill="none" stroke="black" cx="154" cy="-184" rx="21.25" ry="21.5"/>
<text text-anchor="middle" x="154" y="-180.3" font-family="Helvetica,sans-Serif" font-size="14.00">20</text>
</g>
<!-- 10&#45;&gt;20 -->
<g id="edge1" class="edge"><title>10&#45;&gt;20</title>
<path fill="none" stroke="black" d="M194.46,-245.689C187.593,-235.389 178.753,-222.129 171.088,-210.632"/>
<polygon fill="black" stroke="black" points="173.967,-208.641 165.508,-202.262 168.143,-212.524 173.967,-208.641"/>
</g>
<!-- m10 -->
<!-- 10&#45;&gt;m10 -->
<!-- 15 -->
<g id="node4" class="node"><title>15</title>
<ellipse fill="none" stroke="black" cx="275" cy="-184" rx="21.25" ry="21.5"/>
<text text-anchor="middle" x="275" y="-180.3" font-family="Helvetica,sans-Serif" font-size="14.00">15</text>
</g>
<!-- 10&#45;&gt;15 -->
<g id="edge3" class="edge"><title>10&#45;&gt;15</title>
<path fill="none" stroke="black" d="M219.963,-247.216C229.848,-236.042 243.269,-220.87 254.383,-208.306"/>
<polygon fill="black" stroke="black" points="257.289,-210.304 261.293,-200.495 252.046,-205.666 257.289,-210.304"/>
</g>
<!-- 20&#45;&gt;m10 -->
<!-- 40 -->
<g id="node5" class="node"><title>40</title>
<ellipse fill="none" stroke="black" cx="85" cy="-104" rx="21.25" ry="21.5"/>
<text text-anchor="middle" x="85" y="-100.3" font-family="Helvetica,sans-Serif" font-size="14.00">40</text>
</g>
<!-- 20&#45;&gt;40 -->
<g id="edge6" class="edge"><title>20&#45;&gt;40</title>
<path fill="none" stroke="black" d="M140.037,-167.216C130.152,-156.042 116.731,-140.87 105.617,-128.306"/>
<polygon fill="black" stroke="black" points="107.954,-125.666 98.7069,-120.495 102.711,-130.304 107.954,-125.666"/>
</g>
<!-- m20 -->
<!-- 20&#45;&gt;m20 -->
<!-- 60 -->
<g id="node7" class="node"><title>60</title>
<ellipse fill="none" stroke="black" cx="193" cy="-104" rx="21.25" ry="21.5"/>
<text text-anchor="middle" x="193" y="-100.3" font-family="Helvetica,sans-Serif" font-size="14.00">60</text>
</g>
<!-- 20&#45;&gt;60 -->
<g id="edge8" class="edge"><title>20&#45;&gt;60</title>
<path fill="none" stroke="black" d="M163.242,-164.515C167.968,-155.064 173.817,-143.367 179.075,-132.85"/>
<polygon fill="black" stroke="black" points="182.347,-134.132 183.689,-123.623 176.086,-131.002 182.347,-134.132"/>
</g>
<!-- m10&#45;&gt;15 -->
<!-- 85 -->
<g id="node11" class="node"><title>85</title>
<ellipse fill="none" stroke="black" cx="254" cy="-104" rx="21.25" ry="21.5"/>
<text text-anchor="middle" x="254" y="-100.3" font-family="Helvetica,sans-Serif" font-size="14.00">85</text>
</g>
<!-- 15&#45;&gt;85 -->
<g id="edge16" class="edge"><title>15&#45;&gt;85</title>
<path fill="none" stroke="black" d="M269.592,-162.913C267.289,-154.361 264.556,-144.207 262.026,-134.809"/>
<polygon fill="black" stroke="black" points="265.369,-133.765 259.39,-125.019 258.61,-135.585 265.369,-133.765"/>
</g>
<!-- m15 -->
<!-- 15&#45;&gt;m15 -->
<!-- 99 -->
<g id="node13" class="node"><title>99</title>
<ellipse fill="none" stroke="black" cx="340" cy="-104" rx="21.25" ry="21.5"/>
<text text-anchor="middle" x="340" y="-100.3" font-family="Helvetica,sans-Serif" font-size="14.00">99</text>
</g>
<!-- 15&#45;&gt;99 -->
<g id="edge18" class="edge"><title>15&#45;&gt;99</title>
<path fill="none" stroke="black" d="M288.468,-166.838C297.68,-155.784 310.042,-140.95 320.349,-128.581"/>
<polygon fill="black" stroke="black" points="323.059,-130.797 326.772,-120.874 317.681,-126.316 323.059,-130.797"/>
</g>
<!-- 40&#45;&gt;m20 -->
<!-- 50 -->
<g id="node8" class="node"><title>50</title>
<ellipse fill="none" stroke="black" cx="21" cy="-23" rx="21.25" ry="21.5"/>
<text text-anchor="middle" x="21" y="-19.3" font-family="Helvetica,sans-Serif" font-size="14.00">50</text>
</g>
<!-- 40&#45;&gt;50 -->
<g id="edge11" class="edge"><title>40&#45;&gt;50</title>
<path fill="none" stroke="black" d="M71.7392,-86.6311C62.6688,-75.4349 50.497,-60.4104 40.3487,-47.8835"/>
<polygon fill="black" stroke="black" points="43.0393,-45.6446 34.0249,-40.0776 37.6002,-50.051 43.0393,-45.6446"/>
</g>
<!-- m40 -->
<!-- 40&#45;&gt;m40 -->
<!-- 700 -->
<g id="node10" class="node"><title>700</title>
<ellipse fill="none" stroke="black" cx="109" cy="-23" rx="23.1186" ry="23.1582"/>
<text text-anchor="middle" x="109" y="-19.3" font-family="Helvetica,sans-Serif" font-size="14.00">700</text>
</g>
<!-- 40&#45;&gt;700 -->
<g id="edge13" class="edge"><title>40&#45;&gt;700</title>
<path fill="none" stroke="black" d="M91.0562,-83.065C93.6261,-74.6059 96.6824,-64.5453 99.5379,-55.146"/>
<polygon fill="black" stroke="black" points="102.967,-55.8991 102.525,-45.3135 96.2693,-53.8643 102.967,-55.8991"/>
</g>
<!-- m20&#45;&gt;60 -->
<!-- 65 -->
<g id="node14" class="node"><title>65</title>
<ellipse fill="none" stroke="black" cx="172" cy="-23" rx="21.25" ry="21.5"/>
<text text-anchor="middle" x="172" y="-19.3" font-family="Helvetica,sans-Serif" font-size="14.00">65</text>
</g>
<!-- 60&#45;&gt;65 -->
<g id="edge21" class="edge"><title>60&#45;&gt;65</title>
<path fill="none" stroke="black" d="M187.701,-83.065C185.338,-74.1767 182.505,-63.5202 179.9,-53.7206"/>
<polygon fill="black" stroke="black" points="183.249,-52.6939 177.297,-43.9287 176.484,-54.4922 183.249,-52.6939"/>
</g>
<!-- m60 -->
<!-- 60&#45;&gt;m60 -->
<!-- r60 -->
<!-- 60&#45;&gt;r60 -->
<!-- 50&#45;&gt;m40 -->
<!-- m40&#45;&gt;700 -->
<!-- 85&#45;&gt;m15 -->
<!-- m15&#45;&gt;99 -->
<!-- 65&#45;&gt;m60 -->
<!-- m60&#45;&gt;r60 -->
</g>
</svg>
