<?xml version="1.0" encoding="UTF-8" standalone="no"?>
<!DOCTYPE svg PUBLIC "-//W3C//DTD SVG 1.1//EN"
 "http://www.w3.org/Graphics/SVG/1.1/DTD/svg11.dtd">
<!-- Generated by graphviz version 2.36.0 (20140111.2315)
 -->
<!-- Title: G Pages: 1 -->
<svg width="420pt" height="277pt"
 viewBox="0.00 0.00 420.00 277.00" xmlns="http://www.w3.org/2000/svg" xmlns:xlink="http://www.w3.org/1999/xlink">
<g id="graph0" class="graph" transform="scale(1 1) rotate(0) translate(4 273)">
<title>G</title>
<polygon fill="white" stroke="none" points="-4,4 -4,-273 416,-273 416,4 -4,4"/>
<!-- b -->
<g id="node1" class="node"><title>b</title>
<ellipse fill="none" stroke="black" cx="180" cy="-164" rx="18" ry="18"/>
<text text-anchor="middle" x="180" y="-160.3" font-family="Helvetica,sans-Serif" font-size="14.00">b</text>
<text text-anchor="middle" x="158" y="-185.8" font-family="Helvetica,sans-Serif" font-size="14.00">1</text>
</g>
<!-- m -->
<g id="node3" class="node"><title>m</title>
<ellipse fill="none" stroke="black" cx="200" cy="-91" rx="18.2771" ry="18.6979"/>
<text text-anchor="middle" x="200" y="-87.3" font-family="Helvetica,sans-Serif" font-size="14.00">m</text>
<text text-anchor="middle" x="177.152" y="-113.648" font-family="Helvetica,sans-Serif" font-size="14.00">1</text>
</g>
<!-- b&#45;&gt;m -->
<g id="edge8" class="edge"><title>b&#45;&gt;m</title>
<path fill="none" stroke="black" d="M184.639,-146.533C186.919,-138.437 189.728,-128.466 192.317,-119.274"/>
<polygon fill="black" stroke="black" points="195.765,-119.943 195.107,-109.369 189.027,-118.045 195.765,-119.943"/>
</g>
<!-- t -->
<g id="node10" class="node"><title>t</title>
<ellipse fill="none" stroke="black" cx="86" cy="-91" rx="18" ry="18"/>
<text text-anchor="middle" x="86" y="-87.3" font-family="Helvetica,sans-Serif" font-size="14.00">t</text>
<text text-anchor="middle" x="64" y="-112.8" font-family="Helvetica,sans-Serif" font-size="14.00">4</text>
</g>
<!-- b&#45;&gt;t -->
<g id="edge6" class="edge"><title>b&#45;&gt;t</title>
<path fill="none" stroke="black" d="M166.13,-152.524C150.857,-140.988 126.087,-122.279 108.126,-108.712"/>
<polygon fill="black" stroke="black" points="110.016,-105.754 99.9269,-102.519 105.797,-111.339 110.016,-105.754"/>
</g>
<!-- mf -->
<!-- b&#45;&gt;mf -->
<!-- mb -->
<!-- b&#45;&gt;mb -->
<!-- f -->
<g id="node2" class="node"><title>f</title>
<ellipse fill="none" stroke="black" cx="247" cy="-236" rx="18" ry="18"/>
<text text-anchor="middle" x="247" y="-232.3" font-family="Helvetica,sans-Serif" font-size="14.00">f</text>
<text text-anchor="middle" x="225" y="-257.8" font-family="Helvetica,sans-Serif" font-size="14.00">1</text>
</g>
<!-- f&#45;&gt;b -->
<g id="edge1" class="edge"><title>f&#45;&gt;b</title>
<path fill="none" stroke="black" d="M235.022,-222.485C225.141,-212.163 210.929,-197.314 199.425,-185.294"/>
<polygon fill="black" stroke="black" points="201.771,-182.684 192.328,-177.88 196.714,-187.524 201.771,-182.684"/>
</g>
<!-- p -->
<g id="node4" class="node"><title>p</title>
<ellipse fill="none" stroke="black" cx="334" cy="-164" rx="18" ry="18"/>
<text text-anchor="middle" x="334" y="-160.3" font-family="Helvetica,sans-Serif" font-size="14.00">p</text>
<text text-anchor="middle" x="312" y="-185.8" font-family="Helvetica,sans-Serif" font-size="14.00">1</text>
</g>
<!-- f&#45;&gt;p -->
<g id="edge3" class="edge"><title>f&#45;&gt;p</title>
<path fill="none" stroke="black" d="M260.594,-224.062C274.431,-212.929 296.092,-195.501 312.304,-182.457"/>
<polygon fill="black" stroke="black" points="314.617,-185.087 320.215,-176.092 310.229,-179.634 314.617,-185.087"/>
</g>
<!-- f&#45;&gt;mf -->
<!-- u -->
<g id="node5" class="node"><title>u</title>
<ellipse fill="none" stroke="black" cx="160" cy="-18" rx="18" ry="18"/>
<text text-anchor="middle" x="160" y="-14.3" font-family="Helvetica,sans-Serif" font-size="14.00">u</text>
<text text-anchor="middle" x="138" y="-39.8" font-family="Helvetica,sans-Serif" font-size="14.00">1</text>
</g>
<!-- m&#45;&gt;u -->
<g id="edge16" class="edge"><title>m&#45;&gt;u</title>
<path fill="none" stroke="black" d="M191.123,-74.2428C185.977,-65.1094 179.391,-53.4196 173.604,-43.1472"/>
<polygon fill="black" stroke="black" points="176.536,-41.2204 168.578,-34.2258 170.437,-44.6563 176.536,-41.2204"/>
</g>
<!-- comma -->
<g id="node6" class="node"><title>comma</title>
<ellipse fill="none" stroke="black" cx="240" cy="-18" rx="18" ry="18"/>
<text text-anchor="middle" x="240" y="-14.3" font-family="Helvetica,sans-Serif" font-size="14.00">,</text>
<text text-anchor="middle" x="218" y="-39.8" font-family="Helvetica,sans-Serif" font-size="14.00">1</text>
</g>
<!-- m&#45;&gt;comma -->
<g id="edge18" class="edge"><title>m&#45;&gt;comma</title>
<path fill="none" stroke="black" d="M208.877,-74.2428C214.023,-65.1094 220.609,-53.4196 226.396,-43.1472"/>
<polygon fill="black" stroke="black" points="229.563,-44.6563 231.422,-34.2258 223.464,-41.2204 229.563,-44.6563"/>
</g>
<!-- mm -->
<!-- m&#45;&gt;mm -->
<!-- e -->
<g id="node7" class="node"><title>e</title>
<ellipse fill="none" stroke="black" cx="314" cy="-91" rx="18" ry="18"/>
<text text-anchor="middle" x="314" y="-87.3" font-family="Helvetica,sans-Serif" font-size="14.00">e</text>
<text text-anchor="middle" x="292" y="-112.8" font-family="Helvetica,sans-Serif" font-size="14.00">2</text>
</g>
<!-- p&#45;&gt;e -->
<g id="edge11" class="edge"><title>p&#45;&gt;e</title>
<path fill="none" stroke="black" d="M329.361,-146.533C327.022,-138.23 324.128,-127.954 321.484,-118.57"/>
<polygon fill="black" stroke="black" points="324.833,-117.547 318.752,-108.871 318.095,-119.445 324.833,-117.547"/>
</g>
<!-- o -->
<g id="node8" class="node"><title>o</title>
<ellipse fill="none" stroke="black" cx="394" cy="-91" rx="18" ry="18"/>
<text text-anchor="middle" x="394" y="-87.3" font-family="Helvetica,sans-Serif" font-size="14.00">o</text>
<text text-anchor="middle" x="372" y="-112.8" font-family="Helvetica,sans-Serif" font-size="14.00">2</text>
</g>
<!-- p&#45;&gt;o -->
<g id="edge13" class="edge"><title>p&#45;&gt;o</title>
<path fill="none" stroke="black" d="M345.286,-149.645C354.001,-139.332 366.226,-124.866 376.248,-113.006"/>
<polygon fill="black" stroke="black" points="378.984,-115.192 382.765,-105.295 373.637,-110.674 378.984,-115.192"/>
</g>
<!-- mp -->
<!-- p&#45;&gt;mp -->
<!-- u&#45;&gt;mm -->
<!-- s -->
<g id="node9" class="node"><title>s</title>
<ellipse fill="none" stroke="black" cx="294" cy="-18" rx="18" ry="18"/>
<text text-anchor="middle" x="294" y="-14.3" font-family="Helvetica,sans-Serif" font-size="14.00">s</text>
<text text-anchor="middle" x="272" y="-39.8" font-family="Helvetica,sans-Serif" font-size="14.00">2</text>
</g>
<!-- e&#45;&gt;s -->
<g id="edge26" class="edge"><title>e&#45;&gt;s</title>
<path fill="none" stroke="black" d="M309.361,-73.5327C307.022,-65.2296 304.128,-54.9543 301.484,-45.5695"/>
<polygon fill="black" stroke="black" points="304.833,-44.5474 298.752,-35.871 298.095,-46.4454 304.833,-44.5474"/>
</g>
<!-- e&#45;&gt;mp -->
<!-- me -->
<!-- e&#45;&gt;me -->
<!-- re -->
<!-- e&#45;&gt;re -->
<!-- s&#45;&gt;me -->
<!-- i -->
<g id="node11" class="node"><title>i</title>
<ellipse fill="none" stroke="black" cx="26" cy="-18" rx="18" ry="18"/>
<text text-anchor="middle" x="26" y="-14.3" font-family="Helvetica,sans-Serif" font-size="14.00">i</text>
<text text-anchor="middle" x="4" y="-39.8" font-family="Helvetica,sans-Serif" font-size="14.00">5</text>
</g>
<!-- t&#45;&gt;i -->
<g id="edge21" class="edge"><title>t&#45;&gt;i</title>
<path fill="none" stroke="black" d="M74.7145,-76.6454C65.9987,-66.3318 53.7742,-51.8661 43.7516,-40.0061"/>
<polygon fill="black" stroke="black" points="46.3629,-37.6735 37.2349,-32.2947 41.0163,-42.1918 46.3629,-37.6735"/>
</g>
<!-- space -->
<g id="node12" class="node"><title>space</title>
<ellipse fill="none" stroke="black" cx="106" cy="-18" rx="18" ry="18"/>
<text text-anchor="middle" x="106" y="-14.3" font-family="Helvetica,sans-Serif" font-size="14.00">&#39; &#160;&#39;</text>
<text text-anchor="middle" x="84" y="-39.8" font-family="Helvetica,sans-Serif" font-size="14.00">9</text>
</g>
<!-- t&#45;&gt;space -->
<g id="edge23" class="edge"><title>t&#45;&gt;space</title>
<path fill="none" stroke="black" d="M90.6387,-73.5327C92.9776,-65.2296 95.872,-54.9543 98.5156,-45.5695"/>
<polygon fill="black" stroke="black" points="101.905,-46.4454 101.248,-35.871 95.1673,-44.5474 101.905,-46.4454"/>
</g>
<!-- t&#45;&gt;mb -->
<!-- mt -->
<!-- t&#45;&gt;mt -->
<!-- i&#45;&gt;mt -->
<!-- mf&#45;&gt;p -->
<!-- mb&#45;&gt;m -->
<!-- mp&#45;&gt;o -->
<!-- mm&#45;&gt;comma -->
<!-- mt&#45;&gt;space -->
<!-- me&#45;&gt;re -->
</g>
</svg>
