<?xml version="1.0" encoding="UTF-8" standalone="no"?>
<!DOCTYPE svg PUBLIC "-//W3C//DTD SVG 1.1//EN"
 "http://www.w3.org/Graphics/SVG/1.1/DTD/svg11.dtd">
<!-- Generated by graphviz version 2.36.0 (20140111.2315)
 -->
<!-- Title: G Pages: 1 -->
<svg width="179pt" height="292pt"
 viewBox="0.00 0.00 179.00 292.00" xmlns="http://www.w3.org/2000/svg" xmlns:xlink="http://www.w3.org/1999/xlink">
<g id="graph0" class="graph" transform="scale(1 1) rotate(0) translate(4 288)">
<title>G</title>
<polygon fill="white" stroke="none" points="-4,4 -4,-288 175,-288 175,4 -4,4"/>
<!-- 1 -->
<g id="node1" class="node"><title>1</title>
<ellipse fill="none" stroke="black" cx="64" cy="-262" rx="21.25" ry="21.5"/>
<text text-anchor="middle" x="64" y="-258.3" font-family="Helvetica,sans-Serif" font-size="14.00">&#45;</text>
</g>
<!-- 2 -->
<g id="node2" class="node"><title>2</title>
<ellipse fill="none" stroke="black" cx="107" cy="-182" rx="21.25" ry="21.5"/>
<text text-anchor="middle" x="107" y="-178.3" font-family="Helvetica,sans-Serif" font-size="14.00">&#45;</text>
</g>
<!-- 1&#45;&gt;2 -->
<g id="edge3" class="edge"><title>1&#45;&gt;2</title>
<path fill="none" stroke="black" d="M73.9731,-242.909C79.3076,-233.233 85.9863,-221.118 91.9393,-210.319"/>
<polygon fill="black" stroke="black" points="95.1692,-211.71 96.932,-201.263 89.039,-208.331 95.1692,-211.71"/>
</g>
<!-- a -->
<g id="node4" class="node"><title>a</title>
<ellipse fill="none" stroke="black" cx="21" cy="-182" rx="21.25" ry="21.5"/>
<text text-anchor="middle" x="21" y="-178.3" font-family="Helvetica,sans-Serif" font-size="14.00">a</text>
</g>
<!-- 1&#45;&gt;a -->
<g id="edge1" class="edge"><title>1&#45;&gt;a</title>
<path fill="none" stroke="black" d="M54.0269,-242.909C48.6924,-233.233 42.0137,-221.118 36.0607,-210.319"/>
<polygon fill="black" stroke="black" points="38.961,-208.331 31.068,-201.263 32.8308,-211.71 38.961,-208.331"/>
</g>
<!-- m1 -->
<!-- 1&#45;&gt;m1 -->
<!-- 3 -->
<g id="node3" class="node"><title>3</title>
<ellipse fill="none" stroke="black" cx="64" cy="-102" rx="21.25" ry="21.5"/>
<text text-anchor="middle" x="64" y="-98.3" font-family="Helvetica,sans-Serif" font-size="14.00">&#45;</text>
</g>
<!-- 2&#45;&gt;3 -->
<g id="edge6" class="edge"><title>2&#45;&gt;3</title>
<path fill="none" stroke="black" d="M97.0269,-162.909C91.6924,-153.233 85.0137,-141.118 79.0607,-130.319"/>
<polygon fill="black" stroke="black" points="81.961,-128.331 74.068,-121.263 75.8308,-131.71 81.961,-128.331"/>
</g>
<!-- m2 -->
<!-- 2&#45;&gt;m2 -->
<!-- d -->
<g id="node7" class="node"><title>d</title>
<ellipse fill="none" stroke="black" cx="150" cy="-102" rx="21.25" ry="21.5"/>
<text text-anchor="middle" x="150" y="-98.3" font-family="Helvetica,sans-Serif" font-size="14.00">d</text>
</g>
<!-- 2&#45;&gt;d -->
<g id="edge8" class="edge"><title>2&#45;&gt;d</title>
<path fill="none" stroke="black" d="M116.973,-162.909C122.308,-153.233 128.986,-141.118 134.939,-130.319"/>
<polygon fill="black" stroke="black" points="138.169,-131.71 139.932,-121.263 132.039,-128.331 138.169,-131.71"/>
</g>
<!-- 3&#45;&gt;m2 -->
<!-- b -->
<g id="node8" class="node"><title>b</title>
<ellipse fill="none" stroke="black" cx="21" cy="-22" rx="21.25" ry="21.5"/>
<text text-anchor="middle" x="21" y="-18.3" font-family="Helvetica,sans-Serif" font-size="14.00">b</text>
</g>
<!-- 3&#45;&gt;b -->
<g id="edge11" class="edge"><title>3&#45;&gt;b</title>
<path fill="none" stroke="black" d="M54.0269,-82.9092C48.6924,-73.2326 42.0137,-61.1179 36.0607,-50.3193"/>
<polygon fill="black" stroke="black" points="38.961,-48.3306 31.068,-41.2629 32.8308,-51.7101 38.961,-48.3306"/>
</g>
<!-- m3 -->
<!-- 3&#45;&gt;m3 -->
<!-- c -->
<g id="node10" class="node"><title>c</title>
<ellipse fill="none" stroke="black" cx="107" cy="-22" rx="21.25" ry="21.5"/>
<text text-anchor="middle" x="107" y="-18.3" font-family="Helvetica,sans-Serif" font-size="14.00">c</text>
</g>
<!-- 3&#45;&gt;c -->
<g id="edge13" class="edge"><title>3&#45;&gt;c</title>
<path fill="none" stroke="black" d="M73.9731,-82.9092C79.3076,-73.2326 85.9863,-61.1179 91.9393,-50.3193"/>
<polygon fill="black" stroke="black" points="95.1692,-51.7101 96.932,-41.2629 89.039,-48.3306 95.1692,-51.7101"/>
</g>
<!-- a&#45;&gt;m1 -->
<!-- m1&#45;&gt;2 -->
<!-- m2&#45;&gt;d -->
<!-- b&#45;&gt;m3 -->
<!-- m3&#45;&gt;c -->
</g>
</svg>
