<?xml version="1.0" encoding="UTF-8" standalone="no"?>
<!DOCTYPE svg PUBLIC "-//W3C//DTD SVG 1.1//EN"
 "http://www.w3.org/Graphics/SVG/1.1/DTD/svg11.dtd">
<!-- Generated by graphviz version 2.36.0 (20140111.2315)
 -->
<!-- Title: G Pages: 1 -->
<svg width="620pt" height="205pt"
 viewBox="0.00 0.00 620.00 205.00" xmlns="http://www.w3.org/2000/svg" xmlns:xlink="http://www.w3.org/1999/xlink">
<g id="graph0" class="graph" transform="scale(1 1) rotate(0) translate(4 201)">
<title>G</title>
<polygon fill="white" stroke="none" points="-4,4 -4,-201 616,-201 616,4 -4,4"/>
<!-- b -->
<g id="node1" class="node"><title>b</title>
<ellipse fill="none" stroke="black" cx="26" cy="-19" rx="18" ry="18"/>
<text text-anchor="middle" x="26" y="-15.3" font-family="Helvetica,sans-Serif" font-size="14.00">b</text>
<text text-anchor="middle" x="4" y="-40.8" font-family="Helvetica,sans-Serif" font-size="14.00">1</text>
</g>
<!-- f -->
<g id="node2" class="node"><title>f</title>
<ellipse fill="none" stroke="black" cx="80" cy="-19" rx="18" ry="18"/>
<text text-anchor="middle" x="80" y="-15.3" font-family="Helvetica,sans-Serif" font-size="14.00">f</text>
<text text-anchor="middle" x="58" y="-40.8" font-family="Helvetica,sans-Serif" font-size="14.00">1</text>
</g>
<!-- b&#45;&gt;f -->
<!-- m -->
<g id="node3" class="node"><title>m</title>
<ellipse fill="none" stroke="black" cx="141" cy="-19" rx="18.2771" ry="18.6979"/>
<text text-anchor="middle" x="141" y="-15.3" font-family="Helvetica,sans-Serif" font-size="14.00">m</text>
<text text-anchor="middle" x="118.152" y="-41.6483" font-family="Helvetica,sans-Serif" font-size="14.00">1</text>
</g>
<!-- f&#45;&gt;m -->
<!-- p -->
<g id="node4" class="node"><title>p</title>
<ellipse fill="none" stroke="black" cx="196" cy="-19" rx="18" ry="18"/>
<text text-anchor="middle" x="196" y="-15.3" font-family="Helvetica,sans-Serif" font-size="14.00">p</text>
<text text-anchor="middle" x="174" y="-40.8" font-family="Helvetica,sans-Serif" font-size="14.00">1</text>
</g>
<!-- m&#45;&gt;p -->
<!-- u -->
<g id="node5" class="node"><title>u</title>
<ellipse fill="none" stroke="black" cx="250" cy="-19" rx="18" ry="18"/>
<text text-anchor="middle" x="250" y="-15.3" font-family="Helvetica,sans-Serif" font-size="14.00">u</text>
<text text-anchor="middle" x="228" y="-40.8" font-family="Helvetica,sans-Serif" font-size="14.00">1</text>
</g>
<!-- p&#45;&gt;u -->
<!-- comma -->
<g id="node6" class="node"><title>comma</title>
<ellipse fill="none" stroke="black" cx="304" cy="-19" rx="18" ry="18"/>
<text text-anchor="middle" x="304" y="-15.3" font-family="Helvetica,sans-Serif" font-size="14.00">,</text>
<text text-anchor="middle" x="282" y="-40.8" font-family="Helvetica,sans-Serif" font-size="14.00">1</text>
</g>
<!-- u&#45;&gt;comma -->
<!-- o -->
<g id="node8" class="node"><title>o</title>
<ellipse fill="none" stroke="black" cx="378" cy="-19" rx="18" ry="18"/>
<text text-anchor="middle" x="378" y="-15.3" font-family="Helvetica,sans-Serif" font-size="14.00">o</text>
<text text-anchor="middle" x="356" y="-40.8" font-family="Helvetica,sans-Serif" font-size="14.00">2</text>
</g>
<!-- comma&#45;&gt;o -->
<!-- e -->
<g id="node7" class="node"><title>e</title>
<ellipse fill="none" stroke="black" cx="317" cy="-92" rx="18" ry="18"/>
<text text-anchor="middle" x="317" y="-88.3" font-family="Helvetica,sans-Serif" font-size="14.00">e</text>
<text text-anchor="middle" x="295" y="-113.8" font-family="Helvetica,sans-Serif" font-size="14.00">2</text>
</g>
<!-- s -->
<g id="node9" class="node"><title>s</title>
<ellipse fill="none" stroke="black" cx="432" cy="-19" rx="18" ry="18"/>
<text text-anchor="middle" x="432" y="-15.3" font-family="Helvetica,sans-Serif" font-size="14.00">s</text>
<text text-anchor="middle" x="410" y="-40.8" font-family="Helvetica,sans-Serif" font-size="14.00">2</text>
</g>
<!-- o&#45;&gt;s -->
<!-- t -->
<g id="node10" class="node"><title>t</title>
<ellipse fill="none" stroke="black" cx="486" cy="-19" rx="18" ry="18"/>
<text text-anchor="middle" x="486" y="-15.3" font-family="Helvetica,sans-Serif" font-size="14.00">t</text>
<text text-anchor="middle" x="464" y="-40.8" font-family="Helvetica,sans-Serif" font-size="14.00">4</text>
</g>
<!-- s&#45;&gt;t -->
<!-- i -->
<g id="node11" class="node"><title>i</title>
<ellipse fill="none" stroke="black" cx="540" cy="-19" rx="18" ry="18"/>
<text text-anchor="middle" x="540" y="-15.3" font-family="Helvetica,sans-Serif" font-size="14.00">i</text>
<text text-anchor="middle" x="518" y="-40.8" font-family="Helvetica,sans-Serif" font-size="14.00">5</text>
</g>
<!-- t&#45;&gt;i -->
<!-- space -->
<g id="node12" class="node"><title>space</title>
<ellipse fill="none" stroke="black" cx="594" cy="-19" rx="18" ry="18"/>
<text text-anchor="middle" x="594" y="-15.3" font-family="Helvetica,sans-Serif" font-size="14.00">&#39; &#160;&#39;</text>
<text text-anchor="middle" x="572" y="-40.8" font-family="Helvetica,sans-Serif" font-size="14.00">9</text>
</g>
<!-- i&#45;&gt;space -->
<!-- T1 -->
<g id="node13" class="node"><title>T1</title>
<ellipse fill="none" stroke="black" cx="68" cy="-92" rx="18" ry="18"/>
<text text-anchor="middle" x="68" y="-88.3" font-family="Helvetica,sans-Serif" font-size="14.00">T1</text>
<text text-anchor="middle" x="46" y="-113.8" font-family="Helvetica,sans-Serif" font-size="14.00">2</text>
</g>
<!-- T1&#45;&gt;b -->
<g id="edge1" class="edge"><title>T1&#45;&gt;b</title>
<path fill="none" stroke="black" d="M59.0929,-75.9427C53.5802,-66.6236 46.3809,-54.4534 40.1055,-43.8451"/>
<polygon fill="black" stroke="black" points="42.9981,-41.8604 34.8943,-35.0356 36.9733,-45.4244 42.9981,-41.8604"/>
</g>
<!-- T1&#45;&gt;f -->
<g id="edge2" class="edge"><title>T1&#45;&gt;f</title>
<path fill="none" stroke="black" d="M70.8438,-74.174C72.1988,-66.1571 73.854,-56.364 75.3825,-47.3199"/>
<polygon fill="black" stroke="black" points="78.8777,-47.6419 77.0932,-37.1984 71.9756,-46.4753 78.8777,-47.6419"/>
</g>
<!-- T5empty1 -->
<!-- T1&#45;&gt;T5empty1 -->
<!-- T2 -->
<g id="node14" class="node"><title>T2</title>
<ellipse fill="none" stroke="black" cx="148" cy="-92" rx="18" ry="18"/>
<text text-anchor="middle" x="148" y="-88.3" font-family="Helvetica,sans-Serif" font-size="14.00">T2</text>
<text text-anchor="middle" x="126" y="-113.8" font-family="Helvetica,sans-Serif" font-size="14.00">2</text>
</g>
<!-- T2&#45;&gt;m -->
<g id="edge3" class="edge"><title>T2&#45;&gt;m</title>
<path fill="none" stroke="black" d="M146.305,-73.8129C145.546,-66.1101 144.63,-56.8234 143.775,-48.149"/>
<polygon fill="black" stroke="black" points="147.241,-47.6279 142.777,-38.0196 140.275,-48.3148 147.241,-47.6279"/>
</g>
<!-- T2&#45;&gt;p -->
<g id="edge4" class="edge"><title>T2&#45;&gt;p</title>
<path fill="none" stroke="black" d="M157.714,-76.6321C164.285,-66.9123 173.102,-53.8694 180.619,-42.7507"/>
<polygon fill="black" stroke="black" points="183.6,-44.5913 186.301,-34.3465 177.801,-40.6707 183.6,-44.5913"/>
</g>
<!-- T3 -->
<g id="node15" class="node"><title>T3</title>
<ellipse fill="none" stroke="black" cx="263" cy="-92" rx="18" ry="18"/>
<text text-anchor="middle" x="263" y="-88.3" font-family="Helvetica,sans-Serif" font-size="14.00">T3</text>
<text text-anchor="middle" x="241" y="-113.8" font-family="Helvetica,sans-Serif" font-size="14.00">2</text>
</g>
<!-- T3&#45;&gt;u -->
<g id="edge5" class="edge"><title>T3&#45;&gt;u</title>
<path fill="none" stroke="black" d="M259.919,-74.174C258.451,-66.1571 256.658,-56.364 255.002,-47.3199"/>
<polygon fill="black" stroke="black" points="258.393,-46.4045 253.149,-37.1984 251.507,-47.6653 258.393,-46.4045"/>
</g>
<!-- T3&#45;&gt;comma -->
<g id="edge6" class="edge"><title>T3&#45;&gt;comma</title>
<path fill="none" stroke="black" d="M271.695,-75.9427C277.076,-66.6236 284.104,-54.4534 290.23,-43.8451"/>
<polygon fill="black" stroke="black" points="293.348,-45.4457 295.317,-35.0356 287.286,-41.9451 293.348,-45.4457"/>
</g>
<!-- T3&#45;&gt;e -->
<!-- T4 -->
<g id="node16" class="node"><title>T4</title>
<ellipse fill="none" stroke="black" cx="290" cy="-164" rx="18" ry="18"/>
<text text-anchor="middle" x="290" y="-160.3" font-family="Helvetica,sans-Serif" font-size="14.00">T4</text>
<text text-anchor="middle" x="268" y="-185.8" font-family="Helvetica,sans-Serif" font-size="14.00">4</text>
</g>
<!-- T4&#45;&gt;e -->
<g id="edge8" class="edge"><title>T4&#45;&gt;e</title>
<path fill="none" stroke="black" d="M296.262,-146.765C299.5,-138.371 303.525,-127.934 307.166,-118.495"/>
<polygon fill="black" stroke="black" points="310.438,-119.737 310.772,-109.147 303.907,-117.218 310.438,-119.737"/>
</g>
<!-- T4&#45;&gt;T3 -->
<g id="edge7" class="edge"><title>T4&#45;&gt;T3</title>
<path fill="none" stroke="black" d="M283.738,-146.765C280.5,-138.371 276.475,-127.934 272.834,-118.495"/>
<polygon fill="black" stroke="black" points="276.093,-117.218 269.228,-109.147 269.562,-119.737 276.093,-117.218"/>
</g>
<!-- T5 -->
<g id="node17" class="node"><title>T5</title>
<ellipse fill="none" stroke="black" cx="108" cy="-164" rx="18" ry="18"/>
<text text-anchor="middle" x="108" y="-160.3" font-family="Helvetica,sans-Serif" font-size="14.00">T5</text>
<text text-anchor="middle" x="86" y="-185.8" font-family="Helvetica,sans-Serif" font-size="14.00">4</text>
</g>
<!-- T5&#45;&gt;T1 -->
<g id="edge10" class="edge"><title>T5&#45;&gt;T1</title>
<path fill="none" stroke="black" d="M99.3206,-147.811C94.1838,-138.822 87.5613,-127.232 81.73,-117.028"/>
<polygon fill="black" stroke="black" points="84.6628,-115.105 76.6625,-108.159 78.585,-118.578 84.6628,-115.105"/>
</g>
<!-- T5&#45;&gt;T2 -->
<g id="edge11" class="edge"><title>T5&#45;&gt;T2</title>
<path fill="none" stroke="black" d="M116.679,-147.811C121.816,-138.822 128.439,-127.232 134.27,-117.028"/>
<polygon fill="black" stroke="black" points="137.415,-118.578 139.338,-108.159 131.337,-115.105 137.415,-118.578"/>
</g>
<!-- T5empty1&#45;&gt;T2 -->
<!-- T6 -->
<g id="node19" class="node"><title>T6</title>
<ellipse fill="none" stroke="black" cx="398" cy="-92" rx="18" ry="18"/>
<text text-anchor="middle" x="398" y="-88.3" font-family="Helvetica,sans-Serif" font-size="14.00">T6</text>
<text text-anchor="middle" x="376" y="-113.8" font-family="Helvetica,sans-Serif" font-size="14.00">4</text>
</g>
<!-- T6&#45;&gt;o -->
<g id="edge14" class="edge"><title>T6&#45;&gt;o</title>
<path fill="none" stroke="black" d="M393.361,-74.5327C391.022,-66.2296 388.128,-55.9543 385.484,-46.5695"/>
<polygon fill="black" stroke="black" points="388.833,-45.5474 382.752,-36.871 382.095,-47.4454 388.833,-45.5474"/>
</g>
<!-- T6&#45;&gt;s -->
<g id="edge15" class="edge"><title>T6&#45;&gt;s</title>
<path fill="none" stroke="black" d="M405.546,-75.2428C409.816,-66.3264 415.252,-54.9737 420.085,-44.8818"/>
<polygon fill="black" stroke="black" points="423.313,-46.244 424.475,-35.7132 417,-43.2207 423.313,-46.244"/>
</g>
</g>
</svg>
