<?xml version="1.0" encoding="UTF-8" standalone="no"?>
<!DOCTYPE svg PUBLIC "-//W3C//DTD SVG 1.1//EN"
 "http://www.w3.org/Graphics/SVG/1.1/DTD/svg11.dtd">
<!-- Generated by graphviz version 2.36.0 (20140111.2315)
 -->
<!-- Title: G Pages: 1 -->
<svg width="648pt" height="133pt"
 viewBox="0.00 0.00 648.00 133.00" xmlns="http://www.w3.org/2000/svg" xmlns:xlink="http://www.w3.org/1999/xlink">
<g id="graph0" class="graph" transform="scale(1 1) rotate(0) translate(4 129)">
<title>G</title>
<polygon fill="white" stroke="none" points="-4,4 -4,-129 644,-129 644,4 -4,4"/>
<!-- b -->
<g id="node1" class="node"><title>b</title>
<ellipse fill="none" stroke="black" cx="26" cy="-19" rx="18" ry="18"/>
<text text-anchor="middle" x="26" y="-15.3" font-family="Helvetica,sans-Serif" font-size="14.00">b</text>
<text text-anchor="middle" x="4" y="-40.8" font-family="Helvetica,sans-Serif" font-size="14.00">1</text>
</g>
<!-- f -->
<g id="node2" class="node"><title>f</title>
<ellipse fill="none" stroke="black" cx="80" cy="-19" rx="18" ry="18"/>
<text text-anchor="middle" x="80" y="-15.3" font-family="Helvetica,sans-Serif" font-size="14.00">f</text>
<text text-anchor="middle" x="58" y="-40.8" font-family="Helvetica,sans-Serif" font-size="14.00">1</text>
</g>
<!-- b&#45;&gt;f -->
<!-- m -->
<g id="node3" class="node"><title>m</title>
<ellipse fill="none" stroke="black" cx="135" cy="-19" rx="18.2771" ry="18.6979"/>
<text text-anchor="middle" x="135" y="-15.3" font-family="Helvetica,sans-Serif" font-size="14.00">m</text>
<text text-anchor="middle" x="112.152" y="-41.6483" font-family="Helvetica,sans-Serif" font-size="14.00">1</text>
</g>
<!-- f&#45;&gt;m -->
<!-- p -->
<g id="node4" class="node"><title>p</title>
<ellipse fill="none" stroke="black" cx="190" cy="-19" rx="18" ry="18"/>
<text text-anchor="middle" x="190" y="-15.3" font-family="Helvetica,sans-Serif" font-size="14.00">p</text>
<text text-anchor="middle" x="168" y="-40.8" font-family="Helvetica,sans-Serif" font-size="14.00">1</text>
</g>
<!-- m&#45;&gt;p -->
<!-- u -->
<g id="node5" class="node"><title>u</title>
<ellipse fill="none" stroke="black" cx="244" cy="-19" rx="18" ry="18"/>
<text text-anchor="middle" x="244" y="-15.3" font-family="Helvetica,sans-Serif" font-size="14.00">u</text>
<text text-anchor="middle" x="222" y="-40.8" font-family="Helvetica,sans-Serif" font-size="14.00">1</text>
</g>
<!-- p&#45;&gt;u -->
<!-- comma -->
<g id="node6" class="node"><title>comma</title>
<ellipse fill="none" stroke="black" cx="298" cy="-19" rx="18" ry="18"/>
<text text-anchor="middle" x="298" y="-15.3" font-family="Helvetica,sans-Serif" font-size="14.00">,</text>
<text text-anchor="middle" x="276" y="-40.8" font-family="Helvetica,sans-Serif" font-size="14.00">1</text>
</g>
<!-- u&#45;&gt;comma -->
<!-- e -->
<g id="node7" class="node"><title>e</title>
<ellipse fill="none" stroke="black" cx="352" cy="-19" rx="18" ry="18"/>
<text text-anchor="middle" x="352" y="-15.3" font-family="Helvetica,sans-Serif" font-size="14.00">e</text>
<text text-anchor="middle" x="330" y="-40.8" font-family="Helvetica,sans-Serif" font-size="14.00">2</text>
</g>
<!-- comma&#45;&gt;e -->
<!-- o -->
<g id="node8" class="node"><title>o</title>
<ellipse fill="none" stroke="black" cx="406" cy="-19" rx="18" ry="18"/>
<text text-anchor="middle" x="406" y="-15.3" font-family="Helvetica,sans-Serif" font-size="14.00">o</text>
<text text-anchor="middle" x="384" y="-40.8" font-family="Helvetica,sans-Serif" font-size="14.00">2</text>
</g>
<!-- e&#45;&gt;o -->
<!-- s -->
<g id="node9" class="node"><title>s</title>
<ellipse fill="none" stroke="black" cx="460" cy="-19" rx="18" ry="18"/>
<text text-anchor="middle" x="460" y="-15.3" font-family="Helvetica,sans-Serif" font-size="14.00">s</text>
<text text-anchor="middle" x="438" y="-40.8" font-family="Helvetica,sans-Serif" font-size="14.00">2</text>
</g>
<!-- o&#45;&gt;s -->
<!-- t -->
<g id="node10" class="node"><title>t</title>
<ellipse fill="none" stroke="black" cx="514" cy="-19" rx="18" ry="18"/>
<text text-anchor="middle" x="514" y="-15.3" font-family="Helvetica,sans-Serif" font-size="14.00">t</text>
<text text-anchor="middle" x="492" y="-40.8" font-family="Helvetica,sans-Serif" font-size="14.00">4</text>
</g>
<!-- s&#45;&gt;t -->
<!-- i -->
<g id="node11" class="node"><title>i</title>
<ellipse fill="none" stroke="black" cx="568" cy="-19" rx="18" ry="18"/>
<text text-anchor="middle" x="568" y="-15.3" font-family="Helvetica,sans-Serif" font-size="14.00">i</text>
<text text-anchor="middle" x="546" y="-40.8" font-family="Helvetica,sans-Serif" font-size="14.00">5</text>
</g>
<!-- t&#45;&gt;i -->
<!-- space -->
<g id="node12" class="node"><title>space</title>
<ellipse fill="none" stroke="black" cx="622" cy="-19" rx="18" ry="18"/>
<text text-anchor="middle" x="622" y="-15.3" font-family="Helvetica,sans-Serif" font-size="14.00">&#39; &#160;&#39;</text>
<text text-anchor="middle" x="600" y="-40.8" font-family="Helvetica,sans-Serif" font-size="14.00">9</text>
</g>
<!-- i&#45;&gt;space -->
<!-- T1 -->
<g id="node13" class="node"><title>T1</title>
<ellipse fill="none" stroke="black" cx="53" cy="-92" rx="18" ry="18"/>
<text text-anchor="middle" x="53" y="-88.3" font-family="Helvetica,sans-Serif" font-size="14.00">T1</text>
<text text-anchor="middle" x="31" y="-113.8" font-family="Helvetica,sans-Serif" font-size="14.00">2</text>
</g>
<!-- T1&#45;&gt;b -->
<g id="edge1" class="edge"><title>T1&#45;&gt;b</title>
<path fill="none" stroke="black" d="M46.8733,-74.889C43.5938,-66.2651 39.4768,-55.4391 35.7678,-45.6857"/>
<polygon fill="black" stroke="black" points="38.9285,-44.1501 32.1025,-36.0472 32.3856,-46.6383 38.9285,-44.1501"/>
</g>
<!-- T1&#45;&gt;f -->
<g id="edge2" class="edge"><title>T1&#45;&gt;f</title>
<path fill="none" stroke="black" d="M59.1267,-74.889C62.4062,-66.2651 66.5232,-55.4391 70.2322,-45.6857"/>
<polygon fill="black" stroke="black" points="73.6144,-46.6383 73.8975,-36.0472 67.0715,-44.1501 73.6144,-46.6383"/>
</g>
</g>
</svg>
