<?xml version="1.0" encoding="UTF-8" standalone="no"?>
<!DOCTYPE svg PUBLIC "-//W3C//DTD SVG 1.1//EN"
 "http://www.w3.org/Graphics/SVG/1.1/DTD/svg11.dtd">
<!-- Generated by graphviz version 2.36.0 (20140111.2315)
 -->
<!-- Title: G Pages: 1 -->
<svg width="501pt" height="349pt"
 viewBox="0.00 0.00 501.00 349.00" xmlns="http://www.w3.org/2000/svg" xmlns:xlink="http://www.w3.org/1999/xlink">
<g id="graph0" class="graph" transform="scale(1 1) rotate(0) translate(4 345)">
<title>G</title>
<polygon fill="white" stroke="none" points="-4,4 -4,-345 497,-345 497,4 -4,4"/>
<!-- b -->
<g id="node1" class="node"><title>b</title>
<ellipse fill="none" stroke="black" cx="26" cy="-19" rx="18" ry="18"/>
<text text-anchor="middle" x="26" y="-15.3" font-family="Helvetica,sans-Serif" font-size="14.00">b</text>
<text text-anchor="middle" x="4" y="-40.8" font-family="Helvetica,sans-Serif" font-size="14.00">1</text>
</g>
<!-- f -->
<g id="node2" class="node"><title>f</title>
<ellipse fill="none" stroke="black" cx="80" cy="-19" rx="18" ry="18"/>
<text text-anchor="middle" x="80" y="-15.3" font-family="Helvetica,sans-Serif" font-size="14.00">f</text>
<text text-anchor="middle" x="58" y="-40.8" font-family="Helvetica,sans-Serif" font-size="14.00">1</text>
</g>
<!-- b&#45;&gt;f -->
<!-- m -->
<g id="node3" class="node"><title>m</title>
<ellipse fill="none" stroke="black" cx="141" cy="-19" rx="18.2771" ry="18.6979"/>
<text text-anchor="middle" x="141" y="-15.3" font-family="Helvetica,sans-Serif" font-size="14.00">m</text>
<text text-anchor="middle" x="118.152" y="-41.6483" font-family="Helvetica,sans-Serif" font-size="14.00">1</text>
</g>
<!-- f&#45;&gt;m -->
<!-- p -->
<g id="node4" class="node"><title>p</title>
<ellipse fill="none" stroke="black" cx="196" cy="-19" rx="18" ry="18"/>
<text text-anchor="middle" x="196" y="-15.3" font-family="Helvetica,sans-Serif" font-size="14.00">p</text>
<text text-anchor="middle" x="174" y="-40.8" font-family="Helvetica,sans-Serif" font-size="14.00">1</text>
</g>
<!-- m&#45;&gt;p -->
<!-- u -->
<g id="node5" class="node"><title>u</title>
<ellipse fill="none" stroke="black" cx="259" cy="-19" rx="18" ry="18"/>
<text text-anchor="middle" x="259" y="-15.3" font-family="Helvetica,sans-Serif" font-size="14.00">u</text>
<text text-anchor="middle" x="237" y="-40.8" font-family="Helvetica,sans-Serif" font-size="14.00">1</text>
</g>
<!-- p&#45;&gt;u -->
<!-- comma -->
<g id="node6" class="node"><title>comma</title>
<ellipse fill="none" stroke="black" cx="313" cy="-19" rx="18" ry="18"/>
<text text-anchor="middle" x="313" y="-15.3" font-family="Helvetica,sans-Serif" font-size="14.00">,</text>
<text text-anchor="middle" x="291" y="-40.8" font-family="Helvetica,sans-Serif" font-size="14.00">1</text>
</g>
<!-- u&#45;&gt;comma -->
<!-- o -->
<g id="node8" class="node"><title>o</title>
<ellipse fill="none" stroke="black" cx="367" cy="-19" rx="18" ry="18"/>
<text text-anchor="middle" x="367" y="-15.3" font-family="Helvetica,sans-Serif" font-size="14.00">o</text>
<text text-anchor="middle" x="345" y="-40.8" font-family="Helvetica,sans-Serif" font-size="14.00">2</text>
</g>
<!-- comma&#45;&gt;o -->
<!-- e -->
<g id="node7" class="node"><title>e</title>
<ellipse fill="none" stroke="black" cx="318" cy="-92" rx="18" ry="18"/>
<text text-anchor="middle" x="318" y="-88.3" font-family="Helvetica,sans-Serif" font-size="14.00">e</text>
<text text-anchor="middle" x="296" y="-113.8" font-family="Helvetica,sans-Serif" font-size="14.00">2</text>
</g>
<!-- s -->
<g id="node9" class="node"><title>s</title>
<ellipse fill="none" stroke="black" cx="421" cy="-19" rx="18" ry="18"/>
<text text-anchor="middle" x="421" y="-15.3" font-family="Helvetica,sans-Serif" font-size="14.00">s</text>
<text text-anchor="middle" x="399" y="-40.8" font-family="Helvetica,sans-Serif" font-size="14.00">2</text>
</g>
<!-- o&#45;&gt;s -->
<!-- t -->
<g id="node10" class="node"><title>t</title>
<ellipse fill="none" stroke="black" cx="448" cy="-92" rx="18" ry="18"/>
<text text-anchor="middle" x="448" y="-88.3" font-family="Helvetica,sans-Serif" font-size="14.00">t</text>
<text text-anchor="middle" x="426" y="-113.8" font-family="Helvetica,sans-Serif" font-size="14.00">4</text>
</g>
<!-- i -->
<g id="node11" class="node"><title>i</title>
<ellipse fill="none" stroke="black" cx="475" cy="-164" rx="18" ry="18"/>
<text text-anchor="middle" x="475" y="-160.3" font-family="Helvetica,sans-Serif" font-size="14.00">i</text>
<text text-anchor="middle" x="453" y="-185.8" font-family="Helvetica,sans-Serif" font-size="14.00">5</text>
</g>
<!-- space -->
<g id="node12" class="node"><title>space</title>
<ellipse fill="none" stroke="black" cx="262" cy="-236" rx="18" ry="18"/>
<text text-anchor="middle" x="262" y="-232.3" font-family="Helvetica,sans-Serif" font-size="14.00">&#39; &#160;&#39;</text>
<text text-anchor="middle" x="240" y="-257.8" font-family="Helvetica,sans-Serif" font-size="14.00">9</text>
</g>
<!-- T9 -->
<g id="node25" class="node"><title>T9</title>
<ellipse fill="none" stroke="black" cx="448" cy="-236" rx="18" ry="18"/>
<text text-anchor="middle" x="448" y="-232.3" font-family="Helvetica,sans-Serif" font-size="14.00">T9</text>
<text text-anchor="middle" x="422" y="-257.8" font-family="Helvetica,sans-Serif" font-size="14.00">13</text>
</g>
<!-- space&#45;&gt;T9 -->
<!-- T1 -->
<g id="node13" class="node"><title>T1</title>
<ellipse fill="none" stroke="black" cx="73" cy="-92" rx="18" ry="18"/>
<text text-anchor="middle" x="73" y="-88.3" font-family="Helvetica,sans-Serif" font-size="14.00">T1</text>
<text text-anchor="middle" x="51" y="-113.8" font-family="Helvetica,sans-Serif" font-size="14.00">2</text>
</g>
<!-- T1&#45;&gt;b -->
<g id="edge1" class="edge"><title>T1&#45;&gt;b</title>
<path fill="none" stroke="black" d="M63.4888,-76.6321C57.0546,-66.9123 48.4206,-53.8694 41.0603,-42.7507"/>
<polygon fill="black" stroke="black" points="43.9354,-40.7531 35.497,-34.3465 38.0984,-44.6171 43.9354,-40.7531"/>
</g>
<!-- T1&#45;&gt;f -->
<g id="edge2" class="edge"><title>T1&#45;&gt;f</title>
<path fill="none" stroke="black" d="M74.6945,-73.8129C75.4855,-65.7895 76.446,-56.0475 77.3312,-47.0691"/>
<polygon fill="black" stroke="black" points="80.823,-47.324 78.3211,-37.0288 73.8567,-46.6372 80.823,-47.324"/>
</g>
<!-- T5empty1 -->
<!-- T1&#45;&gt;T5empty1 -->
<!-- T2 -->
<g id="node14" class="node"><title>T2</title>
<ellipse fill="none" stroke="black" cx="153" cy="-92" rx="18" ry="18"/>
<text text-anchor="middle" x="153" y="-88.3" font-family="Helvetica,sans-Serif" font-size="14.00">T2</text>
<text text-anchor="middle" x="131" y="-113.8" font-family="Helvetica,sans-Serif" font-size="14.00">2</text>
</g>
<!-- T2&#45;&gt;m -->
<g id="edge3" class="edge"><title>T2&#45;&gt;m</title>
<path fill="none" stroke="black" d="M150.156,-74.174C148.821,-66.275 147.195,-56.6516 145.685,-47.7194"/>
<polygon fill="black" stroke="black" points="149.109,-46.9729 143.991,-37.696 142.206,-48.1395 149.109,-46.9729"/>
</g>
<!-- T2&#45;&gt;p -->
<g id="edge4" class="edge"><title>T2&#45;&gt;p</title>
<path fill="none" stroke="black" d="M161.91,-76.2888C167.675,-66.7689 175.306,-54.1696 181.886,-43.305"/>
<polygon fill="black" stroke="black" points="184.915,-45.0591 187.102,-34.6924 178.928,-41.4329 184.915,-45.0591"/>
</g>
<!-- T3 -->
<g id="node15" class="node"><title>T3</title>
<ellipse fill="none" stroke="black" cx="264" cy="-92" rx="18" ry="18"/>
<text text-anchor="middle" x="264" y="-88.3" font-family="Helvetica,sans-Serif" font-size="14.00">T3</text>
<text text-anchor="middle" x="242" y="-113.8" font-family="Helvetica,sans-Serif" font-size="14.00">2</text>
</g>
<!-- T3&#45;&gt;u -->
<g id="edge5" class="edge"><title>T3&#45;&gt;u</title>
<path fill="none" stroke="black" d="M262.79,-73.8129C262.225,-65.7895 261.539,-56.0475 260.906,-47.0691"/>
<polygon fill="black" stroke="black" points="264.393,-46.7582 260.199,-37.0288 257.41,-47.25 264.393,-46.7582"/>
</g>
<!-- T3&#45;&gt;comma -->
<g id="edge6" class="edge"><title>T3&#45;&gt;comma</title>
<path fill="none" stroke="black" d="M273.916,-76.6321C280.624,-66.9123 289.625,-53.8694 297.299,-42.7507"/>
<polygon fill="black" stroke="black" points="300.299,-44.5648 303.099,-34.3465 294.538,-40.5888 300.299,-44.5648"/>
</g>
<!-- T3&#45;&gt;e -->
<!-- T4 -->
<g id="node16" class="node"><title>T4</title>
<ellipse fill="none" stroke="black" cx="273" cy="-164" rx="18" ry="18"/>
<text text-anchor="middle" x="273" y="-160.3" font-family="Helvetica,sans-Serif" font-size="14.00">T4</text>
<text text-anchor="middle" x="251" y="-185.8" font-family="Helvetica,sans-Serif" font-size="14.00">4</text>
</g>
<!-- T4&#45;&gt;e -->
<g id="edge8" class="edge"><title>T4&#45;&gt;e</title>
<path fill="none" stroke="black" d="M282.324,-148.496C288.358,-139.11 296.343,-126.688 303.229,-115.977"/>
<polygon fill="black" stroke="black" points="306.224,-117.79 308.688,-107.485 300.336,-114.005 306.224,-117.79"/>
</g>
<!-- T4&#45;&gt;T3 -->
<g id="edge7" class="edge"><title>T4&#45;&gt;T3</title>
<path fill="none" stroke="black" d="M270.821,-146.055C269.83,-138.346 268.632,-129.027 267.518,-120.364"/>
<polygon fill="black" stroke="black" points="270.968,-119.747 266.221,-110.275 264.025,-120.64 270.968,-119.747"/>
</g>
<!-- T5 -->
<g id="node17" class="node"><title>T5</title>
<ellipse fill="none" stroke="black" cx="143" cy="-164" rx="18" ry="18"/>
<text text-anchor="middle" x="143" y="-160.3" font-family="Helvetica,sans-Serif" font-size="14.00">T5</text>
<text text-anchor="middle" x="121" y="-185.8" font-family="Helvetica,sans-Serif" font-size="14.00">4</text>
</g>
<!-- T5&#45;&gt;T1 -->
<g id="edge10" class="edge"><title>T5&#45;&gt;T1</title>
<path fill="none" stroke="black" d="M130.485,-150.485C119.934,-139.934 104.654,-124.654 92.5,-112.5"/>
<polygon fill="black" stroke="black" points="94.9522,-110.002 85.4063,-105.406 90.0025,-114.952 94.9522,-110.002"/>
</g>
<!-- T5&#45;&gt;T2 -->
<g id="edge11" class="edge"><title>T5&#45;&gt;T2</title>
<path fill="none" stroke="black" d="M145.421,-146.055C146.522,-138.346 147.853,-129.027 149.091,-120.364"/>
<polygon fill="black" stroke="black" points="152.583,-120.67 150.532,-110.275 145.653,-119.68 152.583,-120.67"/>
</g>
<!-- T8empty1 -->
<!-- T5&#45;&gt;T8empty1 -->
<!-- T5empty1&#45;&gt;T2 -->
<!-- T6 -->
<g id="node19" class="node"><title>T6</title>
<ellipse fill="none" stroke="black" cx="394" cy="-92" rx="18" ry="18"/>
<text text-anchor="middle" x="394" y="-88.3" font-family="Helvetica,sans-Serif" font-size="14.00">T6</text>
<text text-anchor="middle" x="372" y="-113.8" font-family="Helvetica,sans-Serif" font-size="14.00">4</text>
</g>
<!-- T6&#45;&gt;o -->
<g id="edge14" class="edge"><title>T6&#45;&gt;o</title>
<path fill="none" stroke="black" d="M387.873,-74.889C384.594,-66.2651 380.477,-55.4391 376.768,-45.6857"/>
<polygon fill="black" stroke="black" points="379.928,-44.1501 373.102,-36.0472 373.386,-46.6383 379.928,-44.1501"/>
</g>
<!-- T6&#45;&gt;s -->
<g id="edge15" class="edge"><title>T6&#45;&gt;s</title>
<path fill="none" stroke="black" d="M400.127,-74.889C403.406,-66.2651 407.523,-55.4391 411.232,-45.6857"/>
<polygon fill="black" stroke="black" points="414.614,-46.6383 414.898,-36.0472 408.072,-44.1501 414.614,-46.6383"/>
</g>
<!-- T7 -->
<g id="node20" class="node"><title>T7</title>
<ellipse fill="none" stroke="black" cx="421" cy="-164" rx="18" ry="18"/>
<text text-anchor="middle" x="421" y="-160.3" font-family="Helvetica,sans-Serif" font-size="14.00">T7</text>
<text text-anchor="middle" x="399" y="-185.8" font-family="Helvetica,sans-Serif" font-size="14.00">8</text>
</g>
<!-- T7&#45;&gt;t -->
<g id="edge17" class="edge"><title>T7&#45;&gt;t</title>
<path fill="none" stroke="black" d="M427.262,-146.765C430.5,-138.371 434.525,-127.934 438.166,-118.495"/>
<polygon fill="black" stroke="black" points="441.438,-119.737 441.772,-109.147 434.907,-117.218 441.438,-119.737"/>
</g>
<!-- T7&#45;&gt;T6 -->
<g id="edge16" class="edge"><title>T7&#45;&gt;T6</title>
<path fill="none" stroke="black" d="M414.738,-146.765C411.5,-138.371 407.475,-127.934 403.834,-118.495"/>
<polygon fill="black" stroke="black" points="407.093,-117.218 400.228,-109.147 400.562,-119.737 407.093,-117.218"/>
</g>
<!-- T8 -->
<g id="node21" class="node"><title>T8</title>
<ellipse fill="none" stroke="black" cx="208" cy="-236" rx="18" ry="18"/>
<text text-anchor="middle" x="208" y="-232.3" font-family="Helvetica,sans-Serif" font-size="14.00">T8</text>
<text text-anchor="middle" x="186" y="-257.8" font-family="Helvetica,sans-Serif" font-size="14.00">8</text>
</g>
<!-- T8&#45;&gt;space -->
<!-- T8&#45;&gt;T4 -->
<g id="edge22" class="edge"><title>T8&#45;&gt;T4</title>
<path fill="none" stroke="black" d="M219.922,-222.161C229.543,-211.8 243.25,-197.038 254.325,-185.111"/>
<polygon fill="black" stroke="black" points="256.914,-187.467 261.154,-177.758 251.784,-182.704 256.914,-187.467"/>
</g>
<!-- T8&#45;&gt;T5 -->
<g id="edge18" class="edge"><title>T8&#45;&gt;T5</title>
<path fill="none" stroke="black" d="M196.078,-222.161C186.457,-211.8 172.75,-197.038 161.675,-185.111"/>
<polygon fill="black" stroke="black" points="164.216,-182.704 154.846,-177.758 159.086,-187.467 164.216,-182.704"/>
</g>
<!-- T8&#45;&gt;T8empty1 -->
<!-- T8empty2 -->
<!-- T8&#45;&gt;T8empty2 -->
<!-- T8empty3 -->
<!-- T8&#45;&gt;T8empty3 -->
<!-- T8empty1&#45;&gt;T8empty2 -->
<!-- T8empty2&#45;&gt;T8empty3 -->
<!-- T8empty3&#45;&gt;T4 -->
<!-- T9&#45;&gt;i -->
<g id="edge28" class="edge"><title>T9&#45;&gt;i</title>
<path fill="none" stroke="black" d="M454.262,-218.765C457.5,-210.371 461.525,-199.934 465.166,-190.495"/>
<polygon fill="black" stroke="black" points="468.438,-191.737 468.772,-181.147 461.907,-189.218 468.438,-191.737"/>
</g>
<!-- T9&#45;&gt;T7 -->
<g id="edge27" class="edge"><title>T9&#45;&gt;T7</title>
<path fill="none" stroke="black" d="M441.738,-218.765C438.5,-210.371 434.475,-199.934 430.834,-190.495"/>
<polygon fill="black" stroke="black" points="434.093,-189.218 427.228,-181.147 427.562,-191.737 434.093,-189.218"/>
</g>
<!-- T10 -->
<g id="node26" class="node"><title>T10</title>
<ellipse fill="none" stroke="black" cx="235" cy="-308" rx="18" ry="18"/>
<text text-anchor="middle" x="235" y="-304.3" font-family="Helvetica,sans-Serif" font-size="14.00">T10</text>
<text text-anchor="middle" x="209" y="-329.8" font-family="Helvetica,sans-Serif" font-size="14.00">17</text>
</g>
<!-- T10&#45;&gt;space -->
<g id="edge30" class="edge"><title>T10&#45;&gt;space</title>
<path fill="none" stroke="black" d="M241.262,-290.765C244.5,-282.371 248.525,-271.934 252.166,-262.495"/>
<polygon fill="black" stroke="black" points="255.438,-263.737 255.772,-253.147 248.907,-261.218 255.438,-263.737"/>
</g>
<!-- T10&#45;&gt;T8 -->
<g id="edge29" class="edge"><title>T10&#45;&gt;T8</title>
<path fill="none" stroke="black" d="M228.738,-290.765C225.5,-282.371 221.475,-271.934 217.834,-262.495"/>
<polygon fill="black" stroke="black" points="221.093,-261.218 214.228,-253.147 214.562,-263.737 221.093,-261.218"/>
</g>
</g>
</svg>
