<?xml version="1.0" encoding="UTF-8" standalone="no"?>
<!DOCTYPE svg PUBLIC "-//W3C//DTD SVG 1.1//EN"
 "http://www.w3.org/Graphics/SVG/1.1/DTD/svg11.dtd">
<!-- Generated by graphviz version 2.36.0 (20140111.2315)
 -->
<!-- Title: G Pages: 1 -->
<svg width="600pt" height="205pt"
 viewBox="0.00 0.00 600.00 205.00" xmlns="http://www.w3.org/2000/svg" xmlns:xlink="http://www.w3.org/1999/xlink">
<g id="graph0" class="graph" transform="scale(1 1) rotate(0) translate(4 201)">
<title>G</title>
<polygon fill="white" stroke="none" points="-4,4 -4,-201 596,-201 596,4 -4,4"/>
<!-- b -->
<g id="node1" class="node"><title>b</title>
<ellipse fill="none" stroke="black" cx="26" cy="-19" rx="18" ry="18"/>
<text text-anchor="middle" x="26" y="-15.3" font-family="Helvetica,sans-Serif" font-size="14.00">b</text>
<text text-anchor="middle" x="4" y="-40.8" font-family="Helvetica,sans-Serif" font-size="14.00">1</text>
</g>
<!-- f -->
<g id="node2" class="node"><title>f</title>
<ellipse fill="none" stroke="black" cx="80" cy="-19" rx="18" ry="18"/>
<text text-anchor="middle" x="80" y="-15.3" font-family="Helvetica,sans-Serif" font-size="14.00">f</text>
<text text-anchor="middle" x="58" y="-40.8" font-family="Helvetica,sans-Serif" font-size="14.00">1</text>
</g>
<!-- b&#45;&gt;f -->
<!-- m -->
<g id="node3" class="node"><title>m</title>
<ellipse fill="none" stroke="black" cx="141" cy="-19" rx="18.2771" ry="18.6979"/>
<text text-anchor="middle" x="141" y="-15.3" font-family="Helvetica,sans-Serif" font-size="14.00">m</text>
<text text-anchor="middle" x="118.152" y="-41.6483" font-family="Helvetica,sans-Serif" font-size="14.00">1</text>
</g>
<!-- f&#45;&gt;m -->
<!-- p -->
<g id="node4" class="node"><title>p</title>
<ellipse fill="none" stroke="black" cx="196" cy="-19" rx="18" ry="18"/>
<text text-anchor="middle" x="196" y="-15.3" font-family="Helvetica,sans-Serif" font-size="14.00">p</text>
<text text-anchor="middle" x="174" y="-40.8" font-family="Helvetica,sans-Serif" font-size="14.00">1</text>
</g>
<!-- m&#45;&gt;p -->
<!-- u -->
<g id="node5" class="node"><title>u</title>
<ellipse fill="none" stroke="black" cx="250" cy="-19" rx="18" ry="18"/>
<text text-anchor="middle" x="250" y="-15.3" font-family="Helvetica,sans-Serif" font-size="14.00">u</text>
<text text-anchor="middle" x="228" y="-40.8" font-family="Helvetica,sans-Serif" font-size="14.00">1</text>
</g>
<!-- p&#45;&gt;u -->
<!-- comma -->
<g id="node6" class="node"><title>comma</title>
<ellipse fill="none" stroke="black" cx="304" cy="-19" rx="18" ry="18"/>
<text text-anchor="middle" x="304" y="-15.3" font-family="Helvetica,sans-Serif" font-size="14.00">,</text>
<text text-anchor="middle" x="282" y="-40.8" font-family="Helvetica,sans-Serif" font-size="14.00">1</text>
</g>
<!-- u&#45;&gt;comma -->
<!-- o -->
<g id="node8" class="node"><title>o</title>
<ellipse fill="none" stroke="black" cx="358" cy="-19" rx="18" ry="18"/>
<text text-anchor="middle" x="358" y="-15.3" font-family="Helvetica,sans-Serif" font-size="14.00">o</text>
<text text-anchor="middle" x="336" y="-40.8" font-family="Helvetica,sans-Serif" font-size="14.00">2</text>
</g>
<!-- comma&#45;&gt;o -->
<!-- e -->
<g id="node7" class="node"><title>e</title>
<ellipse fill="none" stroke="black" cx="331" cy="-92" rx="18" ry="18"/>
<text text-anchor="middle" x="331" y="-88.3" font-family="Helvetica,sans-Serif" font-size="14.00">e</text>
<text text-anchor="middle" x="309" y="-113.8" font-family="Helvetica,sans-Serif" font-size="14.00">2</text>
</g>
<!-- s -->
<g id="node9" class="node"><title>s</title>
<ellipse fill="none" stroke="black" cx="412" cy="-19" rx="18" ry="18"/>
<text text-anchor="middle" x="412" y="-15.3" font-family="Helvetica,sans-Serif" font-size="14.00">s</text>
<text text-anchor="middle" x="390" y="-40.8" font-family="Helvetica,sans-Serif" font-size="14.00">2</text>
</g>
<!-- o&#45;&gt;s -->
<!-- t -->
<g id="node10" class="node"><title>t</title>
<ellipse fill="none" stroke="black" cx="466" cy="-19" rx="18" ry="18"/>
<text text-anchor="middle" x="466" y="-15.3" font-family="Helvetica,sans-Serif" font-size="14.00">t</text>
<text text-anchor="middle" x="444" y="-40.8" font-family="Helvetica,sans-Serif" font-size="14.00">4</text>
</g>
<!-- s&#45;&gt;t -->
<!-- i -->
<g id="node11" class="node"><title>i</title>
<ellipse fill="none" stroke="black" cx="520" cy="-19" rx="18" ry="18"/>
<text text-anchor="middle" x="520" y="-15.3" font-family="Helvetica,sans-Serif" font-size="14.00">i</text>
<text text-anchor="middle" x="498" y="-40.8" font-family="Helvetica,sans-Serif" font-size="14.00">5</text>
</g>
<!-- t&#45;&gt;i -->
<!-- space -->
<g id="node12" class="node"><title>space</title>
<ellipse fill="none" stroke="black" cx="574" cy="-19" rx="18" ry="18"/>
<text text-anchor="middle" x="574" y="-15.3" font-family="Helvetica,sans-Serif" font-size="14.00">&#39; &#160;&#39;</text>
<text text-anchor="middle" x="552" y="-40.8" font-family="Helvetica,sans-Serif" font-size="14.00">9</text>
</g>
<!-- i&#45;&gt;space -->
<!-- T1 -->
<g id="node13" class="node"><title>T1</title>
<ellipse fill="none" stroke="black" cx="73" cy="-92" rx="18" ry="18"/>
<text text-anchor="middle" x="73" y="-88.3" font-family="Helvetica,sans-Serif" font-size="14.00">T1</text>
<text text-anchor="middle" x="51" y="-113.8" font-family="Helvetica,sans-Serif" font-size="14.00">2</text>
</g>
<!-- T1&#45;&gt;b -->
<g id="edge1" class="edge"><title>T1&#45;&gt;b</title>
<path fill="none" stroke="black" d="M63.4888,-76.6321C57.0546,-66.9123 48.4206,-53.8694 41.0603,-42.7507"/>
<polygon fill="black" stroke="black" points="43.9354,-40.7531 35.497,-34.3465 38.0984,-44.6171 43.9354,-40.7531"/>
</g>
<!-- T1&#45;&gt;f -->
<g id="edge2" class="edge"><title>T1&#45;&gt;f</title>
<path fill="none" stroke="black" d="M74.6945,-73.8129C75.4855,-65.7895 76.446,-56.0475 77.3312,-47.0691"/>
<polygon fill="black" stroke="black" points="80.823,-47.324 78.3211,-37.0288 73.8567,-46.6372 80.823,-47.324"/>
</g>
<!-- T5empty1 -->
<!-- T1&#45;&gt;T5empty1 -->
<!-- T2 -->
<g id="node14" class="node"><title>T2</title>
<ellipse fill="none" stroke="black" cx="153" cy="-92" rx="18" ry="18"/>
<text text-anchor="middle" x="153" y="-88.3" font-family="Helvetica,sans-Serif" font-size="14.00">T2</text>
<text text-anchor="middle" x="131" y="-113.8" font-family="Helvetica,sans-Serif" font-size="14.00">2</text>
</g>
<!-- T2&#45;&gt;m -->
<g id="edge3" class="edge"><title>T2&#45;&gt;m</title>
<path fill="none" stroke="black" d="M150.156,-74.174C148.821,-66.275 147.195,-56.6516 145.685,-47.7194"/>
<polygon fill="black" stroke="black" points="149.109,-46.9729 143.991,-37.696 142.206,-48.1395 149.109,-46.9729"/>
</g>
<!-- T2&#45;&gt;p -->
<g id="edge4" class="edge"><title>T2&#45;&gt;p</title>
<path fill="none" stroke="black" d="M161.91,-76.2888C167.675,-66.7689 175.306,-54.1696 181.886,-43.305"/>
<polygon fill="black" stroke="black" points="184.915,-45.0591 187.102,-34.6924 178.928,-41.4329 184.915,-45.0591"/>
</g>
<!-- T3 -->
<g id="node15" class="node"><title>T3</title>
<ellipse fill="none" stroke="black" cx="277" cy="-92" rx="18" ry="18"/>
<text text-anchor="middle" x="277" y="-88.3" font-family="Helvetica,sans-Serif" font-size="14.00">T3</text>
<text text-anchor="middle" x="255" y="-113.8" font-family="Helvetica,sans-Serif" font-size="14.00">2</text>
</g>
<!-- T3&#45;&gt;u -->
<g id="edge5" class="edge"><title>T3&#45;&gt;u</title>
<path fill="none" stroke="black" d="M270.873,-74.889C267.594,-66.2651 263.477,-55.4391 259.768,-45.6857"/>
<polygon fill="black" stroke="black" points="262.928,-44.1501 256.102,-36.0472 256.386,-46.6383 262.928,-44.1501"/>
</g>
<!-- T3&#45;&gt;comma -->
<g id="edge6" class="edge"><title>T3&#45;&gt;comma</title>
<path fill="none" stroke="black" d="M283.127,-74.889C286.406,-66.2651 290.523,-55.4391 294.232,-45.6857"/>
<polygon fill="black" stroke="black" points="297.614,-46.6383 297.898,-36.0472 291.072,-44.1501 297.614,-46.6383"/>
</g>
<!-- T3&#45;&gt;e -->
<!-- T4 -->
<g id="node16" class="node"><title>T4</title>
<ellipse fill="none" stroke="black" cx="304" cy="-164" rx="18" ry="18"/>
<text text-anchor="middle" x="304" y="-160.3" font-family="Helvetica,sans-Serif" font-size="14.00">T4</text>
<text text-anchor="middle" x="282" y="-185.8" font-family="Helvetica,sans-Serif" font-size="14.00">4</text>
</g>
<!-- T4&#45;&gt;e -->
<g id="edge8" class="edge"><title>T4&#45;&gt;e</title>
<path fill="none" stroke="black" d="M310.262,-146.765C313.5,-138.371 317.525,-127.934 321.166,-118.495"/>
<polygon fill="black" stroke="black" points="324.438,-119.737 324.772,-109.147 317.907,-117.218 324.438,-119.737"/>
</g>
<!-- T4&#45;&gt;T3 -->
<g id="edge7" class="edge"><title>T4&#45;&gt;T3</title>
<path fill="none" stroke="black" d="M297.738,-146.765C294.5,-138.371 290.475,-127.934 286.834,-118.495"/>
<polygon fill="black" stroke="black" points="290.093,-117.218 283.228,-109.147 283.562,-119.737 290.093,-117.218"/>
</g>
<!-- T5 -->
<g id="node17" class="node"><title>T5</title>
<ellipse fill="none" stroke="black" cx="113" cy="-164" rx="18" ry="18"/>
<text text-anchor="middle" x="113" y="-160.3" font-family="Helvetica,sans-Serif" font-size="14.00">T5</text>
<text text-anchor="middle" x="91" y="-185.8" font-family="Helvetica,sans-Serif" font-size="14.00">4</text>
</g>
<!-- T5&#45;&gt;T1 -->
<g id="edge10" class="edge"><title>T5&#45;&gt;T1</title>
<path fill="none" stroke="black" d="M104.321,-147.811C99.1838,-138.822 92.5613,-127.232 86.73,-117.028"/>
<polygon fill="black" stroke="black" points="89.6628,-115.105 81.6625,-108.159 83.585,-118.578 89.6628,-115.105"/>
</g>
<!-- T5&#45;&gt;T2 -->
<g id="edge11" class="edge"><title>T5&#45;&gt;T2</title>
<path fill="none" stroke="black" d="M121.679,-147.811C126.816,-138.822 133.439,-127.232 139.27,-117.028"/>
<polygon fill="black" stroke="black" points="142.415,-118.578 144.338,-108.159 136.337,-115.105 142.415,-118.578"/>
</g>
<!-- T5empty1&#45;&gt;T2 -->
</g>
</svg>
