<?xml version="1.0" encoding="UTF-8" standalone="no"?>
<!DOCTYPE svg PUBLIC "-//W3C//DTD SVG 1.1//EN"
 "http://www.w3.org/Graphics/SVG/1.1/DTD/svg11.dtd">
<!-- Generated by graphviz version 2.36.0 (20140111.2315)
 -->
<!-- Title: G Pages: 1 -->
<svg width="530pt" height="277pt"
 viewBox="0.00 0.00 530.00 277.00" xmlns="http://www.w3.org/2000/svg" xmlns:xlink="http://www.w3.org/1999/xlink">
<g id="graph0" class="graph" transform="scale(1 1) rotate(0) translate(4 273)">
<title>G</title>
<polygon fill="white" stroke="none" points="-4,4 -4,-273 526,-273 526,4 -4,4"/>
<!-- b -->
<g id="node1" class="node"><title>b</title>
<ellipse fill="none" stroke="black" cx="26" cy="-19" rx="18" ry="18"/>
<text text-anchor="middle" x="26" y="-15.3" font-family="Helvetica,sans-Serif" font-size="14.00">b</text>
<text text-anchor="middle" x="4" y="-40.8" font-family="Helvetica,sans-Serif" font-size="14.00">1</text>
</g>
<!-- f -->
<g id="node2" class="node"><title>f</title>
<ellipse fill="none" stroke="black" cx="80" cy="-19" rx="18" ry="18"/>
<text text-anchor="middle" x="80" y="-15.3" font-family="Helvetica,sans-Serif" font-size="14.00">f</text>
<text text-anchor="middle" x="58" y="-40.8" font-family="Helvetica,sans-Serif" font-size="14.00">1</text>
</g>
<!-- b&#45;&gt;f -->
<!-- m -->
<g id="node3" class="node"><title>m</title>
<ellipse fill="none" stroke="black" cx="141" cy="-19" rx="18.2771" ry="18.6979"/>
<text text-anchor="middle" x="141" y="-15.3" font-family="Helvetica,sans-Serif" font-size="14.00">m</text>
<text text-anchor="middle" x="118.152" y="-41.6483" font-family="Helvetica,sans-Serif" font-size="14.00">1</text>
</g>
<!-- f&#45;&gt;m -->
<!-- p -->
<g id="node4" class="node"><title>p</title>
<ellipse fill="none" stroke="black" cx="196" cy="-19" rx="18" ry="18"/>
<text text-anchor="middle" x="196" y="-15.3" font-family="Helvetica,sans-Serif" font-size="14.00">p</text>
<text text-anchor="middle" x="174" y="-40.8" font-family="Helvetica,sans-Serif" font-size="14.00">1</text>
</g>
<!-- m&#45;&gt;p -->
<!-- u -->
<g id="node5" class="node"><title>u</title>
<ellipse fill="none" stroke="black" cx="261" cy="-19" rx="18" ry="18"/>
<text text-anchor="middle" x="261" y="-15.3" font-family="Helvetica,sans-Serif" font-size="14.00">u</text>
<text text-anchor="middle" x="239" y="-40.8" font-family="Helvetica,sans-Serif" font-size="14.00">1</text>
</g>
<!-- p&#45;&gt;u -->
<!-- comma -->
<g id="node6" class="node"><title>comma</title>
<ellipse fill="none" stroke="black" cx="315" cy="-19" rx="18" ry="18"/>
<text text-anchor="middle" x="315" y="-15.3" font-family="Helvetica,sans-Serif" font-size="14.00">,</text>
<text text-anchor="middle" x="293" y="-40.8" font-family="Helvetica,sans-Serif" font-size="14.00">1</text>
</g>
<!-- u&#45;&gt;comma -->
<!-- o -->
<g id="node8" class="node"><title>o</title>
<ellipse fill="none" stroke="black" cx="396" cy="-19" rx="18" ry="18"/>
<text text-anchor="middle" x="396" y="-15.3" font-family="Helvetica,sans-Serif" font-size="14.00">o</text>
<text text-anchor="middle" x="374" y="-40.8" font-family="Helvetica,sans-Serif" font-size="14.00">2</text>
</g>
<!-- comma&#45;&gt;o -->
<!-- e -->
<g id="node7" class="node"><title>e</title>
<ellipse fill="none" stroke="black" cx="315" cy="-92" rx="18" ry="18"/>
<text text-anchor="middle" x="315" y="-88.3" font-family="Helvetica,sans-Serif" font-size="14.00">e</text>
<text text-anchor="middle" x="293" y="-113.8" font-family="Helvetica,sans-Serif" font-size="14.00">2</text>
</g>
<!-- t -->
<g id="node10" class="node"><title>t</title>
<ellipse fill="none" stroke="black" cx="369" cy="-92" rx="18" ry="18"/>
<text text-anchor="middle" x="369" y="-88.3" font-family="Helvetica,sans-Serif" font-size="14.00">t</text>
<text text-anchor="middle" x="347" y="-113.8" font-family="Helvetica,sans-Serif" font-size="14.00">4</text>
</g>
<!-- e&#45;&gt;t -->
<!-- s -->
<g id="node9" class="node"><title>s</title>
<ellipse fill="none" stroke="black" cx="450" cy="-19" rx="18" ry="18"/>
<text text-anchor="middle" x="450" y="-15.3" font-family="Helvetica,sans-Serif" font-size="14.00">s</text>
<text text-anchor="middle" x="428" y="-40.8" font-family="Helvetica,sans-Serif" font-size="14.00">2</text>
</g>
<!-- o&#45;&gt;s -->
<!-- space -->
<g id="node12" class="node"><title>space</title>
<ellipse fill="none" stroke="black" cx="504" cy="-19" rx="18" ry="18"/>
<text text-anchor="middle" x="504" y="-15.3" font-family="Helvetica,sans-Serif" font-size="14.00">&#39; &#160;&#39;</text>
<text text-anchor="middle" x="482" y="-40.8" font-family="Helvetica,sans-Serif" font-size="14.00">9</text>
</g>
<!-- s&#45;&gt;space -->
<!-- T6 -->
<g id="node19" class="node"><title>T6</title>
<ellipse fill="none" stroke="black" cx="423" cy="-92" rx="18" ry="18"/>
<text text-anchor="middle" x="423" y="-88.3" font-family="Helvetica,sans-Serif" font-size="14.00">T6</text>
<text text-anchor="middle" x="401" y="-113.8" font-family="Helvetica,sans-Serif" font-size="14.00">4</text>
</g>
<!-- t&#45;&gt;T6 -->
<!-- i -->
<g id="node11" class="node"><title>i</title>
<ellipse fill="none" stroke="black" cx="342" cy="-164" rx="18" ry="18"/>
<text text-anchor="middle" x="342" y="-160.3" font-family="Helvetica,sans-Serif" font-size="14.00">i</text>
<text text-anchor="middle" x="320" y="-185.8" font-family="Helvetica,sans-Serif" font-size="14.00">5</text>
</g>
<!-- T7 -->
<g id="node20" class="node"><title>T7</title>
<ellipse fill="none" stroke="black" cx="396" cy="-164" rx="18" ry="18"/>
<text text-anchor="middle" x="396" y="-160.3" font-family="Helvetica,sans-Serif" font-size="14.00">T7</text>
<text text-anchor="middle" x="374" y="-185.8" font-family="Helvetica,sans-Serif" font-size="14.00">8</text>
</g>
<!-- i&#45;&gt;T7 -->
<!-- T1 -->
<g id="node13" class="node"><title>T1</title>
<ellipse fill="none" stroke="black" cx="73" cy="-92" rx="18" ry="18"/>
<text text-anchor="middle" x="73" y="-88.3" font-family="Helvetica,sans-Serif" font-size="14.00">T1</text>
<text text-anchor="middle" x="51" y="-113.8" font-family="Helvetica,sans-Serif" font-size="14.00">2</text>
</g>
<!-- T1&#45;&gt;b -->
<g id="edge1" class="edge"><title>T1&#45;&gt;b</title>
<path fill="none" stroke="black" d="M63.4888,-76.6321C57.0546,-66.9123 48.4206,-53.8694 41.0603,-42.7507"/>
<polygon fill="black" stroke="black" points="43.9354,-40.7531 35.497,-34.3465 38.0984,-44.6171 43.9354,-40.7531"/>
</g>
<!-- T1&#45;&gt;f -->
<g id="edge2" class="edge"><title>T1&#45;&gt;f</title>
<path fill="none" stroke="black" d="M74.6945,-73.8129C75.4855,-65.7895 76.446,-56.0475 77.3312,-47.0691"/>
<polygon fill="black" stroke="black" points="80.823,-47.324 78.3211,-37.0288 73.8567,-46.6372 80.823,-47.324"/>
</g>
<!-- T5empty1 -->
<!-- T1&#45;&gt;T5empty1 -->
<!-- T2 -->
<g id="node14" class="node"><title>T2</title>
<ellipse fill="none" stroke="black" cx="153" cy="-92" rx="18" ry="18"/>
<text text-anchor="middle" x="153" y="-88.3" font-family="Helvetica,sans-Serif" font-size="14.00">T2</text>
<text text-anchor="middle" x="131" y="-113.8" font-family="Helvetica,sans-Serif" font-size="14.00">2</text>
</g>
<!-- T2&#45;&gt;m -->
<g id="edge3" class="edge"><title>T2&#45;&gt;m</title>
<path fill="none" stroke="black" d="M150.156,-74.174C148.821,-66.275 147.195,-56.6516 145.685,-47.7194"/>
<polygon fill="black" stroke="black" points="149.109,-46.9729 143.991,-37.696 142.206,-48.1395 149.109,-46.9729"/>
</g>
<!-- T2&#45;&gt;p -->
<g id="edge4" class="edge"><title>T2&#45;&gt;p</title>
<path fill="none" stroke="black" d="M161.91,-76.2888C167.675,-66.7689 175.306,-54.1696 181.886,-43.305"/>
<polygon fill="black" stroke="black" points="184.915,-45.0591 187.102,-34.6924 178.928,-41.4329 184.915,-45.0591"/>
</g>
<!-- T3 -->
<g id="node15" class="node"><title>T3</title>
<ellipse fill="none" stroke="black" cx="261" cy="-92" rx="18" ry="18"/>
<text text-anchor="middle" x="261" y="-88.3" font-family="Helvetica,sans-Serif" font-size="14.00">T3</text>
<text text-anchor="middle" x="239" y="-113.8" font-family="Helvetica,sans-Serif" font-size="14.00">2</text>
</g>
<!-- T3&#45;&gt;u -->
<g id="edge5" class="edge"><title>T3&#45;&gt;u</title>
<path fill="none" stroke="black" d="M261,-73.8129C261,-65.7895 261,-56.0475 261,-47.0691"/>
<polygon fill="black" stroke="black" points="264.5,-47.0288 261,-37.0288 257.5,-47.0289 264.5,-47.0288"/>
</g>
<!-- T3&#45;&gt;comma -->
<g id="edge6" class="edge"><title>T3&#45;&gt;comma</title>
<path fill="none" stroke="black" d="M271.412,-77.3105C278.934,-67.4202 289.261,-53.8425 297.975,-42.3853"/>
<polygon fill="black" stroke="black" points="300.983,-44.2117 304.251,-34.1335 295.411,-39.9741 300.983,-44.2117"/>
</g>
<!-- T3&#45;&gt;e -->
<!-- T4 -->
<g id="node16" class="node"><title>T4</title>
<ellipse fill="none" stroke="black" cx="271" cy="-164" rx="18" ry="18"/>
<text text-anchor="middle" x="271" y="-160.3" font-family="Helvetica,sans-Serif" font-size="14.00">T4</text>
<text text-anchor="middle" x="249" y="-185.8" font-family="Helvetica,sans-Serif" font-size="14.00">4</text>
</g>
<!-- T4&#45;&gt;e -->
<g id="edge8" class="edge"><title>T4&#45;&gt;e</title>
<path fill="none" stroke="black" d="M280.331,-148.155C286.106,-138.967 293.649,-126.968 300.223,-116.509"/>
<polygon fill="black" stroke="black" points="303.324,-118.153 305.682,-107.824 297.397,-114.428 303.324,-118.153"/>
</g>
<!-- T4&#45;&gt;i -->
<!-- T4&#45;&gt;T3 -->
<g id="edge7" class="edge"><title>T4&#45;&gt;T3</title>
<path fill="none" stroke="black" d="M268.579,-146.055C267.478,-138.346 266.147,-129.027 264.909,-120.364"/>
<polygon fill="black" stroke="black" points="268.347,-119.68 263.468,-110.275 261.417,-120.67 268.347,-119.68"/>
</g>
<!-- T5 -->
<g id="node17" class="node"><title>T5</title>
<ellipse fill="none" stroke="black" cx="141" cy="-164" rx="18" ry="18"/>
<text text-anchor="middle" x="141" y="-160.3" font-family="Helvetica,sans-Serif" font-size="14.00">T5</text>
<text text-anchor="middle" x="119" y="-185.8" font-family="Helvetica,sans-Serif" font-size="14.00">4</text>
</g>
<!-- T5&#45;&gt;T1 -->
<g id="edge10" class="edge"><title>T5&#45;&gt;T1</title>
<path fill="none" stroke="black" d="M128.843,-150.485C118.69,-140.034 104.03,-124.942 92.2779,-112.845"/>
<polygon fill="black" stroke="black" points="94.5302,-110.14 85.0518,-105.406 89.5092,-115.018 94.5302,-110.14"/>
</g>
<!-- T5&#45;&gt;T2 -->
<g id="edge11" class="edge"><title>T5&#45;&gt;T2</title>
<path fill="none" stroke="black" d="M143.905,-146.055C145.261,-138.145 146.907,-128.54 148.425,-119.688"/>
<polygon fill="black" stroke="black" points="151.882,-120.237 150.122,-109.789 144.982,-119.054 151.882,-120.237"/>
</g>
<!-- T8empty1 -->
<!-- T5&#45;&gt;T8empty1 -->
<!-- T5empty1&#45;&gt;T2 -->
<!-- T6&#45;&gt;o -->
<g id="edge14" class="edge"><title>T6&#45;&gt;o</title>
<path fill="none" stroke="black" d="M416.873,-74.889C413.594,-66.2651 409.477,-55.4391 405.768,-45.6857"/>
<polygon fill="black" stroke="black" points="408.928,-44.1501 402.102,-36.0472 402.386,-46.6383 408.928,-44.1501"/>
</g>
<!-- T6&#45;&gt;s -->
<g id="edge15" class="edge"><title>T6&#45;&gt;s</title>
<path fill="none" stroke="black" d="M429.127,-74.889C432.406,-66.2651 436.523,-55.4391 440.232,-45.6857"/>
<polygon fill="black" stroke="black" points="443.614,-46.6383 443.898,-36.0472 437.072,-44.1501 443.614,-46.6383"/>
</g>
<!-- T7&#45;&gt;t -->
<g id="edge17" class="edge"><title>T7&#45;&gt;t</title>
<path fill="none" stroke="black" d="M389.738,-146.765C386.5,-138.371 382.475,-127.934 378.834,-118.495"/>
<polygon fill="black" stroke="black" points="382.093,-117.218 375.228,-109.147 375.562,-119.737 382.093,-117.218"/>
</g>
<!-- T7&#45;&gt;T6 -->
<g id="edge16" class="edge"><title>T7&#45;&gt;T6</title>
<path fill="none" stroke="black" d="M402.262,-146.765C405.5,-138.371 409.525,-127.934 413.166,-118.495"/>
<polygon fill="black" stroke="black" points="416.438,-119.737 416.772,-109.147 409.907,-117.218 416.438,-119.737"/>
</g>
<!-- T8 -->
<g id="node21" class="node"><title>T8</title>
<ellipse fill="none" stroke="black" cx="206" cy="-236" rx="18" ry="18"/>
<text text-anchor="middle" x="206" y="-232.3" font-family="Helvetica,sans-Serif" font-size="14.00">T8</text>
<text text-anchor="middle" x="184" y="-257.8" font-family="Helvetica,sans-Serif" font-size="14.00">8</text>
</g>
<!-- T8&#45;&gt;T4 -->
<g id="edge22" class="edge"><title>T8&#45;&gt;T4</title>
<path fill="none" stroke="black" d="M217.922,-222.161C227.543,-211.8 241.25,-197.038 252.325,-185.111"/>
<polygon fill="black" stroke="black" points="254.914,-187.467 259.154,-177.758 249.784,-182.704 254.914,-187.467"/>
</g>
<!-- T8&#45;&gt;T5 -->
<g id="edge18" class="edge"><title>T8&#45;&gt;T5</title>
<path fill="none" stroke="black" d="M194.078,-222.161C184.457,-211.8 170.75,-197.038 159.675,-185.111"/>
<polygon fill="black" stroke="black" points="162.216,-182.704 152.846,-177.758 157.086,-187.467 162.216,-182.704"/>
</g>
<!-- T8&#45;&gt;T8empty1 -->
<!-- T8empty2 -->
<!-- T8&#45;&gt;T8empty2 -->
<!-- T8empty3 -->
<!-- T8&#45;&gt;T8empty3 -->
<!-- T8empty1&#45;&gt;T8empty2 -->
<!-- T8empty2&#45;&gt;T8empty3 -->
<!-- T8empty3&#45;&gt;T4 -->
<!-- T9 -->
<g id="node25" class="node"><title>T9</title>
<ellipse fill="none" stroke="black" cx="369" cy="-236" rx="18" ry="18"/>
<text text-anchor="middle" x="369" y="-232.3" font-family="Helvetica,sans-Serif" font-size="14.00">T9</text>
<text text-anchor="middle" x="343" y="-257.8" font-family="Helvetica,sans-Serif" font-size="14.00">13</text>
</g>
<!-- T9&#45;&gt;i -->
<g id="edge28" class="edge"><title>T9&#45;&gt;i</title>
<path fill="none" stroke="black" d="M362.738,-218.765C359.5,-210.371 355.475,-199.934 351.834,-190.495"/>
<polygon fill="black" stroke="black" points="355.093,-189.218 348.228,-181.147 348.562,-191.737 355.093,-189.218"/>
</g>
<!-- T9&#45;&gt;T7 -->
<g id="edge27" class="edge"><title>T9&#45;&gt;T7</title>
<path fill="none" stroke="black" d="M375.262,-218.765C378.5,-210.371 382.525,-199.934 386.166,-190.495"/>
<polygon fill="black" stroke="black" points="389.438,-191.737 389.772,-181.147 382.907,-189.218 389.438,-191.737"/>
</g>
</g>
</svg>
