<?xml version="1.0" encoding="UTF-8" standalone="no"?>
<!DOCTYPE svg PUBLIC "-//W3C//DTD SVG 1.1//EN"
 "http://www.w3.org/Graphics/SVG/1.1/DTD/svg11.dtd">
<!-- Generated by graphviz version 2.36.0 (20140111.2315)
 -->
<!-- Title: G Pages: 1 -->
<svg width="654pt" height="421pt"
 viewBox="0.00 0.00 654.00 421.00" xmlns="http://www.w3.org/2000/svg" xmlns:xlink="http://www.w3.org/1999/xlink">
<g id="graph0" class="graph" transform="scale(1 1) rotate(0) translate(4 417)">
<title>G</title>
<polygon fill="white" stroke="none" points="-4,4 -4,-417 650,-417 650,4 -4,4"/>
<!-- b -->
<g id="node1" class="node"><title>b</title>
<ellipse fill="none" stroke="black" cx="26" cy="-19" rx="18" ry="18"/>
<text text-anchor="middle" x="26" y="-15.3" font-family="Helvetica,sans-Serif" font-size="14.00">b</text>
<text text-anchor="middle" x="4" y="-40.8" font-family="Helvetica,sans-Serif" font-size="14.00">1</text>
</g>
<!-- f -->
<g id="node2" class="node"><title>f</title>
<ellipse fill="none" stroke="black" cx="80" cy="-19" rx="18" ry="18"/>
<text text-anchor="middle" x="80" y="-15.3" font-family="Helvetica,sans-Serif" font-size="14.00">f</text>
<text text-anchor="middle" x="58" y="-40.8" font-family="Helvetica,sans-Serif" font-size="14.00">1</text>
</g>
<!-- b&#45;&gt;f -->
<!-- m -->
<g id="node3" class="node"><title>m</title>
<ellipse fill="none" stroke="black" cx="146" cy="-19" rx="18.2771" ry="18.6979"/>
<text text-anchor="middle" x="146" y="-15.3" font-family="Helvetica,sans-Serif" font-size="14.00">m</text>
<text text-anchor="middle" x="123.152" y="-41.6483" font-family="Helvetica,sans-Serif" font-size="14.00">1</text>
</g>
<!-- f&#45;&gt;m -->
<!-- p -->
<g id="node4" class="node"><title>p</title>
<ellipse fill="none" stroke="black" cx="201" cy="-19" rx="18" ry="18"/>
<text text-anchor="middle" x="201" y="-15.3" font-family="Helvetica,sans-Serif" font-size="14.00">p</text>
<text text-anchor="middle" x="179" y="-40.8" font-family="Helvetica,sans-Serif" font-size="14.00">1</text>
</g>
<!-- m&#45;&gt;p -->
<!-- u -->
<g id="node5" class="node"><title>u</title>
<ellipse fill="none" stroke="black" cx="261" cy="-19" rx="18" ry="18"/>
<text text-anchor="middle" x="261" y="-15.3" font-family="Helvetica,sans-Serif" font-size="14.00">u</text>
<text text-anchor="middle" x="239" y="-40.8" font-family="Helvetica,sans-Serif" font-size="14.00">1</text>
</g>
<!-- p&#45;&gt;u -->
<!-- comma -->
<g id="node6" class="node"><title>comma</title>
<ellipse fill="none" stroke="black" cx="315" cy="-19" rx="18" ry="18"/>
<text text-anchor="middle" x="315" y="-15.3" font-family="Helvetica,sans-Serif" font-size="14.00">,</text>
<text text-anchor="middle" x="293" y="-40.8" font-family="Helvetica,sans-Serif" font-size="14.00">1</text>
</g>
<!-- u&#45;&gt;comma -->
<!-- e -->
<g id="node7" class="node"><title>e</title>
<ellipse fill="none" stroke="black" cx="364" cy="-92" rx="18" ry="18"/>
<text text-anchor="middle" x="364" y="-88.3" font-family="Helvetica,sans-Serif" font-size="14.00">e</text>
<text text-anchor="middle" x="342" y="-113.8" font-family="Helvetica,sans-Serif" font-size="14.00">2</text>
</g>
<!-- spacer1 -->
<!-- e&#45;&gt;spacer1 -->
<!-- o -->
<g id="node8" class="node"><title>o</title>
<ellipse fill="none" stroke="black" cx="444" cy="-92" rx="18" ry="18"/>
<text text-anchor="middle" x="444" y="-88.3" font-family="Helvetica,sans-Serif" font-size="14.00">o</text>
<text text-anchor="middle" x="422" y="-113.8" font-family="Helvetica,sans-Serif" font-size="14.00">2</text>
</g>
<!-- T6empty1 -->
<!-- o&#45;&gt;T6empty1 -->
<!-- s -->
<g id="node9" class="node"><title>s</title>
<ellipse fill="none" stroke="black" cx="524" cy="-92" rx="18" ry="18"/>
<text text-anchor="middle" x="524" y="-88.3" font-family="Helvetica,sans-Serif" font-size="14.00">s</text>
<text text-anchor="middle" x="502" y="-113.8" font-family="Helvetica,sans-Serif" font-size="14.00">2</text>
</g>
<!-- T6empty2 -->
<!-- s&#45;&gt;T6empty2 -->
<!-- t -->
<g id="node10" class="node"><title>t</title>
<ellipse fill="none" stroke="black" cx="564" cy="-164" rx="18" ry="18"/>
<text text-anchor="middle" x="564" y="-160.3" font-family="Helvetica,sans-Serif" font-size="14.00">t</text>
<text text-anchor="middle" x="542" y="-185.8" font-family="Helvetica,sans-Serif" font-size="14.00">4</text>
</g>
<!-- T7empty2 -->
<!-- t&#45;&gt;T7empty2 -->
<!-- i -->
<g id="node11" class="node"><title>i</title>
<ellipse fill="none" stroke="black" cx="628" cy="-236" rx="18" ry="18"/>
<text text-anchor="middle" x="628" y="-232.3" font-family="Helvetica,sans-Serif" font-size="14.00">i</text>
<text text-anchor="middle" x="606" y="-257.8" font-family="Helvetica,sans-Serif" font-size="14.00">5</text>
</g>
<!-- space -->
<g id="node12" class="node"><title>space</title>
<ellipse fill="none" stroke="black" cx="415" cy="-236" rx="18" ry="18"/>
<text text-anchor="middle" x="415" y="-232.3" font-family="Helvetica,sans-Serif" font-size="14.00">&#39; &#160;&#39;</text>
<text text-anchor="middle" x="393" y="-257.8" font-family="Helvetica,sans-Serif" font-size="14.00">9</text>
</g>
<!-- T7 -->
<g id="node23" class="node"><title>T7</title>
<ellipse fill="none" stroke="black" cx="523" cy="-236" rx="18" ry="18"/>
<text text-anchor="middle" x="523" y="-232.3" font-family="Helvetica,sans-Serif" font-size="14.00">T7</text>
<text text-anchor="middle" x="501" y="-257.8" font-family="Helvetica,sans-Serif" font-size="14.00">8</text>
</g>
<!-- space&#45;&gt;T7 -->
<!-- T1 -->
<g id="node13" class="node"><title>T1</title>
<ellipse fill="none" stroke="black" cx="74" cy="-92" rx="18" ry="18"/>
<text text-anchor="middle" x="74" y="-88.3" font-family="Helvetica,sans-Serif" font-size="14.00">T1</text>
<text text-anchor="middle" x="52" y="-113.8" font-family="Helvetica,sans-Serif" font-size="14.00">2</text>
</g>
<!-- T1&#45;&gt;b -->
<g id="edge1" class="edge"><title>T1&#45;&gt;b</title>
<path fill="none" stroke="black" d="M64.2865,-76.6321C57.7153,-66.9123 48.8976,-53.8694 41.3808,-42.7507"/>
<polygon fill="black" stroke="black" points="44.1994,-40.6707 35.6991,-34.3465 38.4003,-44.5913 44.1994,-40.6707"/>
</g>
<!-- T1&#45;&gt;f -->
<g id="edge2" class="edge"><title>T1&#45;&gt;f</title>
<path fill="none" stroke="black" d="M75.4524,-73.8129C76.1305,-65.7895 76.9537,-56.0475 77.7125,-47.0691"/>
<polygon fill="black" stroke="black" points="81.2064,-47.2881 78.5609,-37.0288 74.2312,-46.6986 81.2064,-47.2881"/>
</g>
<!-- T5empty1 -->
<!-- T1&#45;&gt;T5empty1 -->
<!-- spacer4 -->
<!-- T1&#45;&gt;spacer4 -->
<!-- T2 -->
<g id="node14" class="node"><title>T2</title>
<ellipse fill="none" stroke="black" cx="179" cy="-92" rx="18" ry="18"/>
<text text-anchor="middle" x="179" y="-88.3" font-family="Helvetica,sans-Serif" font-size="14.00">T2</text>
<text text-anchor="middle" x="157" y="-113.8" font-family="Helvetica,sans-Serif" font-size="14.00">2</text>
</g>
<!-- T2&#45;&gt;m -->
<g id="edge3" class="edge"><title>T2&#45;&gt;m</title>
<path fill="none" stroke="black" d="M171.676,-75.2428C167.59,-66.4503 162.402,-55.2886 157.761,-45.303"/>
<polygon fill="black" stroke="black" points="160.921,-43.7985 153.532,-36.2054 154.573,-46.749 160.921,-43.7985"/>
</g>
<!-- T2&#45;&gt;p -->
<g id="edge4" class="edge"><title>T2&#45;&gt;p</title>
<path fill="none" stroke="black" d="M184.103,-74.5327C186.713,-66.1093 189.952,-55.6561 192.893,-46.1621"/>
<polygon fill="black" stroke="black" points="196.308,-46.9659 195.925,-36.378 189.622,-44.894 196.308,-46.9659"/>
</g>
<!-- spacer2 -->
<!-- T2&#45;&gt;spacer2 -->
<!-- T3 -->
<g id="node15" class="node"><title>T3</title>
<ellipse fill="none" stroke="black" cx="284" cy="-92" rx="18" ry="18"/>
<text text-anchor="middle" x="284" y="-88.3" font-family="Helvetica,sans-Serif" font-size="14.00">T3</text>
<text text-anchor="middle" x="262" y="-113.8" font-family="Helvetica,sans-Serif" font-size="14.00">2</text>
</g>
<!-- T3&#45;&gt;u -->
<g id="edge5" class="edge"><title>T3&#45;&gt;u</title>
<path fill="none" stroke="black" d="M278.666,-74.5327C275.937,-66.1093 272.551,-55.6561 269.475,-46.1621"/>
<polygon fill="black" stroke="black" points="272.717,-44.8126 266.306,-36.378 266.058,-46.9699 272.717,-44.8126"/>
</g>
<!-- T3&#45;&gt;comma -->
<g id="edge6" class="edge"><title>T3&#45;&gt;comma</title>
<path fill="none" stroke="black" d="M290.88,-75.2428C294.773,-66.3264 299.73,-54.9737 304.136,-44.8818"/>
<polygon fill="black" stroke="black" points="307.345,-46.2782 308.139,-35.7132 300.93,-43.4772 307.345,-46.2782"/>
</g>
<!-- T4empty1 -->
<!-- T3&#45;&gt;T4empty1 -->
<!-- T4 -->
<g id="node16" class="node"><title>T4</title>
<ellipse fill="none" stroke="black" cx="341" cy="-164" rx="18" ry="18"/>
<text text-anchor="middle" x="341" y="-160.3" font-family="Helvetica,sans-Serif" font-size="14.00">T4</text>
<text text-anchor="middle" x="319" y="-185.8" font-family="Helvetica,sans-Serif" font-size="14.00">4</text>
</g>
<!-- T4&#45;&gt;e -->
<g id="edge9" class="edge"><title>T4&#45;&gt;e</title>
<path fill="none" stroke="black" d="M346.334,-146.765C349.024,-138.578 352.353,-128.448 355.393,-119.195"/>
<polygon fill="black" stroke="black" points="358.738,-120.226 358.535,-109.633 352.088,-118.041 358.738,-120.226"/>
</g>
<!-- T4&#45;&gt;T3 -->
<g id="edge7" class="edge"><title>T4&#45;&gt;T3</title>
<path fill="none" stroke="black" d="M330.01,-149.503C321.888,-139.529 310.668,-125.75 301.342,-114.297"/>
<polygon fill="black" stroke="black" points="303.985,-112 294.956,-106.455 298.557,-116.42 303.985,-112"/>
</g>
<!-- T4&#45;&gt;T4empty1 -->
<!-- T4empty1&#45;&gt;e -->
<!-- T5 -->
<g id="node18" class="node"><title>T5</title>
<ellipse fill="none" stroke="black" cx="179" cy="-164" rx="18" ry="18"/>
<text text-anchor="middle" x="179" y="-160.3" font-family="Helvetica,sans-Serif" font-size="14.00">T5</text>
<text text-anchor="middle" x="157" y="-185.8" font-family="Helvetica,sans-Serif" font-size="14.00">4</text>
</g>
<!-- T5&#45;&gt;T1 -->
<g id="edge12" class="edge"><title>T5&#45;&gt;T1</title>
<path fill="none" stroke="black" d="M164.4,-153.267C147.024,-141.683 117.786,-122.191 97.2785,-108.519"/>
<polygon fill="black" stroke="black" points="99.0763,-105.511 88.8143,-102.876 95.1934,-111.335 99.0763,-105.511"/>
</g>
<!-- T5&#45;&gt;T2 -->
<g id="edge13" class="edge"><title>T5&#45;&gt;T2</title>
<path fill="none" stroke="black" d="M179,-145.697C179,-137.983 179,-128.712 179,-120.112"/>
<polygon fill="black" stroke="black" points="182.5,-120.104 179,-110.104 175.5,-120.104 182.5,-120.104"/>
</g>
<!-- T8empty1 -->
<!-- T5&#45;&gt;T8empty1 -->
<!-- T5empty1&#45;&gt;T2 -->
<!-- T6 -->
<g id="node20" class="node"><title>T6</title>
<ellipse fill="none" stroke="black" cx="484" cy="-164" rx="18" ry="18"/>
<text text-anchor="middle" x="484" y="-160.3" font-family="Helvetica,sans-Serif" font-size="14.00">T6</text>
<text text-anchor="middle" x="462" y="-185.8" font-family="Helvetica,sans-Serif" font-size="14.00">4</text>
</g>
<!-- T6&#45;&gt;o -->
<g id="edge16" class="edge"><title>T6&#45;&gt;o</title>
<path fill="none" stroke="black" d="M475.321,-147.811C470.184,-138.822 463.561,-127.232 457.73,-117.028"/>
<polygon fill="black" stroke="black" points="460.663,-115.105 452.662,-108.159 454.585,-118.578 460.663,-115.105"/>
</g>
<!-- T6&#45;&gt;s -->
<g id="edge19" class="edge"><title>T6&#45;&gt;s</title>
<path fill="none" stroke="black" d="M492.679,-147.811C497.816,-138.822 504.439,-127.232 510.27,-117.028"/>
<polygon fill="black" stroke="black" points="513.415,-118.578 515.338,-108.159 507.337,-115.105 513.415,-118.578"/>
</g>
<!-- T6&#45;&gt;T6empty1 -->
<!-- T6&#45;&gt;T6empty2 -->
<!-- T7empty1 -->
<!-- T6&#45;&gt;T7empty1 -->
<!-- T6empty1&#45;&gt;s -->
<!-- T7&#45;&gt;t -->
<g id="edge25" class="edge"><title>T7&#45;&gt;t</title>
<path fill="none" stroke="black" d="M531.695,-220.155C537.076,-210.967 544.104,-198.968 550.23,-188.509"/>
<polygon fill="black" stroke="black" points="553.284,-190.222 555.317,-179.824 547.243,-186.684 553.284,-190.222"/>
</g>
<!-- T7&#45;&gt;i -->
<!-- T7&#45;&gt;T6 -->
<g id="edge23" class="edge"><title>T7&#45;&gt;T6</title>
<path fill="none" stroke="black" d="M514.538,-219.811C509.529,-210.822 503.072,-199.232 497.387,-189.028"/>
<polygon fill="black" stroke="black" points="500.37,-187.192 492.446,-180.159 494.255,-190.598 500.37,-187.192"/>
</g>
<!-- T7&#45;&gt;T7empty1 -->
<!-- T7&#45;&gt;T7empty2 -->
<!-- T9empty1 -->
<!-- T7&#45;&gt;T9empty1 -->
<!-- T7empty1&#45;&gt;t -->
<!-- T8 -->
<g id="node26" class="node"><title>T8</title>
<ellipse fill="none" stroke="black" cx="301" cy="-236" rx="18" ry="18"/>
<text text-anchor="middle" x="301" y="-232.3" font-family="Helvetica,sans-Serif" font-size="14.00">T8</text>
<text text-anchor="middle" x="279" y="-257.8" font-family="Helvetica,sans-Serif" font-size="14.00">8</text>
</g>
<!-- T8&#45;&gt;space -->
<!-- T8&#45;&gt;T4 -->
<g id="edge34" class="edge"><title>T8&#45;&gt;T4</title>
<path fill="none" stroke="black" d="M309.679,-219.811C314.816,-210.822 321.439,-199.232 327.27,-189.028"/>
<polygon fill="black" stroke="black" points="330.415,-190.578 332.338,-180.159 324.337,-187.105 330.415,-190.578"/>
</g>
<!-- T8&#45;&gt;T5 -->
<g id="edge30" class="edge"><title>T8&#45;&gt;T5</title>
<path fill="none" stroke="black" d="M285.549,-226.134C264.74,-214.195 227.501,-192.829 203.022,-178.783"/>
<polygon fill="black" stroke="black" points="204.741,-175.735 194.326,-173.794 201.258,-181.806 204.741,-175.735"/>
</g>
<!-- T8&#45;&gt;T8empty1 -->
<!-- T8empty2 -->
<!-- T8&#45;&gt;T8empty2 -->
<!-- T8empty3 -->
<!-- T8&#45;&gt;T8empty3 -->
<!-- T10empty1 -->
<!-- T8&#45;&gt;T10empty1 -->
<!-- T8empty1&#45;&gt;T8empty2 -->
<!-- T8empty2&#45;&gt;T8empty3 -->
<!-- T8empty3&#45;&gt;T4 -->
<!-- T9 -->
<g id="node30" class="node"><title>T9</title>
<ellipse fill="none" stroke="black" cx="559" cy="-308" rx="18" ry="18"/>
<text text-anchor="middle" x="559" y="-304.3" font-family="Helvetica,sans-Serif" font-size="14.00">T9</text>
<text text-anchor="middle" x="533" y="-329.8" font-family="Helvetica,sans-Serif" font-size="14.00">13</text>
</g>
<!-- T9&#45;&gt;i -->
<g id="edge42" class="edge"><title>T9&#45;&gt;i</title>
<path fill="none" stroke="black" d="M571.336,-294.485C581.638,-284.034 596.514,-268.942 608.439,-256.845"/>
<polygon fill="black" stroke="black" points="611.244,-258.985 615.771,-249.406 606.258,-254.071 611.244,-258.985"/>
</g>
<!-- T9&#45;&gt;T7 -->
<g id="edge39" class="edge"><title>T9&#45;&gt;T7</title>
<path fill="none" stroke="black" d="M551.01,-291.465C546.489,-282.674 540.733,-271.481 535.616,-261.531"/>
<polygon fill="black" stroke="black" points="538.653,-259.784 530.967,-252.492 532.428,-262.985 538.653,-259.784"/>
</g>
<!-- T9&#45;&gt;T9empty1 -->
<!-- T9empty2 -->
<!-- T9&#45;&gt;T9empty2 -->
<!-- T9empty1&#45;&gt;T9empty2 -->
<!-- T9empty2&#45;&gt;i -->
<!-- T10 -->
<g id="node33" class="node"><title>T10</title>
<ellipse fill="none" stroke="black" cx="376" cy="-308" rx="18" ry="18"/>
<text text-anchor="middle" x="376" y="-304.3" font-family="Helvetica,sans-Serif" font-size="14.00">T10</text>
<text text-anchor="middle" x="350" y="-329.8" font-family="Helvetica,sans-Serif" font-size="14.00">17</text>
</g>
<!-- T10&#45;&gt;space -->
<g id="edge49" class="edge"><title>T10&#45;&gt;space</title>
<path fill="none" stroke="black" d="M384.462,-291.811C389.471,-282.822 395.928,-271.232 401.613,-261.028"/>
<polygon fill="black" stroke="black" points="404.745,-262.598 406.554,-252.159 398.63,-259.192 404.745,-262.598"/>
</g>
<!-- T10&#45;&gt;T8 -->
<g id="edge46" class="edge"><title>T10&#45;&gt;T8</title>
<path fill="none" stroke="black" d="M363.277,-295.125C351.748,-284.365 334.564,-268.327 321.165,-255.821"/>
<polygon fill="black" stroke="black" points="323.484,-253.197 313.785,-248.933 318.708,-258.315 323.484,-253.197"/>
</g>
<!-- T10&#45;&gt;T9 -->
<!-- T10&#45;&gt;T10empty1 -->
<!-- T10empty2 -->
<!-- T10&#45;&gt;T10empty2 -->
<!-- T11empty1 -->
<!-- T10&#45;&gt;T11empty1 -->
<!-- T10empty1&#45;&gt;T10empty2 -->
<!-- T10empty2&#45;&gt;space -->
<!-- T11 -->
<g id="node36" class="node"><title>T11</title>
<ellipse fill="none" stroke="black" cx="468" cy="-380" rx="18" ry="18"/>
<text text-anchor="middle" x="468" y="-376.3" font-family="Helvetica,sans-Serif" font-size="14.00">T11</text>
<text text-anchor="middle" x="442" y="-401.8" font-family="Helvetica,sans-Serif" font-size="14.00">30</text>
</g>
<!-- T11&#45;&gt;T9 -->
<g id="edge59" class="edge"><title>T11&#45;&gt;T9</title>
<path fill="none" stroke="black" d="M481.821,-368.369C496.386,-357.165 519.549,-339.347 536.703,-326.151"/>
<polygon fill="black" stroke="black" points="539.257,-328.603 545.049,-319.732 534.989,-323.054 539.257,-328.603"/>
</g>
<!-- T11&#45;&gt;T10 -->
<g id="edge53" class="edge"><title>T11&#45;&gt;T10</title>
<path fill="none" stroke="black" d="M454.027,-368.369C439.167,-357.062 415.454,-339.02 398.066,-325.789"/>
<polygon fill="black" stroke="black" points="400.182,-323.001 390.104,-319.732 395.943,-328.572 400.182,-323.001"/>
</g>
<!-- T11&#45;&gt;T11empty1 -->
<!-- T11empty2 -->
<!-- T11&#45;&gt;T11empty2 -->
<!-- T11empty3 -->
<!-- T11&#45;&gt;T11empty3 -->
<!-- T11empty4 -->
<!-- T11&#45;&gt;T11empty4 -->
<!-- T11empty5 -->
<!-- T11&#45;&gt;T11empty5 -->
<!-- T11empty1&#45;&gt;T11empty2 -->
<!-- T11empty2&#45;&gt;T11empty3 -->
<!-- T11empty3&#45;&gt;T11empty4 -->
<!-- T11empty4&#45;&gt;T11empty5 -->
<!-- T11empty5&#45;&gt;T9 -->
<!-- spacer1&#45;&gt;o -->
<!-- spacer3 -->
<!-- spacer2&#45;&gt;spacer3 -->
<!-- spacer3&#45;&gt;T3 -->
<!-- spacer4&#45;&gt;T2 -->
</g>
</svg>
