<?xml version="1.0" encoding="UTF-8" standalone="no"?>
<!DOCTYPE svg PUBLIC "-//W3C//DTD SVG 1.1//EN"
 "http://www.w3.org/Graphics/SVG/1.1/DTD/svg11.dtd">
<!-- Generated by graphviz version 2.36.0 (20140111.2315)
 -->
<!-- Title: G Pages: 1 -->
<svg width="346pt" height="44pt"
 viewBox="0.00 0.00 346.00 44.00" xmlns="http://www.w3.org/2000/svg" xmlns:xlink="http://www.w3.org/1999/xlink">
<g id="graph0" class="graph" transform="scale(1 1) rotate(0) translate(4 40)">
<title>G</title>
<polygon fill="white" stroke="none" points="-4,4 -4,-40 342,-40 342,4 -4,4"/>
<!-- predecessor -->
<g id="node1" class="node"><title>predecessor</title>
<ellipse fill="none" stroke="black" cx="59" cy="-18" rx="59.2173" ry="18"/>
<text text-anchor="middle" x="59" y="-14.3" font-family="Helvetica,sans-Serif" font-size="14.00">predecessor</text>
</g>
<!-- element -->
<g id="node2" class="node"><title>element</title>
<ellipse fill="none" stroke="black" cx="178" cy="-18" rx="42.3701" ry="18"/>
<text text-anchor="middle" x="178" y="-14.3" font-family="Helvetica,sans-Serif" font-size="14.00">element</text>
</g>
<!-- predecessor&#45;&gt;element -->
<g id="edge1" class="edge"><title>predecessor&#45;&gt;element</title>
<path fill="none" stroke="black" d="M101.766,-5.56787C112.633,-4.18086 123.501,-4.14499 134.369,-5.46029"/>
<polygon fill="black" stroke="black" points="133.924,-8.93341 144.35,-7.04806 135.024,-2.02034 133.924,-8.93341"/>
</g>
<!-- predecessor&#45;&gt;element -->
<!-- successor -->
<g id="node3" class="node"><title>successor</title>
<ellipse fill="none" stroke="black" cx="288" cy="-18" rx="50.0684" ry="18"/>
<text text-anchor="middle" x="288" y="-14.3" font-family="Helvetica,sans-Serif" font-size="14.00">successor</text>
</g>
<!-- element&#45;&gt;successor -->
<g id="edge2" class="edge"><title>element&#45;&gt;successor</title>
<path fill="none" stroke="black" d="M211.086,-6.64316C220.897,-4.72408 230.709,-4.09382 240.52,-4.75239"/>
<polygon fill="black" stroke="black" points="240.416,-8.26268 250.745,-5.90523 241.2,-1.30676 240.416,-8.26268"/>
</g>
<!-- element&#45;&gt;successor -->
</g>
</svg>
