<?xml version="1.0" encoding="UTF-8" standalone="no"?>
<!DOCTYPE svg PUBLIC "-//W3C//DTD SVG 1.1//EN"
 "http://www.w3.org/Graphics/SVG/1.1/DTD/svg11.dtd">
<!-- Generated by graphviz version 2.36.0 (20140111.2315)
 -->
<!-- Title: structs Pages: 1 -->
<svg width="572pt" height="56pt"
 viewBox="0.00 0.00 572.00 56.00" xmlns="http://www.w3.org/2000/svg" xmlns:xlink="http://www.w3.org/1999/xlink">
<g id="graph0" class="graph" transform="scale(1 1) rotate(0) translate(4 52)">
<title>structs</title>
<polygon fill="white" stroke="none" points="-4,4 -4,-52 568,-52 568,4 -4,4"/>
<!-- pointer -->
<g id="node1" class="node"><title>pointer</title>
<path fill="none" stroke="black" d="M12,-6C12,-6 42,-6 42,-6 48,-6 54,-12 54,-18 54,-18 54,-30 54,-30 54,-36 48,-42 42,-42 42,-42 12,-42 12,-42 6,-42 0,-36 0,-30 0,-30 0,-18 0,-18 0,-12 6,-6 12,-6"/>
<text text-anchor="middle" x="27" y="-20.3" font-family="Helvetica,sans-Serif" font-weight="bold" font-size="14.00">L</text>
</g>
<!-- node1 -->
<g id="node2" class="node"><title>node1</title>
<path fill="none" stroke="black" d="M138.5,-1C138.5,-1 181.5,-1 181.5,-1 187.5,-1 193.5,-7 193.5,-13 193.5,-13 193.5,-35 193.5,-35 193.5,-41 187.5,-47 181.5,-47 181.5,-47 138.5,-47 138.5,-47 132.5,-47 126.5,-41 126.5,-35 126.5,-35 126.5,-13 126.5,-13 126.5,-7 132.5,-1 138.5,-1"/>
<text text-anchor="middle" x="160" y="-31.8" font-family="Helvetica,sans-Serif" font-weight="bold" font-size="14.00">value: 1</text>
<polyline fill="none" stroke="black" points="126.5,-24 193.5,-24 "/>
<text text-anchor="middle" x="160" y="-8.8" font-family="Helvetica,sans-Serif" font-weight="bold" font-size="14.00">next:</text>
</g>
<!-- pointer&#45;&gt;node1 -->
<g id="edge1" class="edge"><title>pointer&#45;&gt;node1</title>
<path fill="none" stroke="black" d="M54.0156,-15.0165C74.8639,-9.85094 95.7123,-8.77662 116.561,-11.7935"/>
<polygon fill="black" stroke="black" points="116.011,-15.2505 126.466,-13.5347 117.223,-8.35619 116.011,-15.2505"/>
</g>
<!-- pointer&#45;&gt;node1 -->
<!-- node2 -->
<g id="node3" class="node"><title>node2</title>
<path fill="none" stroke="black" d="M277.5,-1C277.5,-1 320.5,-1 320.5,-1 326.5,-1 332.5,-7 332.5,-13 332.5,-13 332.5,-35 332.5,-35 332.5,-41 326.5,-47 320.5,-47 320.5,-47 277.5,-47 277.5,-47 271.5,-47 265.5,-41 265.5,-35 265.5,-35 265.5,-13 265.5,-13 265.5,-7 271.5,-1 277.5,-1"/>
<text text-anchor="middle" x="299" y="-31.8" font-family="Helvetica,sans-Serif" font-weight="bold" font-size="14.00">value: 2</text>
<polyline fill="none" stroke="black" points="265.5,-24 332.5,-24 "/>
<text text-anchor="middle" x="299" y="-8.8" font-family="Helvetica,sans-Serif" font-weight="bold" font-size="14.00">next:</text>
</g>
<!-- node1&#45;&gt;node2 -->
<g id="edge2" class="edge"><title>node1&#45;&gt;node2</title>
<path fill="none" stroke="black" d="M193.664,-11.0609C214.266,-5.67297 234.869,-4.93138 255.471,-8.83617"/>
<polygon fill="black" stroke="black" points="254.735,-12.2579 265.26,-11.041 256.273,-5.42904 254.735,-12.2579"/>
</g>
<!-- node1&#45;&gt;node2 -->
<!-- node3 -->
<g id="node4" class="node"><title>node3</title>
<path fill="none" stroke="black" d="M416.5,-1C416.5,-1 459.5,-1 459.5,-1 465.5,-1 471.5,-7 471.5,-13 471.5,-13 471.5,-35 471.5,-35 471.5,-41 465.5,-47 459.5,-47 459.5,-47 416.5,-47 416.5,-47 410.5,-47 404.5,-41 404.5,-35 404.5,-35 404.5,-13 404.5,-13 404.5,-7 410.5,-1 416.5,-1"/>
<text text-anchor="middle" x="438" y="-31.8" font-family="Helvetica,sans-Serif" font-weight="bold" font-size="14.00">value: 3</text>
<polyline fill="none" stroke="black" points="404.5,-24 471.5,-24 "/>
<text text-anchor="middle" x="438" y="-8.8" font-family="Helvetica,sans-Serif" font-weight="bold" font-size="14.00">next:</text>
</g>
<!-- node2&#45;&gt;node3 -->
<g id="edge3" class="edge"><title>node2&#45;&gt;node3</title>
<path fill="none" stroke="black" d="M332.664,-11.0609C353.266,-5.67297 373.869,-4.93138 394.471,-8.83617"/>
<polygon fill="black" stroke="black" points="393.735,-12.2579 404.26,-11.041 395.273,-5.42904 393.735,-12.2579"/>
</g>
<!-- node2&#45;&gt;node3 -->
<!-- null -->
<!-- node3&#45;&gt;null -->
<g id="edge4" class="edge"><title>node3&#45;&gt;null</title>
<path fill="none" stroke="black" d="M471.531,-9.51187C486.753,-5.60916 501.974,-5.34809 517.195,-8.72866"/>
<ellipse fill="black" stroke="black" cx="539.929" cy="-16.9337" rx="4" ry="4"/>
<polygon fill="black" stroke="black" points="536.923,-10.5332 533.528,-19.9393 531.647,-19.2604 535.042,-9.85423 536.923,-10.5332"/>
<polyline fill="none" stroke="black" points="536.167,-15.5757 531.463,-13.8783 "/>
<polygon fill="black" stroke="black" points="532.22,-8.83577 528.825,-18.2419 526.944,-17.5629 530.339,-8.1568 532.22,-8.83577"/>
<polyline fill="none" stroke="black" points="531.463,-13.8783 526.76,-12.1809 "/>
<polygon fill="black" stroke="black" points="516.166,-12.0782 526.76,-12.1809 518.542,-5.4939 516.166,-12.0782"/>
</g>
<!-- node3&#45;&gt;null -->
</g>
</svg>
