<?xml version="1.0" encoding="UTF-8" standalone="no"?>
<!DOCTYPE svg PUBLIC "-//W3C//DTD SVG 1.1//EN"
 "http://www.w3.org/Graphics/SVG/1.1/DTD/svg11.dtd">
<!-- Generated by graphviz version 2.26.3 (20100126.1600)
 -->
<!-- Title: structs Pages: 1 -->
<svg width="568pt" height="64pt"
 viewBox="0.00 0.00 568.00 64.00" xmlns="http://www.w3.org/2000/svg" xmlns:xlink="http://www.w3.org/1999/xlink">
<g id="graph1" class="graph" transform="scale(1 1) rotate(0) translate(4 60)">
<title>structs</title>
<polygon fill="white" stroke="white" points="-4,5 -4,-60 565,-60 565,5 -4,5"/>
<!-- pointer -->
<g id="node1" class="node"><title>pointer</title>
<polyline fill="none" stroke="black" points="12,-10 42,-10 "/>
<path fill="none" stroke="black" d="M42,-10C48,-10 54,-16 54,-22"/>
<polyline fill="none" stroke="black" points="54,-22 54,-34 "/>
<path fill="none" stroke="black" d="M54,-34C54,-40 48,-46 42,-46"/>
<polyline fill="none" stroke="black" points="42,-46 12,-46 "/>
<path fill="none" stroke="black" d="M12,-46C6,-46 0,-40 0,-34"/>
<polyline fill="none" stroke="black" points="0,-34 0,-22 "/>
<path fill="none" stroke="black" d="M0,-22C0,-16 6,-10 12,-10"/>
<text text-anchor="middle" x="27" y="-24.9" font-family="Helvetica,sans-Serif" font-weight="bold" font-size="14.00">L</text>
</g>
<!-- node1 -->
<g id="node2" class="node"><title>node1</title>
<polyline fill="none" stroke="black" points="137.5,-1 180.5,-1 "/>
<path fill="none" stroke="black" d="M180.5,-1C186.5,-1 192.5,-7 192.5,-13"/>
<polyline fill="none" stroke="black" points="192.5,-13 192.5,-43 "/>
<path fill="none" stroke="black" d="M192.5,-43C192.5,-49 186.5,-55 180.5,-55"/>
<polyline fill="none" stroke="black" points="180.5,-55 137.5,-55 "/>
<path fill="none" stroke="black" d="M137.5,-55C131.5,-55 125.5,-49 125.5,-43"/>
<polyline fill="none" stroke="black" points="125.5,-43 125.5,-13 "/>
<path fill="none" stroke="black" d="M125.5,-13C125.5,-7 131.5,-1 137.5,-1"/>
<text text-anchor="middle" x="159" y="-38.4" font-family="Helvetica,sans-Serif" font-weight="bold" font-size="14.00">value: 1</text>
<polyline fill="none" stroke="black" points="125.5,-28 192.5,-28 "/>
<text text-anchor="middle" x="159" y="-11.4" font-family="Helvetica,sans-Serif" font-weight="bold" font-size="14.00">next:</text>
</g>
<!-- pointer&#45;&gt;node1 -->
<g id="edge2" class="edge"><title>pointer&#45;&gt;node1</title>
<path fill="none" stroke="black" d="M54.0703,-18.9523C74.5003,-13.8856 94.9304,-12.8074 115.36,-15.7176"/>
<polygon fill="black" stroke="black" points="114.937,-19.1965 125.39,-17.4666 116.14,-12.3006 114.937,-19.1965"/>
</g>
<!-- pointer&#45;&gt;node1 -->
<!-- node2 -->
<g id="node3" class="node"><title>node2</title>
<polyline fill="none" stroke="black" points="275.5,-1 318.5,-1 "/>
<path fill="none" stroke="black" d="M318.5,-1C324.5,-1 330.5,-7 330.5,-13"/>
<polyline fill="none" stroke="black" points="330.5,-13 330.5,-43 "/>
<path fill="none" stroke="black" d="M330.5,-43C330.5,-49 324.5,-55 318.5,-55"/>
<polyline fill="none" stroke="black" points="318.5,-55 275.5,-55 "/>
<path fill="none" stroke="black" d="M275.5,-55C269.5,-55 263.5,-49 263.5,-43"/>
<polyline fill="none" stroke="black" points="263.5,-43 263.5,-13 "/>
<path fill="none" stroke="black" d="M263.5,-13C263.5,-7 269.5,-1 275.5,-1"/>
<text text-anchor="middle" x="297" y="-38.4" font-family="Helvetica,sans-Serif" font-weight="bold" font-size="14.00">value: 2</text>
<polyline fill="none" stroke="black" points="263.5,-28 330.5,-28 "/>
<text text-anchor="middle" x="297" y="-11.4" font-family="Helvetica,sans-Serif" font-weight="bold" font-size="14.00">next:</text>
</g>
<!-- node1&#45;&gt;node2 -->
<g id="edge4" class="edge"><title>node1&#45;&gt;node2</title>
<path fill="none" stroke="black" d="M192.691,-12.7758C212.884,-6.59855 233.076,-5.7203 253.269,-10.141"/>
<polygon fill="black" stroke="black" points="252.621,-13.5893 263.181,-12.7369 254.394,-6.81767 252.621,-13.5893"/>
</g>
<!-- node1&#45;&gt;node2 -->
<!-- node3 -->
<g id="node4" class="node"><title>node3</title>
<polyline fill="none" stroke="black" points="413.5,-1 456.5,-1 "/>
<path fill="none" stroke="black" d="M456.5,-1C462.5,-1 468.5,-7 468.5,-13"/>
<polyline fill="none" stroke="black" points="468.5,-13 468.5,-43 "/>
<path fill="none" stroke="black" d="M468.5,-43C468.5,-49 462.5,-55 456.5,-55"/>
<polyline fill="none" stroke="black" points="456.5,-55 413.5,-55 "/>
<path fill="none" stroke="black" d="M413.5,-55C407.5,-55 401.5,-49 401.5,-43"/>
<polyline fill="none" stroke="black" points="401.5,-43 401.5,-13 "/>
<path fill="none" stroke="black" d="M401.5,-13C401.5,-7 407.5,-1 413.5,-1"/>
<text text-anchor="middle" x="435" y="-38.4" font-family="Helvetica,sans-Serif" font-weight="bold" font-size="14.00">value: 3</text>
<polyline fill="none" stroke="black" points="401.5,-28 468.5,-28 "/>
<text text-anchor="middle" x="435" y="-11.4" font-family="Helvetica,sans-Serif" font-weight="bold" font-size="14.00">next:</text>
</g>
<!-- node2&#45;&gt;node3 -->
<g id="edge6" class="edge"><title>node2&#45;&gt;node3</title>
<path fill="none" stroke="black" d="M330.691,-12.7758C350.884,-6.59855 371.076,-5.7203 391.269,-10.141"/>
<polygon fill="black" stroke="black" points="390.621,-13.5893 401.181,-12.7369 392.394,-6.81767 390.621,-13.5893"/>
</g>
<!-- node2&#45;&gt;node3 -->
<!-- null -->
<!-- node3&#45;&gt;null -->
<g id="edge8" class="edge"><title>node3&#45;&gt;null</title>
<path fill="none" stroke="black" d="M468.691,-10.9111C483.791,-6.4258 498.891,-6.20747 513.991,-10.2561"/>
<ellipse fill="black" stroke="black" cx="536.161" cy="-19.775" rx="4" ry="4"/>
<polygon fill="black" stroke="black" points="533.539,-13.2079 529.594,-22.3968 527.756,-21.6077 531.701,-12.4189 533.539,-13.2079"/>
<polyline fill="none" stroke="black" points="532.485,-18.1969 527.891,-16.2242 "/>
<polygon fill="black" stroke="black" points="528.945,-11.2353 524.999,-20.4241 523.162,-19.6351 527.107,-10.4462 528.945,-11.2353"/>
<polyline fill="none" stroke="black" points="527.891,-16.2242 523.297,-14.2516 "/>
<polygon fill="black" stroke="black" points="512.727,-13.5224 523.297,-14.2516 515.489,-7.09017 512.727,-13.5224"/>
</g>
<!-- node3&#45;&gt;null -->
</g>
</svg>
