<?xml version="1.0" encoding="UTF-8" standalone="no"?>
<!DOCTYPE svg PUBLIC "-//W3C//DTD SVG 1.1//EN"
 "http://www.w3.org/Graphics/SVG/1.1/DTD/svg11.dtd">
<!-- Generated by graphviz version 2.26.3 (20100126.1600)
 -->
<!-- Title: G Pages: 1 -->
<svg width="372pt" height="46pt"
 viewBox="0.00 0.00 372.00 46.00" xmlns="http://www.w3.org/2000/svg" xmlns:xlink="http://www.w3.org/1999/xlink">
<g id="graph1" class="graph" transform="scale(1 1) rotate(0) translate(4 42)">
<title>G</title>
<polygon fill="white" stroke="white" points="-4,5 -4,-42 369,-42 369,5 -4,5"/>
<!-- predecessor -->
<g id="node1" class="node"><title>predecessor</title>
<ellipse fill="none" stroke="black" cx="64" cy="-19" rx="63.8479" ry="19.0919"/>
<text text-anchor="middle" x="64" y="-15.9" font-family="Helvetica,sans-Serif" font-size="14.00">predecessor</text>
</g>
<!-- element -->
<g id="node2" class="node"><title>element</title>
<ellipse fill="none" stroke="black" cx="192" cy="-19" rx="45.9619" ry="19.0919"/>
<text text-anchor="middle" x="192" y="-15.9" font-family="Helvetica,sans-Serif" font-size="14.00">element</text>
</g>
<!-- predecessor&#45;&gt;element -->
<g id="edge2" class="edge"><title>predecessor&#45;&gt;element:w</title>
<path fill="none" stroke="black" d="M128.903,-19C131.251,-19 133.597,-19 135.927,-19"/>
<polygon fill="black" stroke="black" points="136,-22.5001 146,-19 136,-15.5001 136,-22.5001"/>
</g>
<!-- predecessor&#45;&gt;element -->
<!-- successor -->
<g id="node3" class="node"><title>successor</title>
<ellipse fill="none" stroke="black" cx="310" cy="-19" rx="53.9477" ry="19.0919"/>
<text text-anchor="middle" x="310" y="-15.9" font-family="Helvetica,sans-Serif" font-size="14.00">successor</text>
</g>
<!-- element&#45;&gt;successor -->
<g id="edge4" class="edge"><title>element&#45;&gt;successor:w</title>
<path fill="none" stroke="black" d="M238.106,-19C240.328,-19 242.558,-19 244.776,-19"/>
<polygon fill="black" stroke="black" points="245,-22.5001 255,-19 245,-15.5001 245,-22.5001"/>
</g>
<!-- element&#45;&gt;successor -->
</g>
</svg>
