<?xml version="1.0" encoding="UTF-8" standalone="no"?>
<!DOCTYPE svg PUBLIC "-//W3C//DTD SVG 1.1//EN"
 "http://www.w3.org/Graphics/SVG/1.1/DTD/svg11.dtd">
<!-- Generated by graphviz version 2.36.0 (20140111.2315)
 -->
<!-- Title: G Pages: 1 -->
<svg width="728pt" height="548pt"
 viewBox="0.00 0.00 728.00 548.00" xmlns="http://www.w3.org/2000/svg" xmlns:xlink="http://www.w3.org/1999/xlink">
<g id="graph0" class="graph" transform="scale(1 1) rotate(0) translate(4 544)">
<title>G</title>
<polygon fill="white" stroke="none" points="-4,4 -4,-544 724,-544 724,4 -4,4"/>
<!-- vars1 -->
<g id="node1" class="node"><title>vars1</title>
<ellipse fill="none" stroke="black" cx="82" cy="-450" rx="26.949" ry="18"/>
<text text-anchor="middle" x="82" y="-446.3" font-family="Helvetica,sans-Serif" font-size="14.00">vars</text>
</g>
<!-- functions -->
<g id="node3" class="node"><title>functions</title>
<ellipse fill="none" stroke="black" cx="173" cy="-450" rx="46.2191" ry="18"/>
<text text-anchor="middle" x="173" y="-446.3" font-family="Helvetica,sans-Serif" font-size="14.00">functions</text>
</g>
<!-- vars1&#45;&gt;functions -->
<!-- intz1 -->
<g id="node4" class="node"><title>intz1</title>
<ellipse fill="none" stroke="black" cx="82" cy="-378" rx="27" ry="18"/>
<text text-anchor="middle" x="82" y="-374.3" font-family="Helvetica,sans-Serif" font-size="14.00">int z</text>
</g>
<!-- vars1&#45;&gt;intz1 -->
<g id="edge4" class="edge"><title>vars1&#45;&gt;intz1</title>
<path fill="none" stroke="black" d="M82,-431.697C82,-423.983 82,-414.712 82,-406.112"/>
<polygon fill="black" stroke="black" points="85.5001,-406.104 82,-396.104 78.5001,-406.104 85.5001,-406.104"/>
</g>
<!-- program -->
<g id="node2" class="node"><title>program</title>
<ellipse fill="none" stroke="black" cx="127" cy="-522" rx="44.2946" ry="18"/>
<text text-anchor="middle" x="127" y="-518.3" font-family="Helvetica,sans-Serif" font-size="14.00">program</text>
</g>
<!-- program&#45;&gt;vars1 -->
<g id="edge1" class="edge"><title>program&#45;&gt;vars1</title>
<path fill="none" stroke="black" d="M116.336,-504.411C110.821,-495.832 103.98,-485.191 97.859,-475.67"/>
<polygon fill="black" stroke="black" points="100.63,-473.507 92.2781,-466.988 94.7416,-477.293 100.63,-473.507"/>
</g>
<!-- program&#45;&gt;functions -->
<g id="edge2" class="edge"><title>program&#45;&gt;functions</title>
<path fill="none" stroke="black" d="M137.901,-504.411C143.378,-496.077 150.133,-485.797 156.251,-476.488"/>
<polygon fill="black" stroke="black" points="159.29,-478.235 161.857,-467.956 153.441,-474.391 159.29,-478.235"/>
</g>
<!-- foo1 -->
<g id="node5" class="node"><title>foo1</title>
<ellipse fill="none" stroke="black" cx="164" cy="-378" rx="28.3955" ry="18"/>
<text text-anchor="middle" x="164" y="-374.3" font-family="Helvetica,sans-Serif" font-size="14.00">foo()</text>
</g>
<!-- functions&#45;&gt;foo1 -->
<g id="edge5" class="edge"><title>functions&#45;&gt;foo1</title>
<path fill="none" stroke="black" d="M170.775,-431.697C169.783,-423.983 168.592,-414.712 167.486,-406.112"/>
<polygon fill="black" stroke="black" points="170.946,-405.576 166.199,-396.104 164.003,-406.469 170.946,-405.576"/>
</g>
<!-- main -->
<g id="node6" class="node"><title>main</title>
<ellipse fill="none" stroke="black" cx="332" cy="-378" rx="36.096" ry="18"/>
<text text-anchor="middle" x="332" y="-374.3" font-family="Helvetica,sans-Serif" font-size="14.00">main()</text>
</g>
<!-- functions&#45;&gt;main -->
<g id="edge6" class="edge"><title>functions&#45;&gt;main</title>
<path fill="none" stroke="black" d="M202.534,-435.998C229.045,-424.326 268.022,-407.166 296.278,-394.727"/>
<polygon fill="black" stroke="black" points="298.046,-397.773 305.788,-390.54 295.225,-391.366 298.046,-397.773"/>
</g>
<!-- foo1&#45;&gt;main -->
<!-- params1 -->
<g id="node7" class="node"><title>params1</title>
<ellipse fill="none" stroke="black" cx="40" cy="-306" rx="39.9464" ry="18"/>
<text text-anchor="middle" x="40" y="-302.3" font-family="Helvetica,sans-Serif" font-size="14.00">params</text>
</g>
<!-- foo1&#45;&gt;params1 -->
<g id="edge8" class="edge"><title>foo1&#45;&gt;params1</title>
<path fill="none" stroke="black" d="M143.524,-365.441C124.298,-354.588 95.2135,-338.169 72.7626,-325.495"/>
<polygon fill="black" stroke="black" points="74.3327,-322.362 63.9039,-320.494 70.8915,-328.458 74.3327,-322.362"/>
</g>
<!-- vars2 -->
<g id="node8" class="node"><title>vars2</title>
<ellipse fill="none" stroke="black" cx="126" cy="-306" rx="26.949" ry="18"/>
<text text-anchor="middle" x="126" y="-302.3" font-family="Helvetica,sans-Serif" font-size="14.00">vars</text>
</g>
<!-- foo1&#45;&gt;vars2 -->
<g id="edge9" class="edge"><title>foo1&#45;&gt;vars2</title>
<path fill="none" stroke="black" d="M155.187,-360.765C150.582,-352.283 144.845,-341.714 139.679,-332.197"/>
<polygon fill="black" stroke="black" points="142.613,-330.266 134.766,-323.147 136.461,-333.606 142.613,-330.266"/>
</g>
<!-- body1 -->
<g id="node9" class="node"><title>body1</title>
<ellipse fill="none" stroke="black" cx="201" cy="-306" rx="29.3479" ry="18"/>
<text text-anchor="middle" x="201" y="-302.3" font-family="Helvetica,sans-Serif" font-size="14.00">body</text>
</g>
<!-- foo1&#45;&gt;body1 -->
<g id="edge10" class="edge"><title>foo1&#45;&gt;body1</title>
<path fill="none" stroke="black" d="M172.582,-360.765C177.001,-352.404 182.492,-342.016 187.465,-332.606"/>
<polygon fill="black" stroke="black" points="190.629,-334.11 192.208,-323.633 184.441,-330.839 190.629,-334.11"/>
</g>
<!-- params2 -->
<g id="node19" class="node"><title>params2</title>
<ellipse fill="none" stroke="black" cx="289" cy="-306" rx="39.9464" ry="18"/>
<text text-anchor="middle" x="289" y="-302.3" font-family="Helvetica,sans-Serif" font-size="14.00">params</text>
</g>
<!-- main&#45;&gt;params2 -->
<g id="edge26" class="edge"><title>main&#45;&gt;params2</title>
<path fill="none" stroke="black" d="M321.81,-360.411C316.615,-351.955 310.189,-341.494 304.405,-332.078"/>
<polygon fill="black" stroke="black" points="307.334,-330.159 299.117,-323.47 301.369,-333.823 307.334,-330.159"/>
</g>
<!-- vars3 -->
<g id="node20" class="node"><title>vars3</title>
<ellipse fill="none" stroke="black" cx="375" cy="-306" rx="26.949" ry="18"/>
<text text-anchor="middle" x="375" y="-302.3" font-family="Helvetica,sans-Serif" font-size="14.00">vars</text>
</g>
<!-- main&#45;&gt;vars3 -->
<g id="edge27" class="edge"><title>main&#45;&gt;vars3</title>
<path fill="none" stroke="black" d="M342.19,-360.411C347.46,-351.832 353.997,-341.191 359.846,-331.67"/>
<polygon fill="black" stroke="black" points="362.927,-333.341 365.179,-322.988 356.962,-329.677 362.927,-333.341"/>
</g>
<!-- body3 -->
<g id="node21" class="node"><title>body3</title>
<ellipse fill="none" stroke="black" cx="582" cy="-306" rx="29.3479" ry="18"/>
<text text-anchor="middle" x="582" y="-302.3" font-family="Helvetica,sans-Serif" font-size="14.00">body</text>
</g>
<!-- main&#45;&gt;body3 -->
<g id="edge28" class="edge"><title>main&#45;&gt;body3</title>
<path fill="none" stroke="black" d="M362.655,-368.417C408.911,-355.465 496.376,-330.975 545.734,-317.155"/>
<polygon fill="black" stroke="black" points="546.973,-320.442 555.659,-314.375 545.086,-313.701 546.973,-320.442"/>
</g>
<!-- params1&#45;&gt;vars2 -->
<!-- intx -->
<g id="node10" class="node"><title>intx</title>
<ellipse fill="none" stroke="black" cx="40" cy="-234" rx="27" ry="18"/>
<text text-anchor="middle" x="40" y="-230.3" font-family="Helvetica,sans-Serif" font-size="14.00">int x</text>
</g>
<!-- params1&#45;&gt;intx -->
<g id="edge13" class="edge"><title>params1&#45;&gt;intx</title>
<path fill="none" stroke="black" d="M40,-287.697C40,-279.983 40,-270.712 40,-262.112"/>
<polygon fill="black" stroke="black" points="43.5001,-262.104 40,-252.104 36.5001,-262.104 43.5001,-262.104"/>
</g>
<!-- vars2&#45;&gt;body1 -->
<!-- for -->
<g id="node11" class="node"><title>for</title>
<ellipse fill="none" stroke="black" cx="201" cy="-234" rx="27" ry="18"/>
<text text-anchor="middle" x="201" y="-230.3" font-family="Helvetica,sans-Serif" font-size="14.00">for</text>
</g>
<!-- body1&#45;&gt;for -->
<g id="edge14" class="edge"><title>body1&#45;&gt;for</title>
<path fill="none" stroke="black" d="M201,-287.697C201,-279.983 201,-270.712 201,-262.112"/>
<polygon fill="black" stroke="black" points="204.5,-262.104 201,-252.104 197.5,-262.104 204.5,-262.104"/>
</g>
<!-- inty -->
<g id="node12" class="node"><title>inty</title>
<ellipse fill="none" stroke="black" cx="69" cy="-162" rx="27" ry="18"/>
<text text-anchor="middle" x="69" y="-158.3" font-family="Helvetica,sans-Serif" font-size="14.00">int y</text>
</g>
<!-- for&#45;&gt;inty -->
<g id="edge15" class="edge"><title>for&#45;&gt;inty</title>
<path fill="none" stroke="black" d="M180.375,-222.062C158.386,-210.402 123.373,-191.834 98.4777,-178.632"/>
<polygon fill="black" stroke="black" points="99.9546,-175.454 89.4802,-173.861 96.675,-181.638 99.9546,-175.454"/>
</g>
<!-- yltx -->
<g id="node13" class="node"><title>yltx</title>
<ellipse fill="none" stroke="black" cx="141" cy="-162" rx="27" ry="18"/>
<text text-anchor="middle" x="141" y="-158.3" font-family="Helvetica,sans-Serif" font-size="14.00">y&lt;x</text>
</g>
<!-- for&#45;&gt;yltx -->
<g id="edge16" class="edge"><title>for&#45;&gt;yltx</title>
<path fill="none" stroke="black" d="M187.981,-217.811C179.961,-208.455 169.527,-196.282 160.53,-185.785"/>
<polygon fill="black" stroke="black" points="163.159,-183.474 153.994,-178.159 157.844,-188.03 163.159,-183.474"/>
</g>
<!-- yinc -->
<g id="node14" class="node"><title>yinc</title>
<ellipse fill="none" stroke="black" cx="213" cy="-162" rx="27" ry="18"/>
<text text-anchor="middle" x="213" y="-158.3" font-family="Helvetica,sans-Serif" font-size="14.00">y++</text>
</g>
<!-- for&#45;&gt;yinc -->
<g id="edge17" class="edge"><title>for&#45;&gt;yinc</title>
<path fill="none" stroke="black" d="M203.905,-216.055C205.226,-208.346 206.824,-199.027 208.309,-190.364"/>
<polygon fill="black" stroke="black" points="211.798,-190.723 210.039,-180.275 204.899,-189.54 211.798,-190.723"/>
</g>
<!-- body2 -->
<g id="node15" class="node"><title>body2</title>
<ellipse fill="none" stroke="black" cx="288" cy="-162" rx="29.3479" ry="18"/>
<text text-anchor="middle" x="288" y="-158.3" font-family="Helvetica,sans-Serif" font-size="14.00">body</text>
</g>
<!-- for&#45;&gt;body2 -->
<g id="edge18" class="edge"><title>for&#45;&gt;body2</title>
<path fill="none" stroke="black" d="M217.774,-219.503C230.57,-209.208 248.403,-194.86 262.896,-183.199"/>
<polygon fill="black" stroke="black" points="265.383,-185.69 270.98,-176.694 260.995,-180.236 265.383,-185.69"/>
</g>
<!-- inty&#45;&gt;yltx -->
<!-- yltx&#45;&gt;yinc -->
<!-- yinc&#45;&gt;body2 -->
<!-- cout1 -->
<g id="node16" class="node"><title>cout1</title>
<ellipse fill="none" stroke="black" cx="288" cy="-90" rx="26.949" ry="18"/>
<text text-anchor="middle" x="288" y="-86.3" font-family="Helvetica,sans-Serif" font-size="14.00">cout</text>
</g>
<!-- body2&#45;&gt;cout1 -->
<g id="edge22" class="edge"><title>body2&#45;&gt;cout1</title>
<path fill="none" stroke="black" d="M288,-143.697C288,-135.983 288,-126.712 288,-118.112"/>
<polygon fill="black" stroke="black" points="291.5,-118.104 288,-108.104 284.5,-118.104 291.5,-118.104"/>
</g>
<!-- y -->
<g id="node17" class="node"><title>y</title>
<ellipse fill="none" stroke="black" cx="252" cy="-18" rx="27" ry="18"/>
<text text-anchor="middle" x="252" y="-14.3" font-family="Helvetica,sans-Serif" font-size="14.00">y</text>
</g>
<!-- cout1&#45;&gt;y -->
<g id="edge23" class="edge"><title>cout1&#45;&gt;y</title>
<path fill="none" stroke="black" d="M279.65,-72.7646C275.288,-64.2831 269.853,-53.7144 264.959,-44.1974"/>
<polygon fill="black" stroke="black" points="267.99,-42.4395 260.304,-35.1473 261.765,-45.6409 267.99,-42.4395"/>
</g>
<!-- endl1 -->
<g id="node18" class="node"><title>endl1</title>
<ellipse fill="none" stroke="black" cx="324" cy="-18" rx="26.949" ry="18"/>
<text text-anchor="middle" x="324" y="-14.3" font-family="Helvetica,sans-Serif" font-size="14.00">endl</text>
</g>
<!-- cout1&#45;&gt;endl1 -->
<g id="edge24" class="edge"><title>cout1&#45;&gt;endl1</title>
<path fill="none" stroke="black" d="M296.35,-72.7646C300.712,-64.2831 306.147,-53.7144 311.041,-44.1974"/>
<polygon fill="black" stroke="black" points="314.235,-45.6409 315.696,-35.1473 308.01,-42.4395 314.235,-45.6409"/>
</g>
<!-- y&#45;&gt;endl1 -->
<!-- params2&#45;&gt;vars3 -->
<!-- vars3&#45;&gt;body3 -->
<!-- intz2 -->
<g id="node22" class="node"><title>intz2</title>
<ellipse fill="none" stroke="black" cx="372" cy="-234" rx="27" ry="18"/>
<text text-anchor="middle" x="372" y="-230.3" font-family="Helvetica,sans-Serif" font-size="14.00">int z</text>
</g>
<!-- vars3&#45;&gt;intz2 -->
<g id="edge31" class="edge"><title>vars3&#45;&gt;intz2</title>
<path fill="none" stroke="black" d="M374.258,-287.697C373.928,-279.983 373.531,-270.712 373.162,-262.112"/>
<polygon fill="black" stroke="black" points="376.658,-261.945 372.733,-252.104 369.665,-262.245 376.658,-261.945"/>
</g>
<!-- cout2 -->
<g id="node24" class="node"><title>cout2</title>
<ellipse fill="none" stroke="black" cx="546" cy="-234" rx="26.949" ry="18"/>
<text text-anchor="middle" x="546" y="-230.3" font-family="Helvetica,sans-Serif" font-size="14.00">cout</text>
</g>
<!-- body3&#45;&gt;cout2 -->
<g id="edge33" class="edge"><title>body3&#45;&gt;cout2</title>
<path fill="none" stroke="black" d="M573.469,-288.411C569.164,-280.042 563.851,-269.71 559.047,-260.37"/>
<polygon fill="black" stroke="black" points="562.156,-258.762 554.47,-251.47 555.931,-261.964 562.156,-258.762"/>
</g>
<!-- cin -->
<g id="node25" class="node"><title>cin</title>
<ellipse fill="none" stroke="black" cx="618" cy="-234" rx="27" ry="18"/>
<text text-anchor="middle" x="618" y="-230.3" font-family="Helvetica,sans-Serif" font-size="14.00">cin</text>
</g>
<!-- body3&#45;&gt;cin -->
<g id="edge34" class="edge"><title>body3&#45;&gt;cin</title>
<path fill="none" stroke="black" d="M590.531,-288.411C594.836,-280.042 600.149,-269.71 604.953,-260.37"/>
<polygon fill="black" stroke="black" points="608.069,-261.964 609.53,-251.47 601.844,-258.762 608.069,-261.964"/>
</g>
<!-- foo2 -->
<g id="node26" class="node"><title>foo2</title>
<ellipse fill="none" stroke="black" cx="692" cy="-234" rx="28.3955" ry="18"/>
<text text-anchor="middle" x="692" y="-230.3" font-family="Helvetica,sans-Serif" font-size="14.00">foo()</text>
</g>
<!-- body3&#45;&gt;foo2 -->
<g id="edge35" class="edge"><title>body3&#45;&gt;foo2</title>
<path fill="none" stroke="black" d="M601.666,-292.485C619.029,-281.436 644.539,-265.202 664.026,-252.802"/>
<polygon fill="black" stroke="black" points="665.947,-255.728 672.504,-247.406 662.189,-249.822 665.947,-255.728"/>
</g>
<!-- equals5 -->
<g id="node23" class="node"><title>equals5</title>
<ellipse fill="none" stroke="black" cx="369" cy="-162" rx="27" ry="18"/>
<text text-anchor="middle" x="369" y="-158.3" font-family="Helvetica,sans-Serif" font-size="14.00">=5</text>
</g>
<!-- intz2&#45;&gt;equals5 -->
<g id="edge32" class="edge"><title>intz2&#45;&gt;equals5</title>
<path fill="none" stroke="black" d="M371.258,-215.697C370.928,-207.983 370.531,-198.712 370.162,-190.112"/>
<polygon fill="black" stroke="black" points="373.658,-189.945 369.733,-180.104 366.665,-190.245 373.658,-189.945"/>
</g>
<!-- cout2&#45;&gt;cin -->
<!-- enterz -->
<g id="node27" class="node"><title>enterz</title>
<ellipse fill="none" stroke="black" cx="458" cy="-162" rx="44.2946" ry="18"/>
<text text-anchor="middle" x="458" y="-158.3" font-family="Helvetica,sans-Serif" font-size="14.00">&quot;enter z&quot;</text>
</g>
<!-- cout2&#45;&gt;enterz -->
<g id="edge38" class="edge"><title>cout2&#45;&gt;enterz</title>
<path fill="none" stroke="black" d="M529.033,-219.503C516.674,-209.673 499.671,-196.147 485.399,-184.794"/>
<polygon fill="black" stroke="black" points="487.371,-181.891 477.366,-178.405 483.014,-187.369 487.371,-181.891"/>
</g>
<!-- endl2 -->
<g id="node28" class="node"><title>endl2</title>
<ellipse fill="none" stroke="black" cx="547" cy="-162" rx="26.949" ry="18"/>
<text text-anchor="middle" x="547" y="-158.3" font-family="Helvetica,sans-Serif" font-size="14.00">endl</text>
</g>
<!-- cout2&#45;&gt;endl2 -->
<g id="edge39" class="edge"><title>cout2&#45;&gt;endl2</title>
<path fill="none" stroke="black" d="M546.247,-215.697C546.357,-207.983 546.49,-198.712 546.613,-190.112"/>
<polygon fill="black" stroke="black" points="550.112,-190.153 546.756,-180.104 543.113,-190.053 550.112,-190.153"/>
</g>
<!-- cin&#45;&gt;foo2 -->
<!-- z1 -->
<g id="node29" class="node"><title>z1</title>
<ellipse fill="none" stroke="black" cx="619" cy="-162" rx="27" ry="18"/>
<text text-anchor="middle" x="619" y="-158.3" font-family="Helvetica,sans-Serif" font-size="14.00">z</text>
</g>
<!-- cin&#45;&gt;z1 -->
<g id="edge41" class="edge"><title>cin&#45;&gt;z1</title>
<path fill="none" stroke="black" d="M618.247,-215.697C618.357,-207.983 618.49,-198.712 618.613,-190.112"/>
<polygon fill="black" stroke="black" points="622.112,-190.153 618.756,-180.104 615.113,-190.053 622.112,-190.153"/>
</g>
<!-- z2 -->
<g id="node30" class="node"><title>z2</title>
<ellipse fill="none" stroke="black" cx="692" cy="-162" rx="27" ry="18"/>
<text text-anchor="middle" x="692" y="-158.3" font-family="Helvetica,sans-Serif" font-size="14.00">z</text>
</g>
<!-- foo2&#45;&gt;z2 -->
<g id="edge42" class="edge"><title>foo2&#45;&gt;z2</title>
<path fill="none" stroke="black" d="M692,-215.697C692,-207.983 692,-198.712 692,-190.112"/>
<polygon fill="black" stroke="black" points="695.5,-190.104 692,-180.104 688.5,-190.104 695.5,-190.104"/>
</g>
<!-- enterz&#45;&gt;endl2 -->
</g>
</svg>
