<?xml version="1.0" encoding="UTF-8" standalone="no"?>
<!DOCTYPE svg PUBLIC "-//W3C//DTD SVG 1.1//EN"
 "http://www.w3.org/Graphics/SVG/1.1/DTD/svg11.dtd">
<!-- Generated by graphviz version 2.26.3 (20100126.1600)
 -->
<!-- Title: G Pages: 1 -->
<svg width="755pt" height="564pt"
 viewBox="0.00 0.00 755.00 564.00" xmlns="http://www.w3.org/2000/svg" xmlns:xlink="http://www.w3.org/1999/xlink">
<g id="graph1" class="graph" transform="scale(1 1) rotate(0) translate(4 560)">
<title>G</title>
<polygon fill="white" stroke="white" points="-4,5 -4,-560 752,-560 752,5 -4,5"/>
<!-- vars1 -->
<g id="node1" class="node"><title>vars1</title>
<ellipse fill="none" stroke="black" cx="88" cy="-463" rx="29.1951" ry="19.0919"/>
<text text-anchor="middle" x="88" y="-459.9" font-family="Helvetica,sans-Serif" font-size="14.00">vars</text>
</g>
<!-- functions -->
<g id="node5" class="node"><title>functions</title>
<ellipse fill="none" stroke="black" cx="185" cy="-463" rx="50.2046" ry="19.0919"/>
<text text-anchor="middle" x="185" y="-459.9" font-family="Helvetica,sans-Serif" font-size="14.00">functions</text>
</g>
<!-- vars1&#45;&gt;functions -->
<!-- intz1 -->
<g id="node8" class="node"><title>intz1</title>
<ellipse fill="none" stroke="black" cx="88" cy="-389" rx="28.9914" ry="19.0919"/>
<text text-anchor="middle" x="88" y="-385.9" font-family="Helvetica,sans-Serif" font-size="14.00">int z</text>
</g>
<!-- vars1&#45;&gt;intz1 -->
<g id="edge9" class="edge"><title>vars1&#45;&gt;intz1</title>
<path fill="none" stroke="black" d="M88,-443.943C88,-436.149 88,-426.954 88,-418.338"/>
<polygon fill="black" stroke="black" points="91.5001,-418.249 88,-408.249 84.5001,-418.249 91.5001,-418.249"/>
</g>
<!-- program -->
<g id="node2" class="node"><title>program</title>
<ellipse fill="none" stroke="black" cx="136" cy="-537" rx="48.0833" ry="19.0919"/>
<text text-anchor="middle" x="136" y="-533.9" font-family="Helvetica,sans-Serif" font-size="14.00">program</text>
</g>
<!-- program&#45;&gt;vars1 -->
<g id="edge2" class="edge"><title>program&#45;&gt;vars1</title>
<path fill="none" stroke="black" d="M123.888,-518.327C118.146,-509.476 111.191,-498.753 104.938,-489.113"/>
<polygon fill="black" stroke="black" points="107.826,-487.133 99.4476,-480.648 101.953,-490.943 107.826,-487.133"/>
</g>
<!-- program&#45;&gt;functions -->
<g id="edge4" class="edge"><title>program&#45;&gt;functions</title>
<path fill="none" stroke="black" d="M148.365,-518.327C153.994,-509.826 160.766,-499.598 166.949,-490.261"/>
<polygon fill="black" stroke="black" points="170.036,-491.938 172.639,-481.667 164.2,-488.073 170.036,-491.938"/>
</g>
<!-- foo1 -->
<g id="node10" class="node"><title>foo1</title>
<ellipse fill="none" stroke="black" cx="175" cy="-389" rx="31.1127" ry="19.0919"/>
<text text-anchor="middle" x="175" y="-385.9" font-family="Helvetica,sans-Serif" font-size="14.00">foo()</text>
</g>
<!-- functions&#45;&gt;foo1 -->
<g id="edge11" class="edge"><title>functions&#45;&gt;foo1</title>
<path fill="none" stroke="black" d="M182.425,-443.943C181.363,-436.088 180.109,-426.81 178.937,-418.136"/>
<polygon fill="black" stroke="black" points="182.374,-417.433 177.567,-407.992 175.437,-418.371 182.374,-417.433"/>
</g>
<!-- main -->
<g id="node12" class="node"><title>main</title>
<ellipse fill="none" stroke="black" cx="353" cy="-389" rx="39.0967" ry="19.0919"/>
<text text-anchor="middle" x="353" y="-385.9" font-family="Helvetica,sans-Serif" font-size="14.00">main()</text>
</g>
<!-- functions&#45;&gt;main -->
<g id="edge13" class="edge"><title>functions&#45;&gt;main</title>
<path fill="none" stroke="black" d="M217.791,-448.556C245.502,-436.35 285.236,-418.848 314.462,-405.975"/>
<polygon fill="black" stroke="black" points="316.197,-409.035 323.938,-401.801 313.376,-402.629 316.197,-409.035"/>
</g>
<!-- foo1&#45;&gt;main -->
<!-- params1 -->
<g id="node16" class="node"><title>params1</title>
<ellipse fill="none" stroke="black" cx="44" cy="-315" rx="43.8406" ry="19.0919"/>
<text text-anchor="middle" x="44" y="-311.9" font-family="Helvetica,sans-Serif" font-size="14.00">params</text>
</g>
<!-- foo1&#45;&gt;params1 -->
<g id="edge18" class="edge"><title>foo1&#45;&gt;params1</title>
<path fill="none" stroke="black" d="M152.182,-376.11C132.249,-364.851 102.977,-348.315 79.9068,-335.283"/>
<polygon fill="black" stroke="black" points="81.512,-332.17 71.0837,-330.299 78.0691,-338.265 81.512,-332.17"/>
</g>
<!-- vars2 -->
<g id="node18" class="node"><title>vars2</title>
<ellipse fill="none" stroke="black" cx="135" cy="-315" rx="29.1951" ry="19.0919"/>
<text text-anchor="middle" x="135" y="-311.9" font-family="Helvetica,sans-Serif" font-size="14.00">vars</text>
</g>
<!-- foo1&#45;&gt;vars2 -->
<g id="edge20" class="edge"><title>foo1&#45;&gt;vars2</title>
<path fill="none" stroke="black" d="M165.112,-370.708C160.462,-362.105 154.822,-351.671 149.686,-342.17"/>
<polygon fill="black" stroke="black" points="152.608,-340.214 144.774,-333.082 146.45,-343.543 152.608,-340.214"/>
</g>
<!-- body1 -->
<g id="node20" class="node"><title>body1</title>
<ellipse fill="none" stroke="black" cx="214" cy="-315" rx="32.0265" ry="19.0919"/>
<text text-anchor="middle" x="214" y="-311.9" font-family="Helvetica,sans-Serif" font-size="14.00">body</text>
</g>
<!-- foo1&#45;&gt;body1 -->
<g id="edge22" class="edge"><title>foo1&#45;&gt;body1</title>
<path fill="none" stroke="black" d="M184.64,-370.708C189.141,-362.169 194.591,-351.827 199.569,-342.383"/>
<polygon fill="black" stroke="black" points="202.769,-343.817 204.335,-333.338 196.577,-340.553 202.769,-343.817"/>
</g>
<!-- params2 -->
<g id="node46" class="node"><title>params2</title>
<ellipse fill="none" stroke="black" cx="308" cy="-315" rx="43.8406" ry="19.0919"/>
<text text-anchor="middle" x="308" y="-311.9" font-family="Helvetica,sans-Serif" font-size="14.00">params</text>
</g>
<!-- main&#45;&gt;params2 -->
<g id="edge54" class="edge"><title>main&#45;&gt;params2</title>
<path fill="none" stroke="black" d="M341.876,-370.708C336.669,-362.145 330.359,-351.769 324.603,-342.303"/>
<polygon fill="black" stroke="black" points="327.495,-340.321 319.308,-333.596 321.514,-343.958 327.495,-340.321"/>
</g>
<!-- vars3 -->
<g id="node48" class="node"><title>vars3</title>
<ellipse fill="none" stroke="black" cx="399" cy="-315" rx="29.1951" ry="19.0919"/>
<text text-anchor="middle" x="399" y="-311.9" font-family="Helvetica,sans-Serif" font-size="14.00">vars</text>
</g>
<!-- main&#45;&gt;vars3 -->
<g id="edge56" class="edge"><title>main&#45;&gt;vars3</title>
<path fill="none" stroke="black" d="M364.371,-370.708C369.871,-361.86 376.574,-351.076 382.613,-341.361"/>
<polygon fill="black" stroke="black" points="385.612,-343.167 387.919,-332.826 379.667,-339.471 385.612,-343.167"/>
</g>
<!-- body3 -->
<g id="node50" class="node"><title>body3</title>
<ellipse fill="none" stroke="black" cx="603" cy="-315" rx="32.0265" ry="19.0919"/>
<text text-anchor="middle" x="603" y="-311.9" font-family="Helvetica,sans-Serif" font-size="14.00">body</text>
</g>
<!-- main&#45;&gt;body3 -->
<g id="edge58" class="edge"><title>main&#45;&gt;body3</title>
<path fill="none" stroke="black" d="M386.457,-379.097C432.541,-365.456 515.373,-340.938 564.144,-326.501"/>
<polygon fill="black" stroke="black" points="565.413,-329.776 574.008,-323.582 563.426,-323.064 565.413,-329.776"/>
</g>
<!-- params1&#45;&gt;vars2 -->
<!-- intx -->
<g id="node24" class="node"><title>intx</title>
<ellipse fill="none" stroke="black" cx="44" cy="-241" rx="28.9914" ry="19.0919"/>
<text text-anchor="middle" x="44" y="-237.9" font-family="Helvetica,sans-Serif" font-size="14.00">int x</text>
</g>
<!-- params1&#45;&gt;intx -->
<g id="edge28" class="edge"><title>params1&#45;&gt;intx</title>
<path fill="none" stroke="black" d="M44,-295.943C44,-288.149 44,-278.954 44,-270.338"/>
<polygon fill="black" stroke="black" points="47.5001,-270.249 44,-260.249 40.5001,-270.249 47.5001,-270.249"/>
</g>
<!-- vars2&#45;&gt;body1 -->
<!-- for -->
<g id="node27" class="node"><title>for</title>
<ellipse fill="none" stroke="black" cx="214" cy="-241" rx="27" ry="19.0919"/>
<text text-anchor="middle" x="214" y="-237.9" font-family="Helvetica,sans-Serif" font-size="14.00">for</text>
</g>
<!-- body1&#45;&gt;for -->
<g id="edge30" class="edge"><title>body1&#45;&gt;for</title>
<path fill="none" stroke="black" d="M214,-295.943C214,-288.149 214,-278.954 214,-270.338"/>
<polygon fill="black" stroke="black" points="217.5,-270.249 214,-260.249 210.5,-270.249 217.5,-270.249"/>
</g>
<!-- inty -->
<g id="node28" class="node"><title>inty</title>
<ellipse fill="none" stroke="black" cx="71" cy="-167" rx="28.9914" ry="19.0919"/>
<text text-anchor="middle" x="71" y="-163.9" font-family="Helvetica,sans-Serif" font-size="14.00">int y</text>
</g>
<!-- for&#45;&gt;inty -->
<g id="edge32" class="edge"><title>for&#45;&gt;inty</title>
<path fill="none" stroke="black" d="M191.97,-229.6C168.142,-217.269 129.937,-197.499 102.843,-183.478"/>
<polygon fill="black" stroke="black" points="104.255,-180.268 93.765,-178.78 101.038,-186.485 104.255,-180.268"/>
</g>
<!-- yltx -->
<g id="node30" class="node"><title>yltx</title>
<ellipse fill="none" stroke="black" cx="145" cy="-167" rx="27" ry="19.0919"/>
<text text-anchor="middle" x="145" y="-163.9" font-family="Helvetica,sans-Serif" font-size="14.00">y&lt;x</text>
</g>
<!-- for&#45;&gt;yltx -->
<g id="edge34" class="edge"><title>for&#45;&gt;yltx</title>
<path fill="none" stroke="black" d="M199.028,-224.943C189.624,-214.858 177.335,-201.678 166.853,-190.436"/>
<polygon fill="black" stroke="black" points="169.322,-187.953 159.943,-183.026 164.203,-192.726 169.322,-187.953"/>
</g>
<!-- yinc -->
<g id="node32" class="node"><title>yinc</title>
<ellipse fill="none" stroke="black" cx="218" cy="-167" rx="27.7881" ry="19.0919"/>
<text text-anchor="middle" x="218" y="-163.9" font-family="Helvetica,sans-Serif" font-size="14.00">y++</text>
</g>
<!-- for&#45;&gt;yinc -->
<g id="edge36" class="edge"><title>for&#45;&gt;yinc</title>
<path fill="none" stroke="black" d="M215.03,-221.943C215.455,-214.088 215.956,-204.81 216.425,-196.136"/>
<polygon fill="black" stroke="black" points="219.928,-196.167 216.973,-185.992 212.939,-195.789 219.928,-196.167"/>
</g>
<!-- body2 -->
<g id="node34" class="node"><title>body2</title>
<ellipse fill="none" stroke="black" cx="296" cy="-167" rx="32.0265" ry="19.0919"/>
<text text-anchor="middle" x="296" y="-163.9" font-family="Helvetica,sans-Serif" font-size="14.00">body</text>
</g>
<!-- for&#45;&gt;body2 -->
<g id="edge38" class="edge"><title>for&#45;&gt;body2</title>
<path fill="none" stroke="black" d="M230.99,-225.667C242.412,-215.36 257.671,-201.59 270.536,-189.98"/>
<polygon fill="black" stroke="black" points="273.101,-192.379 278.18,-183.081 268.412,-187.182 273.101,-192.379"/>
</g>
<!-- inty&#45;&gt;yltx -->
<!-- yltx&#45;&gt;yinc -->
<!-- yinc&#45;&gt;body2 -->
<!-- cout1 -->
<g id="node38" class="node"><title>cout1</title>
<ellipse fill="none" stroke="black" cx="296" cy="-93" rx="29.1951" ry="19.0919"/>
<text text-anchor="middle" x="296" y="-89.9" font-family="Helvetica,sans-Serif" font-size="14.00">cout</text>
</g>
<!-- body2&#45;&gt;cout1 -->
<g id="edge45" class="edge"><title>body2&#45;&gt;cout1</title>
<path fill="none" stroke="black" d="M296,-147.943C296,-140.149 296,-130.954 296,-122.338"/>
<polygon fill="black" stroke="black" points="299.5,-122.249 296,-112.249 292.5,-122.249 299.5,-122.249"/>
</g>
<!-- y -->
<g id="node41" class="node"><title>y</title>
<ellipse fill="none" stroke="black" cx="259" cy="-19" rx="27" ry="19.0919"/>
<text text-anchor="middle" x="259" y="-15.9" font-family="Helvetica,sans-Serif" font-size="14.00">y</text>
</g>
<!-- cout1&#45;&gt;y -->
<g id="edge47" class="edge"><title>cout1&#45;&gt;y</title>
<path fill="none" stroke="black" d="M286.854,-74.7079C282.553,-66.1051 277.336,-55.6713 272.585,-46.1699"/>
<polygon fill="black" stroke="black" points="275.644,-44.4607 268.041,-37.0817 269.383,-47.5913 275.644,-44.4607"/>
</g>
<!-- endl1 -->
<g id="node42" class="node"><title>endl1</title>
<ellipse fill="none" stroke="black" cx="333" cy="-19" rx="29.1951" ry="19.0919"/>
<text text-anchor="middle" x="333" y="-15.9" font-family="Helvetica,sans-Serif" font-size="14.00">endl</text>
</g>
<!-- cout1&#45;&gt;endl1 -->
<g id="edge49" class="edge"><title>cout1&#45;&gt;endl1</title>
<path fill="none" stroke="black" d="M305.146,-74.7079C309.447,-66.1051 314.664,-55.6713 319.415,-46.1699"/>
<polygon fill="black" stroke="black" points="322.617,-47.5913 323.959,-37.0817 316.356,-44.4607 322.617,-47.5913"/>
</g>
<!-- y&#45;&gt;endl1 -->
<!-- params2&#45;&gt;vars3 -->
<!-- vars3&#45;&gt;body3 -->
<!-- intz2 -->
<g id="node54" class="node"><title>intz2</title>
<ellipse fill="none" stroke="black" cx="384" cy="-241" rx="28.9914" ry="19.0919"/>
<text text-anchor="middle" x="384" y="-237.9" font-family="Helvetica,sans-Serif" font-size="14.00">int z</text>
</g>
<!-- vars3&#45;&gt;intz2 -->
<g id="edge64" class="edge"><title>vars3&#45;&gt;intz2</title>
<path fill="none" stroke="black" d="M395.137,-295.943C393.527,-288.002 391.623,-278.606 389.848,-269.851"/>
<polygon fill="black" stroke="black" points="393.267,-269.098 387.85,-259.992 386.406,-270.488 393.267,-269.098"/>
</g>
<!-- cout2 -->
<g id="node58" class="node"><title>cout2</title>
<ellipse fill="none" stroke="black" cx="566" cy="-241" rx="29.1951" ry="19.0919"/>
<text text-anchor="middle" x="566" y="-237.9" font-family="Helvetica,sans-Serif" font-size="14.00">cout</text>
</g>
<!-- body3&#45;&gt;cout2 -->
<g id="edge68" class="edge"><title>body3&#45;&gt;cout2</title>
<path fill="none" stroke="black" d="M593.854,-296.708C589.553,-288.105 584.336,-277.671 579.585,-268.17"/>
<polygon fill="black" stroke="black" points="582.644,-266.461 575.041,-259.082 576.383,-269.591 582.644,-266.461"/>
</g>
<!-- cin -->
<g id="node61" class="node"><title>cin</title>
<ellipse fill="none" stroke="black" cx="640" cy="-241" rx="27" ry="19.0919"/>
<text text-anchor="middle" x="640" y="-237.9" font-family="Helvetica,sans-Serif" font-size="14.00">cin</text>
</g>
<!-- body3&#45;&gt;cin -->
<g id="edge70" class="edge"><title>body3&#45;&gt;cin</title>
<path fill="none" stroke="black" d="M612.146,-296.708C616.447,-288.105 621.664,-277.671 626.415,-268.17"/>
<polygon fill="black" stroke="black" points="629.617,-269.591 630.959,-259.082 623.356,-266.461 629.617,-269.591"/>
</g>
<!-- foo2 -->
<g id="node62" class="node"><title>foo2</title>
<ellipse fill="none" stroke="black" cx="716" cy="-241" rx="31.1127" ry="19.0919"/>
<text text-anchor="middle" x="716" y="-237.9" font-family="Helvetica,sans-Serif" font-size="14.00">foo()</text>
</g>
<!-- body3&#45;&gt;foo2 -->
<g id="edge72" class="edge"><title>body3&#45;&gt;foo2</title>
<path fill="none" stroke="black" d="M624.52,-300.907C641.957,-289.488 666.721,-273.271 686.087,-260.589"/>
<polygon fill="black" stroke="black" points="688.111,-263.447 694.56,-255.041 684.276,-257.591 688.111,-263.447"/>
</g>
<!-- equals5 -->
<g id="node56" class="node"><title>equals5</title>
<ellipse fill="none" stroke="black" cx="380" cy="-167" rx="27" ry="19.0919"/>
<text text-anchor="middle" x="380" y="-163.9" font-family="Helvetica,sans-Serif" font-size="14.00">=5</text>
</g>
<!-- intz2&#45;&gt;equals5 -->
<g id="edge66" class="edge"><title>intz2&#45;&gt;equals5</title>
<path fill="none" stroke="black" d="M382.97,-221.943C382.545,-214.088 382.044,-204.81 381.575,-196.136"/>
<polygon fill="black" stroke="black" points="385.061,-195.789 381.027,-185.992 378.072,-196.167 385.061,-195.789"/>
</g>
<!-- cout2&#45;&gt;cin -->
<!-- enterz -->
<g id="node66" class="node"><title>enterz</title>
<ellipse fill="none" stroke="black" cx="473" cy="-167" rx="48.0833" ry="19.0919"/>
<text text-anchor="middle" x="473" y="-163.9" font-family="Helvetica,sans-Serif" font-size="14.00">&quot;enter z&quot;</text>
</g>
<!-- cout2&#45;&gt;enterz -->
<g id="edge78" class="edge"><title>cout2&#45;&gt;enterz</title>
<path fill="none" stroke="black" d="M547.18,-226.025C534.283,-215.763 516.918,-201.946 502.232,-190.26"/>
<polygon fill="black" stroke="black" points="504.399,-187.511 494.394,-184.024 500.04,-192.989 504.399,-187.511"/>
</g>
<!-- endl2 -->
<g id="node68" class="node"><title>endl2</title>
<ellipse fill="none" stroke="black" cx="568" cy="-167" rx="29.1951" ry="19.0919"/>
<text text-anchor="middle" x="568" y="-163.9" font-family="Helvetica,sans-Serif" font-size="14.00">endl</text>
</g>
<!-- cout2&#45;&gt;endl2 -->
<g id="edge80" class="edge"><title>cout2&#45;&gt;endl2</title>
<path fill="none" stroke="black" d="M566.515,-221.943C566.726,-214.149 566.974,-204.954 567.207,-196.338"/>
<polygon fill="black" stroke="black" points="570.708,-196.34 567.48,-186.249 563.711,-196.151 570.708,-196.34"/>
</g>
<!-- cin&#45;&gt;foo2 -->
<!-- z1 -->
<g id="node72" class="node"><title>z1</title>
<ellipse fill="none" stroke="black" cx="642" cy="-167" rx="27" ry="19.0919"/>
<text text-anchor="middle" x="642" y="-163.9" font-family="Helvetica,sans-Serif" font-size="14.00">z</text>
</g>
<!-- cin&#45;&gt;z1 -->
<g id="edge85" class="edge"><title>cin&#45;&gt;z1</title>
<path fill="none" stroke="black" d="M640.515,-221.943C640.726,-214.149 640.974,-204.954 641.207,-196.338"/>
<polygon fill="black" stroke="black" points="644.708,-196.34 641.48,-186.249 637.711,-196.151 644.708,-196.34"/>
</g>
<!-- z2 -->
<g id="node74" class="node"><title>z2</title>
<ellipse fill="none" stroke="black" cx="716" cy="-167" rx="27" ry="19.0919"/>
<text text-anchor="middle" x="716" y="-163.9" font-family="Helvetica,sans-Serif" font-size="14.00">z</text>
</g>
<!-- foo2&#45;&gt;z2 -->
<g id="edge87" class="edge"><title>foo2&#45;&gt;z2</title>
<path fill="none" stroke="black" d="M716,-221.943C716,-214.149 716,-204.954 716,-196.338"/>
<polygon fill="black" stroke="black" points="719.5,-196.249 716,-186.249 712.5,-196.249 719.5,-196.249"/>
</g>
<!-- enterz&#45;&gt;endl2 -->
</g>
</svg>
