<?xml version="1.0" encoding="UTF-8" standalone="no"?>
<!DOCTYPE svg PUBLIC "-//W3C//DTD SVG 1.1//EN"
 "http://www.w3.org/Graphics/SVG/1.1/DTD/svg11.dtd">
<!-- Generated by graphviz version 2.26.3 (20100126.1600)
 -->
<!-- Title: G Pages: 1 -->
<svg width="414pt" height="340pt"
 viewBox="0.00 0.00 414.00 340.00" xmlns="http://www.w3.org/2000/svg" xmlns:xlink="http://www.w3.org/1999/xlink">
<g id="graph1" class="graph" transform="scale(1 1) rotate(0) translate(4 336)">
<title>G</title>
<polygon fill="white" stroke="white" points="-4,5 -4,-336 411,-336 411,5 -4,5"/>
<!-- 13 -->
<g id="node1" class="node"><title>13</title>
<ellipse fill="black" stroke="black" cx="172" cy="-313" rx="27" ry="19.0919"/>
<text text-anchor="middle" x="172" y="-309.9" font-family="Helvetica,sans-Serif" font-size="14.00" fill="white">13</text>
</g>
<!-- 8 -->
<g id="node3" class="node"><title>8</title>
<ellipse fill="red" stroke="black" cx="112" cy="-239" rx="27" ry="19.0919"/>
<text text-anchor="middle" x="112" y="-235.9" font-family="Helvetica,sans-Serif" font-size="14.00" fill="white">8</text>
</g>
<!-- 13&#45;&gt;8 -->
<g id="edge2" class="edge"><title>13&#45;&gt;8</title>
<path fill="none" stroke="black" d="M158.385,-296.208C150.56,-286.558 140.59,-274.261 131.9,-263.544"/>
<polygon fill="black" stroke="black" points="134.578,-261.289 125.561,-255.725 129.14,-265.697 134.578,-261.289"/>
</g>
<!-- m13 -->
<!-- 13&#45;&gt;m13 -->
<!-- 17 -->
<g id="node6" class="node"><title>17</title>
<ellipse fill="red" stroke="black" cx="238" cy="-239" rx="27" ry="19.0919"/>
<text text-anchor="middle" x="238" y="-235.9" font-family="Helvetica,sans-Serif" font-size="14.00" fill="white">17</text>
</g>
<!-- 13&#45;&gt;17 -->
<g id="edge6" class="edge"><title>13&#45;&gt;17</title>
<path fill="none" stroke="black" d="M186.648,-296.577C195.51,-286.641 206.961,-273.801 216.801,-262.769"/>
<polygon fill="black" stroke="black" points="219.576,-264.915 223.62,-255.122 214.352,-260.256 219.576,-264.915"/>
</g>
<!-- 8&#45;&gt;m13 -->
<!-- 1 -->
<g id="node10" class="node"><title>1</title>
<ellipse fill="black" stroke="black" cx="35" cy="-165" rx="27" ry="19.0919"/>
<text text-anchor="middle" x="35" y="-161.9" font-family="Helvetica,sans-Serif" font-size="14.00" fill="white">1</text>
</g>
<!-- 8&#45;&gt;1 -->
<g id="edge12" class="edge"><title>8&#45;&gt;1</title>
<path fill="none" stroke="black" d="M96.0456,-223.667C85.1748,-213.22 70.6013,-199.214 58.4199,-187.507"/>
<polygon fill="black" stroke="black" points="60.8343,-184.973 51.1989,-180.568 55.9838,-190.021 60.8343,-184.973"/>
</g>
<!-- m8 -->
<!-- 8&#45;&gt;m8 -->
<!-- 11 -->
<g id="node14" class="node"><title>11</title>
<ellipse fill="black" stroke="black" cx="142" cy="-165" rx="27" ry="19.0919"/>
<text text-anchor="middle" x="142" y="-161.9" font-family="Helvetica,sans-Serif" font-size="14.00" fill="white">11</text>
</g>
<!-- 8&#45;&gt;11 -->
<g id="edge16" class="edge"><title>8&#45;&gt;11</title>
<path fill="none" stroke="black" d="M119.416,-220.708C122.841,-212.258 126.983,-202.042 130.779,-192.678"/>
<polygon fill="black" stroke="black" points="134.052,-193.921 134.566,-183.338 127.565,-191.291 134.052,-193.921"/>
</g>
<!-- m13&#45;&gt;17 -->
<!-- 15 -->
<g id="node26" class="node"><title>15</title>
<ellipse fill="black" stroke="black" cx="214" cy="-165" rx="27" ry="19.0919"/>
<text text-anchor="middle" x="214" y="-161.9" font-family="Helvetica,sans-Serif" font-size="14.00" fill="white">15</text>
</g>
<!-- 17&#45;&gt;15 -->
<g id="edge32" class="edge"><title>17&#45;&gt;15</title>
<path fill="none" stroke="black" d="M231.944,-220.327C229.3,-212.176 226.142,-202.438 223.217,-193.42"/>
<polygon fill="black" stroke="black" points="226.469,-192.1 220.054,-183.667 219.81,-194.259 226.469,-192.1"/>
</g>
<!-- m17 -->
<!-- 17&#45;&gt;m17 -->
<!-- 25 -->
<g id="node30" class="node"><title>25</title>
<ellipse fill="black" stroke="black" cx="321" cy="-165" rx="27" ry="19.0919"/>
<text text-anchor="middle" x="321" y="-161.9" font-family="Helvetica,sans-Serif" font-size="14.00" fill="white">25</text>
</g>
<!-- 17&#45;&gt;25 -->
<g id="edge36" class="edge"><title>17&#45;&gt;25</title>
<path fill="none" stroke="black" d="M254.796,-224.025C266.834,-213.293 283.231,-198.673 296.695,-186.669"/>
<polygon fill="black" stroke="black" points="299.094,-189.22 304.229,-179.953 294.435,-183.995 299.094,-189.22"/>
</g>
<!-- 1&#45;&gt;m8 -->
<!-- l1 -->
<g id="node18" class="node"><title>l1</title>
<ellipse fill="black" stroke="black" cx="2" cy="-91" rx="1.8" ry="1.8"/>
</g>
<!-- 1&#45;&gt;l1 -->
<g id="edge22" class="edge"><title>1&#45;&gt;l1</title>
<path fill="none" stroke="black" d="M26.8427,-146.708C20.6098,-132.731 12.2215,-113.921 6.96295,-102.129"/>
<polygon fill="black" stroke="black" points="10.1069,-100.585 2.83743,-92.8779 3.71376,-103.436 10.1069,-100.585"/>
</g>
<!-- m1 -->
<!-- 1&#45;&gt;m1 -->
<!-- 6 -->
<g id="node22" class="node"><title>6</title>
<ellipse fill="red" stroke="black" cx="73" cy="-91" rx="27" ry="19.0919"/>
<text text-anchor="middle" x="73" y="-87.9" font-family="Helvetica,sans-Serif" font-size="14.00" fill="white">6</text>
</g>
<!-- 1&#45;&gt;6 -->
<g id="edge26" class="edge"><title>1&#45;&gt;6</title>
<path fill="none" stroke="black" d="M44.1987,-147.087C48.693,-138.335 54.1949,-127.621 59.1812,-117.91"/>
<polygon fill="black" stroke="black" points="62.2997,-119.499 63.7543,-109.005 56.0727,-116.302 62.2997,-119.499"/>
</g>
<!-- m8&#45;&gt;11 -->
<!-- l11 -->
<g id="node50" class="node"><title>l11</title>
<ellipse fill="black" stroke="black" cx="120" cy="-91" rx="1.8" ry="1.8"/>
</g>
<!-- 11&#45;&gt;l11 -->
<g id="edge62" class="edge"><title>11&#45;&gt;l11</title>
<path fill="none" stroke="black" d="M136.448,-146.327C132.379,-132.639 126.979,-114.474 123.496,-102.76"/>
<polygon fill="black" stroke="black" points="126.757,-101.445 120.552,-92.8569 120.047,-103.44 126.757,-101.445"/>
</g>
<!-- m11 -->
<!-- 11&#45;&gt;m11 -->
<!-- r11 -->
<g id="node54" class="node"><title>r11</title>
<ellipse fill="black" stroke="black" cx="166" cy="-91" rx="1.8" ry="1.8"/>
</g>
<!-- 11&#45;&gt;r11 -->
<g id="edge66" class="edge"><title>11&#45;&gt;r11</title>
<path fill="none" stroke="black" d="M148.056,-146.327C152.543,-132.492 158.514,-114.083 162.308,-102.384"/>
<polygon fill="black" stroke="black" points="165.642,-103.449 165.398,-92.8569 158.983,-101.289 165.642,-103.449"/>
</g>
<!-- l1&#45;&gt;m1 -->
<!-- m1&#45;&gt;6 -->
<!-- l6 -->
<g id="node42" class="node"><title>l6</title>
<ellipse fill="black" stroke="black" cx="50" cy="-18" rx="1.8" ry="1.8"/>
</g>
<!-- 6&#45;&gt;l6 -->
<g id="edge52" class="edge"><title>6&#45;&gt;l6</title>
<path fill="none" stroke="black" d="M67.0769,-72.2007C62.8219,-58.6955 57.2228,-40.9245 53.617,-29.4799"/>
<polygon fill="black" stroke="black" points="56.9141,-28.2973 50.5707,-19.8113 50.2376,-30.4009 56.9141,-28.2973"/>
</g>
<!-- m6 -->
<!-- 6&#45;&gt;m6 -->
<!-- r6 -->
<g id="node46" class="node"><title>r6</title>
<ellipse fill="black" stroke="black" cx="96" cy="-18" rx="1.8" ry="1.8"/>
</g>
<!-- 6&#45;&gt;r6 -->
<g id="edge56" class="edge"><title>6&#45;&gt;r6</title>
<path fill="none" stroke="black" d="M78.9231,-72.2007C83.1781,-58.6955 88.7772,-40.9245 92.383,-29.4799"/>
<polygon fill="black" stroke="black" points="95.7624,-30.4009 95.4293,-19.8113 89.0859,-28.2973 95.7624,-30.4009"/>
</g>
<!-- 15&#45;&gt;m17 -->
<!-- l15 -->
<g id="node58" class="node"><title>l15</title>
<ellipse fill="black" stroke="black" cx="190" cy="-91" rx="1.8" ry="1.8"/>
</g>
<!-- 15&#45;&gt;l15 -->
<g id="edge72" class="edge"><title>15&#45;&gt;l15</title>
<path fill="none" stroke="black" d="M207.944,-146.327C203.457,-132.492 197.486,-114.083 193.692,-102.384"/>
<polygon fill="black" stroke="black" points="197.017,-101.289 190.602,-92.8569 190.358,-103.449 197.017,-101.289"/>
</g>
<!-- m15 -->
<!-- 15&#45;&gt;m15 -->
<!-- r15 -->
<g id="node62" class="node"><title>r15</title>
<ellipse fill="black" stroke="black" cx="236" cy="-91" rx="1.8" ry="1.8"/>
</g>
<!-- 15&#45;&gt;r15 -->
<g id="edge76" class="edge"><title>15&#45;&gt;r15</title>
<path fill="none" stroke="black" d="M219.552,-146.327C223.621,-132.639 229.021,-114.474 232.504,-102.76"/>
<polygon fill="black" stroke="black" points="235.953,-103.44 235.448,-92.8569 229.243,-101.445 235.953,-103.44"/>
</g>
<!-- m17&#45;&gt;25 -->
<!-- 22 -->
<g id="node34" class="node"><title>22</title>
<ellipse fill="red" stroke="black" cx="283" cy="-91" rx="27" ry="19.0919"/>
<text text-anchor="middle" x="283" y="-87.9" font-family="Helvetica,sans-Serif" font-size="14.00" fill="white">22</text>
</g>
<!-- 25&#45;&gt;22 -->
<g id="edge42" class="edge"><title>25&#45;&gt;22</title>
<path fill="none" stroke="black" d="M311.801,-147.087C307.307,-138.335 301.805,-127.621 296.819,-117.91"/>
<polygon fill="black" stroke="black" points="299.927,-116.302 292.246,-109.005 293.7,-119.499 299.927,-116.302"/>
</g>
<!-- m25 -->
<!-- 25&#45;&gt;m25 -->
<!-- 27 -->
<g id="node38" class="node"><title>27</title>
<ellipse fill="red" stroke="black" cx="379" cy="-91" rx="27" ry="19.0919"/>
<text text-anchor="middle" x="379" y="-87.9" font-family="Helvetica,sans-Serif" font-size="14.00" fill="white">27</text>
</g>
<!-- 25&#45;&gt;27 -->
<g id="edge46" class="edge"><title>25&#45;&gt;27</title>
<path fill="none" stroke="black" d="M334.161,-148.208C341.651,-138.652 351.174,-126.502 359.516,-115.859"/>
<polygon fill="black" stroke="black" points="362.477,-117.755 365.891,-107.725 356.967,-113.437 362.477,-117.755"/>
</g>
<!-- 22&#45;&gt;m25 -->
<!-- l22 -->
<g id="node66" class="node"><title>l22</title>
<ellipse fill="black" stroke="black" cx="260" cy="-18" rx="1.8" ry="1.8"/>
</g>
<!-- 22&#45;&gt;l22 -->
<g id="edge82" class="edge"><title>22&#45;&gt;l22</title>
<path fill="none" stroke="black" d="M277.077,-72.2007C272.822,-58.6955 267.223,-40.9245 263.617,-29.4799"/>
<polygon fill="black" stroke="black" points="266.914,-28.2973 260.571,-19.8113 260.238,-30.4009 266.914,-28.2973"/>
</g>
<!-- m22 -->
<!-- 22&#45;&gt;m22 -->
<!-- r22 -->
<g id="node70" class="node"><title>r22</title>
<ellipse fill="black" stroke="black" cx="306" cy="-18" rx="1.8" ry="1.8"/>
</g>
<!-- 22&#45;&gt;r22 -->
<g id="edge86" class="edge"><title>22&#45;&gt;r22</title>
<path fill="none" stroke="black" d="M288.923,-72.2007C293.178,-58.6955 298.777,-40.9245 302.383,-29.4799"/>
<polygon fill="black" stroke="black" points="305.762,-30.4009 305.429,-19.8113 299.086,-28.2973 305.762,-30.4009"/>
</g>
<!-- m25&#45;&gt;27 -->
<!-- l27 -->
<g id="node74" class="node"><title>l27</title>
<ellipse fill="black" stroke="black" cx="356" cy="-18" rx="1.8" ry="1.8"/>
</g>
<!-- 27&#45;&gt;l27 -->
<g id="edge92" class="edge"><title>27&#45;&gt;l27</title>
<path fill="none" stroke="black" d="M373.077,-72.2007C368.822,-58.6955 363.223,-40.9245 359.617,-29.4799"/>
<polygon fill="black" stroke="black" points="362.914,-28.2973 356.571,-19.8113 356.238,-30.4009 362.914,-28.2973"/>
</g>
<!-- m27 -->
<!-- 27&#45;&gt;m27 -->
<!-- r27 -->
<g id="node78" class="node"><title>r27</title>
<ellipse fill="black" stroke="black" cx="402" cy="-18" rx="1.8" ry="1.8"/>
</g>
<!-- 27&#45;&gt;r27 -->
<g id="edge96" class="edge"><title>27&#45;&gt;r27</title>
<path fill="none" stroke="black" d="M384.923,-72.2007C389.178,-58.6955 394.777,-40.9245 398.383,-29.4799"/>
<polygon fill="black" stroke="black" points="401.762,-30.4009 401.429,-19.8113 395.086,-28.2973 401.762,-30.4009"/>
</g>
<!-- l6&#45;&gt;m6 -->
<!-- m6&#45;&gt;r6 -->
<!-- l11&#45;&gt;m11 -->
<!-- m11&#45;&gt;r11 -->
<!-- l15&#45;&gt;m15 -->
<!-- m15&#45;&gt;r15 -->
<!-- l22&#45;&gt;m22 -->
<!-- m22&#45;&gt;r22 -->
<!-- l27&#45;&gt;m27 -->
<!-- m27&#45;&gt;r27 -->
</g>
</svg>
