<?xml version="1.0" encoding="UTF-8" standalone="no"?>
<!DOCTYPE svg PUBLIC "-//W3C//DTD SVG 1.1//EN"
 "http://www.w3.org/Graphics/SVG/1.1/DTD/svg11.dtd">
<!-- Generated by graphviz version 2.26.3 (20100126.1600)
 -->
<!-- Title: G Pages: 1 -->
<svg width="414pt" height="340pt"
 viewBox="0.00 0.00 414.00 340.00" xmlns="http://www.w3.org/2000/svg" xmlns:xlink="http://www.w3.org/1999/xlink">
<g id="graph1" class="graph" transform="scale(1 1) rotate(0) translate(4 336)">
<title>G</title>
<polygon fill="white" stroke="white" points="-4,5 -4,-336 411,-336 411,5 -4,5"/>
<!-- 13 -->
<g id="node1" class="node"><title>13</title>
<ellipse fill="black" stroke="black" cx="172" cy="-313" rx="27" ry="19.0919"/>
<text text-anchor="middle" x="172" y="-309.9" font-family="Helvetica,sans-Serif" font-size="14.00" fill="white">13</text>
</g>
<!-- 8 -->
<g id="node3" class="node"><title>8</title>
<ellipse fill="red" stroke="black" cx="112" cy="-239" rx="27" ry="19.0919"/>
<text text-anchor="middle" x="112" y="-235.9" font-family="Helvetica,sans-Serif" font-size="14.00" fill="white">8</text>
</g>
<!-- 13&#45;&gt;8 -->
<g id="edge2" class="edge"><title>13&#45;&gt;8</title>
<path fill="none" stroke="black" d="M158.385,-296.208C150.56,-286.558 140.59,-274.261 131.9,-263.544"/>
<polygon fill="black" stroke="black" points="134.578,-261.289 125.561,-255.725 129.14,-265.697 134.578,-261.289"/>
</g>
<!-- m13 -->
<!-- 13&#45;&gt;m13 -->
<!-- 17 -->
<g id="node6" class="node"><title>17</title>
<ellipse fill="red" stroke="black" cx="238" cy="-239" rx="27" ry="19.0919"/>
<text text-anchor="middle" x="238" y="-235.9" font-family="Helvetica,sans-Serif" font-size="14.00" fill="white">17</text>
</g>
<!-- 13&#45;&gt;17 -->
<g id="edge6" class="edge"><title>13&#45;&gt;17</title>
<path fill="none" stroke="black" d="M186.648,-296.577C195.51,-286.641 206.961,-273.801 216.801,-262.769"/>
<polygon fill="black" stroke="black" points="219.576,-264.915 223.62,-255.122 214.352,-260.256 219.576,-264.915"/>
</g>
<!-- 8&#45;&gt;m13 -->
<!-- 1 -->
<g id="node10" class="node"><title>1</title>
<ellipse fill="black" stroke="black" cx="35" cy="-165" rx="27" ry="19.0919"/>
<text text-anchor="middle" x="35" y="-161.9" font-family="Helvetica,sans-Serif" font-size="14.00" fill="white">1</text>
</g>
<!-- 8&#45;&gt;1 -->
<g id="edge12" class="edge"><title>8&#45;&gt;1</title>
<path fill="none" stroke="black" d="M96.0456,-223.667C85.1748,-213.22 70.6013,-199.214 58.4199,-187.507"/>
<polygon fill="black" stroke="black" points="60.8343,-184.973 51.1989,-180.568 55.9838,-190.021 60.8343,-184.973"/>
</g>
<!-- m8 -->
<!-- 8&#45;&gt;m8 -->
<!-- 11 -->
<g id="node14" class="node"><title>11</title>
<ellipse fill="black" stroke="black" cx="142" cy="-165" rx="27" ry="19.0919"/>
<text text-anchor="middle" x="142" y="-161.9" font-family="Helvetica,sans-Serif" font-size="14.00" fill="white">11</text>
</g>
<!-- 8&#45;&gt;11 -->
<g id="edge16" class="edge"><title>8&#45;&gt;11</title>
<path fill="none" stroke="black" d="M119.416,-220.708C122.841,-212.258 126.983,-202.042 130.779,-192.678"/>
<polygon fill="black" stroke="black" points="134.052,-193.921 134.566,-183.338 127.565,-191.291 134.052,-193.921"/>
</g>
<!-- m13&#45;&gt;17 -->
<!-- 15 -->
<g id="node26" class="node"><title>15</title>
<ellipse fill="black" stroke="black" cx="214" cy="-165" rx="27" ry="19.0919"/>
<text text-anchor="middle" x="214" y="-161.9" font-family="Helvetica,sans-Serif" font-size="14.00" fill="white">15</text>
</g>
<!-- 17&#45;&gt;15 -->
<g id="edge32" class="edge"><title>17&#45;&gt;15</title>
<path fill="none" stroke="black" d="M231.944,-220.327C229.3,-212.176 226.142,-202.438 223.217,-193.42"/>
<polygon fill="black" stroke="black" points="226.469,-192.1 220.054,-183.667 219.81,-194.259 226.469,-192.1"/>
</g>
<!-- m17 -->
<!-- 17&#45;&gt;m17 -->
<!-- 25 -->
<g id="node30" class="node"><title>25</title>
<ellipse fill="black" stroke="black" cx="321" cy="-165" rx="27" ry="19.0919"/>
<text text-anchor="middle" x="321" y="-161.9" font-family="Helvetica,sans-Serif" font-size="14.00" fill="white">25</text>
</g>
<!-- 17&#45;&gt;25 -->
<g id="edge36" class="edge"><title>17&#45;&gt;25</title>
<path fill="none" stroke="black" d="M254.796,-224.025C266.834,-213.293 283.231,-198.673 296.695,-186.669"/>
<polygon fill="black" stroke="black" points="299.094,-189.22 304.229,-179.953 294.435,-183.995 299.094,-189.22"/>
</g>
<!-- 1&#45;&gt;m8 -->
<!-- l1 -->
<g id="node18" class="node"><title>l1</title>
<ellipse fill="black" stroke="black" cx="2" cy="-91" rx="1.8" ry="1.8"/>
</g>
<!-- 1&#45;&gt;l1 -->
<g id="edge22" class="edge"><title>1&#45;&gt;l1</title>
<path fill="none" stroke="black" d="M26.8427,-146.708C22.0532,-135.968 15.991,-122.374 11.0542,-111.303"/>
<polygon fill="black" stroke="black" points="-1.3218,-95.8276 7.81123,-91.7547 8.6258,-93.5813 -0.507224,-97.6542 -1.3218,-95.8276"/>
<polyline fill="none" stroke="black" points="2.83743,-92.8779 4.87386,-97.4444 "/>
<polygon fill="black" stroke="black" points="0.714634,-100.394 9.84766,-96.3213 10.6622,-98.1479 1.52921,-102.221 0.714634,-100.394"/>
<polyline fill="none" stroke="black" points="4.87386,-97.4444 6.91029,-102.011 "/>
<polygon fill="black" stroke="black" points="14.1797,-109.718 6.91029,-102.011 7.78659,-112.569 14.1797,-109.718"/>
</g>
<!-- m1 -->
<!-- 1&#45;&gt;m1 -->
<!-- 6 -->
<g id="node22" class="node"><title>6</title>
<ellipse fill="red" stroke="black" cx="73" cy="-91" rx="27" ry="19.0919"/>
<text text-anchor="middle" x="73" y="-87.9" font-family="Helvetica,sans-Serif" font-size="14.00" fill="white">6</text>
</g>
<!-- 1&#45;&gt;6 -->
<g id="edge26" class="edge"><title>1&#45;&gt;6</title>
<path fill="none" stroke="black" d="M44.1987,-147.087C48.693,-138.335 54.1949,-127.621 59.1812,-117.91"/>
<polygon fill="black" stroke="black" points="62.2997,-119.499 63.7543,-109.005 56.0727,-116.302 62.2997,-119.499"/>
</g>
<!-- m8&#45;&gt;11 -->
<!-- l11 -->
<g id="node50" class="node"><title>l11</title>
<ellipse fill="black" stroke="black" cx="120" cy="-91" rx="1.8" ry="1.8"/>
</g>
<!-- 11&#45;&gt;l11 -->
<g id="edge62" class="edge"><title>11&#45;&gt;l11</title>
<path fill="none" stroke="black" d="M136.448,-146.327C133.386,-136.024 129.569,-123.185 126.383,-112.469"/>
<polygon fill="black" stroke="black" points="116.044,-95.2404 125.63,-92.3906 126.2,-94.3077 116.614,-97.1574 116.044,-95.2404"/>
<polyline fill="none" stroke="black" points="120.552,-92.8569 121.977,-97.6496 "/>
<polygon fill="black" stroke="black" points="117.469,-100.033 127.055,-97.1833 127.625,-99.1004 118.039,-101.95 117.469,-100.033"/>
<polyline fill="none" stroke="black" points="121.977,-97.6496 123.402,-102.442 "/>
<polygon fill="black" stroke="black" points="129.606,-111.03 123.402,-102.442 122.897,-113.025 129.606,-111.03"/>
</g>
<!-- m11 -->
<!-- 11&#45;&gt;m11 -->
<!-- r11 -->
<g id="node54" class="node"><title>r11</title>
<ellipse fill="black" stroke="black" cx="166" cy="-91" rx="1.8" ry="1.8"/>
</g>
<!-- 11&#45;&gt;r11 -->
<g id="edge66" class="edge"><title>11&#45;&gt;r11</title>
<path fill="none" stroke="black" d="M148.056,-146.327C151.445,-135.877 155.681,-122.818 159.185,-112.012"/>
<polygon fill="black" stroke="black" points="160.333,-92.2656 169.845,-95.3507 169.228,-97.2532 159.716,-94.1681 160.333,-92.2656"/>
<polyline fill="none" stroke="black" points="165.398,-92.8569 163.855,-97.6131 "/>
<polygon fill="black" stroke="black" points="158.791,-97.0217 168.303,-100.107 167.686,-102.009 158.174,-98.9242 158.791,-97.0217"/>
<polyline fill="none" stroke="black" points="163.855,-97.6131 162.313,-102.369 "/>
<polygon fill="black" stroke="black" points="162.557,-112.961 162.313,-102.369 155.898,-110.802 162.557,-112.961"/>
</g>
<!-- l1&#45;&gt;m1 -->
<!-- m1&#45;&gt;6 -->
<!-- l6 -->
<g id="node42" class="node"><title>l6</title>
<ellipse fill="black" stroke="black" cx="50" cy="-18" rx="1.8" ry="1.8"/>
</g>
<!-- 6&#45;&gt;l6 -->
<g id="edge52" class="edge"><title>6&#45;&gt;l6</title>
<path fill="none" stroke="black" d="M67.0769,-72.2007C63.8742,-62.0355 59.91,-49.4536 56.6075,-38.9717"/>
<polygon fill="black" stroke="black" points="46.1023,-22.2677 55.6401,-19.2626 56.2411,-21.1701 46.7033,-24.1752 46.1023,-22.2677"/>
<polyline fill="none" stroke="black" points="50.5707,-19.8113 52.0732,-24.5802 "/>
<polygon fill="black" stroke="black" points="47.6048,-27.0366 57.1426,-24.0315 57.7437,-25.939 48.2059,-28.9441 47.6048,-27.0366"/>
<polyline fill="none" stroke="black" points="52.0732,-24.5802 53.5758,-29.3491 "/>
<polygon fill="black" stroke="black" points="59.9191,-37.8351 53.5758,-29.3491 53.2427,-39.9387 59.9191,-37.8351"/>
</g>
<!-- m6 -->
<!-- 6&#45;&gt;m6 -->
<!-- r6 -->
<g id="node46" class="node"><title>r6</title>
<ellipse fill="black" stroke="black" cx="96" cy="-18" rx="1.8" ry="1.8"/>
</g>
<!-- 6&#45;&gt;r6 -->
<g id="edge56" class="edge"><title>6&#45;&gt;r6</title>
<path fill="none" stroke="black" d="M78.9231,-72.2007C82.1258,-62.0355 86.09,-49.4536 89.3925,-38.9717"/>
<polygon fill="black" stroke="black" points="90.3599,-19.2626 99.8977,-22.2677 99.2967,-24.1752 89.7589,-21.1701 90.3599,-19.2626"/>
<polyline fill="none" stroke="black" points="95.4293,-19.8113 93.9268,-24.5802 "/>
<polygon fill="black" stroke="black" points="88.8574,-24.0315 98.3952,-27.0366 97.7941,-28.9441 88.2563,-25.939 88.8574,-24.0315"/>
<polyline fill="none" stroke="black" points="93.9268,-24.5802 92.4242,-29.3491 "/>
<polygon fill="black" stroke="black" points="92.7573,-39.9387 92.4242,-29.3491 86.0809,-37.8351 92.7573,-39.9387"/>
</g>
<!-- 15&#45;&gt;m17 -->
<!-- l15 -->
<g id="node58" class="node"><title>l15</title>
<ellipse fill="black" stroke="black" cx="190" cy="-91" rx="1.8" ry="1.8"/>
</g>
<!-- 15&#45;&gt;l15 -->
<g id="edge72" class="edge"><title>15&#45;&gt;l15</title>
<path fill="none" stroke="black" d="M207.944,-146.327C204.555,-135.877 200.319,-122.818 196.815,-112.012"/>
<polygon fill="black" stroke="black" points="186.155,-95.3507 195.667,-92.2656 196.284,-94.1681 186.772,-97.2532 186.155,-95.3507"/>
<polyline fill="none" stroke="black" points="190.602,-92.8569 192.145,-97.6131 "/>
<polygon fill="black" stroke="black" points="187.697,-100.107 197.209,-97.0217 197.826,-98.9242 188.314,-102.009 187.697,-100.107"/>
<polyline fill="none" stroke="black" points="192.145,-97.6131 193.687,-102.369 "/>
<polygon fill="black" stroke="black" points="200.102,-110.802 193.687,-102.369 193.443,-112.961 200.102,-110.802"/>
</g>
<!-- m15 -->
<!-- 15&#45;&gt;m15 -->
<!-- r15 -->
<g id="node62" class="node"><title>r15</title>
<ellipse fill="black" stroke="black" cx="236" cy="-91" rx="1.8" ry="1.8"/>
</g>
<!-- 15&#45;&gt;r15 -->
<g id="edge76" class="edge"><title>15&#45;&gt;r15</title>
<path fill="none" stroke="black" d="M219.552,-146.327C222.614,-136.024 226.431,-123.185 229.617,-112.469"/>
<polygon fill="black" stroke="black" points="230.37,-92.3906 239.956,-95.2404 239.386,-97.1574 229.8,-94.3077 230.37,-92.3906"/>
<polyline fill="none" stroke="black" points="235.448,-92.8569 234.023,-97.6496 "/>
<polygon fill="black" stroke="black" points="228.945,-97.1833 238.531,-100.033 237.961,-101.95 228.375,-99.1004 228.945,-97.1833"/>
<polyline fill="none" stroke="black" points="234.023,-97.6496 232.598,-102.442 "/>
<polygon fill="black" stroke="black" points="233.103,-113.025 232.598,-102.442 226.394,-111.03 233.103,-113.025"/>
</g>
<!-- m17&#45;&gt;25 -->
<!-- 22 -->
<g id="node34" class="node"><title>22</title>
<ellipse fill="red" stroke="black" cx="283" cy="-91" rx="27" ry="19.0919"/>
<text text-anchor="middle" x="283" y="-87.9" font-family="Helvetica,sans-Serif" font-size="14.00" fill="white">22</text>
</g>
<!-- 25&#45;&gt;22 -->
<g id="edge42" class="edge"><title>25&#45;&gt;22</title>
<path fill="none" stroke="black" d="M311.801,-147.087C307.307,-138.335 301.805,-127.621 296.819,-117.91"/>
<polygon fill="black" stroke="black" points="299.927,-116.302 292.246,-109.005 293.7,-119.499 299.927,-116.302"/>
</g>
<!-- m25 -->
<!-- 25&#45;&gt;m25 -->
<!-- 27 -->
<g id="node38" class="node"><title>27</title>
<ellipse fill="red" stroke="black" cx="379" cy="-91" rx="27" ry="19.0919"/>
<text text-anchor="middle" x="379" y="-87.9" font-family="Helvetica,sans-Serif" font-size="14.00" fill="white">27</text>
</g>
<!-- 25&#45;&gt;27 -->
<g id="edge46" class="edge"><title>25&#45;&gt;27</title>
<path fill="none" stroke="black" d="M334.161,-148.208C341.651,-138.652 351.174,-126.502 359.516,-115.859"/>
<polygon fill="black" stroke="black" points="362.477,-117.755 365.891,-107.725 356.967,-113.437 362.477,-117.755"/>
</g>
<!-- 22&#45;&gt;m25 -->
<!-- l22 -->
<g id="node66" class="node"><title>l22</title>
<ellipse fill="black" stroke="black" cx="260" cy="-18" rx="1.8" ry="1.8"/>
</g>
<!-- 22&#45;&gt;l22 -->
<g id="edge82" class="edge"><title>22&#45;&gt;l22</title>
<path fill="none" stroke="black" d="M277.077,-72.2007C273.874,-62.0355 269.91,-49.4536 266.608,-38.9717"/>
<polygon fill="black" stroke="black" points="256.102,-22.2677 265.64,-19.2626 266.241,-21.1701 256.703,-24.1752 256.102,-22.2677"/>
<polyline fill="none" stroke="black" points="260.571,-19.8113 262.073,-24.5802 "/>
<polygon fill="black" stroke="black" points="257.605,-27.0366 267.143,-24.0315 267.744,-25.939 258.206,-28.9441 257.605,-27.0366"/>
<polyline fill="none" stroke="black" points="262.073,-24.5802 263.576,-29.3491 "/>
<polygon fill="black" stroke="black" points="269.919,-37.8351 263.576,-29.3491 263.243,-39.9387 269.919,-37.8351"/>
</g>
<!-- m22 -->
<!-- 22&#45;&gt;m22 -->
<!-- r22 -->
<g id="node70" class="node"><title>r22</title>
<ellipse fill="black" stroke="black" cx="306" cy="-18" rx="1.8" ry="1.8"/>
</g>
<!-- 22&#45;&gt;r22 -->
<g id="edge86" class="edge"><title>22&#45;&gt;r22</title>
<path fill="none" stroke="black" d="M288.923,-72.2007C292.126,-62.0355 296.09,-49.4536 299.392,-38.9717"/>
<polygon fill="black" stroke="black" points="300.36,-19.2626 309.898,-22.2677 309.297,-24.1752 299.759,-21.1701 300.36,-19.2626"/>
<polyline fill="none" stroke="black" points="305.429,-19.8113 303.927,-24.5802 "/>
<polygon fill="black" stroke="black" points="298.857,-24.0315 308.395,-27.0366 307.794,-28.9441 298.256,-25.939 298.857,-24.0315"/>
<polyline fill="none" stroke="black" points="303.927,-24.5802 302.424,-29.3491 "/>
<polygon fill="black" stroke="black" points="302.757,-39.9387 302.424,-29.3491 296.081,-37.8351 302.757,-39.9387"/>
</g>
<!-- m25&#45;&gt;27 -->
<!-- l27 -->
<g id="node74" class="node"><title>l27</title>
<ellipse fill="black" stroke="black" cx="356" cy="-18" rx="1.8" ry="1.8"/>
</g>
<!-- 27&#45;&gt;l27 -->
<g id="edge92" class="edge"><title>27&#45;&gt;l27</title>
<path fill="none" stroke="black" d="M373.077,-72.2007C369.874,-62.0355 365.91,-49.4536 362.608,-38.9717"/>
<polygon fill="black" stroke="black" points="352.102,-22.2677 361.64,-19.2626 362.241,-21.1701 352.703,-24.1752 352.102,-22.2677"/>
<polyline fill="none" stroke="black" points="356.571,-19.8113 358.073,-24.5802 "/>
<polygon fill="black" stroke="black" points="353.605,-27.0366 363.143,-24.0315 363.744,-25.939 354.206,-28.9441 353.605,-27.0366"/>
<polyline fill="none" stroke="black" points="358.073,-24.5802 359.576,-29.3491 "/>
<polygon fill="black" stroke="black" points="365.919,-37.8351 359.576,-29.3491 359.243,-39.9387 365.919,-37.8351"/>
</g>
<!-- m27 -->
<!-- 27&#45;&gt;m27 -->
<!-- r27 -->
<g id="node78" class="node"><title>r27</title>
<ellipse fill="black" stroke="black" cx="402" cy="-18" rx="1.8" ry="1.8"/>
</g>
<!-- 27&#45;&gt;r27 -->
<g id="edge96" class="edge"><title>27&#45;&gt;r27</title>
<path fill="none" stroke="black" d="M384.923,-72.2007C388.126,-62.0355 392.09,-49.4536 395.392,-38.9717"/>
<polygon fill="black" stroke="black" points="396.36,-19.2626 405.898,-22.2677 405.297,-24.1752 395.759,-21.1701 396.36,-19.2626"/>
<polyline fill="none" stroke="black" points="401.429,-19.8113 399.927,-24.5802 "/>
<polygon fill="black" stroke="black" points="394.857,-24.0315 404.395,-27.0366 403.794,-28.9441 394.256,-25.939 394.857,-24.0315"/>
<polyline fill="none" stroke="black" points="399.927,-24.5802 398.424,-29.3491 "/>
<polygon fill="black" stroke="black" points="398.757,-39.9387 398.424,-29.3491 392.081,-37.8351 398.757,-39.9387"/>
</g>
<!-- l6&#45;&gt;m6 -->
<!-- m6&#45;&gt;r6 -->
<!-- l11&#45;&gt;m11 -->
<!-- m11&#45;&gt;r11 -->
<!-- l15&#45;&gt;m15 -->
<!-- m15&#45;&gt;r15 -->
<!-- l22&#45;&gt;m22 -->
<!-- m22&#45;&gt;r22 -->
<!-- l27&#45;&gt;m27 -->
<!-- m27&#45;&gt;r27 -->
</g>
</svg>
