<?xml version="1.0" encoding="UTF-8" standalone="no"?>
<!DOCTYPE svg PUBLIC "-//W3C//DTD SVG 1.1//EN"
 "http://www.w3.org/Graphics/SVG/1.1/DTD/svg11.dtd">
<!-- Generated by graphviz version 2.36.0 (20140111.2315)
 -->
<!-- Title: G Pages: 1 -->
<svg width="374pt" height="328pt"
 viewBox="0.00 0.00 374.00 328.00" xmlns="http://www.w3.org/2000/svg" xmlns:xlink="http://www.w3.org/1999/xlink">
<g id="graph0" class="graph" transform="scale(1 1) rotate(0) translate(4 324)">
<title>G</title>
<polygon fill="white" stroke="none" points="-4,4 -4,-324 370,-324 370,4 -4,4"/>
<!-- 13 -->
<g id="node1" class="node"><title>13</title>
<ellipse fill="black" stroke="black" cx="154" cy="-299" rx="20.203" ry="20.5982"/>
<text text-anchor="middle" x="154" y="-295.3" font-family="Helvetica,sans-Serif" font-size="14.00" fill="white">13</text>
</g>
<!-- 8 -->
<g id="node2" class="node"><title>8</title>
<ellipse fill="red" stroke="black" cx="100" cy="-221" rx="18" ry="18"/>
<text text-anchor="middle" x="100" y="-217.3" font-family="Helvetica,sans-Serif" font-size="14.00" fill="white">8</text>
</g>
<!-- 13&#45;&gt;8 -->
<g id="edge1" class="edge"><title>13&#45;&gt;8</title>
<path fill="none" stroke="black" d="M142.283,-281.509C134.67,-270.794 124.639,-256.677 116.258,-244.882"/>
<polygon fill="black" stroke="black" points="118.884,-242.534 110.238,-236.41 113.177,-246.589 118.884,-242.534"/>
</g>
<!-- m13 -->
<!-- 13&#45;&gt;m13 -->
<!-- 17 -->
<g id="node4" class="node"><title>17</title>
<ellipse fill="red" stroke="black" cx="214" cy="-221" rx="20.203" ry="20.5982"/>
<text text-anchor="middle" x="214" y="-217.3" font-family="Helvetica,sans-Serif" font-size="14.00" fill="white">17</text>
</g>
<!-- 13&#45;&gt;17 -->
<g id="edge3" class="edge"><title>13&#45;&gt;17</title>
<path fill="none" stroke="black" d="M166.432,-282.253C174.718,-271.757 185.765,-257.764 195.128,-245.905"/>
<polygon fill="black" stroke="black" points="198.135,-247.745 201.584,-237.727 192.64,-243.407 198.135,-247.745"/>
</g>
<!-- 8&#45;&gt;m13 -->
<!-- 1 -->
<g id="node5" class="node"><title>1</title>
<ellipse fill="black" stroke="black" cx="34" cy="-143" rx="18" ry="18"/>
<text text-anchor="middle" x="34" y="-139.3" font-family="Helvetica,sans-Serif" font-size="14.00" fill="white">1</text>
</g>
<!-- 8&#45;&gt;1 -->
<g id="edge6" class="edge"><title>8&#45;&gt;1</title>
<path fill="none" stroke="black" d="M88.5037,-206.762C78.4719,-195.21 63.7442,-178.251 52.1265,-164.873"/>
<polygon fill="black" stroke="black" points="54.5641,-162.342 45.3646,-157.086 49.2789,-166.932 54.5641,-162.342"/>
</g>
<!-- m8 -->
<!-- 8&#45;&gt;m8 -->
<!-- 11 -->
<g id="node7" class="node"><title>11</title>
<ellipse fill="black" stroke="black" cx="125" cy="-143" rx="20.203" ry="20.5982"/>
<text text-anchor="middle" x="125" y="-139.3" font-family="Helvetica,sans-Serif" font-size="14.00" fill="white">11</text>
</g>
<!-- 8&#45;&gt;11 -->
<g id="edge8" class="edge"><title>8&#45;&gt;11</title>
<path fill="none" stroke="black" d="M105.425,-203.509C108.407,-194.444 112.189,-182.944 115.633,-172.476"/>
<polygon fill="black" stroke="black" points="118.994,-173.46 118.794,-162.867 112.344,-171.273 118.994,-173.46"/>
</g>
<!-- m13&#45;&gt;17 -->
<!-- 15 -->
<g id="node11" class="node"><title>15</title>
<ellipse fill="black" stroke="black" cx="193" cy="-143" rx="20.203" ry="20.5982"/>
<text text-anchor="middle" x="193" y="-139.3" font-family="Helvetica,sans-Serif" font-size="14.00" fill="white">15</text>
</g>
<!-- 17&#45;&gt;15 -->
<g id="edge16" class="edge"><title>17&#45;&gt;15</title>
<path fill="none" stroke="black" d="M208.701,-200.822C206.363,-192.361 203.565,-182.235 200.983,-172.89"/>
<polygon fill="black" stroke="black" points="204.335,-171.878 198.297,-163.172 197.587,-173.743 204.335,-171.878"/>
</g>
<!-- m17 -->
<!-- 17&#45;&gt;m17 -->
<!-- 25 -->
<g id="node13" class="node"><title>25</title>
<ellipse fill="black" stroke="black" cx="288" cy="-143" rx="20.203" ry="20.5982"/>
<text text-anchor="middle" x="288" y="-139.3" font-family="Helvetica,sans-Serif" font-size="14.00" fill="white">25</text>
</g>
<!-- 17&#45;&gt;25 -->
<g id="edge18" class="edge"><title>17&#45;&gt;25</title>
<path fill="none" stroke="black" d="M227.919,-205.705C238.806,-194.524 254.131,-178.784 266.579,-166"/>
<polygon fill="black" stroke="black" points="269.423,-168.096 273.892,-158.489 264.408,-163.212 269.423,-168.096"/>
</g>
<!-- 1&#45;&gt;m8 -->
<!-- l1 -->
<g id="node8" class="node"><title>l1</title>
<ellipse fill="black" stroke="black" cx="1" cy="-65" rx="1.8" ry="1.8"/>
</g>
<!-- 1&#45;&gt;l1 -->
<g id="edge11" class="edge"><title>1&#45;&gt;l1</title>
<path fill="none" stroke="black" d="M27.1624,-126.253C22.0297,-114.432 14.9711,-98.1758 9.4791,-85.5276"/>
<polygon fill="black" stroke="black" points="-2.77228,-69.8662 6.40034,-65.8833 7.19692,-67.7178 -1.9757,-71.7007 -2.77228,-69.8662"/>
<polyline fill="none" stroke="black" points="1.41574,-66.9575 3.40718,-71.5438 "/>
<polygon fill="black" stroke="black" points="-0.78084,-74.4525 8.39178,-70.4696 9.18836,-72.3041 0.0157353,-76.287 -0.78084,-74.4525"/>
<polyline fill="none" stroke="black" points="3.40718,-71.5438 5.39862,-76.1301 "/>
<polygon fill="black" stroke="black" points="12.5919,-83.9087 5.39862,-76.1301 6.17108,-86.6967 12.5919,-83.9087"/>
</g>
<!-- m1 -->
<!-- 1&#45;&gt;m1 -->
<!-- 6 -->
<g id="node10" class="node"><title>6</title>
<ellipse fill="red" stroke="black" cx="64" cy="-65" rx="18" ry="18"/>
<text text-anchor="middle" x="64" y="-61.3" font-family="Helvetica,sans-Serif" font-size="14.00" fill="white">6</text>
</g>
<!-- 1&#45;&gt;6 -->
<g id="edge13" class="edge"><title>1&#45;&gt;6</title>
<path fill="none" stroke="black" d="M40.3622,-125.882C44.2999,-115.907 49.4422,-102.88 53.9246,-91.5243"/>
<polygon fill="black" stroke="black" points="57.2308,-92.6811 57.6469,-82.0944 50.7197,-90.1109 57.2308,-92.6811"/>
</g>
<!-- m8&#45;&gt;11 -->
<!-- l11 -->
<g id="node20" class="node"><title>l11</title>
<ellipse fill="black" stroke="black" cx="102" cy="-65" rx="1.8" ry="1.8"/>
</g>
<!-- 11&#45;&gt;l11 -->
<g id="edge31" class="edge"><title>11&#45;&gt;l11</title>
<path fill="none" stroke="black" d="M119.196,-122.822C115.819,-111.664 111.566,-97.6088 108.134,-86.2691"/>
<polygon fill="black" stroke="black" points="97.7663,-69.272 107.338,-66.3754 107.917,-68.2897 98.3456,-71.1863 97.7663,-69.272"/>
<polyline fill="none" stroke="black" points="102.262,-66.8666 103.711,-71.6523 "/>
<polygon fill="black" stroke="black" points="99.2146,-74.0577 108.786,-71.1611 109.365,-73.0753 99.7939,-75.972 99.2146,-74.0577"/>
<polyline fill="none" stroke="black" points="103.711,-71.6523 105.159,-76.4379 "/>
<polygon fill="black" stroke="black" points="111.405,-84.9954 105.159,-76.4379 104.706,-87.023 111.405,-84.9954"/>
</g>
<!-- m11 -->
<!-- 11&#45;&gt;m11 -->
<!-- r11 -->
<g id="node22" class="node"><title>r11</title>
<ellipse fill="black" stroke="black" cx="148" cy="-65" rx="1.8" ry="1.8"/>
</g>
<!-- 11&#45;&gt;r11 -->
<g id="edge33" class="edge"><title>11&#45;&gt;r11</title>
<path fill="none" stroke="black" d="M130.804,-122.822C134.181,-111.664 138.434,-97.6088 141.866,-86.2691"/>
<polygon fill="black" stroke="black" points="142.662,-66.3754 152.234,-69.272 151.654,-71.1863 142.083,-68.2897 142.662,-66.3754"/>
<polyline fill="none" stroke="black" points="147.738,-66.8666 146.289,-71.6523 "/>
<polygon fill="black" stroke="black" points="141.214,-71.1611 150.785,-74.0577 150.206,-75.972 140.635,-73.0753 141.214,-71.1611"/>
<polyline fill="none" stroke="black" points="146.289,-71.6523 144.841,-76.4379 "/>
<polygon fill="black" stroke="black" points="145.294,-87.023 144.841,-76.4379 138.595,-84.9954 145.294,-87.023"/>
</g>
<!-- l1&#45;&gt;m1 -->
<!-- m1&#45;&gt;6 -->
<!-- l6 -->
<g id="node17" class="node"><title>l6</title>
<ellipse fill="black" stroke="black" cx="41" cy="-4" rx="1.8" ry="1.8"/>
</g>
<!-- 6&#45;&gt;l6 -->
<g id="edge26" class="edge"><title>6&#45;&gt;l6</title>
<path fill="none" stroke="black" d="M57.7151,-47.878C54.9686,-40.8325 51.7185,-32.4953 48.8178,-25.0545"/>
<polygon fill="black" stroke="black" points="37.1436,-8.87368 46.4607,-5.24157 47.1871,-7.10499 37.87,-10.7371 37.1436,-8.87368"/>
<polyline fill="none" stroke="black" points="41.4389,-6.12592 43.255,-10.7845 "/>
<polygon fill="black" stroke="black" points="38.9596,-13.5322 48.2767,-9.90011 49.0032,-11.7635 39.6861,-15.3956 38.9596,-13.5322"/>
<polyline fill="none" stroke="black" points="43.255,-10.7845 45.071,-15.443 "/>
<polygon fill="black" stroke="black" points="51.9641,-23.4888 45.071,-15.443 45.4422,-26.0313 51.9641,-23.4888"/>
</g>
<!-- m6 -->
<!-- 6&#45;&gt;m6 -->
<!-- r6 -->
<g id="node19" class="node"><title>r6</title>
<ellipse fill="black" stroke="black" cx="87" cy="-4" rx="1.8" ry="1.8"/>
</g>
<!-- 6&#45;&gt;r6 -->
<g id="edge28" class="edge"><title>6&#45;&gt;r6</title>
<path fill="none" stroke="black" d="M70.2849,-47.878C73.0314,-40.8325 76.2815,-32.4953 79.1822,-25.0545"/>
<polygon fill="black" stroke="black" points="81.5393,-5.24157 90.8564,-8.87368 90.13,-10.7371 80.8129,-7.10499 81.5393,-5.24157"/>
<polyline fill="none" stroke="black" points="86.5611,-6.12592 84.745,-10.7845 "/>
<polygon fill="black" stroke="black" points="79.7233,-9.90011 89.0404,-13.5322 88.3139,-15.3956 78.9968,-11.7635 79.7233,-9.90011"/>
<polyline fill="none" stroke="black" points="84.745,-10.7845 82.929,-15.443 "/>
<polygon fill="black" stroke="black" points="82.5578,-26.0313 82.929,-15.443 76.0359,-23.4888 82.5578,-26.0313"/>
</g>
<!-- 15&#45;&gt;m17 -->
<!-- l15 -->
<g id="node23" class="node"><title>l15</title>
<ellipse fill="black" stroke="black" cx="170" cy="-65" rx="1.8" ry="1.8"/>
</g>
<!-- 15&#45;&gt;l15 -->
<g id="edge36" class="edge"><title>15&#45;&gt;l15</title>
<path fill="none" stroke="black" d="M187.196,-122.822C183.819,-111.664 179.566,-97.6088 176.134,-86.2691"/>
<polygon fill="black" stroke="black" points="165.766,-69.272 175.338,-66.3754 175.917,-68.2897 166.346,-71.1863 165.766,-69.272"/>
<polyline fill="none" stroke="black" points="170.262,-66.8666 171.711,-71.6523 "/>
<polygon fill="black" stroke="black" points="167.215,-74.0577 176.786,-71.1611 177.365,-73.0753 167.794,-75.972 167.215,-74.0577"/>
<polyline fill="none" stroke="black" points="171.711,-71.6523 173.159,-76.4379 "/>
<polygon fill="black" stroke="black" points="179.405,-84.9954 173.159,-76.4379 172.706,-87.023 179.405,-84.9954"/>
</g>
<!-- m15 -->
<!-- 15&#45;&gt;m15 -->
<!-- r15 -->
<g id="node25" class="node"><title>r15</title>
<ellipse fill="black" stroke="black" cx="216" cy="-65" rx="1.8" ry="1.8"/>
</g>
<!-- 15&#45;&gt;r15 -->
<g id="edge38" class="edge"><title>15&#45;&gt;r15</title>
<path fill="none" stroke="black" d="M198.804,-122.822C202.181,-111.664 206.434,-97.6088 209.866,-86.2691"/>
<polygon fill="black" stroke="black" points="210.662,-66.3754 220.234,-69.272 219.654,-71.1863 210.083,-68.2897 210.662,-66.3754"/>
<polyline fill="none" stroke="black" points="215.738,-66.8666 214.289,-71.6523 "/>
<polygon fill="black" stroke="black" points="209.214,-71.1611 218.785,-74.0577 218.206,-75.972 208.635,-73.0753 209.214,-71.1611"/>
<polyline fill="none" stroke="black" points="214.289,-71.6523 212.841,-76.4379 "/>
<polygon fill="black" stroke="black" points="213.294,-87.023 212.841,-76.4379 206.595,-84.9954 213.294,-87.023"/>
</g>
<!-- m17&#45;&gt;25 -->
<!-- 22 -->
<g id="node14" class="node"><title>22</title>
<ellipse fill="red" stroke="black" cx="257" cy="-65" rx="20.203" ry="20.5982"/>
<text text-anchor="middle" x="257" y="-61.3" font-family="Helvetica,sans-Serif" font-size="14.00" fill="white">22</text>
</g>
<!-- 25&#45;&gt;22 -->
<g id="edge21" class="edge"><title>25&#45;&gt;22</title>
<path fill="none" stroke="black" d="M280.496,-123.603C276.867,-114.707 272.433,-103.837 268.399,-93.9463"/>
<polygon fill="black" stroke="black" points="271.56,-92.4289 264.543,-84.4915 265.079,-95.0727 271.56,-92.4289"/>
</g>
<!-- m25 -->
<!-- 25&#45;&gt;m25 -->
<!-- 27 -->
<g id="node16" class="node"><title>27</title>
<ellipse fill="red" stroke="black" cx="341" cy="-65" rx="20.203" ry="20.5982"/>
<text text-anchor="middle" x="341" y="-61.3" font-family="Helvetica,sans-Serif" font-size="14.00" fill="white">27</text>
</g>
<!-- 25&#45;&gt;27 -->
<g id="edge23" class="edge"><title>25&#45;&gt;27</title>
<path fill="none" stroke="black" d="M299.5,-125.509C306.584,-115.351 315.801,-102.135 323.748,-90.7382"/>
<polygon fill="black" stroke="black" points="326.673,-92.6632 329.522,-82.4587 320.931,-88.6591 326.673,-92.6632"/>
</g>
<!-- 22&#45;&gt;m25 -->
<!-- l22 -->
<g id="node26" class="node"><title>l22</title>
<ellipse fill="black" stroke="black" cx="234" cy="-4" rx="1.8" ry="1.8"/>
</g>
<!-- 22&#45;&gt;l22 -->
<g id="edge41" class="edge"><title>22&#45;&gt;l22</title>
<path fill="none" stroke="black" d="M249.723,-45.332C247.189,-38.8332 244.338,-31.5199 241.767,-24.9233"/>
<polygon fill="black" stroke="black" points="230.104,-8.77182 239.421,-5.13971 240.147,-7.00312 230.83,-10.6352 230.104,-8.77182"/>
<polyline fill="none" stroke="black" points="234.399,-6.02406 236.215,-10.6826 "/>
<polygon fill="black" stroke="black" points="231.92,-13.4304 241.237,-9.79825 241.963,-11.6617 232.646,-15.2938 231.92,-13.4304"/>
<polyline fill="none" stroke="black" points="236.215,-10.6826 238.031,-15.3411 "/>
<polygon fill="black" stroke="black" points="244.924,-23.387 238.031,-15.3411 238.402,-25.9295 244.924,-23.387"/>
</g>
<!-- m22 -->
<!-- 22&#45;&gt;m22 -->
<!-- r22 -->
<g id="node28" class="node"><title>r22</title>
<ellipse fill="black" stroke="black" cx="280" cy="-4" rx="1.8" ry="1.8"/>
</g>
<!-- 22&#45;&gt;r22 -->
<g id="edge43" class="edge"><title>22&#45;&gt;r22</title>
<path fill="none" stroke="black" d="M264.277,-45.332C266.811,-38.8332 269.662,-31.5199 272.233,-24.9233"/>
<polygon fill="black" stroke="black" points="274.579,-5.13971 283.896,-8.77182 283.17,-10.6352 273.853,-7.00312 274.579,-5.13971"/>
<polyline fill="none" stroke="black" points="279.601,-6.02406 277.785,-10.6826 "/>
<polygon fill="black" stroke="black" points="272.763,-9.79825 282.08,-13.4304 281.354,-15.2938 272.037,-11.6617 272.763,-9.79825"/>
<polyline fill="none" stroke="black" points="277.785,-10.6826 275.969,-15.3411 "/>
<polygon fill="black" stroke="black" points="275.598,-25.9295 275.969,-15.3411 269.076,-23.387 275.598,-25.9295"/>
</g>
<!-- m25&#45;&gt;27 -->
<!-- l27 -->
<g id="node29" class="node"><title>l27</title>
<ellipse fill="black" stroke="black" cx="318" cy="-4" rx="1.8" ry="1.8"/>
</g>
<!-- 27&#45;&gt;l27 -->
<g id="edge46" class="edge"><title>27&#45;&gt;l27</title>
<path fill="none" stroke="black" d="M333.723,-45.332C331.189,-38.8332 328.338,-31.5199 325.767,-24.9233"/>
<polygon fill="black" stroke="black" points="314.104,-8.77182 323.421,-5.13971 324.147,-7.00312 314.83,-10.6352 314.104,-8.77182"/>
<polyline fill="none" stroke="black" points="318.399,-6.02406 320.215,-10.6826 "/>
<polygon fill="black" stroke="black" points="315.92,-13.4304 325.237,-9.79825 325.963,-11.6617 316.646,-15.2938 315.92,-13.4304"/>
<polyline fill="none" stroke="black" points="320.215,-10.6826 322.031,-15.3411 "/>
<polygon fill="black" stroke="black" points="328.924,-23.387 322.031,-15.3411 322.402,-25.9295 328.924,-23.387"/>
</g>
<!-- m27 -->
<!-- 27&#45;&gt;m27 -->
<!-- r27 -->
<g id="node31" class="node"><title>r27</title>
<ellipse fill="black" stroke="black" cx="364" cy="-4" rx="1.8" ry="1.8"/>
</g>
<!-- 27&#45;&gt;r27 -->
<g id="edge48" class="edge"><title>27&#45;&gt;r27</title>
<path fill="none" stroke="black" d="M348.277,-45.332C350.811,-38.8332 353.662,-31.5199 356.233,-24.9233"/>
<polygon fill="black" stroke="black" points="358.579,-5.13971 367.896,-8.77182 367.17,-10.6352 357.853,-7.00312 358.579,-5.13971"/>
<polyline fill="none" stroke="black" points="363.601,-6.02406 361.785,-10.6826 "/>
<polygon fill="black" stroke="black" points="356.763,-9.79825 366.08,-13.4304 365.354,-15.2938 356.037,-11.6617 356.763,-9.79825"/>
<polyline fill="none" stroke="black" points="361.785,-10.6826 359.969,-15.3411 "/>
<polygon fill="black" stroke="black" points="359.598,-25.9295 359.969,-15.3411 353.076,-23.387 359.598,-25.9295"/>
</g>
<!-- l6&#45;&gt;m6 -->
<!-- m6&#45;&gt;r6 -->
<!-- l11&#45;&gt;m11 -->
<!-- m11&#45;&gt;r11 -->
<!-- l15&#45;&gt;m15 -->
<!-- m15&#45;&gt;r15 -->
<!-- l22&#45;&gt;m22 -->
<!-- m22&#45;&gt;r22 -->
<!-- l27&#45;&gt;m27 -->
<!-- m27&#45;&gt;r27 -->
</g>
</svg>
