<?xml version="1.0" encoding="UTF-8" standalone="no"?>
<!DOCTYPE svg PUBLIC "-//W3C//DTD SVG 1.1//EN"
 "http://www.w3.org/Graphics/SVG/1.1/DTD/svg11.dtd">
<!-- Generated by graphviz version 2.36.0 (20140111.2315)
 -->
<!-- Title: G Pages: 1 -->
<svg width="416pt" height="332pt"
 viewBox="0.00 0.00 416.00 332.00" xmlns="http://www.w3.org/2000/svg" xmlns:xlink="http://www.w3.org/1999/xlink">
<g id="graph0" class="graph" transform="scale(1 1) rotate(0) translate(4 328)">
<title>G</title>
<polygon fill="white" stroke="none" points="-4,4 -4,-328 412,-328 412,4 -4,4"/>
<!-- 13 -->
<g id="node1" class="node"><title>13</title>
<ellipse fill="black" stroke="black" cx="171" cy="-306" rx="27" ry="18"/>
<text text-anchor="middle" x="171" y="-302.3" font-family="Helvetica,sans-Serif" font-size="14.00" fill="white">13</text>
</g>
<!-- 8 -->
<g id="node2" class="node"><title>8</title>
<ellipse fill="red" stroke="black" cx="111" cy="-234" rx="27" ry="18"/>
<text text-anchor="middle" x="111" y="-230.3" font-family="Helvetica,sans-Serif" font-size="14.00" fill="white">8</text>
</g>
<!-- 13&#45;&gt;8 -->
<g id="edge1" class="edge"><title>13&#45;&gt;8</title>
<path fill="none" stroke="black" d="M157.981,-289.811C149.961,-280.455 139.527,-268.282 130.53,-257.785"/>
<polygon fill="black" stroke="black" points="133.159,-255.474 123.994,-250.159 127.844,-260.03 133.159,-255.474"/>
</g>
<!-- m13 -->
<!-- 13&#45;&gt;m13 -->
<!-- 17 -->
<g id="node4" class="node"><title>17</title>
<ellipse fill="red" stroke="black" cx="238" cy="-234" rx="27" ry="18"/>
<text text-anchor="middle" x="238" y="-230.3" font-family="Helvetica,sans-Serif" font-size="14.00" fill="white">17</text>
</g>
<!-- 13&#45;&gt;17 -->
<g id="edge3" class="edge"><title>13&#45;&gt;17</title>
<path fill="none" stroke="black" d="M184.882,-290.496C194.135,-280.829 206.471,-267.94 216.926,-257.017"/>
<polygon fill="black" stroke="black" points="219.749,-259.13 224.135,-249.485 214.692,-254.29 219.749,-259.13"/>
</g>
<!-- 8&#45;&gt;m13 -->
<!-- 1 -->
<g id="node5" class="node"><title>1</title>
<ellipse fill="black" stroke="black" cx="34" cy="-162" rx="27" ry="18"/>
<text text-anchor="middle" x="34" y="-158.3" font-family="Helvetica,sans-Serif" font-size="14.00" fill="white">1</text>
</g>
<!-- 8&#45;&gt;1 -->
<g id="edge6" class="edge"><title>8&#45;&gt;1</title>
<path fill="none" stroke="black" d="M95.4179,-218.834C84.3871,-208.806 69.41,-195.191 57.0073,-183.916"/>
<polygon fill="black" stroke="black" points="59.0499,-181.043 49.2961,-176.906 54.3412,-186.222 59.0499,-181.043"/>
</g>
<!-- m8 -->
<!-- 8&#45;&gt;m8 -->
<!-- 11 -->
<g id="node7" class="node"><title>11</title>
<ellipse fill="black" stroke="black" cx="142" cy="-162" rx="27" ry="18"/>
<text text-anchor="middle" x="142" y="-158.3" font-family="Helvetica,sans-Serif" font-size="14.00" fill="white">11</text>
</g>
<!-- 8&#45;&gt;11 -->
<g id="edge8" class="edge"><title>8&#45;&gt;11</title>
<path fill="none" stroke="black" d="M118.347,-216.411C122.014,-208.129 126.533,-197.925 130.635,-188.662"/>
<polygon fill="black" stroke="black" points="133.857,-190.031 134.706,-179.47 127.457,-187.196 133.857,-190.031"/>
</g>
<!-- m13&#45;&gt;17 -->
<!-- 15 -->
<g id="node11" class="node"><title>15</title>
<ellipse fill="black" stroke="black" cx="214" cy="-162" rx="27" ry="18"/>
<text text-anchor="middle" x="214" y="-158.3" font-family="Helvetica,sans-Serif" font-size="14.00" fill="white">15</text>
</g>
<!-- 17&#45;&gt;15 -->
<g id="edge16" class="edge"><title>17&#45;&gt;15</title>
<path fill="none" stroke="black" d="M232.19,-216.055C229.449,-208.059 226.113,-198.331 223.051,-189.4"/>
<polygon fill="black" stroke="black" points="226.31,-188.113 219.756,-179.789 219.689,-190.384 226.31,-188.113"/>
</g>
<!-- m17 -->
<!-- 17&#45;&gt;m17 -->
<!-- 25 -->
<g id="node13" class="node"><title>25</title>
<ellipse fill="black" stroke="black" cx="322" cy="-162" rx="27" ry="18"/>
<text text-anchor="middle" x="322" y="-158.3" font-family="Helvetica,sans-Serif" font-size="14.00" fill="white">25</text>
</g>
<!-- 17&#45;&gt;25 -->
<g id="edge18" class="edge"><title>17&#45;&gt;25</title>
<path fill="none" stroke="black" d="M254.196,-219.503C266.63,-209.142 283.991,-194.674 298.032,-182.973"/>
<polygon fill="black" stroke="black" points="300.412,-185.546 305.854,-176.455 295.931,-180.168 300.412,-185.546"/>
</g>
<!-- 1&#45;&gt;m8 -->
<!-- l1 -->
<g id="node8" class="node"><title>l1</title>
<ellipse fill="black" stroke="black" cx="1" cy="-90" rx="1.8" ry="1.8"/>
</g>
<!-- 1&#45;&gt;l1 -->
<g id="edge11" class="edge"><title>1&#45;&gt;l1</title>
<path fill="none" stroke="black" d="M26.1795,-144.411C21.3431,-134.152 15.1159,-120.943 10.0644,-110.227"/>
<polygon fill="black" stroke="black" points="-2.70697,-94.8623 6.33829,-90.5981 7.19113,-92.4071 -1.85413,-96.6713 -2.70697,-94.8623"/>
<polyline fill="none" stroke="black" points="1.38923,-91.8256 3.52134,-96.3483 "/>
<polygon fill="black" stroke="black" points="-0.574864,-99.3849 8.4704,-95.1207 9.32324,-96.9297 0.27798,-101.194 -0.574864,-99.3849"/>
<polyline fill="none" stroke="black" points="3.52134,-96.3483 5.65345,-100.871 "/>
<polygon fill="black" stroke="black" points="13.0835,-108.424 5.65345,-100.871 6.75183,-111.409 13.0835,-108.424"/>
</g>
<!-- m1 -->
<!-- 1&#45;&gt;m1 -->
<!-- 6 -->
<g id="node10" class="node"><title>6</title>
<ellipse fill="red" stroke="black" cx="73" cy="-90" rx="27" ry="18"/>
<text text-anchor="middle" x="73" y="-86.3" font-family="Helvetica,sans-Serif" font-size="14.00" fill="white">6</text>
</g>
<!-- 1&#45;&gt;6 -->
<g id="edge13" class="edge"><title>1&#45;&gt;6</title>
<path fill="none" stroke="black" d="M43.0454,-144.765C47.82,-136.195 53.7819,-125.494 59.1269,-115.9"/>
<polygon fill="black" stroke="black" points="62.1941,-117.586 64.0036,-107.147 56.0791,-114.18 62.1941,-117.586"/>
</g>
<!-- m8&#45;&gt;11 -->
<!-- l11 -->
<g id="node20" class="node"><title>l11</title>
<ellipse fill="black" stroke="black" cx="120" cy="-90" rx="1.8" ry="1.8"/>
</g>
<!-- 11&#45;&gt;l11 -->
<g id="edge31" class="edge"><title>11&#45;&gt;l11</title>
<path fill="none" stroke="black" d="M136.674,-144.055C133.54,-134.081 129.558,-121.413 126.272,-110.957"/>
<polygon fill="black" stroke="black" points="115.786,-94.2696 125.326,-91.2713 125.926,-93.1793 116.386,-96.1776 115.786,-94.2696"/>
<polyline fill="none" stroke="black" points="120.257,-91.8164 121.756,-96.5864 "/>
<polygon fill="black" stroke="black" points="117.286,-99.0396 126.826,-96.0413 127.425,-97.9492 117.885,-100.948 117.286,-99.0396"/>
<polyline fill="none" stroke="black" points="121.756,-96.5864 123.255,-101.356 "/>
<polygon fill="black" stroke="black" points="129.592,-109.847 123.255,-101.356 122.914,-111.946 129.592,-109.847"/>
</g>
<!-- m11 -->
<!-- 11&#45;&gt;m11 -->
<!-- r11 -->
<g id="node22" class="node"><title>r11</title>
<ellipse fill="black" stroke="black" cx="166" cy="-90" rx="1.8" ry="1.8"/>
</g>
<!-- 11&#45;&gt;r11 -->
<g id="edge33" class="edge"><title>11&#45;&gt;r11</title>
<path fill="none" stroke="black" d="M147.81,-144.055C151.229,-134.081 155.573,-121.413 159.157,-110.957"/>
<polygon fill="black" stroke="black" points="160.666,-91.1408 170.125,-94.384 169.477,-96.2759 160.017,-93.0326 160.666,-91.1408"/>
<polyline fill="none" stroke="black" points="165.72,-91.8164 164.098,-96.5462 "/>
<polygon fill="black" stroke="black" points="159.044,-95.8705 168.504,-99.1138 167.855,-101.006 158.396,-97.7624 159.044,-95.8705"/>
<polyline fill="none" stroke="black" points="164.098,-96.5462 162.477,-101.276 "/>
<polygon fill="black" stroke="black" points="162.544,-111.871 162.477,-101.276 155.923,-109.6 162.544,-111.871"/>
</g>
<!-- l1&#45;&gt;m1 -->
<!-- m1&#45;&gt;6 -->
<!-- l6 -->
<g id="node17" class="node"><title>l6</title>
<ellipse fill="black" stroke="black" cx="50" cy="-18" rx="1.8" ry="1.8"/>
</g>
<!-- 6&#45;&gt;l6 -->
<g id="edge26" class="edge"><title>6&#45;&gt;l6</title>
<path fill="none" stroke="black" d="M67.4323,-72.055C64.1552,-62.081 59.9929,-49.4133 56.5575,-38.9575"/>
<polygon fill="black" stroke="black" points="45.8303,-22.3273 55.3306,-19.2057 55.9549,-21.1058 46.4546,-24.2273 45.8303,-22.3273"/>
<polyline fill="none" stroke="black" points="50.2683,-19.8164 51.829,-24.5666 "/>
<polygon fill="black" stroke="black" points="47.391,-27.0774 56.8914,-23.9559 57.5157,-25.8559 48.0154,-28.9775 47.391,-27.0774"/>
<polyline fill="none" stroke="black" points="51.829,-24.5666 53.3898,-29.3168 "/>
<polygon fill="black" stroke="black" points="59.8365,-37.7245 53.3898,-29.3168 53.1863,-39.9096 59.8365,-37.7245"/>
</g>
<!-- m6 -->
<!-- 6&#45;&gt;m6 -->
<!-- r6 -->
<g id="node19" class="node"><title>r6</title>
<ellipse fill="black" stroke="black" cx="96" cy="-18" rx="1.8" ry="1.8"/>
</g>
<!-- 6&#45;&gt;r6 -->
<g id="edge28" class="edge"><title>6&#45;&gt;r6</title>
<path fill="none" stroke="black" d="M78.5677,-72.055C81.8448,-62.081 86.0071,-49.4133 89.4425,-38.9575"/>
<polygon fill="black" stroke="black" points="90.6694,-19.2057 100.17,-22.3273 99.5454,-24.2273 90.0451,-21.1058 90.6694,-19.2057"/>
<polyline fill="none" stroke="black" points="95.7317,-19.8164 94.171,-24.5666 "/>
<polygon fill="black" stroke="black" points="89.1086,-23.9559 98.609,-27.0774 97.9846,-28.9775 88.4843,-25.8559 89.1086,-23.9559"/>
<polyline fill="none" stroke="black" points="94.171,-24.5666 92.6102,-29.3168 "/>
<polygon fill="black" stroke="black" points="92.8137,-39.9096 92.6102,-29.3168 86.1635,-37.7245 92.8137,-39.9096"/>
</g>
<!-- 15&#45;&gt;m17 -->
<!-- l15 -->
<g id="node23" class="node"><title>l15</title>
<ellipse fill="black" stroke="black" cx="190" cy="-90" rx="1.8" ry="1.8"/>
</g>
<!-- 15&#45;&gt;l15 -->
<g id="edge36" class="edge"><title>15&#45;&gt;l15</title>
<path fill="none" stroke="black" d="M208.19,-144.055C204.771,-134.081 200.427,-121.413 196.843,-110.957"/>
<polygon fill="black" stroke="black" points="185.875,-94.384 195.334,-91.1408 195.983,-93.0326 186.523,-96.2759 185.875,-94.384"/>
<polyline fill="none" stroke="black" points="190.28,-91.8164 191.902,-96.5462 "/>
<polygon fill="black" stroke="black" points="187.496,-99.1138 196.956,-95.8705 197.604,-97.7624 188.145,-101.006 187.496,-99.1138"/>
<polyline fill="none" stroke="black" points="191.902,-96.5462 193.523,-101.276 "/>
<polygon fill="black" stroke="black" points="200.077,-109.6 193.523,-101.276 193.456,-111.871 200.077,-109.6"/>
</g>
<!-- m15 -->
<!-- 15&#45;&gt;m15 -->
<!-- r15 -->
<g id="node25" class="node"><title>r15</title>
<ellipse fill="black" stroke="black" cx="236" cy="-90" rx="1.8" ry="1.8"/>
</g>
<!-- 15&#45;&gt;r15 -->
<g id="edge38" class="edge"><title>15&#45;&gt;r15</title>
<path fill="none" stroke="black" d="M219.326,-144.055C222.46,-134.081 226.442,-121.413 229.728,-110.957"/>
<polygon fill="black" stroke="black" points="230.674,-91.2713 240.214,-94.2696 239.614,-96.1776 230.074,-93.1793 230.674,-91.2713"/>
<polyline fill="none" stroke="black" points="235.743,-91.8164 234.244,-96.5864 "/>
<polygon fill="black" stroke="black" points="229.174,-96.0413 238.714,-99.0396 238.115,-100.948 228.575,-97.9492 229.174,-96.0413"/>
<polyline fill="none" stroke="black" points="234.244,-96.5864 232.745,-101.356 "/>
<polygon fill="black" stroke="black" points="233.086,-111.946 232.745,-101.356 226.408,-109.847 233.086,-111.946"/>
</g>
<!-- m17&#45;&gt;25 -->
<!-- 22 -->
<g id="node14" class="node"><title>22</title>
<ellipse fill="red" stroke="black" cx="283" cy="-90" rx="27" ry="18"/>
<text text-anchor="middle" x="283" y="-86.3" font-family="Helvetica,sans-Serif" font-size="14.00" fill="white">22</text>
</g>
<!-- 25&#45;&gt;22 -->
<g id="edge21" class="edge"><title>25&#45;&gt;22</title>
<path fill="none" stroke="black" d="M312.955,-144.765C308.18,-136.195 302.218,-125.494 296.873,-115.9"/>
<polygon fill="black" stroke="black" points="299.921,-114.18 291.996,-107.147 293.806,-117.586 299.921,-114.18"/>
</g>
<!-- m25 -->
<!-- 25&#45;&gt;m25 -->
<!-- 27 -->
<g id="node16" class="node"><title>27</title>
<ellipse fill="red" stroke="black" cx="381" cy="-90" rx="27" ry="18"/>
<text text-anchor="middle" x="381" y="-86.3" font-family="Helvetica,sans-Serif" font-size="14.00" fill="white">27</text>
</g>
<!-- 25&#45;&gt;27 -->
<g id="edge23" class="edge"><title>25&#45;&gt;27</title>
<path fill="none" stroke="black" d="M334.802,-145.811C342.611,-136.546 352.747,-124.52 361.535,-114.094"/>
<polygon fill="black" stroke="black" points="364.454,-116.061 368.223,-106.159 359.102,-111.55 364.454,-116.061"/>
</g>
<!-- 22&#45;&gt;m25 -->
<!-- l22 -->
<g id="node26" class="node"><title>l22</title>
<ellipse fill="black" stroke="black" cx="260" cy="-18" rx="1.8" ry="1.8"/>
</g>
<!-- 22&#45;&gt;l22 -->
<g id="edge41" class="edge"><title>22&#45;&gt;l22</title>
<path fill="none" stroke="black" d="M277.432,-72.055C274.155,-62.081 269.993,-49.4133 266.557,-38.9575"/>
<polygon fill="black" stroke="black" points="255.83,-22.3273 265.331,-19.2057 265.955,-21.1058 256.455,-24.2273 255.83,-22.3273"/>
<polyline fill="none" stroke="black" points="260.268,-19.8164 261.829,-24.5666 "/>
<polygon fill="black" stroke="black" points="257.391,-27.0774 266.891,-23.9559 267.516,-25.8559 258.015,-28.9775 257.391,-27.0774"/>
<polyline fill="none" stroke="black" points="261.829,-24.5666 263.39,-29.3168 "/>
<polygon fill="black" stroke="black" points="269.837,-37.7245 263.39,-29.3168 263.186,-39.9096 269.837,-37.7245"/>
</g>
<!-- m22 -->
<!-- 22&#45;&gt;m22 -->
<!-- r22 -->
<g id="node28" class="node"><title>r22</title>
<ellipse fill="black" stroke="black" cx="306" cy="-18" rx="1.8" ry="1.8"/>
</g>
<!-- 22&#45;&gt;r22 -->
<g id="edge43" class="edge"><title>22&#45;&gt;r22</title>
<path fill="none" stroke="black" d="M288.568,-72.055C291.845,-62.081 296.007,-49.4133 299.443,-38.9575"/>
<polygon fill="black" stroke="black" points="300.669,-19.2057 310.17,-22.3273 309.545,-24.2273 300.045,-21.1058 300.669,-19.2057"/>
<polyline fill="none" stroke="black" points="305.732,-19.8164 304.171,-24.5666 "/>
<polygon fill="black" stroke="black" points="299.109,-23.9559 308.609,-27.0774 307.985,-28.9775 298.484,-25.8559 299.109,-23.9559"/>
<polyline fill="none" stroke="black" points="304.171,-24.5666 302.61,-29.3168 "/>
<polygon fill="black" stroke="black" points="302.814,-39.9096 302.61,-29.3168 296.163,-37.7245 302.814,-39.9096"/>
</g>
<!-- m25&#45;&gt;27 -->
<!-- l27 -->
<g id="node29" class="node"><title>l27</title>
<ellipse fill="black" stroke="black" cx="358" cy="-18" rx="1.8" ry="1.8"/>
</g>
<!-- 27&#45;&gt;l27 -->
<g id="edge46" class="edge"><title>27&#45;&gt;l27</title>
<path fill="none" stroke="black" d="M375.432,-72.055C372.155,-62.081 367.993,-49.4133 364.557,-38.9575"/>
<polygon fill="black" stroke="black" points="353.83,-22.3273 363.331,-19.2057 363.955,-21.1058 354.455,-24.2273 353.83,-22.3273"/>
<polyline fill="none" stroke="black" points="358.268,-19.8164 359.829,-24.5666 "/>
<polygon fill="black" stroke="black" points="355.391,-27.0774 364.891,-23.9559 365.516,-25.8559 356.015,-28.9775 355.391,-27.0774"/>
<polyline fill="none" stroke="black" points="359.829,-24.5666 361.39,-29.3168 "/>
<polygon fill="black" stroke="black" points="367.837,-37.7245 361.39,-29.3168 361.186,-39.9096 367.837,-37.7245"/>
</g>
<!-- m27 -->
<!-- 27&#45;&gt;m27 -->
<!-- r27 -->
<g id="node31" class="node"><title>r27</title>
<ellipse fill="black" stroke="black" cx="404" cy="-18" rx="1.8" ry="1.8"/>
</g>
<!-- 27&#45;&gt;r27 -->
<g id="edge48" class="edge"><title>27&#45;&gt;r27</title>
<path fill="none" stroke="black" d="M386.568,-72.055C389.845,-62.081 394.007,-49.4133 397.443,-38.9575"/>
<polygon fill="black" stroke="black" points="398.669,-19.2057 408.17,-22.3273 407.545,-24.2273 398.045,-21.1058 398.669,-19.2057"/>
<polyline fill="none" stroke="black" points="403.732,-19.8164 402.171,-24.5666 "/>
<polygon fill="black" stroke="black" points="397.109,-23.9559 406.609,-27.0774 405.985,-28.9775 396.484,-25.8559 397.109,-23.9559"/>
<polyline fill="none" stroke="black" points="402.171,-24.5666 400.61,-29.3168 "/>
<polygon fill="black" stroke="black" points="400.814,-39.9096 400.61,-29.3168 394.163,-37.7245 400.814,-39.9096"/>
</g>
<!-- l6&#45;&gt;m6 -->
<!-- m6&#45;&gt;r6 -->
<!-- l11&#45;&gt;m11 -->
<!-- m11&#45;&gt;r11 -->
<!-- l15&#45;&gt;m15 -->
<!-- m15&#45;&gt;r15 -->
<!-- l22&#45;&gt;m22 -->
<!-- m22&#45;&gt;r22 -->
<!-- l27&#45;&gt;m27 -->
<!-- m27&#45;&gt;r27 -->
</g>
</svg>
