<?xml version="1.0" encoding="UTF-8" standalone="no"?>
<!DOCTYPE svg PUBLIC "-//W3C//DTD SVG 1.1//EN"
 "http://www.w3.org/Graphics/SVG/1.1/DTD/svg11.dtd">
<!-- Generated by graphviz version 2.36.0 (20140111.2315)
 -->
<!-- Title: G Pages: 1 -->
<svg width="674pt" height="206pt"
 viewBox="0.00 0.00 674.40 206.20" xmlns="http://www.w3.org/2000/svg" xmlns:xlink="http://www.w3.org/1999/xlink">
<g id="graph0" class="graph" transform="scale(1 1) rotate(0) translate(4 202.198)">
<title>G</title>
<polygon fill="white" stroke="none" points="-4,4 -4,-202.198 670.4,-202.198 670.4,4 -4,4"/>
<!-- G1 -->
<g id="node1" class="node"><title>G1</title>
<ellipse fill="black" stroke="black" cx="155" cy="-180" rx="18.399" ry="18.399"/>
<text text-anchor="middle" x="155" y="-176.3" font-family="Helvetica,sans-Serif" font-weight="bold" font-size="14.00" fill="white">G</text>
</g>
<!-- P1 -->
<g id="node2" class="node"><title>P1</title>
<ellipse fill="red" stroke="black" cx="83" cy="-144" rx="18" ry="18"/>
<text text-anchor="middle" x="83" y="-140.3" font-family="Helvetica,sans-Serif" font-weight="bold" font-size="14.00" fill="white">P</text>
</g>
<!-- G1&#45;&gt;P1 -->
<g id="edge1" class="edge"><title>G1&#45;&gt;P1</title>
<path fill="none" stroke="black" d="M138.662,-171.831C129.733,-167.366 118.475,-161.737 108.424,-156.712"/>
<polygon fill="black" stroke="black" points="109.783,-153.478 99.2733,-152.137 106.652,-159.739 109.783,-153.478"/>
</g>
<!-- U1 -->
<g id="node3" class="node"><title>U1</title>
<ellipse fill="black" stroke="black" cx="227" cy="-144" rx="18" ry="18"/>
<text text-anchor="middle" x="227" y="-140.3" font-family="Helvetica,sans-Serif" font-weight="bold" font-size="14.00" fill="white">U</text>
</g>
<!-- G1&#45;&gt;U1 -->
<g id="edge2" class="edge"><title>G1&#45;&gt;U1</title>
<path fill="none" stroke="black" d="M171.338,-171.831C180.267,-167.366 191.525,-161.737 201.576,-156.712"/>
<polygon fill="black" stroke="black" points="203.348,-159.739 210.727,-152.137 200.217,-153.478 203.348,-159.739"/>
</g>
<!-- N1 -->
<g id="node4" class="node"><title>N1</title>
<ellipse fill="red" stroke="black" cx="47" cy="-90" rx="18" ry="18"/>
<text text-anchor="middle" x="47" y="-86.3" font-family="Helvetica,sans-Serif" font-weight="bold" font-size="14.00" fill="white">N</text>
</g>
<!-- P1&#45;&gt;N1 -->
<g id="edge3" class="edge"><title>P1&#45;&gt;N1</title>
<path fill="none" stroke="black" d="M72.972,-128.958C69.8266,-124.24 66.2741,-118.911 62.8293,-113.744"/>
<polygon fill="black" stroke="black" points="65.6836,-111.716 57.2244,-105.337 59.8592,-115.599 65.6836,-111.716"/>
</g>
<!-- dot3 -->
<g id="node7" class="node"><title>dot3</title>
<ellipse fill="black" stroke="black" cx="119" cy="-90" rx="7" ry="7"/>
</g>
<!-- P1&#45;&gt;dot3 -->
<g id="edge6" class="edge"><title>P1&#45;&gt;dot3</title>
<path fill="none" stroke="black" d="M93.028,-128.958C98.1187,-121.322 104.275,-112.087 109.317,-104.525"/>
<polygon fill="black" stroke="black" points="112.307,-106.35 114.941,-96.0879 106.482,-102.467 112.307,-106.35"/>
</g>
<!-- dot4 -->
<!-- U1&#45;&gt;dot4 -->
<g id="edge7" class="edge"><title>U1&#45;&gt;dot4</title>
<path fill="none" stroke="black" d="M216.972,-128.958C211.881,-121.322 205.725,-112.087 200.683,-104.525"/>
<polygon fill="black" stroke="black" points="203.518,-102.467 195.059,-96.0879 197.693,-106.35 203.518,-102.467"/>
</g>
<!-- dot5 -->
<!-- U1&#45;&gt;dot5 -->
<g id="edge8" class="edge"><title>U1&#45;&gt;dot5</title>
<path fill="none" stroke="black" d="M237.028,-128.958C242.119,-121.322 248.275,-112.087 253.317,-104.525"/>
<polygon fill="black" stroke="black" points="256.307,-106.35 258.941,-96.0879 250.482,-102.467 256.307,-106.35"/>
</g>
<!-- dot1 -->
<g id="node5" class="node"><title>dot1</title>
<ellipse fill="black" stroke="black" cx="11" cy="-36" rx="7" ry="7"/>
</g>
<!-- N1&#45;&gt;dot1 -->
<g id="edge4" class="edge"><title>N1&#45;&gt;dot1</title>
<path fill="none" stroke="black" d="M36.972,-74.958C31.8813,-67.3219 25.7245,-58.0868 20.6833,-50.5249"/>
<polygon fill="black" stroke="black" points="23.5178,-48.4669 15.0586,-42.0879 17.6935,-52.3499 23.5178,-48.4669"/>
</g>
<!-- dot2 -->
<g id="node6" class="node"><title>dot2</title>
<ellipse fill="black" stroke="black" cx="83" cy="-36" rx="7" ry="7"/>
</g>
<!-- N1&#45;&gt;dot2 -->
<g id="edge5" class="edge"><title>N1&#45;&gt;dot2</title>
<path fill="none" stroke="black" d="M57.028,-74.958C62.1187,-67.3219 68.2755,-58.0868 73.3167,-50.5249"/>
<polygon fill="black" stroke="black" points="76.3065,-52.3499 78.9414,-42.0879 70.4822,-48.4669 76.3065,-52.3499"/>
</g>
<!-- tri1 -->
<g id="node10" class="node"><title>tri1</title>
<polygon fill="none" stroke="black" points="11,-36 -1.77636e-15,-9 22,-9 11,-36"/>
<text text-anchor="middle" x="11" y="-14.3" font-family="Helvetica,sans-Serif" font-weight="bold" font-size="14.00">1</text>
</g>
<!-- tri2 -->
<g id="node11" class="node"><title>tri2</title>
<polygon fill="none" stroke="black" points="83,-36 72,-9 94,-9 83,-36"/>
<text text-anchor="middle" x="83" y="-14.3" font-family="Helvetica,sans-Serif" font-weight="bold" font-size="14.00">2</text>
</g>
<!-- tri3 -->
<g id="node12" class="node"><title>tri3</title>
<polygon fill="none" stroke="black" points="119,-90 108,-63 130,-63 119,-90"/>
<text text-anchor="middle" x="119" y="-68.3" font-family="Helvetica,sans-Serif" font-weight="bold" font-size="14.00">3</text>
</g>
<!-- tri4 -->
<g id="node13" class="node"><title>tri4</title>
<polygon fill="none" stroke="black" points="194.6,-95.76 183.6,-68.76 205.6,-68.76 194.6,-95.76"/>
<text text-anchor="middle" x="194.6" y="-74.06" font-family="Helvetica,sans-Serif" font-weight="bold" font-size="14.00">4</text>
</g>
<!-- tri5 -->
<g id="node14" class="node"><title>tri5</title>
<polygon fill="none" stroke="black" points="259.4,-95.76 248.4,-68.76 270.4,-68.76 259.4,-95.76"/>
<text text-anchor="middle" x="259.4" y="-74.06" font-family="Helvetica,sans-Serif" font-weight="bold" font-size="14.00">5</text>
</g>
<!-- arrow -->
<g id="node15" class="node"><title>arrow</title>
<polygon fill="blue" stroke="black" points="353,-102 299,-102 299,-78 353,-78 353,-72 371,-90 353,-108 353,-102"/>
</g>
<!-- G2 -->
<g id="node16" class="node"><title>G2</title>
<ellipse fill="red" stroke="black" cx="587" cy="-144" rx="18.399" ry="18.399"/>
<text text-anchor="middle" x="587" y="-140.3" font-family="Helvetica,sans-Serif" font-weight="bold" font-size="14.00" fill="white">G</text>
</g>
<!-- U2 -->
<g id="node18" class="node"><title>U2</title>
<ellipse fill="black" stroke="black" cx="623" cy="-90" rx="18" ry="18"/>
<text text-anchor="middle" x="623" y="-86.3" font-family="Helvetica,sans-Serif" font-weight="bold" font-size="14.00" fill="white">U</text>
</g>
<!-- G2&#45;&gt;U2 -->
<g id="edge11" class="edge"><title>G2&#45;&gt;U2</title>
<path fill="none" stroke="black" d="M597.22,-128.67C600.363,-123.956 603.897,-118.654 607.318,-113.523"/>
<polygon fill="black" stroke="black" points="610.244,-115.443 612.879,-105.181 604.42,-111.56 610.244,-115.443"/>
</g>
<!-- dot3b -->
<g id="node22" class="node"><title>dot3b</title>
<ellipse fill="black" stroke="black" cx="551" cy="-90" rx="7" ry="7"/>
</g>
<!-- G2&#45;&gt;dot3b -->
<g id="edge14" class="edge"><title>G2&#45;&gt;dot3b</title>
<path fill="none" stroke="black" d="M576.78,-128.67C571.694,-121.041 565.581,-111.871 560.584,-104.377"/>
<polygon fill="black" stroke="black" points="563.473,-102.4 555.014,-96.021 557.649,-106.283 563.473,-102.4"/>
</g>
<!-- P2 -->
<g id="node17" class="node"><title>P2</title>
<ellipse fill="black" stroke="black" cx="515" cy="-180" rx="18" ry="18"/>
<text text-anchor="middle" x="515" y="-176.3" font-family="Helvetica,sans-Serif" font-weight="bold" font-size="14.00" fill="white">P</text>
</g>
<!-- P2&#45;&gt;G2 -->
<g id="edge10" class="edge"><title>P2&#45;&gt;G2</title>
<path fill="none" stroke="black" d="M531.338,-171.831C540.142,-167.429 551.208,-161.896 561.15,-156.925"/>
<polygon fill="black" stroke="black" points="562.848,-159.989 570.227,-152.386 559.718,-153.728 562.848,-159.989"/>
</g>
<!-- N2 -->
<g id="node19" class="node"><title>N2</title>
<ellipse fill="red" stroke="black" cx="443" cy="-144" rx="18" ry="18"/>
<text text-anchor="middle" x="443" y="-140.3" font-family="Helvetica,sans-Serif" font-weight="bold" font-size="14.00" fill="white">N</text>
</g>
<!-- P2&#45;&gt;N2 -->
<g id="edge9" class="edge"><title>P2&#45;&gt;N2</title>
<path fill="none" stroke="black" d="M498.662,-171.831C489.733,-167.366 478.475,-161.737 468.424,-156.712"/>
<polygon fill="black" stroke="black" points="469.783,-153.478 459.273,-152.137 466.652,-159.739 469.783,-153.478"/>
</g>
<!-- dot4b -->
<!-- U2&#45;&gt;dot4b -->
<g id="edge15" class="edge"><title>U2&#45;&gt;dot4b</title>
<path fill="none" stroke="black" d="M612.972,-74.958C607.881,-67.3219 601.725,-58.0868 596.683,-50.5249"/>
<polygon fill="black" stroke="black" points="599.518,-48.4669 591.059,-42.0879 593.693,-52.3499 599.518,-48.4669"/>
</g>
<!-- dot5b -->
<!-- U2&#45;&gt;dot5b -->
<g id="edge16" class="edge"><title>U2&#45;&gt;dot5b</title>
<path fill="none" stroke="black" d="M633.028,-74.958C638.119,-67.3219 644.275,-58.0868 649.317,-50.5249"/>
<polygon fill="black" stroke="black" points="652.307,-52.3499 654.941,-42.0879 646.482,-48.4669 652.307,-52.3499"/>
</g>
<!-- dot1b -->
<g id="node20" class="node"><title>dot1b</title>
<ellipse fill="black" stroke="black" cx="407" cy="-90" rx="7" ry="7"/>
</g>
<!-- N2&#45;&gt;dot1b -->
<g id="edge12" class="edge"><title>N2&#45;&gt;dot1b</title>
<path fill="none" stroke="black" d="M432.972,-128.958C427.881,-121.322 421.725,-112.087 416.683,-104.525"/>
<polygon fill="black" stroke="black" points="419.518,-102.467 411.059,-96.0879 413.693,-106.35 419.518,-102.467"/>
</g>
<!-- dot2b -->
<g id="node21" class="node"><title>dot2b</title>
<ellipse fill="black" stroke="black" cx="479" cy="-90" rx="7" ry="7"/>
</g>
<!-- N2&#45;&gt;dot2b -->
<g id="edge13" class="edge"><title>N2&#45;&gt;dot2b</title>
<path fill="none" stroke="black" d="M453.028,-128.958C458.119,-121.322 464.275,-112.087 469.317,-104.525"/>
<polygon fill="black" stroke="black" points="472.307,-106.35 474.941,-96.0879 466.482,-102.467 472.307,-106.35"/>
</g>
<!-- tri1b -->
<g id="node25" class="node"><title>tri1b</title>
<polygon fill="none" stroke="black" points="407,-90 396,-63 418,-63 407,-90"/>
<text text-anchor="middle" x="407" y="-68.3" font-family="Helvetica,sans-Serif" font-weight="bold" font-size="14.00">1</text>
</g>
<!-- tri2b -->
<g id="node26" class="node"><title>tri2b</title>
<polygon fill="none" stroke="black" points="479,-90 468,-63 490,-63 479,-90"/>
<text text-anchor="middle" x="479" y="-68.3" font-family="Helvetica,sans-Serif" font-weight="bold" font-size="14.00">2</text>
</g>
<!-- tri3b -->
<g id="node27" class="node"><title>tri3b</title>
<polygon fill="none" stroke="black" points="551,-90 540,-63 562,-63 551,-90"/>
<text text-anchor="middle" x="551" y="-68.3" font-family="Helvetica,sans-Serif" font-weight="bold" font-size="14.00">3</text>
</g>
<!-- tri4b -->
<g id="node28" class="node"><title>tri4b</title>
<polygon fill="none" stroke="black" points="590.6,-41.76 579.6,-14.76 601.6,-14.76 590.6,-41.76"/>
<text text-anchor="middle" x="590.6" y="-20.06" font-family="Helvetica,sans-Serif" font-weight="bold" font-size="14.00">4</text>
</g>
<!-- tri5b -->
<g id="node29" class="node"><title>tri5b</title>
<polygon fill="none" stroke="black" points="655.4,-41.76 644.4,-14.76 666.4,-14.76 655.4,-41.76"/>
<text text-anchor="middle" x="655.4" y="-20.06" font-family="Helvetica,sans-Serif" font-weight="bold" font-size="14.00">5</text>
</g>
</g>
</svg>
