<?xml version="1.0" encoding="UTF-8" standalone="no"?>
<!DOCTYPE svg PUBLIC "-//W3C//DTD SVG 1.1//EN"
 "http://www.w3.org/Graphics/SVG/1.1/DTD/svg11.dtd">
<!-- Generated by graphviz version 2.36.0 (20140111.2315)
 -->
<!-- Title: G Pages: 1 -->
<svg width="660pt" height="206pt"
 viewBox="0.00 0.00 660.00 206.20" xmlns="http://www.w3.org/2000/svg" xmlns:xlink="http://www.w3.org/1999/xlink">
<g id="graph0" class="graph" transform="scale(1 1) rotate(0) translate(4 202.198)">
<title>G</title>
<polygon fill="white" stroke="none" points="-4,4 -4,-202.198 656,-202.198 656,4 -4,4"/>
<!-- G1 -->
<g id="node1" class="node"><title>G1</title>
<ellipse fill="black" stroke="black" cx="155" cy="-180" rx="18.399" ry="18.399"/>
<text text-anchor="middle" x="155" y="-176.3" font-family="Helvetica,sans-Serif" font-weight="bold" font-size="14.00" fill="white">G</text>
</g>
<!-- P1 -->
<g id="node2" class="node"><title>P1</title>
<ellipse fill="red" stroke="black" cx="83" cy="-144" rx="18" ry="18"/>
<text text-anchor="middle" x="83" y="-140.3" font-family="Helvetica,sans-Serif" font-weight="bold" font-size="14.00" fill="white">P</text>
</g>
<!-- G1&#45;&gt;P1 -->
<g id="edge1" class="edge"><title>G1&#45;&gt;P1</title>
<path fill="none" stroke="black" d="M138.662,-171.831C129.733,-167.366 118.475,-161.737 108.424,-156.712"/>
<polygon fill="black" stroke="black" points="109.783,-153.478 99.2732,-152.137 106.652,-159.739 109.783,-153.478"/>
</g>
<!-- U1 -->
<g id="node3" class="node"><title>U1</title>
<ellipse fill="red" stroke="black" cx="227" cy="-144" rx="18" ry="18"/>
<text text-anchor="middle" x="227" y="-140.3" font-family="Helvetica,sans-Serif" font-weight="bold" font-size="14.00" fill="white">U</text>
</g>
<!-- G1&#45;&gt;U1 -->
<g id="edge2" class="edge"><title>G1&#45;&gt;U1</title>
<path fill="none" stroke="black" d="M171.338,-171.831C180.267,-167.366 191.525,-161.737 201.576,-156.712"/>
<polygon fill="black" stroke="black" points="203.348,-159.739 210.727,-152.137 200.217,-153.478 203.348,-159.739"/>
</g>
<!-- N1 -->
<g id="node4" class="node"><title>N1</title>
<ellipse fill="red" stroke="black" cx="47" cy="-90" rx="18" ry="18"/>
<text text-anchor="middle" x="47" y="-86.3" font-family="Helvetica,sans-Serif" font-weight="bold" font-size="14.00" fill="white">N</text>
</g>
<!-- P1&#45;&gt;N1 -->
<g id="edge3" class="edge"><title>P1&#45;&gt;N1</title>
<path fill="none" stroke="black" d="M72.972,-128.958C69.8265,-124.24 66.2741,-118.911 62.8293,-113.744"/>
<polygon fill="black" stroke="black" points="65.6836,-111.716 57.2244,-105.337 59.8592,-115.599 65.6836,-111.716"/>
</g>
<!-- dot3 -->
<g id="node7" class="node"><title>dot3</title>
<ellipse fill="black" stroke="black" cx="119" cy="-90" rx="7" ry="7"/>
</g>
<!-- P1&#45;&gt;dot3 -->
<g id="edge6" class="edge"><title>P1&#45;&gt;dot3</title>
<path fill="none" stroke="black" d="M93.028,-128.958C98.1187,-121.322 104.275,-112.087 109.317,-104.525"/>
<polygon fill="black" stroke="black" points="112.307,-106.35 114.941,-96.0879 106.482,-102.467 112.307,-106.35"/>
</g>
<!-- dot4 -->
<g id="node8" class="node"><title>dot4</title>
<ellipse fill="black" stroke="black" cx="191" cy="-90" rx="7" ry="7"/>
</g>
<!-- U1&#45;&gt;dot4 -->
<g id="edge7" class="edge"><title>U1&#45;&gt;dot4</title>
<path fill="none" stroke="black" d="M216.972,-128.958C211.881,-121.322 205.724,-112.087 200.683,-104.525"/>
<polygon fill="black" stroke="black" points="203.518,-102.467 195.059,-96.0879 197.693,-106.35 203.518,-102.467"/>
</g>
<!-- dot5 -->
<g id="node9" class="node"><title>dot5</title>
<ellipse fill="black" stroke="black" cx="263" cy="-90" rx="7" ry="7"/>
</g>
<!-- U1&#45;&gt;dot5 -->
<g id="edge8" class="edge"><title>U1&#45;&gt;dot5</title>
<path fill="none" stroke="black" d="M237.028,-128.958C242.119,-121.322 248.275,-112.087 253.317,-104.525"/>
<polygon fill="black" stroke="black" points="256.307,-106.35 258.941,-96.0879 250.482,-102.467 256.307,-106.35"/>
</g>
<!-- dot1 -->
<g id="node5" class="node"><title>dot1</title>
<ellipse fill="black" stroke="black" cx="11" cy="-36" rx="7" ry="7"/>
</g>
<!-- N1&#45;&gt;dot1 -->
<g id="edge4" class="edge"><title>N1&#45;&gt;dot1</title>
<path fill="none" stroke="black" d="M36.972,-74.958C31.8813,-67.3219 25.7245,-58.0868 20.6833,-50.5249"/>
<polygon fill="black" stroke="black" points="23.5178,-48.4669 15.0586,-42.0879 17.6934,-52.3499 23.5178,-48.4669"/>
</g>
<!-- dot2 -->
<g id="node6" class="node"><title>dot2</title>
<ellipse fill="black" stroke="black" cx="83" cy="-36" rx="7" ry="7"/>
</g>
<!-- N1&#45;&gt;dot2 -->
<g id="edge5" class="edge"><title>N1&#45;&gt;dot2</title>
<path fill="none" stroke="black" d="M57.028,-74.958C62.1187,-67.3219 68.2755,-58.0868 73.3167,-50.5249"/>
<polygon fill="black" stroke="black" points="76.3065,-52.3499 78.9414,-42.0879 70.4822,-48.4669 76.3065,-52.3499"/>
</g>
<!-- tri1 -->
<g id="node10" class="node"><title>tri1</title>
<polygon fill="none" stroke="black" points="11,-36 -1.77636e-15,-9 22,-9 11,-36"/>
<text text-anchor="middle" x="11" y="-14.3" font-family="Helvetica,sans-Serif" font-weight="bold" font-size="14.00">1</text>
</g>
<!-- tri2 -->
<g id="node11" class="node"><title>tri2</title>
<polygon fill="none" stroke="black" points="83,-36 72,-9 94,-9 83,-36"/>
<text text-anchor="middle" x="83" y="-14.3" font-family="Helvetica,sans-Serif" font-weight="bold" font-size="14.00">2</text>
</g>
<!-- tri3 -->
<g id="node12" class="node"><title>tri3</title>
<polygon fill="none" stroke="black" points="119,-90 108,-63 130,-63 119,-90"/>
<text text-anchor="middle" x="119" y="-68.3" font-family="Helvetica,sans-Serif" font-weight="bold" font-size="14.00">3</text>
</g>
<!-- tri4 -->
<g id="node13" class="node"><title>tri4</title>
<polygon fill="none" stroke="black" points="191,-90 180,-63 202,-63 191,-90"/>
<text text-anchor="middle" x="191" y="-68.3" font-family="Helvetica,sans-Serif" font-weight="bold" font-size="14.00">4</text>
</g>
<!-- tri5 -->
<g id="node14" class="node"><title>tri5</title>
<polygon fill="none" stroke="black" points="263,-90 252,-63 274,-63 263,-90"/>
<text text-anchor="middle" x="263" y="-68.3" font-family="Helvetica,sans-Serif" font-weight="bold" font-size="14.00">5</text>
</g>
<!-- arrow -->
<g id="node15" class="node"><title>arrow</title>
<polygon fill="blue" stroke="black" points="353,-102 299,-102 299,-78 353,-78 353,-72 371,-90 353,-108 353,-102"/>
</g>
<!-- G2 -->
<g id="node16" class="node"><title>G2</title>
<ellipse fill="red" stroke="black" cx="533" cy="-180" rx="18.399" ry="18.399"/>
<text text-anchor="middle" x="533" y="-176.3" font-family="Helvetica,sans-Serif" font-weight="bold" font-size="14.00" fill="white">G</text>
</g>
<!-- P2 -->
<g id="node17" class="node"><title>P2</title>
<ellipse fill="black" stroke="black" cx="461" cy="-144" rx="18" ry="18"/>
<text text-anchor="middle" x="461" y="-140.3" font-family="Helvetica,sans-Serif" font-weight="bold" font-size="14.00" fill="white">P</text>
</g>
<!-- G2&#45;&gt;P2 -->
<g id="edge9" class="edge"><title>G2&#45;&gt;P2</title>
<path fill="none" stroke="black" d="M516.662,-171.831C507.733,-167.366 496.475,-161.737 486.424,-156.712"/>
<polygon fill="black" stroke="black" points="487.783,-153.478 477.273,-152.137 484.652,-159.739 487.783,-153.478"/>
</g>
<!-- U2 -->
<g id="node18" class="node"><title>U2</title>
<ellipse fill="black" stroke="black" cx="605" cy="-144" rx="18" ry="18"/>
<text text-anchor="middle" x="605" y="-140.3" font-family="Helvetica,sans-Serif" font-weight="bold" font-size="14.00" fill="white">U</text>
</g>
<!-- G2&#45;&gt;U2 -->
<g id="edge10" class="edge"><title>G2&#45;&gt;U2</title>
<path fill="none" stroke="black" d="M549.338,-171.831C558.267,-167.366 569.525,-161.737 579.576,-156.712"/>
<polygon fill="black" stroke="black" points="581.348,-159.739 588.727,-152.137 578.217,-153.478 581.348,-159.739"/>
</g>
<!-- N2 -->
<g id="node19" class="node"><title>N2</title>
<ellipse fill="red" stroke="black" cx="425" cy="-90" rx="18" ry="18"/>
<text text-anchor="middle" x="425" y="-86.3" font-family="Helvetica,sans-Serif" font-weight="bold" font-size="14.00" fill="white">N</text>
</g>
<!-- P2&#45;&gt;N2 -->
<g id="edge11" class="edge"><title>P2&#45;&gt;N2</title>
<path fill="none" stroke="black" d="M450.972,-128.958C447.827,-124.24 444.274,-118.911 440.829,-113.744"/>
<polygon fill="black" stroke="black" points="443.684,-111.716 435.224,-105.337 437.859,-115.599 443.684,-111.716"/>
</g>
<!-- dot3b -->
<g id="node22" class="node"><title>dot3b</title>
<ellipse fill="black" stroke="black" cx="497" cy="-90" rx="7" ry="7"/>
</g>
<!-- P2&#45;&gt;dot3b -->
<g id="edge14" class="edge"><title>P2&#45;&gt;dot3b</title>
<path fill="none" stroke="black" d="M471.028,-128.958C476.119,-121.322 482.275,-112.087 487.317,-104.525"/>
<polygon fill="black" stroke="black" points="490.307,-106.35 492.941,-96.0879 484.482,-102.467 490.307,-106.35"/>
</g>
<!-- dot4b -->
<g id="node23" class="node"><title>dot4b</title>
<ellipse fill="black" stroke="black" cx="569" cy="-90" rx="7" ry="7"/>
</g>
<!-- U2&#45;&gt;dot4b -->
<g id="edge15" class="edge"><title>U2&#45;&gt;dot4b</title>
<path fill="none" stroke="black" d="M594.972,-128.958C589.881,-121.322 583.724,-112.087 578.683,-104.525"/>
<polygon fill="black" stroke="black" points="581.518,-102.467 573.059,-96.0879 575.693,-106.35 581.518,-102.467"/>
</g>
<!-- dot5b -->
<g id="node24" class="node"><title>dot5b</title>
<ellipse fill="black" stroke="black" cx="641" cy="-90" rx="7" ry="7"/>
</g>
<!-- U2&#45;&gt;dot5b -->
<g id="edge16" class="edge"><title>U2&#45;&gt;dot5b</title>
<path fill="none" stroke="black" d="M615.028,-128.958C620.119,-121.322 626.275,-112.087 631.317,-104.525"/>
<polygon fill="black" stroke="black" points="634.307,-106.35 636.941,-96.0879 628.482,-102.467 634.307,-106.35"/>
</g>
<!-- dot1b -->
<g id="node20" class="node"><title>dot1b</title>
<ellipse fill="black" stroke="black" cx="389" cy="-36" rx="7" ry="7"/>
</g>
<!-- N2&#45;&gt;dot1b -->
<g id="edge12" class="edge"><title>N2&#45;&gt;dot1b</title>
<path fill="none" stroke="black" d="M414.972,-74.958C409.881,-67.3219 403.724,-58.0868 398.683,-50.5249"/>
<polygon fill="black" stroke="black" points="401.518,-48.4669 393.059,-42.0879 395.693,-52.3499 401.518,-48.4669"/>
</g>
<!-- dot2b -->
<g id="node21" class="node"><title>dot2b</title>
<ellipse fill="black" stroke="black" cx="461" cy="-36" rx="7" ry="7"/>
</g>
<!-- N2&#45;&gt;dot2b -->
<g id="edge13" class="edge"><title>N2&#45;&gt;dot2b</title>
<path fill="none" stroke="black" d="M435.028,-74.958C440.119,-67.3219 446.275,-58.0868 451.317,-50.5249"/>
<polygon fill="black" stroke="black" points="454.307,-52.3499 456.941,-42.0879 448.482,-48.4669 454.307,-52.3499"/>
</g>
<!-- tri1b -->
<g id="node25" class="node"><title>tri1b</title>
<polygon fill="none" stroke="black" points="389,-36 378,-9 400,-9 389,-36"/>
<text text-anchor="middle" x="389" y="-14.3" font-family="Helvetica,sans-Serif" font-weight="bold" font-size="14.00">1</text>
</g>
<!-- tri2b -->
<g id="node26" class="node"><title>tri2b</title>
<polygon fill="none" stroke="black" points="461,-36 450,-9 472,-9 461,-36"/>
<text text-anchor="middle" x="461" y="-14.3" font-family="Helvetica,sans-Serif" font-weight="bold" font-size="14.00">2</text>
</g>
<!-- tri3b -->
<g id="node27" class="node"><title>tri3b</title>
<polygon fill="none" stroke="black" points="497,-90 486,-63 508,-63 497,-90"/>
<text text-anchor="middle" x="497" y="-68.3" font-family="Helvetica,sans-Serif" font-weight="bold" font-size="14.00">3</text>
</g>
<!-- tri4b -->
<g id="node28" class="node"><title>tri4b</title>
<polygon fill="none" stroke="black" points="569,-90 558,-63 580,-63 569,-90"/>
<text text-anchor="middle" x="569" y="-68.3" font-family="Helvetica,sans-Serif" font-weight="bold" font-size="14.00">4</text>
</g>
<!-- tri5b -->
<g id="node29" class="node"><title>tri5b</title>
<polygon fill="none" stroke="black" points="641,-90 630,-63 652,-63 641,-90"/>
<text text-anchor="middle" x="641" y="-68.3" font-family="Helvetica,sans-Serif" font-weight="bold" font-size="14.00">5</text>
</g>
</g>
</svg>
