<?xml version="1.0" encoding="UTF-8" standalone="no"?>
<!DOCTYPE svg PUBLIC "-//W3C//DTD SVG 1.1//EN"
 "http://www.w3.org/Graphics/SVG/1.1/DTD/svg11.dtd">
<!-- Generated by graphviz version 2.36.0 (20140111.2315)
 -->
<!-- Title: G Pages: 1 -->
<svg width="620pt" height="206pt"
 viewBox="0.00 0.00 620.40 206.20" xmlns="http://www.w3.org/2000/svg" xmlns:xlink="http://www.w3.org/1999/xlink">
<g id="graph0" class="graph" transform="scale(1 1) rotate(0) translate(4 202.198)">
<title>G</title>
<polygon fill="white" stroke="none" points="-4,4 -4,-202.198 616.4,-202.198 616.4,4 -4,4"/>
<!-- G1 -->
<g id="node1" class="node"><title>G1</title>
<ellipse fill="black" stroke="black" cx="119" cy="-180" rx="18.399" ry="18.399"/>
<text text-anchor="middle" x="119" y="-176.3" font-family="Helvetica,sans-Serif" font-weight="bold" font-size="14.00" fill="white">G</text>
</g>
<!-- P1 -->
<g id="node2" class="node"><title>P1</title>
<ellipse fill="red" stroke="black" cx="47" cy="-144" rx="18" ry="18"/>
<text text-anchor="middle" x="47" y="-140.3" font-family="Helvetica,sans-Serif" font-weight="bold" font-size="14.00" fill="white">P</text>
</g>
<!-- G1&#45;&gt;P1 -->
<g id="edge1" class="edge"><title>G1&#45;&gt;P1</title>
<path fill="none" stroke="black" d="M102.662,-171.831C93.7326,-167.366 82.475,-161.737 72.4243,-156.712"/>
<polygon fill="black" stroke="black" points="73.7828,-153.478 63.2733,-152.137 70.6523,-159.739 73.7828,-153.478"/>
</g>
<!-- U1 -->
<g id="node3" class="node"><title>U1</title>
<ellipse fill="black" stroke="black" cx="191" cy="-144" rx="18" ry="18"/>
<text text-anchor="middle" x="191" y="-140.3" font-family="Helvetica,sans-Serif" font-weight="bold" font-size="14.00" fill="white">U</text>
</g>
<!-- G1&#45;&gt;U1 -->
<g id="edge2" class="edge"><title>G1&#45;&gt;U1</title>
<path fill="none" stroke="black" d="M135.338,-171.831C144.267,-167.366 155.525,-161.737 165.576,-156.712"/>
<polygon fill="black" stroke="black" points="167.348,-159.739 174.727,-152.137 164.217,-153.478 167.348,-159.739"/>
</g>
<!-- N1 -->
<g id="node4" class="node"><title>N1</title>
<ellipse fill="red" stroke="black" cx="83" cy="-90" rx="18" ry="18"/>
<text text-anchor="middle" x="83" y="-86.3" font-family="Helvetica,sans-Serif" font-weight="bold" font-size="14.00" fill="white">N</text>
</g>
<!-- P1&#45;&gt;N1 -->
<g id="edge3" class="edge"><title>P1&#45;&gt;N1</title>
<path fill="none" stroke="black" d="M57.028,-128.958C60.1734,-124.24 63.7259,-118.911 67.1707,-113.744"/>
<polygon fill="black" stroke="black" points="70.1408,-115.599 72.7756,-105.337 64.3164,-111.716 70.1408,-115.599"/>
</g>
<!-- dot1 -->
<g id="node5" class="node"><title>dot1</title>
<ellipse fill="black" stroke="black" cx="11" cy="-90" rx="7" ry="7"/>
</g>
<!-- P1&#45;&gt;dot1 -->
<g id="edge6" class="edge"><title>P1&#45;&gt;dot1</title>
<path fill="none" stroke="black" d="M36.972,-128.958C31.8813,-121.322 25.7245,-112.087 20.6833,-104.525"/>
<polygon fill="black" stroke="black" points="23.5178,-102.467 15.0586,-96.0879 17.6935,-106.35 23.5178,-102.467"/>
</g>
<!-- dot4 -->
<!-- U1&#45;&gt;dot4 -->
<g id="edge7" class="edge"><title>U1&#45;&gt;dot4</title>
<path fill="none" stroke="black" d="M180.972,-128.958C175.881,-121.322 169.725,-112.087 164.683,-104.525"/>
<polygon fill="black" stroke="black" points="167.518,-102.467 159.059,-96.0879 161.693,-106.35 167.518,-102.467"/>
</g>
<!-- dot5 -->
<!-- U1&#45;&gt;dot5 -->
<g id="edge8" class="edge"><title>U1&#45;&gt;dot5</title>
<path fill="none" stroke="black" d="M201.028,-128.958C206.119,-121.322 212.275,-112.087 217.317,-104.525"/>
<polygon fill="black" stroke="black" points="220.307,-106.35 222.941,-96.0879 214.482,-102.467 220.307,-106.35"/>
</g>
<!-- dot2 -->
<g id="node6" class="node"><title>dot2</title>
<ellipse fill="black" stroke="black" cx="47" cy="-36" rx="7" ry="7"/>
</g>
<!-- N1&#45;&gt;dot2 -->
<g id="edge4" class="edge"><title>N1&#45;&gt;dot2</title>
<path fill="none" stroke="black" d="M72.972,-74.958C67.8813,-67.3219 61.7245,-58.0868 56.6833,-50.5249"/>
<polygon fill="black" stroke="black" points="59.5178,-48.4669 51.0586,-42.0879 53.6935,-52.3499 59.5178,-48.4669"/>
</g>
<!-- dot3 -->
<g id="node7" class="node"><title>dot3</title>
<ellipse fill="black" stroke="black" cx="119" cy="-36" rx="7" ry="7"/>
</g>
<!-- N1&#45;&gt;dot3 -->
<g id="edge5" class="edge"><title>N1&#45;&gt;dot3</title>
<path fill="none" stroke="black" d="M93.028,-74.958C98.1187,-67.3219 104.275,-58.0868 109.317,-50.5249"/>
<polygon fill="black" stroke="black" points="112.307,-52.3499 114.941,-42.0879 106.482,-48.4669 112.307,-52.3499"/>
</g>
<!-- tri1 -->
<g id="node10" class="node"><title>tri1</title>
<polygon fill="none" stroke="black" points="11,-90 -1.77636e-15,-63 22,-63 11,-90"/>
<text text-anchor="middle" x="11" y="-68.3" font-family="Helvetica,sans-Serif" font-weight="bold" font-size="14.00">1</text>
</g>
<!-- tri2 -->
<g id="node11" class="node"><title>tri2</title>
<polygon fill="none" stroke="black" points="47,-36 36,-9 58,-9 47,-36"/>
<text text-anchor="middle" x="47" y="-14.3" font-family="Helvetica,sans-Serif" font-weight="bold" font-size="14.00">2</text>
</g>
<!-- tri3 -->
<g id="node12" class="node"><title>tri3</title>
<polygon fill="none" stroke="black" points="119,-36 108,-9 130,-9 119,-36"/>
<text text-anchor="middle" x="119" y="-14.3" font-family="Helvetica,sans-Serif" font-weight="bold" font-size="14.00">3</text>
</g>
<!-- tri4 -->
<g id="node13" class="node"><title>tri4</title>
<polygon fill="none" stroke="black" points="158.6,-95.76 147.6,-68.76 169.6,-68.76 158.6,-95.76"/>
<text text-anchor="middle" x="158.6" y="-74.06" font-family="Helvetica,sans-Serif" font-weight="bold" font-size="14.00">4</text>
</g>
<!-- tri5 -->
<g id="node14" class="node"><title>tri5</title>
<polygon fill="none" stroke="black" points="223.4,-95.76 212.4,-68.76 234.4,-68.76 223.4,-95.76"/>
<text text-anchor="middle" x="223.4" y="-74.06" font-family="Helvetica,sans-Serif" font-weight="bold" font-size="14.00">5</text>
</g>
<!-- arrow -->
<g id="node15" class="node"><title>arrow</title>
<polygon fill="blue" stroke="black" points="317,-102 263,-102 263,-78 317,-78 317,-72 335,-90 317,-108 317,-102"/>
</g>
<!-- G2 -->
<g id="node16" class="node"><title>G2</title>
<ellipse fill="black" stroke="black" cx="497" cy="-180" rx="18.399" ry="18.399"/>
<text text-anchor="middle" x="497" y="-176.3" font-family="Helvetica,sans-Serif" font-weight="bold" font-size="14.00" fill="white">G</text>
</g>
<!-- U2 -->
<g id="node18" class="node"><title>U2</title>
<ellipse fill="black" stroke="black" cx="569" cy="-144" rx="18" ry="18"/>
<text text-anchor="middle" x="569" y="-140.3" font-family="Helvetica,sans-Serif" font-weight="bold" font-size="14.00" fill="white">U</text>
</g>
<!-- G2&#45;&gt;U2 -->
<g id="edge10" class="edge"><title>G2&#45;&gt;U2</title>
<path fill="none" stroke="black" d="M513.338,-171.831C522.267,-167.366 533.525,-161.737 543.576,-156.712"/>
<polygon fill="black" stroke="black" points="545.348,-159.739 552.727,-152.137 542.217,-153.478 545.348,-159.739"/>
</g>
<!-- N2 -->
<g id="node19" class="node"><title>N2</title>
<ellipse fill="red" stroke="black" cx="425" cy="-144" rx="18" ry="18"/>
<text text-anchor="middle" x="425" y="-140.3" font-family="Helvetica,sans-Serif" font-weight="bold" font-size="14.00" fill="white">N</text>
</g>
<!-- G2&#45;&gt;N2 -->
<g id="edge9" class="edge"><title>G2&#45;&gt;N2</title>
<path fill="none" stroke="black" d="M480.662,-171.831C471.733,-167.366 460.475,-161.737 450.424,-156.712"/>
<polygon fill="black" stroke="black" points="451.783,-153.478 441.273,-152.137 448.652,-159.739 451.783,-153.478"/>
</g>
<!-- P2 -->
<g id="node17" class="node"><title>P2</title>
<ellipse fill="red" stroke="black" cx="389" cy="-90" rx="18" ry="18"/>
<text text-anchor="middle" x="389" y="-86.3" font-family="Helvetica,sans-Serif" font-weight="bold" font-size="14.00" fill="white">P</text>
</g>
<!-- dot1b -->
<g id="node20" class="node"><title>dot1b</title>
<ellipse fill="black" stroke="black" cx="353" cy="-36" rx="7" ry="7"/>
</g>
<!-- P2&#45;&gt;dot1b -->
<g id="edge14" class="edge"><title>P2&#45;&gt;dot1b</title>
<path fill="none" stroke="black" d="M378.972,-74.958C373.881,-67.3219 367.725,-58.0868 362.683,-50.5249"/>
<polygon fill="black" stroke="black" points="365.518,-48.4669 357.059,-42.0879 359.693,-52.3499 365.518,-48.4669"/>
</g>
<!-- dot2b -->
<g id="node21" class="node"><title>dot2b</title>
<ellipse fill="black" stroke="black" cx="425" cy="-36" rx="7" ry="7"/>
</g>
<!-- P2&#45;&gt;dot2b -->
<g id="edge13" class="edge"><title>P2&#45;&gt;dot2b</title>
<path fill="none" stroke="black" d="M399.028,-74.958C404.119,-67.3219 410.275,-58.0868 415.317,-50.5249"/>
<polygon fill="black" stroke="black" points="418.307,-52.3499 420.941,-42.0879 412.482,-48.4669 418.307,-52.3499"/>
</g>
<!-- dot4b -->
<!-- U2&#45;&gt;dot4b -->
<g id="edge15" class="edge"><title>U2&#45;&gt;dot4b</title>
<path fill="none" stroke="black" d="M558.972,-128.958C553.881,-121.322 547.725,-112.087 542.683,-104.525"/>
<polygon fill="black" stroke="black" points="545.518,-102.467 537.059,-96.0879 539.693,-106.35 545.518,-102.467"/>
</g>
<!-- dot5b -->
<!-- U2&#45;&gt;dot5b -->
<g id="edge16" class="edge"><title>U2&#45;&gt;dot5b</title>
<path fill="none" stroke="black" d="M579.028,-128.958C584.119,-121.322 590.275,-112.087 595.317,-104.525"/>
<polygon fill="black" stroke="black" points="598.307,-106.35 600.941,-96.0879 592.482,-102.467 598.307,-106.35"/>
</g>
<!-- N2&#45;&gt;P2 -->
<g id="edge11" class="edge"><title>N2&#45;&gt;P2</title>
<path fill="none" stroke="black" d="M414.972,-128.958C411.827,-124.24 408.274,-118.911 404.829,-113.744"/>
<polygon fill="black" stroke="black" points="407.684,-111.716 399.224,-105.337 401.859,-115.599 407.684,-111.716"/>
</g>
<!-- dot3b -->
<g id="node22" class="node"><title>dot3b</title>
<ellipse fill="black" stroke="black" cx="461" cy="-90" rx="7" ry="7"/>
</g>
<!-- N2&#45;&gt;dot3b -->
<g id="edge12" class="edge"><title>N2&#45;&gt;dot3b</title>
<path fill="none" stroke="black" d="M435.028,-128.958C440.119,-121.322 446.275,-112.087 451.317,-104.525"/>
<polygon fill="black" stroke="black" points="454.307,-106.35 456.941,-96.0879 448.482,-102.467 454.307,-106.35"/>
</g>
<!-- tri1b -->
<g id="node25" class="node"><title>tri1b</title>
<polygon fill="none" stroke="black" points="353,-36 342,-9 364,-9 353,-36"/>
<text text-anchor="middle" x="353" y="-14.3" font-family="Helvetica,sans-Serif" font-weight="bold" font-size="14.00">1</text>
</g>
<!-- tri2b -->
<g id="node26" class="node"><title>tri2b</title>
<polygon fill="none" stroke="black" points="425,-36 414,-9 436,-9 425,-36"/>
<text text-anchor="middle" x="425" y="-14.3" font-family="Helvetica,sans-Serif" font-weight="bold" font-size="14.00">2</text>
</g>
<!-- tri3b -->
<g id="node27" class="node"><title>tri3b</title>
<polygon fill="none" stroke="black" points="461,-90 450,-63 472,-63 461,-90"/>
<text text-anchor="middle" x="461" y="-68.3" font-family="Helvetica,sans-Serif" font-weight="bold" font-size="14.00">3</text>
</g>
<!-- tri4b -->
<g id="node28" class="node"><title>tri4b</title>
<polygon fill="none" stroke="black" points="536.6,-95.76 525.6,-68.76 547.6,-68.76 536.6,-95.76"/>
<text text-anchor="middle" x="536.6" y="-74.06" font-family="Helvetica,sans-Serif" font-weight="bold" font-size="14.00">4</text>
</g>
<!-- tri5b -->
<g id="node29" class="node"><title>tri5b</title>
<polygon fill="none" stroke="black" points="601.4,-95.76 590.4,-68.76 612.4,-68.76 601.4,-95.76"/>
<text text-anchor="middle" x="601.4" y="-74.06" font-family="Helvetica,sans-Serif" font-weight="bold" font-size="14.00">5</text>
</g>
</g>
</svg>
