<?xml version="1.0" encoding="UTF-8" standalone="no"?>
<!DOCTYPE svg PUBLIC "-//W3C//DTD SVG 1.1//EN"
 "http://www.w3.org/Graphics/SVG/1.1/DTD/svg11.dtd">
<!-- Generated by graphviz version 2.26.3 (20100126.1600)
 -->
<!-- Title: G Pages: 1 -->
<svg width="222pt" height="194pt"
 viewBox="0.00 0.00 222.00 194.00" xmlns="http://www.w3.org/2000/svg" xmlns:xlink="http://www.w3.org/1999/xlink">
<g id="graph1" class="graph" transform="scale(1 1) rotate(0) translate(4 190)">
<title>G</title>
<polygon fill="white" stroke="white" points="-4,5 -4,-190 219,-190 219,5 -4,5"/>
<!-- parent -->
<g id="node1" class="node"><title>parent</title>
<ellipse fill="none" stroke="black" cx="110" cy="-167" rx="38.8909" ry="19.0919"/>
<text text-anchor="middle" x="110" y="-163.9" font-family="Helvetica,sans-Serif" font-size="14.00">parent</text>
</g>
<!-- element -->
<g id="node3" class="node"><title>element</title>
<ellipse fill="none" stroke="black" cx="110" cy="-93" rx="45.9619" ry="19.0919"/>
<text text-anchor="middle" x="110" y="-89.9" font-family="Helvetica,sans-Serif" font-size="14.00">element</text>
</g>
<!-- parent&#45;&gt;element -->
<g id="edge2" class="edge"><title>parent&#45;&gt;element</title>
<path fill="none" stroke="black" d="M110,-147.943C110,-140.149 110,-130.954 110,-122.338"/>
<polygon fill="black" stroke="black" points="113.5,-122.249 110,-112.249 106.5,-122.249 113.5,-122.249"/>
</g>
<!-- right -->
<g id="node4" class="node"><title>right</title>
<ellipse fill="none" stroke="black" cx="52" cy="-19" rx="51.8276" ry="19.0919"/>
<text text-anchor="middle" x="52" y="-15.9" font-family="Helvetica,sans-Serif" font-size="14.00">right child</text>
</g>
<!-- element&#45;&gt;right -->
<g id="edge4" class="edge"><title>element&#45;&gt;right</title>
<path fill="none" stroke="black" d="M95.6629,-74.7079C88.7614,-65.9025 80.3563,-55.1787 72.7704,-45.5001"/>
<polygon fill="black" stroke="black" points="75.2967,-43.0497 66.3732,-37.3382 69.7873,-47.3679 75.2967,-43.0497"/>
</g>
<!-- left -->
<g id="node6" class="node"><title>left</title>
<ellipse fill="none" stroke="black" cx="168" cy="-19" rx="46.1672" ry="19.0919"/>
<text text-anchor="middle" x="168" y="-15.9" font-family="Helvetica,sans-Serif" font-size="14.00">left child</text>
</g>
<!-- element&#45;&gt;left -->
<g id="edge6" class="edge"><title>element&#45;&gt;left</title>
<path fill="none" stroke="black" d="M124.337,-74.7079C131.361,-65.7466 139.942,-54.7986 147.632,-44.9873"/>
<polygon fill="black" stroke="black" points="150.414,-47.1114 153.828,-37.0817 144.904,-42.7932 150.414,-47.1114"/>
</g>
<!-- right&#45;&gt;left -->
</g>
</svg>
