<?xml version="1.0" encoding="UTF-8" standalone="no"?>
<!DOCTYPE svg PUBLIC "-//W3C//DTD SVG 1.1//EN"
 "http://www.w3.org/Graphics/SVG/1.1/DTD/svg11.dtd">
<!-- Generated by graphviz version 2.26.3 (20100126.1600)
 -->
<!-- Title: G Pages: 1 -->
<svg width="222pt" height="194pt"
 viewBox="0.00 0.00 222.00 194.00" xmlns="http://www.w3.org/2000/svg" xmlns:xlink="http://www.w3.org/1999/xlink">
<g id="graph1" class="graph" transform="scale(1 1) rotate(0) translate(4 190)">
<title>G</title>
<polygon fill="white" stroke="white" points="-4,5 -4,-190 219,-190 219,5 -4,5"/>
<!-- parent -->
<g id="node1" class="node"><title>parent</title>
<ellipse fill="none" stroke="black" cx="104" cy="-167" rx="38.8909" ry="19.0919"/>
<text text-anchor="middle" x="104" y="-163.9" font-family="Helvetica,sans-Serif" font-size="14.00">parent</text>
</g>
<!-- element -->
<g id="node3" class="node"><title>element</title>
<ellipse fill="none" stroke="black" cx="104" cy="-93" rx="45.9619" ry="19.0919"/>
<text text-anchor="middle" x="104" y="-89.9" font-family="Helvetica,sans-Serif" font-size="14.00">element</text>
</g>
<!-- parent&#45;&gt;element -->
<g id="edge2" class="edge"><title>parent&#45;&gt;element</title>
<path fill="none" stroke="black" d="M104,-147.943C104,-140.149 104,-130.954 104,-122.338"/>
<polygon fill="black" stroke="black" points="107.5,-122.249 104,-112.249 100.5,-122.249 107.5,-122.249"/>
</g>
<!-- left -->
<g id="node4" class="node"><title>left</title>
<ellipse fill="none" stroke="black" cx="46" cy="-19" rx="46.1672" ry="19.0919"/>
<text text-anchor="middle" x="46" y="-15.9" font-family="Helvetica,sans-Serif" font-size="14.00">left child</text>
</g>
<!-- element&#45;&gt;left -->
<g id="edge4" class="edge"><title>element&#45;&gt;left</title>
<path fill="none" stroke="black" d="M89.6629,-74.7079C82.6393,-65.7466 74.0584,-54.7986 66.3684,-44.9873"/>
<polygon fill="black" stroke="black" points="69.0957,-42.7932 60.1722,-37.0817 63.5863,-47.1114 69.0957,-42.7932"/>
</g>
<!-- right -->
<g id="node6" class="node"><title>right</title>
<ellipse fill="none" stroke="black" cx="162" cy="-19" rx="51.8276" ry="19.0919"/>
<text text-anchor="middle" x="162" y="-15.9" font-family="Helvetica,sans-Serif" font-size="14.00">right child</text>
</g>
<!-- element&#45;&gt;right -->
<g id="edge6" class="edge"><title>element&#45;&gt;right</title>
<path fill="none" stroke="black" d="M118.337,-74.7079C125.239,-65.9025 133.644,-55.1787 141.23,-45.5001"/>
<polygon fill="black" stroke="black" points="144.213,-47.3679 147.627,-37.3382 138.703,-43.0497 144.213,-47.3679"/>
</g>
<!-- left&#45;&gt;right -->
</g>
</svg>
