<?xml version="1.0" encoding="UTF-8" standalone="no"?>
<!DOCTYPE svg PUBLIC "-//W3C//DTD SVG 1.1//EN"
 "http://www.w3.org/Graphics/SVG/1.1/DTD/svg11.dtd">
<!-- Generated by graphviz version 2.36.0 (20140111.2315)
 -->
<!-- Title: G Pages: 1 -->
<svg width="207pt" height="188pt"
 viewBox="0.00 0.00 207.00 188.00" xmlns="http://www.w3.org/2000/svg" xmlns:xlink="http://www.w3.org/1999/xlink">
<g id="graph0" class="graph" transform="scale(1 1) rotate(0) translate(4 184)">
<title>G</title>
<polygon fill="white" stroke="none" points="-4,4 -4,-184 203,-184 203,4 -4,4"/>
<!-- parent -->
<g id="node1" class="node"><title>parent</title>
<ellipse fill="none" stroke="black" cx="96" cy="-162" rx="35.6194" ry="18"/>
<text text-anchor="middle" x="96" y="-158.3" font-family="Helvetica,sans-Serif" font-size="14.00">parent</text>
</g>
<!-- element -->
<g id="node2" class="node"><title>element</title>
<ellipse fill="none" stroke="black" cx="96" cy="-90" rx="42.3701" ry="18"/>
<text text-anchor="middle" x="96" y="-86.3" font-family="Helvetica,sans-Serif" font-size="14.00">element</text>
</g>
<!-- parent&#45;&gt;element -->
<g id="edge1" class="edge"><title>parent&#45;&gt;element</title>
<path fill="none" stroke="black" d="M96,-143.697C96,-135.983 96,-126.712 96,-118.112"/>
<polygon fill="black" stroke="black" points="99.5001,-118.104 96,-108.104 92.5001,-118.104 99.5001,-118.104"/>
</g>
<!-- left -->
<g id="node3" class="node"><title>left</title>
<ellipse fill="none" stroke="black" cx="42" cy="-18" rx="42.3456" ry="18"/>
<text text-anchor="middle" x="42" y="-14.3" font-family="Helvetica,sans-Serif" font-size="14.00">left child</text>
</g>
<!-- element&#45;&gt;left -->
<g id="edge2" class="edge"><title>element&#45;&gt;left</title>
<path fill="none" stroke="black" d="M83.4756,-72.7646C76.8246,-64.143 68.5099,-53.3647 61.0749,-43.7267"/>
<polygon fill="black" stroke="black" points="63.7108,-41.4134 54.8315,-35.6334 58.1683,-45.6891 63.7108,-41.4134"/>
</g>
<!-- right -->
<g id="node4" class="node"><title>right</title>
<ellipse fill="none" stroke="black" cx="151" cy="-18" rx="48.1437" ry="18"/>
<text text-anchor="middle" x="151" y="-14.3" font-family="Helvetica,sans-Serif" font-size="14.00">right child</text>
</g>
<!-- element&#45;&gt;right -->
<g id="edge3" class="edge"><title>element&#45;&gt;right</title>
<path fill="none" stroke="black" d="M108.756,-72.7646C115.53,-64.143 123.999,-53.3647 131.572,-43.7267"/>
<polygon fill="black" stroke="black" points="134.505,-45.659 137.931,-35.6334 129.001,-41.3342 134.505,-45.659"/>
</g>
<!-- left&#45;&gt;right -->
</g>
</svg>
