<?xml version="1.0" encoding="UTF-8" standalone="no"?>
<!DOCTYPE svg PUBLIC "-//W3C//DTD SVG 1.1//EN"
 "http://www.w3.org/Graphics/SVG/1.1/DTD/svg11.dtd">
<!-- Generated by graphviz version 2.38.0 (20140413.2041)
 -->
<!-- Title: f Pages: 1 -->
<svg width="112pt" height="216pt"
 viewBox="0.00 0.00 112.00 216.00" xmlns="http://www.w3.org/2000/svg" xmlns:xlink="http://www.w3.org/1999/xlink">
<g id="graph0" class="graph" transform="scale(1 1) rotate(0) translate(4 212)">
<title>f</title>
<polygon fill="white" stroke="none" points="-4,4 -4,-212 108,-212 108,4 -4,4"/>
<!-- stack -->
<g id="node1" class="node"><title>stack</title>
<polygon fill="none" stroke="white" points="0,-0.5 0,-207.5 104,-207.5 104,-0.5 0,-0.5"/>
<text text-anchor="middle" x="52" y="-192.3" font-family="Helvetica,sans-Serif" font-size="14.00"> </text>
<polyline fill="none" stroke="white" points="0,-184.5 104,-184.5 "/>
<text text-anchor="middle" x="52" y="-169.3" font-family="Helvetica,sans-Serif" font-size="14.00"> </text>
<polyline fill="none" stroke="white" points="0,-161.5 104,-161.5 "/>
<text text-anchor="middle" x="52" y="-146.3" font-family="Helvetica,sans-Serif" font-size="14.00"> </text>
<polyline fill="none" stroke="white" points="0,-138.5 104,-138.5 "/>
<text text-anchor="middle" x="52" y="-123.3" font-family="Helvetica,sans-Serif" font-size="14.00"> </text>
<polyline fill="none" stroke="white" points="0,-115.5 104,-115.5 "/>
<text text-anchor="middle" x="52" y="-100.3" font-family="Helvetica,sans-Serif" font-size="14.00"> </text>
<polyline fill="none" stroke="white" points="0,-92.5 104,-92.5 "/>
<text text-anchor="middle" x="52" y="-77.3" font-family="Helvetica,sans-Serif" font-size="14.00">â† rsp</text>
<polyline fill="none" stroke="white" points="0,-69.5 104,-69.5 "/>
<text text-anchor="middle" x="52" y="-54.3" font-family="Helvetica,sans-Serif" font-size="14.00"> </text>
<polyline fill="none" stroke="white" points="0,-46.5 104,-46.5 "/>
<text text-anchor="middle" x="52" y="-31.3" font-family="Helvetica,sans-Serif" font-size="14.00"> </text>
<polyline fill="none" stroke="white" points="0,-23.5 104,-23.5 "/>
<text text-anchor="middle" x="52" y="-8.3" font-family="Helvetica,sans-Serif" font-size="14.00"> </text>
</g>
</g>
</svg>
