<?xml version="1.0" encoding="UTF-8" standalone="no"?>
<!DOCTYPE svg PUBLIC "-//W3C//DTD SVG 1.1//EN"
 "http://www.w3.org/Graphics/SVG/1.1/DTD/svg11.dtd">
<!-- Generated by graphviz version 2.38.0 (20140413.2041)
 -->
<!-- Title: F Pages: 1 -->
<svg width="152pt" height="193pt"
 viewBox="0.00 0.00 152.00 193.00" xmlns="http://www.w3.org/2000/svg" xmlns:xlink="http://www.w3.org/1999/xlink">
<g id="graph0" class="graph" transform="scale(1 1) rotate(0) translate(4 189)">
<title>F</title>
<polygon fill="white" stroke="none" points="-4,4 -4,-189 148,-189 148,4 -4,4"/>
<!-- stack -->
<g id="node1" class="node"><title>stack</title>
<polygon fill="none" stroke="black" points="0,-0.5 0,-184.5 144,-184.5 144,-0.5 0,-0.5"/>
<text text-anchor="middle" x="72" y="-169.3" font-family="Helvetica,sans-Serif" font-size="14.00">rax: 126</text>
<polyline fill="none" stroke="black" points="0,-161.5 144,-161.5 "/>
<text text-anchor="middle" x="72" y="-146.3" font-family="Helvetica,sans-Serif" font-size="14.00">rbx: 3</text>
<polyline fill="none" stroke="black" points="0,-138.5 144,-138.5 "/>
<text text-anchor="middle" x="72" y="-123.3" font-family="Helvetica,sans-Serif" font-size="14.00">rcx: ?</text>
<polyline fill="none" stroke="black" points="0,-115.5 144,-115.5 "/>
<text text-anchor="middle" x="72" y="-100.3" font-family="Helvetica,sans-Serif" font-size="14.00">rdx: 3 (param 3)</text>
<polyline fill="none" stroke="black" points="0,-92.5 144,-92.5 "/>
<text text-anchor="middle" x="72" y="-77.3" font-family="Helvetica,sans-Serif" font-size="14.00">rdi: 1 (param 1)</text>
<polyline fill="none" stroke="black" points="0,-69.5 144,-69.5 "/>
<text text-anchor="middle" x="72" y="-54.3" font-family="Helvetica,sans-Serif" font-size="14.00">rsi: 123 (param 2)</text>
<polyline fill="none" stroke="black" points="0,-46.5 144,-46.5 "/>
<text text-anchor="middle" x="72" y="-31.3" font-family="Helvetica,sans-Serif" font-size="14.00">rbp: (saved)</text>
<polyline fill="none" stroke="black" points="0,-23.5 144,-23.5 "/>
<text text-anchor="middle" x="72" y="-8.3" font-family="Helvetica,sans-Serif" font-size="14.00">...</text>
</g>
</g>
</svg>
