<?xml version="1.0" encoding="UTF-8" standalone="no"?>
<!DOCTYPE svg PUBLIC "-//W3C//DTD SVG 1.1//EN"
 "http://www.w3.org/Graphics/SVG/1.1/DTD/svg11.dtd">
<!-- Generated by graphviz version 2.38.0 (20140413.2041)
 -->
<!-- Title: D Pages: 1 -->
<svg width="163pt" height="216pt"
 viewBox="0.00 0.00 163.00 216.00" xmlns="http://www.w3.org/2000/svg" xmlns:xlink="http://www.w3.org/1999/xlink">
<g id="graph0" class="graph" transform="scale(1 1) rotate(0) translate(4 212)">
<title>D</title>
<polygon fill="white" stroke="none" points="-4,4 -4,-212 159,-212 159,4 -4,4"/>
<!-- stack -->
<g id="node1" class="node"><title>stack</title>
<polygon fill="none" stroke="black" points="0,-0.5 0,-207.5 155,-207.5 155,-0.5 0,-0.5"/>
<text text-anchor="middle" x="77.5" y="-192.3" font-family="Helvetica,sans-Serif" font-size="14.00">value of rdi</text>
<polyline fill="none" stroke="black" points="0,-184.5 155,-184.5 "/>
<text text-anchor="middle" x="77.5" y="-169.3" font-family="Helvetica,sans-Serif" font-size="14.00">return address</text>
<polyline fill="none" stroke="black" points="0,-161.5 155,-161.5 "/>
<text text-anchor="middle" x="77.5" y="-146.3" font-family="Helvetica,sans-Serif" font-size="14.00">local variable</text>
<polyline fill="none" stroke="black" points="0,-138.5 155,-138.5 "/>
<text text-anchor="middle" x="77.5" y="-123.3" font-family="Helvetica,sans-Serif" font-size="14.00"> </text>
<polyline fill="none" stroke="black" points="0,-115.5 155,-115.5 "/>
<text text-anchor="middle" x="77.5" y="-100.3" font-family="Helvetica,sans-Serif" font-size="14.00"> </text>
<polyline fill="none" stroke="black" points="0,-92.5 155,-92.5 "/>
<text text-anchor="middle" x="77.5" y="-77.3" font-family="Helvetica,sans-Serif" font-size="14.00"> </text>
<polyline fill="none" stroke="black" points="0,-69.5 155,-69.5 "/>
<text text-anchor="middle" x="77.5" y="-54.3" font-family="Helvetica,sans-Serif" font-size="14.00"> </text>
<polyline fill="none" stroke="black" points="0,-46.5 155,-46.5 "/>
<text text-anchor="middle" x="77.5" y="-31.3" font-family="Helvetica,sans-Serif" font-size="14.00"> </text>
<polyline fill="none" stroke="black" points="0,-23.5 155,-23.5 "/>
<text text-anchor="middle" x="77.5" y="-8.3" font-family="Helvetica,sans-Serif" font-size="14.00"> </text>
</g>
</g>
</svg>
