<?xml version="1.0" encoding="UTF-8" standalone="no"?>
<!-- Created with Inkscape (http://www.inkscape.org/) -->

<svg
   xmlns:dc="http://purl.org/dc/elements/1.1/"
   xmlns:cc="http://creativecommons.org/ns#"
   xmlns:rdf="http://www.w3.org/1999/02/22-rdf-syntax-ns#"
   xmlns:svg="http://www.w3.org/2000/svg"
   xmlns="http://www.w3.org/2000/svg"
   xmlns:sodipodi="http://sodipodi.sourceforge.net/DTD/sodipodi-0.dtd"
   xmlns:inkscape="http://www.inkscape.org/namespaces/inkscape"
   id="svg2"
   version="1.1"
   inkscape:version="0.48.3.1 r9886"
   width="680"
   height="216.84125"
   xml:space="preserve"
   sodipodi:docname="heap-diagram.svg"><metadata
     id="metadata8"><rdf:RDF><cc:Work
         rdf:about=""><dc:format>image/svg+xml</dc:format><dc:type
           rdf:resource="http://purl.org/dc/dcmitype/StillImage" /><dc:title /></cc:Work></rdf:RDF></metadata><defs
     id="defs6"><clipPath
       clipPathUnits="userSpaceOnUse"
       id="clipPath16"><path
         d="m 0,1.2207e-4 720,0 0,539.99999793 -720,0 L 0,1.2207e-4 z"
         clip-rule="evenodd"
         id="path18"
         inkscape:connector-curvature="0" /></clipPath></defs><sodipodi:namedview
     pagecolor="#ffffff"
     bordercolor="#666666"
     borderopacity="1"
     objecttolerance="10"
     gridtolerance="10"
     guidetolerance="10"
     inkscape:pageopacity="0"
     inkscape:pageshadow="2"
     inkscape:window-width="1280"
     inkscape:window-height="1004"
     id="namedview4"
     showgrid="false"
     fit-margin-top="10"
     fit-margin-left="10"
     fit-margin-right="10"
     fit-margin-bottom="10"
     inkscape:zoom="1.5"
     inkscape:cx="227"
     inkscape:cy="260.64251"
     inkscape:window-x="2557"
     inkscape:window-y="-3"
     inkscape:window-maximized="1"
     inkscape:current-layer="g10" /><g
     id="g10"
     inkscape:groupmode="layer"
     inkscape:label="11-heaps"
     transform="matrix(1.25,0,0,-1.25,-120,296.25)"><rect
   style="fill:#ffffff;fill-opacity:1;stroke:none"
   id="rect2999"
   width="544"
   height="173.472"
   x="96"
   y="-236.99901"
   transform="scale(1,-1)" /><path
   d="m 104,131.88 129.13,0 0,-2.75 -129.13,0 0,2.75 z m 127.75,2.75 8.25,-4.13 -8.25,-4.12 0,8.25 z"
   style="fill:#333399;fill-opacity:1;fill-rule:nonzero;stroke:none"
   id="path122"
   inkscape:connector-curvature="0" /><text
   transform="matrix(1,0,0,-1,123.96,138.98)"
   id="text124"><tspan
     style="font-size:20.04000092px;font-variant:normal;font-weight:bold;writing-mode:lr-tb;fill:#333399;fill-opacity:1;fill-rule:nonzero;stroke:none;font-family:Times New Roman;-inkscape-font-specification:'Times New Roman, Bold'"
     x="0 5.5711198 16.71336 24.508921 33.406681 42.24432"
     y="0"
     sodipodi:role="line"
     id="tspan126">insert</tspan></text>


<path
   d="m 456,131.88 169.12,0 0,-2.75 -169.12,0 0,2.75 z m 167.75,2.75 8.25,-4.13 -8.25,-4.12 0,8.25 z"
   style="fill:#333399;fill-opacity:1;fill-rule:nonzero;stroke:none"
   id="path128"
   inkscape:connector-curvature="0" /><text
   transform="matrix(1,0,0,-1,519.29,138.98)"
   id="text130"><tspan
     style="font-size:20.04000092px;font-variant:normal;font-weight:bold;writing-mode:lr-tb;fill:#333399;fill-opacity:1;fill-rule:nonzero;stroke:none;font-family:Times New Roman;-inkscape-font-specification:'Times New Roman, Bold'"
     x="0 11.14224 20.040001 25.61112 34.448761 41.122082 50.01984 68.997719 74.56884"
     y="0"
     sodipodi:role="line"
     id="tspan132">deleteMin</tspan></text>


<path
   d="m 306.41,211.44 c -4.33,0.63 -8.33,1.48 -12.5,2.32 -1,0 -15.5,-0.21 -19.84,-1.58 -13.33,-4.22 -19,-15.19 -22.5,-23.63 0.83,-7.49 0.66,-17.09 7.5,-23.73 4.5,-8.97 2.83,-16.35 -7.5,-22.89 -3.67,-7.28 2.5,3.8 -5,-4.75 -1.5,-1.68 -2.84,-5.69 -3.67,-7.8 0.83,-4.85 0.83,-7.91 5,-11.92 7.84,-14.98 -0.5,2.64 3.67,-33.858 0.83,-6.645 21.67,-10.125 30,-11.075 16.17,0.528 17.51,0.211 28.67,2.321 17.51,9.071 7.01,4.535 18.67,11.919 3.84,7.489 15.01,11.18 26.18,12.552 6.33,-0.528 11.33,-1.372 17.5,-2.321 4.33,-1.899 6.5,-4.114 10,-6.329 5.67,-3.586 3.83,-0.843 8.67,-4.746 1.83,-1.477 2.67,-3.586 5,-4.747 6.67,-3.164 12.67,-6.328 20,-8.649 9.5,0.528 13,-0.527 19.84,2.321 3.5,1.477 10,4.746 10,4.746 4,3.798 6,7.7 8.67,11.919 -0.83,5.801 -0.17,9.497 -4.84,14.137 -2.83,6.54 -10.16,12.02 -15,18.14 -3.16,9.39 -6,20.15 2.5,28.48 2,4.11 6.17,6.64 12.5,7.8 5.01,2.11 11.51,3.91 17.34,4.75 10.84,4.43 19.17,10.13 22.51,18.14 -2.67,12.55 -10.84,20.99 -31.18,23.73 -4.16,-0.31 -8.5,0 -12.5,-0.84 -5.33,-1.16 -14,-7.28 -17.5,-9.49 -3.67,-2.32 -5.67,-6.75 -8.67,-9.39 -4.5,-4.11 -10.34,-5.49 -17.5,-6.33 -18.67,2.22 -24.01,11.29 -27.34,22.05 -0.5,1.58 -1.83,10.12 -5,12.65 -3.34,2.85 -7.84,5.17 -11.34,7.91 -1.16,0.85 -2.16,1.69 -3.66,2.32 -2.84,1.27 -7.84,1.69 -11.17,2.43 -13.34,-1.27 -15.01,-1.58 -25.01,-7.91 -2.16,-1.37 -5,-4.75 -5,-4.75 -1.33,-2.63 -2.83,-3.9 -7.5,-3.9 z"
   style="fill:none;stroke:#008000;stroke-width:2;stroke-linecap:butt;stroke-linejoin:round;stroke-miterlimit:10;stroke-opacity:1;stroke-dasharray:none"
   id="path134"
   inkscape:connector-curvature="0" /><text
   transform="matrix(1,0,0,-1,297.12,189.14)"
   id="text136"><tspan
     style="font-size:24.02400017px;font-variant:normal;font-weight:normal;writing-mode:lr-tb;fill:#ff0000;fill-opacity:1;fill-rule:nonzero;stroke:none;font-family:Times New Roman;-inkscape-font-specification:Times New"
     x="0 12 29.982"
     y="0"
     sodipodi:role="line"
     id="tspan138">6 2</tspan></text>


<text
   transform="matrix(1,0,0,-1,303.12,160.34)"
   id="text140"><tspan
     style="font-size:24px;font-variant:normal;font-weight:normal;writing-mode:lr-tb;fill:#ff0000;fill-opacity:1;fill-rule:nonzero;stroke:none;font-family:Times New Roman;-inkscape-font-specification:Times New"
     x="0 12 24 36 48"
     y="0"
     sodipodi:role="line"
     id="tspan142">15 23</tspan></text>


<text
   transform="matrix(1,0,0,-1,291.24,131.54)"
   id="text144"><tspan
     style="font-size:24px;font-variant:normal;font-weight:normal;writing-mode:lr-tb;fill:#ff0000;fill-opacity:1;fill-rule:nonzero;stroke:none;font-family:Times New Roman;-inkscape-font-specification:Times New"
     x="0 12 24 41.880001 53.880001"
     y="0"
     sodipodi:role="line"
     id="tspan146">12 18</tspan></text>


<text
   transform="matrix(1,0,0,-1,291.24,102.74)"
   id="text148"><tspan
     style="font-size:24px;font-variant:normal;font-weight:normal;writing-mode:lr-tb;fill:#ff0000;fill-opacity:1;fill-rule:nonzero;stroke:none;font-family:Times New Roman;-inkscape-font-specification:Times New"
     x="0 12 24 41.880001 53.880001 77.879997"
     y="0"
     sodipodi:role="line"
     id="tspan150">45 3 7</tspan></text>


</g></svg>