<?xml version="1.0" encoding="UTF-8" standalone="no"?>
<!-- Created with Inkscape (http://www.inkscape.org/) -->

<svg
   xmlns:dc="http://purl.org/dc/elements/1.1/"
   xmlns:cc="http://creativecommons.org/ns#"
   xmlns:rdf="http://www.w3.org/1999/02/22-rdf-syntax-ns#"
   xmlns:svg="http://www.w3.org/2000/svg"
   xmlns="http://www.w3.org/2000/svg"
   xmlns:sodipodi="http://sodipodi.sourceforge.net/DTD/sodipodi-0.dtd"
   xmlns:inkscape="http://www.inkscape.org/namespaces/inkscape"
   width="390"
   height="110"
   id="svg2"
   version="1.1"
   inkscape:version="0.48.3.1 r9886"
   sodipodi:docname="ibcm-automata.svg">
  <defs
     id="defs4" />
  <sodipodi:namedview
     id="base"
     pagecolor="#ffffff"
     bordercolor="#666666"
     borderopacity="1.0"
     inkscape:pageopacity="0.0"
     inkscape:pageshadow="2"
     inkscape:zoom="0.71"
     inkscape:cx="375"
     inkscape:cy="124.60196"
     inkscape:document-units="px"
     inkscape:current-layer="layer1"
     showgrid="false"
     inkscape:window-width="1280"
     inkscape:window-height="1004"
     inkscape:window-x="2557"
     inkscape:window-y="-3"
     inkscape:window-maximized="1" />
  <metadata
     id="metadata7">
    <rdf:RDF>
      <cc:Work
         rdf:about="">
        <dc:format>image/svg+xml</dc:format>
        <dc:type
           rdf:resource="http://purl.org/dc/dcmitype/StillImage" />
        <dc:title />
      </cc:Work>
    </rdf:RDF>
  </metadata>
  <g
     inkscape:label="Layer 1"
     inkscape:groupmode="layer"
     id="layer1"
     transform="translate(0,-942.36218)">
    <path
       inkscape:connector-curvature="0"
       id="path14"
       style="fill:#ffffff;fill-opacity:1;fill-rule:nonzero;stroke:none"
       d="m 65.903849,996.36817 c 0,-8.1875 -6.6375,-14.82375 -14.82375,-14.82375 -8.1875,0 -14.823751,6.63625 -14.823751,14.82375 0,8.18753 6.636251,14.82373 14.823751,14.82373 8.18625,0 14.82375,-6.6362 14.82375,-14.82373" />
    <path
       inkscape:connector-curvature="0"
       id="path16"
       style="fill:none;stroke:#000000;stroke-width:2.2415874;stroke-linecap:butt;stroke-linejoin:miter;stroke-miterlimit:10;stroke-opacity:1;stroke-dasharray:none"
       d="m 65.903849,996.36817 c 0,-8.1875 -6.6375,-14.82375 -14.82375,-14.82375 -8.1875,0 -14.823751,6.63625 -14.823751,14.82375 0,8.18753 6.636251,14.82373 14.823751,14.82373 8.18625,0 14.82375,-6.6362 14.82375,-14.82373 z" />
    <g
       transform="matrix(1.25,0,0,-1.25,-223.7199,1883.6182)"
       id="g18">
      <text
         id="text20"
         transform="matrix(1,0,0,-1,215.964,704.904)">
        <tspan
           id="tspan22"
           y="0"
           x="0"
           style="font-size:15.24279976px;font-variant:normal;font-weight:normal;writing-mode:lr-tb;fill:#000000;fill-opacity:1;fill-rule:nonzero;stroke:none;font-family:CMR9;-inkscape-font-specification:CMR9">0</tspan>
      </text>
    </g>
    <path
       inkscape:connector-curvature="0"
       id="path24"
       style="fill:#ffffff;fill-opacity:1;fill-rule:nonzero;stroke:none"
       d="m 172.10385,996.36817 c 0,-8.1875 -6.63625,-14.82375 -14.82375,-14.82375 -8.1875,0 -14.82375,6.63625 -14.82375,14.82375 0,8.18753 6.63625,14.82373 14.82375,14.82373 8.1875,0 14.82375,-6.6362 14.82375,-14.82373" />
    <path
       inkscape:connector-curvature="0"
       id="path26"
       style="fill:none;stroke:#000000;stroke-width:2.2415874;stroke-linecap:butt;stroke-linejoin:miter;stroke-miterlimit:10;stroke-opacity:1;stroke-dasharray:none"
       d="m 172.10385,996.36817 c 0,-8.1875 -6.63625,-14.82375 -14.82375,-14.82375 -8.1875,0 -14.82375,6.63625 -14.82375,14.82375 0,8.18753 6.63625,14.82373 14.82375,14.82373 8.1875,0 14.82375,-6.6362 14.82375,-14.82373 z" />
    <g
       transform="matrix(1.25,0,0,-1.25,-223.7199,1883.6182)"
       id="g28">
      <text
         id="text30"
         transform="matrix(1,0,0,-1,300.924,704.904)">
        <tspan
           id="tspan32"
           y="0"
           x="0"
           style="font-size:15.24279976px;font-variant:normal;font-weight:normal;writing-mode:lr-tb;fill:#000000;fill-opacity:1;fill-rule:nonzero;stroke:none;font-family:CMR9;-inkscape-font-specification:CMR9">1</tspan>
      </text>
    </g>
    <path
       inkscape:connector-curvature="0"
       id="path34"
       style="fill:#ffffff;fill-opacity:1;fill-rule:nonzero;stroke:none"
       d="m 278.45385,996.36817 c 0,-8.1875 -6.63625,-14.82375 -14.82375,-14.82375 -8.1875,0 -14.82375,6.63625 -14.82375,14.82375 0,8.18753 6.63625,14.82373 14.82375,14.82373 8.1875,0 14.82375,-6.6362 14.82375,-14.82373" />
    <path
       inkscape:connector-curvature="0"
       id="path36"
       style="fill:none;stroke:#000000;stroke-width:2.2415874;stroke-linecap:butt;stroke-linejoin:miter;stroke-miterlimit:10;stroke-opacity:1;stroke-dasharray:none"
       d="m 278.45385,996.36817 c 0,-8.1875 -6.63625,-14.82375 -14.82375,-14.82375 -8.1875,0 -14.82375,6.63625 -14.82375,14.82375 0,8.18753 6.63625,14.82373 14.82375,14.82373 8.1875,0 14.82375,-6.6362 14.82375,-14.82373 z" />
    <g
       transform="matrix(1.25,0,0,-1.25,-223.7199,1883.6182)"
       id="g38">
      <text
         id="text40"
         transform="matrix(1,0,0,-1,386.004,704.904)">
        <tspan
           id="tspan42"
           y="0"
           x="0"
           style="font-size:15.24279976px;font-variant:normal;font-weight:normal;writing-mode:lr-tb;fill:#000000;fill-opacity:1;fill-rule:nonzero;stroke:none;font-family:CMR9;-inkscape-font-specification:CMR9">2</tspan>
      </text>
    </g>
    <path
       inkscape:connector-curvature="0"
       id="path44"
       style="fill:#ffffff;fill-opacity:1;fill-rule:nonzero;stroke:none"
       d="m 385.9251,996.36817 c 0,-8.80625 -7.13875,-15.945 -15.945,-15.945 -8.805,0 -15.945,7.13875 -15.945,15.945 0,8.80623 7.14,15.94503 15.945,15.94503 8.80625,0 15.945,-7.1388 15.945,-15.94503" />
    <path
       inkscape:connector-curvature="0"
       id="path46"
       style="fill:none;stroke:#000000;stroke-width:3.5865376;stroke-linecap:butt;stroke-linejoin:miter;stroke-miterlimit:10;stroke-opacity:1;stroke-dasharray:none"
       d="m 385.9251,996.36817 c 0,-8.80625 -7.13875,-15.945 -15.945,-15.945 -8.805,0 -15.945,7.13875 -15.945,15.945 0,8.80623 7.14,15.94503 15.945,15.94503 8.80625,0 15.945,-7.1388 15.945,-15.94503 z" />
    <path
       inkscape:connector-curvature="0"
       id="path48"
       style="fill:none;stroke:#ffffff;stroke-width:0.89662498;stroke-linecap:butt;stroke-linejoin:miter;stroke-miterlimit:10;stroke-opacity:1;stroke-dasharray:none"
       d="m 385.9251,996.36817 c 0,-8.80625 -7.13875,-15.945 -15.945,-15.945 -8.805,0 -15.945,7.13875 -15.945,15.945 0,8.80623 7.14,15.94503 15.945,15.94503 8.80625,0 15.945,-7.1388 15.945,-15.94503 z" />
    <g
       transform="matrix(1.25,0,0,-1.25,-223.7199,1883.6182)"
       id="g50">
      <text
         id="text52"
         transform="matrix(1,0,0,-1,471.622,704.904)">
        <tspan
           id="tspan54"
           y="0"
           x="0"
           style="font-size:15.24279976px;font-variant:normal;font-weight:normal;writing-mode:lr-tb;fill:#000000;fill-opacity:1;fill-rule:nonzero;stroke:none;font-family:CMR9;-inkscape-font-specification:CMR9">3</tspan>
      </text>
    </g>
    <path
       inkscape:connector-curvature="0"
       id="path56"
       style="fill:#000000;fill-opacity:1;fill-rule:nonzero;stroke:none"
       d="m 26.417598,999.48192 8.7175,-3.11375 -8.7175,-3.11375 0.8725,3.11375" />
    <path
       inkscape:connector-curvature="0"
       id="path58"
       style="fill:none;stroke:#000000;stroke-width:1.24532998;stroke-linecap:butt;stroke-linejoin:miter;stroke-miterlimit:10;stroke-opacity:1;stroke-dasharray:none"
       d="m 3.246348,996.36817 24.04375,0" />
    <path
       inkscape:connector-curvature="0"
       id="path60"
       style="fill:#000000;fill-opacity:1;fill-rule:nonzero;stroke:none"
       d="m 132.9751,991.78942 9.22625,-0.75125 -7.615,-5.26375 0.0362,3.23375" />
    <path
       inkscape:connector-curvature="0"
       id="path62"
       style="fill:none;stroke:#000000;stroke-width:1.24532998;stroke-linecap:butt;stroke-linejoin:miter;stroke-miterlimit:10;stroke-opacity:1;stroke-dasharray:none"
       d="m 66.160099,991.03817 c 29.37875,-7.8725 46.660001,-7.8725 68.462501,-2.03" />
    <g
       transform="matrix(1.25,0,0,-1.25,-223.7199,1883.6182)"
       id="g64">
      <text
         id="text66"
         transform="matrix(1,0,0,-1,271.373,725.682)">
        <tspan
           id="tspan68"
           y="0"
           x="0"
           style="font-size:10.16189957px;font-variant:normal;font-weight:normal;writing-mode:lr-tb;fill:#000000;fill-opacity:1;fill-rule:nonzero;stroke:none;font-family:CMR6;-inkscape-font-specification:CMR6">0</tspan>
      </text>
      <text
         id="text70"
         transform="matrix(1,0,0,-1,277.49292,725.682)">
        <tspan
           id="tspan72"
           sodipodi:role="line"
           y="0"
           x="0 6.528019"
           style="font-size:10.16189957px;font-variant:normal;font-weight:normal;writing-mode:lr-tb;fill:#000000;fill-opacity:1;fill-rule:nonzero;stroke:none;font-family:CMMI6;-inkscape-font-specification:CMMI6">/R</tspan>
      </text>
    </g>
    <path
       inkscape:connector-curvature="0"
       id="path74"
       style="fill:#000000;fill-opacity:1;fill-rule:nonzero;stroke:none"
       d="m 241.3376,985.65442 9.10625,1.6625 -5.9925,-7.05375 -0.80125,3.13125" />
    <path
       inkscape:connector-curvature="0"
       id="path76"
       style="fill:none;stroke:#000000;stroke-width:1.24532998;stroke-linecap:butt;stroke-linejoin:miter;stroke-miterlimit:10;stroke-opacity:1;stroke-dasharray:none"
       d="M 64.266349,987.31692 C 144.88385,940.77317 169.82635,940.77317 243.6501,983.39442" />
    <g
       transform="matrix(1.25,0,0,-1.25,-223.7199,1883.6182)"
       id="g78">
      <text
         id="text80"
         transform="matrix(1,0,0,-1,359.262,739.632)">
        <tspan
           id="tspan82"
           y="0"
           x="0"
           style="font-size:10.16189957px;font-variant:normal;font-weight:normal;writing-mode:lr-tb;fill:#000000;fill-opacity:1;fill-rule:nonzero;stroke:none;font-family:CMR6;-inkscape-font-specification:CMR6">1</tspan>
      </text>
      <text
         id="text84"
         transform="matrix(1,0,0,-1,365.38192,739.632)">
        <tspan
           id="tspan86"
           sodipodi:role="line"
           y="0"
           x="0 6.528019"
           style="font-size:10.16189957px;font-variant:normal;font-weight:normal;writing-mode:lr-tb;fill:#000000;fill-opacity:1;fill-rule:nonzero;stroke:none;font-family:CMMI6;-inkscape-font-specification:CMMI6">/L</tspan>
      </text>
    </g>
    <path
       inkscape:connector-curvature="0"
       id="path88"
       style="fill:#000000;fill-opacity:1;fill-rule:nonzero;stroke:none"
       d="m 75.385099,1000.9469 -9.225,0.7513 7.61375,5.2637 -0.0362,-3.2337" />
    <path
       inkscape:connector-curvature="0"
       id="path90"
       style="fill:none;stroke:#000000;stroke-width:1.24532998;stroke-linecap:butt;stroke-linejoin:miter;stroke-miterlimit:10;stroke-opacity:1;stroke-dasharray:none"
       d="m 142.20135,1001.6982 c -29.38125,7.8725 -46.662501,7.8725 -68.463751,2.03" />
    <g
       transform="matrix(1.25,0,0,-1.25,-223.7199,1883.6182)"
       id="g92">
      <text
         id="text94"
         transform="matrix(1,0,0,-1,257.983,688.192)">
        <tspan
           id="tspan96"
           y="0"
           x="0"
           style="font-size:10.16189957px;font-variant:normal;font-weight:normal;writing-mode:lr-tb;fill:#000000;fill-opacity:1;fill-rule:nonzero;stroke:none;font-family:CMR6;-inkscape-font-specification:CMR6">0</tspan>
      </text>
      <text
         id="text98"
         transform="matrix(1,0,0,-1,264.10292,688.192)">
        <tspan
           id="tspan100"
           sodipodi:role="line"
           y="0"
           x="0 6.528019"
           style="font-size:10.16189957px;font-variant:normal;font-weight:normal;writing-mode:lr-tb;fill:#000000;fill-opacity:1;fill-rule:nonzero;stroke:none;font-family:CMMI6;-inkscape-font-specification:CMMI6">/L</tspan>
      </text>
    </g>
    <path
       inkscape:connector-curvature="0"
       id="path102"
       style="fill:#000000;fill-opacity:1;fill-rule:nonzero;stroke:none"
       d="m 172.3076,1016.1694 -7.055,-5.9925 1.6625,9.1063 2.26,-2.3125" />
    <path
       inkscape:connector-curvature="0"
       id="path104"
       style="fill:none;stroke:#000000;stroke-width:1.24532998;stroke-linecap:butt;stroke-linejoin:miter;stroke-miterlimit:10;stroke-opacity:1;stroke-dasharray:none"
       d="m 149.3076,1010.1769 c -27.90375,48.33 43.8475,48.33 19.8675,6.7938" />
    <g
       transform="matrix(1.25,0,0,-1.25,-223.7199,1883.6182)"
       id="g106">
      <text
         id="text108"
         transform="matrix(1,0,0,-1,321.271,676.236)">
        <tspan
           id="tspan110"
           y="0"
           x="0"
           style="font-size:10.16189957px;font-variant:normal;font-weight:normal;writing-mode:lr-tb;fill:#000000;fill-opacity:1;fill-rule:nonzero;stroke:none;font-family:CMR6;-inkscape-font-specification:CMR6">1</tspan>
      </text>
      <text
         id="text112"
         transform="matrix(1,0,0,-1,327.39092,676.236)">
        <tspan
           id="tspan114"
           sodipodi:role="line"
           y="0"
           x="0 6.528019"
           style="font-size:10.16189957px;font-variant:normal;font-weight:normal;writing-mode:lr-tb;fill:#000000;fill-opacity:1;fill-rule:nonzero;stroke:none;font-family:CMMI6;-inkscape-font-specification:CMMI6">/R</tspan>
      </text>
    </g>
    <path
       inkscape:connector-curvature="0"
       id="path116"
       style="fill:#000000;fill-opacity:1;fill-rule:nonzero;stroke:none"
       d="m 181.9426,993.25442 -8.7175,3.11375 8.7175,3.11375 -0.8725,-3.11375" />
    <path
       inkscape:connector-curvature="0"
       id="path118"
       style="fill:none;stroke:#000000;stroke-width:1.24532998;stroke-linecap:butt;stroke-linejoin:miter;stroke-miterlimit:10;stroke-opacity:1;stroke-dasharray:none"
       d="m 247.6851,996.36817 -66.615,0" />
    <g
       transform="matrix(1.25,0,0,-1.25,-223.7199,1883.6182)"
       id="g120">
      <text
         id="text122"
         transform="matrix(1,0,0,-1,339.279,697.668)">
        <tspan
           id="tspan124"
           y="0"
           x="0"
           style="font-size:10.16189957px;font-variant:normal;font-weight:normal;writing-mode:lr-tb;fill:#000000;fill-opacity:1;fill-rule:nonzero;stroke:none;font-family:CMR6;-inkscape-font-specification:CMR6">0</tspan>
      </text>
      <text
         id="text126"
         transform="matrix(1,0,0,-1,345.39892,697.668)">
        <tspan
           id="tspan128"
           sodipodi:role="line"
           y="0"
           x="0 6.528019"
           style="font-size:10.16189957px;font-variant:normal;font-weight:normal;writing-mode:lr-tb;fill:#000000;fill-opacity:1;fill-rule:nonzero;stroke:none;font-family:CMMI6;-inkscape-font-specification:CMMI6">/L</tspan>
      </text>
    </g>
    <path
       inkscape:connector-curvature="0"
       id="path130"
       style="fill:#000000;fill-opacity:1;fill-rule:nonzero;stroke:none"
       d="m 344.6451,999.48192 8.7175,-3.11375 -8.7175,-3.11375 0.8725,3.11375" />
    <path
       inkscape:connector-curvature="0"
       id="path132"
       style="fill:none;stroke:#000000;stroke-width:1.24532998;stroke-linecap:butt;stroke-linejoin:miter;stroke-miterlimit:10;stroke-opacity:1;stroke-dasharray:none"
       d="m 279.5751,996.36817 65.9425,0" />
    <text
       style="font-size:15px"
       id="text136"
       x="299.12885"
       y="987.62311">
      <tspan
         style="font-size:12.70237446px;font-variant:normal;font-weight:normal;writing-mode:lr-tb;fill:#000000;fill-opacity:1;fill-rule:nonzero;stroke:none;font-family:CMR6;-inkscape-font-specification:CMR6"
         x="299.12885"
         y="987.62311"
         id="tspan138">1</tspan>
    </text>
    <text
       style="font-size:15px"
       id="text140"
       x="306.77875"
       y="987.62311">
      <tspan
         style="font-size:12.70237446px;font-variant:normal;font-weight:normal;writing-mode:lr-tb;fill:#000000;fill-opacity:1;fill-rule:nonzero;stroke:none;font-family:CMMI6;-inkscape-font-specification:CMMI6"
         x="306.77875 314.93869"
         y="987.62311"
         sodipodi:role="line"
         id="tspan142">/S</tspan>
    </text>
  </g>
</svg>
