<?xml version="1.0" encoding="UTF-8" standalone="no"?>
<!-- Created with Inkscape (http://www.inkscape.org/) -->

<svg
   xmlns:dc="http://purl.org/dc/elements/1.1/"
   xmlns:cc="http://creativecommons.org/ns#"
   xmlns:rdf="http://www.w3.org/1999/02/22-rdf-syntax-ns#"
   xmlns:svg="http://www.w3.org/2000/svg"
   xmlns="http://www.w3.org/2000/svg"
   xmlns:sodipodi="http://sodipodi.sourceforge.net/DTD/sodipodi-0.dtd"
   xmlns:inkscape="http://www.inkscape.org/namespaces/inkscape"
   width="500"
   height="130"
   id="svg3260"
   version="1.1"
   inkscape:version="0.48.3.1 r9886"
   sodipodi:docname="ibcm-shift-2.svg">
  <defs
     id="defs3262">
    <clipPath
       clipPathUnits="userSpaceOnUse"
       id="clipPath82">
      <path
         inkscape:connector-curvature="0"
         d="m 1099,7080 3876,0 0,-990 -3876,0 0,990 z"
         id="path84" />
    </clipPath>
    <clipPath
       clipPathUnits="userSpaceOnUse"
       id="clipPath140">
      <path
         inkscape:connector-curvature="0"
         d="m 1082,5440 3910,0 0,-990 -3910,0 0,990 z"
         id="path142" />
    </clipPath>
    <clipPath
       clipPathUnits="userSpaceOnUse"
       id="clipPath198">
      <path
         inkscape:connector-curvature="0"
         d="m 1082,3930 3910,0 0,-1140 -3910,0 0,1140 z"
         id="path200" />
    </clipPath>
  </defs>
  <sodipodi:namedview
     id="base"
     pagecolor="#ffffff"
     bordercolor="#666666"
     borderopacity="1.0"
     inkscape:pageopacity="0.0"
     inkscape:pageshadow="2"
     inkscape:zoom="0.35"
     inkscape:cx="375"
     inkscape:cy="520"
     inkscape:document-units="px"
     inkscape:current-layer="layer1"
     showgrid="false"
     inkscape:window-width="1280"
     inkscape:window-height="1004"
     inkscape:window-x="1277"
     inkscape:window-y="-3"
     inkscape:window-maximized="1" />
  <metadata
     id="metadata3265">
    <rdf:RDF>
      <cc:Work
         rdf:about="">
        <dc:format>image/svg+xml</dc:format>
        <dc:type
           rdf:resource="http://purl.org/dc/dcmitype/StillImage" />
        <dc:title></dc:title>
      </cc:Work>
    </rdf:RDF>
  </metadata>
  <g
     inkscape:label="Layer 1"
     inkscape:groupmode="layer"
     id="layer1"
     transform="translate(0,-922.36218)">
    <g
       transform="matrix(0.125,0,0,-0.125,-139.625,1412.3622)"
       id="g194">
      <g
         id="g196"
         clip-path="url(#clipPath198)">
        <path
           inkscape:connector-curvature="0"
           d="m 1082,2790 3910,0 0,1140 -3910,0 0,-1140 z"
           style="fill:#ffffff;fill-opacity:1;fill-rule:evenodd;stroke:none"
           id="path202" />
        <g
           id="g204"
           transform="scale(10,10)">
          <text
             transform="matrix(1,0,0,-1,259.31,363)"
             id="text206">
            <tspan
               style="font-size:14px;font-variant:normal;font-weight:normal;writing-mode:lr-tb;fill:#000000;fill-opacity:1;fill-rule:nonzero;stroke:none;font-family:Courier New;-inkscape-font-specification:Courier"
               x="0 8.3999996 16.799999 25.200001 33.599998 42 50.400002 58.799999 67.199997 75.599998 84 92.400002 100.8 109.2 117.6"
               y="0"
               sodipodi:role="line"
               id="tspan208">0 1 0 0 1 1 1 0</tspan>
          </text>
        </g>
        <path
           inkscape:connector-curvature="0"
           d="m 2503,3540 1440,0 0,270 -1440,0 0,-270 z"
           style="fill:none;stroke:#000000;stroke-width:5;stroke-linecap:square;stroke-linejoin:miter;stroke-miterlimit:3.8599999;stroke-opacity:1;stroke-dasharray:none"
           id="path210" />
        <g
           id="g212"
           transform="scale(10,10)">
          <text
             transform="matrix(1,0,0,-1,259.31,318)"
             id="text214">
            <tspan
               style="font-size:14px;font-variant:normal;font-weight:normal;writing-mode:lr-tb;fill:#000000;fill-opacity:1;fill-rule:nonzero;stroke:none;font-family:Courier New;-inkscape-font-specification:Courier"
               x="0 8.3999996 16.799999 25.200001 33.599998 42 50.400002 58.799999 67.199997 75.599998 84 92.400002 100.8 109.2 117.6"
               y="0"
               sodipodi:role="line"
               id="tspan216">0 1 1 1 0 0 1 0</tspan>
          </text>
        </g>
        <path
           inkscape:connector-curvature="0"
           d="m 2503,3090 1440,0 0,270 -1440,0 0,-270 z"
           style="fill:none;stroke:#000000;stroke-width:5;stroke-linecap:square;stroke-linejoin:miter;stroke-miterlimit:3.8599999;stroke-opacity:1;stroke-dasharray:none"
           id="path218" />
        <path
           inkscape:connector-curvature="0"
           d="m 3333,3441 -92,-26 92,-26 0,26 0,26 z"
           style="fill:none;stroke:#000000;stroke-width:11;stroke-linecap:butt;stroke-linejoin:miter;stroke-miterlimit:3.8599999;stroke-opacity:1;stroke-dasharray:none"
           id="path220" />
        <path
           inkscape:connector-curvature="0"
           d="m 3333,3441 -92,-26 92,-26 0,26"
           style="fill:#000000;fill-opacity:1;fill-rule:evenodd;stroke:none"
           id="path222" />
        <path
           inkscape:connector-curvature="0"
           d="m 3583,3415 -245,0"
           style="fill:none;stroke:#000000;stroke-width:5;stroke-linecap:square;stroke-linejoin:miter;stroke-miterlimit:3.8599999;stroke-opacity:1;stroke-dasharray:none"
           id="path224" />
        <g
           id="g226"
           transform="scale(10,10)">
          <text
             transform="matrix(1,0,0,-1,117.24,364.79)"
             id="text228">
            <tspan
               style="font-size:14px;font-variant:normal;font-weight:normal;writing-mode:lr-tb;fill:#000000;fill-opacity:1;fill-rule:nonzero;stroke:none;font-family:Helvetica;-inkscape-font-specification:Helvetica"
               x="0 10.892 15.554 18.662001"
               y="0"
               sodipodi:role="line"
               id="tspan230">Orig</tspan>
            <tspan
               style="font-size:14px;font-variant:normal;font-weight:normal;writing-mode:lr-tb;fill:#000000;fill-opacity:1;fill-rule:nonzero;stroke:none;font-family:Helvetica;-inkscape-font-specification:Helvetica"
               x="0 9.3380003 17.122 20.23 24.122 28.014 35.798"
               y="45"
               sodipodi:role="line"
               id="tspan232">Shifted</tspan>
          </text>
        </g>
        <path
           inkscape:connector-curvature="0"
           d="m 3403,3353 0,37"
           style="fill:none;stroke:#000000;stroke-width:5;stroke-linecap:square;stroke-linejoin:miter;stroke-miterlimit:3.8599999;stroke-opacity:1;stroke-dasharray:none"
           id="path234" />
        <path
           inkscape:connector-curvature="0"
           d="m 3403,3068 0,285"
           style="fill:none;stroke:#000000;stroke-width:5;stroke-linecap:square;stroke-linejoin:miter;stroke-miterlimit:3.8599999;stroke-opacity:1;stroke-dasharray:61.96, 53.7;stroke-dashoffset:61.96"
           id="path236" />
        <path
           inkscape:connector-curvature="0"
           d="m 3403,3030 0,38"
           style="fill:none;stroke:#000000;stroke-width:5;stroke-linecap:square;stroke-linejoin:miter;stroke-miterlimit:3.8599999;stroke-opacity:1;stroke-dasharray:none"
           id="path238" />
        <path
           inkscape:connector-curvature="0"
           d="m 4073,3233 -92,-23 91,-29 1,26 0,26 z"
           style="fill:none;stroke:#000000;stroke-width:11;stroke-linecap:butt;stroke-linejoin:miter;stroke-miterlimit:3.8599999;stroke-opacity:1;stroke-dasharray:none"
           id="path240" />
        <path
           inkscape:connector-curvature="0"
           d="m 4073,3233 -92,-23 91,-29 1,26"
           style="fill:#000000;fill-opacity:1;fill-rule:evenodd;stroke:none"
           id="path242" />
        <path
           inkscape:connector-curvature="0"
           d="m 2432.4,3210 c -180,0 -180,0 -135,-135 45,-135 45,-135 540,-135 495,0 495,0 900,0 405,0 405,0 405,135 0,96 0.4,129.9 -64.7,131.7"
           style="fill:none;stroke:#000000;stroke-width:5;stroke-linecap:square;stroke-linejoin:miter;stroke-miterlimit:3.8599999;stroke-opacity:1;stroke-dasharray:none"
           id="path244" />
      </g>
    </g>
  </g>
</svg>
