<?xml version="1.0" encoding="UTF-8" standalone="no"?>
<!-- Created with Inkscape (http://www.inkscape.org/) -->

<svg
   xmlns:dc="http://purl.org/dc/elements/1.1/"
   xmlns:cc="http://creativecommons.org/ns#"
   xmlns:rdf="http://www.w3.org/1999/02/22-rdf-syntax-ns#"
   xmlns:svg="http://www.w3.org/2000/svg"
   xmlns="http://www.w3.org/2000/svg"
   xmlns:sodipodi="http://sodipodi.sourceforge.net/DTD/sodipodi-0.dtd"
   xmlns:inkscape="http://www.inkscape.org/namespaces/inkscape"
   id="svg2"
   version="1.1"
   inkscape:version="0.48.3.1 r9886"
   width="295.83749"
   height="331.578"
   xml:space="preserve"
   sodipodi:docname="x86-activation-record.svg"><metadata
     id="metadata8"><rdf:RDF><cc:Work
         rdf:about=""><dc:format>image/svg+xml</dc:format><dc:type
           rdf:resource="http://purl.org/dc/dcmitype/StillImage" /><dc:title /></cc:Work></rdf:RDF></metadata><defs
     id="defs6" /><sodipodi:namedview
     pagecolor="#ffffff"
     bordercolor="#666666"
     borderopacity="1"
     objecttolerance="10"
     gridtolerance="10"
     guidetolerance="10"
     inkscape:pageopacity="0"
     inkscape:pageshadow="2"
     inkscape:window-width="1280"
     inkscape:window-height="1004"
     id="namedview4"
     showgrid="false"
     fit-margin-top="0"
     fit-margin-left="0"
     fit-margin-right="0"
     fit-margin-bottom="0"
     inkscape:zoom="1.5"
     inkscape:cx="128.65625"
     inkscape:cy="131.76641"
     inkscape:window-x="2557"
     inkscape:window-y="-3"
     inkscape:window-maximized="1"
     inkscape:current-layer="g10" /><g
     id="g10"
     inkscape:groupmode="layer"
     inkscape:label="x86-doc"
     transform="matrix(1.25,0,0,-1.25,-253.21875,882.525)"><path
   d="m 337.8,533.88 11.22,11.28 0,22.44 -11.22,-11.22 0,-22.5 z"
   style="fill:#c0c0c0;fill-opacity:1;fill-rule:nonzero;stroke:#000000;stroke-width:0.44999999;stroke-linecap:round;stroke-linejoin:round;stroke-miterlimit:10;stroke-opacity:1;stroke-dasharray:none"
   id="path24"
   inkscape:connector-curvature="0" /><path
   d="m 225.3,533.88 112.5,0 0,22.5 -112.5,0 0,-22.5 z"
   style="fill:#ffffff;fill-opacity:1;fill-rule:nonzero;stroke:#000000;stroke-width:0.44999999;stroke-linecap:round;stroke-linejoin:round;stroke-miterlimit:10;stroke-opacity:1;stroke-dasharray:none"
   id="path26"
   inkscape:connector-curvature="0" /><text
   transform="matrix(1,0,0,-0.98559041,236.22,542.16)"
   id="text28"><tspan
     style="font-size:10.19460011px;font-variant:normal;font-weight:normal;writing-mode:lr-tb;fill:#000000;fill-opacity:1;fill-rule:nonzero;stroke:none;font-family:Arial Black;-inkscape-font-specification:Arial"
     x="0 3.3948019 8.4921017 14.160299 19.257599 24.925797 30.593994 33.428093 38.525394 44.193592 46.456791 52.124989 57.793186 60.627285 66.295486 69.129585 71.963684 77.631882 83.300079 88.968277"
     y="0"
     sodipodi:role="line"
     id="tspan30">(saved value of ebp)</tspan></text>

<path
   d="m 337.8,556.38 11.22,11.22 0,22.5 -11.22,-11.22 0,-22.5 z"
   style="fill:#c0c0c0;fill-opacity:1;fill-rule:nonzero;stroke:#000000;stroke-width:0.44999999;stroke-linecap:round;stroke-linejoin:round;stroke-miterlimit:10;stroke-opacity:1;stroke-dasharray:none"
   id="path32"
   inkscape:connector-curvature="0" /><path
   d="m 225.3,556.38 112.5,0 0,22.5 -112.5,0 0,-22.5 z"
   style="fill:#ffffff;fill-opacity:1;fill-rule:nonzero;stroke:#000000;stroke-width:0.44999999;stroke-linecap:round;stroke-linejoin:round;stroke-miterlimit:10;stroke-opacity:1;stroke-dasharray:none"
   id="path34"
   inkscape:connector-curvature="0" /><text
   transform="matrix(1,0,0,-0.98559041,246,564.6)"
   id="text36"><tspan
     style="font-size:10.19460011px;font-variant:normal;font-weight:normal;writing-mode:lr-tb;fill:#000000;fill-opacity:1;fill-rule:nonzero;stroke:none;font-family:Arial Black;-inkscape-font-specification:Arial"
     x="0 3.3948019 6.7896037 12.457801 15.2919 20.960098 24.354898 30.023096 32.857197 38.525394 44.193592 49.86179 53.256592 58.924789 64.022087 69.119385"
     y="0"
     sodipodi:role="line"
     id="tspan38">(return address)</tspan></text>

<path
   d="m 337.8,578.88 11.22,11.22 0,22.5 -11.22,-11.22 0,-22.5 z"
   style="fill:#c0c0c0;fill-opacity:1;fill-rule:nonzero;stroke:#000000;stroke-width:0.44999999;stroke-linecap:round;stroke-linejoin:round;stroke-miterlimit:10;stroke-opacity:1;stroke-dasharray:none"
   id="path40"
   inkscape:connector-curvature="0" /><path
   d="m 225.3,578.88 112.5,0 0,22.5 -112.5,0 0,-22.5 z"
   style="fill:#ffffff;fill-opacity:1;fill-rule:nonzero;stroke:#000000;stroke-width:0.44999999;stroke-linecap:round;stroke-linejoin:round;stroke-miterlimit:10;stroke-opacity:1;stroke-dasharray:none"
   id="path42"
   inkscape:connector-curvature="0" /><text
   transform="matrix(1,0,0,-0.98559041,254.52,587.1)"
   id="text44"><tspan
     style="font-size:10.19460011px;font-variant:normal;font-weight:normal;writing-mode:lr-tb;fill:#000000;fill-opacity:1;fill-rule:nonzero;stroke:none;font-family:Arial Black;-inkscape-font-specification:Arial"
     x="0 5.6681976 11.336395 14.731197 20.399395 28.891497 34.559692 37.393791 43.061989 46.456791 49.29089"
     y="0"
     sodipodi:role="line"
     id="tspan46">parameter 1</tspan></text>

<path
   d="m 337.8,601.38 11.22,11.22 0,22.5 -11.22,-11.22 0,-22.5 z"
   style="fill:#c0c0c0;fill-opacity:1;fill-rule:nonzero;stroke:#000000;stroke-width:0.44999999;stroke-linecap:round;stroke-linejoin:round;stroke-miterlimit:10;stroke-opacity:1;stroke-dasharray:none"
   id="path48"
   inkscape:connector-curvature="0" /><path
   d="m 225.3,601.38 112.5,0 0,22.5 -112.5,0 0,-22.5 z"
   style="fill:#ffffff;fill-opacity:1;fill-rule:nonzero;stroke:#000000;stroke-width:0.44999999;stroke-linecap:round;stroke-linejoin:round;stroke-miterlimit:10;stroke-opacity:1;stroke-dasharray:none"
   id="path50"
   inkscape:connector-curvature="0" /><text
   transform="matrix(1,0,0,-0.98559041,254.52,609.6)"
   id="text52"><tspan
     style="font-size:10.19460011px;font-variant:normal;font-weight:normal;writing-mode:lr-tb;fill:#000000;fill-opacity:1;fill-rule:nonzero;stroke:none;font-family:Arial Black;-inkscape-font-specification:Arial"
     x="0 5.6681976 11.336395 14.731197 20.399395 28.891497 34.559692 37.393791 43.061989 46.456791 49.29089"
     y="0"
     sodipodi:role="line"
     id="tspan54">parameter 2</tspan></text>

<path
   d="m 337.8,623.88 11.22,11.22 0,22.5 -11.22,-11.22 0,-22.5 z"
   style="fill:#c0c0c0;fill-opacity:1;fill-rule:nonzero;stroke:#000000;stroke-width:0.44999999;stroke-linecap:round;stroke-linejoin:round;stroke-miterlimit:10;stroke-opacity:1;stroke-dasharray:none"
   id="path56"
   inkscape:connector-curvature="0" /><path
   d="m 225.3,646.38 112.5,0 11.22,11.22 -112.5,0 -11.22,-11.22 z"
   style="fill:#c0c0c0;fill-opacity:1;fill-rule:nonzero;stroke:#000000;stroke-width:0.44999999;stroke-linecap:round;stroke-linejoin:round;stroke-miterlimit:10;stroke-opacity:1;stroke-dasharray:none"
   id="path58"
   inkscape:connector-curvature="0" /><path
   d="m 225.3,623.88 112.5,0 0,22.5 -112.5,0 0,-22.5 z"
   style="fill:#ffffff;fill-opacity:1;fill-rule:nonzero;stroke:#000000;stroke-width:0.44999999;stroke-linecap:round;stroke-linejoin:round;stroke-miterlimit:10;stroke-opacity:1;stroke-dasharray:none"
   id="path60"
   inkscape:connector-curvature="0" /><text
   transform="matrix(1,0,0,-0.98559041,254.52,632.1)"
   id="text62"><tspan
     style="font-size:10.19460011px;font-variant:normal;font-weight:normal;writing-mode:lr-tb;fill:#000000;fill-opacity:1;fill-rule:nonzero;stroke:none;font-family:Arial Black;-inkscape-font-specification:Arial"
     x="0 5.6681976 11.336395 14.731197 20.399395 28.891497 34.559692 37.393791 43.061989 46.456791 49.29089"
     y="0"
     sodipodi:role="line"
     id="tspan64">parameter 3</tspan></text>

<path
   d="m 337.8,511.38 11.22,11.28 0,22.5 -11.22,-11.28 0,-22.5 z"
   style="fill:#c0c0c0;fill-opacity:1;fill-rule:nonzero;stroke:#000000;stroke-width:0.44999999;stroke-linecap:round;stroke-linejoin:round;stroke-miterlimit:10;stroke-opacity:1;stroke-dasharray:none"
   id="path66"
   inkscape:connector-curvature="0" /><path
   d="m 225.3,511.38 112.5,0 0,22.5 -112.5,0 0,-22.5 z"
   style="fill:#ffffff;fill-opacity:1;fill-rule:nonzero;stroke:#000000;stroke-width:0.44999999;stroke-linecap:round;stroke-linejoin:round;stroke-miterlimit:10;stroke-opacity:1;stroke-dasharray:none"
   id="path68"
   inkscape:connector-curvature="0" /><text
   transform="matrix(1,0,0,-0.98559041,248.1,519.66)"
   id="text70"><tspan
     style="font-size:10.19460011px;font-variant:normal;font-weight:normal;writing-mode:lr-tb;fill:#000000;fill-opacity:1;fill-rule:nonzero;stroke:none;font-family:Arial Black;-inkscape-font-specification:Arial"
     x="0 2.2632012 7.9313989 13.028699 18.696896 20.960098 23.794197 28.891497 34.559692 37.954494 40.217697 45.885895 51.554092 53.817295 59.485493 62.319592"
     y="0"
     sodipodi:role="line"
     id="tspan72">local variable 1</tspan></text>

<path
   d="m 394.02,539.46 45,0 0,22.44 -45,0 0,-22.44 z"
   style="fill:#ffffff;fill-opacity:1;fill-rule:nonzero;stroke:#000000;stroke-width:0.44999999;stroke-linecap:round;stroke-linejoin:round;stroke-miterlimit:10;stroke-opacity:1;stroke-dasharray:none"
   id="path74"
   inkscape:connector-curvature="0" /><path
   d="m 416.52,550.68 -67.02,0"
   style="fill:none;stroke:#000000;stroke-width:0.44999999;stroke-linecap:round;stroke-linejoin:round;stroke-miterlimit:10;stroke-opacity:1;stroke-dasharray:none"
   id="path76"
   inkscape:connector-curvature="0" /><path
   d="m 414,550.68 0,-0.3 0.12,-0.3 0,-0.3 0.18,-0.12 0.12,-0.3 0.18,-0.3 0.12,-0.18 0.3,-0.12 0.18,-0.18 0.3,-0.12 0.3,-0.18 0.3,-0.12 1.02,0 0.3,0.12 0.3,0.18 0.3,0.12 0.18,0.18 0.3,0.12 0.12,0.18 0.18,0.3 0.12,0.3 0.18,0.12 0,0.3 0.12,0.3 0,0.6 -0.12,0.3 0,0.3 -0.18,0.3 -0.12,0.18 -0.18,0.3 -0.12,0.12 -0.48,0.48 -0.3,0.12 -0.3,0 -0.3,0.18 -1.02,0 -0.3,-0.18 -0.3,0 -0.3,-0.12 -0.48,-0.48 -0.12,-0.12 -0.18,-0.3 -0.12,-0.18 -0.18,-0.3 0,-0.3 -0.12,-0.3 0,-0.3 z m -63.6,-3.42 -6.9,3.42 6.9,3.48 0,-6.9"
   style="fill:#000000;fill-opacity:1;fill-rule:nonzero;stroke:none"
   id="path78"
   inkscape:connector-curvature="0" /><path
   d="m 370.2,557.58 19.62,0 0,-13.8 -19.62,0 0,13.8 z"
   style="fill:#ffffff;fill-opacity:1;fill-rule:nonzero;stroke:none"
   id="path80"
   inkscape:connector-curvature="0" /><text
   transform="matrix(0.99833793,0,0,-1,371.1,547.6801)"
   id="text82"><tspan
     style="font-size:10.04769993px;font-variant:normal;font-weight:bold;writing-mode:lr-tb;fill:#000000;fill-opacity:1;fill-rule:nonzero;stroke:none;font-family:Arial Black;-inkscape-font-specification:Arial Bold"
     x="0 5.5865211 11.725666"
     y="0"
     sodipodi:role="line"
     id="tspan84">ebp</tspan></text>

<path
   d="m 337.8,488.88 11.22,11.28 0,22.5 -11.22,-11.28 0,-22.5 z"
   style="fill:#c0c0c0;fill-opacity:1;fill-rule:nonzero;stroke:#000000;stroke-width:0.44999999;stroke-linecap:round;stroke-linejoin:round;stroke-miterlimit:10;stroke-opacity:1;stroke-dasharray:none"
   id="path86"
   inkscape:connector-curvature="0" /><path
   d="m 225.3,488.88 112.5,0 0,22.5 -112.5,0 0,-22.5 z"
   style="fill:#ffffff;fill-opacity:1;fill-rule:nonzero;stroke:#000000;stroke-width:0.44999999;stroke-linecap:round;stroke-linejoin:round;stroke-miterlimit:10;stroke-opacity:1;stroke-dasharray:none"
   id="path88"
   inkscape:connector-curvature="0" /><text
   transform="matrix(1,0,0,-0.98559041,241.2,497.16)"
   id="text90"><tspan
     style="font-size:10.19460011px;font-variant:normal;font-weight:normal;writing-mode:lr-tb;fill:#000000;fill-opacity:1;fill-rule:nonzero;stroke:none;font-family:Arial Black;-inkscape-font-specification:Arial"
     x="0 5.0973001 10.765497 15.862798 21.530994 27.199192 30.033291 35.130592 40.79879 43.061989 48.730186 54.398384 57.232483 62.900681 65.734779 68.568878 74.237076 79.905273"
     y="0"
     sodipodi:role="line"
     id="tspan92">saved value of edi</tspan></text>

<path
   d="m 337.8,466.38 11.22,11.28 0,22.5 -11.22,-11.28 0,-22.5 z"
   style="fill:#c0c0c0;fill-opacity:1;fill-rule:nonzero;stroke:#000000;stroke-width:0.44999999;stroke-linecap:round;stroke-linejoin:round;stroke-miterlimit:10;stroke-opacity:1;stroke-dasharray:none"
   id="path94"
   inkscape:connector-curvature="0" /><path
   d="m 225.3,466.38 112.5,0 0,22.5 -112.5,0 0,-22.5 z"
   style="fill:#ffffff;fill-opacity:1;fill-rule:nonzero;stroke:#000000;stroke-width:0.44999999;stroke-linecap:round;stroke-linejoin:round;stroke-miterlimit:10;stroke-opacity:1;stroke-dasharray:none"
   id="path96"
   inkscape:connector-curvature="0" /><text
   transform="matrix(1,0,0,-0.98559041,241.32,474.66)"
   id="text98"><tspan
     style="font-size:10.19460011px;font-variant:normal;font-weight:normal;writing-mode:lr-tb;fill:#000000;fill-opacity:1;fill-rule:nonzero;stroke:none;font-family:Arial Black;-inkscape-font-specification:Arial"
     x="0 5.0973001 10.765497 15.862798 21.530994 27.199192 30.033291 35.130592 40.79879 43.061989 48.730186 54.398384 57.232483 62.900681 65.734779 68.568878 74.237076 79.334373"
     y="0"
     sodipodi:role="line"
     id="tspan100">saved value of esi</tspan></text>

<path
   d="m 225.3,550.68 -22.5,0 0,151.92 33.42,0"
   style="fill:none;stroke:#000000;stroke-width:0.44999999;stroke-linecap:round;stroke-linejoin:round;stroke-miterlimit:10;stroke-opacity:1;stroke-dasharray:none"
   id="path102"
   inkscape:connector-curvature="0" /><path
   d="m 235.32,706.02 6.9,-3.42 -6.9,-3.42 0,6.84"
   style="fill:#000000;fill-opacity:1;fill-rule:nonzero;stroke:none"
   id="path104"
   inkscape:connector-curvature="0" /><path
   d="m 394.02,471.96 45,0 0,22.5 -45,0 0,-22.5 z"
   style="fill:#ffffff;fill-opacity:1;fill-rule:nonzero;stroke:#000000;stroke-width:0.44999999;stroke-linecap:round;stroke-linejoin:round;stroke-miterlimit:10;stroke-opacity:1;stroke-dasharray:none"
   id="path106"
   inkscape:connector-curvature="0" /><path
   d="m 416.52,483.18 -67.02,0"
   style="fill:none;stroke:#000000;stroke-width:0.44999999;stroke-linecap:round;stroke-linejoin:round;stroke-miterlimit:10;stroke-opacity:1;stroke-dasharray:none"
   id="path108"
   inkscape:connector-curvature="0" /><path
   d="m 414,483.18 0,-0.3 0.12,-0.3 0,-0.3 0.18,-0.12 0.12,-0.3 0.18,-0.3 0.12,-0.18 0.3,-0.12 0.18,-0.18 0.3,-0.12 0.3,-0.18 0.3,-0.12 1.02,0 0.3,0.12 0.3,0.18 0.3,0.12 0.18,0.18 0.3,0.12 0.12,0.18 0.18,0.3 0.12,0.3 0.18,0.12 0,0.3 0.12,0.3 0,0.6 -0.12,0.3 0,0.3 -0.18,0.3 -0.12,0.18 -0.18,0.3 -0.6,0.6 -0.3,0.12 -0.3,0 -0.3,0.18 -1.02,0 -0.3,-0.18 -0.3,0 -0.3,-0.12 -0.6,-0.6 -0.18,-0.3 -0.12,-0.18 -0.18,-0.3 0,-0.3 -0.12,-0.3 0,-0.3 z m -63.6,-3.42 -6.9,3.42 6.9,3.48 0,-6.9"
   style="fill:#000000;fill-opacity:1;fill-rule:nonzero;stroke:none"
   id="path110"
   inkscape:connector-curvature="0" /><path
   d="m 370.5,490.08 19.02,0 0,-13.8 -19.02,0 0,13.8 z"
   style="fill:#ffffff;fill-opacity:1;fill-rule:nonzero;stroke:none"
   id="path112"
   inkscape:connector-curvature="0" /><text
   transform="matrix(0.99833793,0,0,-1,371.4,480.18)"
   id="text114"><tspan
     style="font-size:10.04769993px;font-variant:normal;font-weight:bold;writing-mode:lr-tb;fill:#000000;fill-opacity:1;fill-rule:nonzero;stroke:none;font-family:Arial Black;-inkscape-font-specification:Arial Bold"
     x="0 5.5865211 11.173042"
     y="0"
     sodipodi:role="line"
     id="tspan116">esp</tspan></text>

<path
   d="m 416.52,595.68 -67.02,0"
   style="fill:none;stroke:#000000;stroke-width:0.44999999;stroke-linecap:round;stroke-linejoin:round;stroke-miterlimit:10;stroke-opacity:1;stroke-dasharray:none"
   id="path118"
   inkscape:connector-curvature="0" /><path
   d="m 414,595.68 0,-0.3 0.12,-0.3 0,-0.3 0.18,-0.18 0.12,-0.3 0.18,-0.3 0.12,-0.12 0.3,-0.18 0.18,-0.12 0.3,-0.18 0.3,-0.12 0.3,-0.18 1.02,0 0.3,0.18 0.3,0.12 0.3,0.18 0.18,0.12 0.3,0.18 0.12,0.12 0.18,0.3 0.12,0.3 0.18,0.18 0,0.3 0.12,0.3 0,0.6 -0.12,0.3 0,0.3 -0.18,0.3 -0.12,0.12 -0.18,0.3 -0.12,0.18 -0.3,0.3 -0.18,0.12 -0.3,0.18 -0.3,0 -0.3,0.12 -1.02,0 -0.3,-0.12 -0.3,0 -0.3,-0.18 -0.18,-0.12 -0.3,-0.3 -0.12,-0.18 -0.18,-0.3 -0.12,-0.12 -0.18,-0.3 0,-0.3 -0.12,-0.3 0,-0.3 z m -63.6,-3.48 -6.9,3.48 6.9,3.42 0,-6.9"
   style="fill:#000000;fill-opacity:1;fill-rule:nonzero;stroke:none"
   id="path120"
   inkscape:connector-curvature="0" /><path
   d="m 362.22,594.48 35.58,0 0,-13.8 -35.58,0 0,13.8 z"
   style="fill:#ffffff;fill-opacity:1;fill-rule:nonzero;stroke:none"
   id="path122"
   inkscape:connector-curvature="0" /><text
   transform="matrix(1,0,0,-0.98559041,363.12,584.58)"
   id="text124"><tspan
     style="font-size:10.19460011px;font-variant:normal;font-weight:normal;writing-mode:lr-tb;fill:#000000;fill-opacity:1;fill-rule:nonzero;stroke:none;font-family:Arial Black;-inkscape-font-specification:Arial"
     x="0 2.8340988 8.5022964 14.170494 19.838692 25.792337 31.460535"
     y="0"
     sodipodi:role="line"
     id="tspan126">[ebp+8]</tspan></text>

<path
   d="m 416.52,618.18 -67.02,0"
   style="fill:none;stroke:#000000;stroke-width:0.44999999;stroke-linecap:round;stroke-linejoin:round;stroke-miterlimit:10;stroke-opacity:1;stroke-dasharray:none"
   id="path128"
   inkscape:connector-curvature="0" /><path
   d="m 414,618.18 0,-0.3 0.12,-0.3 0,-0.3 0.18,-0.18 0.12,-0.3 0.18,-0.3 0.12,-0.12 0.3,-0.18 0.18,-0.12 0.3,-0.18 0.3,-0.12 0.3,-0.18 1.02,0 0.3,0.18 0.3,0.12 0.3,0.18 0.18,0.12 0.3,0.18 0.12,0.12 0.18,0.3 0.12,0.3 0.18,0.18 0,0.3 0.12,0.3 0,0.6 -0.12,0.3 0,0.3 -0.18,0.3 -0.12,0.12 -0.18,0.3 -0.12,0.18 -0.3,0.3 -0.18,0.12 -0.3,0.18 -0.3,0 -0.3,0.12 -1.02,0 -0.3,-0.12 -0.3,0 -0.3,-0.18 -0.18,-0.12 -0.3,-0.3 -0.12,-0.18 -0.18,-0.3 -0.12,-0.12 -0.18,-0.3 0,-0.3 -0.12,-0.3 0,-0.3 z m -63.6,-3.48 -6.9,3.48 6.9,3.42 0,-6.9"
   style="fill:#000000;fill-opacity:1;fill-rule:nonzero;stroke:none"
   id="path130"
   inkscape:connector-curvature="0" /><path
   d="m 359.4,616.98 41.1,0 0,-13.8 -41.1,0 0,13.8 z"
   style="fill:#ffffff;fill-opacity:1;fill-rule:nonzero;stroke:none"
   id="path132"
   inkscape:connector-curvature="0" /><text
   transform="matrix(1,0,0,-0.98559041,360.3,607.08)"
   id="text134"><tspan
     style="font-size:10.19460011px;font-variant:normal;font-weight:normal;writing-mode:lr-tb;fill:#000000;fill-opacity:1;fill-rule:nonzero;stroke:none;font-family:Arial Black;-inkscape-font-specification:Arial"
     x="0 2.8340988 8.5022964 14.170494 19.838692 25.792337 31.460535 37.128735"
     y="0"
     sodipodi:role="line"
     id="tspan136">[ebp+12]</tspan></text>

<path
   d="m 416.52,640.68 -67.02,0"
   style="fill:none;stroke:#000000;stroke-width:0.44999999;stroke-linecap:round;stroke-linejoin:round;stroke-miterlimit:10;stroke-opacity:1;stroke-dasharray:none"
   id="path138"
   inkscape:connector-curvature="0" /><path
   d="m 414,640.68 0,-0.3 0.12,-0.3 0,-0.3 0.18,-0.18 0.12,-0.3 0.18,-0.3 0.12,-0.12 0.3,-0.18 0.18,-0.12 0.3,-0.18 0.3,-0.12 0.3,-0.18 1.02,0 0.3,0.18 0.3,0.12 0.3,0.18 0.18,0.12 0.3,0.18 0.12,0.12 0.18,0.3 0.12,0.3 0.18,0.18 0,0.3 0.12,0.3 0,0.6 -0.12,0.3 0,0.3 -0.18,0.3 -0.12,0.12 -0.18,0.3 -0.12,0.18 -0.3,0.3 -0.18,0.12 -0.3,0.18 -0.3,0 -0.3,0.12 -1.02,0 -0.3,-0.12 -0.3,0 -0.3,-0.18 -0.18,-0.12 -0.3,-0.3 -0.12,-0.18 -0.18,-0.3 -0.12,-0.12 -0.18,-0.3 0,-0.3 -0.12,-0.3 0,-0.3 z m -63.6,-3.48 -6.9,3.48 6.9,3.42 0,-6.9"
   style="fill:#000000;fill-opacity:1;fill-rule:nonzero;stroke:none"
   id="path140"
   inkscape:connector-curvature="0" /><path
   d="m 359.4,639.48 41.1,0 0,-13.8 -41.1,0 0,13.8 z"
   style="fill:#ffffff;fill-opacity:1;fill-rule:nonzero;stroke:none"
   id="path142"
   inkscape:connector-curvature="0" /><text
   transform="matrix(1,0,0,-0.98559041,360.3,629.58)"
   id="text144"><tspan
     style="font-size:10.19460011px;font-variant:normal;font-weight:normal;writing-mode:lr-tb;fill:#000000;fill-opacity:1;fill-rule:nonzero;stroke:none;font-family:Arial Black;-inkscape-font-specification:Arial"
     x="0 2.8340988 8.5022964 14.170494 19.838692 25.792337 31.460535 37.128735"
     y="0"
     sodipodi:role="line"
     id="tspan146">[ebp+16]</tspan></text>

<path
   d="m 416.52,528.18 -67.02,0"
   style="fill:none;stroke:#000000;stroke-width:0.44999999;stroke-linecap:round;stroke-linejoin:round;stroke-miterlimit:10;stroke-opacity:1;stroke-dasharray:none"
   id="path148"
   inkscape:connector-curvature="0" /><path
   d="m 414,528.18 0,-0.3 0.12,-0.3 0,-0.3 0.18,-0.12 0.12,-0.3 0.18,-0.3 0.12,-0.18 0.3,-0.12 0.18,-0.18 0.3,-0.12 0.3,-0.18 0.3,-0.12 1.02,0 0.3,0.12 0.3,0.18 0.3,0.12 0.18,0.18 0.3,0.12 0.12,0.18 0.18,0.3 0.12,0.3 0.18,0.12 0,0.3 0.12,0.3 0,0.6 -0.12,0.3 0,0.3 -0.18,0.3 -0.12,0.18 -0.18,0.3 -0.6,0.6 -0.3,0.12 -0.3,0 -0.3,0.18 -1.02,0 -0.3,-0.18 -0.3,0 -0.3,-0.12 -0.6,-0.6 -0.18,-0.3 -0.12,-0.18 -0.18,-0.3 0,-0.3 -0.12,-0.3 0,-0.3 z m -63.6,-3.42 -6.9,3.42 6.9,3.48 0,-6.9"
   style="fill:#000000;fill-opacity:1;fill-rule:nonzero;stroke:none"
   id="path150"
   inkscape:connector-curvature="0" /><path
   d="m 363.42,526.98 33,0 0,-13.8 -33,0 0,13.8 z"
   style="fill:#ffffff;fill-opacity:1;fill-rule:nonzero;stroke:none"
   id="path152"
   inkscape:connector-curvature="0" /><text
   transform="matrix(1,0,0,-0.98559041,364.32,517.08)"
   id="text154"><tspan
     style="font-size:10.19460011px;font-variant:normal;font-weight:normal;writing-mode:lr-tb;fill:#000000;fill-opacity:1;fill-rule:nonzero;stroke:none;font-family:Arial Black;-inkscape-font-specification:Arial"
     x="0 2.8340988 8.5022964 14.170494 19.838692 23.233494 28.901691"
     y="0"
     sodipodi:role="line"
     id="tspan156">[ebp-4]</tspan><tspan
     style="font-size:10.19460011px;font-variant:normal;font-weight:normal;writing-mode:lr-tb;fill:#000000;fill-opacity:1;fill-rule:nonzero;stroke:none;font-family:Arial Black;-inkscape-font-specification:Arial"
     x="-122.70016 -115.33967 -113.07646 -107.40826 -101.74007 -96.071869 -92.677071 -89.842972 -83.043175 -77.374977 -71.706779 -68.311974 -62.64378 -57.546478 -52.449177 -46.780979"
     y="-162.36021"
     sodipodi:role="line"
     id="tspan158">Higher Addresses</tspan><tspan
     style="font-size:10.19460011px;font-variant:normal;font-weight:normal;writing-mode:lr-tb;fill:#000000;fill-opacity:1;fill-rule:nonzero;stroke:none;font-family:Arial Black;-inkscape-font-specification:Arial"
     x="-121.50026 -115.83206 -110.16386 -102.80337 -97.13517 -93.740364 -90.906265 -84.106468 -78.438271 -72.770073 -69.375275 -63.707073 -58.609776 -53.512474 -47.844276"
     y="77.313805"
     sodipodi:role="line"
     id="tspan160">Lower Addresses</tspan></text>


</g></svg>