<?xml version="1.0" encoding="UTF-8" standalone="no"?>
<!-- Created with Inkscape (http://www.inkscape.org/) -->

<svg
   xmlns:dc="http://purl.org/dc/elements/1.1/"
   xmlns:cc="http://creativecommons.org/ns#"
   xmlns:rdf="http://www.w3.org/1999/02/22-rdf-syntax-ns#"
   xmlns:svg="http://www.w3.org/2000/svg"
   xmlns="http://www.w3.org/2000/svg"
   xmlns:sodipodi="http://sodipodi.sourceforge.net/DTD/sodipodi-0.dtd"
   xmlns:inkscape="http://www.inkscape.org/namespaces/inkscape"
   id="svg3293"
   version="1.1"
   inkscape:version="0.48.3.1 r9886"
   width="322.05142"
   height="232.125"
   xml:space="preserve"
   sodipodi:docname="x86-doc.pdf"><metadata
     id="metadata3299"><rdf:RDF><cc:Work
         rdf:about=""><dc:format>image/svg+xml</dc:format><dc:type
           rdf:resource="http://purl.org/dc/dcmitype/StillImage" /><dc:title></dc:title></cc:Work></rdf:RDF></metadata><defs
     id="defs3297" /><sodipodi:namedview
     pagecolor="#ffffff"
     bordercolor="#666666"
     borderopacity="1"
     objecttolerance="10"
     gridtolerance="10"
     guidetolerance="10"
     inkscape:pageopacity="0"
     inkscape:pageshadow="2"
     inkscape:window-width="1280"
     inkscape:window-height="969"
     id="namedview3295"
     showgrid="false"
     fit-margin-top="0"
     fit-margin-left="0"
     fit-margin-right="0"
     fit-margin-bottom="0"
     inkscape:zoom="1"
     inkscape:cx="129.575"
     inkscape:cy="191.6846"
     inkscape:window-x="-3"
     inkscape:window-y="-3"
     inkscape:window-maximized="1"
     inkscape:current-layer="g3301" /><g
     id="g3301"
     inkscape:groupmode="layer"
     inkscape:label="x86-doc"
     transform="matrix(1.25,0,0,-1.25,-252.3,405.15)"><path
       d="m 274.02,264.6 9,9 0,18 -9,-9 0,-18 z"
       style="fill:#c0c0c0;fill-opacity:1;fill-rule:nonzero;stroke:#000000;stroke-width:0.36000001;stroke-linecap:round;stroke-linejoin:round;stroke-miterlimit:10;stroke-opacity:1;stroke-dasharray:none"
       id="path3385"
       inkscape:connector-curvature="0" /><path
       d="m 202.02,282.6 72,0 9,9 -72,0 -9,-9 z"
       style="fill:#c0c0c0;fill-opacity:1;fill-rule:nonzero;stroke:#000000;stroke-width:0.36000001;stroke-linecap:round;stroke-linejoin:round;stroke-miterlimit:10;stroke-opacity:1;stroke-dasharray:none"
       id="path3387"
       inkscape:connector-curvature="0" /><path
       d="m 202.02,264.6 72,0 0,18 -72,0 0,-18 z"
       style="fill:#ffffff;fill-opacity:1;fill-rule:nonzero;stroke:#000000;stroke-width:0.36000001;stroke-linecap:round;stroke-linejoin:round;stroke-miterlimit:10;stroke-opacity:1;stroke-dasharray:none"
       id="path3389"
       inkscape:connector-curvature="0" /><path
       d="m 274.02,210.6 9,9 0,18 -9,-9 0,-18 z"
       style="fill:#c0c0c0;fill-opacity:1;fill-rule:nonzero;stroke:#000000;stroke-width:0.36000001;stroke-linecap:round;stroke-linejoin:round;stroke-miterlimit:10;stroke-opacity:1;stroke-dasharray:none"
       id="path3391"
       inkscape:connector-curvature="0" /><path
       d="m 202.02,210.6 72,0 0,18 -72,0 0,-18 z"
       style="fill:#ffffff;fill-opacity:1;fill-rule:nonzero;stroke:#000000;stroke-width:0.36000001;stroke-linecap:round;stroke-linejoin:round;stroke-miterlimit:10;stroke-opacity:1;stroke-dasharray:none"
       id="path3393"
       inkscape:connector-curvature="0" /><path
       d="m 274.02,228.6 9,9 0,18 -9,-9 0,-18 z"
       style="fill:#c0c0c0;fill-opacity:1;fill-rule:nonzero;stroke:#000000;stroke-width:0.36000001;stroke-linecap:round;stroke-linejoin:round;stroke-miterlimit:10;stroke-opacity:1;stroke-dasharray:none"
       id="path3395"
       inkscape:connector-curvature="0" /><path
       d="m 202.02,228.6 72,0 0,18 -72,0 0,-18 z"
       style="fill:#ffffff;fill-opacity:1;fill-rule:nonzero;stroke:#000000;stroke-width:0.36000001;stroke-linecap:round;stroke-linejoin:round;stroke-miterlimit:10;stroke-opacity:1;stroke-dasharray:none"
       id="path3397"
       inkscape:connector-curvature="0" /><path
       d="m 274.02,246.6 9,9 0,18 -9,-9 0,-18 z"
       style="fill:#c0c0c0;fill-opacity:1;fill-rule:nonzero;stroke:#000000;stroke-width:0.36000001;stroke-linecap:round;stroke-linejoin:round;stroke-miterlimit:10;stroke-opacity:1;stroke-dasharray:none"
       id="path3399"
       inkscape:connector-curvature="0" /><path
       d="m 202.02,246.6 72,0 0,18 -72,0 0,-18 z"
       style="fill:#ffffff;fill-opacity:1;fill-rule:nonzero;stroke:#000000;stroke-width:0.36000001;stroke-linecap:round;stroke-linejoin:round;stroke-miterlimit:10;stroke-opacity:1;stroke-dasharray:none"
       id="path3401"
       inkscape:connector-curvature="0" /><path
       d="m 310.02,246.6 9.06,9 0,18 -9.06,-9 0,-18 z"
       style="fill:#c0c0c0;fill-opacity:1;fill-rule:nonzero;stroke:#000000;stroke-width:0.36000001;stroke-linecap:round;stroke-linejoin:round;stroke-miterlimit:10;stroke-opacity:1;stroke-dasharray:none"
       id="path3403"
       inkscape:connector-curvature="0" /><path
       d="m 274.02,246.6 36,0 0,18 -36,0 0,-18 z"
       style="fill:#ffffff;fill-opacity:1;fill-rule:nonzero;stroke:#000000;stroke-width:0.36000001;stroke-linecap:round;stroke-linejoin:round;stroke-miterlimit:10;stroke-opacity:1;stroke-dasharray:none"
       id="path3405"
       inkscape:connector-curvature="0" /><text
       transform="matrix(0.99698333,0,0,-1,287.82,253.8)"
       id="text3407"><tspan
         style="font-size:6px;font-variant:normal;font-weight:normal;writing-mode:lr-tb;fill:#000000;fill-opacity:1;fill-rule:nonzero;stroke:none;font-family:Arial Black;-inkscape-font-specification:Arial"
         x="0 4.0019999"
         y="0"
         sodipodi:role="line"
         id="tspan3409">BH</tspan></text>
<path
       d="m 310.02,228.6 9.06,9 0,18 -9.06,-9 0,-18 z"
       style="fill:#c0c0c0;fill-opacity:1;fill-rule:nonzero;stroke:#000000;stroke-width:0.36000001;stroke-linecap:round;stroke-linejoin:round;stroke-miterlimit:10;stroke-opacity:1;stroke-dasharray:none"
       id="path3411"
       inkscape:connector-curvature="0" /><path
       d="m 274.02,228.6 36,0 0,18 -36,0 0,-18 z"
       style="fill:#ffffff;fill-opacity:1;fill-rule:nonzero;stroke:#000000;stroke-width:0.36000001;stroke-linecap:round;stroke-linejoin:round;stroke-miterlimit:10;stroke-opacity:1;stroke-dasharray:none"
       id="path3413"
       inkscape:connector-curvature="0" /><text
       transform="matrix(0.99698333,0,0,-1,287.7,235.8)"
       id="text3415"><tspan
         style="font-size:6px;font-variant:normal;font-weight:normal;writing-mode:lr-tb;fill:#000000;fill-opacity:1;fill-rule:nonzero;stroke:none;font-family:Arial Black;-inkscape-font-specification:Arial"
         x="0 4.3319998"
         y="0"
         sodipodi:role="line"
         id="tspan3417">CH</tspan></text>
<path
       d="m 310.02,210.6 9.06,9 0,18 -9.06,-9 0,-18 z"
       style="fill:#c0c0c0;fill-opacity:1;fill-rule:nonzero;stroke:#000000;stroke-width:0.36000001;stroke-linecap:round;stroke-linejoin:round;stroke-miterlimit:10;stroke-opacity:1;stroke-dasharray:none"
       id="path3419"
       inkscape:connector-curvature="0" /><path
       d="m 274.02,210.6 36,0 0,18 -36,0 0,-18 z"
       style="fill:#ffffff;fill-opacity:1;fill-rule:nonzero;stroke:#000000;stroke-width:0.36000001;stroke-linecap:round;stroke-linejoin:round;stroke-miterlimit:10;stroke-opacity:1;stroke-dasharray:none"
       id="path3421"
       inkscape:connector-curvature="0" /><text
       transform="matrix(0.99698333,0,0,-1,287.7,217.8)"
       id="text3423"><tspan
         style="font-size:6px;font-variant:normal;font-weight:normal;writing-mode:lr-tb;fill:#000000;fill-opacity:1;fill-rule:nonzero;stroke:none;font-family:Arial Black;-inkscape-font-specification:Arial"
         x="0 4.3319998"
         y="0"
         sodipodi:role="line"
         id="tspan3425">DH</tspan></text>
<path
       d="m 310.02,264.6 9.06,9 0,18 -9.06,-9 0,-18 z"
       style="fill:#c0c0c0;fill-opacity:1;fill-rule:nonzero;stroke:#000000;stroke-width:0.36000001;stroke-linecap:round;stroke-linejoin:round;stroke-miterlimit:10;stroke-opacity:1;stroke-dasharray:none"
       id="path3427"
       inkscape:connector-curvature="0" /><path
       d="m 274.02,282.6 36,0 9.06,9 -36.06,0 -9,-9 z"
       style="fill:#c0c0c0;fill-opacity:1;fill-rule:nonzero;stroke:#000000;stroke-width:0.36000001;stroke-linecap:round;stroke-linejoin:round;stroke-miterlimit:10;stroke-opacity:1;stroke-dasharray:none"
       id="path3429"
       inkscape:connector-curvature="0" /><path
       d="m 274.02,264.6 36,0 0,18 -36,0 0,-18 z"
       style="fill:#ffffff;fill-opacity:1;fill-rule:nonzero;stroke:#000000;stroke-width:0.36000001;stroke-linecap:round;stroke-linejoin:round;stroke-miterlimit:10;stroke-opacity:1;stroke-dasharray:none"
       id="path3431"
       inkscape:connector-curvature="0" /><text
       transform="matrix(0.99698333,0,0,-1,287.82,271.8)"
       id="text3433"><tspan
         style="font-size:6px;font-variant:normal;font-weight:normal;writing-mode:lr-tb;fill:#000000;fill-opacity:1;fill-rule:nonzero;stroke:none;font-family:Arial Black;-inkscape-font-specification:Arial"
         x="0 4.0019999"
         y="0"
         sodipodi:role="line"
         id="tspan3435">AH</tspan></text>
<path
       d="m 346.08,138.6 9,9 0,18 -9,-9 0,-18 z"
       style="fill:#c0c0c0;fill-opacity:1;fill-rule:nonzero;stroke:#000000;stroke-width:0.36000001;stroke-linecap:round;stroke-linejoin:round;stroke-miterlimit:10;stroke-opacity:1;stroke-dasharray:none"
       id="path3437"
       inkscape:connector-curvature="0" /><path
       d="m 202.02,138.6 144.06,0 0,18 -144.06,0 0,-18 z"
       style="fill:#ffffff;fill-opacity:1;fill-rule:nonzero;stroke:#000000;stroke-width:0.36000001;stroke-linecap:round;stroke-linejoin:round;stroke-miterlimit:10;stroke-opacity:1;stroke-dasharray:none"
       id="path3439"
       inkscape:connector-curvature="0" /><text
       transform="matrix(0.99830846,0,0,-1,207.44268,145.2)"
       id="text3441"><tspan
         style="font-size:8.03999996px;font-variant:normal;font-weight:bold;writing-mode:lr-tb;fill:#000000;fill-opacity:1;fill-rule:nonzero;stroke:none;font-family:Arial Black;-inkscape-font-specification:Arial Bold"
         x="0 5.36268 11.16756"
         y="0"
         sodipodi:role="line"
         id="tspan3443">EBP</tspan></text>
<text
       transform="matrix(0.99698333,0,0,-1,274.86,145.2)"
       id="text3445"><tspan
         style="font-size:6px;font-style:italic;font-variant:normal;writing-mode:lr-tb;fill:#000000;fill-opacity:1;fill-rule:nonzero;stroke:none;font-family:Arial Black;-inkscape-font-specification:Arial Italic"
         x="0 4.0019999 7.3379998 10.338 13.674 15.342 19.344 22.68 24.011999 27.348 29.016001 32.352001"
         y="0"
         sodipodi:role="line"
         id="tspan3447">Base Pointer</tspan></text>
<path
       d="m 346.08,192.6 9,9 0,18 -9,-9 0,-18 z"
       style="fill:#c0c0c0;fill-opacity:1;fill-rule:nonzero;stroke:#000000;stroke-width:0.36000001;stroke-linecap:round;stroke-linejoin:round;stroke-miterlimit:10;stroke-opacity:1;stroke-dasharray:none"
       id="path3449"
       inkscape:connector-curvature="0" /><path
       d="m 202.02,192.6 144.06,0 0,18 -144.06,0 0,-18 z"
       style="fill:#ffffff;fill-opacity:1;fill-rule:nonzero;stroke:#000000;stroke-width:0.36000001;stroke-linecap:round;stroke-linejoin:round;stroke-miterlimit:10;stroke-opacity:1;stroke-dasharray:none"
       id="path3451"
       inkscape:connector-curvature="0" /><text
       transform="matrix(0.99830846,0,0,-1,267.42,199.2001)"
       id="text3453"><tspan
         style="font-size:8.03999996px;font-variant:normal;font-weight:bold;writing-mode:lr-tb;fill:#000000;fill-opacity:1;fill-rule:nonzero;stroke:none;font-family:Arial Black;-inkscape-font-specification:Arial Bold"
         x="0 5.36268 10.72536"
         y="0"
         sodipodi:role="line"
         id="tspan3455">ESI</tspan></text>
<path
       d="m 346.08,156.6 9,9 0,18 -9,-9 0,-18 z"
       style="fill:#c0c0c0;fill-opacity:1;fill-rule:nonzero;stroke:#000000;stroke-width:0.36000001;stroke-linecap:round;stroke-linejoin:round;stroke-miterlimit:10;stroke-opacity:1;stroke-dasharray:none"
       id="path3457"
       inkscape:connector-curvature="0" /><path
       d="m 202.02,156.6 144.06,0 0,18 -144.06,0 0,-18 z"
       style="fill:#ffffff;fill-opacity:1;fill-rule:nonzero;stroke:#000000;stroke-width:0.36000001;stroke-linecap:round;stroke-linejoin:round;stroke-miterlimit:10;stroke-opacity:1;stroke-dasharray:none"
       id="path3459"
       inkscape:connector-curvature="0" /><text
       transform="matrix(0.99830846,0,0,-1,207.44268,163.2)"
       id="text3461"><tspan
         style="font-size:8.03999996px;font-variant:normal;font-weight:bold;writing-mode:lr-tb;fill:#000000;fill-opacity:1;fill-rule:nonzero;stroke:none;font-family:Arial Black;-inkscape-font-specification:Arial Bold"
         x="0 5.36268 10.72536"
         y="0"
         sodipodi:role="line"
         id="tspan3463">ESP</tspan></text>
<text
       transform="matrix(0.99698333,0,0,-1,274.14,163.2)"
       id="text3465"><tspan
         style="font-size:6px;font-style:italic;font-variant:normal;writing-mode:lr-tb;fill:#000000;fill-opacity:1;fill-rule:nonzero;stroke:none;font-family:Arial Black;-inkscape-font-specification:Arial Italic"
         x="0 4.0019999 5.6700001 9.0059996 12.006 15.006 16.674 20.676001 24.011999 25.344 28.68 30.348 33.683998"
         y="0"
         sodipodi:role="line"
         id="tspan3467">Stack Pointer</tspan></text>
<path
       d="m 346.08,174.6 9,9 0,18 -9,-9 0,-18 z"
       style="fill:#c0c0c0;fill-opacity:1;fill-rule:nonzero;stroke:#000000;stroke-width:0.36000001;stroke-linecap:round;stroke-linejoin:round;stroke-miterlimit:10;stroke-opacity:1;stroke-dasharray:none"
       id="path3469"
       inkscape:connector-curvature="0" /><path
       d="m 202.02,174.6 144.06,0 0,18 -144.06,0 0,-18 z"
       style="fill:#ffffff;fill-opacity:1;fill-rule:nonzero;stroke:#000000;stroke-width:0.36000001;stroke-linecap:round;stroke-linejoin:round;stroke-miterlimit:10;stroke-opacity:1;stroke-dasharray:none"
       id="path3471"
       inkscape:connector-curvature="0" /><text
       transform="matrix(0.99830846,0,0,-1,267.3,181.2)"
       id="text3473"><tspan
         style="font-size:8.03999996px;font-variant:normal;font-weight:bold;writing-mode:lr-tb;fill:#000000;fill-opacity:1;fill-rule:nonzero;stroke:none;font-family:Arial Black;-inkscape-font-specification:Arial Bold"
         x="0 5.36268 11.16756"
         y="0"
         sodipodi:role="line"
         id="tspan3475">EDI</tspan></text>
<path
       d="m 346.08,210.6 9,9 0,18 -9,-9 0,-18 z"
       style="fill:#c0c0c0;fill-opacity:1;fill-rule:nonzero;stroke:#000000;stroke-width:0.36000001;stroke-linecap:round;stroke-linejoin:round;stroke-miterlimit:10;stroke-opacity:1;stroke-dasharray:none"
       id="path3477"
       inkscape:connector-curvature="0" /><path
       d="m 310.02,210.6 36.06,0 0,18 -36.06,0 0,-18 z"
       style="fill:#ffffff;fill-opacity:1;fill-rule:nonzero;stroke:#000000;stroke-width:0.36000001;stroke-linecap:round;stroke-linejoin:round;stroke-miterlimit:10;stroke-opacity:1;stroke-dasharray:none"
       id="path3479"
       inkscape:connector-curvature="0" /><text
       transform="matrix(0.99698333,0,0,-1,324.24,217.8)"
       id="text3481"><tspan
         style="font-size:6px;font-variant:normal;font-weight:normal;writing-mode:lr-tb;fill:#000000;fill-opacity:1;fill-rule:nonzero;stroke:none;font-family:Arial Black;-inkscape-font-specification:Arial"
         x="0 4.3319998"
         y="0"
         sodipodi:role="line"
         id="tspan3483">DL</tspan></text>
<path
       d="m 346.08,228.6 9,9 0,18 -9,-9 0,-18 z"
       style="fill:#c0c0c0;fill-opacity:1;fill-rule:nonzero;stroke:#000000;stroke-width:0.36000001;stroke-linecap:round;stroke-linejoin:round;stroke-miterlimit:10;stroke-opacity:1;stroke-dasharray:none"
       id="path3485"
       inkscape:connector-curvature="0" /><path
       d="m 310.02,228.6 36.06,0 0,18 -36.06,0 0,-18 z"
       style="fill:#ffffff;fill-opacity:1;fill-rule:nonzero;stroke:#000000;stroke-width:0.36000001;stroke-linecap:round;stroke-linejoin:round;stroke-miterlimit:10;stroke-opacity:1;stroke-dasharray:none"
       id="path3487"
       inkscape:connector-curvature="0" /><text
       transform="matrix(0.99698333,0,0,-1,324.24,235.8)"
       id="text3489"><tspan
         style="font-size:6px;font-variant:normal;font-weight:normal;writing-mode:lr-tb;fill:#000000;fill-opacity:1;fill-rule:nonzero;stroke:none;font-family:Arial Black;-inkscape-font-specification:Arial"
         x="0 4.3319998"
         y="0"
         sodipodi:role="line"
         id="tspan3491">CL</tspan></text>
<path
       d="m 346.08,246.6 9,9 0,18 -9,-9 0,-18 z"
       style="fill:#c0c0c0;fill-opacity:1;fill-rule:nonzero;stroke:#000000;stroke-width:0.36000001;stroke-linecap:round;stroke-linejoin:round;stroke-miterlimit:10;stroke-opacity:1;stroke-dasharray:none"
       id="path3493"
       inkscape:connector-curvature="0" /><path
       d="m 310.02,246.6 36.06,0 0,18 -36.06,0 0,-18 z"
       style="fill:#ffffff;fill-opacity:1;fill-rule:nonzero;stroke:#000000;stroke-width:0.36000001;stroke-linecap:round;stroke-linejoin:round;stroke-miterlimit:10;stroke-opacity:1;stroke-dasharray:none"
       id="path3495"
       inkscape:connector-curvature="0" /><text
       transform="matrix(0.99698333,0,0,-1,324.36,253.8)"
       id="text3497"><tspan
         style="font-size:6px;font-variant:normal;font-weight:normal;writing-mode:lr-tb;fill:#000000;fill-opacity:1;fill-rule:nonzero;stroke:none;font-family:Arial Black;-inkscape-font-specification:Arial"
         x="0 4.0019999"
         y="0"
         sodipodi:role="line"
         id="tspan3499">BL</tspan></text>
<path
       d="m 346.08,264.6 9,9 0,18 -9,-9 0,-18 z"
       style="fill:#c0c0c0;fill-opacity:1;fill-rule:nonzero;stroke:#000000;stroke-width:0.36000001;stroke-linecap:round;stroke-linejoin:round;stroke-miterlimit:10;stroke-opacity:1;stroke-dasharray:none"
       id="path3501"
       inkscape:connector-curvature="0" /><path
       d="m 310.02,282.6 36.06,0 9,9 -36,0 -9.06,-9 z"
       style="fill:#c0c0c0;fill-opacity:1;fill-rule:nonzero;stroke:#000000;stroke-width:0.36000001;stroke-linecap:round;stroke-linejoin:round;stroke-miterlimit:10;stroke-opacity:1;stroke-dasharray:none"
       id="path3503"
       inkscape:connector-curvature="0" /><path
       d="m 310.02,264.6 36.06,0 0,18 -36.06,0 0,-18 z"
       style="fill:#ffffff;fill-opacity:1;fill-rule:nonzero;stroke:#000000;stroke-width:0.36000001;stroke-linecap:round;stroke-linejoin:round;stroke-miterlimit:10;stroke-opacity:1;stroke-dasharray:none"
       id="path3505"
       inkscape:connector-curvature="0" /><text
       transform="matrix(0.99698333,0,0,-1,324.36,271.8)"
       id="text3507"><tspan
         style="font-size:6px;font-variant:normal;font-weight:normal;writing-mode:lr-tb;fill:#000000;fill-opacity:1;fill-rule:nonzero;stroke:none;font-family:Arial Black;-inkscape-font-specification:Arial"
         x="0 4.0019999"
         y="0"
         sodipodi:role="line"
         id="tspan3509">AL</tspan></text>
<text
       transform="matrix(1,0,0,-0.98560816,304.74,271.2)"
       id="text3511"><tspan
         style="font-size:8.15740013px;font-variant:normal;font-weight:normal;writing-mode:lr-tb;fill:#000000;fill-opacity:1;fill-rule:nonzero;stroke:none;font-family:Arial Black;-inkscape-font-specification:Arial"
         x="0 5.4409857"
         y="0"
         sodipodi:role="line"
         id="tspan3513">AX</tspan><tspan
         style="font-size:8.15740013px;font-variant:normal;font-weight:normal;writing-mode:lr-tb;fill:#000000;fill-opacity:1;fill-rule:nonzero;stroke:none;font-family:Arial Black;-inkscape-font-specification:Arial"
         x="0 5.4409857"
         y="18.262787"
         sodipodi:role="line"
         id="tspan3515">BX</tspan><tspan
         style="font-size:8.15740013px;font-variant:normal;font-weight:normal;writing-mode:lr-tb;fill:#000000;fill-opacity:1;fill-rule:nonzero;stroke:none;font-family:Arial Black;-inkscape-font-specification:Arial"
         x="-0.23982756 5.6498151"
         y="36.525574"
         sodipodi:role="line"
         id="tspan3517">CX</tspan><tspan
         style="font-size:8.15740013px;font-variant:normal;font-weight:normal;writing-mode:lr-tb;fill:#000000;fill-opacity:1;fill-rule:nonzero;stroke:none;font-family:Arial Black;-inkscape-font-specification:Arial"
         x="-0.23982756 5.6498151"
         y="54.788361"
         sodipodi:role="line"
         id="tspan3519">DX</tspan></text>
<text
       transform="matrix(0.99830846,0,0,-1,265.74,235.2001)"
       id="text3521"><tspan
         style="font-size:8.03999996px;font-variant:normal;font-weight:bold;writing-mode:lr-tb;fill:#000000;fill-opacity:1;fill-rule:nonzero;stroke:none;font-family:Arial Black;-inkscape-font-specification:Arial Bold"
         x="0 5.36268 11.16756"
         y="0"
         sodipodi:role="line"
         id="tspan3523">ECX</tspan><tspan
         style="font-size:8.03999996px;font-variant:normal;font-weight:bold;writing-mode:lr-tb;fill:#000000;fill-opacity:1;fill-rule:nonzero;stroke:none;font-family:Arial Black;-inkscape-font-specification:Arial Bold"
         x="0.1206 5.4832802 11.28816"
         y="-35.999905"
         sodipodi:role="line"
         id="tspan3525">EAX</tspan><tspan
         style="font-size:8.03999996px;font-variant:normal;font-weight:bold;writing-mode:lr-tb;fill:#000000;fill-opacity:1;fill-rule:nonzero;stroke:none;font-family:Arial Black;-inkscape-font-specification:Arial Bold"
         x="0 5.36268 11.16756"
         y="-17.999952"
         sodipodi:role="line"
         id="tspan3527">EBX</tspan><tspan
         style="font-size:8.03999996px;font-variant:normal;font-weight:bold;writing-mode:lr-tb;fill:#000000;fill-opacity:1;fill-rule:nonzero;stroke:none;font-family:Arial Black;-inkscape-font-specification:Arial Bold"
         x="0 5.36268 11.16756"
         y="17.999952"
         sodipodi:role="line"
         id="tspan3529">EDX</tspan></text>
<path
       d="m 206.58,302.76 0,-4.44 -4.56,2.28 4.56,2.16 z m 135.06,0 0,-4.44 4.44,2.28 -4.44,2.16 z"
       style="fill:#000000;fill-opacity:1;fill-rule:nonzero;stroke:#000000;stroke-width:0.36000001;stroke-linecap:round;stroke-linejoin:round;stroke-miterlimit:10;stroke-opacity:1;stroke-dasharray:none"
       id="path3531"
       inkscape:connector-curvature="0" /><path
       d="m 206.58,300.6 135.06,0"
       style="fill:none;stroke:#000000;stroke-width:0.36000001;stroke-linecap:round;stroke-linejoin:round;stroke-miterlimit:10;stroke-opacity:1;stroke-dasharray:none"
       id="path3533"
       inkscape:connector-curvature="0" /><path
       d="m 261.42,306.12 25.2,0 0,-11.04 -25.2,0 0,11.04 z"
       style="fill:#ffffff;fill-opacity:1;fill-rule:nonzero;stroke:none"
       id="path3535"
       inkscape:connector-curvature="0" /><text
       transform="matrix(1,0,0,-0.98560816,262.14,298.2001)"
       id="text3537"><tspan
         style="font-size:8.15740013px;font-variant:normal;font-weight:normal;writing-mode:lr-tb;fill:#000000;fill-opacity:1;fill-rule:nonzero;stroke:none;font-family:Arial Black;-inkscape-font-specification:Arial"
         x="0 4.5355144 9.0710287 11.338786 15.8743 17.685244 19.953001"
         y="0"
         sodipodi:role="line"
         id="tspan3539">32 bits</tspan></text>
<path
       d="m 278.58,311.76 0,-4.44 -4.56,2.28 4.56,2.16 z m 63.06,0 0,-4.44 4.44,2.28 -4.44,2.16 z"
       style="fill:#000000;fill-opacity:1;fill-rule:nonzero;stroke:#000000;stroke-width:0.36000001;stroke-linecap:round;stroke-linejoin:round;stroke-miterlimit:10;stroke-opacity:1;stroke-dasharray:none"
       id="path3541"
       inkscape:connector-curvature="0" /><path
       d="m 278.58,309.6 63.06,0"
       style="fill:none;stroke:#000000;stroke-width:0.36000001;stroke-linecap:round;stroke-linejoin:round;stroke-miterlimit:10;stroke-opacity:1;stroke-dasharray:none"
       id="path3543"
       inkscape:connector-curvature="0" /><path
       d="m 297.42,315.12 25.26,0 0,-11.04 -25.26,0 0,11.04 z"
       style="fill:#ffffff;fill-opacity:1;fill-rule:nonzero;stroke:none"
       id="path3545"
       inkscape:connector-curvature="0" /><text
       transform="matrix(1,0,0,-0.98560816,298.14,307.2)"
       id="text3547"><tspan
         style="font-size:8.15740013px;font-variant:normal;font-weight:normal;writing-mode:lr-tb;fill:#000000;fill-opacity:1;fill-rule:nonzero;stroke:none;font-family:Arial Black;-inkscape-font-specification:Arial"
         x="0 4.5355144 9.0710287 11.338786 15.8743 17.685244 19.953001"
         y="0"
         sodipodi:role="line"
         id="tspan3549">16 bits</tspan></text>
<path
       d="m 314.64,320.76 0,-4.44 -4.62,2.28 4.62,2.16 z m 27,0 0,-4.44 4.44,2.28 -4.44,2.16 z"
       style="fill:#000000;fill-opacity:1;fill-rule:nonzero;stroke:#000000;stroke-width:0.36000001;stroke-linecap:round;stroke-linejoin:round;stroke-miterlimit:10;stroke-opacity:1;stroke-dasharray:none"
       id="path3551"
       inkscape:connector-curvature="0" /><path
       d="m 314.64,318.6 27,0"
       style="fill:none;stroke:#000000;stroke-width:0.36000001;stroke-linecap:round;stroke-linejoin:round;stroke-miterlimit:10;stroke-opacity:1;stroke-dasharray:none"
       id="path3553"
       inkscape:connector-curvature="0" /><path
       d="m 317.64,324.12 20.76,0 0,-11.04 -20.76,0 0,11.04 z"
       style="fill:#ffffff;fill-opacity:1;fill-rule:nonzero;stroke:none"
       id="path3555"
       inkscape:connector-curvature="0" /><text
       transform="matrix(1,0,0,-0.98560816,318.36,316.2)"
       id="text3557"><tspan
         style="font-size:8.15740013px;font-variant:normal;font-weight:normal;writing-mode:lr-tb;fill:#000000;fill-opacity:1;fill-rule:nonzero;stroke:none;font-family:Arial Black;-inkscape-font-specification:Arial"
         x="0 4.5355144 6.8032718 11.338786 13.149729 15.417486"
         y="0"
         sodipodi:role="line"
         id="tspan3559">8 bits</tspan></text>
<path
       d="m 278.58,320.76 0,-4.44 -4.56,2.28 4.56,2.16 z m 27,0 0,-4.44 4.44,2.28 -4.44,2.16 z"
       style="fill:#000000;fill-opacity:1;fill-rule:nonzero;stroke:#000000;stroke-width:0.36000001;stroke-linecap:round;stroke-linejoin:round;stroke-miterlimit:10;stroke-opacity:1;stroke-dasharray:none"
       id="path3561"
       inkscape:connector-curvature="0" /><path
       d="m 278.58,318.6 27,0"
       style="fill:none;stroke:#000000;stroke-width:0.36000001;stroke-linecap:round;stroke-linejoin:round;stroke-miterlimit:10;stroke-opacity:1;stroke-dasharray:none"
       id="path3563"
       inkscape:connector-curvature="0" /><path
       d="m 281.58,324.12 20.76,0 0,-11.04 -20.76,0 0,11.04 z"
       style="fill:#ffffff;fill-opacity:1;fill-rule:nonzero;stroke:none"
       id="path3565"
       inkscape:connector-curvature="0" /><text
       transform="matrix(1,0,0,-0.98560816,282.3,316.2)"
       id="text3567"><tspan
         style="font-size:8.15740013px;font-variant:normal;font-weight:normal;writing-mode:lr-tb;fill:#000000;fill-opacity:1;fill-rule:nonzero;stroke:none;font-family:Arial Black;-inkscape-font-specification:Arial"
         x="0 4.5355144 6.8032718 11.338786 13.149729 15.417486"
         y="0"
         sodipodi:role="line"
         id="tspan3569">8 bits</tspan></text>
<path
       d="m 202.02,300.6 0,-0.24 m 0,-1.2 0,-0.24 m 0,-1.2 0,-0.24 m 0,-1.2 0,-0.24 m 0,-1.2 0,-0.24 m 0,-1.2 0,-0.24 m 0,-1.2 0,-0.24 m 0,-1.2 0,-0.24 m 0,-1.2 0,-0.24 m 0,-1.2 0,-0.24 m 0,-1.2 0,-0.24 m 0,-1.2 0,-0.24 m 0,-1.2 0,-0.24 m 0,-1.2 0,-0.24 m 0,-1.2 0,-0.24 m 0,-1.2 0,-0.24 m 144.06,39.84 0,-0.24 m 0,-1.2 0,-0.24 m 0,-1.2 0,-0.24 m 0,-1.2 0,-0.24 m 0,-1.2 0,-0.24 m 0,-1.2 0,-0.24 m 0,-1.2 0,-0.24 m 0,-1.2 0,-0.24 m 0,-1.2 0,-0.24 m 0,-1.2 0,-0.24 m 0,-1.2 0,-0.24 m 0,-1.2 0,-0.24 m 0,-1.2 0,-0.24 m 0,-1.2 0,-0.24 m 0,-1.2 0,-0.24 m 0,-1.2 0,-0.24 m 0,-1.2 0,-0.24 m 0,-1.2 0,-0.24 m 0,-1.2 0,-0.24 m 0,-1.2 0,-0.24 m 0,-1.2 0,-0.24 m 0,-1.2 0,-0.24 m 0,-1.2 0,-0.24 m 0,-1.2 0,-0.24 m 0,-1.2 0,-0.24 m -72.06,34.8 0,-0.24 m 0,-1.2 0,-0.24 m 0,-1.2 0,-0.24 m 0,-1.2 0,-0.24 m 0,-1.2 0,-0.24 m 0,-1.2 0,-0.24 m 0,-1.2 0,-0.24 m 0,-1.2 0,-0.24 m 0,-1.2 0,-0.24 m 0,-1.2 0,-0.24 m 0,-1.2 0,-0.24 m 0,-1.2 0,-0.24 m 0,-1.2 0,-0.24 m 0,-1.2 0,-0.24 m 0,-1.2 0,-0.24 m 0,-1.2 0,-0.24 m 0,-1.2 0,-0.24 m 0,-1.2 0,-0.24 m 0,-1.2 0,-0.24 m 0,-1.2 0,-0.24 m 0,-1.2 0,-0.24 m 0,-1.2 0,-0.24 m 0,-1.2 0,-0.24"
       style="fill:none;stroke:#000000;stroke-width:0.36000001;stroke-linecap:round;stroke-linejoin:round;stroke-miterlimit:10;stroke-opacity:1;stroke-dasharray:none"
       id="path3571"
       inkscape:connector-curvature="0" /><path
       d="m 274.02,285.48 0,-0.24 m 0,-1.2 0,-0.24 m 76.62,-5.76 49.44,-49.44 m -49.44,-40.56 49.44,40.56"
       style="fill:none;stroke:#000000;stroke-width:0.36000001;stroke-linecap:round;stroke-linejoin:round;stroke-miterlimit:10;stroke-opacity:1;stroke-dasharray:none"
       id="path3573"
       inkscape:connector-curvature="0" /><text
       transform="matrix(1,0,0,-0.98560816,397.08,231)"
       id="text3575"><tspan
         style="font-size:8.15740013px;font-style:italic;font-variant:normal;writing-mode:lr-tb;fill:#000000;fill-opacity:1;fill-rule:nonzero;stroke:none;font-family:Arial Black;-inkscape-font-specification:Arial Italic"
         x="0 6.346457 10.881971 15.417486 19.953001 22.669415 27.204929 29.015871 31.732286 36.267799 40.803314 43.51973 48.055244 52.590759 56.669456"
         y="0"
         sodipodi:role="line"
         id="tspan3577">General-purpose</tspan><tspan
         style="font-size:8.15740013px;font-style:italic;font-variant:normal;writing-mode:lr-tb;fill:#000000;fill-opacity:1;fill-rule:nonzero;stroke:none;font-family:Arial Black;-inkscape-font-specification:Arial Italic"
         x="12.959661 18.849304 23.384819 27.920334 29.731276 33.809975 36.077732 40.613247 43.329662"
         y="9.7399359"
         sodipodi:role="line"
         id="tspan3579">Registers</tspan></text>
<path
       d="m 310.02,318.6 0,-0.24 m 0,-1.2 0,-0.24 m 0,-1.2 0,-0.24 m 0,-1.2 0,-0.24 m 0,-1.2 0,-0.24 m 0,-1.2 0,-0.24 m 0,-1.2 0,-0.24 m 0,-1.2 0,-0.24 m 0,-1.2 0,-0.24 m 0,-1.2 0,-0.24 m 0,-1.2 0,-0.24 m 0,-1.2 0,-0.24 m 0,-1.2 0,-0.24 m 0,-1.2 0,-0.24 m 0,-1.2 0,-0.24 m 0,-1.2 0,-0.24 m 0,-1.2 0,-0.24 m 0,-1.2 0,-0.24 m 0,-1.2 0,-0.24 m 0,-1.2 0,-0.24 m 0,-1.2 0,-0.24 m 0,-1.2 0,-0.24 m 0,-1.2 0,-0.24 m 0,-1.2 0,-0.24 m 0,-1.2 0,-0.24"
       style="fill:none;stroke:#000000;stroke-width:0.36000001;stroke-linecap:round;stroke-linejoin:round;stroke-miterlimit:10;stroke-opacity:1;stroke-dasharray:none"
       id="path3581"
       inkscape:connector-curvature="0" /></g></svg>