<?xml version="1.0" encoding="UTF-8" standalone="no"?>
<!-- Created with Inkscape (http://www.inkscape.org/) -->

<svg
   xmlns:dc="http://purl.org/dc/elements/1.1/"
   xmlns:cc="http://creativecommons.org/ns#"
   xmlns:rdf="http://www.w3.org/1999/02/22-rdf-syntax-ns#"
   xmlns:svg="http://www.w3.org/2000/svg"
   xmlns="http://www.w3.org/2000/svg"
   xmlns:sodipodi="http://sodipodi.sourceforge.net/DTD/sodipodi-0.dtd"
   xmlns:inkscape="http://www.inkscape.org/namespaces/inkscape"
   id="svg2"
   version="1.1"
   inkscape:version="0.48.2 r9819"
   width="565.7207"
   height="178.5"
   xml:space="preserve"
   sodipodi:docname="adjacency-list.svg"><metadata
     id="metadata8"><rdf:RDF><cc:Work
         rdf:about=""><dc:format>image/svg+xml</dc:format><dc:type
           rdf:resource="http://purl.org/dc/dcmitype/StillImage" /><dc:title /></cc:Work></rdf:RDF></metadata><defs
     id="defs6"><clipPath
       clipPathUnits="userSpaceOnUse"
       id="clipPath16"><path
         d="m 0,1.2207e-4 720,0 0,539.99999793 -720,0 L 0,1.2207e-4 z"
         clip-rule="evenodd"
         id="path18"
         inkscape:connector-curvature="0" /></clipPath></defs><sodipodi:namedview
     pagecolor="#ffffff"
     bordercolor="#666666"
     borderopacity="1"
     objecttolerance="10"
     gridtolerance="10"
     guidetolerance="10"
     inkscape:pageopacity="0"
     inkscape:pageshadow="2"
     inkscape:window-width="2560"
     inkscape:window-height="1552"
     id="namedview4"
     showgrid="false"
     fit-margin-top="10"
     fit-margin-left="10"
     fit-margin-right="10"
     fit-margin-bottom="10"
     inkscape:zoom="1.5"
     inkscape:cx="292.47068"
     inkscape:cy="70.083333"
     inkscape:window-x="0"
     inkscape:window-y="0"
     inkscape:window-maximized="1"
     inkscape:current-layer="g10" /><g
     id="g10"
     inkscape:groupmode="layer"
     inkscape:label="13-graphs-tmp"
     transform="matrix(1.25,0,0,-1.25,-325.52932,446.25)"><rect
   style="fill:#ffffff;fill-opacity:1;stroke:none"
   id="rect3155"
   width="452.57599"
   height="142.8"
   x="260.42346"
   y="-357"
   transform="scale(1,-1)" /><path
   d="m 296,348.5 0,-125.8"
   style="fill:none;stroke:#000000;stroke-width:1;stroke-linecap:butt;stroke-linejoin:round;stroke-miterlimit:10;stroke-opacity:1;stroke-dasharray:none"
   id="path46"
   inkscape:connector-curvature="0" /><path
   d="m 295.5,316.8 45,0"
   style="fill:none;stroke:#000000;stroke-width:1;stroke-linecap:butt;stroke-linejoin:round;stroke-miterlimit:10;stroke-opacity:1;stroke-dasharray:none"
   id="path48"
   inkscape:connector-curvature="0" /><path
   d="m 295.5,285.6 45,0"
   style="fill:none;stroke:#000000;stroke-width:1;stroke-linecap:butt;stroke-linejoin:round;stroke-miterlimit:10;stroke-opacity:1;stroke-dasharray:none"
   id="path50"
   inkscape:connector-curvature="0" /><path
   d="m 295.5,254.4 45,0"
   style="fill:none;stroke:#000000;stroke-width:1;stroke-linecap:butt;stroke-linejoin:round;stroke-miterlimit:10;stroke-opacity:1;stroke-dasharray:none"
   id="path52"
   inkscape:connector-curvature="0" /><path
   d="m 340,348.5 0,-125.8"
   style="fill:none;stroke:#000000;stroke-width:1;stroke-linecap:butt;stroke-linejoin:round;stroke-miterlimit:10;stroke-opacity:1;stroke-dasharray:none"
   id="path54"
   inkscape:connector-curvature="0" /><path
   d="m 295.5,348 45,0"
   style="fill:none;stroke:#000000;stroke-width:1;stroke-linecap:butt;stroke-linejoin:round;stroke-miterlimit:10;stroke-opacity:1;stroke-dasharray:none"
   id="path56"
   inkscape:connector-curvature="0" /><path
   d="m 295.5,223.2 45,0"
   style="fill:none;stroke:#000000;stroke-width:1;stroke-linecap:butt;stroke-linejoin:round;stroke-miterlimit:10;stroke-opacity:1;stroke-dasharray:none"
   id="path58"
   inkscape:connector-curvature="0" /><text
   transform="matrix(1,0,0,-1,267.67,324.55)"
   id="text60"><tspan
     style="font-size:20.04000092px;font-variant:normal;font-weight:normal;writing-mode:lr-tb;fill:#000000;fill-opacity:1;fill-rule:nonzero;stroke:none;font-family:Verdana;-inkscape-font-specification:Verdana"
     x="0"
     y="0"
     id="tspan62">1</tspan></text>

<text
   transform="matrix(1,0,0,-1,267.67,293.33)"
   id="text64"><tspan
     style="font-size:20.06399918px;font-variant:normal;font-weight:normal;writing-mode:lr-tb;fill:#000000;fill-opacity:1;fill-rule:nonzero;stroke:none;font-family:Verdana;-inkscape-font-specification:Verdana"
     x="0"
     y="0"
     id="tspan66">2</tspan></text>

<text
   transform="matrix(1,0,0,-1,267.67,262.13)"
   id="text68"><tspan
     style="font-size:20.04000092px;font-variant:normal;font-weight:normal;writing-mode:lr-tb;fill:#000000;fill-opacity:1;fill-rule:nonzero;stroke:none;font-family:Verdana;-inkscape-font-specification:Verdana"
     x="0"
     y="0"
     id="tspan70">3</tspan></text>

<text
   transform="matrix(1,0,0,-1,267.67,230.93)"
   id="text72"><tspan
     style="font-size:20.04000092px;font-variant:normal;font-weight:normal;writing-mode:lr-tb;fill:#000000;fill-opacity:1;fill-rule:nonzero;stroke:none;font-family:Verdana;-inkscape-font-specification:Verdana"
     x="0"
     y="0"
     id="tspan74">4</tspan></text>

<path
   d="m 339.99,332.87 39,0.89 0.02,-1 -39,-0.88 -0.02,0.99 z m 37.94,3.37 6.07,-2.86 -5.93,-3.14 -0.14,6 z"
   style="fill:#000000;fill-opacity:1;fill-rule:nonzero;stroke:none"
   id="path76"
   inkscape:connector-curvature="0" /><path
   d="m 339.99,301.75 39,0.55 0.02,-1 -39,-0.55 -0.02,1 z m 37.97,3.04 6.04,-2.91 -5.96,-3.09 -0.08,6 z"
   style="fill:#000000;fill-opacity:1;fill-rule:nonzero;stroke:none"
   id="path78"
   inkscape:connector-curvature="0" /><path
   d="m 340,270.63 12.5,0 0,-15.88 -1,0 0,15.38 0.5,-0.5 -12,0 0,1 z m 17,-15.88 c 0,-2.76 -2.24,-5 -5,-5 -2.76,0 -5,2.24 -5,5 0,2.76 2.24,5 5,5 2.76,0 5,-2.24 5,-5 z"
   style="fill:#000000;fill-opacity:1;fill-rule:nonzero;stroke:none"
   id="path80"
   inkscape:connector-curvature="0" /><path
   d="m 339.9,239.49 39.1,7.89 0.2,-0.98 -39.1,-7.89 -0.2,0.98 z m 37.63,10.14 6.47,-1.75 -5.29,-4.13 -1.18,5.88 z"
   style="fill:#000000;fill-opacity:1;fill-rule:nonzero;stroke:none"
   id="path82"
   inkscape:connector-curvature="0" /><path
   d="m 384,322.42 80,0 0,22.567 -80,0 0,-22.567 z"
   style="fill:none;stroke:#000000;stroke-width:0.75;stroke-linecap:butt;stroke-linejoin:miter;stroke-miterlimit:8;stroke-opacity:1;stroke-dasharray:none"
   id="path84"
   inkscape:connector-curvature="0" /><text
   transform="matrix(1,0,0,-1,401.9,324.55)"
   id="text86"><tspan
     style="font-size:20.04000092px;font-variant:normal;font-weight:normal;writing-mode:lr-tb;fill:#000000;fill-opacity:1;fill-rule:nonzero;stroke:none;font-family:Verdana;-inkscape-font-specification:Verdana"
     x="0"
     y="0"
     id="tspan88">2</tspan></text>

<path
   d="m 448,344.99 0,-22.57"
   style="fill:none;stroke:#000000;stroke-width:0.75;stroke-linecap:butt;stroke-linejoin:round;stroke-miterlimit:8;stroke-opacity:1;stroke-dasharray:none"
   id="path90"
   inkscape:connector-curvature="0" /><path
   d="m 464,334 27,0 0,-1 -27,0 0,1 z m 26,2.5 6,-3 -6,-3 0,6 z"
   style="fill:#000000;fill-opacity:1;fill-rule:nonzero;stroke:none"
   id="path92"
   inkscape:connector-curvature="0" /><path
   d="m 496,322.42 80,0 0,22.567 -80,0 0,-22.567 z"
   style="fill:none;stroke:#000000;stroke-width:0.75;stroke-linecap:butt;stroke-linejoin:miter;stroke-miterlimit:8;stroke-opacity:1;stroke-dasharray:none"
   id="path94"
   inkscape:connector-curvature="0" /><text
   transform="matrix(1,0,0,-1,513.91,324.55)"
   id="text96"><tspan
     style="font-size:20.04000092px;font-variant:normal;font-weight:normal;writing-mode:lr-tb;fill:#000000;fill-opacity:1;fill-rule:nonzero;stroke:none;font-family:Verdana;-inkscape-font-specification:Verdana"
     x="0"
     y="0"
     id="tspan98">3</tspan></text>

<path
   d="m 560,344.99 0,-22.57"
   style="fill:none;stroke:#000000;stroke-width:0.75;stroke-linecap:butt;stroke-linejoin:round;stroke-miterlimit:8;stroke-opacity:1;stroke-dasharray:none"
   id="path100"
   inkscape:connector-curvature="0" /><path
   d="m 576,334 27,0 0,-1 -27,0 0,1 z m 26,2.5 6,-3 -6,-3 0,6 z"
   style="fill:#000000;fill-opacity:1;fill-rule:nonzero;stroke:none"
   id="path102"
   inkscape:connector-curvature="0" /><path
   d="m 608,322.42 80,0 0,22.567 -80,0 0,-22.567 z"
   style="fill:none;stroke:#000000;stroke-width:0.75;stroke-linecap:butt;stroke-linejoin:miter;stroke-miterlimit:8;stroke-opacity:1;stroke-dasharray:none"
   id="path104"
   inkscape:connector-curvature="0" /><text
   transform="matrix(1,0,0,-1,625.94,324.55)"
   id="text106"><tspan
     style="font-size:20.04000092px;font-variant:normal;font-weight:normal;writing-mode:lr-tb;fill:#000000;fill-opacity:1;fill-rule:nonzero;stroke:none;font-family:Verdana;-inkscape-font-specification:Verdana"
     x="0"
     y="0"
     id="tspan108">4</tspan></text>

<path
   d="m 672,344.99 0,-22.57"
   style="fill:none;stroke:#000000;stroke-width:0.75;stroke-linecap:butt;stroke-linejoin:round;stroke-miterlimit:8;stroke-opacity:1;stroke-dasharray:none"
   id="path110"
   inkscape:connector-curvature="0" /><path
   d="m 688,334 12.5,0 0,-15.5 -1,0 0,15 0.5,-0.5 -12,0 0,1 z m 17,-15.5 c 0,-2.76 -2.24,-5 -5,-5 -2.76,0 -5,2.24 -5,5 0,2.76 2.24,5 5,5 2.76,0 5,-2.24 5,-5 z"
   style="fill:#000000;fill-opacity:1;fill-rule:nonzero;stroke:none"
   id="path112"
   inkscape:connector-curvature="0" /><path
   d="m 384,290.89 80,0 0,22.567 -80,0 0,-22.567 z"
   style="fill:none;stroke:#000000;stroke-width:0.75;stroke-linecap:butt;stroke-linejoin:miter;stroke-miterlimit:8;stroke-opacity:1;stroke-dasharray:none"
   id="path114"
   inkscape:connector-curvature="0" /><text
   transform="matrix(1,0,0,-1,401.9,293.28)"
   id="text116"><tspan
     style="font-size:20.06399918px;font-variant:normal;font-weight:normal;writing-mode:lr-tb;fill:#000000;fill-opacity:1;fill-rule:nonzero;stroke:none;font-family:Verdana;-inkscape-font-specification:Verdana"
     x="0"
     y="0"
     id="tspan118">3</tspan></text>

<path
   d="m 448,313.46 0,-22.57"
   style="fill:none;stroke:#000000;stroke-width:0.75;stroke-linecap:butt;stroke-linejoin:round;stroke-miterlimit:8;stroke-opacity:1;stroke-dasharray:none"
   id="path120"
   inkscape:connector-curvature="0" /><path
   d="m 464,302.5 12.5,0 0,-15.5 -1,0 0,15 0.5,-0.5 -12,0 0,1 z M 481,287 c 0,-2.76 -2.24,-5 -5,-5 -2.76,0 -5,2.24 -5,5 0,2.76 2.24,5 5,5 2.76,0 5,-2.24 5,-5 z"
   style="fill:#000000;fill-opacity:1;fill-rule:nonzero;stroke:none"
   id="path122"
   inkscape:connector-curvature="0" /><path
   d="m 384,236.92 80,0 0,22.567 -80,0 0,-22.567 z"
   style="fill:none;stroke:#000000;stroke-width:0.75;stroke-linecap:butt;stroke-linejoin:miter;stroke-miterlimit:8;stroke-opacity:1;stroke-dasharray:none"
   id="path124"
   inkscape:connector-curvature="0" /><text
   transform="matrix(1,0,0,-1,401.9,239.02)"
   id="text126"><tspan
     style="font-size:20.06399918px;font-variant:normal;font-weight:normal;writing-mode:lr-tb;fill:#000000;fill-opacity:1;fill-rule:nonzero;stroke:none;font-family:Verdana;-inkscape-font-specification:Verdana"
     x="0"
     y="0"
     id="tspan128">1</tspan></text>

<path
   d="m 448,259.49 0,-22.57"
   style="fill:none;stroke:#000000;stroke-width:0.75;stroke-linecap:butt;stroke-linejoin:round;stroke-miterlimit:8;stroke-opacity:1;stroke-dasharray:none"
   id="path130"
   inkscape:connector-curvature="0" />
<path
   d="m 464,248.5 12.5,0 0,-15.5 -1,0 0,15 0.5,-0.5 -12,0 0,1 z M 481,233 c 0,-2.76 -2.24,-5 -5,-5 -2.76,0 -5,2.24 -5,5 0,2.76 2.24,5 5,5 2.76,0 5,-2.24 5,-5 z"
   style="fill:#000000;fill-opacity:1;fill-rule:nonzero;stroke:none"
   id="path142"
   inkscape:connector-curvature="0" /></g></svg>