<?xml version="1.0" encoding="UTF-8" standalone="no"?>
<!-- Created with Inkscape (http://www.inkscape.org/) -->

<svg
   xmlns:dc="http://purl.org/dc/elements/1.1/"
   xmlns:cc="http://creativecommons.org/ns#"
   xmlns:rdf="http://www.w3.org/1999/02/22-rdf-syntax-ns#"
   xmlns:svg="http://www.w3.org/2000/svg"
   xmlns="http://www.w3.org/2000/svg"
   xmlns:sodipodi="http://sodipodi.sourceforge.net/DTD/sodipodi-0.dtd"
   xmlns:inkscape="http://www.inkscape.org/namespaces/inkscape"
   id="svg2"
   version="1.1"
   inkscape:version="0.48.3.1 r9886"
   width="326.00284"
   height="329.78333"
   xml:space="preserve"
   sodipodi:docname="bs-cs-chart.svg"><metadata
     id="metadata8"><rdf:RDF><cc:Work
         rdf:about=""><dc:format>image/svg+xml</dc:format><dc:type
           rdf:resource="http://purl.org/dc/dcmitype/StillImage" /><dc:title /></cc:Work></rdf:RDF></metadata><defs
     id="defs6" /><sodipodi:namedview
     pagecolor="#ffffff"
     bordercolor="#666666"
     borderopacity="1"
     objecttolerance="10"
     gridtolerance="10"
     guidetolerance="10"
     inkscape:pageopacity="0"
     inkscape:pageshadow="2"
     inkscape:window-width="1280"
     inkscape:window-height="1004"
     id="namedview4"
     showgrid="false"
     fit-margin-top="10"
     fit-margin-left="10"
     fit-margin-right="10"
     fit-margin-bottom="10"
     inkscape:zoom="2"
     inkscape:cx="151.7498"
     inkscape:cy="169.74845"
     inkscape:window-x="2557"
     inkscape:window-y="-3"
     inkscape:window-maximized="1"
     inkscape:current-layer="g10" /><g
     id="g10"
     inkscape:groupmode="layer"
     inkscape:label="bs-cs"
     transform="matrix(1.25,0,0,-1.25,9.9978361,448.56708)"><rect
   style="fill:#ffffff;fill-opacity:1;stroke:none"
   id="rect3124"
   width="260.79999"
   height="263.82401"
   x="-7.9982691"
   y="-358.85101"
   transform="scale(1,-1)" /><path
   inkscape:connector-curvature="0"
   id="path14"
   style="fill:#ffffff;fill-opacity:1;fill-rule:evenodd;stroke:#000000;stroke-width:1.41732299;stroke-linecap:butt;stroke-linejoin:miter;stroke-miterlimit:10;stroke-opacity:1;stroke-dasharray:none"
   d="m 70.305,307.621 46.059,0 0,-19.844 -46.059,0 0,19.844 z" /><text
   id="text16"
   transform="scale(1,-1)"
   x="73.963501"
   y="-299.62164"><tspan
     id="tspan18"
     sodipodi:role="line"
     y="-299.62164"
     x="73.963501 78.146736 83.852226 87.669868 91.487518 95.299171 99.116814 102.92247 106.71614"
     style="font-size:5.99316406px;font-variant:normal;font-weight:normal;writing-mode:lr-tb;fill:#000000;fill-opacity:1;fill-rule:nonzero;stroke:none;font-family:DejaVu Sans;-inkscape-font-specification:DejaVuSans">CS2110,SW</tspan><tspan
     id="tspan20"
     sodipodi:role="line"
     y="-292.12164"
     x="73.639282 78.260017 81.951805 87.3936 92.5597 96.245499 98.600815 102.3885 106.04432 109.838"
     style="font-size:5.99316406px;font-variant:normal;font-weight:normal;writing-mode:lr-tb;fill:#000000;fill-opacity:1;fill-rule:nonzero;stroke:none;font-family:DejaVu Sans;-inkscape-font-specification:DejaVuSans">DevMethods</tspan></text>

<path
   inkscape:connector-curvature="0"
   id="path22"
   style="fill:#ffffff;fill-opacity:1;fill-rule:evenodd;stroke:#000000;stroke-width:1.41732299;stroke-linecap:butt;stroke-linejoin:miter;stroke-miterlimit:10;stroke-opacity:1;stroke-dasharray:none"
   d="m 70.305,265.105 46.059,0 0,-19.844 -46.059,0 0,19.844 z" /><text
   id="text24"
   transform="scale(1,-1)"
   x="72.151001"
   y="-257.10205"><tspan
     id="tspan26"
     sodipodi:role="line"
     y="-257.10205"
     x="72.151001 76.334236 82.039726 85.857368 89.675018 93.486671 97.304314 101.10997 104.63995 106.99526 110.65708"
     style="font-size:5.99316406px;font-variant:normal;font-weight:normal;writing-mode:lr-tb;fill:#000000;fill-opacity:1;fill-rule:nonzero;stroke:none;font-family:DejaVu Sans;-inkscape-font-specification:DejaVuSans">CS2150,Prog</tspan><tspan
     id="tspan28"
     sodipodi:role="line"
     y="-249.60207"
     x="76.217407 82.791908 87.412636 91.074463 93.429771 99.003418 102.91096 106.59076"
     style="font-size:5.99316406px;font-variant:normal;font-weight:normal;writing-mode:lr-tb;fill:#000000;fill-opacity:1;fill-rule:nonzero;stroke:none;font-family:DejaVu Sans;-inkscape-font-specification:DejaVuSans">&amp;DataRep</tspan></text>

<path
   inkscape:connector-curvature="0"
   id="path30"
   style="fill:none;stroke:#000000;stroke-width:1;stroke-linecap:butt;stroke-linejoin:miter;stroke-miterlimit:10;stroke-opacity:1;stroke-dasharray:none"
   d="m 29.555,287.781 0,-19.226" /><path
   inkscape:connector-curvature="0"
   id="path32"
   style="fill:#000000;fill-opacity:1;fill-rule:evenodd;stroke:#000000;stroke-width:1;stroke-linecap:butt;stroke-linejoin:miter;stroke-miterlimit:10;stroke-opacity:1;stroke-dasharray:none"
   d="m 29.555,265.898 -1.77,3.543 1.77,-0.886 1.773,0.886 -1.773,-3.543 z" /><path
   inkscape:connector-curvature="0"
   id="path34"
   style="fill:none;stroke:#000000;stroke-width:1;stroke-linecap:butt;stroke-linejoin:miter;stroke-miterlimit:10;stroke-opacity:1;stroke-dasharray:none"
   d="M 93.336,287.781 32.805,266.262" /><path
   inkscape:connector-curvature="0"
   id="path36"
   style="fill:#000000;fill-opacity:1;fill-rule:evenodd;stroke:#000000;stroke-width:1;stroke-linecap:butt;stroke-linejoin:miter;stroke-miterlimit:10;stroke-opacity:1;stroke-dasharray:none"
   d="m 30.301,265.367 2.746,2.86 -0.242,-1.965 1.429,-1.371 -3.933,0.476 z" /><path
   inkscape:connector-curvature="0"
   id="path38"
   style="fill:none;stroke:#000000;stroke-width:1;stroke-linecap:butt;stroke-linejoin:miter;stroke-miterlimit:10;stroke-opacity:1;stroke-dasharray:none"
   d="m 93.336,287.781 0,-18.547" /><path
   inkscape:connector-curvature="0"
   id="path40"
   style="fill:#000000;fill-opacity:1;fill-rule:evenodd;stroke:#000000;stroke-width:1;stroke-linecap:butt;stroke-linejoin:miter;stroke-miterlimit:10;stroke-opacity:1;stroke-dasharray:none"
   d="m 93.336,266.574 -1.774,3.543 1.774,-0.883 1.769,0.883 -1.769,-3.543 z" /><path
   inkscape:connector-curvature="0"
   id="path42"
   style="fill:none;stroke:#000000;stroke-width:1;stroke-linecap:butt;stroke-linejoin:miter;stroke-miterlimit:10;stroke-opacity:1;stroke-dasharray:none"
   d="m 29.555,330.301 0,-19.227" /><path
   inkscape:connector-curvature="0"
   id="path44"
   style="fill:#000000;fill-opacity:1;fill-rule:evenodd;stroke:#000000;stroke-width:1;stroke-linecap:butt;stroke-linejoin:miter;stroke-miterlimit:10;stroke-opacity:1;stroke-dasharray:none"
   d="m 29.555,308.414 -1.77,3.543 1.77,-0.883 1.773,0.883 -1.773,-3.543 z" /><path
   inkscape:connector-curvature="0"
   id="path46"
   style="fill:none;stroke:#000000;stroke-width:1;stroke-linecap:butt;stroke-linejoin:miter;stroke-miterlimit:10;stroke-opacity:1;stroke-dasharray:none"
   d="m 29.555,330.301 60.531,-21.52" /><path
   inkscape:connector-curvature="0"
   id="path48"
   style="fill:#000000;fill-opacity:1;fill-rule:evenodd;stroke:#000000;stroke-width:1;stroke-linecap:butt;stroke-linejoin:miter;stroke-miterlimit:10;stroke-opacity:1;stroke-dasharray:none"
   d="m 92.59,307.891 -3.934,-0.485 1.43,1.375 -0.242,1.961 2.746,-2.851 z" /><path
   inkscape:connector-curvature="0"
   id="path50"
   style="fill:none;stroke:#000000;stroke-width:1;stroke-linecap:butt;stroke-linejoin:miter;stroke-miterlimit:10;stroke-opacity:1;stroke-dasharray:none"
   d="M 93.336,245.262 32.805,223.742" /><path
   inkscape:connector-curvature="0"
   id="path52"
   style="fill:#000000;fill-opacity:1;fill-rule:evenodd;stroke:#000000;stroke-width:1;stroke-linecap:butt;stroke-linejoin:miter;stroke-miterlimit:10;stroke-opacity:1;stroke-dasharray:none"
   d="m 30.301,222.852 2.746,2.851 -0.242,-1.961 1.429,-1.375 -3.933,0.485 z" /><path
   inkscape:connector-curvature="0"
   id="path54"
   style="fill:#ffffff;fill-opacity:1;fill-rule:evenodd;stroke:#000000;stroke-width:1.41732299;stroke-linecap:butt;stroke-linejoin:miter;stroke-miterlimit:10;stroke-opacity:1;stroke-dasharray:none"
   d="m 70.305,222.582 45.852,0 0,-19.844 -45.852,0 0,19.844 z" /><text
   id="text56"
   transform="scale(1,-1)"
   x="73.041626"
   y="-214.58257"><tspan
     id="tspan58"
     sodipodi:role="line"
     y="-214.58257"
     x="73.041626 77.224861 82.930351 86.747993 90.565643 94.377296 98.194939 102.0006 106.01601 109.80969"
     style="font-size:5.99316406px;font-variant:normal;font-weight:normal;writing-mode:lr-tb;fill:#000000;fill-opacity:1;fill-rule:nonzero;stroke:none;font-family:DejaVu Sans;-inkscape-font-specification:DejaVuSans">CS3240,Adv</tspan><tspan
     id="tspan60"
     sodipodi:role="line"
     y="-207.08257"
     x="73.787727 77.581398 85.40847 90.029198 93.720985 99.162781 101.82973 105.50954 108.80578"
     style="font-size:5.99316406px;font-variant:normal;font-weight:normal;writing-mode:lr-tb;fill:#000000;fill-opacity:1;fill-rule:nonzero;stroke:none;font-family:DejaVu Sans;-inkscape-font-specification:DejaVuSans">SWDevTech</tspan></text>

<path
   inkscape:connector-curvature="0"
   id="path62"
   style="fill:none;stroke:#000000;stroke-width:1;stroke-linecap:butt;stroke-linejoin:miter;stroke-miterlimit:10;stroke-opacity:1;stroke-dasharray:none"
   d="M 93.336,245.262 93.273,226.715" /><path
   inkscape:connector-curvature="0"
   id="path64"
   style="fill:#000000;fill-opacity:1;fill-rule:evenodd;stroke:#000000;stroke-width:1;stroke-linecap:butt;stroke-linejoin:miter;stroke-miterlimit:10;stroke-opacity:1;stroke-dasharray:none"
   d="m 93.266,224.059 -1.758,3.546 1.765,-0.89 1.778,0.879 -1.785,-3.535 z" /><path
   inkscape:connector-curvature="0"
   id="path66"
   style="fill:#ffffff;fill-opacity:1;fill-rule:evenodd;stroke:#000000;stroke-width:1.41732299;stroke-linecap:butt;stroke-linejoin:miter;stroke-miterlimit:10;stroke-opacity:1;stroke-dasharray:none"
   d="m 6.523,350.145 46.062,0 0,-19.844 -46.062,0 0,19.844 z" /><text
   id="text68"
   transform="scale(1,-1)"
   x="8.2095966"
   y="-342.14117"><tspan
     id="tspan70"
     sodipodi:role="line"
     y="-342.14117"
     x="8.2095966 12.392825 18.098318 21.915964 25.733608 29.545261 33.093216 36.892879 38.654869 42.442551 44.797863 47.153179"
     style="font-size:5.99316406px;font-variant:normal;font-weight:normal;writing-mode:lr-tb;fill:#000000;fill-opacity:1;fill-rule:nonzero;stroke:none;font-family:DejaVu Sans;-inkscape-font-specification:DejaVuSans">CS111x,Intro</tspan><tspan
     id="tspan72"
     sodipodi:role="line"
     y="-334.64117"
     x="7.4556928 9.8110065 15.372663 18.896643 21.25795 24.91378 28.713446 31.176636 34.838459 40.68779 42.317928 43.984028 47.771709"
     style="font-size:5.99316406px;font-variant:normal;font-weight:normal;writing-mode:lr-tb;fill:#000000;fill-opacity:1;fill-rule:nonzero;stroke:none;font-family:DejaVu Sans;-inkscape-font-specification:DejaVuSans">toProgram'ing</tspan></text>

<path
   inkscape:connector-curvature="0"
   id="path74"
   style="fill:#ffffff;fill-opacity:1;fill-rule:evenodd;stroke:#000000;stroke-width:1.41732299;stroke-linecap:butt;stroke-linejoin:miter;stroke-miterlimit:10;stroke-opacity:1;stroke-dasharray:none"
   d="m 6.523,307.621 46.062,0 0,-19.844 -46.062,0 0,19.844 z" /><text
   id="text76"
   transform="scale(1,-1)"
   x="15.057254"
   y="-299.62164"><tspan
     id="tspan78"
     sodipodi:role="line"
     y="-299.62164"
     x="15.057254 19.240482 24.945974 28.76362 32.581264 36.392918 40.210564"
     style="font-size:5.99316406px;font-variant:normal;font-weight:normal;writing-mode:lr-tb;fill:#000000;fill-opacity:1;fill-rule:nonzero;stroke:none;font-family:DejaVu Sans;-inkscape-font-specification:DejaVuSans">CS2102,</tspan><tspan
     id="tspan80"
     sodipodi:role="line"
     y="-292.12164"
     x="8.6939707 13.314699 14.974806 18.091251 21.381498 23.736813 27.4286 29.777922 35.369541 40.535652 44.203468 46.552788"
     style="font-size:5.99316406px;font-variant:normal;font-weight:normal;writing-mode:lr-tb;fill:#000000;fill-opacity:1;fill-rule:nonzero;stroke:none;font-family:DejaVu Sans;-inkscape-font-specification:DejaVuSans">DiscreteMath</tspan></text>

<path
   inkscape:connector-curvature="0"
   id="path82"
   style="fill:#ffffff;fill-opacity:1;fill-rule:evenodd;stroke:#000000;stroke-width:1.41732299;stroke-linecap:butt;stroke-linejoin:miter;stroke-miterlimit:10;stroke-opacity:1;stroke-dasharray:none"
   d="m 6.523,222.582 46.062,0 0,-19.844 -46.062,0 0,19.844 z" /><text
   id="text84"
   transform="scale(1,-1)"
   x="16.01038"
   y="-214.58257"><tspan
     id="tspan86"
     sodipodi:role="line"
     y="-214.58257"
     x="16.01038 20.193607 25.899099 29.716745 33.534389 37.346043 41.163689"
     style="font-size:5.99316406px;font-variant:normal;font-weight:normal;writing-mode:lr-tb;fill:#000000;fill-opacity:1;fill-rule:nonzero;stroke:none;font-family:DejaVu Sans;-inkscape-font-specification:DejaVuSans">CS4102,</tspan><tspan
     id="tspan88"
     sodipodi:role="line"
     y="-207.08257"
     x="13.30335 17.408669 19.06278 22.856455 26.524271 28.981468 30.641575 32.990894 36.784569 42.627903"
     style="font-size:5.99316406px;font-variant:normal;font-weight:normal;writing-mode:lr-tb;fill:#000000;fill-opacity:1;fill-rule:nonzero;stroke:none;font-family:DejaVu Sans;-inkscape-font-specification:DejaVuSans">Algorithms</tspan></text>

<path
   inkscape:connector-curvature="0"
   id="path90"
   style="fill:none;stroke:#000000;stroke-width:1;stroke-linecap:butt;stroke-linejoin:miter;stroke-miterlimit:10;stroke-opacity:1;stroke-dasharray:none"
   d="M 27.785,287.781 C 12.629,285.07 1.344,272.277 0.547,256.902 -0.254,241.527 9.648,227.633 24.438,223.367" /><path
   inkscape:connector-curvature="0"
   id="path92"
   style="fill:#000000;fill-opacity:1;fill-rule:evenodd;stroke:#000000;stroke-width:1;stroke-linecap:butt;stroke-linejoin:miter;stroke-miterlimit:10;stroke-opacity:1;stroke-dasharray:none"
   d="m 27.004,222.727 -3.801,-1.122 1.184,1.59 -0.559,1.899 3.176,-2.367 z" /><path
   inkscape:connector-curvature="0"
   id="path94"
   style="fill:#ffffff;fill-opacity:1;fill-rule:evenodd;stroke:#000000;stroke-width:1.41732299;stroke-linecap:butt;stroke-linejoin:miter;stroke-miterlimit:10;stroke-opacity:1;stroke-dasharray:none"
   d="m 169.516,307.621 46.059,0 0,-19.844 -46.059,0 0,19.844 z" /><text
   id="text96"
   transform="scale(1,-1)"
   x="172.99475"
   y="-299.62164"><tspan
     id="tspan98"
     sodipodi:role="line"
     y="-299.62164"
     x="172.99475 177.17798 182.88347 186.70111 190.51877 194.33041 198.14806 201.95372 206.57445 208.23456"
     style="font-size:5.99316406px;font-variant:normal;font-weight:normal;writing-mode:lr-tb;fill:#000000;fill-opacity:1;fill-rule:nonzero;stroke:none;font-family:DejaVu Sans;-inkscape-font-specification:DejaVuSans">CS2330,Dig</tspan><tspan
     id="tspan100"
     sodipodi:role="line"
     y="-292.12164"
     x="173.38928 176.64357 180.29939 184.09308 185.75317 190.94925 195.57597 199.25578 202.37222 204.03233 207.832"
     style="font-size:5.99316406px;font-variant:normal;font-weight:normal;writing-mode:lr-tb;fill:#000000;fill-opacity:1;fill-rule:nonzero;stroke:none;font-family:DejaVu Sans;-inkscape-font-specification:DejaVuSans">LogicDesign</tspan></text>

<path
   inkscape:connector-curvature="0"
   id="path102"
   style="fill:#ffffff;fill-opacity:1;fill-rule:evenodd;stroke:#000000;stroke-width:1.41732299;stroke-linecap:butt;stroke-linejoin:miter;stroke-miterlimit:10;stroke-opacity:1;stroke-dasharray:none"
   d="m 197.863,265.105 46.062,0 0,-19.844 -46.062,0 0,19.844 z" /><text
   id="text104"
   transform="scale(1,-1)"
   x="206.39319"
   y="-257.10205"><tspan
     id="tspan106"
     sodipodi:role="line"
     y="-257.10205"
     x="206.39319 210.57642 216.28191 220.09956 223.91721 227.72885 231.54649"
     style="font-size:5.99316406px;font-variant:normal;font-weight:normal;writing-mode:lr-tb;fill:#000000;fill-opacity:1;fill-rule:nonzero;stroke:none;font-family:DejaVu Sans;-inkscape-font-specification:DejaVuSans">CS3330,</tspan><tspan
     id="tspan108"
     sodipodi:role="line"
     y="-249.60207"
     x="204.401 208.58423 212.24605 218.08939 223.78889 227.89421 230.25551 233.54576"
     style="font-size:5.99316406px;font-variant:normal;font-weight:normal;writing-mode:lr-tb;fill:#000000;fill-opacity:1;fill-rule:nonzero;stroke:none;font-family:DejaVu Sans;-inkscape-font-specification:DejaVuSans">CompArch</tspan></text>

<path
   inkscape:connector-curvature="0"
   id="path110"
   style="fill:#ffffff;fill-opacity:1;fill-rule:evenodd;stroke:#000000;stroke-width:1.41732299;stroke-linecap:butt;stroke-linejoin:miter;stroke-miterlimit:10;stroke-opacity:1;stroke-dasharray:none"
   d="m 134.082,265.105 46.062,0 0,-19.844 -46.062,0 0,19.844 z" /><text
   id="text112"
   transform="scale(1,-1)"
   x="143.56897"
   y="-257.10205"><tspan
     id="tspan114"
     sodipodi:role="line"
     y="-257.10205"
     x="143.56897 147.7522 153.45769 157.27533 161.09299 164.90463 168.72227"
     style="font-size:5.99316406px;font-variant:normal;font-weight:normal;writing-mode:lr-tb;fill:#000000;fill-opacity:1;fill-rule:nonzero;stroke:none;font-family:DejaVu Sans;-inkscape-font-specification:DejaVuSans">CS2190,</tspan><tspan
     id="tspan116"
     sodipodi:role="line"
     y="-249.60207"
     x="139.68616 143.86938 149.57487 153.36855 157.05435 162.90367 164.55779 168.34546 172.01328"
     style="font-size:5.99316406px;font-variant:normal;font-weight:normal;writing-mode:lr-tb;fill:#000000;fill-opacity:1;fill-rule:nonzero;stroke:none;font-family:DejaVu Sans;-inkscape-font-specification:DejaVuSans">CSSeminar</tspan></text>

<path
   inkscape:connector-curvature="0"
   id="path118"
   style="fill:none;stroke:#000000;stroke-width:1;stroke-linecap:butt;stroke-linejoin:miter;stroke-miterlimit:10;stroke-opacity:1;stroke-dasharray:none"
   d="M 192.547,287.781 180.789,225.977" /><path
   inkscape:connector-curvature="0"
   id="path120"
   style="fill:#000000;fill-opacity:1;fill-rule:evenodd;stroke:#000000;stroke-width:1;stroke-linecap:butt;stroke-linejoin:miter;stroke-miterlimit:10;stroke-opacity:1;stroke-dasharray:none"
   d="m 180.293,223.363 -1.078,3.813 1.574,-1.199 1.906,0.539 -2.402,-3.153 z" /><path
   inkscape:connector-curvature="0"
   id="path122"
   style="fill:none;stroke:#000000;stroke-width:1;stroke-linecap:butt;stroke-linejoin:miter;stroke-miterlimit:10;stroke-opacity:1;stroke-dasharray:none"
   d="m 93.336,287.781 124.16,-22.074" /><path
   inkscape:connector-curvature="0"
   id="path124"
   style="fill:#000000;fill-opacity:1;fill-rule:evenodd;stroke:#000000;stroke-width:1;stroke-linecap:butt;stroke-linejoin:miter;stroke-miterlimit:10;stroke-opacity:1;stroke-dasharray:none"
   d="m 220.113,265.242 -3.797,-1.125 1.18,1.59 -0.558,1.902 3.175,-2.367 z" /><path
   inkscape:connector-curvature="0"
   id="path126"
   style="fill:#ffffff;fill-opacity:1;fill-rule:evenodd;stroke:#000000;stroke-width:1.41732299;stroke-linecap:butt;stroke-linejoin:miter;stroke-miterlimit:10;stroke-opacity:1;stroke-dasharray:none"
   d="m 134.082,222.582 46.062,0 0,-19.844 -46.062,0 0,19.844 z" /><text
   id="text128"
   transform="scale(1,-1)"
   x="143.56897"
   y="-214.58257"><tspan
     id="tspan130"
     sodipodi:role="line"
     y="-214.58257"
     x="143.56897 147.7522 153.45769 157.27533 161.09299 164.90463 168.72227"
     style="font-size:5.99316406px;font-variant:normal;font-weight:normal;writing-mode:lr-tb;fill:#000000;fill-opacity:1;fill-rule:nonzero;stroke:none;font-family:DejaVu Sans;-inkscape-font-specification:DejaVuSans">CS4414,</tspan><tspan
     id="tspan132"
     sodipodi:role="line"
     y="-207.08257"
     x="143.57678 148.2934 152.09306 155.77887 160.14789 163.94156 167.48352"
     style="font-size:5.99316406px;font-variant:normal;font-weight:normal;writing-mode:lr-tb;fill:#000000;fill-opacity:1;fill-rule:nonzero;stroke:none;font-family:DejaVu Sans;-inkscape-font-specification:DejaVuSans">OperSys</tspan></text>

<path
   inkscape:connector-curvature="0"
   id="path134"
   style="fill:none;stroke:#000000;stroke-width:1;stroke-linecap:butt;stroke-linejoin:miter;stroke-miterlimit:10;stroke-opacity:1;stroke-dasharray:none"
   d="m 93.336,245.262 60.527,-21.52" /><path
   inkscape:connector-curvature="0"
   id="path136"
   style="fill:#000000;fill-opacity:1;fill-rule:evenodd;stroke:#000000;stroke-width:1;stroke-linecap:butt;stroke-linejoin:miter;stroke-miterlimit:10;stroke-opacity:1;stroke-dasharray:none"
   d="m 156.367,222.852 -3.929,-0.485 1.425,1.375 -0.238,1.961 2.742,-2.851 z" /><path
   inkscape:connector-curvature="0"
   id="path138"
   style="fill:none;stroke:#000000;stroke-width:1;stroke-linecap:butt;stroke-linejoin:miter;stroke-miterlimit:10;stroke-opacity:1;stroke-dasharray:none"
   d="m 220.895,245.262 -60.532,-21.52" /><path
   inkscape:connector-curvature="0"
   id="path140"
   style="fill:#000000;fill-opacity:1;fill-rule:evenodd;stroke:#000000;stroke-width:1;stroke-linecap:butt;stroke-linejoin:miter;stroke-miterlimit:10;stroke-opacity:1;stroke-dasharray:none"
   d="m 157.859,222.852 2.746,2.851 -0.242,-1.961 1.43,-1.375 -3.934,0.485 z" /><path
   inkscape:connector-curvature="0"
   id="path142"
   style="fill:none;stroke:#000000;stroke-width:1;stroke-linecap:butt;stroke-linejoin:miter;stroke-miterlimit:10;stroke-opacity:1;stroke-dasharray:none"
   d="M 93.336,287.781 C 59.672,272.191 58.965,250.934 58.965,215.496" /><path
   inkscape:connector-curvature="0"
   id="path144"
   style="fill:#ffffff;fill-opacity:1;fill-rule:evenodd;stroke:#000000;stroke-width:1;stroke-linecap:butt;stroke-linejoin:miter;stroke-miterlimit:10;stroke-opacity:1;stroke-dasharray:none"
   d="m 70.698113,151.719 49.211887,0 0,-19.86692 -49.211887,0 0,19.86692 z" /><text
   id="text146"
   transform="scale(1,-1)"
   x="72.872078"
   y="-140.98175"><tspan
     id="tspan148"
     sodipodi:role="line"
     style="font-size:5.99316406px;font-variant:normal;font-weight:normal;writing-mode:lr-tb;fill:#000000;fill-opacity:1;fill-rule:nonzero;stroke:none;font-family:DejaVu Sans;-inkscape-font-specification:DejaVuSans"
     x="72.872078"
     y="-140.98175" /><tspan
     sodipodi:role="line"
     style="font-size:5.99316406px;font-variant:normal;font-weight:normal;writing-mode:lr-tb;fill:#000000;fill-opacity:1;fill-rule:nonzero;stroke:none;font-family:DejaVu Sans;-inkscape-font-specification:DejaVuSans"
     id="tspan3536"
     x="72.872078"
     y="-133.4903" /><tspan
     sodipodi:role="line"
     style="font-size:5.99316406px;font-variant:normal;font-weight:normal;writing-mode:lr-tb;fill:#000000;fill-opacity:1;fill-rule:nonzero;stroke:none;font-family:DejaVu Sans;-inkscape-font-specification:DejaVuSans"
     id="tspan3538"
     x="72.872078"
     y="-125.99884" /><tspan
     sodipodi:role="line"
     style="font-size:5.99316406px;font-variant:normal;font-weight:normal;writing-mode:lr-tb;fill:#000000;fill-opacity:1;fill-rule:nonzero;stroke:none;font-family:DejaVu Sans;-inkscape-font-specification:DejaVuSans"
     id="tspan3540"
     x="72.872078"
     y="-118.50739" /><tspan
     sodipodi:role="line"
     y="-140.98175 -140.98175"
     x="72.872078 72.872078 76.977386 78.6315 82.191444 86.380661 92.080154 95.765953 97.426064 101.11185 104.4021 106.75143 108.41154 111.94751 115.63929"
     style="font-size:5.99316406px;font-variant:normal;font-weight:normal;writing-mode:lr-tb;fill:#000000;fill-opacity:1;fill-rule:nonzero;stroke:none;font-family:DejaVu Sans;-inkscape-font-specification:DejaVuSans"
     id="tspan3542">;AllCSelectives</tspan><tspan
     id="tspan172"
     sodipodi:role="line"
     x="72.872078"
     style="font-size:5.99316406px;font-variant:normal;font-weight:normal;writing-mode:lr-tb;fill:#000000;fill-opacity:1;fill-rule:nonzero;stroke:none;font-family:DejaVu Sans;-inkscape-font-specification:DejaVuSans"
     y="0" /></text>

<path
   inkscape:connector-curvature="0"
   id="path174"
   style="fill:#ffffff;fill-opacity:1;fill-rule:evenodd;stroke:#000000;stroke-width:1;stroke-linecap:butt;stroke-linejoin:miter;stroke-miterlimit:10;stroke-opacity:1;stroke-dasharray:none"
   d="m 134.082,151.719 46.441,0 0,-19.848 -46.441,0 0,19.848 z" /><text
   id="text176"
   transform="scale(1,-1)"
   x="143.76038"
   y="-143.71536"><tspan
     id="tspan178"
     sodipodi:role="line"
     y="-143.71536"
     x="143.76038 147.9436 153.64909 157.46675 161.28439 165.09604 168.9137"
     style="font-size:5.99316406px;font-variant:normal;font-weight:normal;writing-mode:lr-tb;fill:#000000;fill-opacity:1;fill-rule:nonzero;stroke:none;font-family:DejaVu Sans;-inkscape-font-specification:DejaVuSans">CS4444,</tspan><tspan
     id="tspan180"
     sodipodi:role="line"
     y="-136.21536"
     x="136.65881 140.02698 143.69479 146.15797 149.81981 151.47392 153.14001 156.81982 160.38576 164.56898 168.22481 174.07414"
     style="font-size:5.99316406px;font-variant:normal;font-weight:normal;writing-mode:lr-tb;fill:#000000;fill-opacity:1;fill-rule:nonzero;stroke:none;font-family:DejaVu Sans;-inkscape-font-specification:DejaVuSans">ParallelComp</tspan></text>

<path
   inkscape:connector-curvature="0"
   id="path182"
   style="fill:#ffffff;fill-opacity:1;fill-rule:evenodd;stroke:#000000;stroke-width:1;stroke-linecap:butt;stroke-linejoin:miter;stroke-miterlimit:10;stroke-opacity:1;stroke-dasharray:none"
   d="m 134.082,180.066 46.441,0 0,-19.844 -46.441,0 0,19.844 z" /><text
   id="text184"
   transform="scale(1,-1)"
   x="137.11584"
   y="-172.06302"><tspan
     id="tspan186"
     sodipodi:role="line"
     y="-172.06302"
     x="137.11584 141.29907 147.00458 150.82222 154.63986 158.45151 162.26917 166.07481 170.09024 173.88391"
     style="font-size:5.99316406px;font-variant:normal;font-weight:normal;writing-mode:lr-tb;fill:#000000;fill-opacity:1;fill-rule:nonzero;stroke:none;font-family:DejaVu Sans;-inkscape-font-specification:DejaVuSans">CS4330,Adv</tspan><tspan
     id="tspan188"
     sodipodi:role="line"
     y="-164.56302"
     x="140.81116 144.99438 148.65622 154.49954 160.19905 164.30437 166.66566 169.95592"
     style="font-size:5.99316406px;font-variant:normal;font-weight:normal;writing-mode:lr-tb;fill:#000000;fill-opacity:1;fill-rule:nonzero;stroke:none;font-family:DejaVu Sans;-inkscape-font-specification:DejaVuSans">CompArch</tspan></text>

<path
   inkscape:connector-curvature="0"
   id="path190"
   style="fill:#ffffff;fill-opacity:1;fill-rule:evenodd;stroke:#000000;stroke-width:1;stroke-linecap:butt;stroke-linejoin:miter;stroke-miterlimit:10;stroke-opacity:1;stroke-dasharray:none"
   d="m 197.863,151.719 46.441,0 0,-19.848 -46.441,0 0,19.848 z" /><text
   id="text192"
   transform="scale(1,-1)"
   x="207.53772"
   y="-143.71536"><tspan
     id="tspan194"
     sodipodi:role="line"
     y="-143.71536"
     x="207.53772 211.72095 217.42644 221.24408 225.06174 228.87338 232.69102"
     style="font-size:5.99316406px;font-variant:normal;font-weight:normal;writing-mode:lr-tb;fill:#000000;fill-opacity:1;fill-rule:nonzero;stroke:none;font-family:DejaVu Sans;-inkscape-font-specification:DejaVuSans">CS4457,</tspan><tspan
     id="tspan196"
     sodipodi:role="line"
     y="-136.21536"
     x="206.99866 211.48753 215.17932 217.52864 222.42506 226.08089 228.54408 232.02011"
     style="font-size:5.99316406px;font-variant:normal;font-weight:normal;writing-mode:lr-tb;fill:#000000;fill-opacity:1;fill-rule:nonzero;stroke:none;font-family:DejaVu Sans;-inkscape-font-specification:DejaVuSans">Networks</tspan></text>

<path
   inkscape:connector-curvature="0"
   id="path198"
   style="fill:#ffffff;fill-opacity:1;fill-rule:evenodd;stroke:#000000;stroke-width:1;stroke-linecap:butt;stroke-linejoin:miter;stroke-miterlimit:10;stroke-opacity:1;stroke-dasharray:none"
   d="m 197.863,123.371 45.852,0 0,-19.844 -45.852,0 0,19.844 z" /><text
   id="text200"
   transform="scale(1,-1)"
   x="207.24475"
   y="-115.36771"><tspan
     id="tspan202"
     sodipodi:role="line"
     y="-115.36771"
     x="207.24475 211.42798 217.13347 220.95111 224.76877 228.58041 232.39806"
     style="font-size:5.99316406px;font-variant:normal;font-weight:normal;writing-mode:lr-tb;fill:#000000;fill-opacity:1;fill-rule:nonzero;stroke:none;font-family:DejaVu Sans;-inkscape-font-specification:DejaVuSans">CS4458,</tspan><tspan
     id="tspan204"
     sodipodi:role="line"
     y="-107.86771"
     x="201.26428 203.02628 206.81395 209.16327 212.85506 215.22835 219.01604 222.70183 226.95697 230.73866 234.52634 238.326"
     style="font-size:5.99316406px;font-variant:normal;font-weight:normal;writing-mode:lr-tb;fill:#000000;fill-opacity:1;fill-rule:nonzero;stroke:none;font-family:DejaVu Sans;-inkscape-font-specification:DejaVuSans">InternetEng.</tspan></text>

<path
   inkscape:connector-curvature="0"
   id="path206"
   style="fill:none;stroke:#000000;stroke-width:1;stroke-linecap:butt;stroke-linejoin:miter;stroke-miterlimit:10;stroke-opacity:1;stroke-dasharray:none"
   d="m 221.082,131.875 -0.074,-4.695" /><path
   inkscape:connector-curvature="0"
   id="path208"
   style="fill:#000000;fill-opacity:1;fill-rule:evenodd;stroke:#000000;stroke-width:1;stroke-linecap:butt;stroke-linejoin:miter;stroke-miterlimit:10;stroke-opacity:1;stroke-dasharray:none"
   d="m 220.965,124.52 -1.715,3.574 1.758,-0.914 1.785,0.851 -1.828,-3.511 z" /><path
   inkscape:connector-curvature="0"
   id="path210"
   style="fill:#ffffff;fill-opacity:1;fill-rule:evenodd;stroke:#000000;stroke-width:1;stroke-linecap:butt;stroke-linejoin:miter;stroke-miterlimit:10;stroke-opacity:1;stroke-dasharray:none"
   d="m 134.082,123.371 46.441,0 0,-19.844 -46.441,0 0,19.844 z" /><text
   id="text212"
   transform="scale(1,-1)"
   x="143.76038"
   y="-115.36771"><tspan
     id="tspan214"
     sodipodi:role="line"
     y="-115.36771"
     x="143.76038 147.9436 153.64909 157.46675 161.28439 165.09604 168.9137"
     style="font-size:5.99316406px;font-variant:normal;font-weight:normal;writing-mode:lr-tb;fill:#000000;fill-opacity:1;fill-rule:nonzero;stroke:none;font-family:DejaVu Sans;-inkscape-font-specification:DejaVuSans">CS4434,</tspan><tspan
     id="tspan216"
     sodipodi:role="line"
     y="-107.86771"
     x="139.17834 143.79907 147.49086 151.28455 154.97034 158.75801 162.55768 166.2195 170.01917 171.67928"
     style="font-size:5.99316406px;font-variant:normal;font-weight:normal;writing-mode:lr-tb;fill:#000000;fill-opacity:1;fill-rule:nonzero;stroke:none;font-family:DejaVu Sans;-inkscape-font-specification:DejaVuSans">Dependable</tspan></text>

<path
   inkscape:connector-curvature="0"
   id="path218"
   style="fill:none;stroke:#000000;stroke-width:1;stroke-linecap:butt;stroke-linejoin:miter;stroke-miterlimit:10;stroke-opacity:1;stroke-dasharray:none"
   d="m 220.895,245.262 0,-32.16" /><path
   inkscape:connector-curvature="0"
   id="path220"
   style="fill:#ffffff;fill-opacity:1;fill-rule:evenodd;stroke:#000000;stroke-width:1;stroke-linecap:butt;stroke-linejoin:miter;stroke-miterlimit:10;stroke-opacity:1;stroke-dasharray:none"
   d="m 70.305,180.066 46.441,0 0,-19.844 -46.441,0 0,19.844 z" /><text
   id="text222"
   transform="scale(1,-1)"
   x="79.979126"
   y="-172.06302"><tspan
     id="tspan224"
     sodipodi:role="line"
     y="-172.06302"
     x="79.979126 84.162361 89.867851 93.685493 97.503143 101.3148 105.13244"
     style="font-size:5.99316406px;font-variant:normal;font-weight:normal;writing-mode:lr-tb;fill:#000000;fill-opacity:1;fill-rule:nonzero;stroke:none;font-family:DejaVu Sans;-inkscape-font-specification:DejaVuSans">CS4620,</tspan><tspan
     id="tspan226"
     sodipodi:role="line"
     y="-164.56302"
     x="78.463509 82.646736 86.308556 92.151894 95.951561 97.605675 99.259781 102.95158 105.41476"
     style="font-size:5.99316406px;font-variant:normal;font-weight:normal;writing-mode:lr-tb;fill:#000000;fill-opacity:1;fill-rule:nonzero;stroke:none;font-family:DejaVu Sans;-inkscape-font-specification:DejaVuSans">Compilers</tspan></text>

<path
   inkscape:connector-curvature="0"
   id="path228"
   style="fill:#ffffff;fill-opacity:1;fill-rule:evenodd;stroke:#000000;stroke-width:1.41732299;stroke-linecap:butt;stroke-linejoin:miter;stroke-miterlimit:10;stroke-opacity:1;stroke-dasharray:none"
   d="m 6.523,265.105 46.062,0 0,-19.844 -46.062,0 0,19.844 z" /><text
   id="text230"
   transform="scale(1,-1)"
   x="16.01038"
   y="-257.10205"><tspan
     id="tspan232"
     sodipodi:role="line"
     y="-257.10205"
     x="16.01038 20.193607 25.899099 29.716745 33.534389 37.346043 41.163689"
     style="font-size:5.99316406px;font-variant:normal;font-weight:normal;writing-mode:lr-tb;fill:#000000;fill-opacity:1;fill-rule:nonzero;stroke:none;font-family:DejaVu Sans;-inkscape-font-specification:DejaVuSans">CS3102,</tspan><tspan
     id="tspan234"
     sodipodi:role="line"
     y="-249.60207"
     x="9.4283504 13.084181 16.871861 20.56365 24.219481 26.682671 32.124462 36.313683 39.969513 45.812851"
     style="font-size:5.99316406px;font-variant:normal;font-weight:normal;writing-mode:lr-tb;fill:#000000;fill-opacity:1;fill-rule:nonzero;stroke:none;font-family:DejaVu Sans;-inkscape-font-specification:DejaVuSans">TheoryComp</tspan></text>

<path
   inkscape:connector-curvature="0"
   id="path236"
   style="fill:#ffffff;fill-opacity:1;fill-rule:evenodd;stroke:#000000;stroke-width:1;stroke-linecap:butt;stroke-linejoin:miter;stroke-miterlimit:10;stroke-opacity:1;stroke-dasharray:none"
   d="m 6.523,180.066 46.441,0 0,-19.844 -46.441,0 0,19.844 z" /><text
   id="text238"
   transform="scale(1,-1)"
   x="16.19788"
   y="-172.06302"><tspan
     id="tspan240"
     sodipodi:role="line"
     y="-172.06302"
     x="16.19788 20.381107 26.086599 29.904245 33.721889 37.533543 41.351189"
     style="font-size:5.99316406px;font-variant:normal;font-weight:normal;writing-mode:lr-tb;fill:#000000;fill-opacity:1;fill-rule:nonzero;stroke:none;font-family:DejaVu Sans;-inkscape-font-specification:DejaVuSans">CS3205,</tspan><tspan
     id="tspan242"
     sodipodi:role="line"
     y="-164.56302"
     x="24.51038 29.011246 33.194473"
     style="font-size:5.99316406px;font-variant:normal;font-weight:normal;writing-mode:lr-tb;fill:#000000;fill-opacity:1;fill-rule:nonzero;stroke:none;font-family:DejaVu Sans;-inkscape-font-specification:DejaVuSans">HCI</tspan></text>

<path
   inkscape:connector-curvature="0"
   id="path244"
   style="fill:none;stroke:#000000;stroke-width:1;stroke-linecap:butt;stroke-linejoin:miter;stroke-miterlimit:10;stroke-opacity:1;stroke-dasharray:none"
   d="m 93.23,202.742 0.25,-19.226" /><path
   inkscape:connector-curvature="0"
   id="path246"
   style="fill:#000000;fill-opacity:1;fill-rule:evenodd;stroke:#000000;stroke-width:1;stroke-linecap:butt;stroke-linejoin:miter;stroke-miterlimit:10;stroke-opacity:1;stroke-dasharray:none"
   d="m 93.512,180.859 -1.817,3.516 1.785,-0.859 1.758,0.91 -1.726,-3.567 z" /><path
   inkscape:connector-curvature="0"
   id="path248"
   style="fill:none;stroke:#000000;stroke-width:1;stroke-linecap:butt;stroke-linejoin:miter;stroke-miterlimit:10;stroke-opacity:1;stroke-dasharray:none"
   d="M 219.902,209.871 182.457,154.574" /><path
   inkscape:connector-curvature="0"
   id="path250"
   style="fill:#000000;fill-opacity:1;fill-rule:evenodd;stroke:#000000;stroke-width:1;stroke-linecap:butt;stroke-linejoin:miter;stroke-miterlimit:10;stroke-opacity:1;stroke-dasharray:none"
   d="m 180.969,152.371 0.519,3.934 0.969,-1.731 1.965,-0.258 -3.453,-1.945 z" /><path
   inkscape:connector-curvature="0"
   id="path252"
   style="fill:none;stroke:#000000;stroke-width:1;stroke-linecap:butt;stroke-linejoin:miter;stroke-miterlimit:10;stroke-opacity:1;stroke-dasharray:none"
   d="M 219.492,210.246 183.25,182.18" /><path
   inkscape:connector-curvature="0"
   id="path254"
   style="fill:#000000;fill-opacity:1;fill-rule:evenodd;stroke:#000000;stroke-width:1;stroke-linecap:butt;stroke-linejoin:miter;stroke-miterlimit:10;stroke-opacity:1;stroke-dasharray:none"
   d="m 181.148,180.551 1.719,3.566 0.383,-1.937 1.785,-0.86 -3.887,-0.769 z" /><path
   inkscape:connector-curvature="0"
   id="path256"
   style="fill:none;stroke:#000000;stroke-width:1;stroke-linecap:butt;stroke-linejoin:miter;stroke-miterlimit:10;stroke-opacity:1;stroke-dasharray:none"
   d="M 219.199,210.824 120.047,181.059" /><path
   inkscape:connector-curvature="0"
   id="path258"
   style="fill:#000000;fill-opacity:1;fill-rule:evenodd;stroke:#000000;stroke-width:1;stroke-linecap:butt;stroke-linejoin:miter;stroke-miterlimit:10;stroke-opacity:1;stroke-dasharray:none"
   d="m 117.504,180.289 2.883,2.719 -0.34,-1.949 1.359,-1.442 -3.902,0.672 z" /><path
   inkscape:connector-curvature="0"
   id="path260"
   style="fill:none;stroke:#000000;stroke-width:1;stroke-linecap:butt;stroke-linejoin:miter;stroke-miterlimit:10;stroke-opacity:1;stroke-dasharray:none"
   d="M 220.16,209.734 181.961,126.508" /><path
   inkscape:connector-curvature="0"
   id="path262"
   style="fill:#000000;fill-opacity:1;fill-rule:evenodd;stroke:#000000;stroke-width:1;stroke-linecap:butt;stroke-linejoin:miter;stroke-miterlimit:10;stroke-opacity:1;stroke-dasharray:none"
   d="m 180.855,124.094 -0.132,3.957 1.238,-1.543 1.98,0.066 -3.086,-2.48 z" /><path
   inkscape:connector-curvature="0"
   id="path264"
   style="fill:none;stroke:#000000;stroke-width:1;stroke-linecap:butt;stroke-linejoin:miter;stroke-miterlimit:10;stroke-opacity:1;stroke-dasharray:none"
   d="m 122.414,178.996 0.332,25.16" /><path
   inkscape:connector-curvature="0"
   id="path266"
   style="fill:none;stroke:#000000;stroke-width:1;stroke-linecap:butt;stroke-linejoin:miter;stroke-miterlimit:10;stroke-opacity:1;stroke-dasharray:none"
   d="m 123.902,176.316 7.231,-4.382" /><path
   inkscape:connector-curvature="0"
   id="path268"
   style="fill:#000000;fill-opacity:1;fill-rule:evenodd;stroke:#000000;stroke-width:1;stroke-linecap:butt;stroke-linejoin:miter;stroke-miterlimit:10;stroke-opacity:1;stroke-dasharray:none"
   d="m 133.406,170.555 -3.949,0.316 1.676,1.063 0.16,1.972 2.113,-3.351 z" /><path
   inkscape:connector-curvature="0"
   id="path270"
   style="fill:none;stroke:#000000;stroke-width:1;stroke-linecap:butt;stroke-linejoin:miter;stroke-miterlimit:10;stroke-opacity:1;stroke-dasharray:none"
   d="m 123.129,175.617 9.516,-20.762" /><path
   inkscape:connector-curvature="0"
   id="path272"
   style="fill:#000000;fill-opacity:1;fill-rule:evenodd;stroke:#000000;stroke-width:1;stroke-linecap:butt;stroke-linejoin:miter;stroke-miterlimit:10;stroke-opacity:1;stroke-dasharray:none"
   d="m 133.754,152.441 -3.086,2.477 1.977,-0.063 1.242,1.543 -0.133,-3.957 z" /><path
   inkscape:connector-curvature="0"
   id="path274"
   style="fill:none;stroke:#000000;stroke-width:1;stroke-linecap:butt;stroke-linejoin:miter;stroke-miterlimit:10;stroke-opacity:1;stroke-dasharray:none"
   d="m 122.219,175.477 -1.977,-20.325" /><path
   inkscape:connector-curvature="0"
   id="path276"
   style="fill:#000000;fill-opacity:1;fill-rule:evenodd;stroke:#000000;stroke-width:1;stroke-linecap:butt;stroke-linejoin:miter;stroke-miterlimit:10;stroke-opacity:1;stroke-dasharray:none"
   d="m 119.988,152.508 -1.422,3.695 1.676,-1.051 1.852,0.711 -2.106,-3.355 z" /><path
   inkscape:connector-curvature="0"
   id="path278"
   style="fill:none;stroke:#000000;stroke-width:1;stroke-linecap:butt;stroke-linejoin:miter;stroke-miterlimit:10;stroke-opacity:1;stroke-dasharray:none"
   d="m 93.336,245.262 c 22.32,-7.086 29.41,-24.098 29.41,-41.106" /><text
   id="text318"
   transform="scale(1,-1)"
   x="151.26819"
   y="-266.99365"><tspan
     id="tspan320"
     sodipodi:role="line"
     y="-266.99365"
     x="151.26819 154.13771 157.00723 158.87038 160.12607 162.99106 167.29759 170.06285 172.92783 174.18353"
     style="font-size:4.53320312px;font-variant:normal;font-weight:normal;writing-mode:lr-tb;fill:#000000;fill-opacity:1;fill-rule:nonzero;stroke:none;font-family:DejaVu Sans;-inkscape-font-specification:DejaVuSans">Springonly</tspan></text>

<path
   inkscape:connector-curvature="0"
   id="path322"
   style="fill:#000000;fill-opacity:1;fill-rule:evenodd;stroke:#000000;stroke-width:1;stroke-linecap:butt;stroke-linejoin:miter;stroke-miterlimit:10;stroke-opacity:1;stroke-dasharray:none"
   d="m 222.312,211.332 c 0,-1.887 -2.835,-1.887 -2.835,0 0,1.895 2.835,1.895 2.835,0" /><path
   inkscape:connector-curvature="0"
   id="path324"
   style="fill:none;stroke:#000000;stroke-width:1;stroke-linecap:butt;stroke-linejoin:miter;stroke-miterlimit:10;stroke-opacity:1;stroke-dasharray:none"
   d="m 222.312,211.332 c 0,-1.887 -2.835,-1.887 -2.835,0 0,1.895 2.835,1.895 2.835,0" /><path
   inkscape:connector-curvature="0"
   id="path326"
   style="fill:none;stroke:#000000;stroke-width:1;stroke-linecap:butt;stroke-linejoin:miter;stroke-miterlimit:10;stroke-opacity:1;stroke-dasharray:none"
   d="m 220.898,209.566 0.149,-54.043" /><path
   inkscape:connector-curvature="0"
   id="path328"
   style="fill:#000000;fill-opacity:1;fill-rule:evenodd;stroke:#000000;stroke-width:1;stroke-linecap:butt;stroke-linejoin:miter;stroke-miterlimit:10;stroke-opacity:1;stroke-dasharray:none"
   d="m 221.055,152.867 -1.782,3.539 1.774,-0.883 1.769,0.887 -1.761,-3.543 z" /><path
   inkscape:connector-curvature="0"
   id="path330"
   style="fill:#000000;fill-opacity:1;fill-rule:evenodd;stroke:#000000;stroke-width:1;stroke-linecap:butt;stroke-linejoin:miter;stroke-miterlimit:10;stroke-opacity:1;stroke-dasharray:none"
   d="m 123.809,177.23 c 0,-1.89 -2.836,-1.89 -2.836,0 0,1.887 2.836,1.887 2.836,0" /><path
   inkscape:connector-curvature="0"
   id="path332"
   style="fill:none;stroke:#000000;stroke-width:1;stroke-linecap:butt;stroke-linejoin:miter;stroke-miterlimit:10;stroke-opacity:1;stroke-dasharray:none"
   d="m 123.809,177.23 c 0,-1.89 -2.836,-1.89 -2.836,0 0,1.887 2.836,1.887 2.836,0" /><path
   inkscape:connector-curvature="0"
   id="path334"
   style="fill:none;stroke:#000000;stroke-width:1;stroke-linecap:butt;stroke-linejoin:miter;stroke-miterlimit:10;stroke-opacity:1;stroke-dasharray:none"
   d="m 93.336,287.781 60.527,-21.519" /><path
   inkscape:connector-curvature="0"
   id="path336"
   style="fill:#000000;fill-opacity:1;fill-rule:evenodd;stroke:#000000;stroke-width:1;stroke-linecap:butt;stroke-linejoin:miter;stroke-miterlimit:10;stroke-opacity:1;stroke-dasharray:none"
   d="m 156.367,265.367 -3.929,-0.476 1.425,1.371 -0.238,1.965 2.742,-2.86 z" /><path
   inkscape:connector-curvature="0"
   id="path338"
   style="fill:none;stroke:#000000;stroke-width:1;stroke-linecap:butt;stroke-linejoin:miter;stroke-miterlimit:10;stroke-opacity:1;stroke-dasharray:none"
   d="m 58.965,215.496 c 0,-14.172 -2.836,-28.344 -4.594,-32.281" /><path
   inkscape:connector-curvature="0"
   id="path340"
   style="fill:#000000;fill-opacity:1;fill-rule:evenodd;stroke:#000000;stroke-width:1;stroke-linecap:butt;stroke-linejoin:miter;stroke-miterlimit:10;stroke-opacity:1;stroke-dasharray:none"
   d="m 53.289,180.785 -0.172,3.957 1.254,-1.527 1.981,0.086 -3.063,-2.516 z" /><path
   inkscape:connector-curvature="0"
   id="path342"
   style="fill:none;stroke:#000000;stroke-width:1;stroke-linecap:butt;stroke-linejoin:miter;stroke-miterlimit:10;stroke-opacity:1;stroke-dasharray:none"
   d="M 29.555,287.781 90.086,266.262" /><path
   inkscape:connector-curvature="0"
   id="path344"
   style="fill:#000000;fill-opacity:1;fill-rule:evenodd;stroke:#000000;stroke-width:1;stroke-linecap:butt;stroke-linejoin:miter;stroke-miterlimit:10;stroke-opacity:1;stroke-dasharray:none"
   d="m 92.59,265.367 -3.934,-0.476 1.43,1.371 -0.242,1.965 2.746,-2.86 z" /><path
   inkscape:connector-curvature="0"
   id="path360"
   style="fill:none;stroke:#000000;stroke-width:1;stroke-linecap:butt;stroke-linejoin:miter;stroke-miterlimit:10;stroke-opacity:1;stroke-dasharray:none"
   d="m 181.445,155.039 c 11.746,43.203 15.508,88.191 11.102,132.742" /><path
   inkscape:connector-curvature="0"
   id="path362"
   style="fill:#000000;fill-opacity:1;fill-rule:evenodd;stroke:#000000;stroke-width:1;stroke-linecap:butt;stroke-linejoin:miter;stroke-miterlimit:10;stroke-opacity:1;stroke-dasharray:none"
   d="m 180.738,152.48 -0.742,3.891 1.465,-1.336 1.945,0.371 -2.668,-2.926 z" /></g></svg>