<?xml version="1.0" encoding="UTF-8" standalone="no"?>
<!-- Created with Inkscape (http://www.inkscape.org/) -->

<svg
   xmlns:dc="http://purl.org/dc/elements/1.1/"
   xmlns:cc="http://creativecommons.org/ns#"
   xmlns:rdf="http://www.w3.org/1999/02/22-rdf-syntax-ns#"
   xmlns:svg="http://www.w3.org/2000/svg"
   xmlns="http://www.w3.org/2000/svg"
   xmlns:sodipodi="http://sodipodi.sourceforge.net/DTD/sodipodi-0.dtd"
   xmlns:inkscape="http://www.inkscape.org/namespaces/inkscape"
   id="svg3091"
   version="1.1"
   inkscape:version="0.48.2 r9819"
   width="604.06873"
   height="279.21875"
   xml:space="preserve"
   sodipodi:docname="prims-diagram.svg"><metadata
     id="metadata3097"><rdf:RDF><cc:Work
         rdf:about=""><dc:format>image/svg+xml</dc:format><dc:type
           rdf:resource="http://purl.org/dc/dcmitype/StillImage" /><dc:title /></cc:Work></rdf:RDF></metadata><defs
     id="defs3095"><clipPath
       clipPathUnits="userSpaceOnUse"
       id="clipPath3105"><path
         d="m 0,1.2207e-4 720,0 0,539.99999793 -720,0 L 0,1.2207e-4 z"
         clip-rule="evenodd"
         id="path3107"
         inkscape:connector-curvature="0" /></clipPath></defs><sodipodi:namedview
     pagecolor="#ffffff"
     bordercolor="#666666"
     borderopacity="1"
     objecttolerance="10"
     gridtolerance="10"
     guidetolerance="10"
     inkscape:pageopacity="0"
     inkscape:pageshadow="2"
     inkscape:window-width="1097"
     inkscape:window-height="789"
     id="namedview3093"
     showgrid="false"
     fit-margin-top="10"
     fit-margin-left="10"
     fit-margin-right="10"
     fit-margin-bottom="10"
     inkscape:zoom="0.34962963"
     inkscape:cx="329.6875"
     inkscape:cy="267.65625"
     inkscape:window-x="0"
     inkscape:window-y="0"
     inkscape:window-maximized="0"
     inkscape:current-layer="g3099" /><g
     id="g3099"
     inkscape:groupmode="layer"
     inkscape:label="13-graphs-tmp"
     transform="matrix(1.25,0,0,-1.25,-120.3125,349.0625)"><rect
   style="fill:#ffffff;fill-opacity:1;stroke:none"
   id="rect4040"
   width="483.25601"
   height="223.37601"
   x="96.25"
   y="-279.25101"
   transform="scale(1,-1)" /><path
   d="m 331.31,249.71 c -11,-10.84 -31.33,-15.31 -46.33,-18.23 -32.66,1.2 -63.49,5.33 -95.99,7.22 -13,-0.52 -26,-0.86 -38.99,-1.72 -3.67,-0.34 -7.17,-1.03 -10.67,-1.89 -3.67,-0.86 -10.67,-3.61 -10.67,-3.61 -7.66,-7.91 -10.49,-18.23 -17.83,-25.8 -4.33,-13.41 -2.5,-7.22 -5.33,-18.23 0.83,-8.6 -1.5,-18.91 3.5,-25.79 23,-31.65 79.49,-24.42 110.32,-25.63 13.67,-3.61 23.83,-14.1 35.5,-22.01 5.17,-8.08 14.83,-12.21 23.16,-16.51 16.5,-8.427 26,-7.739 44.33,-11.007 12.5,-2.235 24.67,-3.955 37.33,-5.503 8.84,0.688 17.84,0.86 26.67,1.892 4.66,0.516 8.33,3.783 12.5,5.503 15.16,6.363 29.66,13.415 44.49,20.125 11.17,4.98 13.5,3.61 26.67,5.5 7.16,1.03 21.33,3.61 21.33,3.61 5.83,4.13 11.5,4.13 17.66,7.4 9.5,4.81 18.17,11.35 28.5,14.61 6.33,6.88 15.5,11.18 19.5,20.3 1.5,3.61 3.67,11 3.67,11 -2.17,27.52 0.5,16.17 -5.34,34.74 -4.16,12.9 -20,22.36 -28.5,31.3 -2.66,2.75 -7.16,2.41 -10.66,3.61 -6.5,2.24 -3.67,5.16 -10.67,5.51 -20.16,1.2 -40.33,1.2 -60.49,1.89 -17.5,2.06 -33,7.05 -49.66,12.72 -17,5.68 7.16,-2.75 -10.67,5.51 -3.5,1.54 -10.66,3.78 -10.66,3.78 -8.67,-1.89 -16.67,-4.47 -25,-7.39 -4.84,-1.72 -11.83,-9.81 -17.67,-12.9 z"
   style="fill:none;stroke:#000000;stroke-width:2.5;stroke-linecap:butt;stroke-linejoin:round;stroke-miterlimit:10;stroke-opacity:1;stroke-dasharray:none"
   id="path3223"
   inkscape:connector-curvature="0" /><text
   transform="matrix(1,0,0,-1,167.23,243.17)"
   id="text3225"><tspan
     style="font-size:24px;font-variant:normal;font-weight:bold;writing-mode:lr-tb;fill:#ff0000;fill-opacity:1;fill-rule:nonzero;stroke:none;font-family:Times New Roman;-inkscape-font-specification:'Times New Roman, Bold'"
     x="0"
     y="0"
     id="tspan3227">G</tspan></text>

<path
   d="m 264,198 c 0,2.49 3.58,4.5 8,4.5 l 0,0 c 4.42,0 8,-2.01 8,-4.5 0,0 0,0 0,0 l 0,0 c 0,-2.49 -3.58,-4.5 -8,-4.5 0,0 0,0 0,0 l 0,0 c -4.42,0 -8,2.01 -8,4.5 0,0 0,0 0,0 z"
   style="fill:#333399;fill-opacity:1;fill-rule:evenodd;stroke:none"
   id="path3229"
   inkscape:connector-curvature="0" /><path
   d="m 264,198 c 0,2.49 3.58,4.5 8,4.5 l 0,0 c 4.42,0 8,-2.01 8,-4.5 0,0 0,0 0,0 l 0,0 c 0,-2.49 -3.58,-4.5 -8,-4.5 0,0 0,0 0,0 l 0,0 c -4.42,0 -8,2.01 -8,4.5 0,0 0,0 0,0 z"
   style="fill:none;stroke:#000000;stroke-width:0.75;stroke-linecap:butt;stroke-linejoin:round;stroke-miterlimit:10;stroke-opacity:1;stroke-dasharray:none"
   id="path3231"
   inkscape:connector-curvature="0" /><path
   d="m 304,148.5 c 0,2.49 3.58,4.5 8,4.5 l 0,0 c 4.42,0 8,-2.01 8,-4.5 0,0 0,0 0,0 l 0,0 c 0,-2.49 -3.58,-4.5 -8,-4.5 0,0 0,0 0,0 l 0,0 c -4.42,0 -8,2.01 -8,4.5 0,0 0,0 0,0 z"
   style="fill:#333399;fill-opacity:1;fill-rule:evenodd;stroke:none"
   id="path3233"
   inkscape:connector-curvature="0" /><path
   d="m 304,148.5 c 0,2.49 3.58,4.5 8,4.5 l 0,0 c 4.42,0 8,-2.01 8,-4.5 0,0 0,0 0,0 l 0,0 c 0,-2.49 -3.58,-4.5 -8,-4.5 0,0 0,0 0,0 l 0,0 c -4.42,0 -8,2.01 -8,4.5 0,0 0,0 0,0 z"
   style="fill:none;stroke:#000000;stroke-width:0.75;stroke-linecap:butt;stroke-linejoin:round;stroke-miterlimit:10;stroke-opacity:1;stroke-dasharray:none"
   id="path3235"
   inkscape:connector-curvature="0" /><path
   d="m 320,207 c 0,2.49 3.58,4.5 8,4.5 l 0,0 c 4.42,0 8,-2.01 8,-4.5 0,0 0,0 0,0 l 0,0 c 0,-2.49 -3.58,-4.5 -8,-4.5 0,0 0,0 0,0 l 0,0 c -4.42,0 -8,2.01 -8,4.5 0,0 0,0 0,0 z"
   style="fill:#333399;fill-opacity:1;fill-rule:evenodd;stroke:none"
   id="path3237"
   inkscape:connector-curvature="0" /><path
   d="m 320,207 c 0,2.49 3.58,4.5 8,4.5 l 0,0 c 4.42,0 8,-2.01 8,-4.5 0,0 0,0 0,0 l 0,0 c 0,-2.49 -3.58,-4.5 -8,-4.5 0,0 0,0 0,0 l 0,0 c -4.42,0 -8,2.01 -8,4.5 0,0 0,0 0,0 z"
   style="fill:none;stroke:#000000;stroke-width:0.75;stroke-linecap:butt;stroke-linejoin:round;stroke-miterlimit:10;stroke-opacity:1;stroke-dasharray:none"
   id="path3239"
   inkscape:connector-curvature="0" /><path
   d="m 344,175.5 c 0,2.49 3.58,4.5 8,4.5 l 0,0 c 4.42,0 8,-2.01 8,-4.5 0,0 0,0 0,0 l 0,0 c 0,-2.49 -3.58,-4.5 -8,-4.5 0,0 0,0 0,0 l 0,0 c -4.42,0 -8,2.01 -8,4.5 0,0 0,0 0,0 z"
   style="fill:#333399;fill-opacity:1;fill-rule:evenodd;stroke:none"
   id="path3241"
   inkscape:connector-curvature="0" /><path
   d="m 344,175.5 c 0,2.49 3.58,4.5 8,4.5 l 0,0 c 4.42,0 8,-2.01 8,-4.5 0,0 0,0 0,0 l 0,0 c 0,-2.49 -3.58,-4.5 -8,-4.5 0,0 0,0 0,0 l 0,0 c -4.42,0 -8,2.01 -8,4.5 0,0 0,0 0,0 z"
   style="fill:none;stroke:#000000;stroke-width:0.75;stroke-linecap:butt;stroke-linejoin:round;stroke-miterlimit:10;stroke-opacity:1;stroke-dasharray:none"
   id="path3243"
   inkscape:connector-curvature="0" /><path
   d="m 384,157.5 c 0,2.49 3.58,4.5 8,4.5 l 0,0 c 4.42,0 8,-2.01 8,-4.5 0,0 0,0 0,0 l 0,0 c 0,-2.49 -3.58,-4.5 -8,-4.5 0,0 0,0 0,0 l 0,0 c -4.42,0 -8,2.01 -8,4.5 0,0 0,0 0,0 z"
   style="fill:#333399;fill-opacity:1;fill-rule:evenodd;stroke:none"
   id="path3245"
   inkscape:connector-curvature="0" /><path
   d="m 384,157.5 c 0,2.49 3.58,4.5 8,4.5 l 0,0 c 4.42,0 8,-2.01 8,-4.5 0,0 0,0 0,0 l 0,0 c 0,-2.49 -3.58,-4.5 -8,-4.5 0,0 0,0 0,0 l 0,0 c -4.42,0 -8,2.01 -8,4.5 0,0 0,0 0,0 z"
   style="fill:none;stroke:#000000;stroke-width:0.75;stroke-linecap:butt;stroke-linejoin:round;stroke-miterlimit:10;stroke-opacity:1;stroke-dasharray:none"
   id="path3247"
   inkscape:connector-curvature="0" /><path
   d="m 376,202.5 c 0,2.49 3.58,4.5 8,4.5 l 0,0 c 4.42,0 8,-2.01 8,-4.5 0,0 0,0 0,0 l 0,0 c 0,-2.49 -3.58,-4.5 -8,-4.5 0,0 0,0 0,0 l 0,0 c -4.42,0 -8,2.01 -8,4.5 0,0 0,0 0,0 z"
   style="fill:#333399;fill-opacity:1;fill-rule:evenodd;stroke:none"
   id="path3249"
   inkscape:connector-curvature="0" /><path
   d="m 376,202.5 c 0,2.49 3.58,4.5 8,4.5 l 0,0 c 4.42,0 8,-2.01 8,-4.5 0,0 0,0 0,0 l 0,0 c 0,-2.49 -3.58,-4.5 -8,-4.5 0,0 0,0 0,0 l 0,0 c -4.42,0 -8,2.01 -8,4.5 0,0 0,0 0,0 z"
   style="fill:none;stroke:#000000;stroke-width:0.75;stroke-linecap:butt;stroke-linejoin:round;stroke-miterlimit:10;stroke-opacity:1;stroke-dasharray:none"
   id="path3251"
   inkscape:connector-curvature="0" /><path
   d="m 280,198 42.38,5.88"
   style="fill:none;stroke:#000000;stroke-width:2.5;stroke-linecap:butt;stroke-linejoin:round;stroke-miterlimit:10;stroke-opacity:1;stroke-dasharray:none"
   id="path3253"
   inkscape:connector-curvature="0" /><path
   d="M 333.63,203.88 376,202.5"
   style="fill:none;stroke:#000000;stroke-width:2.5;stroke-linecap:butt;stroke-linejoin:round;stroke-miterlimit:10;stroke-opacity:1;stroke-dasharray:none"
   id="path3255"
   inkscape:connector-curvature="0" /><path
   d="m 357.63,178.63 32,20.75"
   style="fill:none;stroke:#000000;stroke-width:2.5;stroke-linecap:butt;stroke-linejoin:round;stroke-miterlimit:10;stroke-opacity:1;stroke-dasharray:none"
   id="path3257"
   inkscape:connector-curvature="0" /><path
   d="m 392,162 -34.37,10.38"
   style="fill:none;stroke:#000000;stroke-width:2.5;stroke-linecap:butt;stroke-linejoin:round;stroke-miterlimit:10;stroke-opacity:1;stroke-dasharray:none"
   id="path3259"
   inkscape:connector-curvature="0" /><path
   d="M 392,202.5 464,198"
   style="fill:none;stroke:#339933;stroke-width:2.5;stroke-linecap:butt;stroke-linejoin:round;stroke-miterlimit:10;stroke-opacity:1;stroke-dasharray:none"
   id="path3261"
   inkscape:connector-curvature="0" /><path
   d="m 317.63,151.63 28.75,20.75"
   style="fill:none;stroke:#000000;stroke-width:2.5;stroke-linecap:butt;stroke-linejoin:round;stroke-miterlimit:10;stroke-opacity:1;stroke-dasharray:none"
   id="path3263"
   inkscape:connector-curvature="0" /><path
   d="m 464,198 c 0,2.49 3.58,4.5 8,4.5 l 0,0 c 4.42,0 8,-2.01 8,-4.5 0,0 0,0 0,0 l 0,0 c 0,-2.49 -3.58,-4.5 -8,-4.5 0,0 0,0 0,0 l 0,0 c -4.42,0 -8,2.01 -8,4.5 0,0 0,0 0,0 z"
   style="fill:#bbe0e3;fill-opacity:1;fill-rule:evenodd;stroke:none"
   id="path3265"
   inkscape:connector-curvature="0" /><path
   d="m 464,198 c 0,2.49 3.58,4.5 8,4.5 l 0,0 c 4.42,0 8,-2.01 8,-4.5 0,0 0,0 0,0 l 0,0 c 0,-2.49 -3.58,-4.5 -8,-4.5 0,0 0,0 0,0 l 0,0 c -4.42,0 -8,2.01 -8,4.5 0,0 0,0 0,0 z"
   style="fill:none;stroke:#000000;stroke-width:0.75;stroke-linecap:butt;stroke-linejoin:round;stroke-miterlimit:10;stroke-opacity:1;stroke-dasharray:none"
   id="path3267"
   inkscape:connector-curvature="0" /><path
   d="m 311.17,214.97 c 3.5,6.28 4,3.84 -17.84,2.06 -8.5,-0.65 -23.33,-1.59 -32,-4.03 -6.83,-1.97 -11.33,-5.62 -17.83,-7.96 -4.17,-7.22 -4.5,-4.6 -1.67,-12 0.34,-1.03 0.17,-2.34 1.67,-3 3,-1.22 7.17,-1.4 10.67,-2.06 1.83,-0.37 5.33,-0.94 5.33,-0.94 37.17,0.75 35.67,-0.37 58.67,3 8.33,-0.37 17.16,0.66 25,-1.03 2.33,-0.47 -1.17,-2.72 -1.84,-4.03 -2,-3.93 -0.5,-2.72 -7.16,-3.93 -10.5,-6.19 -28.84,-8.72 -37.34,-16.03 -3.16,-2.72 -6.5,-6 -8.83,-9 -1.5,-1.96 -3.5,-5.99 -3.5,-5.99 1.5,-11.34 -3.67,-13.69 12.33,-16.03 16.17,2.34 9.67,1.22 19.67,3 6.5,3.84 4,4.68 14.17,6 5.5,3.09 9.66,6.65 16,8.99 0.66,1.03 0.5,2.25 1.83,3 5,2.81 12,-0.47 16,-1.97 10.83,-9.27 25.33,-10.87 42.67,-13.96 19,3.47 6.33,-0.66 12.33,4.97 0.83,0.84 2.5,1.31 3.67,1.97 2.83,7.02 4.83,14.99 -3.67,20.99 -5.33,3.75 -11.5,4.5 -19.5,6 -1.83,0.37 -5.33,1.03 -5.33,1.03 -5.84,4.96 -3.17,8.9 5.33,11.99 4,3.38 5.67,4.69 12.5,6 3.67,3.09 7.83,4.41 12.33,7.03 2.84,4.69 5.67,5.62 1.84,9.93 -3.84,4.41 -24.67,5.44 -32,6 -5.34,0.38 -10.67,0.75 -16,1.03 -8.34,0.38 -16.5,0.66 -24.84,1.03 -10.16,0.94 -20.16,2.06 -30.33,3 -6.67,-0.56 -21.5,0.1 -12.33,-5.06 z"
   style="fill:none;stroke:#ff0000;stroke-width:2.5;stroke-linecap:butt;stroke-linejoin:round;stroke-miterlimit:10;stroke-opacity:1;stroke-dasharray:none"
   id="path3269"
   inkscape:connector-curvature="0" /><text
   transform="matrix(1,0,0,-1,471.26,202.66)"
   id="text3271"><tspan
     style="font-size:24px;font-variant:normal;font-weight:bold;writing-mode:lr-tb;fill:#339933;fill-opacity:1;fill-rule:nonzero;stroke:none;font-family:Times New Roman;-inkscape-font-specification:'Times New Roman, Bold'"
     x="0"
     y="0"
     id="tspan3273">v</tspan></text>

<path
   d="m 486.38,64.25 84.75,0 0,36.75 -84.75,0 0,-36.75 z"
   style="fill:none;stroke:#000000;stroke-width:0.75;stroke-linecap:butt;stroke-linejoin:miter;stroke-miterlimit:8;stroke-opacity:1;stroke-dasharray:none"
   id="path3275"
   inkscape:connector-curvature="0" /><text
   transform="matrix(1,0,0,-1,493.66,74.136)"
   id="text3277"><tspan
     style="font-size:24px;font-variant:normal;font-weight:bold;writing-mode:lr-tb;fill:#ff0000;fill-opacity:1;fill-rule:nonzero;stroke:none;font-family:Times New Roman;-inkscape-font-specification:'Times New Roman, Bold'"
     x="0 13.416 26.76 38.759998 55.896"
     y="0"
     sodipodi:role="line"
     id="tspan3279">known</tspan></text>

<path
   d="m 487.28,93.478 -58.89,41.402 1.44,2.05 58.89,-41.407 -1.44,-2.045 z m -59.3,38.642 -3.98,7.38 8.29,-1.25 -4.31,-6.13 z"
   style="fill:#000000;fill-opacity:1;fill-rule:nonzero;stroke:none"
   id="path3281"
   inkscape:connector-curvature="0" /></g></svg>